<svg xmlns="http://www.w3.org/2000/svg" fill="none" viewBox="0 0 512 512"><g transform="translate(30.72 30.72) scale(4.506)"><g clip-path="url(#a)"><path fill="#fff" d="M46.414.148C68.513-1.388 83.167 9.43 91.546 22.607c4.199 6.608 8.324 16.638 8.341 26.95.021 11.204-3.61 20.902-8.341 28.02-4.867 7.315-11.157 13.36-19.036 17.325-13.174 6.632-31.58 6.814-43.637.43-13.425-7.113-23.75-17.264-27.59-34.867-1.539-7.043-1.715-16.147.426-23.957.505-1.83 1.418-3.76 2.139-5.56 3.476-8.657 9.389-16.185 16.684-21.391 2.932-2.09 6.49-4.172 9.625-5.56C34.062 2.27 40.635.547 46.414.148"/><path fill="#000" d="M50.469 0a61 61 0 0 0-4.055.147c-5.78.398-12.352 2.122-16.258 3.85-3.134 1.387-6.692 3.47-9.625 5.56-7.294 5.205-13.208 12.734-16.683 21.39-.721 1.8-1.635 3.73-2.14 5.56-2.142 7.81-1.964 16.914-.425 23.957C5.122 78.067 15.448 88.22 28.877 95.331c12.052 6.385 30.459 6.203 43.633-.43 7.877-3.966 14.169-10.01 19.035-17.324 4.732-7.12 8.363-16.818 8.342-28.02-.018-10.312-4.14-20.347-8.342-26.95C83.691 10.25 70.323-.025 50.47 0m.242 2.4C65.55 2.383 77.14 9.402 84.489 17.472c2.075 2.281 4.149 4.544 5.56 6.845 2.614 4.258 4.286 9.29 5.563 14.117 4.777 18.06-2.403 35.19-11.34 44.49-6.675 6.95-14.872 11.652-25.666 13.688-12.146 2.294-23.799-.695-32.085-5.347-8.512-4.78-14.543-11.573-19.035-20.32-4.331-8.434-6.347-21.851-3.208-32.941 2.82-9.965 7.634-18.237 15.186-24.168C24.7 9.725 30.721 5.909 38.927 3.784c2.947-.766 5.67-1.085 8.772-1.284q1.504-.1 3.011-.1zm-1.145 2.098q-1.471.015-2.94.141C33.905 5.724 24.97 11.431 18.179 18.115c-4.756 4.68-8.331 10.412-10.694 17.112-3.468 9.83-3.255 21.436.642 31.442 3.325 8.53 8.768 15.415 16.47 20.745 7.24 5.014 17.63 8.902 29.304 7.916 14.214-1.202 24.616-8.496 31.442-16.9 1.746-2.149 3.482-4.578 4.492-7.485.99-2.093 1.473-3.517 1.923-4.276 1.895-4.249 2.902-8.733 3.211-13.692.948-15.251-4.921-27.164-13.05-35.292-3.931-3.933-8.767-7.476-14.543-9.626-5.24-1.948-11.078-3.627-17.81-3.561z"/><path fill="#fff" d="m50.233 3.829-.238.238.457.456c.164 0 .324.007.485.01zm-3.459 3.737-.017 4.035c-.006 2.245 1.271 3.29 3.314 3.297s3.373-1.003 3.383-3.325l.014-3.982-2.024-.008-.013 4.045c-.008 1.006-.527 1.477-1.333 1.473-.8-.003-1.32-.498-1.318-1.535l.017-3.993zm12.445 1.03-.507 1.669 2.06.628-1.587 5.206 1.906.58 1.586-5.202 2.065.628.508-1.67zm-20.875.623-1.83.589-.702 7.826 1.996-.64.097-1.38 2.637-.848.892 1.064 2.034-.652zm-.21 2.546 1.387 1.703-1.534.49zm32.5 1-3.979 5.982 1.654 1.105 1.516-2.277 2.129 1.419-1.516 2.273 1.66 1.102 3.98-5.982-1.656-1.103-1.49 2.24-2.129-1.419 1.49-2.239zm-42.781 1.86c-.732.038-1.474.297-2.148.783-1.789 1.31-2.145 3.64-.93 5.306l.014.018c1.216 1.667 3.516 2.032 5.306.728 1.792-1.31 2.15-3.64.934-5.307l-.014-.017a3.64 3.64 0 0 0-3.162-1.511m-.041 1.892c.604 0 1.19.31 1.575.836l.011.013c.611.837.543 1.98-.343 2.63-.88.642-2.02.354-2.63-.483l-.012-.019c-.61-.837-.542-1.98.337-2.622a1.8 1.8 0 0 1 1.062-.355m21.885 1.81.302.303-3.402 3.406-2.825-2.823-.367.103 2.954 2.957-3.403 3.403-3.408-3.402 2.573-2.573-.7.227-2.105 2.109-1.024-1.024c-.114.044-.22.092-.334.14l1.12 1.12-3.402 3.403-2.236-2.232q-.147.087-.292.179l2.29 2.29-3.402 3.403-2.728-2.723c-.082.072-.158.155-.24.23l2.73 2.73-3.406 3.403-2.614-2.612c-.069.086-.144.17-.213.258l2.593 2.592-3.407 3.403-1.903-1.903-.16.31 1.83 1.83-3.406 3.407-.547-.55q-.067.175-.127.343l.436.44-.855.859c-.058.205-.109.42-.161.632l1.254-1.254 3.406 3.403-3.406 3.406-1.89-1.887c-.017.14-.024.288-.038.432l1.69 1.69-1.892 1.895c0 .162-.01.32-.01.481l2.14-2.14 3.406 3.407-3.406 3.403-2.061-2.06c.01.161.007.325.02.491l1.803 1.806-1.442 1.442c.02.138.048.265.073.402l1.607-1.611 3.406 3.406-3.406 3.405-.371-.367c.12.291.175.443.353.858l.018-.018 3.406 3.404-1.078 1.078q.089.145.185.286l1.126-1.128 3.406 3.403-1.523 1.526q.114.121.23.24l1.527-1.528 3.407 3.406-1.362 1.36c.087.069.184.13.273.2l1.323-1.326 3.406 3.407-.583.584c.103.055.206.106.308.161l.508-.512 1.474 1.474c.275.12.55.243.83.36l-2.066-2.068 3.407-3.406 3.403 3.406-2.79 2.789c.118.037.235.083.352.12l2.674-2.675 3.404 3.407-.536.536c.137.02.268.047.405.065l.367-.367.461.463q.258.026.519.044l-.745-.741 3.406-3.407 3.402 3.407-.685.69q.266-.029.528-.062l.395-.39.316.312q.206-.028.413-.059l-.493-.491 3.404-3.407 2.569 2.57.35-.121-2.681-2.682 3.402-3.407 3.407 3.407-1.717 1.714q.454-.207.896-.427l1.055-1.054.33.33c.1-.058.206-.11.305-.164l-.398-.4 3.406-3.406 1.038 1.04.256-.212-1.06-1.061 3.406-3.406 1.14 1.14q.114-.125.22-.248l-1.126-1.13 3.406-3.403.69.69c.06-.1.11-.203.17-.302l-.622-.625 1.747-1.749.024-.055c.165-.291.303-.597.454-.896l-2.462 2.466-3.406-3.406 3.406-3.403 3.097 3.093q.072-.161.14-.329l-3-3.002 3.402-3.402 1.313 1.311c.03-.132.055-.257.085-.388l-1.16-1.16 1.656-1.66c.023-.178.05-.36.07-.542L79.362 54.8l-3.403-3.403 3.402-3.407 2.14 2.143c.003-.154.021-.302.021-.453l-1.924-1.922 1.708-1.711-.055-.415-1.89 1.888-3.402-3.403 3.402-3.406 1.165 1.164a24 24 0 0 0-.195-.67l-.733-.733.372-.367-.13-.346-.477.48-3.404-3.406 1.734-1.734-.164-.31-1.807 1.81-3.403-3.406 2.527-2.528-.237-.237-2.528 2.528-3.406-3.403 2.538-2.538-.235-.237-2.537 2.537-3.406-3.403 2.38-2.38c-.097-.061-.186-.122-.285-.185l-2.33 2.33-3.407-3.403 1.221-1.223-.328-.144-1.13 1.13-2.383-2.384q-.327-.096-.654-.182l2.803 2.802-3.406 3.403-3.404-3.402 3.053-3.054-.385-.089-2.905 2.906-3.403-3.407.3-.299c-.157-.004-.313 0-.472 0l-.064.065-.066-.065a21 21 0 0 0-.474-.004m.539.54 3.407 3.406-3.406 3.403-3.404-3.402zm-10.92 3.64 3.403 3.406-3.404 3.403-3.406-3.403zm7.28 0 3.403 3.406-3.402 3.403-3.404-3.403zm7.28 0 3.406 3.406-3.406 3.403-3.403-3.403zm7.284 0 3.402 3.406-3.402 3.403-3.406-3.403zm-25.484 3.64 3.402 3.407-3.402 3.402-3.407-3.402zm7.28 0 3.402 3.407-1.109 1.11q.387-.2.806-.333l.541-.54.347.345c.144-.02.29-.027.437-.035l-.547-.547 3.402-3.406 3.408 3.406-.548.545c.145.008.29.017.435.037l.346-.35.545.546q.408.127.789.319l-1.097-1.097 3.403-3.406 3.407 3.406-3.391 3.387q.186.363.314.757l.031.093 3.046 3.043-1.528 1.53.117.35 1.644-1.643 3.407 3.402-3.354 3.354.29.866 3.064 3.066-1.537 1.532.117.356 1.653-1.656 3.405 3.407-3.36 3.357.278.84 3.084 3.083-1.545 1.545.117.355 1.665-1.662 3.403 3.403-3.403 3.406-.111-.112c.026.23.018.453.015.68l.097-.098 3.402 3.403-3.403 3.407-2.398-2.398c-.094.063-.176.14-.273.197l2.435 2.435-3.407 3.406-3.403-3.402 1.718-1.719-.018.002c-.143 0-.282-.022-.422-.033l-1.516 1.512-3.402-3.406.755-.755a5 5 0 0 1-.162-.31l-.83.832-3.404-3.407 2.508-2.51-.116-.356-2.629 2.633-3.404-3.407 1.1-1.1h-.474l-.86.862-.863-.862H48.9l1.1 1.1-3.403 3.407-2.23-2.228-.11.358 2.103 2.104-3.403 3.406-.51-.51a6 6 0 0 1-.172.3l.445.443-3.404 3.406-1.52-1.515a6 6 0 0 1-.557-.088l1.84 1.838-3.407 3.406-3.402-3.406 2.681-2.681c-.092-.064-.19-.122-.277-.192l-2.64 2.64L28.63 69.6l3.402-3.403.677.674c-.02-.163-.019-.33-.023-.496l-.417-.415.453-.454q.042-.294.115-.583l-.804.803-3.403-3.407 3.402-3.403 2.028 2.025.114-.358-1.905-1.904 3.407-3.406.133.13.111-.353-.01-.011.02-.021.218-.691-.474.474-3.406-3.402 3.406-3.407 1.88 1.881.114-.36-1.758-1.754 3.379-3.38.219-.688-.192.19-3.406-3.406 3.406-3.403 1.732 1.732.114-.357-1.611-1.612 3.1-3.098a5.3 5.3 0 0 1 .351-.827l-.046.048-3.406-3.403zm21.844 0 3.403 3.408-3.402 3.403-3.407-3.403zm-32.766 3.64 3.405 3.407-3.403 3.403-3.407-3.403zm7.282 0 3.403 3.407-3.404 3.403-3.406-3.403zm21.844.004 3.402 3.403-3.406 3.406-3.402-3.406zm7.28 0 3.404 3.403L68.44 36.6l-3.407-3.406zm-20.787 1.288c-1.86 0-3.496 1.24-4.059 2.987l-9.75 30.888c-.676 2.257.564 4.68 2.816 5.358a4.305 4.305 0 0 0 5.413-2.765l2.256-7.328h12.288l2.42 7.386c.588 1.803 2.257 2.922 4.057 2.922a4.5 4.5 0 0 0 1.356-.215c2.252-.736 3.437-3.16 2.706-5.413L56.898 34.01c-.563-1.744-2.257-2.93-4.058-2.93zM28.39 33.432l3.407 3.402-3.407 3.407-3.403-3.406zm7.284 0 3.403 3.402-3.402 3.407-3.407-3.406zm29.126 0 3.402 3.402-3.402 3.407-3.407-3.406zm7.28 0 3.403 3.402-3.403 3.407-3.408-3.406zm-47.33 3.639 3.406 3.403-3.406 3.406-3.402-3.406zm7.281 0 3.406 3.403-3.406 3.406-3.403-3.406zm36.409 0 3.402 3.403-3.402 3.406-3.406-3.406zm7.28 0 3.403 3.403-3.403 3.406-3.407-3.406zm-47.331 3.64 3.406 3.404-3.406 3.406-3.402-3.405zm7.284 0 3.403 3.404-3.402 3.406-3.408-3.406zm29.126 0 3.402 3.404-3.407 3.406-3.401-3.402zm7.28 0 3.401 3.407-3.4 3.404-3.409-3.406 3.406-3.404zm-47.33 3.641 3.407 3.404-3.406 3.406-3.402-3.406zm7.283 0 3.406 3.404-3.406 3.406-3.403-3.402zm36.409 0 3.401 3.408-3.402 3.402-3.406-3.402zm7.278 0 3.403 3.408-3.403 3.402-3.407-3.402zm-47.33 3.64 3.406 3.408-3.406 3.403-3.403-3.401zm43.688 0 3.404 3.408-3.401 3.403-3.409-3.401zm22.96.643c.003.163.006.32.006.482l.654.653.237-.238zm-89.993.39L3.02 51.053l.23.233 1.795-1.79c0-.157-.005-.316 0-.473zm-1.805 2.468-.24.238 2.215 2.206a24 24 0 0 1-.047-.514zm21.51.14 3.406 3.408-3.406 3.402-3.402-3.402zm7.281 0 3.407 3.408-3.406 3.401-3.403-3.402zm36.41 0 3.401 3.408-3.402 3.402-3.406-3.402zm7.279 0 3.402 3.408-3.402 3.402-3.407-3.402 3.406-3.407m20.668.71-1.49 1.484-.038.516 1.76-1.765-.232-.237zM28.39 55.271l3.406 3.406-3.407 3.405-3.403-3.404zm43.689.004 3.403 3.403-3.403 3.404-3.407-3.404zm-47.329 3.64 3.407 3.404-3.407 3.406-3.403-3.407zm3.641 3.64 3.406 3.404-3.406 3.406-3.404-3.406 3.403-3.403zm21.844 0 3.402 3.404-3.401 3.406-3.407-3.406 3.406-3.403zm21.844 0 3.404 3.404-3.403 3.406-3.408-3.406 3.407-3.403zm-25.485 3.64L50 69.599l-3.403 3.406L43.19 69.6zm7.281 0 3.407 3.403-3.407 3.406-3.403-3.406zm-10.92 3.64 3.402 3.405-3.403 3.406-3.407-3.406zm7.278 0 3.405 3.409-3.403 3.403-3.407-3.407 3.406-3.404m7.282 0 3.406 3.409-3.406 3.403-3.404-3.403 3.404-3.407zm-10.92 3.641 3.402 3.407-3.402 3.403-3.408-3.403zm7.279 0 3.406 3.407-3.406 3.403-3.403-3.403zm19.853 3.29q-.23-.007-.458.014a4 4 0 0 0-2.11.866c-1.74 1.373-2.01 3.719-.732 5.34l.013.014c1.281 1.62 3.593 1.898 5.334.525 1.741-1.377 2.01-3.719.728-5.34l-.014-.018a3.64 3.64 0 0 0-2.761-1.4M29.15 78.517l-3.695 6.164 1.707 1.027 1.383-2.308 2.19 1.312-1.379 2.308 1.706 1.023 3.696-6.165-1.707-1.023-1.405 2.342-2.195-1.312 1.406-2.342zm44.15.164c.6-.024 1.196.264 1.6.773l.013.017c.642.814.619 1.957-.237 2.63-.862.684-2.01.437-2.651-.377l-.014-.014c-.642-.814-.618-1.96.244-2.64a1.78 1.78 0 0 1 1.045-.39m-7.693 3.026-1.965.727-.037 1.381-2.6.962-.938-1.02-2.002.742 5.381 5.724 1.802-.666zm-25.211 2.03-1.418 5.254-2.08-.563-.454 1.685 6.086 1.643.453-1.684-2.082-.562 1.418-5.255zm11.079 1.318c-2.043.089-3.32 1.164-3.217 3.482l.175 3.98 2.018-.089-.178-4.041c-.041-1.007.46-1.5 1.26-1.536.8-.035 1.343.433 1.39 1.47l.177 3.99 2.018-.089-.175-4.031c-.1-2.247-1.428-3.225-3.468-3.136m12.119.419-.052 2.198-1.46-1.638 1.513-.56zM46.59 95.32l.986.984.237-.233-.707-.708c-.172-.01-.344-.031-.516-.043m7.274.013c-.168.014-.334.02-.5.031l-.681.679.237.234z"/></g><defs><clipPath id="a"><path fill="#fff" d="M0 0h100v100H0z"/></clipPath></defs></g></svg>