<svg xmlns="http://www.w3.org/2000/svg" fill="none" viewBox="0 0 512 512"><g transform="translate(-4.958 -4.958) scale(5.219)"><path fill="#bfbfc2" d="M18.902 86.81c-1.444-.103-2.548-.515-3.55-1.324a8 8 0 0 1-1.363-1.404c-.702-.949-1.196-2.246-1.407-3.686-.125-.861-.116-.11-.131-11.228l-.122-11.322c-.144-1.147-.43-1.965-1.059-3.02-1.077-1.807-2.619-3.452-3.976-4.246-.275-.162-.34-.21-.407-.323-.051-.092-.064-.138-.064-.278s.013-.186.067-.277c.068-.116.098-.14.535-.406.565-.345 1.028-.724 1.678-1.377 1.05-1.05 1.983-2.331 2.555-3.503.445-.916.625-1.633.747-3.012.021-.243.034-2.883.046-10.614l.132-11.227c.21-1.44.701-2.731 1.407-3.687.525-.714 1.351-1.474 2.063-1.898a5.9 5.9 0 0 1 2.048-.732c.637-.107.757-.11 3.107-.11h2.243l.097.051a.6.6 0 0 1 .275.311c.028.074.034.35.034 1.352v1.26l-.061.119a.58.58 0 0 1-.381.296q-.124.027-1.749.027l-1.889.024c-1.251.122-2.094.504-2.67 1.209-.57.699-.818 1.397-.888 2.52-.016.248-.025 4.179-.025 11.204l-.024 11.142c-.116 1.52-.506 2.756-1.276 4.04a10.3 10.3 0 0 1-2.17 2.62c-.43.378-.475.445-.46.699.012.216.064.296.363.552.7.597 1.32 1.282 1.843 2.038.937 1.377 1.459 2.689 1.636 4.108l.055.397c.01.052.024 5.179.03 11.392l.046 11.514c.046.333.14.772.208.986.147.446.445.943.802 1.334.48.522 1.185.851 2.158 1.007.309.052.43.055 2.173.067 2.069.016 1.969.006 2.127.19.159.182.153.127.153 1.516 0 .997-.007 1.278-.034 1.349a.6.6 0 0 1-.275.31l-.098.055-2.136.004c-1.175 0-2.258-.007-2.41-.018zm57.614-.009a.55.55 0 0 1-.317-.283l-.064-.129.01-1.293.006-1.294.064-.11a.55.55 0 0 1 .354-.26c.07-.015.714-.024 1.74-.024l1.906-.027c.641-.058 1.267-.22 1.703-.44.52-.262.855-.57 1.227-1.128.306-.455.485-.964.59-1.645.039-.256.042-1 .057-11.547l.043-11.514c.15-1.294.412-2.213.916-3.202.646-1.279 1.541-2.426 2.554-3.287.278-.235.378-.36.418-.504.067-.24-.024-.436-.336-.699a10.4 10.4 0 0 1-2.267-2.691c-.754-1.26-1.114-2.35-1.285-3.867-.024-.207-.034-2.789-.046-11.526l-.055-11.54c-.088-.588-.247-1.08-.464-1.451-.256-.44-.626-.861-.952-1.087-.519-.36-1.233-.59-2.088-.675-.158-.015-.912-.024-1.907-.027-1.037 0-1.684-.01-1.754-.024a.55.55 0 0 1-.354-.26l-.064-.11-.007-1.29-.009-1.29.06-.129a.55.55 0 0 1 .358-.302c.131-.037 4.502-.016 4.812.024 1.37.165 2.323.543 3.263 1.294.296.232.888.814 1.132 1.104a7.3 7.3 0 0 1 1.132 1.97c.31.814.498 1.693.62 2.913.02.213.033 2.917.043 10.59l.057 10.675c.162 1.452.437 2.295 1.12 3.434 1.06 1.767 2.5 3.32 3.843 4.153.122.073.272.168.33.204a.5.5 0 0 1 .259.434c.016.275-.074.415-.385.595-1.413.809-2.917 2.399-4.046 4.276-.684 1.135-.959 1.98-1.12 3.434-.04.344-.044 1.156-.058 10.675l-.044 10.59c-.155 1.571-.424 2.612-.942 3.64-.351.693-.742 1.221-1.355 1.819-.424.412-.626.58-1.034.855-.7.472-1.536.787-2.454.918-.58.082-1.004.098-3.089.095-1.636 0-2.05-.006-2.12-.034zM49.044 74.61c-2.526-.119-4.69-.522-6.97-1.29-4.41-1.49-8.27-4.19-11.298-7.902-2.691-3.296-4.44-7.153-5.12-11.276a22.3 22.3 0 0 1-.312-3.934c0-1.23.05-1.986.192-3.131.602-4.74 2.57-9.298 5.573-12.918a24.7 24.7 0 0 1 3.516-3.442c6.027-4.831 14.014-6.537 21.542-4.606a24.62 24.62 0 0 1 13.305 8.743 24.6 24.6 0 0 1 5.058 12.644c.094.94.11 1.288.11 2.481 0 1.194-.016 1.542-.11 2.485a24.6 24.6 0 0 1-3.63 10.601 24.9 24.9 0 0 1-6.121 6.65 24.53 24.53 0 0 1-14.85 4.907zm1.728-12.338a12.305 12.305 0 0 0 10.925-8.417 12.3 12.3 0 0 0 .26-6.86c-.73-2.96-2.577-5.573-5.156-7.288a12.313 12.313 0 0 0-18.469 6.35 11.6 11.6 0 0 0-.634 3.923c0 1.138.101 1.966.37 3.034a12.33 12.33 0 0 0 6.491 8.014c1.514.744 3.052 1.147 4.798 1.254q.708.027 1.416-.01z"/><path fill="#0f82c2" d="m49.188 74.564-2.148-.168a24.43 24.43 0 0 1-12.363-5.182 25.8 25.8 0 0 1-3.69-3.623c-3.17-3.805-5.057-8.328-5.499-13.177a25.4 25.4 0 0 1 0-4.412c.442-4.917 2.347-9.675 5.402-13.49a24.6 24.6 0 0 1 8.21-6.589c4-1.971 8.46-2.821 12.905-2.459 6.886.559 13.168 3.958 17.432 9.427a24.4 24.4 0 0 1 3.937 7.4c.656 2.003 1.026 3.913 1.188 6.153.04.57.04 2.499 0 3.07-.162 2.24-.532 4.16-1.188 6.152a24.4 24.4 0 0 1-5.941 9.672c-2.741 2.743-5.982 4.757-9.62 5.972a24.8 24.8 0 0 1-6.142 1.212c-.482.033-2.105.06-2.481.043zm1.99-12.265q.67-.073 1.33-.208a12.375 12.375 0 0 0 9.836-11.196c.03-.4.03-1.432 0-1.829a12.36 12.36 0 0 0-5.445-9.354q-.692-.48-1.452-.839a12.3 12.3 0 0 0-4.16-1.199q-1.048-.084-2.099-.04c-4.446.318-8.307 2.9-10.266 6.864a12.2 12.2 0 0 0-1.285 5.48c0 2.418.704 4.77 2.035 6.803a12.7 12.7 0 0 0 1.556 1.907c2.112 2.128 4.831 3.381 7.862 3.631.339.028 1.773.013 2.087-.02z"/></g></svg>