<svg xmlns="http://www.w3.org/2000/svg" fill="none" viewBox="0 0 512 512"><g transform="translate(30.28 30.72) scale(4.506)"><path fill="#5528ff" d="M50.127.05q-.107.003-.204.05L26.37 11.752a.2.2 0 0 0-.118.192v9.973q-.003.043.036.067a.08.08 0 0 0 .08.006l23.62-11.706a.27.27 0 0 1 .244 0l23.553 11.67q.13.063.128-.077.073-4.773.013-9.552c-.006-.28.247-.412-.192-.628Q61.997 5.885 50.33.1a.5.5 0 0 0-.203-.05m-.014 26.097c-13.175 0-23.853 10.678-23.853 23.852s10.678 23.853 23.853 23.853 23.852-10.679 23.852-23.853-10.677-23.852-23.852-23.852M26.361 78.01c-.021-.012-.052-.009-.073.003a.08.08 0 0 0-.036.067v10.044c-.003.027.015.055.042.07l23.77 11.79a.07.07 0 0 0 .07 0l23.758-11.76a.08.08 0 0 0 .043-.07l.009-10.058a.077.077 0 0 0-.113-.07L50.156 89.748a.07.07 0 0 1-.07 0z"/></g></svg>