<svg xmlns="http://www.w3.org/2000/svg" fill="none" viewBox="0 0 512 512"><g transform="translate(30.72 30.72) scale(4.506)"><g clip-path="url(#a)"><path fill="#d5ff00" d="M50 0C27.814 0 9.843 17.9 9.843 40h20.08c0-11.04 8.995-20 20.077-20z"/><path fill="#35df79" d="M90.158 40C90.158 17.902 72.186 0 50 0v19.998c11.082 0 20.078 8.96 20.078 20.003z"/><path fill="#00b9f1" d="M50 80.001c22.186 0 40.158-17.901 40.158-40h-20.08c0 11.038-8.996 19.998-20.078 19.998z"/><path fill="#fff" d="M29.922 80.002V40.001H9.842V100H50V80.002z"/></g><defs><clipPath id="a"><path fill="#fff" d="M0 0h100v100H0z"/></clipPath></defs></g></svg>