<svg xmlns="http://www.w3.org/2000/svg" fill="none" viewBox="0 0 512 512"><g transform="translate(32.04 30.72) scale(4.506)"><path fill="#632ca6" fill-rule="evenodd" d="m81.248 70.985-8.321-5.474-6.934 11.57-8.066-2.337-7.117 10.84.365 3.394 38.613-7.117-2.226-24.087zM45.226 60.584l6.205-.84c.985.438 1.678.621 2.92.913A9.12 9.12 0 0 0 61.576 60c.73-.365 2.299-1.825 2.92-2.591l25.4-4.635 2.556 31.387-43.431 7.81zM92.38 49.27l-2.519.511L85.044 0 3.037 9.49l10.109 82.116 9.562-1.46c-.766-1.095-1.97-2.409-4.015-4.088-2.81-2.372-1.824-6.35-.146-8.868 2.19-4.27 13.577-9.672 12.92-16.497-.219-2.445-.62-5.693-2.92-7.883-.073.913.073 1.825.073 1.825s-.948-1.24-1.423-2.883c-.438-.62-.803-.803-1.314-1.643-.365.95-.292 2.08-.292 2.08s-.803-1.824-.912-3.357a5.4 5.4 0 0 0-.584 2.007s-.985-2.92-.73-4.416c-.474-1.35-1.825-4.014-1.46-10.11 2.518 1.753 8.03 1.351 10.146-1.824.73-1.058 1.204-3.905-.365-9.562-.985-3.613-3.467-8.978-4.416-11.022l-.11.073q1.043 3.354 1.935 6.752c1.277 5.11 1.642 6.861 1.022 9.197-.475 2.044-1.643 3.358-4.599 4.854-2.956 1.46-6.898-2.153-7.153-2.336a15.8 15.8 0 0 1-5.328-7.846c-.256-2.008 1.13-3.176 1.824-4.818q-1.082.336-2.117.803s1.35-1.387 2.993-2.555c.73-.474 1.095-.766 1.825-1.387h-1.898s1.752-.912 3.577-1.605c-1.35-.074-2.628 0-2.628 0s3.905-1.752 7.007-3.03c2.117-.876 4.197-.62 5.365 1.059 1.497 2.19 3.103 3.394 6.533 4.124 2.08-.913 2.701-1.387 5.329-2.117 2.299-2.555 4.124-2.847 4.124-2.847s-.913.803-1.132 2.117a35 35 0 0 1 2.738-1.898s-.548.694-1.095 1.789l.146.182a29 29 0 0 1 3.32-1.642l-1.094 1.46c1.131 0 3.467.073 4.38.182 5.365.11 6.46-5.73 8.503-6.46 2.555-.912 3.723-1.46 8.102 2.847 3.76 3.65 6.716 10.292 5.256 11.788-1.241 1.205-3.65-.474-6.314-3.832a14.4 14.4 0 0 1-2.993-6.496c-.401-2.226-2.043-3.54-2.043-3.54s.948 2.116.948 4.014c0 1.022.11 4.818 1.752 6.971-.146.329-.219 1.57-.401 1.825-1.898-2.336-6.022-4.015-6.679-4.453 2.263 1.825 7.445 6.095 9.489 10.183 1.861 3.868.73 7.409 1.715 8.32.256.256 4.051 4.964 4.781 7.373 1.278 4.124.073 8.467-1.605 11.168l-4.636.73c-.693-.182-1.13-.292-1.751-.657.427-.75.77-1.546 1.022-2.372l-.256-.475a19.9 19.9 0 0 1-5.912 5.183 9.93 9.93 0 0 1-7.665.657 42.9 42.9 0 0 1-12.19-6.533s0 .803.22.985c1.387 1.606 4.635 4.49 7.773 6.497l-6.678.73 3.175 24.598c-1.424.22-1.643.329-3.175.548a16.46 16.46 0 0 0-6.752-9.708 12.77 12.77 0 0 0-9.197-1.314l-.183.219c2.263-.22 4.964.11 7.737 1.861 2.738 1.715 4.927 6.204 5.73 8.832 1.059 3.43 1.752 7.08-1.022 10.949-1.97 2.774-7.773 4.307-12.408 1.022 1.204 2.007 2.92 3.65 5.182 3.941 3.358.475 6.57-.109 8.76-2.372 1.897-1.934 2.883-5.985 2.627-10.219l2.956-.438 1.095 7.628 49.27-5.949-4.05-39.16zM62.453 28.54c-.183.329-.365.511-.073 1.533v.073l.073.146.145.292c.584 1.204 1.241 2.336 2.3 2.92.292-.073.547-.11.876-.11.985-.036 1.642.11 2.043.329v-.95c-.072-1.496.293-4.087-2.59-5.437-1.096-.511-2.665-.365-3.176.292l.256.073c.766.255.255.51.11.84zm8.138 14.124c-3.08-.322-6.19.221-8.978 1.57-1.022.802-.547 2.19.22 2.737 2.116 1.606 4.014 2.664 5.948 2.409 1.204-.146 2.263-2.08 3.03-3.796.51-1.204.51-2.482-.256-2.92zM49.423 30.438c.694-.657-3.357-1.496-6.46.62-2.299 1.57-2.372 4.964-.182 6.862l.584.438c1.83-.88 3.789-1.46 5.803-1.716.474-.51 1.022-1.46.876-3.102-.183-2.263-1.898-1.898-.62-3.102" clip-rule="evenodd"/></g></svg>