<svg xmlns="http://www.w3.org/2000/svg" fill="none" viewBox="0 0 512 512"><g transform="translate(30.28 30.72) scale(4.506)"><g fill="#754abc" clip-path="url(#a)"><path fill-rule="evenodd" d="M39.094 11.27A37.6 37.6 0 0 1 50.006-.002a36.8 36.8 0 0 1 10.772 11.05 55.68 55.68 0 0 1 10.467 34.919c2.272 1.832 4.614 3.592 6.849 5.46a12.35 12.35 0 0 1 3.942 11.391c-1.08 5.206-2.114 10.422-3.254 15.615a4.336 4.336 0 0 1-6.6 2.178c-3.668-2.945-7.241-5.993-10.896-8.941a16.73 16.73 0 0 1-10.324 4.482 16.7 16.7 0 0 1-12.087-4.357c-2.627 1.932-5.068 4.255-7.636 6.33a19.7 19.7 0 0 1-3.736 2.876 4.34 4.34 0 0 1-5.725-2.802c-1.174-5.078-2.401-10.14-3.538-15.225a12.33 12.33 0 0 1 4.157-11.862 325 325 0 0 1 6.05-4.753c.565-.288.282-.934.31-1.432a55.77 55.77 0 0 1 10.356-33.642m3.598 15.719a8.554 8.554 0 0 0 .749 11.335 9.413 9.413 0 0 0 12.869.264 8.56 8.56 0 0 0 2.27-9.406 9.1 9.1 0 0 0-7.64-5.68A9.29 9.29 0 0 0 42.708 27" clip-rule="evenodd"/><path d="M37.827 82.436a2.16 2.16 0 0 1 3.198-1.735 20.63 20.63 0 0 0 17.964 0 2.177 2.177 0 0 1 3.202 1.608q.026 4.769 0 9.537a2.15 2.15 0 0 1-3.358 1.557c-.953-.808-1.812-1.717-2.727-2.568-1.455 2.72-2.819 5.479-4.282 8.191a2.18 2.18 0 0 1-3.615.023c-1.468-2.719-2.825-5.493-4.307-8.21-.903.855-1.764 1.762-2.719 2.569a2.155 2.155 0 0 1-3.356-1.576c-.025-3.136 0-6.273 0-9.409m12.109-45.786a4.36 4.36 0 0 0 4.46-4.257v-.027a4.36 4.36 0 0 0-4.428-4.289l-.032.003a4.356 4.356 0 0 0-4.453 4.259l-.002.027a4.36 4.36 0 0 0 4.432 4.284z"/></g><defs><clipPath id="a"><path fill="#fff" d="M0 0h100v100H0z"/></clipPath></defs></g></svg>