<svg xmlns="http://www.w3.org/2000/svg" fill="none" viewBox="0 0 512 512"><g transform="translate(30.72 30.72) scale(4.506)"><path fill="#00ac69" d="M55.3 33.21v7.776l-6.731 3.888v4.861l10.944-6.32V30.778z"/><path fill="#1ce783" d="m37.625 30.778 4.209 2.432 6.735-3.888L55.3 33.21l4.21-2.432-10.942-6.317z"/><path fill="#1d252c" d="M37.625 30.778v4.861l6.732 3.89v7.777l4.212 2.43v-12.64zM72.43 57.64v2.756h1.757v14.883h3.102V57.64zm7.395 0v3.102h3.098V57.64zm11.655 4.74c-3.72 0-6.449 2.728-6.449 6.573 0 3.843 2.728 6.57 6.449 6.57 3.338 0 5.007-2.102 5.672-3.955l-2.822-1.004c-.247.874-.992 2.112-2.85 2.112-1.862 0-3.348-1.49-3.348-3.72 0-2.234 1.486-3.72 3.348-3.72 1.858 0 2.603 1.24 2.85 1.984l2.808-1.001c-.678-1.767-2.35-3.84-5.658-3.84m-84.785.003c-2.355 0-3.472 1.489-3.472 1.489H3.1l-.248-1.239H0v12.646h3.1v-7.312c0-1.61 1.115-2.728 2.729-2.728 1.617 0 2.728 1.114 2.728 2.728v7.313h3.1v-7.563c0-3.226-2.109-5.334-4.962-5.334m13.39 0c-3.718 0-6.447 2.728-6.447 6.573s2.576 6.574 6.449 6.574c3.137 0 5.023-1.847 5.81-3.205l-2.844-1.019c-.281.516-1.416 1.504-2.966 1.504-1.807 0-3.101-1.132-3.348-2.862h9.424q.132-.612.125-1.24c0-3.603-2.729-6.325-6.201-6.325zm45.803 0c-3.72 0-6.449 2.728-6.449 6.573s2.573 6.574 6.449 6.574c3.137 0 5.023-1.847 5.81-3.205l-2.846-1.019c-.282.516-1.417 1.504-2.964 1.504-1.81 0-3.1-1.132-3.347-2.862h9.423a5.6 5.6 0 0 0 .123-1.24c0-3.603-2.727-6.325-6.2-6.325m-8.698.25a2.79 2.79 0 0 0-2.234 1.114h-.126l-.246-1.11H51.98v12.642h3.108v-7.312c0-1.61.744-2.356 2.355-2.356h1.59v-2.978zm-30.117 0 3.221 12.646h3.775l2.11-8.181h.176l2.11 8.181h3.774l3.223-12.646h-3.223l-2.108 8.31h-.177l-2.11-8.31H34.69l-2.108 8.31h-.177l-2.11-8.31zm52.749 0v12.65h3.1v-12.65zm-59.736 2.356c1.737 0 2.853 1.24 3.1 2.85h-6.448c.372-1.61 1.49-2.85 3.348-2.85m45.8 0c1.737 0 2.85 1.24 3.102 2.85h-6.449c.372-1.61 1.486-2.85 3.348-2.85m32.92 7.858a1.2 1.2 0 0 0-1.117.727 1.197 1.197 0 0 0 1.553 1.575c.449-.184.742-.62.742-1.106a1.16 1.16 0 0 0-1.178-1.196m-.076.186a1.007 1.007 0 0 1 1.07 1.01.97.97 0 0 1-.994 1.013 1.01 1.01 0 0 1-1.031-.973 1.01 1.01 0 0 1 .955-1.05m-.382.379v1.248h.183v-.433h.159l.43.433h.232l-.43-.433a.405.405 0 0 0 .272-.706.44.44 0 0 0-.315-.11zm.586.183c.12.01.214.11.214.232 0 .134-.082.216-.266.216h-.348v-.448h.348a.2.2 0 0 1 .052 0"/></g></svg>