<svg xmlns="http://www.w3.org/2000/svg" fill="none" viewBox="0 0 512 512"><g transform="translate(22.055 22.511) scale(4.67)"><path fill="#f5a800" d="M52.85 54.528c-4.098 4.102-4.098 10.749 0 14.85 4.102 4.099 10.749 4.099 14.847 0 4.102-4.101 4.102-10.748 0-14.85-4.098-4.098-10.745-4.098-14.847 0m11.1 11.109a5.195 5.195 0 0 1-8.479-1.686 5.195 5.195 0 0 1 2.813-6.791 5.195 5.195 0 0 1 5.666 1.128c2.03 2.02 2.03 5.32 0 7.349m3.574-62.769L61.09 9.301a3.26 3.26 0 0 0 0 4.59l25.117 25.116a3.257 3.257 0 0 0 4.59 0l6.432-6.433a3.26 3.26 0 0 0 0-4.586L72.102 2.868a3.25 3.25 0 0 0-4.578 0M22.452 85.074a2.94 2.94 0 0 0 0-4.149l-3.268-3.27a2.945 2.945 0 0 0-4.15 0L8.28 84.41l-.013.01-1.852-1.856a2.62 2.62 0 0 0-3.71 0 2.62 2.62 0 0 0 0 3.711l11.129 11.127a2.62 2.62 0 0 0 3.708 0c1.015-1.026 1.025-2.696 0-3.708l-1.856-1.856.013-.009z"/><path fill="#425cc7" d="m56.482 21.339-14.291 14.29a3.29 3.29 0 0 0 0 4.63l8.825 8.823c6.237-4.49 14.984-3.934 20.596 1.682l7.147-7.148a3.29 3.29 0 0 0 0-4.627l-17.65-17.65a3.27 3.27 0 0 0-4.627 0M47.305 52.8l-5.213-5.212a3.15 3.15 0 0 0-4.44 0l-18.383 18.39a3.153 3.153 0 0 0 0 4.443l10.415 10.416a3.153 3.153 0 0 0 4.443 0L45.95 68.996a15.99 15.99 0 0 1 1.356-16.195"/></g></svg>