<svg xmlns="http://www.w3.org/2000/svg" fill="none" viewBox="0 0 512 512"><g transform="translate(30.72 30.72) scale(4.506)"><g clip-path="url(#a)"><path fill="#000" d="M8.386.004C3.742.004 0 3.867 0 8.512v74.067l13.547-48.126h13.678l-1.804 6.323h.256c.772-.903 1.804-1.678 3.095-2.578 1.288-.906 2.582-1.682 4.007-2.454 1.416-.775 2.963-1.288 4.641-1.804 1.68-.519 3.357-.65 5.036-.65 3.61 0 6.58.647 9.155 1.807 2.582 1.163 4.514 2.969 6.064 5.16 1.288 1.938 2.066 4.26 2.45 6.968l.022-.01c.025.25.107.562.107.788.26 2.97-.128 6.32-1.16 9.933-.906 3.354-2.316 6.583-4.254 9.68a41 41 0 0 1-6.58 8.125 33.9 33.9 0 0 1-8.52 5.676c-3.098 1.421-6.32 2.068-9.805 2.068a23.6 23.6 0 0 1-8.258-1.421c-2.451-.904-4.132-2.579-5.16-4.904h-.26L9.805 99.999H91.48a8.5 8.5 0 0 0 6.027-2.49A8.5 8.5 0 0 0 100 91.485v-71.87c-.39-.129-.775-.257-1.034-.388a11.7 11.7 0 0 0-2.323-.263c-2.323 0-4.26.52-5.805 1.551-1.422 1.031-2.712 3.098-3.615 6.323l-2.192 7.608h8.386l2.063 6.583-5.42 5.292h-8.388L71.484 82.45H56.775L66.97 46.32h-5.68l-.193.128h-.192v-.128l3.351-11.875h5.932l2.325-8.514c.773-2.575 1.676-5.154 2.839-7.48 1.03-2.322 2.578-4.389 4.385-6.196 1.808-1.806 4.13-3.225 6.839-4.257 2.71-1.03 6.198-1.546 10.196-1.546 1.034 0 1.932-.004 2.966.128a8.67 8.67 0 0 0-8.13-6.577zm27.347 46.317c-3.738 0-6.961 1.162-9.671 3.357-2.71 2.194-4.516 5.16-5.548 8.77-1.031 3.613-.9 6.58.65 8.771 1.288 2.323 3.87 3.36 7.736 3.36 3.745 0 6.967-1.165 9.677-3.36 2.71-2.191 4.642-5.158 5.677-8.771 1.031-3.61.772-6.576-.648-8.77s-4.125-3.357-7.867-3.357z"/></g><defs><clipPath id="a"><path fill="#fff" d="M0 0h100v100H0z"/></clipPath></defs></g></svg>