<svg xmlns="http://www.w3.org/2000/svg" fill="none" viewBox="0 0 512 512"><g transform="translate(30.72 30.72) scale(4.506)"><g clip-path="url(#a)"><path fill="url(#b)" d="M83.628 87.002c20.435-18.572 21.946-50.194 3.374-70.63s-50.194-21.946-70.63-3.374-21.946 50.194-3.374 70.63 50.194 21.945 70.63 3.374"/><path fill="url(#c)" d="M63.904 15.75c-6.349-5.486-14.452-8.442-22.795-8.312-17.092 0-33.89 13.256-35.184 39.06-1.402 27.72 16.659 45.709 42.083 45.709 37.639 0 58.465-34.757 35.162-72.455 16.38 37.67-1.847 61.407-25.375 61.407-19.08 0-33.7-12.976-33.7-36.765-.014-34.33 25.379-36.71 39.809-28.643"/><path fill="url(#d)" d="M73.295 30.067c-1.024-3.34-2.255-9.903 2.217-13.711a12.84 12.84 0 0 0-7.532.656 13.1 13.1 0 0 0-5.906 4.792 31.6 31.6 0 0 0-13.094-2.822 31.6 31.6 0 0 0-13.088 2.862 13.1 13.1 0 0 0-5.905-4.819 12.84 12.84 0 0 0-7.546-.669c4.577 3.907 3.18 10.674 2.146 13.934-6.04 6.888-9.36 15.802-9.32 25.027 0 7.722 4.895 16.5 5.856 28.256l6.18-5.442a40.5 40.5 0 0 0 21.716 5.09 40.5 40.5 0 0 0 21.714-5.09l6.183 5.442c.98-11.756 5.856-20.534 5.856-28.256.054-9.323-3.326-18.33-9.477-25.25"/><path fill="url(#e)" d="M31.862 92.368a5.3 5.3 0 0 1 .393-2.216 5.6 5.6 0 0 1 1.281-1.895 6 6 0 0 1 1.966-1.273 6.33 6.33 0 0 1 4.673 0c.733.292 1.4.725 1.967 1.274a5.6 5.6 0 0 1 1.28 1.894c.288.702.422 1.458.393 2.216v.184a7.6 7.6 0 0 0 1.984-4.055 7.37 7.37 0 0 0-.715-4.414 7.95 7.95 0 0 0-3.177-3.314 8.64 8.64 0 0 0-4.59-1.116 8.57 8.57 0 0 0-4.483 1.45 7.85 7.85 0 0 0-2.894 3.537 7.34 7.34 0 0 0-.348 4.453 7.65 7.65 0 0 0 2.314 3.898 4 4 0 0 1-.044-.623"/><path fill="url(#f)" d="M66.179 92.368a5.3 5.3 0 0 0-.394-2.216 5.6 5.6 0 0 0-1.281-1.895 6 6 0 0 0-1.965-1.273 6.33 6.33 0 0 0-4.674 0c-.732.292-1.4.725-1.966 1.274a5.6 5.6 0 0 0-1.281 1.894 5.3 5.3 0 0 0-.392 2.216v.184a7.6 7.6 0 0 1-1.985-4.055 7.37 7.37 0 0 1 .715-4.414 7.95 7.95 0 0 1 3.178-3.314 8.64 8.64 0 0 1 4.59-1.116 8.57 8.57 0 0 1 4.482 1.45A7.85 7.85 0 0 1 68.1 84.64a7.34 7.34 0 0 1 .349 4.453 7.66 7.66 0 0 1-2.315 3.898 6 6 0 0 0 .045-.623"/><path fill="#231f20" d="M23.01 58.347c-.468 2.37-3.448 3.115-3.448 3.115a4.83 4.83 0 0 1-2.011-4.182 10.4 10.4 0 0 0 1.573 6.37 10.4 10.4 0 0 0 3.886-5.304m5.905 1.197c-.47 2.37-3.453 3.116-3.453 3.116a4.83 4.83 0 0 1-2.01-4.2 10.4 10.4 0 0 0 1.577 6.37 10.4 10.4 0 0 0 3.886-5.286m-4.175 5.37c-.47 2.37-3.45 3.116-3.45 3.116a4.83 4.83 0 0 1-1.996-4.199 10.4 10.4 0 0 0 1.575 6.37 10.4 10.4 0 0 0 3.87-5.286m5.922 1.187c-.47 2.37-3.449 3.117-3.449 3.117a4.83 4.83 0 0 1-2.01-4.2 10.4 10.4 0 0 0 1.552 6.373 10.4 10.4 0 0 0 3.907-5.29M26.5 71.564c-.469 2.37-3.453 3.116-3.453 3.116a4.83 4.83 0 0 1-2.008-4.199 10.4 10.4 0 0 0 1.574 6.37 10.4 10.4 0 0 0 3.887-5.287m8.297-10.837c-.469 2.369-3.453 3.116-3.453 3.116a4.83 4.83 0 0 1-2.007-4.2 10.4 10.4 0 0 0 1.573 6.37 10.4 10.4 0 0 0 3.887-5.287m40.826-2.38c.469 2.37 3.449 3.115 3.449 3.115a4.84 4.84 0 0 0 1.545-1.841c.35-.734.51-1.545.465-2.358a10.4 10.4 0 0 1-1.573 6.37 10.4 10.4 0 0 1-3.886-5.286m-5.903 1.197c.468 2.37 3.453 3.116 3.453 3.116a4.83 4.83 0 0 0 2.007-4.2 10.4 10.4 0 0 1-1.579 6.37 10.4 10.4 0 0 1-3.88-5.286m4.17 5.37c.468 2.37 3.449 3.116 3.449 3.116a4.84 4.84 0 0 0 1.544-1.841 4.84 4.84 0 0 0 .466-2.357 10.4 10.4 0 0 1-1.573 6.369 10.4 10.4 0 0 1-3.886-5.286m-5.901 1.187c.469 2.37 3.45 3.117 3.45 3.117a4.83 4.83 0 0 0 2.006-4.2 10.4 10.4 0 0 1-1.574 6.37 10.4 10.4 0 0 1-3.882-5.287m4.145 5.463c.469 2.37 3.453 3.116 3.453 3.116a4.83 4.83 0 0 0 2.007-4.199 10.4 10.4 0 0 1-1.578 6.37 10.4 10.4 0 0 1-3.883-5.286zm-8.301-10.836c.468 2.369 3.453 3.116 3.453 3.116a4.83 4.83 0 0 0 2.007-4.2 10.4 10.4 0 0 1-1.574 6.37 10.4 10.4 0 0 1-3.886-5.287z" opacity=".53"/><path fill="#fff" d="M33.714 56.098c7.586 0 13.736-5.974 13.736-13.343 0-7.37-6.15-13.344-13.736-13.344s-13.737 5.974-13.737 13.344 6.15 13.343 13.737 13.343"/><path fill="#bdbfc1" d="M37.246 50.604c3.901 0 7.065-2.812 7.065-6.28s-3.164-6.279-7.065-6.279c-3.9 0-7.064 2.812-7.064 6.28 0 3.467 3.163 6.279 7.064 6.279"/><path fill="#231f20" d="M37.246 49.036c2.167 0 3.925-1.933 3.925-4.318s-1.758-4.317-3.925-4.317-3.924 1.933-3.924 4.317 1.758 4.317 3.924 4.317"/><path fill="#fff" d="M35.284 44.325c.65 0 1.177-.703 1.177-1.57s-.527-1.57-1.177-1.57-1.178.703-1.178 1.57.529 1.57 1.178 1.57m29.043 11.773c7.586 0 13.736-5.974 13.736-13.343 0-7.37-6.15-13.344-13.736-13.344S50.59 35.385 50.59 42.755s6.15 13.343 13.737 13.343"/><path fill="#bdbfc1" d="M67.466 50.604c3.685 0 6.672-2.812 6.672-6.28s-2.987-6.279-6.672-6.279-6.671 2.812-6.671 6.28c0 3.467 2.987 6.279 6.671 6.279"/><path fill="#231f20" d="M67.858 49.036c2.602 0 4.71-1.933 4.71-4.318s-2.108-4.317-4.71-4.317-4.709 1.933-4.709 4.317 2.108 4.317 4.71 4.317"/><path fill="#fff" d="M65.112 44.325c.65 0 1.177-.703 1.177-1.57s-.528-1.57-1.177-1.57c-.65 0-1.178.703-1.178 1.57s.528 1.57 1.178 1.57"/><path fill="url(#g)" d="M49.411 69.444c0-4.91 7.459-11.867 7.459-16.994a7.52 7.52 0 0 0-2.24-5.198 7.42 7.42 0 0 0-5.217-2.14 7.44 7.44 0 0 0-5.217 2.14 7.52 7.52 0 0 0-2.24 5.198c0 5.126 7.455 12.084 7.455 16.994"/></g><defs><radialGradient id="b" cx="0" cy="0" r="1" gradientTransform="rotate(-42.27 60.91 -18.887)scale(65.353)" gradientUnits="userSpaceOnUse"><stop stop-color="#fff"/><stop offset=".181" stop-color="#fbfbfb"/><stop offset=".365" stop-color="#efeff0"/><stop offset=".552" stop-color="#dadbdc"/><stop offset=".738" stop-color="#bebfc2"/><stop offset=".824" stop-color="#aeb0b3"/></radialGradient><radialGradient id="c" cx="0" cy="0" r="1" gradientTransform="matrix(58.4727 0 0 64.4514 12.482 38.295)" gradientUnits="userSpaceOnUse"><stop stop-color="#fafdff"/><stop offset=".079" stop-color="#eef5fa"/><stop offset=".22" stop-color="#cfdfec"/><stop offset=".407" stop-color="#9dbbd5"/><stop offset=".631" stop-color="#588ab5"/><stop offset=".745" stop-color="#326fa4"/><stop offset=".799" stop-color="#2b6698"/><stop offset=".897" stop-color="#174e78"/><stop offset=".994" stop-color="#003152"/></radialGradient><radialGradient id="d" cx="0" cy="0" r="1" gradientTransform="matrix(58.0056 0 0 62.5954 33.239 36.124)" gradientUnits="userSpaceOnUse"><stop stop-color="#ffd540"/><stop offset=".667" stop-color="#ec1c24"/><stop offset=".994" stop-color="#760000"/></radialGradient><radialGradient id="e" cx="0" cy="0" r="1" gradientTransform="matrix(7.68473 0 0 7.23998 37.633 86.321)" gradientUnits="userSpaceOnUse"><stop stop-color="#dddfe0"/><stop offset=".174" stop-color="#d9dbdc"/><stop offset=".351" stop-color="#cdcfd0"/><stop offset=".531" stop-color="#b8babb"/><stop offset=".711" stop-color="#9c9e9f"/><stop offset=".891" stop-color="#78797b"/><stop offset="1" stop-color="#5e5f61"/></radialGradient><radialGradient id="f" cx="0" cy="0" r="1" gradientTransform="matrix(7.68473 0 0 7.23998 60.405 86.321)" gradientUnits="userSpaceOnUse"><stop stop-color="#dddfe0"/><stop offset=".174" stop-color="#d9dbdc"/><stop offset=".351" stop-color="#cdcfd0"/><stop offset=".531" stop-color="#b8babb"/><stop offset=".711" stop-color="#9c9e9f"/><stop offset=".891" stop-color="#78797b"/><stop offset="1" stop-color="#5e5f61"/></radialGradient><radialGradient id="g" cx="0" cy="0" r="1" gradientTransform="matrix(9.29125 0 0 9.34359 48.471 52.517)" gradientUnits="userSpaceOnUse"><stop stop-color="#dddfe0"/><stop offset=".174" stop-color="#d9dbdc"/><stop offset=".351" stop-color="#cdcfd0"/><stop offset=".531" stop-color="#b8babb"/><stop offset=".711" stop-color="#9c9e9f"/><stop offset=".891" stop-color="#78797b"/><stop offset="1" stop-color="#5e5f61"/></radialGradient><clipPath id="a"><path fill="#fff" d="M0 0h100v100H0z"/></clipPath></defs></g></svg>