<svg xmlns="http://www.w3.org/2000/svg" fill="none" viewBox="0 0 512 512"><g transform="translate(28.96 30.72) scale(4.506)"><path fill="#000" d="M75.199 22.11c.579 1.62.925 3.313 1.028 5.03v.535l-3.75 10.017c.868 7.91 1.693 17.675.777 20.042-.45 1.157-1.81 3.257-4.022 6.213l2.4 22.196 9.501-6.807a3.75 3.75 0 0 0 1.564-3.048V26.904a3.75 3.75 0 0 0-2.71-3.605A75 75 0 0 0 75.2 22.11m-31.699 5.062a21.54 21.54 0 0 1 13.755 0l1.151-1.89.766-5.357s-5.356-.284-8.752-.284c-3.155 0-6.1.113-8.837.295l.77 5.356zM27.459 57.734c-.91-2.346-.086-12.131.777-20.043l-3.723-10.016v-.535a18.1 18.1 0 0 1 1.023-5.024 84 84 0 0 0-4.82 1.189A3.75 3.75 0 0 0 18 26.91v49.378a3.75 3.75 0 0 0 1.57 3.048l9.539 6.834 2.4-22.174c-2.218-2.984-3.595-5.094-4.05-6.262"/><path fill="#000" d="M63.8 2.143a.25.25 0 0 1 .23.139l1.265 2.351c3.38 6.283 9.105 18.093 9.105 22.496v.204L70.651 37.45v.166c1.173 10.638 1.516 17.906.916 19.443-.536 1.372-2.635 4.285-4.419 6.626l2.598 21.173-1.564 1.12-15.63 11.2a3.75 3.75 0 0 1-4.37 0l-12.64-9.106-1.924-1.377-2.565-1.837 2.57-21.13c-1.783-2.346-3.92-5.297-4.455-6.68-.6-1.537-.258-8.805.92-19.442v-.166L26.34 27.327v-.209c0-4.413 5.715-16.223 9.106-22.496l1.264-2.35a.25.25 0 0 1 .23-.14.263.263 0 0 1 .268.23l3.38 23.567 2.094 3.444.536-.177a23.3 23.3 0 0 1 7.156-1.306 24 24 0 0 1 7.188 1.312l.535.171 2.062-3.433 3.375-23.567a.264.264 0 0 1 .267-.23M63.8 0a2.395 2.395 0 0 0-2.388 2.068l-3.316 23.111-.99 1.607a25 25 0 0 0-6.755-1.071c-2.28.04-4.542.4-6.722 1.071l-.99-1.607-3.316-23.111A2.39 2.39 0 0 0 36.934 0a2.42 2.42 0 0 0-2.142 1.27l-1.26 2.35c-1.563 2.904-9.351 17.676-9.351 23.52v.589l.134.364 3.583 9.641c-1.248 11.414-1.5 18.18-.75 20.113.182.466.713 1.831 4.22 6.502L28.9 84.622l-.15 1.259 1.034.739 2.565 1.837 1.918 1.377 12.646 9.062a5.89 5.89 0 0 0 6.866 0l15.613-11.189 1.564-1.119 1.029-.74-.15-1.258-2.475-20.294c3.471-4.623 4.007-5.983 4.183-6.428.755-1.939.504-8.709-.75-20.118l3.584-9.64.134-.365v-.59c0-5.843-7.788-20.62-9.347-23.523L65.9 1.286a2.41 2.41 0 0 0-2.142-1.27z"/><path fill="#000" d="m35.183 60.337 4.59-1.339a.5.5 0 0 0 .252-.16l4.386-4.998a.536.536 0 0 1 .938.327l.76 14.322a.57.57 0 0 1-.09.332c-.306.445-1.184 1.806-1.184 2.641 0 1.071 1.606 2.475 3.138 3.594a2 2 0 0 1 .059-.134c.536-.975 1.259-1.151 1.607-.401a6 6 0 0 1 .123 1.687h.027v1.317a.54.54 0 0 1-.054.236c-.283.579-1.655 3.026-4.59 3.026-1.253 0-4.333-.407-5.71-4.167-1.703-4.665-1.719-11.194-1.719-11.468v-.45l-.279-.347a127 127 0 0 1-2.506-3.214.534.534 0 0 1 .252-.804m28.21 4.033-.278.349v.45c0 .273 0 6.802-1.72 11.467-1.376 3.75-4.456 4.167-5.709 4.167-2.935 0-4.285-2.447-4.59-3.026a.54.54 0 0 1-.054-.236v-1.317a6.2 6.2 0 0 1 .129-1.687c.321-.75 1.033-.574 1.607.401 0 .043.037.091.059.134 1.558-1.12 3.138-2.523 3.138-3.594 0-.835-.878-2.196-1.184-2.64a.57.57 0 0 1-.09-.333l.76-14.322a.536.536 0 0 1 .937-.327l4.387 4.998a.5.5 0 0 0 .252.16l4.585 1.34a.535.535 0 0 1 .278.84 149 149 0 0 1-2.507 3.177M40.694 49.336a.814.814 0 0 1-.798.702 1.35 1.35 0 0 0 2.113.79 1.34 1.34 0 0 0-.094-2.21h2.245q.026 0 .045.019a.07.07 0 0 1 .019.045 3.036 3.036 0 1 1-6.069.049v-.113h2.34-.036a.81.81 0 0 1 .235.718m-1.478-3.091a.54.54 0 0 1-.407-.187c-.675-.788-2.678-3.434.798-3.434 2.603 0 4.66 1.575 5.806 2.71a.536.536 0 0 1-.38.911zm21.06 2.4a.1.1 0 0 0-.037 0h2.34v.112a3.032 3.032 0 0 1-6.063-.048v-.064h2.303a1.34 1.34 0 0 0-.535 1.607 1.32 1.32 0 0 0 1.071.825 1.344 1.344 0 0 0 1.5-1.04.82.82 0 0 1-.798-.701.81.81 0 0 1 .22-.691m-4.58-2.4a.537.537 0 0 1-.386-.91c1.146-1.136 3.214-2.71 5.812-2.71 3.465 0 1.467 2.645.798 3.433a.53.53 0 0 1-.407.187z"/><path fill="#000" d="M55.638 82.855a4.4 4.4 0 0 1-1.072-.129.54.54 0 0 0-.535.21 4.44 4.44 0 0 1-3.634 1.888 4.44 4.44 0 0 1-3.634-1.889.53.53 0 0 0-.536-.214q-.5.12-1.012.118h-.316a.536.536 0 0 0-.51.792 6.836 6.836 0 0 0 12.047 0 .536.536 0 0 0-.504-.792zM51.84 76.86c.38.128.741.308 1.071.536-.348-.546-.77-.745-1.07-.536m-3.91.472c.313-.206.652-.37 1.007-.488-.29-.171-.67-.021-1.007.514zm.846-1.58q-.594.196-1.12.536c.375-.536.798-.745 1.12-.536m4.435.611a5 5 0 0 0-1.206-.61c.333-.231.804 0 1.206.61"/><path fill="#000" d="M48.263 82.073a.21.21 0 0 0-.206.14.21.21 0 0 0 .066.24 3.64 3.64 0 0 0 2.245.76 3.7 3.7 0 0 0 2.244-.754.22.22 0 0 0-.14-.386zm-18.212-56.39c.204-2.143 2.202-6.899 4.285-11.221a.429.429 0 0 1 .809.128l.412 2.839a.5.5 0 0 1 0 .123c-.24 1.607-1.21 7.178-3.7 11.093a.427.427 0 0 1-.767-.08l-1.001-2.679a.5.5 0 0 1-.038-.203m38.913 2.962c-2.485-3.915-3.46-9.497-3.696-11.093a.5.5 0 0 1 0-.123l.407-2.839a.427.427 0 0 1 .809-.128c2.073 4.322 4.07 9.057 4.285 11.22a.4.4 0 0 1 0 .194l-.996 2.678a.433.433 0 0 1-.809.09"/></g></svg>