<svg xmlns="http://www.w3.org/2000/svg" fill="none" viewBox="0 0 512 512"><g transform="translate(28.52 30.72) scale(4.506)"><g clip-path="url(#a)"><path fill="#512fc9" fill-rule="evenodd" d="M60.101.967a2.03 2.03 0 0 1 1.614 1.367l.074.26 2.426 12.613a38 38 0 0 1 9.091 5.063l1.02.8 12.25-4.236c.786-.346 1.633-.098 2.224.589 4.215 4.781 7.635 10.556 9.622 16.617a1.84 1.84 0 0 1-.378 2.035l-.217.18-9.72 8.371c.348 1.874.45 3.897.45 5.866 0 1.583-.068 3.192-.27 4.726l-.18 1.142 9.72 8.38a1.82 1.82 0 0 1 .595 2.216c-1.98 6.067-5.402 11.828-9.616 16.608-.531.613-1.255.878-1.965.686l-.266-.094-12.246-4.24a37.3 37.3 0 0 1-8.9 5.369l-1.21.494-2.43 12.622a2.1 2.1 0 0 1-.592 1.08c-.3.291-.683.482-1.096.547-3.174.589-6.347.933-9.616.933-3.274 0-6.448-.344-9.622-.933a2.04 2.04 0 0 1-.995-.455 2.03 2.03 0 0 1-.623-.913l-.067-.259-2.426-12.622a36.6 36.6 0 0 1-9.222-5.136l-.894-.726-12.244 4.239c-.79.344-1.633.097-2.231-.593-4.217-4.778-7.635-10.54-9.616-16.607a1.84 1.84 0 0 1 .375-2.035l.217-.18 9.717-8.381a32.6 32.6 0 0 1-.449-5.87c0-1.574.061-3.185.266-4.723l.183-1.136-9.72-8.376a1.8 1.8 0 0 1-.69-1 1.85 1.85 0 0 1 .095-1.216c1.98-6.06 5.402-11.834 9.616-16.617.23-.289.537-.506.885-.628s.723-.14 1.08-.052l.272.089 12.244 4.236a35.6 35.6 0 0 1 9.015-5.42l1.101-.446 2.426-12.61a2.06 2.06 0 0 1 .59-1.083c.3-.29.682-.482 1.095-.547a48.6 48.6 0 0 1 19.234 0zM50.48 20.944c-16.15 0-29.227 13.226-29.227 29.539S34.338 80.021 50.48 80.021c16.144 0 29.23-13.224 29.23-29.539 0-16.312-13.086-29.537-29.233-29.537zm18.5 25.434v-8.792H31.982v8.792h14.096v21.116h8.805V46.378z" clip-rule="evenodd"/></g><defs><clipPath id="a"><path fill="#fff" d="M0 0h100v100H0z"/></clipPath></defs></g></svg>