<svg xmlns="http://www.w3.org/2000/svg" fill="none" viewBox="0 0 512 512"><g transform="translate(30.72 30.72) scale(4.506)"><path fill="#0e1017" d="M57.498 19.236a1.25 1.25 0 0 0-1.255.789L41.619 55.216a1.257 1.257 0 0 0 .691 1.698c.181.064.373.09.564.075h17.209c.523.012 1-.302 1.194-.789l7.542-17.922a1.26 1.26 0 0 1 1.187-.797h22.196a1.25 1.25 0 0 0 1.255-.788l6.43-15.654a1.255 1.255 0 0 0-.707-1.698 1.3 1.3 0 0 0-.488-.105zm-49.637.007a1.25 1.25 0 0 0-1.254.79L.109 35.686a1.257 1.257 0 0 0 .706 1.69c.154.066.32.098.489.098H21.09a1.254 1.254 0 0 1 1.156 1.758L5.743 78.968a1.26 1.26 0 0 0 .714 1.698q.231.098.488.098h43.297a1.26 1.26 0 0 0 1.262-.805l6.55-15.804a1.26 1.26 0 0 0-.766-1.644 1.3 1.3 0 0 0-.489-.106H34.377a1.255 1.255 0 0 1-1.262-1.255 1.4 1.4 0 0 1 .083-.593l16.706-39.518a1.253 1.253 0 0 0-.691-1.698 1.4 1.4 0 0 0-.504-.098z"/></g></svg>