<svg xmlns="http://www.w3.org/2000/svg" fill="none" viewBox="0 0 512 512"><g transform="translate(30.72 30.72) scale(4.506)"><g clip-path="url(#a)"><path fill="#88171a" d="M48.902 0C1.742 0 .269 46.545.269 46.545S-6.669 100 49.988 100c54.34 0 49.926-51.479 49.926-51.479S102.227 0 48.902 0m-.446 1.538c3.634-.114 7.089.248 10.403 1.862 1.244.606 2.545 1.107 3.737 1.8.582.337.973 1.002 1.45 1.519.378.41.683.96 1.149 1.208 1.765.94 3.71.977 5.692.93l.044-.664c1.993.623 4.237 2.922 4.234 4.602-3.23 0-6.458-.013-9.685.018-.345.003-.688.255-1.031.39.326.192.647.535.98.547h-.001c1.87.068 3.743.04 5.614.084q.702.046 1.39.193a13.5 13.5 0 0 1-1.412 1.812c-.669.623-1.425 1.233-2.39.285-.23-.228-.778-.176-1.182-.181-1.861-.024-3.724-.084-5.582-.013-1.612.05-3.219.214-4.808.49-.298.053-.744 1.044-.606 1.409.322.862.794 1.812 1.492 2.363 2.58 2.037 5.324 3.866 7.916 5.889 2.52 1.965 4.863 4.119 6.292 7.084 1.861 3.863 1.915 7.914 1.113 11.983-1.34 6.793-4.778 12.42-10.344 16.508-2.243 1.646-5.02 2.58-7.59 3.764-2.259 1.04-4.584 1.938-6.849 2.968-4.083 1.856-6.377 6.289-5.703 10.896.62 4.228 4.33 7.756 8.578 8.484 5.098.875 10.358-2.437 11.605-7.62 1.402-5.825-1.763-11.027-7.688-12.603-.261-.07-.523-.136-1.068-.276 1.586-.709 2.954-1.213 4.218-1.909a116 116 0 0 0 6.493-3.853c.625-.4.963-.4 1.496.06 4.075 3.524 6.506 7.906 7.187 13.28 1.128 8.895-3.082 17.066-11.023 21.254-12.287 6.479-27.322-.895-30.035-14.517-2.325-11.668 5.91-22.25 15.82-24.294 4.262-.88 8.16-2.654 11.19-5.937 1.955-2.117 2.903-3.935 3.226-4.755.6-1.536.908-3.172.906-4.822-.066-1.428-.4-2.83-.988-4.133-1.034-2.359-4.998-6.11-5.98-6.902l-9.333-7.307c-.329-.27-.7-.25-1.502-.196-.953.064-3.39.2-4.443-.076.85-.644 3.17-1.581 4.167-2.336-3.025-2.042-6.477-1.305-9.647-1.914.733-1.366 4.36-3.464 6.423-3.698a31 31 0 0 0-.563-3.427c-.126-.464-.643-.914-1.094-1.178-1.096-.643-2.258-1.172-3.517-1.811a7.3 7.3 0 0 1 3.777-1.168 14 14 0 0 1 3.783.368c2.247.514 4.04.178 5.828-1.35-1.407-.567-2.813-1.084-4.18-1.696a41 41 0 0 1-3.925-2.053c3.54.492 6.966 1.819 10.586 1.334l.092-.494-8.41-1.957q1.845-.177 3.698-.244m13.497 7.107c-.245.003-.47.155-.692.325a.494.494 0 0 0-.062.789.745.745 0 0 0 1.023.273c.311-.156.617-.323.992-.522-.303-.258-.545-.47-.795-.677a.72.72 0 0 0-.466-.188M43.847 28.583c7.35-.267 14.42 3.48 17.713 9.808.907 1.745 1.023 4.43.447 6.26-1.984 6.32-6.67 9.863-13.103 11.368 1.896-1.623 3.406-3.464 3.886-6.008a8.8 8.8 0 0 0-1.514-6.985 8.92 8.92 0 0 0-10.27-3.13c-3.96 1.504-6.13 5.118-5.74 9.561.364 4.127 3.496 6.802 9.355 7.818-.876.463-1.55.805-2.21 1.172a21.3 21.3 0 0 0-6.848 5.956c-.595.802-1.003.867-1.91.313-11.779-7.203-12.536-25.28.328-33.15a20.23 20.23 0 0 1 9.866-2.983M33.052 66.258q.6-.013 1.196.05a16.3 16.3 0 0 0-3.08 8.632c-2.101.387-4.08.647-6.002 1.134-1.893.48-3.727 1.192-5.661 1.827.887-5.985 7.513-11.526 13.547-11.643"/></g><defs><clipPath id="a"><path fill="#fff" d="M0 0h100v100H0z"/></clipPath></defs></g></svg>