<svg xmlns="http://www.w3.org/2000/svg" fill="none" viewBox="0 0 512 512"><g transform="translate(32.92 30.72) scale(4.506)"><g fill="#000" clip-path="url(#a)"><path d="M17 49.986h16.535a20.03 20.03 0 0 1 16.002 7.985l16.31 21.675c.309.41.355.96.12 1.415l-9.402 18.216a1.335 1.335 0 0 1-2.252.192zm65.06.028H65.527a20.03 20.03 0 0 1-16.002-7.985l-16.31-21.675a1.34 1.34 0 0 1-.12-1.415L42.496.723A1.335 1.335 0 0 1 44.748.53z"/></g><defs><clipPath id="a"><path fill="#fff" d="M0 0h100v100H0z"/></clipPath></defs></g></svg>