<svg xmlns="http://www.w3.org/2000/svg" fill="none" viewBox="0 0 512 512"><g transform="translate(30.72 30.72) scale(4.506)"><g clip-path="url(#a)"><path fill="url(#b)" d="M100 50c0-27.614-22.386-50-50-50S0 22.386 0 50s22.386 50 50 50 50-22.386 50-50"/><path fill="#fff" d="m27.065 52.134 34.083-33.848c.636-.632 1.661.137 1.231.925l-12.685 23.25a.778.778 0 0 0 .683 1.151H72.3c.706 0 1.047.865.531 1.347L34.415 80.812c-.69.643-1.715-.263-1.162-1.026L51.44 54.7a.778.778 0 0 0-.63-1.235H27.614a.778.778 0 0 1-.549-1.33"/></g><defs><linearGradient id="b" x1="50" x2="50" y1="0" y2="100" gradientUnits="userSpaceOnUse"><stop stop-color="#7bcbd4"/><stop offset="1" stop-color="#29c6b7"/></linearGradient><clipPath id="a"><path fill="#fff" d="M0 0h100v100H0z"/></clipPath></defs></g></svg>