<svg xmlns="http://www.w3.org/2000/svg" fill="none" viewBox="0 0 512 512"><g transform="translate(29.4 30.72) scale(4.506)"><g clip-path="url(#a)"><path fill="#0e83cd" d="M50.276 0 7 25.043l.005 50.013L50.38 100l43.275-25.045V24.968z"/><path fill="#fff" d="m29.974 71.653.003-21.627.004-21.627L33.91 26.1l3.763 2.227.041 8.837.04 8.838h25.15l.04-8.831.04-8.832 3.823-2.209 3.874 2.268-.002 21.612-.002 21.613-3.835 2.142-3.857-2.17-.041-8.788-.04-8.788h-25.15l-.04 8.785.011 8.83-3.856 2.262z"/></g><defs><clipPath id="a"><path fill="#fff" d="M0 0h100v100H0z"/></clipPath></defs></g></svg>