<svg xmlns="http://www.w3.org/2000/svg" fill="none" viewBox="0 0 512 512"><g transform="translate(28.503 28.946) scale(4.541)"><path fill="#ff4088" fill-rule="evenodd" stroke="#c9177e" stroke-width="6.9" d="m55.869 5.766 29.24 17.005a11.25 11.25 0 0 1 5.591 9.722V67.36a12.27 12.27 0 0 1-6.248 10.688l-29.02 16.341a12.52 12.52 0 0 1-12.39-.059L16.317 78.948A13.55 13.55 0 0 1 9.53 67.209V34.121a14.06 14.06 0 0 1 6.67-11.96L42.473 5.94a13.03 13.03 0 0 1 13.397-.175Z" clip-rule="evenodd"/><path fill="#fff" fill-rule="evenodd" d="M28.062 78.532V20.968h12.043v20.967h19.978V20.968h12.079v57.564H60.083V53.36H40.105v25.17z" clip-rule="evenodd"/></g></svg>