<svg xmlns="http://www.w3.org/2000/svg" fill="none" viewBox="0 0 512 512"><g transform="translate(30.72 29.84) scale(4.506)"><g clip-path="url(#a)"><path fill="url(#b)" d="M94.854 63.808c0 4.703-3.849 8.551-8.552 8.551H14.43c-4.703 0-8.551-3.848-8.551-8.551V36.575c0-4.703 3.848-8.551 8.551-8.551h71.873c4.703 0 8.551 3.848 8.551 8.551z"/><path fill="#f6f6f6" d="M79.818 49.61q5.635 1.972 5.634 6.752 0 3.145-2.332 4.992c-1.552 1.232-3.767 1.997-6.649 1.997s-5.548-.835-8.004-2.206q.041-1.091.572-2.39.53-1.302 1.248-2.057 3.387 1.76 5.888 1.76 1.183 0 1.822-.398.637-.398.636-1.07 0-1.26-1.95-1.888l-2.332-.881q-5.293-1.928-5.293-6.292 0-3.188 2.223-5.056c1.483-1.244 3.48-2.316 5.993-2.316q1.864 0 4.108.524c1.496.35 2.725 1.213 3.685 1.687q.083 1.176-.466 2.58-.551 1.407-1.357 1.993-3.558-1.594-5.93-1.594c-.566 0-.993.125-1.293.378a1.2 1.2 0 0 0-.441.965q-.001 1.006 1.61 1.594zm-18.762 0q5.633 1.972 5.633 6.752-.002 3.145-2.33 4.992c-1.554 1.232-3.769 1.997-6.65 1.997-2.88 0-5.55-.835-8.004-2.206q.04-1.091.572-2.39.53-1.302 1.249-2.057 3.389 1.76 5.888 1.76 1.185 0 1.821-.398t.636-1.07q0-1.26-1.95-1.888l-2.33-.881q-5.295-1.928-5.295-6.292 0-3.188 2.225-5.056c1.482-1.244 3.479-2.316 5.991-2.316q1.865 0 4.108.524c1.497.35 2.724 1.213 3.685 1.687q.083 1.176-.466 2.58-.55 1.407-1.356 1.993-3.56-1.594-5.932-1.594-.846 0-1.291.378a1.21 1.21 0 0 0-.443.965q0 1.006 1.61 1.594zm-13.683.296q0-1.93-.614-3.566a8 8 0 0 0-1.757-2.811q-1.143-1.175-2.773-1.846c-1.088-.447-2.31-1.12-3.664-1.12-1.61 0-3.015.728-4.214 1.288q-1.8.84-2.964 2.307-1.167 1.47-1.738 3.461-.57 1.993-.571 4.341c0 1.62.155 3.12.466 4.49q.465 2.052 1.588 3.564 1.122 1.51 2.923 2.347c1.2.56 2.69.989 4.468.989 3.275 0 6.042-.949 8.3-2.542q-.335-2.432-1.727-3.86-1.732.65-3.06.935-1.33.282-2.342.283-2.026.001-2.91-1.037c-.59-.692-.913-1.51-.97-2.751h11.012c.363-1.176.547-2.766.547-4.472m-11.601.29c.084-1.427.344-2.954.778-3.583q.65-.945 1.996-.944 1.386 0 2.08 1.005c.462.672.693 2.024.693 3.059v.463z"/><path fill="#f6f6f6" stroke="#404040" stroke-miterlimit="10" stroke-width=".539" d="M97.07 52.987c-1.197 1.045-1.891 2.55-1.891 4.517v7.327c0 2.436-.749 4.288-2.44 5.562-1.69 1.272-3.66 1.901-5.908 1.962l-1.332-.01v-3.65c1.174-.344 1.657-.742 2.124-1.194.847-.766 1.496-2.011 1.496-3.74v-5.915c.031-2.011.186-3.586.918-4.724q1.103-1.705 4.29-2.992-3.522-1.613-4.727-4.21c-.473-1.028-.482-2.415-.482-4.16v-5.425c0-1.791-.587-3.047-1.308-3.763-.469-.467-1.014-.84-2.313-1.123v-3.427c1.588.017 2.39-.002 3.315 0 1.424-.011 2.617.767 3.655 1.578q1.697 1.335 2.405 3.604c.267.875.306 1.71.306 2.505v6.274c0 2.216.654 3.863 1.773 4.938.63.624 1.52 1.194 3.049 1.71v2.834c-1.354.374-2.204.881-2.93 1.522ZM12.837 28.024v.005c-.455-.003-.866-.004-1.196-.003-1.425-.013-2.617.766-3.655 1.578-1.132.889-2.1 2.05-2.404 3.604-.173.912-.137 1.708-.137 2.504v6.274c0 2.215-.824 3.861-1.942 4.939-.63.624-1.974 1.193-3.503 1.708v2.834c1.355.374 2.66.88 3.383 1.522 1.198 1.046 2.061 2.552 2.061 4.519v7.326c0 2.434.58 4.288 2.27 5.56s3.659 1.903 5.907 1.965l1.505-.01v-3.654c-1.174-.343-1.826-.741-2.296-1.192-.846-.766-1.325-2.01-1.325-3.74v-5.915c-.033-2.012-.357-3.586-1.09-4.725q-1.1-1.704-4.29-2.991 3.521-1.613 4.727-4.209c.473-1.028.653-2.416.653-4.161v-5.424c0-1.792.416-3.047 1.136-3.764.391-.39 1.086-.71 2.052-.97l1.528.011v-3.591h-3.383Z"/><path fill="#f6f6f6" d="M26.918 57.748h-1.144c-1.244 0-1.712-.654-1.712-1.967V31.642c0-1.451-.419-2.47-.956-3.057s-1.468-.58-2.795-.58H17.73l-.305-.006v.025l-.002 3.593v25.332c0 2.015.452 3.489 1.257 4.427q1.208 1.405 4.088 1.404 1.992 0 4.532-.42.127-.425.127-1.818 0-1.395-.508-2.794"/></g><defs><linearGradient id="b" x1="50.366" x2="50.366" y1="28.024" y2="72.359" gradientUnits="userSpaceOnUse"><stop offset=".15" stop-color="#2a4f84"/><stop offset=".388" stop-color="#294e82"/><stop offset="1" stop-color="#172e4e"/></linearGradient><clipPath id="a"><path fill="#fff" d="M0 0h100v100H0z"/></clipPath></defs></g></svg>