<svg xmlns="http://www.w3.org/2000/svg" fill="none" viewBox="0 0 512 512"><g transform="translate(30.72 30.72) scale(4.506)"><g clip-path="url(#a)"><path fill="#ea6618" d="M100 92.339V7.659A7.66 7.66 0 0 0 94.516.313l-3.598 2.155L50.97 45.062l-1.253 3.915-.73 3.757 12.457 46.554 1.926.711h28.97a7.66 7.66 0 0 0 7.66-7.66"/><path fill="#d65813" d="M0 7.66v84.68a7.65 7.65 0 0 0 3.32 6.31l2.457-1.173L48.06 52.203l1.657-3.226.065-3.121L38.273 2.072 36.529 0H7.66A7.66 7.66 0 0 0 0 7.66"/><path fill="#e05e11" d="M49.716 48.977 94.516.314A7.7 7.7 0 0 0 92.34 0H36.53z"/><path fill="#de5c16" d="M7.66 100h55.71L49.716 48.976 3.32 98.65A7.6 7.6 0 0 0 7.66 100"/><path fill="#fff" d="M37.078 37.902h5.555c2.215 8.353 4.736 15.683 7.546 22.3 3.184-7.444 5.518-14.78 7.493-22.3h5.252c-2.353 9.344-6.199 18.766-10.599 28.488H47.68c-4.226-9.214-7.824-18.686-10.601-28.488M18.75 23.427h12.354V76.41H18.695v-4.083H26.3V27.4h-7.55zm62.564 3.974h-7.55v44.925h7.605v4.083H68.96V23.427h12.353z"/></g><defs><clipPath id="a"><path fill="#fff" d="M0 0h100v100H0z"/></clipPath></defs></g></svg>