<svg xmlns="http://www.w3.org/2000/svg" fill="none" viewBox="0 0 512 512"><g transform="translate(28.946 28.946) scale(4.541)"><path fill="#ed225d" d="m29.531 27.071-.578 18.72a14 14 0 0 1 1.763-.727q1.005-.341 2.033-.604 1.05-.27 2.127-.412 1.022-.138 2.054-.143 1.404 0 2.758.314a6.6 6.6 0 0 1 2.445 1.11q1.087.798 1.764 2.107.678 1.304.677 3.287c0 1.03-.168 1.961-.507 2.782q-.507 1.233-1.379 2.055a5.9 5.9 0 0 1-2.03 1.26c-.79.292-1.626.44-2.468.437q-2.322 0-4.013-1.237-1.695-1.231-2.42-3.265l-.065.025-4.202 3.936a11.25 11.25 0 0 0 3.3 3.467q2.95 2.005 7.253 2.005 2.568 0 4.838-.82 2.274-.825 3.967-2.372 1.692-1.547 2.685-3.797.992-2.25.992-5.105 0-2.608-.894-4.617a9.6 9.6 0 0 0-2.493-3.388q-1.595-1.38-3.748-2.102-2.152-.727-4.666-.727-.921 0-2.057.098-1.14.095-1.96.339l.34-7.404h13.98V27.07zm40.73 9.919v25.973q0 1.015-.094 1.91a4.7 4.7 0 0 1-.438 1.575 2.6 2.6 0 0 1-.966 1.063q-.632.387-1.646.387a7.2 7.2 0 0 1-1.596-.196l-.484 4.935a14 14 0 0 0 1.158.196q.73.095 1.454.094 2.613.001 4.232-.82 1.62-.824 2.567-2.202c.629-.921 1.053-1.998 1.279-3.24.232-1.302.347-2.621.341-3.943V36.99zm-56.147.433q-1.597 0-2.877.36c-.797.222-1.569.531-2.299.922-.677.372-1.25.787-1.718 1.258a8.4 8.4 0 0 0-1.135 1.378H5.94v-3.24H.375v34.826h5.808V58.22h.094c.743 1.163 1.797 2.082 3.172 2.76q2.055 1.015 4.52 1.015 2.66 0 4.766-.992a10.9 10.9 0 0 0 3.58-2.66q1.475-1.666 2.273-3.919.798-2.249.8-4.812 0-2.564-.825-4.789c-.549-1.482-1.32-2.773-2.322-3.87a10.9 10.9 0 0 0-3.58-2.587q-2.08-.943-4.547-.943m76.804 0a13.3 13.3 0 0 0-3.387.433 9.5 9.5 0 0 0-2.951 1.33 6.9 6.9 0 0 0-2.106 2.3q-.797 1.402-.797 3.337 0 1.644.58 2.756c.372.728.9 1.365 1.547 1.865a8.4 8.4 0 0 0 2.203 1.208 19.5 19.5 0 0 0 2.54.75q2.66.63 3.991 1.258 1.329.627 1.329 2.081-.002.772-.336 1.307c-.227.351-.532.64-.898.845a4.3 4.3 0 0 1-1.209.458c-.42.097-.85.146-1.28.147q-1.886 0-3.438-.822-1.545-.823-2.514-2.08l-3.82 3.579q1.693 1.84 4.257 2.828c1.678.656 3.466.992 5.27.992q1.89 0 3.653-.411c1.178-.272 2.21-.718 3.097-1.329a6.8 6.8 0 0 0 2.13-2.395q.797-1.474.797-3.604 0-1.693-.677-2.877a6.3 6.3 0 0 0-1.768-1.984 9.5 9.5 0 0 0-2.417-1.282 21 21 0 0 0-2.636-.775q-2.469-.581-3.75-1.135-1.28-.558-1.28-1.914c0-.9.385-1.547 1.16-1.931q1.16-.582 2.563-.583a6 6 0 0 1 2.952.75c.903.5 1.61 1.087 2.13 1.764l3.772-3.336q-1.406-1.79-3.8-2.66a14.2 14.2 0 0 0-4.907-.87m-78.11 4.74q1.694-.001 2.951.653c.811.414 1.521 1 2.082 1.717a7.7 7.7 0 0 1 1.233 2.393c.269.87.406 1.775.408 2.686a9.4 9.4 0 0 1-.408 2.71 7.5 7.5 0 0 1-1.233 2.42 6.5 6.5 0 0 1-2.082 1.74q-1.258.676-2.95.676-1.599.001-2.854-.653a7 7 0 0 1-2.152-1.718 7.5 7.5 0 0 1-1.358-2.392 8.2 8.2 0 0 1-.457-2.686A8.4 8.4 0 0 1 6.445 47a7.34 7.34 0 0 1 3.51-4.16q1.255-.675 2.854-.676m46.433 10.64v3.605l-3.485-1.126-.678 2.094 3.47 1.25-2.14 2.927 1.75 1.334 2.19-2.899 2.253 2.975 1.803-1.306-2.139-3.03 3.442-1.175-.677-2.088-3.457 1.044v-3.604z"/></g></svg>