<svg xmlns="http://www.w3.org/2000/svg" fill="none" viewBox="0 0 512 512"><g transform="translate(28.52 30.72) scale(4.506)"><g clip-path="url(#a)"><path fill="#f6e458" d="M1 11.457C1 5.13 6.13 0 12.458 0H88.5c6.328 0 11.458 5.13 11.458 11.458v77.084C99.958 94.87 94.828 100 88.5 100H12.458C6.13 99.999 1 94.869 1 88.541z"/><path fill="#000" d="M64.417 22.352c-5.46-1.569-11.029-1.782-16.704-1.274-3.176.33-6.229.96-9.174 2.066-6.366 2.391-11.145 6.532-13.995 12.768-2.043 4.47-2.781 9.218-2.858 14.09-.082 5.149.564 10.226 1.589 15.26.93 4.564 2.167 9.037 3.934 13.356.168.41.377.548.826.547 5.59-.011 11.18-.011 16.77-.011h4.965c.127 0 .253-.008.4-.016l.24-.012-.092-.222a8 8 0 0 0-.158-.368q-.608-1.296-1.23-2.587c-.894-1.868-1.789-3.736-2.598-5.64-2.455-5.776-4.335-11.723-4.909-18.017-.253-2.778-.218-5.539.553-8.245.88-3.094 2.77-5.278 5.904-6.19 2.878-.839 5.796-.834 8.657.092 2.555.826 4.22 2.57 4.928 5.183.544 2.006.544 4.034.133 6.057-.317 1.557-.955 2.978-2.104 4.115-2.06 2.04-4.632 2.508-7.393 2.352-.491-.028-.98-.082-1.485-.137q-.354-.04-.72-.077l.014.218c.007.132.013.247.04.357q.175.71.342 1.422c.27 1.144.54 2.287.888 3.406a66 66 0 0 0 2.373 6.438c6.408-.5 12.31-2.093 18.573-5.853l.265-.167c2.69-1.675 4.868-3.847 6.37-6.653 2.432-4.544 2.906-9.403 2.184-14.418-.746-5.177-3.069-9.521-7.067-12.929-2.774-2.364-5.98-3.912-9.461-4.911"/></g><defs><clipPath id="a"><path fill="#fff" d="M0 0h100v100H0z"/></clipPath></defs></g></svg>