<svg xmlns="http://www.w3.org/2000/svg" fill="none" viewBox="0 0 512 512"><g transform="translate(29.4 30.72) scale(4.506)"><g clip-path="url(#a)"><path fill="#e72264" d="M50.275-.001C29.688-.001 13 16.687 13 37.274q0 .605.02 1.204v39.47l.004-.004v9.005l-.003.205q0 .105.007.209v.167h.003c.199 6.918 5.864 12.466 12.831 12.466s12.692-5.548 12.89-12.466V74.306h10.65q.435.01.87.01c20.587 0 37.275-16.455 37.275-37.042S70.862 0 50.275 0m0 48.58H38.763V37.277c0-6.334 5.179-11.471 11.512-11.471s11.471 5.137 11.471 11.47-5.137 11.305-11.47 11.305z"/><path fill="#1d1d1b" d="M25.539 74.313h13.196v13.22h-.06C38.478 94.451 32.813 100 25.846 100S13.209 94.451 13.01 87.533h-.003v-.166c0-.07-.007-.14-.007-.21s.004-.135.004-.204v-.933c.396-6.187 6.236-11.707 12.531-11.707z" opacity=".15"/><g fill="#000" opacity=".05"><path d="M13.02 58.41v15.896c0-14.003 11.767-25.53 25.736-25.721v-5.071C28.373 44.606 19.18 50.195 13.02 58.41" opacity=".5"/><path d="M13.042 86.267c3.033-2.226 6.713-3.537 10.685-3.537h15.032v-8.424H25.88c-6.803 0-12.364 5.276-12.837 11.961"/></g><g fill="#000" opacity=".05"><path d="M38.756 48.585V43.98c-10.47 1.026-19.707 6.737-25.735 15.123v15.203c0-14.003 11.766-25.53 25.735-25.721" opacity=".5"/><path d="M25.88 74.306c-6.62 0-12.066 4.998-12.79 11.426 3.03-2.365 6.772-3.764 10.831-3.764h14.835V74.31h-12.88z"/></g><g fill="#000" opacity=".05"><path d="M38.756 48.585v-4.142c-10.564.956-19.86 6.806-25.735 15.38v14.48c0-14.003 11.766-25.53 25.735-25.721z" opacity=".5"/><path d="M25.88 74.306c-6.435 0-11.76 4.72-12.72 10.886 3.012-2.5 6.817-3.992 10.956-3.992h14.64v-6.894h-12.88z"/></g><g fill="#000" opacity=".05"><path d="M38.756 48.585V44.91c-10.671.883-20.031 6.893-25.735 15.676v13.72c0-14.002 11.766-25.529 25.735-25.72" opacity=".5"/><path d="M25.88 74.306c-6.25 0-11.457 4.455-12.626 10.361 2.988-2.64 6.845-4.233 11.06-4.233H38.76v-6.128z"/></g><g fill="#000" opacity=".05"><path d="M38.756 48.585v-3.207c-10.797.8-20.23 6.998-25.735 16.01v12.918c0-14.003 11.766-25.53 25.735-25.72" opacity=".5"/><path d="M25.88 74.306c-6.063 0-11.14 4.191-12.508 9.83 2.946-2.776 6.852-4.47 11.137-4.47h14.247v-5.363h-12.88z"/></g><g fill="#000" opacity=".05"><path d="M38.756 48.585v-2.737c-10.94.716-20.462 7.127-25.735 16.403v12.055c0-14.003 11.766-25.53 25.735-25.72" opacity=".5"/><path d="M25.88 74.306c-5.871 0-10.817 3.93-12.365 9.297 2.894-2.911 6.838-4.702 11.192-4.702H38.76v-4.595z"/></g><g fill="#000" opacity=".05"><path d="M38.756 48.585v-2.264c-11.106.622-20.737 7.29-25.735 16.865v11.12c0-14.003 11.766-25.53 25.735-25.72" opacity=".5"/><path d="M25.88 74.306c-5.673 0-10.487 3.673-12.202 8.768 2.828-3.043 6.81-4.939 11.22-4.939h13.858v-3.83h-12.88z"/></g><g fill="#000" opacity=".05"><path d="M38.756 48.585v-1.788c-11.311.522-21.07 7.503-25.735 17.43v10.079c0-14.003 11.766-25.53 25.735-25.72" opacity=".5"/><path d="M25.88 74.306c-5.478 0-10.153 3.426-12.014 8.25 2.751-3.179 6.758-5.186 11.231-5.186h13.662v-3.064z"/></g><g fill="#000" opacity=".05"><path d="M38.756 48.585v-1.3c-11.572.413-21.499 7.787-25.735 18.148v8.873c0-14.003 11.766-25.53 25.735-25.72" opacity=".5"/><path d="M25.88 74.306c-5.28 0-9.816 3.183-11.798 7.732 2.653-3.315 6.688-5.433 11.213-5.433H38.76v-2.299z"/></g></g><defs><clipPath id="a"><path fill="#fff" d="M0 0h100v100H0z"/></clipPath></defs></g></svg>