<svg xmlns="http://www.w3.org/2000/svg" fill="none" viewBox="0 0 512 512"><g transform="translate(30.72 30.72) scale(4.506)"><g clip-path="url(#a)"><path fill="#dd3a0a" d="M15.112 47.22c-.134.238-.268.44-.403.678l-.201-.104c-.137.775-.61 1.453-1.08 1.587.133.067.268.134.372.1.097-.033.165-.204.234-.304l.91-1.316.305-.51-.134-.134zM3.878 62.052c.172 0 .339.033.54.033 0-.134.172-.104.172-.235h.1c0 .168.034.302.034.473h-.709c-.033-.034-.168-.238-.134-.271zm-.268-1.554c-.1-.103-.269-.201-.269-.305-.033-.131.067-.3.168-.47.067.238.102.44.168.678-.033.03-.067.064-.067.097m.845-2.163c.135.34.269.713.403 1.053-.033 0-.235.1-.268.133-.135-.338-.303-.71-.44-1.047.033-.032.238-.136.305-.136zm75.101 32.3c.168-.065.37-.102.64-.165-.304.234-.54.402-.74.603-.038-.03-.071-.067-.105-.067.067-.134.135-.234.205-.371M38.089 19.25c.198-.137.37-.238.57-.373l.067.068c-.204.268-.371.537-.607.875-.033-.232-.033-.37-.07-.536-.034 0 0 0 .037-.034zm9.884 17.094c.303-.138.608-.269.977-.44-.034.202-.034.34-.034.473a1.3 1.3 0 0 0-.338-.067c-.202.034-.574.302-.742.336-.033 0 .134-.269.134-.302zM73.278 64.99c.068.339.709.507.068.846.104.07.201.1.302.17a.25.25 0 0 1-.067.138c-.067.031-.202.097-.269.064-.033 0-.101-.135-.101-.202 0-.304.034-.607.068-1.013zm0-6.756c.034 0 .068.033.068.033l-.034-.036c0-.034 0-.034-.033 0zm5.332 33.38c-.372.268-.745.506-1.217.607-.034-.033-.034-.067-.067-.104.371-.234.775-.47 1.146-.708.034.064.102.135.135.202zm-63.26-45.78c.372-.47.745-.943 1.148-1.416.03.034.299.102.335.134-.372.474-.878 1.114-1.251 1.621-.067-.067-.168-.302-.235-.339zM5.768 62.39c-.269-.574-.54-1.18-.809-1.755a1.2 1.2 0 0 1 .302-.136c.372.539.54 1.18.812 1.757 0 0-.269.134-.305.134m8.603-16.217c-.202.305-.403.644-.608.949-.034-.036-.402.134-.436.102.2-.306.708-.847.91-1.151.033.033.067.07.134.103zM75 93c.033 0 .033-.03.067-.03.234.031.503.064.775.064-.44.305-.711.272-.845-.034zM14.435 47.592c.036-.1.103-.201.17-.302a.6.6 0 0 0 .168-.037c.138-.234.138-.402.272-.607-.034-.033-.067-.033-.104-.067-.201.138-.403.309-.604.442.067.067.067.102.067.168-.268-.033-.372.104-.507.474-.033.104-.201.134-.372.268-.033.07-.067.238-.134.407l.034.035a.6.6 0 0 1-.168.104c-.202.202-.44.372-.64.57-.035.105-.069.205-.069.305.239-.234.64-.673.946-.945l.034.034c.134-.202.235-.403.373-.607.03.033.03.067.067.103-.104.269-.205.57-.305.842-.07.034-.172.102-.172.067-.133.104-.234.235-.372.34l-.607.402c-.336.305-.675.574-1.043.88-.239.371-.474.707-.745 1.15.406-.104.506.066.473.405.472.068.506-.304.64-.576.034-.067.07-.205.135-.238.304-.27.643-.504.98-.775.066-.067.066-.205.066-.305 0-.034-.17-.034-.271-.068.305-.338.745-.91 1.047-1.281.167-.104.335-.239.335-.34-.03-.372.205-.473.477-.61-.137-.101-.172-.201-.172-.231zm85.293-4.12c-.067-1.318-.1-2.636-.234-3.955-.239-1.788-.474-3.613-.88-5.37-.302-1.454-.806-2.84-1.315-4.224-.64-1.62-1.281-3.275-2.09-4.831-1.315-2.5-3.037-4.73-4.624-7.06-1.047-1.488-2.395-2.702-3.409-4.222-.573-.88-1.416-1.62-2.261-2.296-1.349-1.083-2.765-2.065-4.184-3.008-1.077-.745-2.158-1.454-3.305-2.097-.912-.507-1.889-.913-2.836-1.352-1.08-.507-2.123-1.117-3.338-1.351-.305-.065-.573-.17-.879-.27-.775-.271-1.516-.573-2.294-.812-1.182-.372-2.326-.808-3.544-1.113-1.174-.305-2.392-.507-3.607-.678-1.348-.199-2.731-.268-4.083-.4C55.97.33 55.094.23 54.247.196 52.967.131 51.651.131 50.37.098c-.64-.037-1.315-.104-1.956-.07q-1.475.06-2.936.271c-.943.101-1.889.27-2.798.407-1.111.133-2.225.2-3.34.338-1.046.134-2.126.339-3.17.506-.372.067-.744.202-1.114.269-.808.17-1.654.238-2.462.51a67 67 0 0 0-4.319 1.486c-1.315.54-2.597 1.114-3.844 1.791-1.283.708-2.5 1.55-3.712 2.365a59 59 0 0 0-3.412 2.463c-1.077.848-2.09 1.791-3.07 2.737-.537.54-.977 1.185-1.483 1.792-.842.98-1.688 1.925-2.496 2.939-.672.845-1.281 1.724-1.923 2.603-1.144 1.55-2.124 3.208-3.033 4.865-.372.674-.708 1.351-1.047 2.025-.507 1.01-1.047 1.993-1.517 3.04a13 13 0 0 0-.812 2.264 313 313 0 0 0-1.382 5C.137 39.188.037 40.74.006 42.26c-.037 1.352.1 2.67.234 4.019.035.339-.167.744.236 1.013-.134.373-.034.577.168.64-.235.373.101.612-.03.95-.038.067.1.201.164.302 0 .104-.03.238 0 .34.037.304.171.606.171.945 0 .238.202.507.269.745.033.1 0 .268-.067.338-.202.235-.168.437.134.574.17.436.103.641.07.846.067.301-.037.402 0 .472.268.541.372 1.148.403 1.755 0 .138.067.272.137.44.034 0 0 .64 0 .64.164-.097.302-.13.47-.201.104.44.204.848.339 1.218.168.271.168.402.1.436.135.608.202 1.184.436 1.758 0-.64-.064-1.282-.164-1.892.47.17.875.339 1.147.339.034-.104.067-.239.102-.305-.203-.202-.373-.504-.574-.709.067.27 0 .373 0 .477-.135-.07-.305-.138-.474-.208.135-.164.272-.336.474-.537 0-.305-.168-.577-.641-.543.2-.068.405-.164.64-.235.372-.201-.033-.574-.033-1.047.034-.574-.305-1.148-.406-1.754-.168-.946-.135-2.366-.235-3.312-.201-.171-.372.269-.406.302q.164 1.214.269 2.432c-.202-.674-.336-1.418-.504-2.23-.034.237-.067.338-.067.476-.168.165-.034.372.067.607-.234-.103-.506-.067-.506-.067v.946c-.336-.339-.437-.608-.608-.846-.067-.268-.1-.54-.164-.808.063-.17 0-.271 0-.372a19 19 0 0 1-.104-.813c.034-.033-.034-.536-.034-.536.268.03.44.064.607.064-.336-.436-.1-.708.037-.98.067-.134.302-.168.37-.305.27-.507.71-.91.71-1.554 0-.304.101-.64.135-.945.067-.574.133-1.15.164-1.725.07-.741 0-1.486.172-2.194a48 48 0 0 1 .979-3.547q.412-1.266.912-2.501c.504-1.316.98-2.634 1.62-3.883.91-1.827 1.957-3.582 2.97-5.373.64-1.114 1.316-2.161 2.024-3.244.674-1.047 1.346-2.128 2.124-3.107 1.083-1.385 2.26-2.67 3.576-3.818 1.352-1.217 2.634-2.466 4.083-3.583a41 41 0 0 1 6.003-3.854c1.721-.91 3.51-1.62 5.298-2.298 1.148-.436 2.396-.64 3.577-1.013 1.349-.44 2.698-.64 4.113-.675.913-.033 1.792-.137 2.701-.237q1.251-.093 2.496-.235c-.1.134-.134.203-.167.27-.37.541-.776 1.081-1.148 1.622-.302.439-.64.912-.942 1.351-.544.711-1.118 1.42-1.62 2.164-.78 1.114-1.487 2.264-2.296 3.378-.809 1.08-1.687 2.094-2.53 3.141-1.114 1.456-2.16 2.938-3.272 4.39-1.013 1.387-2.09 2.708-3.07 4.094-.878 1.21-1.654 2.499-2.5 3.744-1.244 1.862-2.492 3.684-3.74 5.542a356 356 0 0 1-2.97 4.224c-.066.104-.171.134-.268.201-.272.44-.272.675-.373.88a20 20 0 0 1-.845 1.485c-.168.269-.402.507-.607.775-.034-.406.54-.607.269-1.114-.165.272-.336.507-.504.778l-.406.807c.134.103.372.17.134.371-.1.172-.2.373-.302.544.168-.104.268-.201.372-.339 0 .373-.204.674-.372.98-.134.269-.473.472-.708.674.033.034.268.134.302.168.305-.1.406-.269.44-.168.103-.134.204-.234.238-.338.13-.336.335-.608.671-.742.137-.068.238-.17.339-.268 1.013-1.05 2.057-2.064 2.97-3.178 1.416-1.724 2.7-3.515 4.05-5.27.573-.745 1.247-1.486 1.855-2.197.1.775.033 1.52 0 2.23-.104 1.249-.172 2.5-.27 3.782-.036.506 0 1.013-.036 1.52 0 .137-.1.238-.1.372 0 .338.1.71.1 1.047-.1 1.25-.238 2.465-.339 3.716-.034.269.102.54.165.778-.164 1.823.208 3.751-.098 5.677.235-.372.303-.607.303-.845.033-.202 0-.404 0-.641v-.34c.033-.606.168-1.247.1-1.858-.067-.674-.067-1.315.068-1.959.07-.268-.034-.607.137-.945v.506c-.034 1.922.034 3.852-.235 5.777-.034.167.104.473-.269.44-.305.606.067 1.046-.269 1.384-.07.068.065.37.098.575-.137.406-.137.406.067.439.034.742.102 1.416.135 2.127.537-1.281.268-2.603.507-3.919.033.541.067 1.08.033 1.652 0 .882-.033 1.727-.067 2.603 0 .17-.034.338-.067.51-.104.472-.134.945-.305 1.382-.135.338-.065.848-.065 1.251v1.285c.135.577-.036.88.064 1.217-.1.34-.134.44-.1.541l.101.506c.677-.067.372.44.64.711-.2.272-.133.37-.133.507 0 .305-.032.577-.065.88 0 .777-.033 1.552-.033 2.297 0 .104.033.201.033.302 0 .07-.033.95-.033.95.067.1 0 .2-.104.3-.034 0-.134-4.29-.134-4.29h-.507c-.065 2.027.103 3.852-.268 5.744-.407.034-.538.1-.98.1-1.047 0-2.09 0-3.138.034-1.247 0-2.462.034-3.71.034-.608 0-1.248.066-1.856.066-.809 0-1.654-.1-2.46-.1-1.251 0-2.466.101-3.713.134-.91.034-1.822.034-2.732.07-.608.031-1.218.064-1.822.132-.272.033-.507.134-.845.238-.102 0-.336-.034-.537 0-.342.067-.641.269-.983.336-.503.103-.64.237-.574.744v.339c-.033.064.745-.104.745-.104-.07 0-.104.201-.205.372.272-.104.44-.17.608-.238.506.238.945.104 1.348.208 1.316.336 2.664.473 4.014.604.879.07 1.72.104 2.6.137 1.245.067 2.496.135 3.742.135 1.047 0 2.06-.104 3.103-.104 1.45 0 2.902.067 4.352.104.304 0 .64-.037.98-.037h2.46c2.196-.067 4.388-.1 6.581-.164 1.249-.038 2.53-.104 3.779-.138l3.848-.104c1.483-.033 2.966-.033 4.419-.064 1.114 0 2.191-.036 3.308-.07 1.245-.034 2.527-.134 3.779-.201.674-.034 1.348-.104 2.023-.169.81-.067 1.654-.167 2.462-.201 1.214-.07 2.463-.103 3.68-.17 1.517-.102 3.035-.236 4.588-.27 1.415-.066 2.865-.033 4.284-.066 1.248-.037 2.496-.104 3.781-.138l2.128-.1s1.415-.034 2.123-.105c1.215-.066 2.43-.2 3.644-.234.776-.033 1.55 0 2.326-.033 1.248-.034 2.53-.104 3.78-.104.47 0 .977.07 1.584.104-.268.234-.439.371-.64.54.134.033.269.103.403.167a.9.9 0 0 1-.538.168c-.07.171-.137.239-.204.577h.608c-.236 0-.44.305-.675.507-.269-.07-.507 0-.641.372.234.134.201.234.168.373-.403.13-.708.267-.538.707-.136.064-.304.135-.475.235-.165.268-.47.336-.404.708.135.034.27.104.373.135-.171.067-.339.168-.506.234-.608.373-.336.544-.202.71-.104.069-.204.136-.304.17.066.304.167.372.2.372a14 14 0 0 0-.506.406c-.101.305-.238.439-.373.64-.134.202-.201.473-.372.675-.705.778-1.211 1.693-2.124 2.301-.339.235-.64.54-.943.846-.607.573-1.148 1.214-1.789 1.757-.842.708-1.718 1.349-2.63 1.99-1.113.778-2.224 1.556-3.338 2.298-.607.406-1.282.708-1.923 1.08-.644.372-1.252.711-1.892 1.08-.403.269-.775.641-1.215.846-1.113.476-2.295.879-3.442 1.318-1.114.477-1.922.879-2.765 1.184q-1.177.396-2.395.641c-.27.067-.575 0-.88.034-.574.104-1.148.238-1.72.304-1.484.202-2.97.34-4.454.541-.879.104-1.72.269-2.596.373-.608.033-1.249-.034-1.856-.034-.439 0-.912.103-1.352.034-.708-.102-1.416-.27-2.124-.404-.168-.033-.406-.103-.54-.033-.268.134-.507-.067-.778 0-.164.033-.336-.104-.504-.104-.137-.03-.304.037-.476 0-.369-.1-.705-.234-1.113-.202-.404.034-.809-.168-1.246-.268l-1.789-.406a3 3 0 0 1-.673-.305c-.876 0-1.453-.034-1.99-.235-.474-.168-.913-.406-1.42-.339-.13.034-.234-.03-.368-.03-.104-.138-.202-.409-.303-.409-.674.036-1.08-.537-1.654-.708-.302-.103-.54-.44-.842-.54-.744-.305-1.349-.946-2.191-1.047-.272-.034-.54-.171-.845-.269.103.131.168.235.268.336-.976-.476-1.889-1.013-2.798-1.52-.135-.033-.235-.167-.336-.238l-.913-.607c-.503.103-.707-.101-.845-.168-.91-.64-1.953-1.05-2.832-1.758-.373-.304-.809-.507-1.077-.878-.477-.575-1.047-.98-1.688-1.32-.507-.267-.98-.573-1.45-.874-.237-.172-.476-.373-.476-.745 0-.239-.097-.473-.403-.339-.133-.201-.268-.44-.439-.507-.403-.164-.674-.472-.976-.742-.305-.271-.54-.643-.91-.777-.677-.27-1.083-.843-1.486-1.316-.946-1.117-1.789-2.334-2.668-3.512-.066-.104-.2-.172-.301-.272.134.372.301.675.47 1.013-.337-.134-.571-.372-.773-.607-.036.033 2.326 3.919 2.326 3.919.204.301.372.607.574.912a1.05 1.05 0 0 1-1.014-.54c-.302-.54-.64-.88-1.315-.809a6 6 0 0 1-.164-.745c-.138 0-.239 0-.477-.033q.678 1.052 1.319 2.127c-.172-.101-.269-.168-.342-.201.607.64 1.047 1.453 1.822 1.858.168.775 1.047 1.147 1.248 1.892-.165-.036-.305-.07-.473-.103-.268-.336-.574-.675-.875-1.047q.097.356.301.607c.406.507.778 1.013 1.249 1.453.17.173.406.24.406.546.268.134.372.164.473.164.067.205-.034.51.368.443.272.507.54.507.913.339.44.439.675.473.98.204 0 .165.03.336.03.47.137-.067.104-.168.104-.336.168.135.269.202.336.269.338.473.64.912 1.114 1.285.64.54 1.214 1.113 1.819 1.62 1.183.98 2.502 1.792 3.814 2.536 1.62.913 3.174 1.893 4.825 2.768 1.99 1.05 4.117 1.758 6.308 2.264.812.172 1.586.34 2.399.541.704.204 1.415.51 2.124.677 1.08.235 2.19.44 3.271.641.234.034.477.067.744.102.303.07.672-.068.74.035.17.27.304.132.506.098.234-.067.506-.067.775-.067.946.034 1.855.234 2.801.171.205 0 .507-.171.678.164.302-.133.47-.133.604-.164.037.303 0 .303-.064.336-.067.033-.172.066-.305.167 1.215.235 2.362.269 3.372 0 1.758.135 3.275-.067 4.727-.573.135.168.235.406.437.067.067-.1.238-.137.372-.171.302-.067.675-.202.943-.1.305.1.409-.169.64-.169q.58.002 1.151-.103c.202-.031.406-.134.64-.202a1.64 1.64 0 0 0-.743-.17 27 27 0 0 1 1.15-.537c-.07.1-.138.234-.271.234h.472c-.103 0-.238.302-.406.507 1.212-.305 2.326-.577 3.407-.848-.373-.708.403-.47.674-.876a10 10 0 0 1-1.014.268c1.148-.574 2.329-1.08 3.477-1.584-.168.202-.373.302-.675.474.202.03.34.03.44.064.537.17.406-.336.573-.64.64 0 .91-.103 1.211-.203.34-.103.675-.204 1.014-.339.54-.234 1.047-.537 1.587-.808.1-.034.269 0 .403 0 .372-.238.506-.44.607-.406.473.067.809-.104.943-.54.234-.168.406-.305.574-.406.742-.407 1.45-.812 2.191-1.215.272 0 .406 0 .473-.036q.642-.308 1.251-.675a3 3 0 0 1-.338-.168 4 4 0 0 0 .64-.171c.81-.949 1.922-1.59 2.765-2.332.372-.033.372-.133.372-.2.135-.172.269-.373.437-.51.745-.675 1.55-1.248 2.228-1.96a48 48 0 0 0 2.798-3.042c.81-.946 1.62-1.89 2.295-2.94.946-1.452 1.755-2.937 2.597-4.46.608-1.078 1.148-2.161 1.758-3.242.064-.1.201-.235.302-.235.91-.104 1.822-.168 2.7-.271.202-.034.438-.165.642-.268-.104-.168-.17-.373-.269-.541-.137-.204-.338-.372-.476-.577-.134-.168-.234-.372-.336-.573-.103-.168-.2-.303-.305-.474a12 12 0 0 1-.576-1.147c-.034-.103-.102-.268-.064-.372.607-1.316.842-2.734 1.415-4.053.575-1.352.743-2.871 1.014-4.324.234-1.386.37-2.772.537-4.154.103-.98.238-1.925.268-2.905.208-1.553.138-3.01.104-4.461-.034-1.283-.104-2.6-.168-3.886zM15.082 85.06c-.239-.27-.44-.574-.675-.846l.101-.1c.37.406.742.812 1.11 1.251-.201-.104-.435-.172-.536-.305m.536.305c.104-.033.205-.033.305-.067.105.168.172.369.27.573-.47-.036-.706-.238-.57-.506zm35.09 13.953v-.104c.64-.068 1.248-.135 1.889-.202v.102c-.641.1-1.248.164-1.89.2zm8.503-.88c-.47.105-.977.172-1.45.239-.168.034-.372.204-.44-.102-.066.035-.134.035-.2.068.167.507.573.101.908.302-.74.104-1.446.172-2.157.272v-.067c.204-.034.44-.068.641-.104v-.101a10 10 0 0 0-1.013-.067c-.098 0-.235.137-.336.17q-.215.063-.44.068c-.573.034-1.144.034-1.687.067-.033 0-.101-.034-.134-.034v-.103c2.258-.302 4.486-.604 6.748-.91.033.067.033.135.066.202-.2 0-.336.07-.506.104zm.506-.335c.779-.103 1.487-.168 2.228-.268-1.55.436-2.057.503-2.225.268zM30.332 29.889c1.078-1.487 2.191-2.972 3.272-4.492.336-.443.607-.916.943-1.355.104-.134.237-.201.406-.339l-.035-.064c.135-.168.27-.305.34-.44.17-.268.271-.573.406-.879a.5.5 0 0 1 .133-.13c.477.234.477-.269.641-.44q.454-.51.88-1.047c.2-.272.402-.506.573-.812.034-.103-.067-.268-.104-.406h-.1c.103-.067.204-.167.304-.234.035 0 .035 0 .068-.034.202-.305.406-.61.607-.879.403-.54.842-1.08 1.316-1.553q-.094.24-.205.473c.037 0 .037.034.067.034.407-.541.846-1.047 1.252-1.59-.037-.032-.07-.068-.104-.068-.168.17-.302.339-.473.51-.03-.037-.064-.07-.101-.07.339-.44.678-.876 1.013-1.383.067.101.134.235.269.507.137-.338.272-.574.372-.812-.101.104-.235.205-.336.305l-.103-.1.607-.913c.64-.912 1.282-1.86 1.922-2.77.239-.337.54-.608.745-.947.64-1.281 1.655-2.298 2.43-3.479.167-.234.402-.44.606-.64.165-.205.303-.138.44.033.91 1.147 1.82 2.328 2.728 3.479.678.845 1.352 1.654 1.993 2.533.776 1.083 1.52 2.164 2.295 3.244a144 144 0 0 1 2.597 3.78c1.282 1.896 2.497 3.788 3.778 5.677.946 1.386 1.892 2.738 2.802 4.123H62.85c-1.583-.034-3.204-.168-4.788-.1-2.16.103-4.352.338-6.512.509-2.732.235-5.5.268-8.23.268-.98 0-1.96.138-2.937.205-1.18.067-2.328.134-3.51.168-1.384.067-2.73.1-4.113.137-.778.031-1.587 0-2.432 0zm38.696 15.54v.305c-.034 0-.067.033-.134.033-.134-.472-.268-.98-.44-1.453-.335-.982-.707-1.962-1.314-2.837-.678-.946-1.282-1.926-1.96-2.906-.168-.238-.406-.439-.608-.64-.71-.779-1.418-1.59-2.328-2.164a28 28 0 0 0-4.218-2.165 9.4 9.4 0 0 1-1.18-.607h.809l5.767-.103c1.248-.031 2.466-.031 3.711-.097.305 0 .473.1.641.368.305.507.607 1.014.945 1.524.035.063.102.164.102.268 0 .744 0 1.52.034 2.265.033.775.103 1.52.134 2.297 0 .775-.067 1.587-.034 2.396.034 1.15.067 2.335.067 3.513zM32.725 34.115c1.587-.068 3.103-.168 4.656-.239 1.212-.067 2.463-.1 3.675-.168.506-.033.98-.064 1.486 0-.54.272-1.08.544-1.553.88-.608.406-1.178.946-1.79 1.385-.606.44-1.146.98-1.652 1.553-.641.775-1.35 1.454-2.027 2.195-.473.543-1.01 1.047-1.416 1.623-.574.743-1.078 1.55-1.617 2.396.167-3.211.372-6.385.234-9.628zm22.033 32.501c-1.08.268-2.195.574-3.309.708-.943.138-1.922.104-2.902.104q-1.301 0-2.6-.104c-.976-.102-1.956-.201-2.902-.64-.809-.373-1.651-.71-2.46-1.115-.812-.406-1.623-.878-2.23-1.623-.437-.54-1.044-.98-1.585-1.453.102.406.336.744.709.98-.168.201-.407.103-.745-.44-.098.068-.201.104-.269.134.104-.234.202-.473.305-.674-.134-.269-.305-.574-.439-.846q-.406-.665-.775-1.351c-.067-.102-.067-.202-.134-.302a7 7 0 0 1-.477-.61c-.268-.404-.503-.843-.842-1.249 0 .104.037.205.037.34-.037 0-.07.033-.07.033l-.709-1.724c-.033 0-.033 0-.067.033l.605 2.23c-.031 0-.064.034-.102.034-.096-.134-.2-.269-.267-.437-.068-.27-.272-.27-.437-.17-.103.067-.17.305-.137.406.237.574.506 1.147.778 1.72.067.205.134.373.234.578.037.067.138.134.138.234.134.27.235.538.403.779.305.403.64.809.946 1.214.303.407.57.846.842 1.249.034.07.135.07.165.104.171.506.745.875 1.151.674.1.778.943 1.047 1.281 1.791a17 17 0 0 1-.98-.44c-.033.034-.033.068-.067.135.404.201.809.406 1.179.64.339.205.677.407.98.641.405.373.878.578 1.449.712a.35.35 0 0 0-.065-.138c.944.44 1.923.913 2.664 1.282-3.509.07-7.253.138-11.132.205 0-.64-.033-1.251-.033-1.892 0-.269.064-.507.03-.778-.104-1.551-.104-3.107-.302-4.627-.202-1.62-.202-3.21-.168-4.834.031-.875-.034-1.788-.07-2.667 0-1.182 0-2.332.036-3.513 0-.168.068-.302.138-.473h.1c.034.068 0 .17.065.204.104.104.272.27.339.236.2-.135.506-.27.573-.473.16-.397.241-.82.238-1.249 0-.304.134-.506.268-.71.068-.102.102-.202.172-.337-.135-.103-.272-.17-.44-.304.137-.373.104-.813.61-1.013.065-.034.065-.205.102-.306.033-.272.064-.576.1-.845.067.104.103.134.167.201a.5.5 0 0 1 .068-.104c0-.13-.034-.403 0-.403.406-.067.235-.506.44-.708.03-.036-.034-.137-.034-.204s0-.167.03-.167c.473-.104.407-.611.708-.846.104-.07.135-.168.272-.339.269.473-.205.711-.238 1.047.574-.336.742-1.147.406-1.386.134-.1.268-.234.369-.369.372-.406.776-.778 1.114-1.184.238-.302.373-.674.608-.977.136-.17.406-.304.607-.408.607-.336 1.18-.706 1.553-1.282.067-.067.168-.135.269-.202.1-.067.304-.067.339-.168.032-.067-.068-.237-.135-.338.132-.067.268-.202.537-.339-.1.205-.134.34-.202.477l.165.164c.305-.235.778-.504 1.084-.708 0-.03-.171-.164-.171-.164-.202.1-.503.268-.809.402.064-.1.064-.168.104-.201.47-.305.943-.607 1.45-.846a164 164 0 0 1 3.54-1.587c.204-.101.476-.033.71-.033.102 0 .165 0 .269-.034.537-.168 1.08-.339 1.62-.473q.365-.1.742-.1c1.01.033 2.024.033 3.034.1.425.038.844.128 1.248.269.507.17 1.046.406 1.52.64q.855.463 1.654 1.017c.976.64 1.889 1.351 2.865 1.925.946.574 1.688 1.352 2.295 2.232.745 1.047 1.587 1.992 1.923 3.274l.507 2.23c.1.407.338.813.234 1.282-.167.849-.305 1.725-.44 2.57-.063.339-.133.68-.097 1.013.064 1.05-.341 1.963-.744 2.909-.138.301-.34.607-.507.945a1 1 0 0 0 .268.134l.305-.607c.035 0 .035 0 .068.037-.168.47-.305.98-.473 1.453-.403 1.047-.809 2.127-1.315 3.14-.269.574-.745 1.047-1.08 1.59-.337.47-.605.977-.944 1.416-.302.372-.607.745-1.013 1.013-.91.678-1.855 1.352-2.832 1.892-.607.373-1.316.577-1.99.745zm-17.985-1.794-.033.033c-.07-.033-.17-.067-.238-.134l-.812-1.218a.4.4 0 0 1-.064-.336q.543.848 1.147 1.655m20.988 4.626c1.516-.64 2.765-1.55 3.91-2.6.17-.168.337-.336.542-.473 1.416-.879 2.46-2.094 3.406-3.445 1.08-1.554 1.788-3.312 2.667-4.966.067-.137.134-.268.201-.372-.067 3.852.373 7.635.876 11.453-3.812.135-7.69.269-11.602.406zm34.21-1.013c-.034.07-.104.137-.138.204-.033-.067-.033-.167-.067-.305-.201.54-.64.271-.943.271-1.822.034-3.677.034-5.502.034-1.752 0-3.54 0-5.295.031-.574 0-1.18.134-1.754.17-1.383.065-2.766.102-4.151.135-.1 0-.202-.168-.37-.302q-.09.159-.204.302c-.036-.067-.101-.135-.171-.234q-.04.137-.1.267h-.098c-.07-.47-.205-.909-.205-1.382 0-1.013.104-2.026.135-3.042.036-.47 0-.91 0-1.352.137.103.238.17.372.271.067-.134.135-.234.204-.336 0 0-.07-.033-.137-.1.065-.033.134-.104.134-.137.034-.102.102-.202.102-.27 0-.238-.068-.438-.102-.64.034 0 .067 0 .102-.037l.2 1.014h.104c-.137-.235.303-.437-.067-.709-.033-.033.034-.234.034-.338-.104-.202-.168-.403-.272-.674.033-.034.137-.068.238-.102-.134-.066-.238-.133-.338-.167.338-.305.338-.474.033-.813.07-.03.137-.03.137-.063 0-.305 0-.608-.067-.91-.067-.341.102-.744-.406-.949a1 1 0 0 0 .135.27s-.102.035-.202.102c-.44-.406-.168-.948-.269-1.556.235.07.404.138.57.208-.066-.241-.234-.51-.335-.815h-.137V54.25c0 .037.235.037.373.07 0-.033.03-.067.03-.103-.101-.134-.235-.268-.372-.436l.07-.07c-.269-.337-.134-.806-.134-.91v-2.365c.339.338-.168.778.339.98v-.336h-.037c-.034-.507-.034-1.014-.067-1.524h-.064c-.037.07-.037.104-.07.172h-.068l.202-8.076c.338.44.708.849.945 1.282.776 1.422 1.79 2.64 2.732 3.922.812 1.117 1.553 2.332 2.295 3.48.91 1.384 1.789 2.77 2.7 4.152.672 1.05 1.383 2.097 2.088 3.113.64.91 1.319 1.789 1.993 2.668.57.778 1.181 1.553 1.751 2.331.679.945 1.352 1.892 2.027 2.805.336.47.708.943 1.077 1.415.205.272.507.477.711.641-.033 0-.067 0-.134-.033.104.137.168.238.235.305.373.201.406.406.205.71zm1.718-8.445v-.234c0 .067.033.164 0 .235m1.148-14.895c-.034 0-.236-.204-.27-.238-.033.1 0 .202-.066.339-.034-.102-.27-.067-.27-.168-.036.473.202.945.166 1.419.104-.07.507-.104.607-.205a.3.3 0 0 0 .137.067c-.674.51-.506 1.014-.201 1.59.064.135.268.403.064.675-.064.067.036.269.07.44h.098v.063l-.305.104c-.064-.104-.47-.302-.47-.476v1.728c.339.1.339.573.473.811.07-.103.1-.17.137-.271l.033.033a4 4 0 0 1-.134.607c-.066.303-.134.574-.167.876 0 .033.064.104.064.137-.37.846-.168 1.79-.302 2.664-.101.641 0 1.322-.068 1.997-.07.573-.204 1.18-.339 1.757-.033.101-.1.135-.268.202.068-.406.034-.674-.033-1.047-.037 0-.477-.238-.51-.238 0 .476.268 1.117.372 1.654-.104-.033-.507-.268-.54-.268-.07.406-.07.945-.1 1.385-.037.339-.34.64-.373 1.013 0 .205.234.34.202.677h.268c0-.674.305-1.284.305-1.992h.102c.032.067.136.134.103.168-.07.372-.208.778-.171 1.15 0 .202.168.403.104.64-.07.206-.104.407-.138.71-.034-.168-.067-.236-.067-.336-.034 0-.338-.034-.372-.034-.034.202.237.403.202.573-.034.034-.068.034-.135.068l-1.114-1.624a318 318 0 0 1-2.63-3.884 8 8 0 0 1-.611-1.014 47 47 0 0 0-3.473-5.17c-.98-1.247-1.758-2.603-2.667-3.915-.842-1.251-1.685-2.468-2.53-3.72-.302-.403-.675-.775-.943-1.215-.876-1.385-1.654-2.805-2.53-4.187-.742-1.15-1.55-2.267-2.328-3.38-.27-.373-.538-.779-.81-1.182a.5.5 0 0 1-.066-.234c-.067-.746-.138-1.487-.171-2.198 0-.674.07-1.35.07-2.06v-.607c0-.171.031-.305.031-.477.033-.03.067-.097.1-.131-.98 0-1.99-.036-2.969 0-.64.031-.976-.238-1.416-.714-1.281-1.45-2.228-3.106-3.342-4.66a202 202 0 0 0-3.204-4.395c-.879-1.18-1.755-2.328-2.63-3.512-.98-1.352-1.923-2.701-2.936-4.053-1.218-1.62-2.466-3.243-3.711-4.864-.58-.745-1.221-1.453-1.862-2.23.439.07.848.137 1.252.17l1.62.1c1.214.1 2.43.168 3.64.337 1.014.137 2.027.338 3.073.506 2.228.372 4.42.98 6.547 1.69 1.248.407 2.46.946 3.677 1.454 2.732 1.113 5.332 2.465 7.895 3.884.808.44 1.281 1.148 1.886 1.792.879.912 1.758 1.821 2.6 2.768.976 1.113 1.886 2.264 2.832 3.411.842 1.014 1.718 2.027 2.566 3.043.269.302.474.674.706 1.013.54.812 1.147 1.59 1.62 2.466.336.644.537 1.385.775 2.096.336 1.047.674 2.06 1.013 3.107.235.779.434 1.59.604 2.399.135.54.104 1.114.269 1.654.205.71 0 1.486.205 2.197.033.068.064.17.1.238.135.134.235.269.034.47-.031.034-.031.168 0 .272.07-.067.103-.134.17-.238 0 .07.031.104.031.134 0 .135-.033.271 0 .406 0 .067.067.164.1.235.068-.07.135-.104.27-.205.304 1.15.338 2.298.338 3.479 0 1.117.202 2.231-.268 3.315.1-.373-.135-.714-.034-1.05zM18.621 41.75c.137.103.372.167.137.371-.17.235-.372.44-.507.708-.134.238-.237.305-.439.138q.378-.626.809-1.218m67.812 35.406c0 .1.035.168.035.269.07-.135.07-.202.103-.27zm-6.881 13.48-5.872-32.57c-.1-.03-.234-.097-.47-.167.068.137.101.238.135.339.168-.034.234-.034.302-.067 0-.034 0-.068.036-.104l5.872 32.572zM73.48 50.736c-.033.1-.033.2-.033.302 0-.101 0-.205.036-.305zm.034.674c-.034 0-.034 0-.067-.036v.033c.036.034.036.034.07 0zm-.067.268v-.237c-.098.033-.199.033-.336.07.17.064.339.098.339.164z"/></g><defs><clipPath id="a"><path fill="#fff" d="M0 0h100v100H0z"/></clipPath></defs></g></svg>