<svg xmlns="http://www.w3.org/2000/svg" fill="none" viewBox="0 0 512 512"><g transform="translate(30.72 30.72) scale(4.506)"><path fill="#dd0031" d="M50 0 3.266 16.6l7.129 61.55L50 100l39.606-21.85 7.128-61.55z"/><path fill="#fff" d="m34.807 17.548-6.974 6.972 10.46.996 3.487-7.968zm8.469 0-3.97 9.422-17.948-1.453 2.989 12.448 21.419 7.968h2.989V17.548zm7.472 0v28.385h3.486l21.419-7.969 2.99-12.448-18.447 1.456-3.969-9.424zm6.973 0 3.487 7.97 10.46-.998-6.974-6.972zM24.844 39.957v16.93l11.955 9.96V51.408l3.486-4.979-4.483.996-5.48-5.478zm49.812 0-5.48 1.992-5.48 5.477-4.482-.996 3.488 4.98v15.437l11.953-9.96zm-32.439 6.4-3.973 5.987v22.454l2.98 4.49 3.477 3.492h9.934l3.477-3.492 2.98-4.49V52.344l-3.973-5.987-2.485 1.497h-9.931l-2.484-1.497zM30.323 63.36v6.474l6.477 6.473v-7.469zm38.854 0-6.474 5.478v7.468l6.474-6.472z"/></g></svg>