<svg xmlns="http://www.w3.org/2000/svg" fill="none" viewBox="0 0 512 512"><g transform="translate(30.72 30.72) scale(4.506)"><g clip-path="url(#a)"><path fill="#000" d="M57.245 50a7.244 7.244 0 1 1-14.489 0 7.244 7.244 0 0 1 14.489 0m24.914-18.572a36.7 36.7 0 0 0-5.694-7.444l-8.38 4.834a28 28 0 0 0-8.74-5.07 34.4 34.4 0 0 0-6.766 9.66c9.326-.635 18.954 2.743 27.89 9.725l5.273-3.045a37 37 0 0 0-3.583-8.66M50 87.128a37.2 37.2 0 0 0 9.287-1.208v-9.668a27.9 27.9 0 0 0 8.761-5.042 34.5 34.5 0 0 0-4.98-10.693c-4.114 8.389-11.848 15.039-22.363 19.286v6.086A36 36 0 0 0 50 87.128M17.84 31.436a37 37 0 0 0-3.592 8.653l8.378 4.833a28 28 0 0 0-.018 10.108 34.4 34.4 0 0 0 11.749 1.034c-5.216-7.754-7.102-17.782-5.53-29.013l-5.274-3.045a36.7 36.7 0 0 0-5.712 7.43"/><path fill="#00b4ff" d="M50 .098C22.44.098.098 22.44.098 50S22.44 99.902 50 99.902 99.902 77.56 99.902 50 77.56.098 50 .098m0 6.387c23.992 0 43.516 19.522 43.516 43.515S73.992 93.516 50 93.516 6.484 73.992 6.484 50 26.008 6.485 50 6.485m0 6.375a37.3 37.3 0 0 0-9.287 1.211v9.669a27.8 27.8 0 0 0-8.761 5.038 34.5 34.5 0 0 0 4.98 10.693c4.114-8.386 11.847-15.039 22.363-19.287v-6.082A37 37 0 0 0 50 12.859zm19.602 30.968a35 35 0 0 0-3.946.107c5.211 7.755 7.098 17.783 5.526 29.013l5.273 3.046a37.5 37.5 0 0 0 5.704-7.43 37 37 0 0 0 3.593-8.653l-8.37-4.833c.626-3.378.626-6.797.019-10.108a34.4 34.4 0 0 0-7.8-1.14zm-50.07 13.027-5.274 3.049a37.7 37.7 0 0 0 3.583 8.66 36.7 36.7 0 0 0 5.694 7.444l8.38-4.834a28 28 0 0 0 8.74 5.066 34.4 34.4 0 0 0 6.766-9.656c-9.326.635-18.954-2.747-27.89-9.73"/></g><defs><clipPath id="a"><path fill="#fff" d="M0 0h100v100H0z"/></clipPath></defs></g></svg>