<svg xmlns="http://www.w3.org/2000/svg" fill="none" viewBox="0 0 512 512"><g transform="translate(30.28 30.72) scale(4.506)"><g clip-path="url(#a)"><path fill="#18b6f6" d="M85.786 100 67.83 82.144l-.275.039v-.196L29.37 44.283l9.409-9.084L33.25 3.484 7.023 35.982C2.553 40.485 1.73 47.807 4.945 53.21l16.388 27.173c2.509 4.19 7.057 6.695 11.957 6.656l8.116-.078z"/><path fill="#ac7ef4" d="M95.585 35.355 91.98 28.7l-1.882-3.406-.745-1.331-.079.078-9.88-17.11A13.83 13.83 0 0 0 67.28 0l-8.664.234L32.78.313c-4.9.039-9.37 2.623-11.84 6.812L5.218 38.292l28.11-34.886L70.18 43.89l-6.548 6.617 3.92 31.676.04-.079v.079h-.078l.078.078 3.058 2.976 14.86 14.527c.627.587 1.646-.117 1.215-.861l-9.174-18.05L93.547 51.29l.51-.587c.195-.235.391-.47.548-.705 3.137-4.268 3.568-9.984.98-14.644"/><path fill="#fff" d="m70.298 43.735-36.97-40.29 5.253 31.558-9.41 9.123 38.304 38.019-3.45-31.558z"/></g><defs><clipPath id="a"><path fill="#fff" d="M0 0h100v100H0z"/></clipPath></defs></g></svg>