<svg xmlns="http://www.w3.org/2000/svg" fill="none" viewBox="0 0 512 512"><g transform="translate(30.72 30.72) scale(4.506)"><g clip-path="url(#a)"><path fill="#7b61c1" d="M49.209.008C40.596.116 32.128 3 25.043 7.85 10.86 14.591 1.22 29.676.902 45.36c.19 4.878-.334 9.778.47 14.63 2.082 13.9 11.374 26.482 24.133 32.42 12.945 9.128 31.002 10.102 44.883 2.496 3.282-2.058 6.76-3.76 9.995-5.895C92.91 80.51 100.31 65.08 98.935 49.986c1.43-15.795-6.786-31.959-20.372-40.139-2.71-1.536-5.417-3.047-8.071-4.68-6.503-3.496-13.9-5.3-21.283-5.16m.08 3.01c2.51-.038 5.02.152 7.496.568-3.207-.17-6.36.961-9.53.212-1.234-.183-3.111-.158-3.95-.238a43 43 0 0 1 5.984-.542M41.46 6.663c-4.428 1.89-8.5 4.623-11.854 8.082-4.652 1.14-9.16 3.41-12.897 6.193 2.859-4.348 6.5-8.35 10.983-11.03 4.349-1.885 9.027-3.06 13.768-3.245m17.046 0c5.18.284 10.47 1.442 15.018 3.977a38.1 38.1 0 0 1 9.753 10.33c-3.857-2.98-8.4-4.999-13.03-6.339-3.333-3.41-7.36-6.096-11.74-7.968m-8.523.585c5.39.953 10.536 3.251 14.867 6.593-5.052-.42-10.245.366-14.871 2.464-4.624-2.103-9.813-2.88-14.862-2.463 4.328-3.342 9.48-5.641 14.867-6.594zM37.197 16.73c3.136-.01 6.3.387 9.268 1.429-3.68 2.135-6.258 5.56-9.248 8.474-2.352 1.545-5.371 1.371-8.112 2.382a28.5 28.5 0 0 0-4.952 2.027c1.05-5.07 3.54-10.027 7.226-13.613 1.906-.447 3.867-.625 5.818-.699m24.859 0c2.294.117 4.87.024 6.923.98 3.38 3.699 5.918 8.476 6.802 13.312-3.435-1.889-7.306-2.66-11.093-3.463-1.681-.353-3.254-2.078-4.432-3.522-1.966-2.244-4.272-4.3-6.732-5.884 2.729-.961 5.647-1.365 8.531-1.422zm-35.978 2.331c-2.947 4.168-4.707 9.163-5.378 14.156-4.089 2.949-7.32 7.035-9.481 11.582-.705-5.462-.18-11.165 1.819-16.296 3.528-4.11 8.02-7.399 13.04-9.442m47.811 0c5.07 2.092 9.715 5.408 13.17 9.664a34.4 34.4 0 0 1 1.69 16.075c-2.13-4.654-5.612-8.682-9.574-11.77-.539-5.002-2.431-9.837-5.286-13.969m-23.92.563c4.25 1.976 7.298 5.676 10.428 8.981 2.213 1.988 4.516 2.01 7.374 2.73 3.02.637 5.954 1.801 8.537 3.501.394 4.732-1.32 9.18-2.608 13.62-.725 4.12 2.047 7.801 2.353 11.858.113 1.614.618 3.553.053 5.005-3.856 2.66-8.521 3.35-12.953 4.474-3.884 1.428-5.691 5.607-9.005 7.92-1.359.937-2.827 2.32-4.393 2.561-4.177-1.986-7.104-5.639-10.217-8.887-3.055-2.672-7.526-2.159-11.092-3.795-1.648-.664-3.476-1.377-4.787-2.51-.395-4.755 1.406-9.209 2.641-13.68.574-4.058-2.03-7.669-2.4-11.658a26.7 26.7 0 0 1-.24-4.916c3.78-2.637 8.525-3.52 12.792-4.456 1.807-.469 3.908-2.273 5.263-4.045 2.333-2.702 5.056-5.075 8.255-6.703m-36.776 1.29c-1.792 2.78-2.448 6.154-4.761 8.59-.629.712-1.93 3.102-1.968 2.978a40 40 0 0 1 6.73-11.568m73.58 0c2.93 3.493 5.269 7.593 6.822 11.814-1.447-2.902-4.026-5.078-4.977-8.221-.558-1.227-1.152-2.437-1.844-3.593M8.178 35.713c-.599 4.802-.198 9.723 1.062 14.374-1.333 4.597-1.617 9.466-1.067 14.207-2.33-4.627-3.983-9.782-4.055-14.984.516-4.721 1.853-9.386 4.06-13.597m83.616 0c2.33 4.578 3.888 9.666 4.088 14.813-.516 4.783-1.844 9.503-4.084 13.768.547-4.76.269-9.648-1.083-14.26 1.322-4.637 1.651-9.537 1.078-14.321M20.65 37.091c-.054 4.156 1.721 8.461 2.676 12.13.252 3.105-1.694 5.888-2.079 8.94a28.5 28.5 0 0 0-.605 4.768c-3.867-3.43-6.683-7.972-8.239-12.89 1.515-4.953 4.378-9.503 8.247-12.948m58.668 0c3.848 3.484 6.93 8.096 8.196 13.115-1.57 4.855-4.366 9.34-8.196 12.73 0-4.224-1.617-8.147-2.675-12.138-.31-2.623 1.385-5.248 1.874-8 .458-1.864.76-3.783.801-5.707M11.223 55.237c2.172 4.587 5.46 8.673 9.57 11.659.436 5.035 2.553 10.028 5.243 14.067-5.099-2.164-9.876-5.469-13.233-9.88-1.697-5.082-2.318-10.527-1.58-15.846m77.523 0c.688 5.488.223 11.3-1.91 16.401-3.524 4.064-7.975 7.304-12.955 9.344 2.867-4.18 4.81-9.036 5.297-14.097 4.121-2.974 7.393-7.068 9.568-11.649M6.37 67.303c1.387 2.836 3.958 4.926 4.88 7.981.54 1.297 1.219 2.526 1.888 3.758-2.917-3.481-5.182-7.488-6.768-11.74m87.229 0c-1.586 4.252-3.85 8.258-6.768 11.739 1.423-2.154 2.013-4.78 3.464-6.866 1.198-1.556 2.357-3.149 3.304-4.873m-69.456 1.66c3.653 2.127 7.867 2.656 11.861 3.755 2.788 1.308 4.388 4.613 6.944 6.505a24 24 0 0 0 3.536 2.646c-4.913 1.637-10.356 1.883-15.35.62-3.462-3.775-5.993-8.492-6.992-13.527m51.684 0c-1.01 5.077-3.56 9.806-7.063 13.604-5.012 1.11-10.462.971-15.257-.713 3.639-2.085 6.192-5.462 9.111-8.363 2.393-1.692 5.917-1.497 8.717-2.64a26.3 26.3 0 0 0 4.492-1.889M16.652 79.01c3.832 2.957 8.303 5.088 12.992 6.284 3.322 3.488 7.43 6.172 11.839 8.082-5.256-.354-10.667-1.442-15.24-4.125-3.772-2.813-7.067-6.264-9.591-10.241m66.664 0c-2.882 4.375-6.54 8.435-11.07 11.112a39.1 39.1 0 0 1-13.762 3.254c4.43-1.904 8.525-4.636 11.879-8.091 4.67-1.2 9.135-3.325 12.953-6.275m-33.342 4.732c4.636 2.048 9.8 2.852 14.85 2.456-4.4 3.336-9.658 5.843-15.14 6.534-5.265-1.005-10.31-3.254-14.539-6.534 5.047.389 10.194-.393 14.83-2.456m.01 12.118c2.206.386 4.445.534 6.682.577a39.2 39.2 0 0 1-13.365 0c2.239-.04 4.473-.194 6.683-.577"/></g><defs><clipPath id="a"><path fill="#fff" d="M0 0h100v100H0z"/></clipPath></defs></g></svg>