<svg xmlns="http://www.w3.org/2000/svg" fill="none" viewBox="0 0 512 512"><g transform="translate(28.946 28.946) scale(4.541)"><path fill="#41e0ff" d="M32.137 2.98c-2.07 0-3.92.464-5.498 1.377-1.518.878-2.793 2.188-3.791 3.89-.935 1.597-1.624 3.539-2.05 5.773-.817 4.307-.64 9.699.514 15.59.145.74.305 1.492.478 2.238q-1.341.405-2.664.863c-5.561 1.939-10.211 4.473-13.448 7.327C4 41.516 2.702 43.08 1.813 44.683.87 46.388.392 48.137.392 49.88c0 3.497 1.936 7.04 5.601 10.255 3.45 3.027 8.33 5.671 14.107 7.647q.807.273 1.632.529a69 69 0 0 0-.53 2.517c-1.098 5.786-1.226 11.08-.373 15.31.444 2.19 1.148 4.098 2.094 5.668 1.005 1.669 2.281 2.958 3.792 3.829 1.592.918 3.466 1.383 5.57 1.383 2.863 0 6.065-.849 9.515-2.523 3.384-1.642 6.838-3.994 10.265-6.989q.822-.72 1.616-1.47h.812v-.002h24.598q5.382 0 9.283-1.57c2.607-1.046 4.729-2.457 6.398-4.228 1.67-1.771 2.887-3.886 3.667-6.342.782-2.435 1.17-5.072 1.17-7.89.002-4.914-.888-8.98-2.652-12.24q-2.622-4.825-7.718-6.259a.13.13 0 0 1-.083-.133.14.14 0 0 1 .063-.125c2.53-1.407 4.473-3.409 5.836-5.964q2.058-3.864 2.058-9.301c0-5.98-1.513-10.428-4.525-13.387s-7.023-4.43-12.016-4.43H53.65q-.63-.59-1.273-1.164c-3.56-3.158-7.108-5.636-10.551-7.357-3.53-1.768-6.79-2.665-9.69-2.665m.03 7.025c1.793 0 4.114.704 6.709 2.037 2.813 1.446 5.864 3.595 8.823 6.222q.274.244.562.508c-2.601 2.877-5.166 6.074-7.631 9.516-4.2.41-8.238 1.024-12.018 1.824a63 63 0 0 1-.383-1.796l-.01-.06c-.902-4.606-1.121-8.813-.636-12.162.42-2.88 1.36-4.937 2.582-5.645.508-.294 1.181-.444 2.002-.444M53.5 23.298v53.387l-3.165-3.907-2.068-2.554c-1.044-1.289-2.716-3.673-4.71-6.714a120 120 0 0 1-3.287-5.297l-.06-.103c-.955-1.648-1.664-2.975-2.234-4.04a162 162 0 0 1-2.094-4.056l.124-.242.008-.013a127 127 0 0 1 2.338-4.54l.008-.012.857-1.664 1.266-2.098.009-.014c.472-.804.963-1.617 1.457-2.414l.872-1.439c1.16-1.92 2.093-3.32 3.564-5.351.793-1.092 1.544-2.051 2.735-3.54l.003-.002.058-.075.024-.03c.483-.616.971-1.223 1.45-1.805l.015-.02.01-.011a343 343 0 0 1 2.82-3.446m9.883 1.05h15.828c2.655 0 4.686.746 6.091 2.217 1.406 1.47 2.108 4.028 2.108 7.655 0 3.225-.78 5.684-2.343 7.417s-3.514 2.58-5.857 2.58H63.38c-.057 0-.105-.062-.105-.137V24.484c0-.076.048-.137.107-.137m-27.86 11.666a131 131 0 0 0-3.278 5.684 95 95 0 0 1-1.725-4.794q2.49-.51 5.004-.89M23.68 38.63c1.19 3.69 2.68 7.507 4.43 11.36-1.776 3.917-3.286 7.794-4.493 11.539q-.624-.196-1.243-.406c-4.803-1.641-8.802-3.76-11.567-6.128-2.115-1.811-3.378-3.722-3.378-5.111 0-1.427 1.263-3.264 3.466-5.046 2.565-2.073 6.214-3.968 10.547-5.478.735-.255 1.485-.5 2.238-.73m39.703 14.647h17.15c2.968 0 5.248.927 6.903 2.86 1.656 1.933 2.469 4.654 2.469 8.22 0 3.627-.828 6.448-2.467 8.422-1.625 1.994-3.936 2.984-6.904 2.984H63.383c-.059 0-.106-.061-.106-.137V53.414c0-.075.047-.136.106-.136zM32.25 58.273a130 130 0 0 0 3.381 5.834 91 91 0 0 1-5.171-.863 96 96 0 0 1 1.79-4.97m-3.695 11.76c3.73.763 7.814 1.339 12.158 1.712 2.489 3.466 5.075 6.685 7.695 9.578q-.485.448-.974.876c-3.794 3.317-7.604 5.714-11.016 6.935l-.07.025c-1.53.54-2.896.813-4.058.813-.856 0-1.548-.149-2.056-.44-1.236-.714-2.198-2.727-2.64-5.524-.515-3.26-.334-7.365.522-11.873q.2-1.052.44-2.101z"/></g></svg>