<svg xmlns="http://www.w3.org/2000/svg" fill="none" viewBox="0 0 512 512"><g transform="translate(28.96 30.72) scale(4.506)"><g clip-path="url(#a)"><path fill="#000" fill-rule="evenodd" d="M90.137 77.118c.9 11.554.9 16.97.9 22.882H64.285c0-1.288.023-2.466.046-3.66.072-3.714.148-7.587-.454-15.406-.796-11.449-5.73-13.993-14.801-13.993H7v-20.83h43.349c11.459 0 17.188-3.483 17.188-12.705 0-8.11-5.73-13.024-17.188-13.024H7V0h48.124c25.941 0 38.833 12.243 38.833 31.8 0 14.63-9.072 24.17-21.327 25.76 10.345 2.067 16.393 7.95 17.507 19.558" clip-rule="evenodd"/></g><defs><clipPath id="a"><path fill="#fff" d="M0 0h100v100H0z"/></clipPath></defs></g></svg>