<svg xmlns="http://www.w3.org/2000/svg" fill="none" viewBox="0 0 512 512"><g transform="translate(30.72 30.72) scale(4.506)"><g clip-path="url(#a)"><path fill="#34bdb2" d="M0 0h100v100H0z"/><path fill="#fff" d="M65.805 34c-5.28-3.063-9.966-5.472-16.098-5.366-3.507.061-6.52 1.968-7.152 5.458-.59 3.246 2.296 5.047 5.299 6.152 4.979 1.834 9.314 3.77 14.206 5.808 8.894 3.707 13.455 9.71 12.916 17.412-.686 9.8-6.584 16.828-15.957 19.145-12.247 3.028-24.14-1.584-34.19-8.023 2.537-3.864 5.48-6.501 8-10.342 5.806 2.471 10.367 5.81 16.44 6.331 4.283.367 9.135.163 10.097-4.867.867-4.536-3.08-6.968-6.93-8.326-4.585-1.617-9.16-3.594-13.655-5.43-8.31-3.395-11.691-10.033-11.122-17.854 0-4.585 3.804-13.854 13.133-16.737 14.333-4.43 22.23.107 32.623 6.786-2.76 3.65-4.883 6.247-7.61 9.854"/></g><defs><clipPath id="a"><path fill="#fff" d="M0 0h100v100H0z"/></clipPath></defs></g></svg>