<svg xmlns="http://www.w3.org/2000/svg" fill="none" viewBox="0 0 512 512"><g transform="translate(30.72 32.92) scale(4.506)"><path fill="#76b3e1" d="M100 22.715S66.667-1.813 40.88 3.847l-1.886.629c-3.774 1.258-6.919 3.145-8.805 5.66l-1.258 1.887-9.434 16.352 16.352 3.145c6.918 4.403 15.723 6.29 23.9 4.403l28.93 5.66z"/><path fill="url(#a)" d="M100 22.715S66.667-1.813 40.88 3.847l-1.886.629c-3.774 1.258-6.919 3.145-8.805 5.66l-1.258 1.887-9.434 16.352 16.352 3.145c6.918 4.403 15.723 6.29 23.9 4.403l28.93 5.66z" opacity=".3"/><path fill="#518ac8" d="m30.189 22.715-2.516.63c-10.692 3.144-13.837 13.207-8.176 22.012 6.29 8.176 19.497 12.578 30.188 9.434L88.68 41.583S55.346 17.055 30.19 22.715"/><path fill="url(#b)" d="m30.189 22.715-2.516.63c-10.692 3.144-13.837 13.207-8.176 22.012 6.29 8.176 19.497 12.578 30.188 9.434L88.68 41.583S55.346 17.055 30.19 22.715" opacity=".3"/><path fill="url(#c)" d="M81.761 51.017a28.3 28.3 0 0 0-30.189-9.434L12.58 54.16 0 76.174l70.44 11.95 12.58-22.642c2.516-4.402 1.887-9.434-1.258-14.465"/><path fill="url(#d)" d="M69.182 73.03a28.3 28.3 0 0 0-30.188-9.434L0 76.174s33.333 25.157 59.12 18.868l1.886-.629c10.692-3.145 14.466-13.207 8.176-21.384"/><defs><linearGradient id="a" x1="14.78" x2="93.082" y1="2.589" y2="40.639" gradientUnits="userSpaceOnUse"><stop offset=".1" stop-color="#76b3e1"/><stop offset=".3" stop-color="#dcf2fd"/><stop offset="1" stop-color="#76b3e1"/></linearGradient><linearGradient id="b" x1="57.736" x2="44.025" y1="21.206" y2="66.866" gradientUnits="userSpaceOnUse"><stop stop-color="#76b3e1"/><stop offset=".5" stop-color="#4377bb"/><stop offset="1" stop-color="#1f3b77"/></linearGradient><linearGradient id="c" x1="9.057" x2="88.239" y1="41.08" y2="94.916" gradientUnits="userSpaceOnUse"><stop stop-color="#315aa9"/><stop offset=".5" stop-color="#518ac8"/><stop offset="1" stop-color="#315aa9"/></linearGradient><linearGradient id="d" x1="44.78" x2="12.83" y1="47.558" y2="164.728" gradientUnits="userSpaceOnUse"><stop stop-color="#4377bb"/><stop offset=".5" stop-color="#1a336b"/><stop offset="1" stop-color="#1a336b"/></linearGradient></defs></g></svg>