<svg xmlns="http://www.w3.org/2000/svg" fill="none" viewBox="0 0 512 512"><g transform="translate(30.72 30.72) scale(4.506)"><g clip-path="url(#a)"><path fill="#77e8b9" d="M2.933 0A2.93 2.93 0 0 0 0 2.933v9.414c0 .823 0 1.234.16 1.55.14.276.367.503.644.644.315.16.726.16 1.55.16h21.178a12.8 12.8 0 0 1 5.469 1.5l13.466 7.917a1.66 1.66 0 0 1 .906 1.481 1.66 1.66 0 0 1-.906 1.485l-6.399 3.765c-.773.4-1.63.61-2.5.61a5.5 5.5 0 0 1-2.5-.61l-5-2.916a12.86 12.86 0 0 0-5.485-1.5H2.353c-.823 0-1.234.001-1.55.162-.276.14-.502.364-.644.64C0 27.552 0 27.963 0 28.786v12.946c0 .825 0 1.235.16 1.55.14.277.367.5.644.64.315.162.726.161 1.55.161h18.229a12.6 12.6 0 0 0 5.484-1.498l45-26.435a12.5 12.5 0 0 1 5.466-1.5h21.113c.824 0 1.235 0 1.55-.16.277-.14.503-.365.645-.641.16-.315.159-.727.159-1.55V2.884A2.94 2.94 0 0 0 99.125.84 2.94 2.94 0 0 0 97.066 0zm76.484 26.469a12.85 12.85 0 0 0-5.484 1.497l-45 26.451a12.8 12.8 0 0 1-5.467 1.501H2.353c-.823 0-1.234 0-1.55.16-.276.14-.502.364-.644.64C0 57.035 0 57.445 0 58.269v12.946c0 .823 0 1.234.16 1.55.14.277.367.5.644.64.315.16.726.164 1.55.164h18.229a12.86 12.86 0 0 0 5.484-1.5l45-26.452a12.7 12.7 0 0 1 5.466-1.498h21.113c.824 0 1.235-.002 1.55-.163.277-.14.503-.364.645-.64.16-.316.159-.727.159-1.55V28.818c0-.825 0-1.235-.16-1.55a1.47 1.47 0 0 0-.644-.64c-.315-.162-.727-.161-1.55-.161zm0 29.465a12.86 12.86 0 0 0-5.484 1.5l-45 26.433a12.5 12.5 0 0 1-5.467 1.5H2.353c-.823 0-1.234 0-1.55.16a1.5 1.5 0 0 0-.644.641C0 86.483 0 86.894 0 87.718v9.414c.022.766.338 1.493.885 2.028a2.95 2.95 0 0 0 2.048.84h94.134A2.953 2.953 0 0 0 100 97.084v-9.415c0-.824 0-1.235-.16-1.55a1.47 1.47 0 0 0-.644-.64c-.315-.161-.727-.163-1.55-.163H76.47a12.54 12.54 0 0 1-5.469-1.5l-13.467-7.899a1.664 1.664 0 0 1-.674-2.37c.163-.264.397-.477.674-.615l6.399-3.75a5.47 5.47 0 0 1 5 0l5 2.9a12.6 12.6 0 0 0 5.485 1.5h18.23c.823 0 1.234.002 1.55-.159.276-.14.502-.367.644-.644.16-.314.159-.726.159-1.55v-12.94c0-.824 0-1.239-.16-1.553a1.5 1.5 0 0 0-.644-.641c-.315-.16-.727-.16-1.55-.16z"/></g><defs><clipPath id="a"><path fill="#fff" d="M0 0h100v100H0z"/></clipPath></defs></g></svg>