<svg xmlns="http://www.w3.org/2000/svg" fill="none" viewBox="0 0 512 512"><g transform="translate(30.72 30.72) scale(4.506)"><g clip-path="url(#a)"><path fill="url(#b)" d="M0 91.695V68.18l27.184-21.928c6.052-4.882 11.957-6.42 18.253-2.932 2.456 1.359 3.33 5.858 1.754 9.325z"/><path fill="url(#c)" d="M25.683 47.868c5.076-6.172 11.905-11.71 19.928-16.56 5.315-3.21 9.588 3.381 4.995 9.99-4.758 6.268-11.234 11.663-16.513 15.362-3.543 2.484-10.72-5.982-8.41-8.792"/><path fill="url(#d)" d="M25.683 47.868c5.076-6.172 11.905-11.71 19.928-16.56 5.315-3.21 9.588 3.381 4.995 9.99-4.758 6.268-11.234 11.663-16.513 15.362-3.543 2.484-10.72-5.982-8.41-8.792"/><path fill="url(#e)" d="M0 91.695v7.823h22.99l42.128-34.23c4.242-4.063 3.76-10.813 1.657-14.505-4.41-7.75-13.453-.758-19.584 1.863z"/><path fill="url(#f)" d="M45.885 53.18c4.072-4.465 22.075-20.136 25.4-16.76 3.023 3.072 1.365 9.843-5.844 17.797-5.71 6.298-12.904 10.539-16.645 7.574-3.104-2.456-5.287-6.007-2.911-8.611"/><path fill="url(#g)" d="M45.885 53.18c4.072-4.465 22.075-20.136 25.4-16.76 3.023 3.072 1.365 9.843-5.844 17.797-5.71 6.298-12.904 10.539-16.645 7.574-3.104-2.456-5.287-6.007-2.911-8.611"/><path fill="url(#h)" d="M22.99 99.518h35.325C67.75 90.395 79.59 79.545 74.664 71.05c-2.903-5-6.266-5.912-9.546-5.762z"/><path fill="url(#i)" d="M78.74 57.708c-1.021-6.136-22.57 12.171-23.87 14.59-1.256 2.34 1.962 11.3 7.06 9.01 6.528-3.084 18.503-13.442 16.81-23.6"/><path fill="url(#j)" d="M78.74 57.708c-1.021-6.136-22.57 12.171-23.87 14.59-1.256 2.34 1.962 11.3 7.06 9.01 6.528-3.084 18.503-13.442 16.81-23.6"/><path fill="url(#k)" d="M80.12 44.655c-7.036 5.296-2.475 13.926-10.615 18.643 10.633 2.199 17.187-12.653 15.462-18.1z"/><path fill="url(#l)" d="M80.12 44.655c-7.036 5.296-2.475 13.926-10.615 18.643 10.633 2.199 17.187-12.653 15.462-18.1z"/><path fill="url(#m)" d="m94.026 16.021-9.047 29.766c-1.716.689-3.711.215-4.842-1.178l7.165-30.699z"/><path fill="url(#n)" d="M100 .482v18.672c-6.22 2.48-21.96-3.722-20.128-9.574L82.72.482z"/></g><defs><linearGradient id="b" x1="11.758" x2="23.468" y1="56.984" y2="71.649" gradientUnits="userSpaceOnUse"><stop offset=".085" stop-color="#cc7f12"/><stop offset=".127" stop-color="#ffc22f"/><stop offset=".5" stop-color="#ffd468"/><stop offset="1" stop-color="#ffd255"/></linearGradient><linearGradient id="c" x1="32.567" x2="42.966" y1="38.429" y2="50.82" gradientUnits="userSpaceOnUse"><stop stop-color="#bf4f95"/><stop offset=".284" stop-color="#d26aaa"/><stop offset=".588" stop-color="#dc81bb"/><stop offset=".711" stop-color="#d76cad"/><stop offset=".825" stop-color="#d26cab"/><stop offset=".957" stop-color="#ca629d"/><stop offset="1" stop-color="#c96499"/></linearGradient><linearGradient id="e" x1="27.444" x2="43.018" y1="66.506" y2="85.242" gradientUnits="userSpaceOnUse"><stop offset=".027" stop-color="#cc7f12"/><stop offset=".157" stop-color="#ffc22f"/><stop offset=".5" stop-color="#ffd468"/><stop offset="1" stop-color="#ffd255"/></linearGradient><linearGradient id="f" x1="55.314" x2="63.338" y1="45.339" y2="54.719" gradientUnits="userSpaceOnUse"><stop stop-color="#bf4f95"/><stop offset=".284" stop-color="#d26aaa"/><stop offset=".588" stop-color="#dc81ba"/><stop offset=".711" stop-color="#d76cad"/><stop offset=".825" stop-color="#d26cab"/><stop offset=".957" stop-color="#ca629d"/><stop offset="1" stop-color="#c96499"/></linearGradient><linearGradient id="h" x1="43.823" x2="59.43" y1="80.241" y2="99.622" gradientUnits="userSpaceOnUse"><stop offset=".027" stop-color="#cc7f12"/><stop offset=".157" stop-color="#ffc22f"/><stop offset=".5" stop-color="#ffd468"/><stop offset="1" stop-color="#ffd255"/></linearGradient><linearGradient id="i" x1="61.986" x2="70.214" y1="63.685" y2="73.57" gradientUnits="userSpaceOnUse"><stop stop-color="#bf4f95"/><stop offset=".284" stop-color="#d26aaa"/><stop offset=".588" stop-color="#dc81bb"/><stop offset=".711" stop-color="#d76cad"/><stop offset=".825" stop-color="#d26cab"/><stop offset=".957" stop-color="#ca629d"/><stop offset="1" stop-color="#c96499"/></linearGradient><linearGradient id="k" x1="81.906" x2="73.722" y1="49.288" y2="61.649" gradientUnits="userSpaceOnUse"><stop stop-color="#dc83b9"/><stop offset=".159" stop-color="#de77b5"/><stop offset=".56" stop-color="#dd74b3"/><stop offset=".797" stop-color="#d65fa3"/><stop offset="1" stop-color="#c95195" stop-opacity=".992"/></linearGradient><linearGradient id="m" x1="80.134" x2="94.662" y1="30.006" y2="33.694" gradientUnits="userSpaceOnUse"><stop offset=".195" stop-color="#974377"/><stop offset=".247" stop-color="#cc76ac"/><stop offset=".33" stop-color="#f5a3d4"/><stop offset=".39" stop-color="#fca6da"/><stop offset=".476" stop-color="#e980c1"/><stop offset=".62" stop-color="#a34d81"/></linearGradient><linearGradient id="n" x1="79.722" x2="101.105" y1="10.098" y2="16.183" gradientUnits="userSpaceOnUse"><stop offset=".021" stop-color="#a65486"/><stop offset=".095" stop-color="#db77b4"/><stop offset=".146" stop-color="#f188c8"/><stop offset=".255" stop-color="#ffaddf"/><stop offset=".372" stop-color="#ffaddf"/><stop offset=".576" stop-color="#ee84c5"/><stop offset=".747" stop-color="#da6fb0"/><stop offset="1" stop-color="#a63d7b"/></linearGradient><radialGradient id="d" cx="0" cy="0" r="1" gradientTransform="rotate(44.195 -33.787 70.47)scale(9.76346 18.4921)" gradientUnits="userSpaceOnUse"><stop stop-color="#b94481" stop-opacity="0"/><stop offset=".694" stop-color="#b94481" stop-opacity=".186"/><stop offset="1" stop-color="#b94481"/></radialGradient><radialGradient id="g" cx="0" cy="0" r="1" gradientTransform="rotate(42.07 -34.768 101.123)scale(10.576 18.6326)" gradientUnits="userSpaceOnUse"><stop stop-color="#b94481" stop-opacity="0"/><stop offset=".694" stop-color="#b94481" stop-opacity=".186"/><stop offset="1" stop-color="#b94481"/></radialGradient><radialGradient id="j" cx="0" cy="0" r="1" gradientTransform="rotate(-40.472 127.84 -55.683)scale(19.2137 7.23399)" gradientUnits="userSpaceOnUse"><stop stop-color="#b94481" stop-opacity="0"/><stop offset=".644" stop-color="#b94481" stop-opacity=".186"/><stop offset="1" stop-color="#b94481"/></radialGradient><radialGradient id="l" cx="0" cy="0" r="1" gradientTransform="rotate(20.482 -112.345 245.99)scale(5.22043 11.3731)" gradientUnits="userSpaceOnUse"><stop stop-color="#b94481" stop-opacity="0"/><stop offset=".644" stop-color="#b94481" stop-opacity=".186"/><stop offset="1" stop-color="#b94481"/></radialGradient><clipPath id="a"><path fill="#fff" d="M0 0h100v100H0z"/></clipPath></defs></g></svg>