<svg xmlns="http://www.w3.org/2000/svg" fill="none" viewBox="0 0 512 512"><g transform="translate(26.232 26.232) scale(4.595)"><path fill="#333" d="M16.11 66.712c2.538-3.04 2.843-6.18.874-12.008-1.242-3.688-3.312-6.531-1.797-8.82 1.618-2.446 5.055-.078 2.196 3.187l.57.399c3.438.398 5.133-4.313 2.563-5.657-6.774-3.539-12.704 3.266-10.086 11.14 1.125 3.337 2.687 6.876 1.422 9.696-1.094 2.414-3.211 3.836-4.633 3.906-2.969.125-.969-6.68 2.414-8.398.297-.148.719-.351.32-.844-4.21-.476-6.68 1.47-8.094 4.188-4.132 7.922 7.852 10.836 14.25 3.21m74-23.219c.968 2.39 2.445 4.758 1.562 6.852-.719 1.797-1.672 2.539-2.719 2.718-1.469.25-1.07-4.36 1.445-5.726.227-.125.547-.719.25-1.07-3.187-.172-4.984 1.343-5.953 3.367-2.812 5.906 6.375 7.523 10.89 1.718 1.798-2.343 1.868-4.609.15-8.773-1.094-2.64-2.766-4.61-1.72-6.352s3.813-.25 1.797 2.22l.446.25c2.617.148 3.687-3.337 1.695-4.212-5.258-2.258-10.164 3.399-7.844 9.008"/><path fill="#333" d="M56.82 37.188c-1.82-1.445-6.922.969-8.383 4.563-1.82 4.562-4.507 11.21-7.148 14.125-2.79 3.062-3.063.695-2.79-1.07.65-4.165 4.688-13.805 6.93-16.516-.82-1.219-6.203-1.047-9.937 4.758-1.39 2.187-4.578 9.484-8.148 15.242-.782 1.242-1.743.375-1-2.54.843-3.366 3.335-12.609 6.554-19.882C41.32 34.196 50.266 33.024 57.117 33c.922-.25 1.563-1.07 0-1.125-5.906-.203-14.773.5-23.07 1.562 1.562-3.187 3.312-5.726 5.054-6.804-1.89-1.196-5.726-.72-7.921 2.515a43 43 0 0 0-2.868 5.086c-6.047.922-11.25 2.008-13.89 3s-2.446 4.36-.782 3.734a111 111 0 0 1 13.352-3.835c-3.305 7.476-5.898 16.296-6.523 19.898-1.563 8.719 3.859 8.672 6.5 5.234 2.875-3.773 8.851-17.007 9.75-18.398.273-.477.648-.227.445.203-6.68 13.328-6.102 18.484-.695 17.344 2.445-.524 6.648-4.688 7.75-6.875.226-.524.695-.477.601-.25-4.195 10.976-9.601 19.867-13.21 22.664-3.29 2.516-5.727-2.938 5.906-10.766 1.718-1.172.921-2.765-1.024-2.219-6.023.946-23.21 6.407-30.742 11.633-.57.399-1.094.72-1.07 1.563 0 .476.843.297 1.242.047 9.765-5.852 17.765-8.149 26.93-10.063.128.05.27.05.398 0 .422-.101.398.125.125.297-.625.352-1.242.672-1.399.719-6.18 2.414-9.914 7.75-8.593 10.46 1.125 2.344 7.172 1.493 10.039-.046 7.031-3.813 12.133-11.29 15.625-21.602 3.039-9.125 6.875-19.476 7.773-19.789M97.656 58.29c-11.437-1.492-36.102.5-46.992 3.39-3.242.844-2.344 2.563-.695 2.243l.78-.172c8.946-1.742 30.65-3.266 43.306-.844 1.484.266 6.046-4.312 3.601-4.617m-37.648-1.344c3.195-1.594 7.96-11.46 11.039-16.867.226-.399.625-.078.398.203-7.875 13.555-4.531 15.125-1.422 14.922 4.196-.25 8-6.235 8.883-7.547.352-.523.547-.102.352.273-.203.625-.922 1.72-1.563 3.211-.945 2.118.047 2.938.875 3.313 1.297.625 4.836.226 5.383-1.945-3.54-.079 4.93-16.766 5.805-17.79-2.344-1.367-6.032.125-7.696 3.415-3.562 7.03-6.554 12.734-8.421 12.828-3.641.203 4.187-15.72 5.468-16.22-.781-1.124-5.726-.648-8.492 3.642-1 1.562-7.078 12.304-8.594 14.062-2.64 3.125-2.844.445-2.094-2.687a37 37 0 0 1 1.22-3.961c1.742-3.907 3.609-5.18 4.757-6.454 7.695-8.546 12.11-15.468 10.367-18.187-1.562-2.414-6.703-1.344-10.015 3.64-6.102 9.141-11.72 21.672-12.461 27.407-.742 5.734 3.398 6.133 6.21 4.742M63.28 40.18c.273-.625.445-.78.922-1.843 2.71-6.032 6.11-12.383 8.516-15.352 1.468-1.562 3.539.547-.203 6.25a57.6 57.6 0 0 1-7.399 9.242c-.695.782-1.32 1.422-1.563 1.797-.226.305-.453.25-.273-.094"/></g></svg>