<svg xmlns="http://www.w3.org/2000/svg" fill="none" viewBox="0 0 512 512"><g transform="translate(29.838 28.957) scale(4.514)"><g clip-path="url(#a)"><path fill="#000" d="M76.502 8.084c14.258 8.808 23.76 24.579 23.76 42.57 0 27.613-22.386 49.999-50 49.999a49.8 49.8 0 0 1-17.141-3.017l-.57-.212.93-.3 1.195-.391.59-.198.584-.197 1.153-.397 1.132-.4 1.11-.403 1.09-.404.538-.204 1.057-.41q1.677-.656 3.245-1.327l.777-.337.953-.422q.62-.28 1.237-.569l.605-.286.89-.432.436-.216.432-.218.847-.438c7.114-3.731 11.947-7.785 14.514-12.23 5.437-9.417.688-19.48-12.943-29.74l-1.11-.83-.673-.518-.654-.512-.635-.51-.615-.504-.3-.251-.296-.25-.577-.498-.42-.37-.408-.369-.528-.487-.51-.485-.49-.48-.238-.238-.233-.238-.453-.473c-5.388-5.728-6.59-10.63-4.145-14.868 1.245-2.157 3.404-4.277 6.472-6.342l.373-.247.587-.378q.398-.25.813-.501l.42-.25.65-.374.667-.372.515-.278.526-.277.72-.369a69 69 0 0 1 1.692-.824l.588-.273.8-.363.409-.181.83-.36.424-.18.863-.358.437-.178.893-.356.454-.177.923-.353.944-.352.478-.174.975-.349.993-.347 1.015-.344.515-.172 1.044-.342 1.066-.341 1.085-.338 1.106-.337 1.126-.334 1.436-.416 1.468-.413 1.803-.49zM50.262.654c6.08 0 11.907 1.085 17.297 3.072l.576.216-.365.111-1.781.55-.583.184-1.15.37-1.13.374-1.109.377-1.087.38-1.067.383-.526.192-1.29.484-1.258.49-.984.394-.483.199-.952.4c-9.724 4.144-16.097 8.79-19.143 14.069-5.32 9.213-.495 19.145 13.137 29.401l1.11.832.673.517.654.514.32.255.624.508.455.378.445.377.575.499.282.248.546.492q.446.411.867.815l.414.404.596.601.566.595c5.365 5.768 6.512 10.77 3.963 15.185-1.65 2.858-4.8 5.67-9.442 8.401l-.427.249-.69.391-.712.39q-.612.33-1.23.648l-.637.322-.784.385-.804.385-.824.383-.42.192-.855.38-.875.38-.896.379-.456.189-.927.376-.471.187-.477.188-.968.373-.988.372-1.008.37-1.03.37-1.05.366-.532.183-1.08.365-.55.181-1.11.363-1.132.36-1.443.448-1.476.446-1.203.354-1.68.484C9.877 84.603.262 68.75.262 50.653c0-27.614 22.386-50 50-50"/></g><defs><clipPath id="a"><path fill="#fff" d="M0 0h100v100H0z"/></clipPath></defs></g></svg>