<svg xmlns="http://www.w3.org/2000/svg" fill="none" viewBox="0 0 512 512"><g transform="translate(10.459 8.047) scale(4.94)"><path fill="#fff" stroke="#6dd0c7" stroke-width=".23" d="M79.352 32.2H23.234v39.393h56.118z"/><path fill="#5ecd77" d="M95.313 88.852v3.281c-.641 1.063-1.61 1.282-2.797 1.282-28.508-.024-57.024-.016-85.532-.024-.21 0-.422.008-.632 0-1.407-.062-2.172-.836-2.133-2.242.03-1.008.156-2.008.234-3.016.711-8.89 1.406-17.765 2.11-26.648q1.09-13.7 2.195-27.399c.57-7.125 1.14-14.242 1.726-21.367.117-1.46.82-2.062 2.297-2.086.844-.015 1.68-.007 2.524-.015 22.812 0 45.625-.008 68.437-.008.922.008 1.852 0 2.774.016 1.359.023 2.101.664 2.257 2.015.07.617-.054 1.258 0 1.875.243 2.469.547 4.93.774 7.399.289 3.18.531 6.359.797 9.539l1.5 18.203c.914 11.094 1.82 22.18 2.758 33.273.164 1.985.468 3.953.71 5.922m-47.274-20.43c3.11-.023 6.125-.75 8.82-2.43 8.172-5.085 11.461-12.827 11.813-22.1.031-.86-.39-1.43-1.36-1.47-1.078-.046-1.18.664-1.25 1.485-.148 1.687-.203 3.406-.554 5.054-1.133 5.29-3.469 9.93-7.852 13.313-3.797 2.93-7.976 4.367-12.828 3.219-6.117-1.446-9.86-5.555-12.453-10.953-1.563-3.266-2.242-6.758-2.313-10.376-.023-1.28-.68-1.953-1.601-1.71-.914.242-1.063.968-1.031 1.78.172 5.407 1.547 10.462 4.593 14.97 3.828 5.632 8.953 9.047 16.016 9.218m19.148-31.437c2.118 2.125 3.922 3.93 5.711 5.742.633.64 1.329.797 1.977.133.594-.61.469-1.32-.117-1.906a690 690 0 0 0-6.328-6.313c-.641-.633-1.446-.789-2.125-.133a283 283 0 0 0-6.493 6.5c-.578.602-.78 1.43-.015 2.055.703.578 1.383.352 1.984-.297 1.766-1.898 3.54-3.789 5.406-5.781"/><path fill="#53c074" d="M82.695 6.844c1.102 1.047.922 2.453 1.047 3.774-22.812 0-45.625.008-68.437.008.296-1.305-.243-2.883 1.265-3.782z"/></g></svg>