<svg xmlns="http://www.w3.org/2000/svg" fill="none" viewBox="0 0 512 512"><g transform="translate(30.72 30.72) scale(4.506)"><g fill="#654ff0" clip-path="url(#a)"><path d="M61.438-.001v.539a11.466 11.466 0 0 1-22.932 0v-.539H0v100h100v-100zM47.723 89.295 42.856 65.2h-.084l-5.269 24.094h-6.709l-7.6-35.403h6.625l4.534 24.094h.084L39.9 53.892h6.197l4.907 24.392h.083l5.176-24.392h6.504l-8.446 35.403zm36.48 0-2.257-7.88H70.024l-1.737 7.88H61.66l8.568-35.403h10.453l10.416 35.403z"/><path d="m74.215 62.618-2.89 12.99h8.995l-3.318-12.99z"/></g><defs><clipPath id="a"><path fill="#fff" d="M0 0h100v100H0z"/></clipPath></defs></g></svg>