<svg xmlns="http://www.w3.org/2000/svg" fill="none" viewBox="0 0 512 512"><g transform="translate(29.4 30.72) scale(4.506)"><path fill="#000" fill-rule="evenodd" d="M56.498 87.678c-7.11 0-14.218-2.37-18.01-8.057l-1.422 6.635L11 100l2.844-13.744L32.8 0h23.223l-6.635 30.332c5.213-5.687 10.426-8.057 17.061-8.057 14.218 0 23.223 9.005 23.223 26.066 0 17.062-10.9 39.337-33.175 39.337m9.004-34.597c0 8.056-5.687 14.218-13.27 14.218s-8.057-1.422-10.426-4.266l3.791-15.64c2.844-2.843 5.687-4.265 9.479-4.265 5.687 0 10.426 4.265 10.426 10.426z" clip-rule="evenodd"/></g></svg>