<svg xmlns="http://www.w3.org/2000/svg" fill="none" viewBox="0 0 512 512"><g transform="translate(30.72 30.72) scale(4.506)"><g clip-path="url(#a)"><path fill="#ff570a" d="M50 0c27.614 0 50 22.386 50 50s-22.386 50-50 50S0 77.614 0 50 22.386 0 50 0m-9.104 13.463c2.166 15.975 11.11 11.814 16.378 22.825 0 0-8.888-12.399-23.501-7.834.061.132 5.418 11.487 21.081 13.818 0 0 1.26 4.439 1.642 5.223-.157-.084-24.286-12.904-31.63 11.936-5.482-1.274-7.32 4.832-1.02 9.005.02-.084 1.098-4.382 3.683-5.666 0 0-5.602 6.414.987 14.093h23.648c.572-.97 3.1-6.081-3.154-9.95 4.415-.064 8.009 8.481 11.875 10.009h5.622c.19-.475.59-1.896-.345-3.175-1.44-1.694-4.59-1.465-4.563-4.598 1.089-14.583 22.397-10.107 21.72-27.659l-.311-.389c-1.433-1.732-7.634-8.68-15.183-9.13-5.566-.338-6.918.424-7.161.993-.347-2.952-2.805-16.607-19.768-19.501"/></g><defs><clipPath id="a"><path fill="#fff" d="M0 0h100v100H0z"/></clipPath></defs></g></svg>