<svg xmlns="http://www.w3.org/2000/svg" fill="none" viewBox="0 0 512 512"><g transform="translate(32.92 30.72) scale(4.506)"><g clip-path="url(#a)"><path fill="#000" fill-rule="evenodd" d="M64.361 0c11.453 0 20.737 9.218 20.737 20.59l-.007.53c-.283 11.125-9.456 20.057-20.73 20.057h-8.887v17.648h8.887c11.274 0 20.447 8.932 20.73 20.057l.007.53c0 11.371-9.284 20.588-20.736 20.588s-20.737-9.217-20.737-20.587l-.001-8.824h-8.887C23.285 70.589 14 61.37 14 50s9.284-20.589 20.737-20.589h8.887V20.59C43.624 9.219 52.909 0 64.361 0M34.737 41.177c-4.908 0-8.887 3.95-8.887 8.824s3.979 8.823 8.887 8.823h8.887V41.177zm29.624-29.412c-4.908 0-8.886 3.951-8.886 8.824l-.001 8.823h8.887c4.832 0 8.763-3.828 8.884-8.595l.004-.228c0-4.873-3.98-8.824-8.888-8.824m-8.886 67.648c0 4.873 3.978 8.823 8.886 8.823 4.832 0 8.763-3.828 8.884-8.595l.004-.228c0-4.873-3.98-8.823-8.888-8.823h-8.887z" clip-rule="evenodd"/></g><defs><clipPath id="a"><path fill="#fff" d="M0 0h100v100H0z"/></clipPath></defs></g></svg>