<svg xmlns="http://www.w3.org/2000/svg" fill="none" viewBox="0 0 512 512"><g transform="translate(32.043 30.72) scale(4.514)"><g clip-path="url(#a)"><g clip-path="url(#b)"><path fill="#f5b01a" d="M62.608 78.63c14.75-1.61 28.659-9.336 36.323-22.234-3.624 31.892-39.116 52.053-68.075 39.67-2.673-1.143-4.966-3.025-6.546-5.464-6.51-10.043-8.65-22.824-5.58-34.423 8.79 14.902 26.648 24.041 43.878 22.45"/><path fill="#8d2576" d="M18.195 46.826c-5.982 13.578-6.245 29.487 1.093 42.573-25.807-19.083-25.521-59.9-.317-78.79 2.325-1.742 5.1-2.786 8.004-2.936 11.952-.617 24.091 3.921 32.601 12.38-17.3.16-34.144 11.056-41.381 26.773"/><path fill="#ee342f" d="M67.918 24.222C59.19 12.26 45.526 4.126 30.56 3.878c28.931-12.908 64.51 8.02 68.39 38.948.36 2.877-.112 5.797-1.41 8.387-5.408 10.783-15.432 19.152-27.142 22.25 8.598-15.639 7.529-34.747-2.481-49.241"/></g></g><defs><clipPath id="a"><path fill="#fff" d="M0 0h100v100H0z"/></clipPath><clipPath id="b"><path fill="#fff" d="M0 0h99.189v100H0z"/></clipPath></defs></g></svg>