<svg xmlns="http://www.w3.org/2000/svg" fill="none" viewBox="0 0 512 512"><g transform="translate(30.72 30.72) scale(4.506)"><g clip-path="url(#a)"><path fill="#21cfee" d="M42.112 6.147C45.423.459 52.844-1.662 58.685 1.404c5.842 3.07 7.895 10.166 4.585 15.851L40.855 55.751c-3.312 5.686-10.732 7.81-16.574 4.74-5.842-3.066-7.894-10.164-4.586-15.85z"/><path fill="#173aee" d="M59.145 44.25c3.312-5.688 10.731-7.81 16.574-4.743 5.842 3.069 7.894 10.166 4.585 15.85L57.888 93.855c-3.311 5.685-10.732 7.808-16.573 4.74S33.418 88.43 36.73 82.743z"/></g><defs><clipPath id="a"><path fill="#fff" d="M0 0h100v100H0z"/></clipPath></defs></g></svg>