<svg xmlns="http://www.w3.org/2000/svg" fill="none" viewBox="0 0 512 512"><g transform="translate(30.72 31.16) scale(4.506)"><path fill="#19b99a" d="M51.946 36.72c6.534 7.646 9.222 17.841 7.23 27.711 10.24-4.078 14.225-10.936 15.43-17.794 0 0 3.476-13.021 8.944-18.397-10.705 1.622-11.77-2.595-31.604 8.48"/><path fill="#19b99a" d="M35.542 50.02a43.5 43.5 0 0 0-10.797-17.563s14.921 3.939 23.54 31.789C40.177 61.79 36.701 53.773 35.543 50.02m18.49 18.21c.231-1.343 4.216-14.828-3.661-25.764-13.114-14.55-32.947-16.59-32.947-16.59 3.846 7.461 3.985 14.459 8.202 28.685C30.723 69.297 49.629 70.27 51.02 70.316c1.25 1.993 4.17 4.68 10.843 6.07l.741-3.521c-5.746-1.205-7.831-3.43-8.572-4.634"/><path fill="#1d1d1b" d="M19.555 21.614c-8.34 3.938-11.677 13.53-11.677 28.22 0 14.412 3.336 24.05 11.677 28.267l-.927 3.615C5.792 77.22 0 67.21 0 49.88 0 32.41 5.792 22.4 18.628 17.998zM81.372 18C94.208 22.4 100 32.41 100 49.833c0 17.331-5.792 27.34-18.628 31.789l-1.02-3.615c8.341-4.216 11.678-13.855 11.678-28.266 0-14.69-3.337-24.282-11.678-28.175z"/></g></svg>