<svg xmlns="http://www.w3.org/2000/svg" fill="none" viewBox="0 0 512 512"><g transform="translate(28.059 28.946) scale(4.541)"><g clip-path="url(#a)"><g clip-path="url(#b)"><path fill="#d1d3d4" fill-rule="evenodd" stroke="#000" stroke-linejoin="round" stroke-width="1.768" d="M44.506 18.571c.273-8.667-2.647-13.776-11.04-17.152-2.385 8.345 7.463 16.04 11.04 17.152Z" clip-rule="evenodd"/><path fill="#d1d3d4" fill-rule="evenodd" stroke="#000" stroke-linejoin="round" stroke-width="1.768" d="M67.267 33.259c.273-7.117-1.525-9.989-2.874-12.043-1.368-1.916-4.653-4.927-8.687-5.053-3.816-.12-4.734 1.99-8.254 2.117-.578-6.41 4.26-9.928 4.26-9.928s-1.322-1.87-2.417-2.327c-1.574 1.4-5.907 6.065-4.904 12.07-3.24-.62-5.526-2.473-8.928-1.804-4.636.912-8.457 3.715-10.635 9.865s.769 13.325 1.41 15.374 5.381 10.761 9.097 12.043c3.714 1.283 3.715.705 5.701-.063 1.987-.77 4.997-2.178 9.418-.576 4.419 1.6 4.995 1.984 7.75.191s6.342-7.366 7.174-8.968c.833-1.601 1.281-2.434 1.538-3.267 2.678-1.336.105-1.253.35-7.631Z" clip-rule="evenodd"/><path fill="#fff" stroke="#000" stroke-linejoin="round" stroke-width="1.768" d="M74.46 85.27a6.64 6.64 0 0 0 6.665-6.641V54.705a6.64 6.64 0 0 0-6.642-6.642h-5.475a1.476 1.476 0 0 1-1.476-1.476v-3.48H24.348l.108 51.001a1.48 1.48 0 0 0 .683 1.242c1.923 1.114 8.09 3.229 21.035 3.229 13.22 0 19.129-2.832 20.82-4.11a1.47 1.47 0 0 0 .531-1.13c.007-1.412.007-4.682.007-6.614a1.474 1.474 0 0 1 1.507-1.476c1.624.023 3.57.026 5.42.021Zm-6.928-29.449a1.847 1.847 0 0 1 1.845-1.845h4.7a1.847 1.847 0 0 1 1.846 1.845v21.47a1.847 1.847 0 0 1-1.846 1.846h-4.7a1.847 1.847 0 0 1-1.845-1.845z"/><path fill="#fbb040" fill-rule="evenodd" d="M28.605 42.68v45.75c0 .528.282 1.016.739 1.28 1.867.89 7.285 3.014 16.784 3.014 9.561 0 14.818-2.581 16.578-3.645a1.47 1.47 0 0 0 .674-1.236c.004-6.067.004-45.164.004-45.164z" clip-rule="evenodd"/><path stroke="#ffdb96" stroke-linecap="round" stroke-width="4.067" d="M33.717 50.429v35.356"/><path fill="#fff" fill-rule="evenodd" stroke="#000" stroke-linecap="round" stroke-linejoin="round" stroke-width="1.768" d="M53.367 52.068c0-.738-.434-1.62-1.148-2.062a6.18 6.18 0 0 1-2.561-3.063c-9.443.318-18.062-1.34-22.405-2.511a36 36 0 0 0-3.384-.786c-2.599-.516-4.574-2.798-4.574-5.542a5.59 5.59 0 0 1 5.39-5.582c.578-3.194 3.366-5.62 6.727-5.62a6.843 6.843 0 0 1 6.843 6.844c0 .795-.144 1.556-.393 2.267l.02.004a6.55 6.55 0 0 1 6.235-4.553 6.55 6.55 0 0 1 6.217 4.505 7.116 7.116 0 0 1 13.864-2.868l.62-.16a5.59 5.59 0 0 1 8.333 4.87c0 2.828-2.1 5.165-4.826 5.538a8.2 8.2 0 0 0-1.804.469 45 45 0 0 1-4.951 1.535 6.2 6.2 0 0 1-.705 2.299 7.65 7.65 0 0 0-.878 4.154l.003.63c0 1.83-1.482 2.943-3.312 2.943a3.31 3.31 0 0 1-3.31-3.311" clip-rule="evenodd"/></g></g><defs><clipPath id="a"><path fill="#fff" d="M0 0h100v100H0z"/></clipPath><clipPath id="b"><path fill="#fff" d="M17 0h66.421v100H17z"/></clipPath></defs></g></svg>