<svg xmlns="http://www.w3.org/2000/svg" fill="none" viewBox="0 0 512 512"><g transform="translate(30.72 30.72) scale(4.506)"><g clip-path="url(#a)"><path fill="#faebd7" d="M81.25 0h-62.5C8.395 0 0 8.394 0 18.75v62.5C0 91.605 8.395 100 18.75 100h62.5C91.605 100 100 91.605 100 81.25v-62.5C100 8.393 91.605 0 81.25 0"/><path fill="#2f4f4f" d="M15.527.312c-3.828.684-7.03 2.324-9.824 5.04-2.48 2.401-4.16 5.292-5.156 8.905l-.45 1.66v68.165l.43 1.64c1.856 6.895 6.797 11.836 13.73 13.73l1.661.45h68.164l1.66-.45c6.875-1.874 11.875-6.874 13.711-13.71l.45-1.66V50c0-37.852.097-34.786-1.29-38.262C96.602 6.679 92.012 2.46 86.72.8c-2.6-.8-2.6-.8-36.896-.78-27.46.02-32.988.059-34.297.293M84.141 5c.859.175 2.285.683 3.359 1.19 1.563.763 2.11 1.153 3.633 2.677 1.523 1.523 1.914 2.07 2.676 3.632 1.62 3.36 1.523.723 1.464 38.184-.078 37.168.059 33.75-1.523 36.934-1.328 2.734-4.297 5.488-7.129 6.66-2.558 1.074-1.289 1.035-36.621 1.035s-34.062.04-36.621-1.035c-2.832-1.172-5.8-3.926-7.129-6.66-1.582-3.184-1.445.234-1.523-36.934C4.668 13.203 4.57 15.82 6.19 12.5c.762-1.563 1.172-2.13 2.676-3.633 1.524-1.524 2.07-1.914 3.633-2.676 3.262-1.582.645-1.465 37.363-1.484 28.965-.02 32.95.02 34.278.293"/><path fill="#2f4f4f" d="m34.14 31.68-.058 16.66-4.14.058-4.16.039v-12.5h-8.4v10.645l2.99 2.988 2.968 2.969h13.28l2.89-2.891 2.872-2.871V15.039H34.18zm19.61-13.653-2.969 2.969v8.593l6.25 6.25 6.25 6.25v6.348h-3.906l-4.102-2.05c-2.246-1.134-4.18-2.052-4.296-2.052-.118 0-.196.508-.196 1.133v1.113l2.989 2.989 2.968 2.969h8.985l2.988-2.989 2.969-2.968v-8.594l-6.25-6.25-6.25-6.25V19.14h4.101l4.102 2.05c2.246 1.134 4.14 2.052 4.199 2.052s.098-.508.098-1.133v-1.113l-2.989-2.989-2.968-2.968h-8.985zm-37.344 55.41v14.062h15.625v-3.125h-9.375v-25h-6.25zm21.875-12.5V62.5h6.25v-3.125h-6.25zm37.5 1.563v3.124h-3.125v3.125h3.125v14.356l2.207 2.207 2.188 2.187h4.98v-3.125h-3.125V68.75h3.125v-3.125h-3.125v-6.25h-6.25zm-37.5 14.062v10.937h6.25V65.624h-6.25zm12.5 0v10.937h6.25V68.75h6.25V87.5h6.25V70.02l-2.207-2.207-2.187-2.188H50.78z"/></g><defs><clipPath id="a"><path fill="#fff" d="M0 0h100v100H0z"/></clipPath></defs></g></svg>