<svg xmlns="http://www.w3.org/2000/svg" fill="none" viewBox="0 0 512 512"><g transform="translate(30.72 30.72) scale(4.506)"><g clip-path="url(#a)"><path fill="#8d6748" d="M91.346 76.945 52.7 99.275a5.33 5.33 0 0 1-5.368 0L8.684 76.945C7.02 75.979 6 74.208 6 72.329v-44.66c0-1.932 1.02-3.65 2.684-4.616L47.33.723a5.33 5.33 0 0 1 5.368 0l38.647 22.33c1.665.966 2.684 2.738 2.684 4.616v44.66c-.053 1.878-1.073 3.65-2.684 4.616"/><path fill="#fff" d="M49.962 6.79c-.806 0-1.61.214-2.309.643l-33.387 19.27c-1.45.806-2.308 2.362-2.308 3.972v38.54c0 1.664.859 3.167 2.308 3.973l33.387 19.27c.698.43 1.503.644 2.309.644a4.4 4.4 0 0 0 2.307-.644l33.388-19.27c1.45-.806 2.308-2.362 2.308-3.972V30.675c0-1.664-.859-3.166-2.308-3.972L52.27 7.433a4.4 4.4 0 0 0-2.309-.644m0 1.61c.536 0 1.02.16 1.502.43L84.851 28.1a3.09 3.09 0 0 1 1.503 2.63v38.54c0 1.073-.59 2.093-1.503 2.63L51.465 91.17c-.484.267-.967.429-1.504.429a2.9 2.9 0 0 1-1.503-.43l-33.387-19.27a3.09 3.09 0 0 1-1.503-2.63V30.73a3.09 3.09 0 0 1 1.503-2.63L48.458 8.83c.483-.268 1.02-.43 1.503-.43M46.875 42h4.509a.5.5 0 0 0 .376-.16c2.683-3.007 2.952-9.287 2.952-11.166a.54.54 0 0 0-.537-.536H44.084a.54.54 0 0 0-.537.536c0 1.825.269 8.106 2.952 11.165a.5.5 0 0 0 .376.161M45.64 31.803h7.086c.268 0 .537.214.537.536 0 1.503-.269 5.744-2.094 7.944-.16.108-.268.162-.43.162h-3.166a.5.5 0 0 1-.376-.162c-1.825-2.146-2.04-6.44-2.093-7.944 0-.268.214-.536.536-.536m4.51-2.738s1.932-1.127.75-3.167c-.697-1.073-1.019-1.986-.75-2.362-.698.86-1.88 1.772-.591 3.704.43.483.644 1.503.59 1.825m-2.148.161s1.288-.751.483-2.147c-.483-.698-.697-1.342-.483-1.557-.483.59-1.234 1.181-.376 2.523.269.268.376.966.376 1.181m-.16 10.575h2.683q.161 0 .322-.161c.913-1.074 1.342-2.738 1.557-4.187 0 0-.054.483-1.342.966-1.771.644-4.885.215-4.885.215.268 1.127.698 2.2 1.342 3.006.054.107.215.16.322.16M27.658 54.884V44.148h-1.986l-3.275 5.046-3.274-5.046h-1.986v10.79h1.878V47.26l3.328 4.992h.054l3.382-5.045v7.676zm12.024-10.521a6.2 6.2 0 0 0-2.255-.43c-.805 0-1.556.108-2.255.43a5.1 5.1 0 0 0-1.77 1.18 5.4 5.4 0 0 0-1.182 1.772c-.268.698-.43 1.396-.43 2.147v.054c0 .751.162 1.503.43 2.147a5 5 0 0 0 1.128 1.771 5.1 5.1 0 0 0 1.77 1.181c.699.269 1.45.43 2.255.43s1.557-.108 2.255-.43a5.1 5.1 0 0 0 1.77-1.18 5.4 5.4 0 0 0 1.182-1.772c.268-.698.43-1.396.43-2.147v-.054c0-.751-.162-1.502-.43-2.147a5 5 0 0 0-1.127-1.77 5.1 5.1 0 0 0-1.771-1.182m1.288 5.206c0 .484-.108.967-.269 1.45-.214.43-.429.859-.751 1.18-.33.328-.71.6-1.127.806q-.645.322-1.45.322a3.36 3.36 0 0 1-1.449-.322 4.3 4.3 0 0 1-1.127-.805c-.322-.376-.59-.752-.752-1.234-.16-.484-.268-.967-.268-1.504v-.053c0-.483.107-.967.268-1.45.215-.43.43-.858.752-1.18.33-.328.71-.6 1.127-.806q.644-.322 1.45-.322a3.2 3.2 0 0 1 1.449.322c.416.206.797.478 1.127.805.322.376.59.752.751 1.235s.268.966.268 1.503zm7.944-1.61c.214-.43.43-.859.751-1.18.33-.328.71-.6 1.127-.806.43-.215.86-.322 1.396-.322.644 0 1.18.107 1.664.376.483.268.913.59 1.342.966l1.235-1.396a9 9 0 0 0-.806-.697c-.268-.215-.59-.376-.912-.537-.376-.108-.698-.215-1.128-.322a10 10 0 0 0-1.341-.107c-.86 0-1.557.16-2.255.429a5.1 5.1 0 0 0-1.771 1.18 6.2 6.2 0 0 0-1.127 1.772 5.7 5.7 0 0 0-.43 2.147v.054c0 .751.161 1.449.43 2.147a5 5 0 0 0 1.127 1.771c.483.483 1.074.913 1.718 1.181a5.5 5.5 0 0 0 2.147.43c.483 0 .966 0 1.449-.108.376-.053.805-.215 1.127-.375.322-.161.644-.323.966-.591s.59-.483.86-.805l-1.235-1.235c-.483.43-.967.752-1.396 1.02-.43.269-1.02.376-1.664.376-.483 0-.966-.161-1.396-.322s-.805-.483-1.127-.805c-.322-.376-.59-.752-.751-1.235s-.269-.966-.269-1.503v-.053c0-.483.108-.967.269-1.45m11.326-3.81v10.735h1.878v-4.51h5.153v4.51h1.879V44.148h-1.879v4.456H62.12v-4.456zm20.612 8.158 1.073 2.577h1.986l-4.724-10.79H77.47l-4.723 10.79h1.933l1.127-2.577zM78.33 46.35l1.824 4.294h-3.65zM15.795 58.855h68.438v-.59H15.796zm39.346-20.773c0 .215-.055.376-.055.591h29.147v-.59zm-11.97 0H15.796v.591h27.43c0-.215-.055-.376-.055-.59"/></g><defs><clipPath id="a"><path fill="#fff" d="M0 0h100v100H0z"/></clipPath></defs></g></svg>