<svg xmlns="http://www.w3.org/2000/svg" fill="none" viewBox="0 0 512 512"><g transform="translate(30.72 30.72) scale(4.506)"><g clip-path="url(#a)"><path fill="#001423" d="M92.148 62.458a7.85 7.85 0 0 0-7.36 5.12H37.054a7.87 7.87 0 0 0-4.632-4.63V15.212a7.85 7.85 0 0 0 5.12-7.361 7.849 7.849 0 1 0-15.7 0 7.85 7.85 0 0 0 5.121 7.36v47.735a7.854 7.854 0 0 0-4.405 10.634L11.125 85.016a7.85 7.85 0 1 0 3.86 3.86l11.434-11.434a7.853 7.853 0 0 0 10.634-4.405h47.734a7.85 7.85 0 0 0 15.21-2.73 7.85 7.85 0 0 0-7.849-7.849"/><path fill="#00857d" d="M100 7.852a7.85 7.85 0 0 1-11.123 7.133L77.442 26.42a7.853 7.853 0 0 1-4.404 10.634v47.734a7.85 7.85 0 1 1-10.58 7.36 7.85 7.85 0 0 1 5.12-7.36V37.056a7.87 7.87 0 0 1-4.63-4.632H15.21a7.853 7.853 0 0 1-14.614.275 7.85 7.85 0 1 1 14.613-5.734h47.735a7.853 7.853 0 0 1 10.635-4.405l11.433-11.434A7.848 7.848 0 0 1 92.147.002a7.85 7.85 0 0 1 7.85 7.85z"/></g><defs><clipPath id="a"><path fill="#fff" d="M0 0h100v100H0z"/></clipPath></defs></g></svg>