<svg xmlns="http://www.w3.org/2000/svg" fill="none" viewBox="0 0 512 512"><g transform="translate(23.453 23.453) scale(4.651)"><path fill="#76d04b" d="M47.704 97.82a4.58 4.58 0 0 0 4.584 0L90.26 75.909a4.59 4.59 0 0 0 2.294-3.972v-43.86a4.6 4.6 0 0 0-2.292-3.972L52.291 2.175a4.6 4.6 0 0 0-4.59 0L9.739 24.105a4.59 4.59 0 0 0-2.293 3.972v43.86a4.59 4.59 0 0 0 2.294 3.97z"/><path fill="#4f4d3f" d="m74.584 39.545-1.694-.974c2.605-3.842 4.16-9.616 2.21-18.25 0 0-4.395 12.316-13.228 11.908L51.53 26.276a2.7 2.7 0 0 0-1.27-.368h-.237a2.7 2.7 0 0 0-1.274.369l-10.344 5.952c-8.833.409-13.228-11.908-13.228-11.908-1.952 8.633-.393 14.408 2.21 18.25l-1.693.974a2.79 2.79 0 0 0-1.395 2.42l.05 35.727c0 .499.259.96.696 1.203.428.258.957.258 1.383 0l13.703-7.846a2.81 2.81 0 0 0 1.395-2.417v-16.69a2.77 2.77 0 0 1 1.39-2.411l5.834-3.36a2.73 2.73 0 0 1 1.396-.376c.475 0 .962.122 1.385.375l5.833 3.36a2.77 2.77 0 0 1 1.393 2.41v16.692a2.81 2.81 0 0 0 1.395 2.417l13.699 7.846c.43.258.967.258 1.393 0 .424-.242.691-.705.691-1.203l.045-35.727a2.78 2.78 0 0 0-1.393-2.42z"/></g></svg>