<svg xmlns="http://www.w3.org/2000/svg" fill="none" viewBox="0 0 512 512"><g transform="translate(30.72 28.95) scale(4.532)"><path fill="#004880" d="M7.276 1.96a8.34 8.34 0 0 0-6.218 4.174C.357 7.388.033 8.648.031 10.132c0 1.398.232 2.435.83 3.662 1.11 2.295 3.217 3.912 5.835 4.476.672.144 2.305.156 3.006.025 3.003-.565 5.411-2.637 6.381-5.484.33-.955.397-1.425.397-2.655 0-1.196-.033-1.471-.326-2.417a8.25 8.25 0 0 0-5.786-5.566c-.919-.238-2.207-.327-3.092-.214M44.14 19.945c-10.87.929-19.96 8.667-22.576 19.214-.33 1.319-.453 2.045-.675 3.93-.08.675-.119 29.914-.04 31.226.116 2.042.41 3.785.952 5.664 2.427 8.414 9.082 15.055 17.475 17.432q2.141.602 4.546.864c.789.082 1.618.088 16.188.088 16.277 0 15.68.01 17.383-.226a25.4 25.4 0 0 0 11.687-4.803c1.365-1.02 3.064-2.603 4.093-3.809.985-1.163 2.109-2.753 2.847-4.053 1.495-2.62 2.597-5.826 3.021-8.789.26-1.776.242-.644.26-17.016.015-10.669.006-15.399-.034-15.967-.366-5.487-2.35-10.449-5.898-14.746-.596-.723-2.408-2.533-3.135-3.134-3.637-3.013-7.709-4.883-12.256-5.625-1.938-.317-.6-.292-17.627-.305-12.451-.003-15.6.007-16.21.055m-2.246 11.637c3.75.668 6.82 3.289 8.032 6.854.764 2.252.742 4.63-.054 6.851-.532 1.48-1.563 3.042-2.68 4.053-1.995 1.821-4.376 2.759-7.006 2.759-2.839 0-5.339-1.031-7.33-3.022-1.68-1.681-2.687-3.734-2.973-6.085-.08-.635-.068-1.953.024-2.612.643-4.694 4.351-8.307 9.107-8.887.619-.073 2.24-.024 2.88.089m33.253 25.472c3.668.47 6.875 2.017 9.515 4.59 1.977 1.928 3.326 4.083 4.18 6.69.553 1.666.758 2.92.79 4.784.034 1.899-.124 3.223-.601 4.899-1.027 3.655-3.435 6.982-6.61 9.133-4.1 2.783-9.1 3.57-13.934 2.197-1.831-.515-4.015-1.638-5.548-2.844-4.035-3.186-6.353-7.946-6.347-13.058.005-5.69 2.948-10.977 7.812-14.017 2.188-1.373 4.663-2.194 7.373-2.447.668-.065 2.653-.019 3.37.072"/></g></svg>