<svg xmlns="http://www.w3.org/2000/svg" fill="none" viewBox="0 0 512 512"><g transform="translate(30.72 30.72) scale(4.506)"><g clip-path="url(#a)"><path fill="#91d400" d="M26.427 57.467H.037l.014.383.046.738q.006.16.019.32.075.997.194 1.991a36 36 0 0 0 .143 1.108q-.002.007.004.013a44 44 0 0 0 1.361 6.206c.005.01.01.014.01.023q.147.51.312 1.015c.005.018.015.037.02.055.092.287.193.573.29.862.028.07.05.143.078.218.089.245.175.494.268.743q.067.163.13.336.122.303.239.615.098.225.194.461c.064.156.133.318.198.479q.134.291.258.581.082.18.157.351c.106.23.217.466.328.697l.11.225q.196.401.397.794.035.062.06.12.237.46.485.914c.033.06.07.12.101.175l22.539-13.508.082-.05a17.7 17.7 0 0 1-1.647-5.865"/><path fill="#91d400" d="m2.14 69.265-.857.244.01.024z"/><path fill="#4c5930" d="m32.909 69.521-.06.066-18.589 18.5q.144.13.286.263.264.237.527.466c.092.078.18.161.272.24q.319.269.637.53c.055.051.115.097.17.142q.402.336.817.656c.268.207.531.406.798.61q.02.01.032.023a43 43 0 0 0 3.48 2.338c.04.028.082.051.123.08l.683.4c.138.079.281.157.42.24.133.074.262.15.397.222.245.13.485.263.729.387q1.062.555 2.154 1.047l.66-1.591 9.352-22.598.032-.083a18 18 0 0 1-2.92-1.938"/><path fill="#68a338" d="M30.976 67.683a20 20 0 0 1-1.062-1.302q-.27-.355-.516-.729a19 19 0 0 1-.484-.747L6.347 78.436c.351.573.71 1.13 1.08 1.68l.036.06.014.02c.01.017.024.035.031.054.006.004.006.004.006.009.033.041.06.082.092.13q-.001.005.005.008v.005q.599.88 1.241 1.73.016.02.024.037c.184.236.364.476.547.71q.042.044.075.093a84 84 0 0 0 .724.89q.27.321.54.633.12.137.24.268.23.263.466.525c.087.097.18.189.267.285.038.042.079.09.12.131l.346.373.143.143q.312.326.628.638l18.61-18.524q-.309-.32-.607-.651z"/><path fill="#4c5930" d="M55.648 69.515c-.208.16-.41.323-.622.48l.046.078 13.572 22.422a45 45 0 0 0 1.854-1.274 45 45 0 0 0 3.811-3.133l-18.586-18.5z"/><path fill="#91d400" d="M66.956 93.545q.093-.047.18-.102l-.004-.004q-.087.054-.176.106m-.037.019-.004.005c.004-.005.01-.005.014-.01-.005.005-.005.005-.01.005"/><path fill="#91d400" d="M66.956 93.545c.06-.035.12-.064.18-.101q-.09.054-.18.101m-.284-.868-.462-.76-12.67-20.932q-.381.231-.779.434c-.263.143-.531.272-.798.401a18.05 18.05 0 0 1-7.704 1.735 18 18 0 0 1-5.132-.743c-.28-.088-.558-.198-.839-.296-.28-.1-.567-.184-.844-.299l-9.342 22.578-.366.887-.312.76h-.005l.073.028c.028.015.051.02.078.032h.006c.005 0 .008.005.013.005.222.092.442.172.664.254q.422.165.836.319c.142.05.281.114.425.16a45 45 0 0 0 9.033 2.155c.123.014.245.033.363.047l.378.042q.354.042.711.078l.176.014q.442.04.877.073c.096.005.198.01.295.019.259.019.512.031.766.046q.234.006.47.019c.204.004.405.013.608.018.291.01.586.01.882.014h.208c2.459 0 4.918-.203 7.35-.61l.124-.018q.382-.07.77-.138c.148-.028.291-.055.438-.088q.224-.042.453-.092.375-.078.747-.166l.14-.028a44.7 44.7 0 0 0 10.619-3.945c.221-.115.434-.244.655-.364q.389-.216.775-.437c.18-.102.364-.195.54-.301l.005-.005h.005l.004-.004q.005 0 .004-.005h.005q.007-.005.01-.005l.026-.019q.092-.052.176-.106zm-33.75-50.812c.203-.167.412-.324.618-.48l-.046-.079-13.568-22.422a41 41 0 0 0-1.863 1.278 44 44 0 0 0-3.803 3.129l18.59 18.5z"/><path fill="#4c5930" d="M12.969 24.522c-.213.213-.41.428-.618.64-.203.213-.417.427-.618.642a45 45 0 0 0-3.922 4.872c-.125.185-.255.369-.378.555q-.196.29-.383.586A43.83 43.83 0 0 0 .038 53.91q-.015.444-.023.89c-.006.295-.015.59-.015.886h26.327c0-.295.026-.59.039-.886.015-.3.02-.595.051-.89a17.73 17.73 0 0 1 3.969-9.541c.188-.227.4-.443.598-.66.203-.222.389-.448.6-.66zm54.32-6.505q-.402-.241-.808-.475-.205-.12-.41-.231l-.41-.23q-.356-.197-.716-.384a1 1 0 0 1-.11-.06 45 45 0 0 0-4.748-2.123c-.042-.018-.088-.03-.13-.046a44.3 44.3 0 0 0-9.933-2.482l-.368-.05-.37-.042a38 38 0 0 0-.917-.092 49 49 0 0 0-.85-.073l-.33-.02c-.241-.017-.49-.031-.73-.046l-.388-.013v26.265c1.36.14 2.7.431 3.995.867l19.424-19.33a49 49 0 0 0-2.2-1.435"/><path fill="#68a338" d="M43.39 11.632c-.295.005-.595.005-.89.018a45 45 0 0 0-5.563.566c-.042.011-.083.016-.125.024-.259.043-.513.093-.77.14l-.438.082c-.154.031-.305.059-.453.097q-.444.092-.886.194a44.8 44.8 0 0 0-10.625 3.94c-.217.115-.434.247-.65.368q-.387.212-.78.435c-.189.11-.383.212-.578.327h-.003a.2.2 0 0 1-.042.024c-.05.03-.102.054-.152.087l.004.005.457.76 13.13 21.693c.254-.156.517-.295.78-.434a17.9 17.9 0 0 1 6.694-2.043q.441-.047.89-.074c.295-.013.595-.027.895-.027V11.613c-.3 0-.595.01-.895.019"/><path fill="#4c5930" d="m88.516 53.523-.042-.707c-.01-.12-.014-.236-.023-.354l-.07-.832a3 3 0 0 1-.018-.212q-.047-.464-.101-.927l-.008-.074q.001-.018-.006-.037a35 35 0 0 0-.134-.996q.001-.02-.004-.033a43.4 43.4 0 0 0-1.666-7.178 1 1 0 0 1-.036-.125c-.098-.285-.19-.567-.292-.849-.027-.074-.05-.152-.078-.23q-.194-.54-.401-1.074a73 73 0 0 0-.43-1.082c-.064-.156-.134-.308-.198-.465l-.263-.595-.152-.337c-.107-.235-.222-.474-.332-.71q-.055-.107-.102-.213a105 105 0 0 0-.46-.918c-.154-.295-.306-.59-.467-.881l-.014-.027a44 44 0 0 0-2.52-4.07L61.273 49.933c.439 1.29.73 2.625.867 3.98h26.39z"/><path fill="#68a338" d="M62.242 55.687c0 .301-.028.596-.042.89-.014.296-.019.595-.05.89a17.74 17.74 0 0 1-3.97 9.542c-.189.227-.395.443-.598.66-.199.221-.388.448-.6.66l18.616 18.526c.213-.212.41-.43.618-.641.203-.216.415-.429.614-.646a44 44 0 0 0 3.773-4.65q.069-.099.13-.19.209-.299.41-.6c.12-.179.24-.353.355-.534.056-.088.111-.18.167-.264a43.75 43.75 0 0 0 6.86-21.867c.014-.295.019-.59.028-.886.004-.295.013-.59.013-.89z"/><path fill="#3f3f42" d="M96.388 3.829c-4.818-4.793-12.624-4.793-17.44 0-3.844 3.82-4.61 9.537-2.32 14.126L49.76 44.695c-4.613-2.273-10.358-1.51-14.2 2.313-4.817 4.794-4.813 12.567 0 17.362 4.82 4.793 12.627 4.788 17.444 0a12.23 12.23 0 0 0 2.32-14.133L82.19 23.498c4.613 2.28 10.352 1.513 14.197-2.312a12.23 12.23 0 0 0 0-17.357"/></g><defs><clipPath id="a"><path fill="#fff" d="M0 0h100v100H0z"/></clipPath></defs></g></svg>