<svg xmlns="http://www.w3.org/2000/svg" fill="none" viewBox="0 0 512 512"><g transform="translate(30.72 30.72) scale(4.506)"><g clip-path="url(#a)"><path fill="url(#b)" d="m68.469 9.015-3.654 6.265a2.24 2.24 0 0 1-3.072.807 2.246 2.246 0 0 1-.808-3.07l2.334-4.002h-6.562c0 .383-.087.77-.292 1.125L46.319 27.577C43.843 31.87 38.53 34.36 34.4 34.36h-3.232a2.247 2.247 0 0 1 0-4.491H34.4c2.927 0 6.282-2.08 7.948-4.392q1.665-2.313 9.527-16.461H45.91c-9.423 20.292-15.037 16.362-31.88 16.362-1.115 1.689-2.236 3.383-3.332 5.053h11.754a2.246 2.246 0 0 1 0 4.491H7.77q-1.435 2.22-2.828 4.469l36.897-.259-1.651.001c2.234.045 5.849-1.262 7.599-4.013l8.7-13.75a2.245 2.245 0 1 1 3.794 2.401l-8.703 13.756c-2.623 4.122-7.589 6.163-11.457 6.097l-37.846.278C.521 47.056 0 49.118.022 50.08h50.169l25.597-39.3c-1.616-.932-3.93-1.685-6.891-1.765z"/><path fill="url(#c)" d="M50.19 50.081H.023c-.161 2.38.58 4.851 1.976 7.022h33.59q7.839-.86 13.911 6.52l8.423 13.618a2.245 2.245 0 1 1-3.8 2.393q-7.789-12.628-9.488-14.285c-1.697-1.658-3.87-3.741-9.047-3.741H4.82l2.997 4.759h11.994a2.246 2.246 0 1 1 0 4.492h-9.167l2.825 4.486c20.211 0 23.02 2.246 29.958 15.64h5.888q-7.543-13.469-9.532-15.89c-1.99-2.421-4.67-4.237-8.141-4.237h-3.116a2.246 2.246 0 0 1 0-4.49h3.116c4.762 0 10.106 3.058 12.034 6.781l10.657 17.438q.112.194.18.398h8.03l-2.566-4.398a2.246 2.246 0 1 1 3.88-2.263l3.886 6.661h1.975c1.565.005 2.71-.162 4.947-1.604z"/><path fill="url(#d)" d="m75.788 10.78-3.12 4.748 3.865 5.797a2.245 2.245 0 0 1-3.736 2.492l-2.808-4.211-3.1 4.716L77.964 42.45a13.05 13.05 0 0 1-.031 13.718q-.051.08-.107.157l-1.357 1.831a2.24 2.24 0 0 1-1.806.909 2.243 2.243 0 0 1-2.177-2.792c.072-.286.2-.555.375-.792l1.297-1.75a8.57 8.57 0 0 0-.026-8.94L64.16 28.474 49.962 50.08l11.166-16.832 5.515 8.518a13.18 13.18 0 0 1-.029 14.362l-6.546 10.028L49.962 50.08l12.991 20.668 5.985-7.98a2.247 2.247 0 0 1 3.594 2.695l-7.019 9.357 3.414 5.43 16.546-26.124a9.33 9.33 0 0 0 .054-9.842l-8-12.955a2.247 2.247 0 0 1 3.821-2.36l8.002 12.955c2.75 4.452 2.717 10.185-.082 14.606L71.79 84.125q-.106.162-.236.305l3.109 4.95q2.034-1.605 2.894-2.696 9.885-12.52 20.577-30.086c2.441-4.01 2.504-8.978.09-12.977-9.188-15.207-19.394-31.332-22.438-32.84z"/></g><defs><linearGradient id="b" x1="50.883" x2="43.238" y1="35.578" y2="22.86" gradientUnits="userSpaceOnUse"><stop stop-color="#520bf5"/><stop offset="1" stop-color="#9d1fe0"/></linearGradient><linearGradient id="c" x1="50.371" x2="41.067" y1="64.395" y2="79.246" gradientUnits="userSpaceOnUse"><stop stop-color="#9e1fa7"/><stop offset="1" stop-color="#e540ae"/></linearGradient><linearGradient id="d" x1="100" x2="64.96" y1="50.08" y2="50.08" gradientUnits="userSpaceOnUse"><stop stop-color="#4b6af2"/><stop offset="1" stop-color="#4ca7eb"/></linearGradient><clipPath id="a"><path fill="#fff" d="M0 0h100v100H0z"/></clipPath></defs></g></svg>