<svg xmlns="http://www.w3.org/2000/svg" fill="none" viewBox="0 0 512 512"><g transform="translate(30.72 31.16) scale(4.506)"><path fill="#3c6eb4" d="M72.803 46.72c.116.725.234 1.449.377 2.157h6.996V46.72zm1.16 5.388c.144.495.297.988.467 1.479q.609.302 1.185.68h8.868v-2.159zm-14.4 1.002c-.333.12-.659.262-.978.416v.003c.32-.155.645-.298.978-.42M27.338 80.117v2.157h25.904v-2.157zm15.086 5.388v2.15H63.75v-2.15z"/><path fill="#ccc" d="M47.746 12.703c-3.836 0-7.595.443-9.833 1.334-6.164 2.256-10.899 8.418-12.302 15.883-1.848 8.739-1.737 15.579-3.572 22.014.839-.64 1.768-1.15 2.757-1.516 1.433-.567 3.835-.851 6.289-.851s4.96.285 6.586.851c3.571 1.305 6.389 4.657 7.555 8.816h7.593c1.555-2.876 3.93-5.096 6.744-6.124 3.062-1.214 10.286-1.21 13.764 0 .377.138.744.305 1.105.484-2.393-6.927-2.089-14.18-4.096-23.674-1.402-7.465-6.138-13.627-12.301-15.883-2.543-.888-6.454-1.333-10.29-1.334"/><path fill="#e7e8e9" d="M35.371 38.896c-.692 0-1.356.291-1.845.807a2.83 2.83 0 0 0-.764 1.945c0 .73.274 1.43.764 1.945.489.516 1.153.807 1.845.807s1.356-.29 1.846-.807a2.83 2.83 0 0 0 .764-1.945c0-.73-.275-1.429-.764-1.945a2.55 2.55 0 0 0-1.846-.807m26.398 0c-.692 0-1.356.291-1.845.807a2.83 2.83 0 0 0-.764 1.945c0 .73.275 1.43.764 1.945.49.516 1.153.807 1.845.807.344.001.684-.07 1.002-.208a2.6 2.6 0 0 0 .849-.596c.243-.256.436-.56.567-.893a2.88 2.88 0 0 0 0-2.11 2.8 2.8 0 0 0-.567-.893 2.6 2.6 0 0 0-.85-.596 2.5 2.5 0 0 0-1-.208"/><path fill="#a7a9ac" d="m39.77 39.614-9.71 2.603.278 1.04 9.711-2.603zm18.375 0-.28 1.04 9.709 2.603.28-1.04zm-17.403 1.569-9.765 5.64.539.931 9.763-5.639zm16.436 0-.539.932 9.764 5.64.54-.933zm-15.722 1.87-6.725 6.734q.686.09 1.31.212l6.176-6.184zm15.007 0-.76.762 8.444 8.457q.72-.046 1.461-.062zm-14.68 2.452-3.092 5.36q.482.237.941.524l3.084-5.346zm14.355 0-.934.538 4.13 7.162c.077-.03.151-.066.23-.094.242-.096.519-.182.81-.263z"/><path fill="#fff" d="M57.235 39.718a7.65 7.65 0 0 1-.638 3.055 8 8 0 0 1-1.818 2.59 8.4 8.4 0 0 1-2.722 1.73 8.8 8.8 0 0 1-3.21.608 8.8 8.8 0 0 1-3.21-.607 8.4 8.4 0 0 1-2.721-1.73 8 8 0 0 1-1.819-2.59 7.65 7.65 0 0 1-.638-3.056c0-1.048.217-2.086.639-3.054a8 8 0 0 1 1.818-2.59 8.4 8.4 0 0 1 2.722-1.73 8.8 8.8 0 0 1 3.21-.608c2.224 0 4.357.842 5.93 2.339s2.457 3.526 2.457 5.643"/><path fill="gray" d="M52.428 38.28c-.282-.728-.282-2.186-1.125-2.186-.844 0-1.625-.547-2.455-.547s-1.61.547-2.455.547c-.844 0-.844 1.458-1.125 2.187s3.58 3.097 3.58 3.097 3.86-2.369 3.58-3.097"/><path fill="#3c6eb4" d="M44.843 58.04c.258.691.461 1.413.62 2.156h6.874a15.4 15.4 0 0 1 1.199-2.158zm34.513 0a15.6 15.6 0 0 1 1.197 2.156h8.65V58.04z"/><path fill="#ccc" d="M31.085 49.567c-2.453 0-4.856.284-6.289.851-3.942 1.44-6.966 5.374-7.863 10.137-.469 2.208-.738 4.212-.967 6.1h30.536c-.23-1.888-.492-3.892-.961-6.1-.896-4.763-3.927-8.695-7.87-10.136-1.627-.566-4.133-.852-6.586-.852"/><path fill="#e7e8e9" d="M23.174 66.282c-.356.011-.7.142-.98.373h2a1.62 1.62 0 0 0-1.02-.372m16.89 0c-.356.011-.7.142-.98.373h2.001a1.62 1.62 0 0 0-1.02-.372"/><path fill="#a7a9ac" d="m25.94 66.553-.379.101h.406zm11.852 0-.027.101h.406z"/><path fill="#fff" d="M31.796 61.719a5.52 5.52 0 0 0-3.726 1.44 4.98 4.98 0 0 0-1.623 3.495h10.69a4.98 4.98 0 0 0-1.621-3.492 5.52 5.52 0 0 0-3.72-1.443"/><path fill="gray" d="M31.795 64.146c-.53 0-1.029.352-1.568.352s-.544.928-.724 1.392c-.062.163.21.456.575.765h3.434c.365-.309.631-.602.568-.764-.18-.465-.177-1.393-.717-1.393-.539 0-1.036-.352-1.568-.352"/><path fill="#892ca0" d="m71.669 1.146-43.546.128a1.08 1.08 0 0 0-.838.406L.23 35.846a1.08 1.08 0 0 0-.203.906l9.813 42.47a1.08 1.08 0 0 0 .588.731l39.285 18.798a1.08 1.08 0 0 0 .934-.008l39.178-19.027a1.08 1.08 0 0 0 .581-.737l9.568-42.525a1.08 1.08 0 0 0-.21-.906L72.516 1.544a1.08 1.08 0 0 0-.847-.398m-.514 2.156 26.602 33.187-9.34 41.518L50.18 96.582 11.828 78.236 2.246 36.773 28.65 3.423z"/><path fill="#ccc" d="M83.315 74.794c-.473-3.222-.703-6.727-1.577-10.85-.96-5.092-4.198-9.296-8.412-10.835-3.478-1.211-10.701-1.215-13.763 0-4.215 1.539-7.453 5.743-8.412 10.835-.874 4.124-1.104 7.628-1.578 10.85"/><path fill="#e7e8e9" d="M57.828 70.068c-.235 0-.467.05-.684.144a1.8 1.8 0 0 0-.58.407 1.9 1.9 0 0 0-.386.61 1.96 1.96 0 0 0 .387 2.048c.165.174.362.313.58.407a1.71 1.71 0 0 0 1.946-.407c.335-.353.523-.83.522-1.329 0-.498-.187-.976-.522-1.328a1.74 1.74 0 0 0-1.263-.552m18.055 0c-.235 0-.468.05-.684.144a1.8 1.8 0 0 0-.58.407 1.9 1.9 0 0 0-.387.61 1.96 1.96 0 0 0 .387 2.048c.166.174.363.313.58.407a1.71 1.71 0 0 0 1.947-.407c.334-.353.522-.83.522-1.329 0-.498-.188-.976-.523-1.328a1.74 1.74 0 0 0-1.262-.552"/><path fill="#a7a9ac" d="m60.792 70.394-6.64 1.779.28 1.04 6.638-1.779zm12.653 0-.28 1.04 6.641 1.78.28-1.041zM61.414 71.48l-6.675 3.849.537.932 6.675-3.847zm11.41 0-.539.934 6.674 3.847.54-.932z"/><path fill="#fff" d="M72.779 70.633c0 1.444-.604 2.829-1.68 3.85a5.9 5.9 0 0 1-4.056 1.595 5.9 5.9 0 0 1-4.057-1.595c-1.075-1.021-1.68-2.406-1.68-3.85s.605-2.83 1.68-3.85a5.9 5.9 0 0 1 4.057-1.596c1.521 0 2.98.575 4.056 1.596a5.3 5.3 0 0 1 1.68 3.85"/><path fill="gray" d="M69.49 69.65c-.192-.497-.192-1.493-.77-1.493-.576 0-1.108-.371-1.677-.371-.568 0-1.102.372-1.68.372-.576 0-.576.995-.769 1.492-.192.497 2.449 2.113 2.449 2.113s2.64-1.616 2.447-2.113"/><path fill="#60605b" d="M48.848 30.93c-5.047 0-9.195 3.924-9.195 8.791s4.148 8.79 9.195 8.79c5.049 0 9.196-3.922 9.196-8.79s-4.149-8.79-9.196-8.79m0 1.617c4.218 0 7.58 3.225 7.58 7.174s-3.362 7.174-7.58 7.174c-4.217 0-7.58-3.224-7.58-7.174 0-3.949 3.364-7.174 7.58-7.174m-17.053 28.36c-3.323 0-6.078 2.546-6.168 5.746h1.617c.087-2.28 2.06-4.13 4.551-4.13s4.463 1.85 4.55 4.13h1.616c-.088-3.199-2.844-5.747-6.166-5.747m35.25 3.474c-3.583 0-6.547 2.78-6.547 6.248s2.964 6.255 6.546 6.255 6.547-2.787 6.547-6.255-2.963-6.248-6.547-6.248m0 1.616c2.753 0 4.93 2.084 4.93 4.633 0 2.547-2.177 4.638-4.93 4.638-2.755 0-4.93-2.091-4.93-4.639s2.176-4.632 4.93-4.632"/><path fill="#3c6eb4" d="M12.47 66.655v2.156h37.861q.14-1.05.318-2.157zm19.183 8.08v2.15h55.988v-2.15h-4.332l.008.06H49.573l.008-.06z"/><path fill="#000" d="M47.747 11.896h-.002c-3.892 0-7.68.425-10.12 1.393-6.472 2.377-11.35 8.77-12.801 16.465-1.291 6.106-1.633 11.27-2.32 15.944-.293 1.999-.655 3.902-1.169 5.763-2.626 2.075-4.511 5.286-5.201 8.946-.482 2.276-.748 4.328-.98 6.247h1.624c.225-1.852.487-3.797.94-5.93l.006-.008v-.014c.851-4.518 3.726-8.197 7.35-9.52l.014-.007.006-.007c1.229-.487 3.6-.792 5.99-.792 2.389 0 4.853.298 6.316.806 3.62 1.325 6.493 5.004 7.344 9.52v.014l.006.008c.453 2.133.715 4.079.94 5.93h1.624c-.232-1.92-.498-3.977-.98-6.255-.945-5.005-4.126-9.183-8.386-10.738h-.006l-.007-.008c-1.79-.622-4.336-.89-6.851-.892-2.511 0-4.944.26-6.578.906a11 11 0 0 0-1.18.522q.474-2.112.78-4.254c.7-4.767 1.028-9.87 2.293-15.85l.007-.007v-.013c1.357-7.219 5.943-13.13 11.786-15.269l.008-.006h.012c2.035-.81 5.762-1.278 9.535-1.277 3.768 0 7.628.455 10.008 1.284 5.844 2.138 10.43 8.049 11.784 15.267l.008.016v.006c1.264 5.98 1.6 11.082 2.3 15.849.314 2.147.723 4.226 1.312 6.277-1.87-.566-4.378-.82-6.871-.82-2.68 0-5.271.281-7.005.967-4.527 1.656-7.91 6.094-8.919 11.421-.887 4.186-1.123 7.718-1.59 10.893l1.602.237c.48-3.268.702-6.74 1.562-10.8l.008-.007v-.006c.913-4.847 4.003-8.81 7.899-10.23h.005l.014-.009c1.328-.526 3.864-.851 6.424-.851 2.559 0 5.194.318 6.77.865h.007c3.888 1.427 6.97 5.383 7.883 10.225v.014c.86 4.059 1.087 7.53 1.568 10.798l1.604-.236c-.467-3.176-.704-6.708-1.59-10.894-.895-4.732-3.666-8.76-7.445-10.763-.785-2.354-1.266-4.76-1.642-7.318-.685-4.672-1.025-9.831-2.313-15.93-1.449-7.709-6.33-14.12-12.814-16.493h-.014c-2.706-.946-6.657-1.379-10.555-1.38m-12.164 9.737a5.4 5.4 0 0 0-4.302 2.096l-.494.636 1.286.988.493-.643a3.84 3.84 0 0 1 2.806-1.46 3.82 3.82 0 0 1 2.792 1.082l.575.575 1.143-1.15-.575-.568a5.4 5.4 0 0 0-3.726-1.555zm26.072 0a5.4 5.4 0 0 0-3.727 1.556l-.575.568 1.137 1.15.576-.575a3.83 3.83 0 0 1 2.792-1.082 3.85 3.85 0 0 1 2.813 1.46l.494.643 1.278-.988-.494-.636a5.39 5.39 0 0 0-4.294-2.096m-26.113 7.12a4 4 0 0 0-2.855 1.215 4.2 4.2 0 0 0-1.183 2.93c0 1.1.425 2.153 1.183 2.93a4 4 0 0 0 2.855 1.215 3.95 3.95 0 0 0 1.546-.314c.49-.208.937-.513 1.312-.898.376-.385.674-.842.877-1.346a4.24 4.24 0 0 0 0-3.174 4.2 4.2 0 0 0-.877-1.345 4 4 0 0 0-1.312-.898 3.95 3.95 0 0 0-1.546-.314m26.146 0a4 4 0 0 0-2.854 1.215 4.2 4.2 0 0 0-1.182 2.93c0 1.1.425 2.153 1.182 2.93a4 4 0 0 0 2.854 1.215 4 4 0 0 0 2.855-1.214 4.2 4.2 0 0 0 1.183-2.93 4.2 4.2 0 0 0-1.183-2.93 4 4 0 0 0-2.855-1.215m-12.84 5.985c-.592 0-1.077.182-1.48.318-.404.137-.726.23-.975.23a1.53 1.53 0 0 0-1.115.528c-.236.284-.347.578-.433.858-.172.557-.256 1.123-.332 1.32-.173.448-.007.805.13 1.04s.304.418.492.61c.378.379.857.76 1.34 1.114.494.362.99.692 1.359.933l-.02.325c-.182.148-.625.541-1.36.79-.434.146-.871.199-1.25.102-.323-.083-.645-.367-.974-.798.02-.17.029-.24.067-.52.068-.49.166-1.084.211-1.26l-1.57-.392c-.093.375-.173.922-.243 1.43-.07.505-.122.94-.122.94l-.034.288.156.243c.57.895 1.329 1.438 2.11 1.638s1.539.079 2.172-.135a6.8 6.8 0 0 0 1.858-1.008c.37.282 1.034.73 1.852 1.008.633.214 1.383.335 2.164.135s1.541-.742 2.11-1.638l.156-.242-.034-.29s-.052-.434-.122-.94c-.07-.508-.151-1.054-.244-1.429l-1.568.393c.043.175.142.768.21 1.259.038.276.047.344.067.514-.331.434-.648.721-.974.805-.38.096-.816.043-1.25-.103-.735-.249-1.178-.642-1.36-.79l-.014-.304a30 30 0 0 0 1.393-.953c.483-.356.961-.737 1.34-1.117a3 3 0 0 0 .492-.608c.139-.235.303-.592.13-1.04-.077-.196-.166-.763-.338-1.321-.086-.278-.19-.574-.426-.859a1.53 1.53 0 0 0-1.116-.526c-.247 0-.57-.094-.973-.23-.404-.136-.888-.318-1.481-.318m0 1.616c.239 0 .555.093.962.23.373.126.843.265 1.378.29.018.028.066.118.115.278.087.281.175.71.297 1.129-.039.053-.086.12-.188.223-.267.268-.703.617-1.15.946-.688.505-1.118.768-1.413.954-.293-.185-.732-.446-1.421-.954a10.5 10.5 0 0 1-1.143-.946c-.103-.104-.148-.17-.187-.223.12-.418.21-.847.295-1.129a1.3 1.3 0 0 1 .117-.277c.534-.025.997-.165 1.371-.292.405-.136.73-.229.968-.229m-25.736 18.62a3.73 3.73 0 0 0-2.786 1.449l-.493.642 1.277.988.495-.644a2.2 2.2 0 0 1 1.582-.818 2.17 2.17 0 0 1 1.568.608l.575.568 1.136-1.149-.575-.568a3.75 3.75 0 0 0-2.78-1.076m17.06 0a3.73 3.73 0 0 0-2.773 1.076l-.574.568 1.135 1.149.576-.568a2.17 2.17 0 0 1 1.568-.609 2.2 2.2 0 0 1 1.583.819l.486.644 1.285-.988-.494-.642a3.74 3.74 0 0 0-2.791-1.449m35.629 3.057H75.8a3.95 3.95 0 0 0-2.724 1.137l-.575.567 1.137 1.149.573-.567a2.37 2.37 0 0 1 1.719-.662 2.38 2.38 0 0 1 1.73.892l.494.642 1.279-.986-.495-.643a3.92 3.92 0 0 0-2.936-1.523zm-17.832 0q-.1 0-.203.007a3.94 3.94 0 0 0-2.942 1.522l-.492.643 1.284.987.492-.643a2.38 2.38 0 0 1 1.725-.892 2.38 2.38 0 0 1 1.725.662l.575.568 1.136-1.149-.575-.568a3.95 3.95 0 0 0-2.724-1.137m-34.689 1.78a2.55 2.55 0 0 0-1.825.774 2.7 2.7 0 0 0-.562 2.883c.13.322.32.614.56.86.239.246.524.442.838.575a2.53 2.53 0 0 0 2.818-.575c.24-.246.43-.538.56-.86a2.7 2.7 0 0 0-.563-2.883 2.55 2.55 0 0 0-1.826-.775m16.729 0a2.5 2.5 0 0 0-.99.199 2.6 2.6 0 0 0-.84.572 2.7 2.7 0 0 0-.563.859 2.7 2.7 0 0 0 .56 2.89c.24.246.526.441.84.574A2.53 2.53 0 0 0 41 64.904a2.6 2.6 0 0 0 .839-.575c.24-.246.43-.538.56-.86a2.7 2.7 0 0 0-.563-2.883 2.55 2.55 0 0 0-1.825-.775m17.932 3.34a2.73 2.73 0 0 0-1.95.83 2.86 2.86 0 0 0-.808 1.996c0 .749.29 1.467.808 1.997a2.73 2.73 0 0 0 1.95.83A2.7 2.7 0 0 0 59 68.589c.336-.142.64-.35.897-.612a2.8 2.8 0 0 0 .6-.918 2.9 2.9 0 0 0 0-2.165 2.8 2.8 0 0 0-.6-.917 2.8 2.8 0 0 0-.897-.612 2.7 2.7 0 0 0-1.057-.214m17.885 0c-.363 0-.722.072-1.058.214-.335.142-.64.35-.897.612-.257.263-.46.574-.6.917a2.9 2.9 0 0 0 0 2.165c.14.343.343.655.6.918.257.262.561.47.897.612s.695.215 1.058.214a2.73 2.73 0 0 0 1.95-.829 2.863 2.863 0 0 0 0-3.994 2.73 2.73 0 0 0-1.95-.829m-44.032.19c-.443 0-.785.13-1.043.216q-.384.129-.526.128c-.367 0-.748.216-.94.447a1.75 1.75 0 0 0-.331.649c-.122.393-.18.754-.203.818-.161.416-.008.734.101.92.03.052.063.09.094.134h2.469a9 9 0 0 1-.359-.25 7 7 0 0 1-.703-.574v-.008c.05-.203.107-.447.142-.561.004-.013.003-.002.008-.012.286-.042.573-.1.763-.164.259-.087.439-.127.528-.127q.132-.003.52.128c.19.064.479.12.764.163.004.01.002 0 .006.012.036.114.1.357.149.562l-.007.007a7 7 0 0 1-.702.574q-.174.127-.351.25h2.468c.032-.043.064-.083.093-.134.11-.186.264-.504.102-.92-.024-.064-.088-.425-.211-.818a1.7 1.7 0 0 0-.33-.649c-.193-.231-.565-.447-.933-.447q-.142 0-.528-.128c-.258-.087-.598-.217-1.04-.217m35.249 3.637c-.461 0-.82.138-1.096.23q-.412.141-.581.141a1.34 1.34 0 0 0-.961.454c-.197.236-.28.47-.344.676-.128.413-.192.8-.223.879-.163.422-.005.742.107.933.113.192.242.328.38.467.276.276.61.537.946.784.277.203.548.387.778.542-.152.12-.355.287-.725.412-.266.09-.512.11-.71.06-.143-.036-.305-.203-.466-.384.013-.1.016-.105.034-.23.047-.332.113-.744.135-.832l-1.568-.392c-.072.288-.121.652-.17 1-.048.349-.08.65-.08.65l-.034.283.156.245c.416.654.998 1.077 1.594 1.23.597.152 1.16.055 1.624-.102a4.8 4.8 0 0 0 1.19-.616c.28.197.693.448 1.19.617.464.157 1.026.253 1.622.1.598-.152 1.18-.575 1.596-1.23l.157-.244-.035-.284-.088-.648c-.048-.349-.096-.713-.168-1l-1.569.391c.022.088.096.5.142.832.016.125.014.13.026.23-.16.18-.316.348-.46.385-.196.05-.444.028-.71-.062-.36-.121-.557-.284-.71-.406.235-.154.508-.34.792-.547.336-.247.67-.507.946-.784q.22-.21.379-.467c.112-.192.264-.512.102-.933-.032-.08-.097-.466-.225-.879a1.8 1.8 0 0 0-.336-.677 1.34 1.34 0 0 0-.96-.453c-.115 0-.305-.047-.582-.141s-.634-.23-1.095-.23m0 1.616q.16 0 .575.142.415.127.845.175c.01.022 0 .008.012.047.042.137.11.4.17.637l-.028.027q-.356.337-.757.621c-.395.29-.581.399-.817.548-.234-.149-.422-.257-.818-.547a7 7 0 0 1-.759-.622c-.017-.018-.01-.019-.025-.035.057-.233.12-.494.161-.628.013-.042.01-.026.02-.047q.427-.05.839-.176c.277-.094.474-.142.581-.142"/><path fill="#892ca0" d="M35.54 27.95a4.75 4.75 0 0 0-3.424 1.458 5 5 0 0 0-1.41 3.744 5 5 0 0 0 2.126 3.846q.488.338 1.043.548a4.73 4.73 0 0 0 4.75-.831 5 5 0 0 0 1.708-4.565 5 5 0 0 0-2.081-3.352 5 5 0 0 0-1.043-.547 4.7 4.7 0 0 0-1.668-.301zm26.148 0a4.76 4.76 0 0 0-2.898.99 5 5 0 0 0-1.845 4.952 5 5 0 0 0 1.319 2.5 4.8 4.8 0 0 0 2.448 1.356 4.73 4.73 0 0 0 4.059-1.035 5 5 0 0 0 1.735-4.316 5 5 0 0 0-.676-2.055 5 5 0 0 0-1.63-1.67 4.8 4.8 0 0 0-1.3-.564 4.7 4.7 0 0 0-1.212-.158M35.54 29.56a3.13 3.13 0 0 1 1.542.398 3.28 3.28 0 0 1 1.442 1.633c.149.36.234.745.25 1.135.019.397-.03.794-.142 1.175a3.4 3.4 0 0 1-.594 1.133 3.18 3.18 0 0 1-4.991-.002 3.4 3.4 0 0 1-.594-1.133 3.5 3.5 0 0 1 0-2c.124-.412.326-.796.594-1.132.263-.328.587-.602.953-.808a3.2 3.2 0 0 1 1.539-.4m26.148 0a3.17 3.17 0 0 1 2.055.757 3.36 3.36 0 0 1 1.162 2.238 3.5 3.5 0 0 1-.375 1.945 3.4 3.4 0 0 1-.787.983c-.24.203-.509.37-.797.497a3.15 3.15 0 0 1-2.514 0 3.28 3.28 0 0 1-1.721-1.773 3.5 3.5 0 0 1-.188-1.986c.085-.426.25-.832.486-1.197.233-.351.529-.656.874-.898.304-.21.642-.367.999-.462a3 3 0 0 1 .806-.105M23.194 59.005l-.088.001c-1.793.094-3.212 1.62-3.212 3.448 0 1.888 1.514 3.456 3.388 3.456s3.394-1.568 3.394-3.456-1.52-3.448-3.394-3.448zm16.729 0-.089.001c-1.793.094-3.219 1.62-3.219 3.448 0 1.888 1.52 3.456 3.395 3.456s3.388-1.568 3.388-3.456-1.514-3.448-3.388-3.448zm-16.641 1.617c.98 0 1.777.798 1.777 1.832s-.797 1.84-1.777 1.84-1.773-.805-1.773-1.84c0-1.034.793-1.832 1.773-1.832m16.728 0c.98 0 1.772.798 1.772 1.832s-.792 1.84-1.772 1.84-1.778-.805-1.778-1.84c0-1.034.798-1.832 1.778-1.832m17.932 1.718c-1.973 0-3.57 1.649-3.57 3.637 0 1.99 1.597 3.638 3.57 3.638s3.57-1.648 3.57-3.638c0-1.988-1.596-3.637-3.57-3.637m17.885 0c-1.972 0-3.57 1.649-3.57 3.637 0 1.99 1.598 3.638 3.57 3.638 1.973 0 3.57-1.648 3.57-3.638 0-1.988-1.596-3.637-3.57-3.637m-17.935 1.615.05.001c1.079 0 1.954.886 1.954 2.021S59.021 68 57.943 68s-1.955-.886-1.955-2.022c0-1.1.82-1.969 1.853-2.021zm17.884 0 .052.001c1.078 0 1.953.886 1.953 2.021S76.906 68 75.828 68s-1.955-.886-1.955-2.022c0-1.1.82-1.969 1.853-2.021z"/><path fill="#fff" d="M34.195 29.667c-.526 0-1.032.217-1.405.604a2.14 2.14 0 0 0-.433 2.251c.1.251.246.48.43.672.185.192.405.345.646.449a1.92 1.92 0 0 0 1.524 0c.242-.104.46-.257.646-.449.184-.192.33-.42.43-.672a2.14 2.14 0 0 0-.433-2.251 1.95 1.95 0 0 0-1.405-.604m26.135 0c-.526 0-1.032.217-1.404.604a2.14 2.14 0 0 0-.434 2.251c.1.251.246.48.43.672.186.192.405.345.647.449a1.92 1.92 0 0 0 1.523 0c.241-.105.46-.257.645-.45.184-.192.33-.42.43-.671a2.14 2.14 0 0 0-.433-2.25 1.95 1.95 0 0 0-1.404-.605M22.422 60.394c-.337 0-.66.139-.898.386a1.36 1.36 0 0 0 0 1.864q.179.186.413.286a1.23 1.23 0 0 0 .973 0 1.3 1.3 0 0 0 .412-.285q.178-.186.276-.428a1.36 1.36 0 0 0-.276-1.437 1.3 1.3 0 0 0-.412-.286 1.2 1.2 0 0 0-.487-.1zm16.89.189a1.2 1.2 0 0 0-.486.1 1.3 1.3 0 0 0-.412.286 1.3 1.3 0 0 0-.276.428 1.36 1.36 0 0 0 .276 1.437c.118.122.259.22.413.285a1.23 1.23 0 0 0 .973.001c.154-.066.295-.163.413-.286q.178-.185.276-.428a1.36 1.36 0 0 0-.276-1.438 1.3 1.3 0 0 0-.413-.286q-.234-.1-.488-.1m17.711 3.192c-.36 0-.705.148-.96.411a1.454 1.454 0 0 0-.002 1.993 1.32 1.32 0 0 0 1.483.306 1.3 1.3 0 0 0 .442-.306c.126-.13.226-.287.294-.458s.103-.355.103-.54a1.44 1.44 0 0 0-.4-.995 1.33 1.33 0 0 0-.96-.411m18.162.181c-.179 0-.356.037-.521.108a1.4 1.4 0 0 0-.442.307 1.4 1.4 0 0 0-.294.458 1.45 1.45 0 0 0 .297 1.536c.255.264.6.412.96.412s.705-.148.96-.412a1.45 1.45 0 0 0 .297-1.536 1.4 1.4 0 0 0-.294-.459 1.4 1.4 0 0 0-.442-.306 1.3 1.3 0 0 0-.521-.108"/></g></svg>