<svg xmlns="http://www.w3.org/2000/svg" fill="none" viewBox="0 0 512 512"><g transform="translate(15.2 10.967) scale(4.816)"><path fill="url(#a)" d="M31.305 97.499A95.1 95.1 0 0 0 79.93 71.432L12.67 4.165V78.86z"/><path fill="url(#b)" d="M12.668 78.86c41.254 0 74.695-33.441 74.695-74.695H12.668z"/><path fill="url(#c)" d="m12.668 78.86 2.875 2.874c20.26-.742 38.565-9.277 51.998-22.704l-2.047-2.046A74.45 74.45 0 0 1 12.668 78.86"/><path fill="url(#d)" d="M31.305 97.499A95.1 95.1 0 0 0 79.93 71.432L12.67 4.165V78.86z"/><path fill="url(#e)" d="M79.932 71.432 12.668 4.165l61.148 72.854a95 95 0 0 0 6.116-5.587"/><path fill="url(#f)" d="m12.668 4.165 52.816 52.82q.706-.708 1.392-1.435z"/><defs><radialGradient id="a" cx="0" cy="0" r="1" gradientTransform="matrix(8178.13 0 0 11348.1 6295.21 12728.4)" gradientUnits="userSpaceOnUse"><stop stop-color="#6877ec"/><stop offset=".6" stop-color="#5362cf"/><stop offset="1" stop-color="#4352b9"/></radialGradient><radialGradient id="b" cx="0" cy="0" r="1" gradientTransform="matrix(11894.7 0 0 11894.5 1051.95 -253.245)" gradientUnits="userSpaceOnUse"><stop stop-color="#00d5ff"/><stop offset=".38" stop-color="#00b8eb"/><stop offset="1" stop-color="#0080c5"/></radialGradient><radialGradient id="f" cx="0" cy="0" r="1" gradientTransform="matrix(4988.5 0 0 4860.75 3009.02 -386.064)" gradientUnits="userSpaceOnUse"><stop stop-color="#fff"/><stop offset="1"/></radialGradient><linearGradient id="c" x1="15.753" x2="49.496" y1="15.382" y2="89.618" gradientUnits="userSpaceOnUse"><stop stop-color="#294ca7"/><stop offset=".48" stop-color="#96a7d4"/><stop offset=".84" stop-color="#e1e6f3"/><stop offset="1" stop-color="#fff"/></linearGradient><linearGradient id="d" x1="-34.831" x2="78.457" y1="-19.883" y2="112.812" gradientUnits="userSpaceOnUse"><stop stop-color="#6877ec"/><stop offset=".29" stop-color="#97a1f2"/><stop offset=".77" stop-color="#e2e4fb"/><stop offset="1" stop-color="#fff"/></linearGradient><linearGradient id="e" x1="-21.912" x2="78.303" y1="-43.484" y2="75.936" gradientUnits="userSpaceOnUse"><stop stop-color="#8397cc"/><stop offset=".15" stop-color="#97a8d4"/><stop offset=".73" stop-color="#e2e6f3"/><stop offset="1" stop-color="#fff"/></linearGradient></defs></g></svg>