<svg xmlns="http://www.w3.org/2000/svg" fill="none" viewBox="0 0 512 512"><g transform="translate(30.72 30.72) scale(4.506)"><g clip-path="url(#a)"><path fill="#ed163a" d="M99.996 49.997c0 27.616-22.382 50.001-49.998 50.001S0 77.618 0 50C0 22.384 22.382.002 49.998.002 77.615.002 99.996 22.385 99.996 50"/><path fill="#d51c2f" d="m75.81 25.883-17.008-.156-9.94-9.945-11.672 7.754 2.016 2.011-4.727-.039-16.054 27.003h-6.289l3.945 3.954-3.976 6.695 36.831 36.826 1.066.011c27.589 0 49.959-22.35 49.998-49.927L75.813 25.88"/><path fill="#f5f5f5" d="M25.363 53.653a24.634 24.634 0 0 1 49.267 0zm55.376 1.133v-2.273h7.125a37.74 37.74 0 0 0-10.286-24.836l-5.324 5.325-1.606-1.61 5.32-5.324a37.73 37.73 0 0 0-24.834-10.284v7.125H48.86v-7.125a37.73 37.73 0 0 0-24.834 10.284l5.324 5.324-1.61 1.61-5.323-5.325A37.74 37.74 0 0 0 12.13 52.513h7.125v2.273h-7.16v8.34H87.89V54.79h-7.153"/></g><defs><clipPath id="a"><path fill="#fff" d="M0 0h100v100H0z"/></clipPath></defs></g></svg>