<svg xmlns="http://www.w3.org/2000/svg" fill="none" viewBox="0 0 512 512"><g transform="translate(30.72 30.72) scale(4.506)"><g clip-path="url(#a)"><path fill="#f26e7e" d="M18.872 84.797c3.698-2.136 3.705-9.049.016-15.442-3.693-6.391-9.684-9.843-13.383-7.709-3.696 2.136-3.705 9.048-.012 15.442 3.69 6.393 9.68 9.846 13.379 7.709"/><path fill="#893390" d="M94.515 77.096c3.69-6.39 3.684-13.305-.015-15.439-3.695-2.136-9.686 1.316-13.38 7.706-3.688 6.393-3.682 13.305.016 15.442 3.699 2.136 9.69-1.315 13.38-7.709"/><path fill="#f26e7e" d="M44.076 99.368c3.699-2.136 3.705-9.048.013-15.442-3.69-6.394-9.68-9.842-13.379-7.709-3.7 2.136-3.706 9.049-.012 15.442 3.69 6.393 9.68 9.846 13.378 7.71"/><path fill="#893390" d="M69.318 91.64c3.69-6.393 3.684-13.305-.016-15.442-3.698-2.132-9.685 1.318-13.378 7.709-3.69 6.394-3.683 13.306.015 15.442 3.696 2.137 9.686-1.315 13.38-7.708"/><path fill="#f6bf29" d="M49.988 15.466c7.382 0 13.366-3.464 13.366-7.732C63.354 3.46 57.37 0 49.987 0c-7.382 0-13.366 3.46-13.366 7.734 0 4.27 5.984 7.732 13.366 7.732"/><path fill="#f26e7e" d="M18.863 55.667c3.699-2.136 3.705-9.049.016-15.443-3.693-6.39-9.684-9.842-13.38-7.708-3.698 2.136-3.705 9.048-.015 15.442s9.68 9.845 13.38 7.709"/><path fill="#f6bf29" d="M24.79 29.998c7.382 0 13.366-3.464 13.366-7.733S32.17 14.53 24.789 14.53s-13.366 3.465-13.366 7.735 5.984 7.733 13.366 7.733"/><path fill="#893390" d="M94.5 47.974c3.69-6.39 3.687-13.305-.012-15.439-3.699-2.136-9.69 1.316-13.382 7.706-3.69 6.394-3.683 13.308.015 15.442 3.699 2.137 9.69-1.315 13.38-7.709"/><path fill="#f6bf29" d="M75.22 29.998c7.382 0 13.366-3.464 13.366-7.733s-5.984-7.735-13.367-7.735c-7.382 0-13.366 3.465-13.366 7.735s5.984 7.733 13.366 7.733"/><path fill="#f26e7e" d="M44.067 70.238c3.699-2.136 3.705-9.048.016-15.442-3.693-6.394-9.684-9.842-13.38-7.709-3.698 2.136-3.705 9.049-.015 15.442s9.68 9.846 13.379 7.709"/><path fill="#893390" d="M69.302 62.521c3.693-6.39 3.684-13.305-.012-15.439-3.699-2.136-9.69 1.316-13.382 7.705-3.69 6.394-3.683 13.306.015 15.443 3.699 2.136 9.69-1.315 13.38-7.709"/><path fill="#f6bf29" d="M49.988 44.564c7.382 0 13.366-3.464 13.366-7.733 0-4.273-5.984-7.734-13.367-7.734-7.382 0-13.366 3.461-13.366 7.734 0 4.269 5.984 7.733 13.366 7.733"/></g><defs><clipPath id="a"><path fill="#fff" d="M0 0h100v100H0z"/></clipPath></defs></g></svg>