<svg xmlns="http://www.w3.org/2000/svg" fill="none" viewBox="0 0 512 512"><g transform="translate(30.72 30.72) scale(4.506)"><path fill="#dfdedf" d="M82.82 56.065H17.078v-3.707a4.51 4.51 0 0 1 4.51-4.51h56.72a4.51 4.51 0 0 1 4.511 4.51z"/><path fill="#fff" d="M78.24 99.06H21.658a4.58 4.58 0 0 1-4.58-4.58V56.066H82.82V94.48a4.577 4.577 0 0 1-4.58 4.58"/><path fill="#00d8a2" d="m71.744 34.71 8.044-3.884v-3.884l-18.586-8.875 18.586-9.57V4.751l-7.767-3.605-22.005 10.956L27.638 1.146l-7.21 3.883v3.328l17.474 9.57-17.475 8.877v4.022l7.49 3.883 22.19-11.373z"/><path fill="#000" d="M27.868.055a.52.52 0 0 0-.463 0l-7.948 4.041a.52.52 0 0 0-.281.459v4.148c0 .196.11.375.286.463l5.626 2.78-1.104 12.069-4.443 2.205a.52.52 0 0 0-.286.453l-.073 4.078a.52.52 0 0 0 .281.47l3.69 1.866-.22 2.393-5.028 13.037a5 5 0 0 0-1.4 3.477v42.96A5.05 5.05 0 0 0 21.55 100h56.902a5.05 5.05 0 0 0 5.043-5.045v-42.96a5 5 0 0 0-1.256-3.32l-5.145-15.72 3.164-1.53a.52.52 0 0 0 .29-.466v-4.261a.52.52 0 0 0-.288-.463l-4.033-1.982-1.011-12.552 5.049-2.535a.52.52 0 0 0 .283-.461V4.623a.52.52 0 0 0-.28-.457L72.252.058a.52.52 0 0 0-.468-.001l-21.538 10.93a.52.52 0 0 1-.462.001zm-.224 1.832 22.372 11.597L72.014 1.891l5.602 2.869-20.37 10.25a1.108 1.108 0 0 0 .002 1.98l20.16 10.091-5.226 2.709-22.166-11.36-22.557 11.59-5.153-2.958 20.827-10.353c.825-.41.82-1.588-.011-1.989v.002L22.232 4.636zm51.164 4.221v1.843l-17.688 8.88c-.026-.016-1.865-.885-1.865-.885zm-57.633.11 19.481 9.717-1.97.787-17.511-8.67zm51.643 6.687.812 10.075-10.552-5.185zm-45.344.22 9.245 4.568-10.122 5.025zm23.411 8.082 20.129 9.945v2L50.885 22.84zm-1.74.003v1.63L28.506 33.284v-1.84zm.638 3.338a.52.52 0 0 1 .465.002l21.335 10.848a.52.52 0 0 0 .457.005l2.494-1.209 1.028 12.756H24.379l.998-10.896.594-1.54 1.744.883a.52.52 0 0 0 .465 0zm-28.868 3.723 5.851 3.358v1.338l-5.851-2.96zm57.894.043v1.879l-6.057 2.932v-1.672zm-1.083 14.56 1.347 4.118a5 5 0 0 0-.622-.044h-.399zm-55.621 1.657-.22 2.417h-.336a6 6 0 0 0-.383.02zm-.555 3.906h56.9a3.554 3.554 0 0 1 3.553 3.555v3.327H17.997v-3.325a3.555 3.555 0 0 1 3.552-3.556m.492 2.432a1.126 1.126 0 1 0 0 2.253 1.126 1.126 0 0 0 0-2.253m3.848 0a1.126 1.126 0 1 0 0 2.252 1.126 1.126 0 0 0 0-2.252m3.728 0a1.126 1.126 0 1 0 0 2.252 1.126 1.126 0 0 0 0-2.252m-11.621 5.94h64.006v38.145a3.555 3.555 0 0 1-3.552 3.555H21.549a3.554 3.554 0 0 1-3.552-3.555zm3.901 14.957v8.557h1.387v-3.247h1.79q.293 0 .555-.047t.495-.138c.305-.12.58-.307.803-.547a2.3 2.3 0 0 0 .505-.841q.083-.24.125-.513a3.8 3.8 0 0 0 0-1.148 3 3 0 0 0-.127-.512 2.3 2.3 0 0 0-.885-1.162 2.2 2.2 0 0 0-.43-.225 2.5 2.5 0 0 0-.49-.133 3 3 0 0 0-.55-.044zm35.336 1.046v1.705h-1.208v1.22h1.21v2.339q0 .283.036.529t.108.455q.073.21.184.384.11.174.258.313a1.9 1.9 0 0 0 .704.424q.204.07.434.107.23.035.49.035.173 0 .35-.025.18-.026.362-.077.183-.053.371-.131a4 4 0 0 0 .384-.184l-.43-1.244q-.233.128-.489.203a1.7 1.7 0 0 1-.448.069q-.098 0-.194-.016a1 1 0 0 1-.169-.046.66.66 0 0 1-.346-.32 1 1 0 0 1-.063-.166 1.6 1.6 0 0 1-.052-.424v-2.225h1.841v-1.22h-1.84v-1.705zm-33.949.402h1.79q.036 0 .068.002.157.005.31.043l.057.016q.03.009.055.019a.9.9 0 0 1 .325.209l.04.04q.07.084.13.179l.025.048.024.05q.023.052.042.105l.017.055.016.057.013.059q.024.125.027.25l.002.069-.002.067-.003.066-.006.064q-.007.062-.018.124l-.013.06-.016.055q-.04.138-.109.265-.041.072-.094.138l-.035.043v.001a.94.94 0 0 1-.42.267l-.056.016q-.121.031-.245.04a2 2 0 0 1-.133.006h-1.79zm15.686 1.133q-.28 0-.535.04-.25.038-.49.114c-.306.103-.59.262-.837.47v-.454h-1.492v8.325h1.492v-3.129q.19.153.401.268.212.114.445.19.234.075.486.114.255.04.53.04.28-.001.541-.056a2.5 2.5 0 0 0 .971-.423c.313-.222.582-.5.794-.82q.156-.24.258-.507a3 3 0 0 0 .153-.561 3.5 3.5 0 0 0 .051-.617 3 3 0 0 0-.05-.616 2.8 2.8 0 0 0-.413-1.072 3 3 0 0 0-.794-.829 2.5 2.5 0 0 0-.974-.422 2.7 2.7 0 0 0-.537-.054zm7.252 0q-.28 0-.536.04-.248.038-.489.114c-.306.103-.59.262-.838.47v-.454H42.87v8.325h1.491v-3.129q.19.153.402.268.212.114.446.19.231.075.486.114.253.04.529.04c.358 0 .713-.073 1.043-.214q.242-.105.468-.265.354-.25.627-.588a2.8 2.8 0 0 0 .579-1.3 3.5 3.5 0 0 0 .05-.617 2.8 2.8 0 0 0-.05-.616 3 3 0 0 0-.411-1.072 3 3 0 0 0-.363-.459 3 3 0 0 0-.434-.37 2.5 2.5 0 0 0-.974-.422 2.7 2.7 0 0 0-.535-.054zm6.359 0q-.31 0-.592.054a2.7 2.7 0 0 0-1.034.418 3 3 0 0 0-.812.818q-.16.241-.265.511a3 3 0 0 0-.159.57 3.6 3.6 0 0 0 .066 1.54q.078.278.21.536a2.9 2.9 0 0 0 .949 1.056c.309.21.66.353 1.028.42q.28.054.587.053.235 0 .459-.027.222-.027.43-.083.41-.109.772-.33.356-.222.623-.544.137-.162.248-.35.113-.189.2-.406l-1.333-.28a1.6 1.6 0 0 1-.252.324q-.142.14-.316.233a1.5 1.5 0 0 1-.383.14 2 2 0 0 1-.448.047q-.133 0-.254-.024a1.3 1.3 0 0 1-.45-.182 1.56 1.56 0 0 1-.633-.822 2 2 0 0 1-.075-.282h4.292v-.509a4 4 0 0 0-.072-.605 3 3 0 0 0-.169-.547 2.7 2.7 0 0 0-.628-.926 3 3 0 0 0-.437-.349 2.7 2.7 0 0 0-.996-.402 3 3 0 0 0-.556-.052m11.486 0a3 3 0 0 0-.592.054 2.7 2.7 0 0 0-1.034.418c-.24.163-.456.36-.639.585a2.7 2.7 0 0 0-.437.744 3 3 0 0 0-.16.57 3.6 3.6 0 0 0 .066 1.54q.078.278.21.536a2.9 2.9 0 0 0 .948 1.056c.31.21.66.352 1.03.42q.28.054.586.053.237 0 .46-.027.218-.026.43-.083c.272-.072.532-.183.77-.33a2.6 2.6 0 0 0 .625-.544c.188-.227.34-.482.448-.755l-1.332-.282a1.6 1.6 0 0 1-.253.325q-.14.14-.316.233a1.6 1.6 0 0 1-.384.14 2 2 0 0 1-.448.047q-.252 0-.488-.092a1.3 1.3 0 0 1-.415-.27 1.6 1.6 0 0 1-.433-.666 2 2 0 0 1-.075-.282h4.29v-.509a4 4 0 0 0-.071-.605 3 3 0 0 0-.168-.547 2.7 2.7 0 0 0-.63-.926 3 3 0 0 0-.437-.349 2.7 2.7 0 0 0-.993-.402 3 3 0 0 0-.557-.052zm6.698 0q-.31 0-.593.054c-.37.069-.72.211-1.034.418a3 3 0 0 0-.638.585 2.7 2.7 0 0 0-.438.744 3 3 0 0 0-.158.57 3.6 3.6 0 0 0 .066 1.54q.077.278.209.536a2.9 2.9 0 0 0 .948 1.056c.31.21.66.352 1.029.42q.281.054.586.053.238 0 .46-.027.22-.026.43-.083c.272-.072.532-.183.77-.33.36-.222.66-.53.873-.895q.111-.188.201-.404l-1.333-.282q-.105.18-.253.325-.142.14-.316.233-.175.095-.383.14a2 2 0 0 1-.45.047c-.165 0-.33-.032-.485-.092a1.3 1.3 0 0 1-.416-.27 1.56 1.56 0 0 1-.432-.666 2 2 0 0 1-.078-.282h4.293v-.509a4 4 0 0 0-.073-.605 3 3 0 0 0-.167-.547 2.7 2.7 0 0 0-.63-.926 3 3 0 0 0-.436-.349 2.7 2.7 0 0 0-.995-.402 3 3 0 0 0-.557-.052m7.5.092a2.3 2.3 0 0 0-.872.156 2.2 2.2 0 0 0-.737.467 3 3 0 0 0-.413.482V74.52h-1.491v5.635h1.49v-1.819q.002-.301.033-.567.03-.265.093-.492a2.3 2.3 0 0 1 .157-.414q.09-.184.22-.34a1.5 1.5 0 0 1 .628-.453 2 2 0 0 1 .408-.113q.234-.038.473-.037h.328l.078-1.435a1 1 0 0 0-.167-.036 2 2 0 0 0-.228-.01m-49.754.078v3.434q0 .264.039.5.037.238.115.45c.154.424.436.789.805 1.047q.18.124.385.207t.433.125q.23.043.484.043.274 0 .523-.043.246-.042.469-.126c.293-.112.559-.285.78-.508v.508h1.49v-5.637h-1.49v2.497q0 .243-.022.456a3 3 0 0 1-.064.396 2 2 0 0 1-.11.333 1.5 1.5 0 0 1-.153.273 1.1 1.1 0 0 1-.437.364 1.3 1.3 0 0 1-.285.09 1.6 1.6 0 0 1-.578.007 1 1 0 0 1-.577-.338q-.08-.09-.139-.194a1.3 1.3 0 0 1-.099-.226 1.6 1.6 0 0 1-.058-.257 2 2 0 0 1-.018-.283v-3.118zm10.199 1.13q.167 0 .332.029a1.6 1.6 0 0 1 .569.233l.062.046.061.046.06.054.058.055a1.5 1.5 0 0 1 .377.698q.045.17.057.347.02.275-.02.549a1.56 1.56 0 0 1-.309.739 1.52 1.52 0 0 1-1.077.575 1.55 1.55 0 0 1-1.033-.26 2 2 0 0 1-.37-.328 1.45 1.45 0 0 1-.302-.568 1.7 1.7 0 0 1-.06-.339q-.021-.27.021-.538.046-.245.157-.469a1.6 1.6 0 0 1 .424-.507 2 2 0 0 1 .263-.177 1.5 1.5 0 0 1 .73-.185m7.251 0q.167 0 .33.029a1.6 1.6 0 0 1 .57.233l.062.046.062.046.06.054.058.055q.166.172.267.39.072.147.112.308.063.263.06.533.004.268-.06.53a1.6 1.6 0 0 1-.379.692q-.166.166-.374.278a1.4 1.4 0 0 1-.436.153q-.241.045-.485.024a1.56 1.56 0 0 1-.71-.26 1.7 1.7 0 0 1-.255-.208 1.6 1.6 0 0 1-.297-.386 1.6 1.6 0 0 1-.12-.302 1.7 1.7 0 0 1-.06-.339q-.02-.27.022-.538.045-.245.158-.469a1.6 1.6 0 0 1 .423-.507 1.56 1.56 0 0 1 .992-.362m6.62 0q.095 0 .19.012l.057.008q.096.015.191.042.09.03.178.072l.054.027q.086.045.166.099a1.2 1.2 0 0 1 .362.423q.03.054.052.11l.023.06q.024.06.042.121l.018.064h-2.722q.026-.106.069-.208l.016-.038q.045-.1.106-.19.063-.087.14-.164l.033-.033q.077-.075.166-.134.084-.058.175-.104l.046-.023a2 2 0 0 1 .188-.075q.094-.03.192-.046l.06-.008q.099-.014.197-.015m11.486 0q.096 0 .19.012l.058.008q.096.015.19.042.091.03.178.072l.055.027q.085.045.166.099a1 1 0 0 1 .201.185l.037.043.034.045q.05.072.09.15.072.14.117.293l.017.064H62.68v-.002q.026-.106.069-.208l.017-.038q.045-.1.105-.19.063-.089.14-.165l.033-.032q.078-.075.167-.134.084-.058.174-.104l.047-.023q.092-.045.188-.075.095-.03.192-.046l.06-.008q.097-.014.197-.015m6.698 0q.096 0 .19.012l.058.008q.096.015.19.042.091.03.178.072l.055.027q.085.045.165.099c.153.11.278.255.363.423q.028.054.052.11l.023.06q.024.06.041.121l.018.064h-2.723q.025-.106.068-.208l.018-.038q.044-.1.105-.19.062-.087.138-.162l.041-.039a1.6 1.6 0 0 1 .338-.236l.04-.02q.094-.045.19-.076.098-.03.195-.046l.058-.008q.1-.014.2-.015"/></g></svg>