<svg xmlns="http://www.w3.org/2000/svg" fill="none" viewBox="0 0 512 512"><g transform="translate(30.72 30.72) scale(4.506)"><path fill="#f7f7f4" d="M42.992 23.023 28.62 28.232l14.162 5.137 14.377-5.217zM28.764 34.605l-14.37 5.216 14.162 5.13 14.375-5.21z"/><path fill="#efeeea" d="m28.62 28.233-.004 16.572 14.166 5.136V33.37zM14.395 39.822v16.572l14.161 5.138v-16.58z"/><path fill="#f7f7f4" d="m28.764 44.906-14.37 5.214 14.162 5.136 14.375-5.213zM14.537 56.5.167 61.709l14.161 5.136 14.367-5.207z"/><path fill="#efeeea" d="M14.394 50.12v16.577l14.162 5.136V55.257zM.167 61.71.162 78.285l14.167 5.136V66.846zm14.227 5.155V83.44l14.162 5.128V71.997zm14.227 5.15-.005 16.572 14.166 5.139V77.148z"/><path fill="#2f6491" d="m71.445 6.274-14.221 5.157-.006-.001-14.372 5.209-.003 16.571 14.167 5.137V21.775l14.213-5.16.013.006 14.375-5.21zm-28.453 27.04L28.62 38.525l14.162 5.137 14.376-5.214zM28.62 38.53l-.005 16.576 14.167 5.137V43.667zm0 16.74-.005 16.58 14.167 5.13V60.41z"/><path fill="#ffc91d" d="m71.297 23.078 14.166 5.136 14.375-5.212-14.166-5.137z"/><path fill="#ffd242" d="M99.838 23.006 85.46 28.213V44.79l14.377-5.212zm0 16.735L85.46 44.946v.002l-14.08 5.101v-.006l-14.37 5.213v16.577l14.227-5.162v.01l14.226-5.153v.003l14.375-5.209zM85.61 61.638l-14.23 5.156v-.005l-14.37 5.207v16.572l14.227-5.156v.01L85.61 78.21z"/><path fill="#3775a9" d="M85.612 11.416 71.38 16.572v-.008l-14.37 5.21v16.578l14.226-5.16v.009l14.376-5.214zm0 16.737-14.232 5.16v-.01l-14.37 5.205-14.228 5.16v16.576l14.228-5.156v.003l14.225-5.154v.004l14.376-5.208zM57.159 55.2l-14.377 5.21v16.57l14.376-5.208z"/><path fill="#fff" d="M63.196 25.007a2.7 2.7 0 0 0-.82.167c-1.524.554-2.762 2.31-2.762 3.926s1.237 2.477 2.761 1.925c1.525-.554 2.76-2.31 2.76-3.926 0-1.313-.815-2.13-1.94-2.092m36.643 31.476L85.46 61.696v16.576l14.377-5.212zM81.065 68.798c-.28.012-.557.068-.82.166-1.524.551-2.761 2.307-2.761 3.924 0 1.615 1.237 2.479 2.76 1.925 1.523-.551 2.76-2.31 2.76-3.927 0-1.31-.816-2.126-1.939-2.088M57.16 71.941l-14.377 5.208v16.576l14.376-5.213z"/><path fill="#ccc" d="M71.39 6.122 42.792 16.485a.16.16 0 0 0-.107.153l-.001 6.326-14.117 5.115a.16.16 0 0 0-.107.154l-.002 6.311L14.34 39.67a.16.16 0 0 0-.108.153v16.46L.11 61.558a.16.16 0 0 0-.105.152L0 78.286c0 .07.043.13.107.154l42.62 15.44a.16.16 0 0 0 .11 0l57.056-20.666a.16.16 0 0 0 .107-.153V23.003a.16.16 0 0 0-.107-.153l-14.061-5.1-.058-6.334v-.005a.16.16 0 0 0-.107-.152L71.5 6.122a.16.16 0 0 0-.11 0m.055.326 13.69 4.963-13.741 4.98-13.696-4.958zm14.003 5.2v16.228l-14.051 5.096V16.74zm-28.38.01 13.681 4.958-13.739 4.987-13.686-4.964zm14.005 5.185v16.36l.04.026-13.941 5.048V21.89zm-28.062.027 13.837 5.019v16.229l-13.843-5.02zm42.621 1.154 13.731 4.979-13.59 4.929c.095-3.413-.021-6.651-.141-9.908m14.044 5.215v16.226l-13.903 5.043V28.275zm-56.992.07-.003 9.852-13.583-4.928zM85.3 28.438v16.237L71.542 49.66V33.428zm-56.517.026 13.551 4.916-13.554 4.916.001-3.631v-.005zm14.21 5.022 13.69 4.964-13.901 5.04-13.687-4.964zm28.08.101v16.237L57.32 54.809V38.57zm-42.617 1.305-.002 9.85-13.585-4.92zm28.39 3.848v16.24l-13.901 5.036V43.782zm-28.063.022 13.837 5.019v16.234l-13.842-5.02zm70.893 1.212V56.21l-13.903 5.04V45.008zm-85.119.08 13.57 4.914-13.57 4.922zm70.742 5.125v16.237l-13.758 4.986V50.165zm-56.905.036v9.812L14.87 50.121zm42.68 5.114V66.56L57.17 71.603v-16.23zm-56.517.024 13.837 5.02v16.23l-13.837-5.02zm42.29 4.969v16.512l.045.031-13.948 5.055V60.41l-.028-.041zm-28.064.18 13.839 5.02v16.23L28.778 71.74zm70.893 1.212v16.234l-13.903 5.035V61.758zm-85.444.07v9.857L.643 61.711zm71.068 5.14v16.227c-5.844 2.12-3.214 1.167.402-.143l-14.16 5.13V66.91zm-84.972.019 13.838 5.018v16.227L.324 78.172zm70.745 5.13v16.228l-13.755 4.985V72.06zm-56.517.024 13.837 5.015v16.224l.384.14.005-16.23 13.838 5.016v16.233L14.557 83.329zm.001 16.232 13.836 5.01v-.003c17.6 6.386-7.006-2.536-13.836-5.007m42.288-11.102v16.227l-12.412 4.5-1.49.541v-16.23z"/></g></svg>