<svg xmlns="http://www.w3.org/2000/svg" fill="none" viewBox="0 0 512 512"><g transform="translate(-106.344 -110.718) scale(7.466)"><path fill="#696969" d="M24.619 23.749h47.893a2.349 2.349 0 0 1 0 4.697H24.62a2.35 2.35 0 0 1-2.347-2.347 2.35 2.35 0 0 1 2.347-2.35"/><path fill="#009fe3" d="M25.037 19h9.627v2.222h-9.627z"/><path fill="#c7d302" d="M37.631 19h9.629v2.222h-9.63z"/><path fill="#f07e16" d="M50.055 19h9.631v2.222h-9.631z"/><path fill="#df2815" d="M62.43 19h9.628v2.222H62.43zm0 11.89h9.628v16.278H62.43z"/><path fill="#f07e16" d="M50.055 30.89h9.65v26.443h-9.65z"/><path fill="#c7d302" d="M37.631 30.89h9.629v39.608h-9.63z"/><path fill="#009fe3" d="M25.037 30.89h9.627v48.275h-9.627z"/></g></svg>