<svg xmlns="http://www.w3.org/2000/svg" fill="none" viewBox="0 0 512 512"><g transform="translate(30.72 30.72) scale(4.506)"><g clip-path="url(#a)"><path fill="url(#b)" d="M67.188 43.538 18.96 53.648q-1.891.29-3.727.828a18.93 18.93 0 0 0-9.64 6.617C-8.805 79.796 6.64 104.24 28.719 99.374l52.906-7.664a22.1 22.1 0 0 0 13.617-9.375c13.641-20.367-4.023-45.844-28.055-38.797"/><path fill="url(#c)" d="M40.68 6.367C34.734.898 26-1.641 16.194 1.227a20.16 20.16 0 0 0-10.25 7.03C-3.906 21.093-.61 36.421 9.273 44.336L61.906 88.28a25.25 25.25 0 0 0 19.719 3.398 22.1 22.1 0 0 0 13.617-9.375c8.125-12.086 5.148-26.055-3.672-33.867z"/><path fill="url(#d)" d="M22.922.117a34 34 0 0 0-6.727 1.11 20.16 20.16 0 0 0-10.25 7.03c-15.32 19.868 1.086 45.884 24.587 40.704l63.07-23.79a7.25 7.25 0 0 0 4.468-3.062c3.907-5.89-.085-13.07-6.5-13.109L25.54 0c-.938 0-1.813.055-2.618.117"/><path fill="#000" d="M18.75 18.75h62.5v62.5h-62.5z"/><path fill="#fff" d="M26.563 69.532H50v3.906H26.563zm20.312-18.898-2.578-2.344a12.74 12.74 0 0 1-6.945 2C30.14 50.329 25 44.954 25 38.282c0-6.648 5.242-12.094 12.5-12.094s12.39 5.375 12.39 12.024v.07a12.03 12.03 0 0 1-2.07 6.71l2.407 2.04zm-6.383-5.68-3.773-3.242 3.273-3.672 3.836 3.476a8.1 8.1 0 0 0 .61-3.234 7.11 7.11 0 0 0-7.086-7.352c-4.141 0-7.032 3.274-7.032 7.282v.07a7.103 7.103 0 0 0 7.078 7.344 6.95 6.95 0 0 0 3.094-.672m13.313-18.39h8.812c7.344 0 12.422 5.046 12.422 11.624v.094c0 6.578-5.078 11.719-12.422 11.719h-8.812zm5.14 4.687v14.062h3.672c4.203 0 7.031-2.844 7.031-6.984v-.047a6.72 6.72 0 0 0-7.03-7.031z"/></g><defs><linearGradient id="b" x1="-2.039" x2="79.57" y1="78.523" y2="66.788" gradientUnits="userSpaceOnUse"><stop offset=".18" stop-color="#fc801d"/><stop offset=".63" stop-color="#ff318c"/></linearGradient><linearGradient id="c" x1="-13.945" x2="102.117" y1="-1.227" y2="85.031" gradientUnits="userSpaceOnUse"><stop stop-color="#ff318c"/><stop offset=".4" stop-color="#b74af7"/><stop offset=".87" stop-color="#ff318c"/></linearGradient><linearGradient id="d" x1="-27.43" x2="101.281" y1="36.992" y2="6.805" gradientUnits="userSpaceOnUse"><stop stop-color="#ff318c"/><stop offset=".2" stop-color="#d73bab"/><stop offset=".51" stop-color="#9d4ad8"/><stop offset=".75" stop-color="#7953f4"/><stop offset=".87" stop-color="#6b57ff"/></linearGradient><clipPath id="a"><path fill="#fff" d="M0 0h100v100H0z"/></clipPath></defs></g></svg>