<svg xmlns="http://www.w3.org/2000/svg" fill="none" viewBox="0 0 512 512"><g transform="translate(30.72 30.72) scale(4.506)"><g clip-path="url(#a)"><path fill="#1a62b3" d="M39.673 33.563h20.653a5.89 5.89 0 0 1 5.901 5.9v21.075a5.89 5.89 0 0 1-5.9 5.9H39.672a5.886 5.886 0 0 1-5.9-5.9V39.463a5.887 5.887 0 0 1 5.9-5.9M83.27 66.07V26.935a10.6 10.6 0 0 0-10.62-10.622h-45.3a10.6 10.6 0 0 0-9.819 6.553 10.6 10.6 0 0 0-.802 4.068v46.13A10.6 10.6 0 0 0 27.35 83.685l72.009.002c-.73 9.153-8.336 16.312-17.674 16.312H18.314a17.67 17.67 0 0 1-12.529-5.173A17.66 17.66 0 0 1 .611 82.298V17.703A17.664 17.664 0 0 1 18.315 0h63.37a17.664 17.664 0 0 1 17.703 17.703V66.07z"/></g><defs><clipPath id="a"><path fill="#fff" d="M0 0h100v100H0z"/></clipPath></defs></g></svg>