<svg xmlns="http://www.w3.org/2000/svg" fill="none" viewBox="0 0 512 512"><g transform="translate(30.72 30.72) scale(4.506)"><g clip-path="url(#a)"><path fill="#2453ff" d="M61.84 26.506c-.633 0-1.426 1.742-1.823 3.803l-1.11 6.499c-.316 2.06 1.112 3.802 3.25 3.802h6.42c.633 0 1.266-.078 1.82-.236-.237 1.109-1.107 1.9-2.296 1.9h-9.033c-1.427 0-2.536-1.347-2.298-2.773l.95-5.467c.238-1.426-.87-2.774-2.297-2.774H10.651c-.952 0-1.745.555-2.14 1.426L.11 45.603c-.159.237-.16.475.078.713l1.586 1.9a.61.61 0 0 0 .792.081l5.706-4.518v27.34c0 1.346 1.03 2.376 2.378 2.376h12.677c1.348 0 2.377-1.03 2.377-2.377v-9.51c0-1.346 1.03-2.377 2.378-2.377H59.7c1.347 0 2.377 1.03 2.377 2.378v9.51c0 1.346 1.03 2.377 2.377 2.377h12.679c1.347 0 2.377-1.031 2.377-2.378V60.896h-6.736c-2.06 0-3.881-1.742-3.881-3.882v-6.578c0-1.267.633-2.377 1.504-3.09v7.846c0 2.06 1.744 3.882 3.883 3.882h10.38c2.061 0 3.884-1.743 3.884-3.882V35.3c-.08-2.219-1.823-3.961-3.962-3.961H63.347c-.159 0-.238 0-.317.078v-1.03c0-2.06-.555-3.882-1.19-3.882m35.185.078c-.634 0-1.19 1.744-1.19 3.884v1.742c0 2.061-1.743 3.884-3.882 3.884h-2.06v4.676h6.735c2.219-.159 3.645-1.823 3.328-3.883l-1.11-6.5c-.316-2.06-1.187-3.803-1.821-3.803"/></g><defs><clipPath id="a"><path fill="#fff" d="M0 0h100v100H0z"/></clipPath></defs></g></svg>