<svg xmlns="http://www.w3.org/2000/svg" fill="none" viewBox="0 0 512 512"><g transform="translate(30.72 30.72) scale(4.506)"><g clip-path="url(#a)"><path fill="#32322a" d="M45.016 48.188c-1.328.187-2.243 1.39-2.047 2.68a2.4 2.4 0 0 0 1.734 1.984s5.836 1.921 15.766 2.742c7.976.664 17.031-.57 17.031-.57a2.395 2.395 0 0 0 2.336-2.462 2.395 2.395 0 0 0-2.461-2.335c-.156 0-.312.03-.477.062 0 0-8.859 1.102-16.054.508-9.492-.758-14.664-2.492-14.664-2.492-.375-.125-.79-.188-1.164-.125zm0-11.891c-1.328.187-2.243 1.39-2.047 2.68a2.4 2.4 0 0 0 1.734 1.984s5.836 1.922 15.766 2.742c7.976.664 17.031-.57 17.031-.57a2.395 2.395 0 0 0 2.336-2.461 2.395 2.395 0 0 0-2.461-2.336c-.156 0-.312.031-.477.062 0 0-8.859 1.102-16.054.508-9.492-.758-14.664-2.492-14.664-2.492-.375-.125-.79-.187-1.164-.125zm0-11.89c-1.328.187-2.243 1.39-2.047 2.679a2.4 2.4 0 0 0 1.734 1.984s5.836 1.922 15.766 2.742c7.976.665 17.031-.57 17.031-.57a2.395 2.395 0 0 0 2.336-2.46 2.395 2.395 0 0 0-2.461-2.337c-.156 0-.312.032-.477.063 0 0-8.859 1.101-16.054.508-9.492-.758-14.664-2.493-14.664-2.493a3 3 0 0 0-1.164-.125zm0-11.86c-1.328.187-2.243 1.39-2.047 2.68a2.4 2.4 0 0 0 1.734 1.984s5.836 1.922 15.766 2.742c7.976.664 17.031-.57 17.031-.57a2.395 2.395 0 0 0 2.336-2.461 2.395 2.395 0 0 0-2.461-2.336c-.156 0-.312.031-.477.062 0 0-8.859 1.102-16.054.508-9.492-.758-14.664-2.492-14.664-2.492a2.14 2.14 0 0 0-1.164-.125zM28.367 0C15.875.094 11.242 3.945 11.242 3.945v93.258s4.54-3.914 19.172-3.312c14.633.601 17.633 5.742 35.61 6.086 17.976.343 22.484-2.774 22.484-2.774l.25-95.055s-8.07 2.305-23.844 2.43C49.18 4.695 45.398.57 30.954.094A36 36 0 0 0 28.366 0m10.438 6.086s7.57 2.492 21.539 3.187C72.172 9.875 84 8.11 84 8.11v84.493s-5.992 3.156-20.969 2.078c-11.61-.82-24.375-5.235-24.375-5.235l.157-83.351zm-7.282 2.21c1.329 0 2.43 1.071 2.43 2.43s-1.07 2.43-2.43 2.43c0 0-3.914.031-6.304.25-4.008.406-6.75 1.86-6.75 1.86-1.164.632-2.649.156-3.25-1.008-.633-1.164-.156-2.649 1.008-3.25 1.164-.602 3.562-1.89 8.515-2.367 2.867-.313 6.781-.344 6.781-.344M29.188 20.22a47 47 0 0 1 2.335 0 2.403 2.403 0 0 1 2.11 2.68 2.406 2.406 0 0 1-2.11 2.109s-3.914.031-6.304.25c-4.008.406-6.75 1.86-6.75 1.86-1.164.632-2.649.155-3.25-1.009-.633-1.164-.156-2.648 1.008-3.25 0 0 3.562-1.89 8.515-2.367 1.453-.187 3.125-.25 4.445-.281zm2.335 11.86c1.329 0 2.43 1.07 2.43 2.429 0 1.36-1.07 2.43-2.43 2.43 0 0-3.914-.032-6.304.218-4.008.407-6.75 1.86-6.75 1.86-1.164.632-2.649.156-3.25-1.008-.633-1.164-.156-2.649 1.008-3.25 0 0 3.562-1.89 8.515-2.367 2.867-.344 6.781-.313 6.781-.313"/></g><defs><clipPath id="a"><path fill="#fff" d="M0 0h100v100H0z"/></clipPath></defs></g></svg>