<svg xmlns="http://www.w3.org/2000/svg" fill="none" viewBox="0 0 512 512"><g transform="translate(31.16 30.72) scale(4.506)"><g clip-path="url(#a)"><path fill="#6de1fa" d="M36.95 98.434c-12.586-3.3-22.41-10.662-29.717-22.273-2.686-4.265-2.732-5.772-.265-8.782 1.86-2.272 1.967-2.296 6.24-1.308 3.43.789 4.687 1.555 5.97 3.633 2.495 4.034 10.073 10.825 14.636 13.113 14.09 7.062 31.256 4.153 42.31-7.17 2.407-2.462 4.863-5.651 5.458-7.091.594-1.437 1.354-2.613 1.686-2.613.333 0 1.302 1.543 2.153 3.427l1.543 3.427 4.072-.48c4.754-.565 4.758-.43.082 6.614-6.03 9.082-17.581 17.002-29.027 19.9-6.718 1.701-17.808 1.524-25.141-.397"/><path fill="#fe405f" d="M37.51 63.35C31.052 55.51 25 47.59 24.063 45.746l-1.711-3.349 6.928-6.962 6.926-6.965H62.93l6.972 7.01 6.974 7.012-1.88 3.19c-2.265 3.846-24.353 31.82-25.171 31.88-.316.023-5.859-6.373-12.315-14.21"/><path fill="#97f0ff" d="M86.8 66.355c-1.635-3.368-1.741-4.233-.91-7.53.516-2.05.778-7.048.587-11.11-.297-6.157-.788-8.261-2.967-12.69-5.091-10.341-13.514-17.501-23.883-20.31l-5.392-1.459 2.172-2.847c2.14-2.807 2.149-2.891.753-5.822-.782-1.635-1.217-3.172-.97-3.42.9-.9 10.205 1.72 16.185 4.564 8.555 4.067 17.844 13.296 22.05 21.906 5.532 11.33 6.828 22.955 3.857 34.569-.915 3.585-1.76 6.596-1.872 6.687-.113.094-1.906.414-3.986.716l-3.776.55z"/><path fill="#40daf4" d="M2.617 66.623C-.601 58.16-.66 43.577 2.492 34.3 8.932 15.33 26.385 1.677 45.82.41L52.067 0l1.909 3.43 1.913 3.432-2.291 3.187c-2.131 2.964-2.711 3.25-8.406 4.135-8.459 1.318-14.638 4.446-20.667 10.48C14.33 34.857 11.41 47.19 15.56 62.526c.492 1.82.345 1.95-1.67 1.458l-4.13-1.002c-1.521-.37-2.37.174-4.126 2.644L3.422 68.74z"/></g><defs><clipPath id="a"><path fill="#fff" d="M0 0h100v100H0z"/></clipPath></defs></g></svg>