<svg xmlns="http://www.w3.org/2000/svg" fill="none" viewBox="0 0 512 512"><g transform="translate(28.049 28.049) scale(4.559)"><g clip-path="url(#a)"><path fill="#0f3a80" d="M57.181 3.596 96.404 42.82a10.133 10.133 0 0 1 0 14.363L57.18 96.404a10.135 10.135 0 0 1-14.362 0L3.596 57.182a10.133 10.133 0 0 1 0-14.363L42.819 3.596a10.133 10.133 0 0 1 14.362 0"/><path fill="#ffa600" d="m37.96 25.304-6.512 7.235-2.032-1.83-4.27 10.873 10.367-5.384-2.033-1.83 6.51-7.23a10.2 10.2 0 0 1-2.03-1.834m6.376 3.498v.135l.105-.117zm2.734 3.205-2.734 3.036v25.758h-2.734l4.101 10.937 4.102-10.937H47.07zm-1.367-21.07a7.795 7.795 0 0 0-7.812 7.813 7.795 7.795 0 0 0 7.812 7.813c.278 0 .55-.024.82-.054l.561-.625q.194.195.396.376a10.13 10.13 0 0 1-3.34-7.51c0-3.01 1.322-5.72 3.415-7.582a7.8 7.8 0 0 0-1.852-.23M18.75 42.188A7.795 7.795 0 0 0 10.938 50a7.795 7.795 0 0 0 7.812 7.813A7.795 7.795 0 0 0 26.563 50a7.795 7.795 0 0 0-7.813-7.812m8.07 13.95a10.2 10.2 0 0 1-1.933 1.933l8.544 8.544-1.934 1.933L42.13 73.38l-4.834-10.634-1.933 1.933zM50 73.437a7.795 7.795 0 0 0-7.812 7.813A7.795 7.795 0 0 0 50 89.063a7.795 7.795 0 0 0 7.813-7.813A7.795 7.795 0 0 0 50 73.438"/><path fill="#fff" d="M81.25 42.188A7.795 7.795 0 0 0 73.438 50a7.795 7.795 0 0 0 7.812 7.813A7.795 7.795 0 0 0 89.063 50a7.795 7.795 0 0 0-7.813-7.812M52.93 28.802V60.8h-2.735l4.102 10.938L58.398 60.8h-2.734V28.802q-.68.098-1.367.104a10 10 0 0 1-1.367-.104m20.25 27.335-8.544 8.543-1.933-1.933L57.87 73.38l10.634-4.834-1.933-1.933 8.543-8.544a10.2 10.2 0 0 1-1.933-1.933M62.04 25.304c-.591.7-1.274 1.318-2.03 1.836l6.51 7.229-2.032 1.83 10.368 5.382-4.272-10.872-2.032 1.83zm-14.956.581L34.35 40.028 32.319 38.2l-4.272 10.87 10.367-5.383-2.033-1.83 12.88-14.302a10.2 10.2 0 0 1-2.177-1.67m7.213-14.948a7.795 7.795 0 0 0-7.813 7.813 7.795 7.795 0 0 0 7.813 7.813 7.795 7.795 0 0 0 7.812-7.813 7.795 7.795 0 0 0-7.812-7.812"/></g><defs><clipPath id="a"><path fill="#fff" d="M0 0h100v100H0z"/></clipPath></defs></g></svg>