<svg xmlns="http://www.w3.org/2000/svg" fill="none" viewBox="0 0 512 512"><g transform="translate(29.838 31.161) scale(4.514)"><path fill="#ff4b4b" d="m50.077 56.452-17.472-9.236-30.33-16.03c-.028-.027-.083-.027-.111-.027-1.107-.526-2.243.581-1.827 1.689L15.79 72.263l.002.009.048.116c.634 1.47 2.018 2.378 3.524 2.735.128.028.219.053.371.084.153.034.366.08.549.094l.088.005h.022l.067.006h.03q.03.002.061.002h.036l.066.003a271.7 271.7 0 0 0 58.89 0q.354 0 .687-.033l.21-.025.028-.005q.07-.01.141-.023.105-.013.208-.036c.138-.03.201-.052.39-.117.187-.064.499-.177.694-.271s.33-.185.494-.287q.302-.19.59-.404c.083-.064.14-.106.202-.164l-.034-.02z"/><path fill="#7d353b" d="M97.929 31.187h-.028l-30.34 16.03 16.866 25.119 15.415-39.488v-.056c.388-1.162-.803-2.214-1.913-1.605"/><path fill="#bd4043" d="M51.694 23.565c-.776-1.132-2.464-1.132-3.212 0L32.605 47.217l17.472 9.236 33.112 17.5a8 8 0 0 0 .55-.612 7 7 0 0 0 .687-1.005L67.56 47.217z"/></g></svg>