<svg xmlns="http://www.w3.org/2000/svg" fill="none" viewBox="0 0 512 512"><g transform="translate(30.72 30.72) scale(4.506)"><path fill="#000" fill-rule="evenodd" d="M50.68 97.794C61.62 58.43 61.302 58.255 69.206 30.195l1.9 1.105c1.034.598 1.878.105 1.878-1.09V16.831c2.096-7.394 3.743-13.107 4.22-14.827h8.566L100 15.273 90.657 23.4l7.07 7.69-46.58 66.705c-.228.376-.545.292-.475 0z" clip-rule="evenodd"/><path fill="#000" fill-rule="evenodd" d="M55.77 12.964c.422 0 .763.232.763.527v6.86c0 .281-.317.52-.739.52H44.292c-.423 0-.774-.235-.774-.527v-6.86c0-.288.351-.52.773-.52h11.503zm14.197-7.598L57.31 12.718c.148.228.236.492.236.774v6.859c0 .352-.14.668-.387.932l12.77 7.422c.843.51 1.582.095 1.582-.914V6.29c0-1.013-.739-1.428-1.583-.922zM42.484 20.35v-6.86c0-.28.087-.545.232-.773L30.059 5.366c-.869-.503-1.583-.088-1.583.921V27.78c0 1.02.71 1.407 1.583.915l12.787-7.422c-.229-.282-.366-.599-.366-.95z" clip-rule="evenodd"/><path fill="#000" fill-rule="evenodd" d="M48.846 97.794h.472c-10.94-39.362-10.624-39.538-18.524-67.599l-1.9 1.105c-1.034.598-1.882.105-1.882-1.09V16.832c-2.107-7.398-3.76-13.11-4.253-14.834h-8.548L.001 15.27l9.339 8.126-7.07 7.69L48.842 97.78z" clip-rule="evenodd"/><path fill="#000" d="M49.651 35.187c1.908 0 3.454-1.556 3.454-3.475s-1.546-3.476-3.454-3.476-3.454 1.556-3.454 3.476 1.546 3.475 3.454 3.475m0 20.673c1.908 0 3.454-1.556 3.454-3.475s-1.546-3.476-3.454-3.476-3.454 1.556-3.454 3.476 1.546 3.475 3.454 3.475m0 20.673c1.908 0 3.454-1.556 3.454-3.475s-1.546-3.476-3.454-3.476-3.454 1.556-3.454 3.476 1.546 3.475 3.454 3.475"/></g></svg>