<svg xmlns="http://www.w3.org/2000/svg" fill="none" viewBox="0 0 512 512"><g transform="translate(30.72 32.92) scale(4.506)"><path fill="#809cc8" d="M0 13.281v26.23c13.516-5.627 31.573-11.282 54.3-16.992 14.563-3.65 28.638-6.72 42.23-9.238zm100 5.594c-13.177 1.956-24.997 4.263-35.398 6.866-11.908 2.991-21.493 6.015-28.744 9.098-7.26 3.027-10.632 5.475-10.16 7.364.428 1.663 3.468 2.42 9.134 2.264 2.914-.054 7.638-.375 14.194-.955l25.381-2.515c10.27-1.059 18.774-1.776 25.592-2.195zM70.724 52.148c-2.914.037-6.93.26-12.07.638-5.157.384-11.538.943-19.186 1.733L9.876 57.423c-3.763.317-7.028.516-9.876.674V79.37c15.577-2.277 29.666-4.993 42.23-8.143 12.342-3.091 21.83-6.109 28.495-9.027 6.677-2.917 9.793-5.392 9.274-7.398-.433-1.73-3.561-2.609-9.274-2.654M100 59.616c-13.687 5.362-30.677 10.624-50.973 15.72C30.13 80.072 13.807 83.463 0 85.565v.177h100zM4.178 64.078c.05-.006.088 0 .14 0 .26.01.535.088.709.284a.977.977 0 0 1-.886 1.626.984.984 0 0 1-.814-1.025c.015-.454.4-.83.851-.885m3.54 0c.226.01.434.055.602.213a.98.98 0 0 1 .283 1.096c-.146.387-.54.674-.958.637-.357-.015-.708-.238-.849-.568-.195-.427-.037-1.004.39-1.239a1 1 0 0 1 .532-.14zm-3.4 6.266c.421-.013.8.283.922.67.128.434-.077.98-.498 1.17-.42.21-.973.08-1.239-.318-.269-.387-.232-.97.144-1.275a1 1 0 0 1 .671-.247m3.4 0c.336-.018.632.195.812.46a.96.96 0 0 1-.247 1.273c-.4.306-1.025.254-1.346-.14-.33-.394-.306-1.062.107-1.38.18-.15.44-.22.674-.213"/></g></svg>