<svg xmlns="http://www.w3.org/2000/svg" fill="none" viewBox="0 0 512 512"><g transform="translate(30.72 30.72) scale(4.506)"><g clip-path="url(#a)"><path fill="url(#b)" d="M91.535 39.878a43.3 43.3 0 0 0-5.174-11.88c1.715-2.414 3.36-4.884 4.884-7.5L79.466 8.755c-2.68 1.57-5.22 3.27-7.704 5.044a42.7 42.7 0 0 0-11.5-4.744c-.5-3-1.115-6.035-1.905-9.055h-16.69c-.779 2.96-1.364 5.92-1.864 8.88a43 43 0 0 0-11.855 4.7c-2.384-1.696-4.83-3.325-7.404-4.825L8.759 20.535c1.42 2.424 2.946 4.738 4.53 6.999a43 43 0 0 0-5.5 12.449 105 105 0 0 0-7.784 1.68v16.669c2.414.63 4.82 1.14 7.234 1.58a43 43 0 0 0 5.34 13.584 90 90 0 0 0-3.82 5.965l11.785 11.784c2-1.16 3.895-2.39 5.754-3.67a43 43 0 0 0 13.92 5.8 95 95 0 0 0 1.45 6.625h16.67c.59-2.265 1.069-4.525 1.5-6.794a42.9 42.9 0 0 0 13.568-5.86c1.965 1.36 4 2.674 6.07 3.9l11.78-11.785c-1.31-2.234-2.72-4.38-4.186-6.5a43.1 43.1 0 0 0 5-12.954c2.64-.465 5.285-1 7.925-1.69V41.663c-2.815-.73-5.64-1.305-8.46-1.785M62.316 79.921a31.5 31.5 0 0 1-24.768.234.2.2 0 0 0 0-.064s0 .03-.04.035a31.63 31.63 0 0 1-17.194-17.63c-.055-.14-.115-.279-.16-.42a31.42 31.42 0 0 1 .615-23.498c.18-.43.375-.85.585-1.27a31.72 31.72 0 0 1 15.934-15.194q1.038-.447 2.105-.815a31.5 31.5 0 0 1 10.274-1.72 31.2 31.2 0 0 1 10.795 1.92q1.18.431 2.32.955a31.64 31.64 0 0 1 16.019 16.654 31.5 31.5 0 0 1 .59 22.389q-.177.525-.385 1.04a31.66 31.66 0 0 1-16.5 17.289 2 2 0 0 1-.19.095"/><path fill="url(#c)" d="M72.362 60.907a6.33 6.33 0 0 0-10.635-3.26l-5-3.72a8.65 8.65 0 0 0-2.28-11.298l4.055-6.936a4.315 4.315 0 1 0-1.73-1l-4.04 6.936a8.63 8.63 0 0 0-11.144 3.93l-8.585-3.376v-.085a4 4 0 1 0-.744 1.95l8.593 3.37a8.64 8.64 0 0 0 2.922 8.84l-4 6.234a5.345 5.345 0 1 0 1.685 1.081l4-6.23a8.65 8.65 0 0 0 10.074-1.82l5 3.734a6.33 6.33 0 1 0 11.824 1.651z"/></g><defs><linearGradient id="b" x1="14.749" x2="84.856" y1="14.739" y2="84.846" gradientUnits="userSpaceOnUse"><stop stop-color="#45afe4"/><stop offset="1" stop-color="#364f9e"/></linearGradient><linearGradient id="c" x1="14.029" x2="84.136" y1="15.46" y2="85.566" gradientUnits="userSpaceOnUse"><stop stop-color="#45afe4"/><stop offset="1" stop-color="#364f9e"/></linearGradient><clipPath id="a"><path fill="#fff" d="M0 0h100v100H0z"/></clipPath></defs></g></svg>