<svg xmlns="http://www.w3.org/2000/svg" fill="none" viewBox="0 0 512 512"><g transform="translate(30.72 30.72) scale(4.506)"><g clip-path="url(#a)"><path fill="#3bea62" d="M9.375 74.296V93.45a6.445 6.445 0 0 0 6.548 6.444l17.254-.275a6.45 6.45 0 0 0 4.792-2.25l51.104-59.622a6.45 6.45 0 0 0 1.551-4.195V15.82a6.445 6.445 0 0 0-6.445-6.445H66.987a6.45 6.45 0 0 0-4.851 2.2L10.97 70.053a6.45 6.45 0 0 0-1.595 4.242z"/><path fill="url(#b)" d="M9.375 76.584v16.972a6.446 6.446 0 0 0 6.445 6.446h19.634q.47 0 .934-.07L94.49 91.42a6.446 6.446 0 0 0 5.51-6.376v-24.06a6.445 6.445 0 0 0-6.447-6.445l-28.913.007c-.665 0-1.326.103-1.959.305l-48.82 15.592a6.45 6.45 0 0 0-4.484 6.14z"/><path fill="url(#c)" d="M0 6.446V59.77a6.45 6.45 0 0 0 3.938 5.937l58.47 24.683c.81.343 1.681.516 2.56.508l28.638-.235A6.446 6.446 0 0 0 100 84.218V56.614c0-1.258-.368-2.49-1.06-3.54L65.957 2.903A6.44 6.44 0 0 0 60.572 0H6.445A6.445 6.445 0 0 0 0 6.445z"/><path fill="#000" d="M81.25 18.75h-62.5v62.5h62.5z"/><path fill="#fff" d="M57.33 26.148c-2.244 0-4.282.524-6.1 1.578a11.37 11.37 0 0 0-4.283 4.355q-1.56 2.773-1.56 6.192 0 3.417 1.56 6.187c1.038 1.848 2.461 3.3 4.281 4.354s3.858 1.579 6.102 1.579q2.847 0 5.225-1.053 2.377-1.055 3.958-2.957a10.1 10.1 0 0 0 2.118-4.367h-4.79a6.3 6.3 0 0 1-1.396 2.242 6.25 6.25 0 0 1-2.236 1.482q-1.305.52-2.846.52c-1.385 0-2.64-.348-3.756-1.04s-1.988-1.64-2.62-2.852c-.63-1.211-.948-2.582-.948-4.101q.003-2.277.949-4.094.946-1.814 2.619-2.853 1.677-1.038 3.756-1.039 1.54 0 2.846.52a6.3 6.3 0 0 1 2.236 1.48 6.3 6.3 0 0 1 1.397 2.237h4.789a10.1 10.1 0 0 0-2.118-4.361q-1.582-1.901-3.958-2.956t-5.224-1.053m-32.328.396v4.127h7.135v19.326h4.574V30.67h7.096v-4.127zm1.56 42.2v4.686H51.56v-4.687z"/></g><defs><linearGradient id="b" x1="11.986" x2="95.508" y1="100.612" y2="61.888" gradientUnits="userSpaceOnUse"><stop offset=".1" stop-color="#3bea62"/><stop offset=".59" stop-color="#6b57ff"/></linearGradient><linearGradient id="c" x1="93.644" x2="2.089" y1="93.242" y2="1.688" gradientUnits="userSpaceOnUse"><stop offset=".26" stop-color="#6b57ff"/><stop offset=".65" stop-color="#07c3f2"/></linearGradient><clipPath id="a"><path fill="#fff" d="M0 0h100v100H0z"/></clipPath></defs></g></svg>