<svg xmlns="http://www.w3.org/2000/svg" fill="none" viewBox="0 0 512 512"><g transform="translate(30.72 30.72) scale(4.506)"><g clip-path="url(#a)"><path fill="#000" d="M18.744 9.307c.465.32.744.846.744 1.409v28.743c0 1.524-1.855 2.288-2.941 1.21L3.431 27.668a1.7 1.7 0 0 1-.505-1.211V1.715c0-1.38 1.558-2.193 2.702-1.409zm32.587 62.83a1.73 1.73 0 0 1-2.453.018L23.516 47.003a1.7 1.7 0 0 1-.506-1.21v-30.34c0-1.38 1.559-2.193 2.703-1.408l10.336 7.093c.289.197.63.303.98.303h26.302c.35 0 .692-.105.98-.303l10.094-6.928c1.143-.784 2.703.028 2.703 1.408v29.498c0 .445-.176.874-.488 1.194zM96.587 26.55a1.7 1.7 0 0 0 .487-1.194V1.965c0-1.38-1.559-2.194-2.701-1.41l-13 8.918a1.71 1.71 0 0 0-.744 1.408v27.747c0 1.537 1.88 2.295 2.959 1.194zM3.467 84.892a1.72 1.72 0 0 1-.541-1.246V62.291c0-1.518 1.84-2.285 2.93-1.22L18.005 72.93c.333.324.519.769.515 1.232l-.138 20.734c-.01 1.495-1.81 2.26-2.905 1.235zm47.366-7.987a.9.9 0 0 1-.366.222 2 2 0 0 1-.273.062.86.86 0 0 1-.459-.056.9.9 0 0 1-.285-.19l-6.528-6.472c-1.086-1.077-2.94-.312-2.94 1.211v18.39c0 .46.184.9.513 1.22L48.9 99.51a1.73 1.73 0 0 0 2.439-.021l7.596-7.683c.317-.32.494-.751.494-1.2V72.343c0-1.536-1.88-2.294-2.958-1.193zm33.54-10.758c-1.078 1.09-2.94.337-2.951-1.188l-.123-18.416c-.003-.45.172-.883.488-1.205l12.329-12.591c1.079-1.102 2.958-.343 2.958 1.194v18.683c0 .448-.177.88-.494 1.2zm-65.68-18.984a1.7 1.7 0 0 0-.505-1.223L5.866 33.723c-1.086-1.077-2.94-.313-2.94 1.21V53.87c0 .459.185.899.516 1.22l12.197 11.907c1.086 1.059 2.921.302 2.931-1.211zm62.778 26.29a1.7 1.7 0 0 1 .495-1.212l12.157-12.27c1.081-1.092 2.95-.332 2.95 1.2v22.724c0 .472-.195.922-.54 1.246L84.518 96.38c-1.096 1.025-2.895.259-2.905-1.236z"/></g><defs><clipPath id="a"><path fill="#fff" d="M0 0h100v100H0z"/></clipPath></defs></g></svg>