<svg xmlns="http://www.w3.org/2000/svg" fill="none" viewBox="0 0 512 512"><g transform="translate(30.72 30.72) scale(4.506)"><g clip-path="url(#a)"><path fill="#50d18d" d="m29.454 99.562-12.03-11.548a1.417 1.417 0 0 1 0-2.083l12.04-11.542a1.566 1.566 0 0 1 2.171 0l12.04 11.55c.608.57.608 1.512 0 2.082l-12.04 11.542a1.565 1.565 0 0 1-2.171 0zm19.458-18.664-12.039-11.55a1.416 1.416 0 0 1 0-2.074l12.04-11.549a1.566 1.566 0 0 1 2.171 0l12.033 11.549c.608.57.608 1.512 0 2.083L51.086 80.898a1.57 1.57 0 0 1-2.167 0zm19.46-18.666L56.34 50.683a1.41 1.41 0 0 1 0-2.075l12.035-11.547a1.566 1.566 0 0 1 2.172 0L82.58 48.608a1.413 1.413 0 0 1 0 2.075l-12.041 11.55a1.567 1.567 0 0 1-2.171 0h.008zm-38.552.35-12.04-11.54a1.42 1.42 0 0 1 0-2.078l12.04-11.555a1.566 1.566 0 0 1 2.171 0l12.04 11.55a1.415 1.415 0 0 1 0 2.075L31.991 62.59a1.57 1.57 0 0 1-2.172 0zm19.458-18.665-12.04-11.54a1.42 1.42 0 0 1 0-2.085l12.04-11.548a1.566 1.566 0 0 1 2.172 0l12.03 11.548a1.415 1.415 0 0 1 0 2.076L51.45 43.916a1.567 1.567 0 0 1-2.167 0v-.008.004zM30.192 25.628 18.145 14.045a1.42 1.42 0 0 1 0-2.084L30.193.438a1.565 1.565 0 0 1 2.172 0l12.039 11.548c.61.571.61 1.513 0 2.084L32.357 25.593a1.566 1.566 0 0 1-2.172 0l.008.025z"/></g><defs><clipPath id="a"><path fill="#fff" d="M0 0h100v100H0z"/></clipPath></defs></g></svg>