<svg xmlns="http://www.w3.org/2000/svg" fill="none" viewBox="0 0 512 512"><g transform="translate(30.72 30.72) scale(4.506)"><g clip-path="url(#a)"><path fill="#24a1c1" d="M49.999 4.989c4.536 0 8.568 3.2 8.568 7.14s-3.838 7.14-8.57 7.14q-.807-.002-2.113-.267a2.85 2.85 0 0 0-1.981.317L15.189 36.787a1.43 1.43 0 0 0 .006 2.489L48.49 57.963a2.86 2.86 0 0 0 2.784.01l33.474-18.61a1.424 1.424 0 0 0 .012-2.488l-10.445-5.928a2.86 2.86 0 0 0-2.796-.015l-11.023 6.114a.98.98 0 0 0-.497.746l-.004.106c0 3.941-3.838 7.138-8.568 7.138-4.727 0-8.565-3.196-8.565-7.139 0-3.94 3.838-7.14 8.566-7.14.177 0 .377.014.605.028l.362.04.4.046a2.86 2.86 0 0 0 1.768-.33l16.308-9.045a4.28 4.28 0 0 1 4.018-.07l.175.09 22.769 12.926c2.854 1.62 2.885 5.699.117 7.38l-.152.09-15.234 8.466a1.43 1.43 0 0 0 .03 2.511l15.087 7.938c2.997 1.574 3.066 5.837.13 7.51L51.991 94.45a4.3 4.3 0 0 1-4.247 0L2.189 68.447c-2.942-1.68-2.86-5.953.143-7.518l15.251-7.957a1.432 1.432 0 0 0 .04-2.513L2.184 41.795c-2.854-1.603-2.914-5.663-.17-7.367l.152-.093L40.075 12.78a2.88 2.88 0 0 0 1.282-1.537l.047-.152C42.738 7.13 45.764 4.99 50 4.99m21.15 52.593L52.434 68.346l-.175.095a4.26 4.26 0 0 1-4.047-.076l-18.66-10.521a2.84 2.84 0 0 0-2.716-.041l-10.756 5.62a1.43 1.43 0 0 0-.045 2.509l32.861 18.804a2.86 2.86 0 0 0 2.826 0L84.864 65.8a1.43 1.43 0 0 0 .512-1.99 1.43 1.43 0 0 0-.552-.516L73.896 57.53a2.85 2.85 0 0 0-2.747.054z"/></g><defs><clipPath id="a"><path fill="#fff" d="M0 0h100v100H0z"/></clipPath></defs></g></svg>