<svg xmlns="http://www.w3.org/2000/svg" fill="none" viewBox="0 0 512 512"><g transform="translate(30.72 30.72) scale(4.506)"><g clip-path="url(#a)"><path fill="#9d0fb0" d="m36.071 19.834.144.079 12.26 6.912a2.76 2.76 0 0 0 2.704 0l12.156-6.84a4.125 4.125 0 0 1 4.188 7.109l-.14.08-7.019 3.957a1.377 1.377 0 0 0 0 2.397l18.95 10.684a2.77 2.77 0 0 0 2.705 0l11.72-6.61a4.13 4.13 0 0 1 4.192 7.109l-.14.08-6.594 3.72a1.37 1.37 0 0 0-.7 1.194c0 .497.266.956.7 1.2l6.631 3.74a4.126 4.126 0 1 1-3.91 7.268l-.143-.078-11.756-6.628a2.73 2.73 0 0 0-2.702 0L60.152 66.005a1.379 1.379 0 0 0 0 2.399l7.917 4.46a4.125 4.125 0 0 1 1.586 5.54 4.125 4.125 0 0 1-5.495 1.729l-.143-.078-13.041-7.352a2.76 2.76 0 0 0-2.7 0l-13.157 7.418a4.127 4.127 0 0 1-4.19-7.105l.138-.086 8.03-4.524c.434-.242.698-.702.698-1.198a1.38 1.38 0 0 0-.699-1.2L20.103 55.306a2.75 2.75 0 0 0-2.702 0L6.219 61.594A4.123 4.123 0 0 1 .13 57.007a4.12 4.12 0 0 1 1.9-2.522l.141-.08 6.048-3.403a1.38 1.38 0 0 0 0-2.399L2.18 45.201a4.128 4.128 0 0 1 3.913-7.268l.144.078 11.17 6.3a2.76 2.76 0 0 0 2.701 0l19.179-10.793a1.375 1.375 0 0 0 .003-2.398l-7.127-4.017a4.125 4.125 0 0 1 3.907-7.266zm12.401 17.983L29.294 48.61a1.375 1.375 0 0 0-.003 2.398l18.984 10.699a2.73 2.73 0 0 0 2.7 0L70.14 50.904a1.373 1.373 0 0 0 0-2.394L51.172 37.815a2.76 2.76 0 0 0-2.701 0z"/></g><defs><clipPath id="a"><path fill="#fff" d="M0 0h100v100H0z"/></clipPath></defs></g></svg>