<svg xmlns="http://www.w3.org/2000/svg" fill="none" viewBox="0 0 512 512"><g transform="translate(30.72 30.72) scale(4.506)"><g clip-path="url(#a)"><path fill="#cb3349" d="M53.562 43.185q-2.541.003-5.093.054l-3.136 1.485-.042.025c-.47.23-4.587 2.307-8.46 6.01 3.471-1.824 8.571-4.208 14.576-6.057a72 72 0 0 1 5.626-1.485q-1.733-.027-3.467-.032zm-11.451.23q-4.35.158-8.696.405a249 249 0 0 0-5.032.334q-1.253.09-2.504.221-.356.035-.71.08c-2.184 1.308-10.562 6.568-16.315 13.446 5.59-3.884 15.327-9.724 27.35-13.088a75 75 0 0 1 5.907-1.398m24.773.07c-.133.197-.401.586-.787 1.113-1.24 1.678-3.699 4.756-6.852 7.366 4.463-.8 12.203-2.78 18.9-7.454.168-.118.336-.243.502-.359a.03.03 0 0 0-.018-.006 270 270 0 0 0-4.911-.325 454 454 0 0 0-6.834-.335M64.226 75.3c-.899 0-3.51.81-9.23 2.583l-.352.112-.346-.13c-.039-.013-3.792-1.405-8.29-1.405q-.547 0-1.093.027c-.45.023-2.978 1.225-6.211 6.34l-.211.33-.369.119a399 399 0 0 1-11.522 3.5l-.383.11-.361-.168c-.04-.016-2.35-1.087-4.547-2.097 1.198 1.77 2.731 3.98 4.08 5.712 2.355 3.034 5.324 5.836 11.017 5.836.713 0 1.472-.043 2.251-.133 5.79-.653 7.282-.918 8.085-1.058.271-.047.486-.086.761-.12.044-.005 4.785-.617 6.116-3.602 1.372-3.067 1.648-3.796 1.658-3.825l.485-1.291s.06-.336.158-.44q0 .005.003.003l.01.008c.151.11.377.452.377.452l.799.949a71 71 0 0 0 3.951 4.276c1.44 1.426 3.18 2.148 5.173 2.148a9 9 0 0 0 2.117-.26q1.07-.261 2.143-.516c2.691-.644 5.742-1.375 7.219-1.79.293-.082.62-.156.963-.234 1.968-.455 4.663-1.082 6.093-3.944a424 424 0 0 1 3.6-6.98q-1.317.598-2.602 1.26c-1.069.56-2.47.832-4.28.832-1.076 0-2.133-.091-3.302-.195-2.338-.215-6.293-.68-6.334-.685l-.302-.034-.24-.192c-.035-.026-3.502-2.786-6.303-4.99l-.31-.256c-.294-.252-.296-.252-.471-.252"/><path fill="#f4edae" d="M53.835 2.287c-1.977 0-3.932.16-5.853.472a37 37 0 0 0-5.645 1.385c-4.594 1.516-8.884 3.923-12.655 7.073a41 41 0 0 0-2.199 1.98 41.4 41.4 0 0 0-5.744 6.935 42 42 0 0 0-1.596 2.621v.002q-.76 1.355-1.418 2.763v.001q-.668 1.429-1.23 2.901a55 55 0 0 1 4.562-1.218q1-.222 2.013-.392l-.011.005.012-.003q-.964.345-1.921.71-.952.357-1.9.74l-.038.016a72 72 0 0 0-3.653 1.57l-.04.018c-.282.128-.558.268-.837.402-.325.155-.654.303-.974.467l-.005.003c-.159.081-.312.172-.47.256-.433.23-.866.457-1.29.702-.53.305-1.05.625-1.549.963-.5.339-.979.696-1.428 1.075-.04.226-.074.474-.105.71-.006.046-.008.093-.015.14q-.06.528-.1 1.06-.07.916-.08 1.836a30 30 0 0 0 .25 4.055c.165 1.187.39 2.362.688 3.51.04.153.067.312.11.465v.002c.024.09.06.175.086.265.16.552.332 1.1.536 1.636q.258.686.586 1.34l.002.002.086.163q.15.076.301.148l.603.288c.336.156.801.375 1.184.547l.06-.057-1.116-4.258c.236-.065 2.358-.611 6.015-1.307l-.023-.006a17 17 0 0 1-.862-.183c-.197-.05-.39-.11-.586-.165a18 18 0 0 1-1.863-.618l-.002-.002a11 11 0 0 1-1.152-.557h-.002c-.37-.212-.735-.453-1.018-.773h.003c.5.164 1.069.298 1.694.406h.003c.625.107 1.307.188 2.035.247q1.096.087 2.32.11a73 73 0 0 0 5.23-.113c2.752-.147 5.648-.41 8.416-.695 5.061-.522 10.132-.907 15.22-1.072l.09-.002q2.5-.08 5.004-.088 2.55.006 5.094.09 2.543.083 5.083.234h.002l.338.025c3.272.2 6.538.476 9.798.812 2.656.274 5.426.523 8.078.672.112.007.229.018.34.024h.003a89 89 0 0 0 2.692.105c.876.02 1.726.023 2.539.007 1.628-.03 3.11-.141 4.364-.358.617-.106 1.18-.24 1.676-.401l.01-.003c-.281.32-.644.56-1.015.773q-.562.312-1.155.559a19 19 0 0 1-2.452.783l-.367.08c4.008.744 6.34 1.35 6.59 1.417v.001l-1.068 4.053.445-.199.198-.088.603-.287.302-.15.084-.162v-.002q.328-.656.592-1.34.356-.936.62-1.901v-.004q.272-.969.467-1.964v-.003a35 35 0 0 0 .33-2.006v-.003q.132-1.007.196-2.02v-.002q.064-1.015.055-2.031c0-.03-.005-.06-.005-.09a26 26 0 0 0-.19-2.945q-.044-.358-.108-.712a17 17 0 0 0-1.425-1.071l-.001-.002a25 25 0 0 0-1.549-.963 41 41 0 0 0-3.58-1.83 70 70 0 0 0-3.73-1.604 69 69 0 0 0-1.899-.739c-.634-.245-1.276-.476-1.919-.71h.012l-.01-.003q1.01.17 2.012.392a59 59 0 0 1 1.993.48h.003c.86.223 1.716.473 2.567.738-2.271-5.935-5.725-11.094-9.99-15.223a41 41 0 0 0-2.2-1.98c-3.77-3.15-8.062-5.557-12.656-7.073a37 37 0 0 0-5.645-1.385 36.4 36.4 0 0 0-5.851-.472M41.853 7.569q-.435 1.36-.78 2.747l.242-.712s.43 22.736 5.742 22.736h1.697v-4.934h2.044V15.92h-1.355v2.486h-6.03V9.891l21.234.002v8.512h-6.035v-2.487h-1.36v11.49h2.056v4.932h1.563c5.139 0 5.582-21.09 5.606-22.488a41 41 0 0 0-.663-2.281c2.798 4.873 3.728 10.397 4.016 14.373l.11.4-.067.186a43 43 0 0 1 .072 3.696q.32-.298.63-.604c.008-.008.02-.014.028-.021q.008-.01.017-.017.011-.01.023-.017l.09-.058a.2.2 0 0 0 .038-.022 1 1 0 0 1 .12-.041c.008 0 .016-.005.024-.005a.6.6 0 0 1 .149-.013l.035.003a1 1 0 0 1 .114.016l.022.005 9.065 2.574c.072-1.849.109-9.794-4.053-16.492.145.164 4.805 5.485 5.117 16.797l1.462.414a.67.67 0 0 1 .481.54q.342 2.101.449 4.23c.565 2.333 1.608 5.456 3.281 6.442q.497.234.974.512c-.672-.267-1.364-.459-2.062-.63a35 35 0 0 0-2.1-.462 66 66 0 0 0-4.25-.664 96 96 0 0 0-4.272-.46c-1.43-.12-2.854-.241-4.286-.325-5.724-.352-11.463-.441-17.206-.447-5.742.003-11.48.11-17.204.449-1.431.082-2.858.204-4.287.325q-2.144.18-4.272.46a66 66 0 0 0-4.25.665q-1.058.197-2.102.458c-.695.172-1.392.365-2.063.63q.479-.278.98-.513c1.668-.989 2.71-4.103 3.275-6.434.067-1.258.187-2.645.45-4.238a.67.67 0 0 1 .48-.539l1.458-.412c.317-11.313 4.977-16.633 5.123-16.797-4.162 6.698-4.125 14.643-4.053 16.493l9.064-2.577.021-.005a1 1 0 0 1 .113-.016l.037-.002q.075-.003.148.012.011.002.027.008.057.015.112.039c.015.007.026.016.042.025q.046.026.089.054c.008.007.019.008.026.016l.015.019.028.02q.308.309.63.605c-.091-2.986.053-11.554 4.132-18.656m5.776 6.54v2.486h.002V14.11zm7.814 0v15.11h2.051v-.001h-2.05v-15.11M70.47 27.573c-.676.614-1.597 1.404-2.523 2.062v.002c.926-.657 1.847-1.448 2.523-2.063zm-33.265.001c-.001.035 0 .09-.002.125l.003-.123zm30.824.23-.04.114.032-.025zM50.562 29.22v.001h2.05v-.001zm-17.258.513c-.922-.044-1.984.248-2.804.444-1.64.39-3.787.936-4.139 1.796-.681 1.665-1.015 6.01-1.015 6.01l-.048.029c.008.086.02.258.026.308q1.276-.345 2.565-.642a87 87 0 0 1 4.278-.82 99 99 0 0 1 4.314-.596c.103-.013.202-.021.304-.035a1 1 0 0 1-.049-.122 22 22 0 0 1-.328-1.378 16.2 16.2 0 0 1-1.148-3.418c-.253-1.152-1.034-1.532-1.956-1.576m41.165 0c-.922.044-1.702.424-1.956 1.576-.36 1.641-.88 2.945-1.347 3.839-.072.32-.141.639-.229.957a1 1 0 0 1-.05.128q.152.014.302.032c2.887.326 5.756.8 8.595 1.416q1.287.298 2.562.641c.012-.104.034-.387.055-.642-.065-.763-.38-4.221-.987-5.707-.352-.86-2.5-1.406-4.139-1.796-.82-.196-1.883-.488-2.806-.444m-6.857 2.397c-.224 1.107-.592 2.41-1.195 3.672h.002c.602-1.262.969-2.565 1.193-3.672m-29.591 3.576.009.042c.03.113.03.233 0 .346h.002a.66.66 0 0 0 0-.348z"/><path fill="#e6ccad" d="m91.773 56.995-1.391 9.73v.003a.7.7 0 0 1-.29.469v.001l-1.987 1.392-.118.61c1.96.481 3.841-.924 4.902-1.94.495-1.925.931-4.186 1.078-5.825.113-1.263.121-2.03.068-2.508a2 2 0 0 0-.12-.524.6.6 0 0 0-.176-.244c-.092-.078-.328-.22-.55-.354-.085-.052-.114-.08-.212-.137h-.002a44 44 0 0 0-1.202-.673m-75.436 1.35c-.465.25-.968.526-1.388.772l-.001.002c-.151.088-.201.13-.325.207-.224.138-.488.295-.58.373-.186.153-.34.487-.292 1.671.016.396.056.886.124 1.495l.008.053c.088.776.25 1.71.461 2.696l.007.031q.328 1.524.754 3.024c.844.972 2.249 2.016 4.08 1.293l-1.298-.908a.7.7 0 0 1-.293-.484zm37.671 1.392q-.706.005-1.405.11l-3.095 10.196-.007.01a.7.7 0 0 1-.184.294l-.002.002-.001.001c-.09.082-.2.14-.319.166l-.001.002-1.48.33c-.127.522-.553 1.289-1.927 1.708-2.214.678-16.242 4.86-17.841 4.633-.945-.133-2.682-1.103-4-1.9a48 48 0 0 0 1.983 4.124 43 43 0 0 0 .944 1.644c.128.213.25.424.385.64.464.745.96 1.503 1.513 2.27a437 437 0 0 0 8.528-2.617 31 31 0 0 1 1.833-2.536v-.001a23 23 0 0 1 2.01-2.218c.682-.651 1.365-1.2 2.018-1.593V75l.013-.006q.442-.27.928-.452l.014-.006.015-.005c.281-.104.576-.168.875-.189q.6-.03 1.202-.03h.002q.79.003 1.58.052h.002q.788.05 1.571.143a3.4 3.4 0 0 1-.509-.583l-.002-.001a3.5 3.5 0 0 1-.32-.572v-.002c-.162-.367-.236-.687-.297-.883h.002s.18.14.51.346c.164.102.365.22.6.345.077.04.177.082.259.124a9.5 9.5 0 0 0 2.67.901q.577.105 1.163.13l.078.003a8 8 0 0 0 1.23-.053l.074-.006a12 12 0 0 0 4.372-1.477l.024-.016q.599-.342 1.149-.755c.233-.175.316-.252.36-.29l.073-.06.002-.002s-.003.388-.207.927q-.182.476-.479.888v.002c-.227.314-.53.636-.931.935 1.545-.467 2.637-.781 3.453-.978s1.354-.278 1.791-.278c.967 0 1.442.403 1.86.758.078.065.157.134.25.21l.002.001c.495.39.75.594 1.262 1q2.405 1.9 4.807 3.806h.001l.578.063c1.216.14 3.648.419 5.394.578a60 60 0 0 0 1.603.132 23 23 0 0 0 1.506.055q.476 0 .898-.03.726-1.4 1.351-2.847l.184-.422q.679-1.59 1.252-3.222c-1.114.784-3.724 2.55-4.963 2.78-1.587.296-15.782-3.27-18.025-3.85-1.035-.269-1.543-.75-1.802-1.194l-1.195-.135a.71.71 0 0 1-.587-.49l-3.186-10.498a11 11 0 0 0-1.4-.11zm2.602 30.072q-.472 1.087-.96 2.168h.06l.061-.001c.327 0 .69-.034 1.03-.05.057-.006.113-.016.17-.02q.713-.063 1.421-.17a74 74 0 0 1-1.782-1.927m2.688 2.854a22 22 0 0 1-2.437.35h-.002l-.04.002c-.334.013-.654.042-1.005.042l-.542.005-.207-.005q-.225.33-.48.623c-.045.053-.095.1-.141.151q-.195.215-.405.414c-.053.049-.11.093-.163.142q-.21.185-.43.354l-.17.125q-.24.175-.493.336l-.07.043a11 11 0 0 1-1.49.757c-.385.165-.75.306-1.104.422 4.85.837 10.142-.438 12.92-1.286-.029-.01-.056-.025-.084-.036a9 9 0 0 1-.77-.325c-.091-.043-.18-.093-.271-.14a9 9 0 0 1-.86-.502 9 9 0 0 1-.507-.363c-.093-.07-.188-.138-.278-.213q-.33-.27-.638-.568l-.08-.074v-.001c-.086-.086-.17-.167-.253-.253"/><path fill="#656c67" d="M64.23 43.943q-1.216.124-2.426.3l-.014.001q-1.202.175-2.396.403a68 68 0 0 0-7.718 1.935l-.065.02a83 83 0 0 0-6.766 2.465 197 197 0 0 1 9.263-.228h.004c1.888 0 3.721.03 5.51.083l.19.003a44 44 0 0 0 4.418-4.982m17.094.95q-1.035.743-2.116 1.417c-2.157 1.345-4.417 2.476-6.648 3.427 2.275.222 4.398.469 6.352.728a168 168 0 0 1 9.529 1.538c1.196.232 2.185.44 2.945.608l1.49-5.645c-1.62-.367-4.26-.919-7.764-1.495h-.002q-1.89-.31-3.786-.578m-41.416.91a75 75 0 0 0-4.192 1.104 80 80 0 0 0-4.004 1.295q-1.916.675-3.797 1.442-1.8.735-3.568 1.549a180 180 0 0 1 10.779-1.406l.036-.031a37 37 0 0 1 4.746-3.953m-21.036.428a113 113 0 0 0-3.525.735l.414 1.563a52 52 0 0 1 3.11-2.298m69.001 7.576-1.528 10.71a.7.7 0 0 1-.097.264v.001a.7.7 0 0 1-.192.207v.001l-2.123 1.485L80.323 69a.7.7 0 0 1-.46.12l-.016.001-17.286-1.964a.7.7 0 0 1-.588-.487l-.001-.001-1.083-3.568-2.03-6.68a25 25 0 0 0-3.418-.635 14 14 0 0 0-1.431-.08c-.94 0-1.945.125-2.819.275-.873.152-1.617.33-2.033.438l-3.114 10.25v.001l-.004.005a.7.7 0 0 1-.189.301.7.7 0 0 1-.32.169l-17.287 3.846a.66.66 0 0 1-.395-.043c-.052-.02-.107-.031-.154-.064l-3.372-2.362-2.362-1.654a.7.7 0 0 1-.29-.482l-.002-.002-1.205-9.784-.34-2.75q-.964.185-1.738.35-.551.301-1.088.604l1.642 13.288 8.33 5.835 21.024-4.678 3.104-10.224v-.001a.7.7 0 0 1 .554-.486q1.181-.19 2.057-.191c.577 0 1.27.065 2.054.191a.7.7 0 0 1 .344.16l.002.004.006.005a.7.7 0 0 1 .202.317v.001L59.8 69.504l21.14 2.405 8.107-5.68 1.692-11.837q-1.43-.31-2.866-.585"/><path fill="#c7b39a" d="M54.11 50.718q-1.882 0-3.7.037h-.036a187 187 0 0 0-10.358.493h-.001a84 84 0 0 0-2.85 1.46l-.05.027v.002a74 74 0 0 0-2.19 1.224 40 40 0 0 0-1.908 1.167h-.001l-2.067 1.378-2.065 1.376-.002.002 1.674-2.402 1.165-1.672v-.002a28 28 0 0 1 1.478-1.927q-3.18.356-6.342.827-.294.045-.587.092c-1.775.27-3.407.54-4.775.793l.71 5.753.81 6.562 5.226 3.661 16.591-3.69 1.553-5.116 1.552-5.115a.7.7 0 0 1 .315-.396.6.6 0 0 1 .158-.07c.057-.016.71-.193 1.608-.382q1.01-.217 2.036-.346l.023-.005 3.047-1.84a23 23 0 0 0 2.623-1.856c-.594-.01-1.207-.011-1.81-.018-.609-.006-1.218-.016-1.828-.017m14.45.554a70 70 0 0 1-4.87 1.477q-1.988.525-4.002.936c-2.325.472-3.84.654-4.011.666l-.199.013-.192.015c1.084.094 2.138.286 2.934.459s1.336.328 1.387.343a.7.7 0 0 1 .473.468l3.093 10.182 16.57 1.883 5.268-3.69 1.498-10.472a164 164 0 0 0-7.928-1.236 181 181 0 0 0-10.022-1.044m.78 2.703q.4-.013.79.097h.005l.005.003q.385.11.75.327v.001q.368.22.704.54h.002q.36.346.652.751.286.395.527.861.24.465.426.988l.026.075q.183.526.305 1.097.129.607.176 1.226.054.606-.017 1.21-.031.246-.096.484-.058.21-.149.41c.5-.06.903-.019 1.227.076.323.095.567.245.75.404s.304.33.38.464c.076.135.109.235.114.255a2.6 2.6 0 0 0-.55-.192 3 3 0 0 0-.577-.072c-.397-.014-.82.032-1.288.102-.47.07-.986.164-1.566.245q-.96.136-1.929.159h-.004c-.536.018-1.05.033-1.523-.007h-.002a4 4 0 0 1-.672-.107h-.002a2.5 2.5 0 0 1-.594-.23 2 2 0 0 1-.5-.393 2.3 2.3 0 0 1-.389-.59 3.7 3.7 0 0 1-.262-.834 7 7 0 0 1-.121-1.111q-.023-.617.025-1.233.044-.581.155-1.153v-.002c.438-2.212 1.612-3.794 3.221-3.852m-31.275.83.016.002q.394 0 .756.115h.001q.367.119.696.346l.006.003.003.004c.66.455 1.2 1.22 1.581 2.185l.006.011.005.015q.185.474.317 1.008l.004.013q.135.563.206 1.138v.012q.075.61.08 1.224v.003q.01.555-.07 1.103v.002q-.061.42-.224.811v.002c-.088.208-.21.4-.36.567-.704.767-1.904.692-3.247.706-.219.005-.426.007-.63.01q-.362.01-.695.003c-1.027-.002-1.87-.024-2.603.028l-.036.002a6 6 0 0 0-1.034.155h-.002c-.322.08-.627.195-.921.354.007-.018.045-.105.127-.23.078-.123.202-.282.375-.454l.017-.018.01-.01q.319-.302.701-.518c.163-.094.34-.184.546-.265q.315-.123.64-.205c-.002-.006-.002-.016-.005-.021a3.7 3.7 0 0 1-.236-.78l-.013-.062a8 8 0 0 1-.11-1.063c-.002-.015-.005-.026-.005-.042l.001-.04a7.4 7.4 0 0 1 .274-2.305l.02-.07q.156-.531.379-1.008a6 6 0 0 1 .522-.91q.27-.388.6-.723a4.2 4.2 0 0 1 .72-.587l.036-.024q.351-.22.722-.344l.05-.017q.372-.117.752-.123z"/><path fill="#ebd599" d="M70.468 27.576c-.677.614-1.598 1.405-2.524 2.062q-.031.506-.094 1.008v.002q-.09.745-.239 1.48v.002c-.223 1.107-.59 2.41-1.193 3.673l.211.02c1.003.082 2.008.17 3.012.276a.66.66 0 0 1 0-.351 22 22 0 0 0 .494-2.32q.174-1.115.26-2.239v-.002a32 32 0 0 0 .088-2.002v-.002q.012-.802-.015-1.606zm-33.264.001-.004.124a35 35 0 0 0 .072 3.38l.014.195q.088 1.115.264 2.22c.118.734.27 1.478.47 2.21l.01.04a.66.66 0 0 1 0 .348l.022-.001q1.598-.168 3.198-.297a14 14 0 0 1-.753-1.948 18 18 0 0 1-.439-1.724q-.147-.735-.239-1.48-.06-.501-.091-1.007a23 23 0 0 1-1.274-.98 34 34 0 0 1-1.122-.97c-.039-.035-.092-.076-.128-.11"/><path fill="#2d3136" d="M69.34 53.977c-2.146.076-3.52 2.864-3.403 6.238.118 3.37 1.922 3.346 4.067 3.271 2.885-.054 4.469-.939 5.913-.24-.021-.081-.473-1.437-2.47-1.199.23-.501.333-1.18.26-2.105-.263-3.366-2.22-6.04-4.366-5.965m-31.275.828c-2.149.019-4.227 2.784-4.099 6.154.035.878.164 1.512.37 1.969-1.872.469-2.387 1.627-2.417 1.7 1.18-.637 2.513-.543 4.597-.54q.333.007.694-.002l.629-.012c2.148-.021 3.934.183 3.903-3.19-.033-3.373-1.531-6.1-3.677-6.079m31.068 1.302c.016 0 .03.01.046.01a1.1 1.1 0 0 1 .712.281l.034.031q.136.137.22.311l.015.032q.082.19.088.407l.002.005v.005a1.1 1.1 0 0 1-.078.424l-.002.003q-.08.197-.226.35a1.1 1.1 0 0 1-.77.34 1.2 1.2 0 0 1-.43-.083 1 1 0 0 1-.338-.218l-.023-.02a1 1 0 0 1-.167-.24 1.1 1.1 0 0 1-.16-.521 1.06 1.06 0 0 1 .156-.55 1 1 0 0 1 .126-.194l.002-.002.07-.07q.12-.118.271-.19c.03-.014.061-.02.092-.032a1.2 1.2 0 0 1 .302-.067c.02-.001.037-.011.058-.012m-30.766.818c1.514-.102 1.578 2.19.078 2.191-.007 0-.013.005-.02.005-.016 0-.028-.008-.043-.008a1.2 1.2 0 0 1-.466-.119 1 1 0 0 1-.172-.108 1.08 1.08 0 0 1-.446-.833 1.09 1.09 0 0 1 .38-.841 1 1 0 0 1 .238-.17c.027-.013.055-.02.083-.03a1.2 1.2 0 0 1 .367-.086z"/><path fill="#edf6fa" d="M69.133 56.106a1.098 1.098 0 1 0 .04 2.194 1.098 1.098 0 0 0-.04-2.194m-30.765.82a1.098 1.098 0 1 0 .056 2.194 1.098 1.098 0 0 0-.055-2.195z"/><path fill="#ebd599" d="m41.315 9.605-.242.713c-.91 3.584-2.196 10.27-1.428 17.576.362.29.742.574 1.114.824a.68.68 0 0 1 .293.546c.003.035.08 3.417 1.574 6.293q.03.066.051.134c3.715-.253 7.438-.355 11.156-.357 3.718.002 7.44.11 11.154.365a1 1 0 0 1 .053-.142c1.493-2.876 1.572-6.258 1.572-6.293a.69.69 0 0 1 .296-.546c.36-.243.724-.518 1.079-.8l.04-.112c.781-7.588-.645-14.52-1.55-17.953-.024 1.396-.468 22.487-5.607 22.487h-1.562v1.494H48.753V32.34h-1.697c-5.312 0-5.741-22.735-5.741-22.735m28.515 12.34c.014.195.032.398.043.586l.065-.186zm-33.95 5.06L25.622 29.92c-.633 4.121-.418 7.137-.325 8.092l.047-.03s.336-4.344 1.017-6.01c.351-.859 2.498-1.405 4.138-1.795 1.64-.391 4.253-1.172 4.761 1.132a16.2 16.2 0 0 0 1.148 3.418c-.647-3.143-.606-6.207-.529-7.724m35.91 0c.083 1.584.115 4.855-.625 8.143.468-.894.987-2.198 1.347-3.84.508-2.302 3.123-1.521 4.763-1.131s3.786.937 4.138 1.796c.608 1.486.923 4.944.988 5.707.099-1.23.22-4.034-.352-7.758zm11.965 6.51c.16 3.008-.079 4.98-.094 5.092a1 1 0 0 1-.021.09q.177.052.353.107c1.029.338 2.063.69 3.043 1.154-1.672-.987-2.716-4.11-3.28-6.443m-59.843.006c-.565 2.332-1.607 5.446-3.276 6.434.979-.462 2.012-.816 3.041-1.152.117-.038.233-.07.35-.109-.007-.03-.015-.055-.02-.087-.017-.111-.256-2.082-.096-5.086" opacity=".8"/><path fill="#cb3349" d="M45.22 11.703v4.894h2.409V14.11h4.983v15.11h-.002v.002h-2.049v2.802h6.932v-2.802h-2.05V14.11h4.983v2.486h2.408v-4.893z"/><path fill="#c7b39a" d="M92.889 67.259c-1.063 1.018-2.949 2.428-4.913 1.937-.082.422-.148.806-.28 1.342 1.136.263 3 .468 3.887.297.38-.411.866-1.865 1.306-3.576m-77.784 1.41c.504 1.776 1.054 3.293 1.443 3.684.984.174 3.162-.128 4.232-.442q-.165-.524-.31-1.051l-1.285-.899c-1.831.723-3.235-.321-4.08-1.292m71.058 1.276-.701.493-1.89 1.325-2.047 1.434a.7.7 0 0 1-.478.123l-20.374-2.318-.288-.032c.26.443.766.925 1.802 1.193 2.243.58 16.438 4.147 18.025 3.851 1.239-.23 3.849-1.997 4.962-2.78.211-.602.42-1.207.617-1.837q.2-.723.372-1.452m-38.65.899-20.235 4.508a.7.7 0 0 1-.552-.112l-.79-.548-2.363-1.655v-.006l-.953-.667c.066.215.143.424.219.633l-.003.004q.426 1.155.91 2.287c1.317.797 3.054 1.766 4 1.9 1.6.226 15.627-3.956 17.841-4.633 1.374-.42 1.8-1.188 1.925-1.711m15.525 24.292c-2.777.85-8.069 2.125-12.92 1.287a14.5 14.5 0 0 1-2.355.569q-.3.036-.597.093c2.721.746 5.5 1.07 8.239.885A32.8 32.8 0 0 0 65.5 95.656a9.4 9.4 0 0 1-2.463-.52"/><path fill="#2d3136" d="M53.836.407c-8.503 0-16.668 2.786-23.61 8.053-6.714 5.097-11.824 12.41-14.795 20.656q-1.606.585-3.156 1.307c-1.258.603-2.495 1.283-3.641 2.184l-.204.158-.076.283q-.15.551-.26 1.111c-.071.36-.126.722-.178 1.084a26 26 0 0 0-.21 2.178 27 27 0 0 0 .13 4.365c.154 1.454.425 2.893.81 4.304.2.707.429 1.406.702 2.1q.304.794.703 1.546l.145.257c.055.093.09.162.174.286l.148.23.23.117c.246.128.447.223.67.327l.65.293c.12.048.232.097.354.146-2.945 2.726-6.149 6.265-8.92 10.643L0 67.558l4.916-4.315c.083-.072 4.205-3.643 11.08-7.682l.094.79c-.447.233-2.611 1.369-3.252 1.904-1.065.886-1.116 2.258-.831 4.817.145 1.313.64 3.86 1.302 6.194 1.141 4.02 1.979 4.73 2.714 4.899.33.078.762.114 1.243.114 1.315 0 3.005-.257 4.103-.588a40.3 40.3 0 0 0 5.347 10.817l-.322.094a1133 1133 0 0 0-7.601-3.5L15.5 79.62l1.948 3.038c.143.219 3.503 5.461 6.249 8.992 2.566 3.297 6.08 6.667 12.712 6.667a23 23 0 0 0 2.493-.147q2.301-.257 4.596-.548c6.961 2.558 14.639 2.713 21.922-.046a32 32 0 0 0 5.477-2.705q.05-.008.1-.022c2.709-.651 5.78-1.384 7.3-1.81.245-.068.546-.139.866-.215 2.114-.485 5.647-1.304 7.532-5.074 1.897-3.805 4.995-9.633 5.028-9.691l1.446-2.718-2.821 1.226c-.151.067-3.722 1.624-5.58 2.6-.068.036-.143.067-.22.104 1.508-3.075 2.27-5.54 2.536-6.482 1.037.25 2.58.22 3.714.22a6.5 6.5 0 0 0 1.504-.192c.735-.187 1.303-.675 2.375-4.824.621-2.41 1.07-5.036 1.192-6.385.239-2.626.162-4.031-.912-4.92-.534-.44-2.1-1.285-2.896-1.703l.038-.285c.406.096.624.153.642.158l.722-2.744q.414-.175.832-.337.658-.255 1.309-.532l.65-.293c.223-.104.424-.2.67-.327l.23-.12.148-.226a6 6 0 0 0 .174-.287l.142-.257q.142-.258.26-.512.242-.517.446-1.036c.274-.694.503-1.39.703-2.098a28 28 0 0 0 .808-4.304c.163-1.45.203-2.91.13-4.367a24 24 0 0 0-.21-2.175 16 16 0 0 0-.178-1.085q-.105-.561-.259-1.11l-.078-.282-.2-.159c-1.148-.9-2.386-1.582-3.644-2.185a39 39 0 0 0-3.156-1.308C89.269 20.87 84.16 13.557 77.445 8.46 70.502 3.192 62.34.407 53.835.407m-.002 1.881c15.808 0 30.29 10.306 36.344 26.135a53 53 0 0 0-2.571-.74 47 47 0 0 0-4.008-.87c.643.234 1.285.466 1.919.71q.955.357 1.9.74a71 71 0 0 1 3.73 1.604 41 41 0 0 1 3.58 1.83c1.062.612 2.078 1.282 2.977 2.038.039.226.078.476.107.712q.061.5.105 1.004.084 1.011.088 2.03.015 2.036-.25 4.055c-.183 1.346-.432 2.686-.798 3.977a21 21 0 0 1-.617 1.902q-.178.46-.383.909-.1.218-.21.431l-.084.164c-.101.051-.205.102-.303.149l-.603.287c-.212.099-.43.192-.644.289l1.068-4.055c-.248-.067-2.583-.672-6.593-1.416q.188-.04.37-.082a19 19 0 0 0 2.453-.783q.593-.248 1.155-.558c.37-.213.734-.453 1.016-.774-4.016 1.313-12.32.717-19.703-.044-6.747-.697-13.515-1.149-20.315-1.163-6.8.016-13.562.466-20.314 1.163-7.381.76-15.681 1.356-19.698.044.28.32.646.561 1.017.774.37.21.76.39 1.154.558.794.32 1.617.576 2.449.783.291.07.594.134.887.19-3.656.694-5.78 1.244-6.015 1.309l1.115 4.255-.061.056c-.383-.17-.848-.39-1.185-.547l-.602-.285a11 11 0 0 1-.302-.15l-.086-.164a14 14 0 0 1-.587-1.34 21 21 0 0 1-.623-1.902c-.365-1.291-.61-2.63-.797-3.977-.176-1.344-.26-2.7-.251-4.055a27 27 0 0 1 .09-2.03c.026-.336.066-.672.105-1.005.031-.236.067-.485.106-.711.898-.758 1.916-1.428 2.976-2.04a41 41 0 0 1 3.577-1.828 72 72 0 0 1 3.731-1.604 76 76 0 0 1 1.9-.738q.957-.365 1.921-.711c-1.35.222-2.685.53-4.01.87-.86.222-1.717.473-2.568.74 6.054-15.83 20.53-26.136 36.341-26.136m-11.98 5.283c-4.079 7.101-4.224 15.669-4.133 18.656q-.321-.296-.63-.605l-.028-.02-.015-.02c-.007-.007-.017-.009-.025-.015a1 1 0 0 0-.09-.055c-.015-.008-.025-.018-.042-.026a1 1 0 0 0-.111-.038c-.011-.002-.02-.008-.028-.008a.6.6 0 0 0-.148-.011l-.036.003a1 1 0 0 0-.113.015l-.021.004-9.064 2.578c-.072-1.85-.11-9.795 4.053-16.493-.146.164-4.805 5.484-5.123 16.797l-1.459.413a.67.67 0 0 0-.48.539c-.89 5.392-.378 9.164-.354 9.323q.008.044.021.086c-.118.038-.234.071-.351.109-1.38.451-2.766.933-4.02 1.666.671-.265 1.366-.458 2.062-.63a36 36 0 0 1 2.103-.46 66 66 0 0 1 4.25-.664 93 93 0 0 1 4.272-.46c1.43-.12 2.855-.243 4.286-.325 5.724-.338 11.463-.445 17.204-.448 5.743.005 11.483.093 17.207.447 1.432.083 2.857.204 4.286.325 1.43.12 2.851.275 4.272.46q2.136.263 4.25.665a33 33 0 0 1 2.1.46c.698.172 1.39.364 2.062.63-1.255-.734-2.64-1.213-4.017-1.665l-.354-.107a1 1 0 0 0 .02-.09c.023-.158.535-3.93-.353-9.323a.67.67 0 0 0-.481-.539l-1.461-.413C81.05 17.02 76.39 11.7 76.247 11.537c4.162 6.697 4.125 14.642 4.052 16.491l-9.065-2.573-.021-.007a1 1 0 0 0-.115-.015l-.035-.003a.6.6 0 0 0-.148.014c-.008 0-.016.004-.024.004a1 1 0 0 0-.12.042l-.038.02-.09.06c-.007.005-.016.007-.023.016-.008.005-.011.012-.018.016-.007.008-.02.014-.027.022q-.311.306-.63.604c.09-2.987-.054-11.555-4.13-18.655.085.25 3.32 9.714 2.204 20.323-.364.29-.74.574-1.11.824a.69.69 0 0 0-.297.546c0 .035-.078 3.417-1.571 6.293a1 1 0 0 0-.053.142 164 164 0 0 0-11.155-.364c-3.717.002-7.44.104-11.156.357a1 1 0 0 0-.052-.135c-1.493-2.876-1.57-6.257-1.573-6.293a.68.68 0 0 0-.293-.547c-.371-.25-.752-.533-1.114-.823-1.115-10.61 2.122-20.076 2.208-20.325m1.559 2.32v8.516h6.03V15.92h1.355v11.488h-2.045v6.428h10.555v-6.428h-2.055v-11.49h1.36v2.488h6.034V9.894zm1.808 1.81h17.613v4.894h-2.407V14.11h-4.983v15.11h2.05v2.804h-6.932V29.22h2.05V14.11H47.63v2.486h-2.409zm-9.34 15.304c-.089 1.739-.132 5.508.856 9.101a1 1 0 0 0 .048.122c-.101.014-.2.022-.303.035a97 97 0 0 0-4.314.597 87 87 0 0 0-4.279.819q-1.289.297-2.565.643c-.07-.607-.39-3.91.3-8.4zm35.91 0 10.26 2.918c.69 4.496.365 7.797.296 8.4a74 74 0 0 0-2.562-.64 86 86 0 0 0-8.596-1.417q-.149-.018-.302-.032a1 1 0 0 0 .05-.128c.987-3.594.946-7.363.854-9.1m-1.322.57c.063 1.812.017 5.098-.827 8.172a.67.67 0 0 0 0 .353q-1.61-.168-3.224-.296c1.206-2.527 1.47-5.22 1.528-6.167.925-.658 1.846-1.448 2.523-2.062m-33.266.001c.677.615 1.596 1.403 2.526 2.062.055.947.319 3.633 1.523 6.158q-1.613.129-3.221.299a.66.66 0 0 0 0-.346c-.844-3.07-.887-6.357-.828-8.173m16.361 15.608h.003q1.734.005 3.467.032a72 72 0 0 0-5.626 1.484c-6.004 1.85-11.104 4.234-14.575 6.06 3.872-3.705 7.988-5.782 8.46-6.012l.042-.023 3.135-1.485q2.552-.053 5.094-.056m-11.452.23a75 75 0 0 0-5.906 1.399C24.18 48.177 14.445 54.016 8.855 57.9c5.752-6.878 14.13-12.138 16.314-13.445a78 78 0 0 1 3.213-.302c1.676-.126 3.35-.242 5.034-.334q4.346-.245 8.695-.404m24.773.07q3.417.143 6.834.335 2.46.14 4.912.325.008 0 .017.007c-.166.115-.334.24-.5.359-6.699 4.673-14.438 6.653-18.902 7.453 3.153-2.61 5.612-5.687 6.852-7.366q.404-.548.787-1.112m-2.653.46c-.158.207-.334.435-.522.67a44 44 0 0 1-3.897 4.312q-2.85-.086-5.701-.086c-3.231 0-6.328.085-9.272.226 4.154-1.723 9.15-3.406 14.556-4.419a56 56 0 0 1 4.836-.703m17.093.95c5.417.765 9.392 1.584 11.552 2.073l-1.49 5.644c-3.041-.67-9.726-1.987-18.826-2.873 2.974-1.268 6-2.856 8.764-4.844m-41.415.91a37 37 0 0 0-4.783 3.985q-5.412.54-10.78 1.404c4.602-2.117 9.856-4.063 15.563-5.389m-21.037.428a52 52 0 0 0-3.111 2.297l-.414-1.562a116 116 0 0 1 3.525-.735m35.239 4.486c1.234 0 2.444.015 3.637.036a23 23 0 0 1-2.625 1.856l-3.045 1.84c-1.912.234-3.572.707-3.668.732a.6.6 0 0 0-.157.07.7.7 0 0 0-.315.398l-3.106 10.23-16.591 3.69-5.228-3.66-1.518-12.316c2.967-.547 6.938-1.18 11.705-1.712a27 27 0 0 0-1.478 1.93l-2.84 4.073 4.135-2.756c.061-.043 2.694-1.776 7-3.88 4.689-.353 9.391-.53 14.094-.531m14.448.555c7.559.58 13.73 1.51 17.949 2.278L85.01 64.025l-5.269 3.69-16.57-1.883L60.08 55.65a.7.7 0 0 0-.473-.468c-.103-.03-2.152-.614-4.329-.802l.399-.03c.343-.023 6.059-.723 12.882-3.077m19.314 2.534q1.437.276 2.867.585L89.047 66.23l-8.105 5.68-21.141-2.406-3.183-10.478a.69.69 0 0 0-.555-.486 13 13 0 0 0-2.053-.191q-.875 0-2.057.19a.7.7 0 0 0-.554.487L48.295 69.25l-21.023 4.677-8.333-5.836-1.641-13.287q.542-.306 1.087-.607.777-.163 1.74-.351l1.545 12.539a.7.7 0 0 0 .292.483l5.734 4.014a.68.68 0 0 0 .55.11l17.285-3.849a.7.7 0 0 0 .512-.471l3.115-10.251c.833-.215 2.972-.714 4.854-.714 1.873 0 4.013.5 4.847.715l3.114 10.25a.7.7 0 0 0 .588.486l17.287 1.964A.7.7 0 0 0 80.32 69l5.736-4.01a.7.7 0 0 0 .29-.473zm3.899 3.186c.844.459 1.71.951 1.967 1.166.258.208.456.75.227 3.277-.276 3.096-1.578 8.526-2.382 9.4-.889.172-2.752-.034-3.889-.296.194-.78.252-1.157.409-1.953l1.988-1.39a.7.7 0 0 0 .29-.472zm-75.435 1.352 1.258 10.226a.7.7 0 0 0 .293.483l2.581 1.807q.148.528.31 1.051c-1.07.314-3.247.616-4.23.442-.819-.822-2.342-6.484-2.676-9.489-.27-2.436-.08-2.96.168-3.166.288-.24 1.364-.855 2.296-1.354m37.675 1.392c.398 0 .87.038 1.404.11l3.19 10.5c.08.265.309.457.584.488l1.483.168 20.374 2.318a.7.7 0 0 0 .477-.123l2.048-1.434 1.889-1.326.702-.491q-.173.73-.372 1.451c-.975 3.121-2.124 5.887-3.403 8.327q-.421.03-.898.03c-.987 0-1.994-.084-3.109-.184a323 323 0 0 1-5.972-.643c-.836-.664-3.693-2.935-6.07-4.806-.092-.076-.173-.146-.253-.211-.417-.355-.892-.758-1.86-.758-.874 0-2.152.32-5.243 1.255 1.608-1.2 1.617-2.752 1.617-2.752s-2.29 2.126-5.98 2.603c-3.688.473-6.584-1.793-6.584-1.793.122.394.292 1.285 1.128 2.043a27 27 0 0 0-3.156-.197c-.403 0-.811.012-1.201.032-2.271.117-5.464 3.547-7.709 7.006a436 436 0 0 1-8.528 2.617c-3.718-5.154-5.55-10.42-5.734-10.966l.003-.002c-.076-.21-.152-.419-.22-.634l.954.668v.005l2.364 1.655.789.547a.7.7 0 0 0 .552.113l21.717-4.837a.7.7 0 0 0 .512-.473l3.096-10.196q.7-.104 1.409-.11M64.226 75.3c.176 0 .176 0 .47.251l.311.257c2.802 2.203 6.268 4.964 6.303 4.99l.24.192.302.033c.041.006 3.996.47 6.334.685 1.17.104 2.226.196 3.302.196 1.81 0 3.211-.272 4.28-.833q1.286-.661 2.602-1.261a423 423 0 0 0-3.6 6.981c-1.43 2.863-4.125 3.49-6.093 3.945-.344.078-.67.151-.962.234-1.478.414-4.528 1.145-7.219 1.79-.747.177-1.474.35-2.144.515a9 9 0 0 1-2.117.26c-1.992 0-3.733-.721-5.172-2.148a71 71 0 0 1-3.953-4.276l-.797-.949s-.227-.342-.379-.451l-.009-.008q-.003 0-.003-.003c-.099.104-.157.439-.157.439l-.485 1.291c-.011.028-.287.758-1.659 3.825-1.33 2.985-6.073 3.598-6.116 3.603-.275.034-.49.073-.761.12-.803.14-2.294.404-8.085 1.058-.779.089-1.539.132-2.252.132-5.693 0-8.66-2.802-11.016-5.836-1.349-1.731-2.882-3.942-4.078-5.71 2.196 1.008 4.506 2.08 4.545 2.096l.36.168.384-.11q5.788-1.665 11.522-3.5l.369-.12.21-.33c3.234-5.115 5.763-6.317 6.213-6.34q.545-.027 1.092-.027c4.497 0 8.251 1.392 8.29 1.406l.345.13.352-.113c5.72-1.773 8.332-2.582 9.23-2.582M56.61 89.808a69 69 0 0 0 1.784 1.928q-.793.123-1.592.19c-.341.016-.703.053-1.03.052h-.122q.486-1.083.96-2.17m2.688 2.854.252.256c1.652 1.636 3.7 2.573 5.952 2.739a32.8 32.8 0 0 1-10.097 2.314c-2.74.184-5.517-.14-8.239-.885.23-.042.396-.07.597-.093.223-.028 5.103-.666 7.301-3.935l.208.004.541-.004c.366 0 .697-.032 1.046-.044.83-.073 1.64-.19 2.44-.352"/></g><defs><clipPath id="a"><path fill="#fff" d="M0 0h100v100H0z"/></clipPath></defs></g></svg>