<svg xmlns="http://www.w3.org/2000/svg" fill="none" viewBox="0 0 512 512"><g transform="translate(30.72 30.72) scale(4.506)"><g clip-path="url(#a)"><path fill="#5cd8e5" d="M3.063 0A3.063 3.063 0 0 0 0 3.063v12.881h50a34.056 34.056 0 0 1 28.338 52.941H100V3.063A3.063 3.063 0 0 0 96.938 0zm49.682 20.348a3.7 3.7 0 0 0-1.416.217 3.6 3.6 0 0 0-1.335.852 3.67 3.67 0 0 0-.862 3.86q.462 1.262.862 2.546.519 1.64.903 3.315c.278 1.2.474 2.418.588 3.644q-.748-.073-1.5-.073-1.162 0-2.312.173c-2.414-2.92-5.588-5.62-9.646-8.185a3.677 3.677 0 0 0-3.909 6.185 36.7 36.7 0 0 1 6.47 5.056 15.5 15.5 0 0 0-3.02 3.153c-3.895-.132-8.677.63-14.81 2.862a3.676 3.676 0 1 0 2.515 6.909c3.86-1.403 6.942-2.13 9.507-2.353q-.072.741-.074 1.5 0 1.163.174 2.312c-2.92 2.414-5.621 5.588-8.186 9.647a3.676 3.676 0 0 0 1.141 5.073 3.67 3.67 0 0 0 5.047-1.159 36.7 36.7 0 0 1 5.056-6.47 15.6 15.6 0 0 0 3.153 3.02 30 30 0 0 0 .52 6.433 51.6 51.6 0 0 0 2.354 8.376 3.67 3.67 0 0 0 4.706 2.197 3.6 3.6 0 0 0 1.334-.853 3.67 3.67 0 0 0 .863-3.858 55 55 0 0 1-.863-2.547 42 42 0 0 1-.902-3.315 27 27 0 0 1-.588-3.645q.741.072 1.5.074c.78 0 1.56-.06 2.332-.177 2.256 2.719 5.353 5.48 9.626 8.188a3.677 3.677 0 0 0 3.909-6.187 36.6 36.6 0 0 1-6.444-5.06c1.15-.9 2.164-1.96 3.015-3.146.279 0 .565.018.853.018 3.735 0 8.267-.813 13.959-2.883a3.678 3.678 0 0 0-1.088-7.147 3.7 3.7 0 0 0-1.428.238c-3.858 1.403-6.94 2.13-9.505 2.353q.072-.741.074-1.5 0-1.172-.177-2.332c2.718-2.256 5.48-5.353 8.188-9.627a3.676 3.676 0 0 0-6.211-3.914 36.6 36.6 0 0 1-5.06 6.47 15.4 15.4 0 0 0-3.15-3.017 30 30 0 0 0-.52-6.433 51.6 51.6 0 0 0-2.353-8.376 3.68 3.68 0 0 0-3.29-2.414M0 31.112v65.826A3.063 3.063 0 0 0 3.063 100h93.875A3.063 3.063 0 0 0 100 96.938V84.055H50a34.054 34.054 0 0 1-34.055-34.054 33.9 33.9 0 0 1 5.717-18.89zm50 10.653c.223 0 .444 0 .662.026q.633.054 1.253.2a8.2 8.2 0 0 1 4.367 2.688q.408.478.736 1.015A8.2 8.2 0 0 1 58.234 50c0 .223 0 .444-.026.662a8.23 8.23 0 0 1-3.905 6.359A8.2 8.2 0 0 1 50 58.234c-.223 0-.444 0-.662-.026A8.235 8.235 0 0 1 41.765 50c0-.223 0-.444.027-.662q.054-.633.2-1.253A8.234 8.234 0 0 1 50 41.765"/></g><defs><clipPath id="a"><path fill="#fff" d="M0 0h100v100H0z"/></clipPath></defs></g></svg>