<svg xmlns="http://www.w3.org/2000/svg" fill="none" viewBox="0 0 512 512"><g transform="translate(17.687 17.687) scale(4.766)"><path fill="#1159cc" d="M95.703 18.672v-8.656L74.93 22.109v7.297l-16.625 35.86-8.313 5.726V97.25l17.82-10.273zm-45.71 33.625L37.53 23.21v-8.219l-.086-.047L25.07 22.11v7.297l16.617 37.43 8.305-4.102z"/><path fill="#127eff" d="M83.242 2.75 62.477 14.915l-.016-.008v8.304L49.992 52.297v9.727l-8.304 4.812-16.618-37.43v-7.312l12.47-7.18L16.757 2.75l-12.46 7.266v8.922l28.047 68.125 17.648 10.188V71.657l8.313-4.82-.102-.063L74.93 29.407v-7.313l20.773-12.078z"/></g></svg>