<svg xmlns="http://www.w3.org/2000/svg" fill="none" viewBox="0 0 512 512"><g transform="translate(30.72 30.72) scale(4.506)"><path fill="#284e64" d="m56.521 60.095.008-.052 3.206-18.762zm23.148-18.86L69.271 60.034l10.403-18.795 11.362-20.61zm-59.567.214-.942-1.725zL30.12 59.835zm3.518-6.525 6.52-12.11L42.05 44.73 30.142 22.8 20.057 4.368l10.08 18.437zm29.347 29.914.042.086 1.887 3.472zm13.322-35.464-6.562 11.88-7.303 13.44 7.303-13.438z"/><path fill="#f16827" d="m40.13 78.295 9.476 17.357 5.212-26.806z"/><path fill="#f48029" d="m54.9 68.419-8.36-15.367-6.41 25.244 14.688-9.449z"/><path fill="#f89a2e" d="m30.116 59.836 10.01 18.46 6.415-25.244z"/><path fill="#f16827" d="m30.116 59.835 16.425-6.789-12.353-22.789z"/><path fill="#f89921" d="m56.521 60.095 3.213-18.813-9.801 18.02 4.962 9.116z"/><path fill="#f89a2e" d="m20.102 41.448 10.016 18.387 4.07-29.57z"/><path fill="#f48029" d="m69.263 60.032 10.405-18.797-23.14 18.806z"/><path fill="#f4ae5c" d="M30.141 22.811 20.102 41.448l14.084-11.186zm26.39 37.23 13.334-37.114L59.736 41.28z"/><path fill="#cd4e27" d="m20.101 41.449 10.04-18.638-12.755 13.685 1.777 3.23z"/><path fill="#f16938" d="M79.664 41.234 69.86 22.927 56.532 60.04zm-62.273-4.743 12.748-13.705L20.053 4.348l-2.666 32.125z"/><path fill="#f89a2e" d="m79.664 41.234.363-36.867-10.164 18.559zM20.054 4.362H0L17.39 36.49z"/><path fill="#cd4e27" d="m80.026 4.367-.362 36.867L100 4.362zM56.53 60.04l-.008.052-6.916 35.557 19.663-35.614z"/></g></svg>