<svg xmlns="http://www.w3.org/2000/svg" fill="none" viewBox="0 0 512 512"><g transform="translate(30.72 30.72) scale(4.506)"><g clip-path="url(#a)"><path fill="url(#b)" d="M64.063 69.14c-1.485 0-2.89-.313-4.297-.938-3.125-1.328-5.781-3.906-8.047-7.344.625-1.093 1.172-2.265 1.719-3.437 2.187-5.156 3.281-10.86 3.36-16.484v-.625c0-2.188-.313-4.454-1.095-6.485-.859-2.422-2.265-4.765-4.453-5.703A3.5 3.5 0 0 0 50 27.89c-2.812-5.235-2.89-10.157 0-14.922h.157c3.359 0 6.718 1.094 9.609 2.89 7.812 5 11.719 14.61 11.797 24.141v.313h.078c-.078 10.078-2.5 20.312-7.578 28.828M46.719 84.92c-7.266 2.97-15.781 2.813-22.969-.546-8.28-3.828-14.687-11.406-18.594-19.922-6.718-14.687-6.875-32.187-.468-47.031 4.765 1.875 8.984-1.094 8.984-1.094s0 4.688 4.531 7.031c-4.609 10.86-4.53 23.829.157 34.454 2.265 5.078 5.703 9.843 10.39 12.578 1.719.937 3.594 1.562 5.469 1.796 3.36 5.157 7.656 9.61 12.5 12.735"/><path fill="url(#c)" fill-rule="evenodd" d="M64.063 69.14c-1.485 0-2.89-.313-4.297-.938-3.125-1.328-5.781-3.907-8.047-7.344.625-1.094 1.172-2.266 1.719-3.438a35 35 0 0 0 1.718-4.765c1.094-3.75 15.313 1.015 13.204 7.265-1.172 3.204-2.579 6.329-4.297 9.22M46.719 84.92c-7.266 2.97-15.781 2.813-22.969-.546-8.281-3.829.235-16.797 5-14.141 1.719.937 3.516 1.562 5.469 1.797 3.36 5.312 7.656 9.765 12.5 12.89" clip-rule="evenodd" opacity=".3"/><path fill="url(#d)" d="M28.438 40.39v-.313c.078-9.532 3.984-19.22 11.797-24.141 2.89-1.797 6.25-2.89 9.609-2.89H50v14.921c-.39 0-.86.078-1.25.235-2.187.937-3.593 3.359-4.453 5.703-.781 2.11-1.094 4.297-1.094 6.484v.625c.078 5.625 1.094 11.25 3.36 16.406 2.422 5.86 6.406 11.172 12.031 13.594 4.219 1.875 8.906 1.406 12.734-.781 4.766-2.656 8.203-7.422 10.391-12.578 4.688-10.625 4.766-23.516.156-34.453 4.531-2.344 4.531-7.032 4.531-7.032s4.22 3.047 8.985 1.094c6.328 14.844 6.172 32.422-.469 47.031-3.906 8.594-10.234 16.094-18.594 19.922-7.422 3.438-16.093 3.516-23.515.313-6.719-2.735-12.188-7.969-16.094-14.063-5.625-8.828-8.281-19.531-8.281-30.078"/></g><defs><linearGradient id="b" x1="-.001" x2="48.858" y1="50" y2="50" gradientUnits="userSpaceOnUse"><stop stop-color="#00d2e6"/><stop offset="1" stop-color="#2eccaa"/></linearGradient><linearGradient id="c" x1="30.465" x2="56.382" y1="75.58" y2="59.061" gradientUnits="userSpaceOnUse"><stop stop-opacity="0"/><stop offset=".514"/><stop offset="1" stop-opacity="0"/></linearGradient><linearGradient id="d" x1="100" x2="51.225" y1="49.999" y2="49.999" gradientUnits="userSpaceOnUse"><stop stop-color="#1fa385"/><stop offset="1" stop-color="#2eccaa"/></linearGradient><clipPath id="a"><path fill="#fff" d="M0 0h100v100H0z"/></clipPath></defs></g></svg>