<svg xmlns="http://www.w3.org/2000/svg" fill="none" viewBox="0 0 512 512"><g transform="translate(29.84 30.72) scale(4.506)"><g clip-path="url(#a)"><path fill="#fff" d="M50.192 0 6 25v50l44.192 25 44.191-25V25z"/><path fill="#8ed6fb" d="m13.892 73.275 34.842 19.708v-15.35L27.025 65.692zm-2.383-2.158V29.9l12.75 7.358V63.75zm75.125 2.158L51.792 92.983v-15.35L73.5 65.692zm2.383-2.158V29.9l-12.75 7.358V63.75zm-1.492-43.884L51.792 7.017v14.841L74.683 34.45l.175.1zm-74.525 0L48.734 7.017v14.841L25.842 34.45l-.175.1z"/><path fill="#1c78c0" d="m51.792 74.142 21.416-11.775V39.033L51.792 51.4zm-3.059 0L27.317 62.367V39.033L48.733 51.4zm23.025-37.809-21.5-11.825-21.5 11.825 21.5 12.417z"/></g><defs><clipPath id="a"><path fill="#fff" d="M0 0h100v100H0z"/></clipPath></defs></g></svg>