<svg xmlns="http://www.w3.org/2000/svg" fill="none" viewBox="0 0 512 512"><g transform="translate(30.72 30.72) scale(4.506)"><g clip-path="url(#a)"><path fill="#2c8ebb" d="M50 0a50 50 0 1 0 0 100A50 50 0 0 0 50 0m3.66 17.147a3.94 3.94 0 0 1 1.727.626c.524.347 1.194.807 3.145 4.84a3.8 3.8 0 0 1 2.299-.081 3.07 3.07 0 0 1 1.928 1.566c1.992 3.822 2.257 10.636 1.386 15.015a27.3 27.3 0 0 1-4.71 10.735 20.8 20.8 0 0 1 4.654 7.604 20.5 20.5 0 0 1 1.138 8.395 23 23 0 0 0 2.515-1.403c2.467-1.525 6.193-3.824 10.637-3.88a5.34 5.34 0 0 1 5.644 4.598 5.12 5.12 0 0 1-3.942 5.668c-2.701.654-3.96 1.161-7.589 3.516a54 54 0 0 1-12.548 5.79 7 7 0 0 1-2.936 1.429c-3.073.75-13.613 1.314-14.444 1.314h-.194c-3.226 0-5.054-1-6.039-2.048-2.742 1.371-6.29.805-8.87-.558a4.48 4.48 0 0 1-2.42-3.143 4.9 4.9 0 0 1 0-1.662 5.5 5.5 0 0 1-.638-.806 13.2 13.2 0 0 1-1.822-8.114c.234-3.008 2.315-5.693 3.67-7.12A23.05 23.05 0 0 1 27.91 50a21.6 21.6 0 0 1 5.5-7.258c-1.33-2.242-2.684-5.694-1.37-9.21.943-2.508 1.718-3.903 3.42-4.5a5.55 5.55 0 0 0 2.023-1.08 14.23 14.23 0 0 1 9.564-4.565c.154-.387.33-.807.525-1.178 1.29-2.743 2.66-4.282 4.265-4.839a3.94 3.94 0 0 1 1.822-.223m-.436 2.888c-2.111.07-4.183 6.328-4.183 6.328a11.29 11.29 0 0 0-9.445 3.628 7.8 7.8 0 0 1-3.104 1.832c-.331.113-.734.096-1.734 2.797-1.532 4.09 2.613 8.72 2.613 8.72s-4.944 3.491-6.775 7.838a20 20 0 0 0-1.41 9.42s-3.516 3.047-3.741 6.193a10.4 10.4 0 0 0 1.426 6.315 1.565 1.565 0 0 0 2.12.734s-2.338 2.724-.153 3.877c1.992 1.04 5.347 1.614 7.121-.153 1.291-1.29 1.549-4.168 2.025-5.345.112-.274.5.46.87.806q.516.45 1.097.806s-3.144 1.355-1.854 4.444c.427 1.023 1.951 1.676 4.444 1.66.927 0 11.096-.58 13.805-1.234a3.5 3.5 0 0 0 2.106-1.176 50.8 50.8 0 0 0 12.493-5.645c3.821-2.492 5.386-3.171 8.475-3.905 2.548-.605 2.379-4.555-1-4.498-3.5.04-6.564 1.846-9.154 3.458-4.838 2.992-7.257 2.8-7.257 2.8l-.082-.137c-.33-.541 1.549-5.388-.557-11.162-2.273-6.314-5.886-7.838-5.596-8.323 1.235-2.088 4.324-5.404 5.557-11.581.735-3.742.54-9.903-1.12-13.129-.308-.597-3.05 1-3.05 1s-2.564-5.718-3.281-6.177a1.13 1.13 0 0 0-.656-.19"/></g><defs><clipPath id="a"><path fill="#fff" d="M0 0h100v100H0z"/></clipPath></defs></g></svg>