<svg xmlns="http://www.w3.org/2000/svg" fill="none" viewBox="0 0 512 512"><g transform="translate(30.72 30.72) scale(4.506)"><g clip-path="url(#a)"><path fill="url(#b)" d="M2.041 80.069a.39.39 0 0 1-.118-.484l11.93-24.57L.092 38.577a.39.39 0 0 1 .05-.549L40.28 4.581c7.141-5.953 17.48-6.12 24.818-.407 7.333 5.714 9.677 15.763 5.62 24.12l-4.374 9.01a105 105 0 0 1 5.064-1.56l19.803-5.688a.39.39 0 0 1 .489.29l8.29 36.851a.39.39 0 0 1-.181.426.4.4 0 0 1-.155.054c-2.628.33-16.965 2.39-34.814 9.889-20.224 8.494-33.57 20.566-35.46 22.332a.38.38 0 0 1-.245.103.38.38 0 0 1-.253-.08z"/><path fill="#000" d="M81.25 18.75h-62.5v62.5h62.5z"/><path fill="#fff" d="m24.966 26.55 8.576 14.655v8.792h4.47v-8.826l8.442-14.62h-4.84l-5.173 9.343-.622 1.36-.62-1.341-5.31-9.363zm22.358 0v4.12h7.135v19.327h4.57V30.67h7.102v-4.12zM26.563 68.746v4.688h25v-4.688z"/></g><defs><linearGradient id="b" x1="-.159" x2="100.082" y1="50" y2="50" gradientUnits="userSpaceOnUse"><stop stop-color="#fb43ff"/><stop offset=".97" stop-color="#fb406d"/></linearGradient><clipPath id="a"><path fill="#fff" d="M0 0h100v100H0z"/></clipPath></defs></g></svg>