<svg xmlns="http://www.w3.org/2000/svg" fill="none" viewBox="0 0 512 512"><g transform="translate(30.72 29.4) scale(4.506)"><path fill="#f90" fill-rule="evenodd" d="m27.243 89.53-12.437-4.463V66.839l12.437 4.237zm2.281 0 12.436-4.462v-18.23l-12.436 4.238zm-13.44-24.055 12.587-3.543 11.671 3.763-11.671 3.963zm-3.648-1.411L0 59.603v-18.23l12.436 4.237zm2.282 0 12.437-4.461v-18.23L14.718 45.61zM1.278 40.009l12.587-3.543 11.672 3.763-11.672 3.963zm40.178 24.055-12.437-4.461v-18.23l12.437 4.237zm2.281 0 12.437-4.461v-18.23L43.737 45.61zM30.298 40.009l12.587-3.543 11.67 3.763-11.67 3.963zm25.964-1.413-12.437-4.46V15.907l12.437 4.236zm2.281 0 12.437-4.46V15.907l-12.437 4.236zm-13.44-24.052L57.692 11l11.67 3.763-11.67 3.963zm40.18 24.052-12.438-4.46V15.907l12.437 4.236zm2.28 0L100 34.136V15.907l-12.437 4.236zm-13.44-24.052L86.711 11l11.67 3.763-11.67 3.962z" clip-rule="evenodd"/></g></svg>