<svg xmlns="http://www.w3.org/2000/svg" fill="none" viewBox="0 0 512 512"><g transform="translate(28.946 28.946) scale(4.541)"><path fill="#ed1944" d="M96.785 87.445v-.023a1.36 1.36 0 0 0-.36-.988 1.6 1.6 0 0 0-1.156-.406h-1.59v4.25h.877v-1.416h.538l.784 1.416h1.011l-.906-1.582a1.28 1.28 0 0 0 .802-1.25m-.888.028a.614.614 0 0 1-.694.638h-.651v-1.285h.632c.472 0 .713.213.713.638zm3.603.76a4.344 4.344 0 1 0-8.688.01 4.344 4.344 0 0 0 8.688-.01m-4.344 3.277a3.277 3.277 0 1 1-.002-6.554 3.277 3.277 0 0 1 .002 6.554M67.863 40.174h19.653v19.652H67.863zm-67.363 0h19.652v19.652H.5zm67.363 28.383a4.38 4.38 0 0 1-4.372 4.372H24.52a4.377 4.377 0 0 1-4.373-4.372v-3.112H.5v19.049a8.11 8.11 0 0 0 8.084 8.088h70.83a8.113 8.113 0 0 0 8.125-8.088V65.445H67.863zm11.564-61.14H8.598a8.11 8.11 0 0 0-8.084 8.084v19.053h19.649v-3.111a4.373 4.373 0 0 1 4.371-4.373h38.97a4.373 4.373 0 0 1 4.373 4.373v3.111H87.54V15.501a8.11 8.11 0 0 0-8.112-8.083"/></g></svg>