<svg xmlns="http://www.w3.org/2000/svg" fill="none" viewBox="0 0 512 512"><g transform="translate(25.248 17.951) scale(4.67)"><path fill="#00a1e0" d="M41.414 24.564c3.11-3.235 7.43-5.243 12.219-5.243 6.36 0 11.906 3.547 14.86 8.813a20.55 20.55 0 0 1 8.398-1.79c11.468 0 20.765 9.384 20.765 20.946 0 11.57-9.297 20.953-20.766 20.953a21 21 0 0 1-4.093-.406c-2.602 4.64-7.563 7.773-13.25 7.773-2.383 0-4.633-.546-6.64-1.53-2.641 6.202-8.782 10.554-15.946 10.554-7.461 0-13.813-4.719-16.25-11.336a16 16 0 0 1-3.305.344c-8.883 0-16.078-7.274-16.078-16.243a16.26 16.26 0 0 1 8.04-14.07 18.5 18.5 0 0 1-1.54-7.43c0-10.32 8.375-18.687 18.71-18.687 6.063-.008 11.462 2.883 14.876 7.352"/><path fill="#fff" d="M15.281 52.171c-.062.156.024.188.04.219.179.133.367.227.546.336.985.523 1.906.672 2.883.672 1.977 0 3.203-1.055 3.203-2.742v-.032c0-1.562-1.383-2.133-2.687-2.539l-.172-.054c-.977-.32-1.828-.594-1.828-1.235v-.031c0-.555.492-.961 1.258-.961.851 0 1.859.281 2.507.64 0 0 .188.126.258-.062.04-.101.367-.984.398-1.078.04-.102-.03-.18-.093-.219-.742-.453-1.766-.758-2.828-.758h-.196c-1.804 0-3.07 1.094-3.07 2.657v.03c0 1.65 1.39 2.188 2.695 2.563l.211.063c.953.289 1.774.547 1.774 1.21v.032c0 .61-.532 1.07-1.39 1.07a4.67 4.67 0 0 1-2.548-.734c-.14-.078-.219-.14-.328-.203-.055-.04-.195-.094-.258.086zm28.93 0c-.062.156.023.188.039.219.18.133.367.227.547.336.984.523 1.906.672 2.883.672 1.976 0 3.203-1.055 3.203-2.742v-.032c0-1.562-1.383-2.133-2.688-2.539l-.172-.054c-.976-.32-1.828-.594-1.828-1.235v-.031c0-.555.492-.961 1.258-.961.852 0 1.86.281 2.508.64 0 0 .188.126.258-.062.039-.101.367-.984.398-1.078.04-.102-.031-.18-.093-.219-.743-.453-1.766-.758-2.829-.758H47.5c-1.805 0-3.07 1.094-3.07 2.657v.03c0 1.65 1.39 2.188 2.695 2.563l.211.063c.953.289 1.773.547 1.773 1.21v.032c0 .61-.53 1.07-1.39 1.07a4.67 4.67 0 0 1-2.547-.734c-.14-.078-.219-.14-.328-.203-.04-.023-.203-.086-.258.086zm19.742-3.312c0 .953-.18 1.71-.531 2.242-.344.523-.875.781-1.602.781-.734 0-1.258-.258-1.601-.781-.344-.531-.524-1.29-.524-2.242 0-.953.172-1.703.524-2.235.343-.523.867-.773 1.601-.773.735 0 1.258.25 1.61.773.343.524.523 1.274.523 2.235m1.649-1.774a4 4 0 0 0-.75-1.43 3.5 3.5 0 0 0-1.266-.96c-.5-.235-1.102-.352-1.766-.352-.672 0-1.265.117-1.765.352a3.6 3.6 0 0 0-1.266.96 4 4 0 0 0-.75 1.43 6.2 6.2 0 0 0-.242 1.774q-.002.951.242 1.773a4 4 0 0 0 .75 1.43 3.5 3.5 0 0 0 1.266.953c.508.227 1.101.344 1.765.344.672 0 1.266-.117 1.766-.344s.93-.555 1.266-.953a4 4 0 0 0 .75-1.43q.244-.822.242-1.773a6.1 6.1 0 0 0-.242-1.774m13.546 4.54c-.054-.165-.21-.102-.21-.102a3.5 3.5 0 0 1-.766.218 6.4 6.4 0 0 1-.906.063c-.797 0-1.43-.234-1.891-.703-.453-.469-.71-1.227-.71-2.258 0-.937.226-1.64.632-2.172.398-.531 1.016-.804 1.828-.804.68 0 1.203.078 1.742.25 0 0 .133.054.195-.118.141-.398.25-.687.407-1.125.047-.125-.063-.18-.102-.195a6 6 0 0 0-1.101-.273 8 8 0 0 0-1.235-.086c-.695 0-1.312.117-1.836.351a3.8 3.8 0 0 0-1.328.961 4.1 4.1 0 0 0-.805 1.43 5.7 5.7 0 0 0-.265 1.773c0 1.367.367 2.477 1.102 3.282.726.812 1.828 1.226 3.257 1.226.844 0 1.711-.172 2.336-.414 0 0 .117-.055.07-.195zm2.891-3.688c.078-.531.227-.977.453-1.32.344-.524.86-.813 1.594-.813s1.219.289 1.563.813c.234.343.328.804.367 1.32zm5.547-1.164a3.35 3.35 0 0 0-.719-1.305c-.36-.39-.71-.656-1.062-.805a4.1 4.1 0 0 0-1.602-.32c-.695 0-1.328.117-1.844.36q-.773.363-1.289.984a4.1 4.1 0 0 0-.757 1.445 6.2 6.2 0 0 0-.243 1.781c0 .641.086 1.243.25 1.782a3.7 3.7 0 0 0 .813 1.422q.55.599 1.406.93c.563.218 1.242.327 2.023.327 1.61-.008 2.462-.367 2.813-.554.063-.032.117-.094.047-.266l-.367-1.023c-.055-.149-.211-.094-.211-.094-.399.148-.969.414-2.29.414-.867 0-1.507-.258-1.906-.656-.414-.407-.617-1.008-.648-1.86l5.586.008s.148 0 .164-.148c.008-.078.195-1.164-.164-2.422M37.32 47.937c.078-.531.227-.977.453-1.32.344-.524.86-.813 1.594-.813s1.219.289 1.563.813c.226.343.328.804.367 1.32zm5.555-1.164a3.4 3.4 0 0 0-.71-1.305q-.538-.583-1.063-.805a4.1 4.1 0 0 0-1.602-.32c-.695 0-1.328.117-1.844.36q-.773.363-1.289.984a4.1 4.1 0 0 0-.758 1.445 6.2 6.2 0 0 0-.242 1.781c0 .641.086 1.243.25 1.782a3.7 3.7 0 0 0 .813 1.422q.55.599 1.406.93c.563.218 1.242.327 2.023.327 1.61-.008 2.461-.367 2.813-.554.062-.032.117-.094.047-.266l-.367-1.023c-.055-.149-.211-.094-.211-.094-.399.148-.97.414-2.29.414-.867 0-1.507-.258-1.906-.656-.414-.407-.617-1.008-.648-1.86l5.586.008s.148 0 .164-.148c0-.078.187-1.164-.172-2.422m-17.625 4.82c-.219-.172-.25-.219-.32-.328q-.164-.258-.164-.727c0-.492.164-.843.5-1.078-.008 0 .476-.422 1.617-.406a11 11 0 0 1 1.515.133v2.539s-.71.148-1.507.203c-1.141.063-1.641-.336-1.641-.336m2.227-3.922a13 13 0 0 0-.875-.023q-.718.002-1.375.18a3.5 3.5 0 0 0-1.165.538 2.8 2.8 0 0 0-.812.922 2.7 2.7 0 0 0-.297 1.29c0 .492.086.921.258 1.273s.414.648.727.875c.312.226.695.39 1.14.492a6.6 6.6 0 0 0 1.477.148c.57 0 1.14-.046 1.695-.14a29 29 0 0 0 1.406-.274c.188-.046.39-.101.39-.101.142-.031.126-.18.126-.18v-5.11c0-1.116-.297-1.952-.89-2.46-.587-.516-1.446-.774-2.563-.774-.422 0-1.094.055-1.492.141 0 0-1.22.234-1.72.625 0 0-.109.07-.046.219l.398 1.062c.047.14.18.094.18.094s.04-.016.094-.047c1.078-.586 2.43-.57 2.43-.57.601 0 1.07.117 1.382.36.305.234.461.585.461 1.327v.235c-.492-.063-.93-.102-.93-.102m45.03-2.875a.156.156 0 0 0-.085-.203c-.094-.039-.57-.14-.938-.164-.703-.04-1.093.078-1.437.234s-.727.407-.945.696v-.68a.167.167 0 0 0-.165-.172h-1.43a.167.167 0 0 0-.163.172v8.328c0 .094.078.172.172.172h1.468a.173.173 0 0 0 .172-.172v-4.164c0-.555.063-1.117.188-1.469.117-.343.289-.625.492-.82s.438-.336.688-.414a2.8 2.8 0 0 1 .75-.11c.288 0 .617.079.617.079.109.015.164-.055.203-.149.086-.25.36-1.015.414-1.164"/><path fill="#fff" d="M58.734 40.937a5 5 0 0 0-.554-.133 4.3 4.3 0 0 0-.758-.055c-1.008 0-1.805.29-2.367.852-.555.562-.93 1.414-1.125 2.53l-.07.376h-1.266s-.157-.008-.188.164l-.21 1.164c-.016.11.03.18.179.18h1.234l-1.25 6.984a8 8 0 0 1-.336 1.375c-.125.344-.242.602-.39.797-.14.18-.274.312-.508.39a2.2 2.2 0 0 1-.656.094c-.133 0-.313-.023-.446-.047-.133-.023-.203-.054-.304-.093 0 0-.141-.055-.203.086-.047.117-.375 1.023-.415 1.132-.039.11.016.196.086.227.164.055.29.094.508.148.313.07.57.079.82.079.516 0 .985-.07 1.368-.211.39-.141.726-.391 1.03-.72.33-.358.532-.733.728-1.25.195-.507.359-1.14.492-1.874l1.258-7.117h1.835s.157.008.188-.164l.21-1.164c.017-.11-.03-.18-.179-.18h-1.789c.008-.04.094-.672.297-1.258.086-.25.25-.453.39-.594q.211-.208.47-.289c.18-.054.374-.086.6-.086.165 0 .337.016.462.047.172.04.242.055.289.07.18.055.21 0 .242-.085l.43-1.172c.047-.133-.063-.188-.102-.203m-24.937 12.07c0 .094-.07.172-.164.172h-1.485c-.093 0-.156-.078-.156-.172V41.093c0-.094.063-.172.156-.172h1.485c.093 0 .164.078.164.172z"/></g></svg>