<svg xmlns="http://www.w3.org/2000/svg" fill="none" viewBox="0 0 512 512"><g transform="translate(30.72 30.72) scale(4.506)"><g clip-path="url(#a)"><path fill="#00c1d5" d="M47.006.082H14.563S1.78.728 0 14.644v69.823S.89 98.463 15.453 99.92h28.399l4.287-4.29h-32.2S5.744 94.338 4.45 84.144v-68.61S4.045 5.179 15.777 4.208h27.427z"/><path fill="#78bd20" d="M52.993 99.92h32.443S98.22 99.273 100 85.357V15.535S99.11 1.539 84.547.082H56.23L51.941 4.37h32.121S94.256 5.664 95.55 15.859v68.608s.405 10.356-11.326 11.327H56.877z"/><path fill="#0091da" d="M79.206 87.137H36.731c-5.259 0-7.12-4.692-7.363-7.2V36.084c0-5.907 5.097-7.685 7.767-7.767h.08l42.638.162c5.34 0 7.282 4.855 7.525 7.363v43.042c0 2.427-.728 4.45-2.265 5.906-2.266 2.266-5.421 2.346-5.907 2.346m-46.601-7.524c.08.647.728 4.288 4.126 4.288h42.476c.08 0 2.265 0 3.721-1.375.809-.81 1.214-2.023 1.214-3.56v-42.8c-.08-.728-.809-4.45-4.37-4.45l-42.555-.162c-.567 0-4.612.405-4.612 4.532z"/><path fill="#0091da" d="M25.081 67.315h-5.664c-3.155 0-3.72-3.317-3.883-3.965V19.823c0-3.883 3.641-4.208 4.288-4.289l42.637.163c3.237 0 3.884 3.479 4.046 4.126v4.45h3.883v-4.774c-.323-2.67-2.346-7.686-7.847-7.686l-42.72-.162c-2.75.08-8.009 1.942-8.009 8.091v43.85c.243 2.59 2.266 7.525 7.686 7.525h5.665v-3.802z"/></g><defs><clipPath id="a"><path fill="#fff" d="M0 0h100v100H0z"/></clipPath></defs></g></svg>