<svg xmlns="http://www.w3.org/2000/svg" fill="none" viewBox="0 0 512 512"><g transform="translate(30.72 30.72) scale(4.506)"><g clip-path="url(#a)"><path fill="#a0dbe8" d="M32.39 76.734c.797-.367 1.602-.664 2.43-1 .93-.336 1.867-.664 2.797-.968a43 43 0 0 1 3.563-.93 49 49 0 0 1 4.89-.766c-.93 2.899-1.93 5.79-3.062 8.657.031.562.07 1.101.101 1.664A36.3 36.3 0 0 1 50 82.727c2.367 0 4.664.234 6.89.664 0-.563.032-1.133.102-1.664a161 161 0 0 1-3.062-8.657c1.633.164 3.297.399 4.89.766 1.196.266 2.367.562 3.563.93.93.296 1.867.601 2.797.968.836.297 1.632.633 2.43 1 5.656 2.532 10.82 6.258 15.046 11.118C93.273 78.695 100 65.148 100 50c0-27.594-22.367-50-50-50S0 22.367 0 50c0 15.11 6.727 28.664 17.344 37.852 4.226-4.86 9.39-8.586 15.047-11.118"/><path fill="#525353" d="M35.688 85.79a34.8 34.8 0 0 1 7.39-2.328c0-.563-.031-1.133-.101-1.664a161 161 0 0 0 3.062-8.656c-1.633.164-3.297.398-4.89.765a46 46 0 0 0-3.563.93c-.93.297-1.867.602-2.797.969l3.625.898zm-8.594 5.36c.101-.93.133-1.868.133-2.829a1.04 1.04 0 0 1 1.03-1.031h.9l3.195-10.586c-5.657 2.531-10.82 6.258-15.047 11.117a49.6 49.6 0 0 0 7.523 5.39c.766-.694 1.5-1.397 2.266-2.062m40.484-14.415 3.195 10.586h.899a1.04 1.04 0 0 1 1.031 1.032c0 .968.07 1.898.133 2.828.766.664 1.531 1.328 2.227 2.062a48 48 0 0 0 7.523-5.39c-4.195-4.86-9.352-8.586-15.016-11.118zm-6.094-.101 3.625-.899a99 99 0 0 0-2.796-.968 43 43 0 0 0-3.563-.93 49 49 0 0 0-4.89-.766c.93 2.899 1.93 5.79 3.062 8.657-.031.562-.07 1.101-.102 1.664 2.594.5 5.063 1.297 7.39 2.328z"/><path fill="#000" d="M49.969 87.32h7.054c-.132-1.297-.203-2.594-.164-3.86a36.3 36.3 0 0 0-6.89-.664 36.3 36.3 0 0 0-6.89.664 30 30 0 0 1-.165 3.86zm-25.102 5.89c.563.336 1.164.664 1.766 1 .203-1 .367-2.031.469-3.062-.766.664-1.5 1.367-2.227 2.062z"/><path fill="#000" d="M35.219 87.32h7.726c.133-1.296.203-2.593.164-3.859a34.2 34.2 0 0 0-7.39 2.329zm37.648 3.829a31 31 0 0 0 .469 3.062 23 23 0 0 0 1.766-1c-.735-.695-1.461-1.398-2.227-2.062zM64.75 87.32l-.469-1.531a34.8 34.8 0 0 0-7.39-2.329 30 30 0 0 0 .164 3.86z"/><path fill="#aa9678" d="m35.219 87.32.468-1.53 2.766-9.157-3.625-.899c-.836.297-1.633.633-2.43 1L29.203 87.32h6.024zm29.062-1.53.469 1.53h6.023l-3.195-10.586c-.797-.367-1.601-.664-2.43-1l-3.625.899 2.766 9.156z"/><path fill="#c0b098" d="M29.297 89.446s.07-.031.101-.07h-.101z"/><path fill="#c0b098" d="M49.969 89.382h-20.57s-.07.031-.102.07a30.3 30.3 0 0 1-.766 5.727 49.7 49.7 0 0 0 21.438 4.828z"/><path fill="#aa9678" d="M70.672 89.382h-.102s.07.031.102.07z"/><path fill="#aa9678" d="M70.57 89.384H49.96V100a49.8 49.8 0 0 0 21.438-4.828 30.6 30.6 0 0 1-.765-5.727c0-.031-.031-.07-.07-.07z"/><path fill="#8b7460" d="M72.867 91.148a26 26 0 0 1-.133-2.828 1.04 1.04 0 0 0-1.03-1.032H28.226a1.04 1.04 0 0 0-1.032 1.032c0 .968-.07 1.898-.133 2.828a31 31 0 0 1-.468 3.062c.633.336 1.265.664 1.898.969.43-1.867.695-3.797.766-5.727v-.07h41.375v.07c.07 1.961.336 3.86.765 5.727a44 44 0 0 0 1.899-.969 28 28 0 0 1-.43-3.062"/><path fill="#525353" d="M64.281 80.157c-.164-.165-.297-.368-.469-.563.165.234.336.398.47.563"/><path fill="#bbbcbd" d="M83.258 38.882q-.6-.84-1.297-1.602c-.203-.234-.398-.43-.602-.633-.07-.07-.164-.132-.234-.203-.133-.133-.266-.234-.398-.336v4.665l1.765 8.156c.031.07.031.133.07.203l1.235 1.398h1.297v-.367c0-3.86-.633-7.555-1.766-11.015-.031-.133-.031-.204-.07-.266"/><path fill="#676a6a" d="M82.688 49.704v.07c.03.203.03.399.03.602v.203c0 .203 0 .398-.03.563v.07c-.032.203-.07.398-.102.601l1.234-1.367-1.234-1.398c.031.234.07.43.102.664z"/><path fill="#000" d="M82.656 51.265v-.07c.031-.203.031-.398.031-.562v-.266c0-.203 0-.398-.03-.602v-.07c-.032-.203-.071-.398-.102-.602-.032-.07-.032-.132-.07-.203-.133-.398-.266-.734-.47-1.03-.03-.032-.07-.071-.07-.102-.07-.07-.101-.133-.164-.204-.07-.101-.164-.164-.265-.234-.032-.031-.07-.031-.102-.07-.07-.07-.164-.102-.234-.133-.032 0-.07-.031-.102-.031a1.3 1.3 0 0 0-.367-.07c-.133 0-.234.03-.367.07-.031 0-.07.03-.102.03-.07.032-.164.071-.234.134-.031.031-.07.031-.102.07-.101.07-.164.164-.265.234-.07.07-.102.133-.164.204-.032.03-.07.07-.07.101a3.2 3.2 0 0 0-.47 1.031v.032c-.07.164-.101.367-.132.562 0 .07-.032.102-.032.164-.03.235-.03.43-.07.664v.102c0 1.898.899 3.46 2 3.46.203 0 .367-.07.563-.132.03 0 .07-.031.101-.031.07-.032.133-.102.203-.133l.102-.102c.101-.07.164-.164.266-.265.07-.07.101-.133.164-.235.03-.07.07-.101.101-.164.07-.101.102-.203.164-.336.031-.03.031-.07.07-.133.07-.164.102-.335.165-.5 0-.203.03-.398.03-.601zM80.79 50c-.43 0-.766-.563-.766-1.297 0-.735.336-1.297.766-1.297s.766.563.766 1.297S81.187 50 80.789 50"/><path fill="#fff" d="M80.79 50c.422 0 .765-.58.765-1.297 0-.716-.343-1.297-.766-1.297s-.766.58-.766 1.297c0 .716.343 1.297.766 1.297"/><path fill="#909393" d="M78.93 48.9c.132-.4.265-.735.468-1.032.032-.031.07-.07.07-.102.071-.07.102-.133.165-.203.07-.101.164-.164.265-.234.032-.031.07-.031.102-.07.07-.07.164-.102.234-.133.032 0 .07-.032.102-.032.102-.03.234-.07.367-.07s.234.031.367.07c.032 0 .07.032.102.032.07.031.164.07.234.133.031.03.07.03.102.07.101.07.164.164.265.234.07.07.102.133.165.203.03.032.07.07.07.102.203.297.367.633.469 1.031l-1.766-8.156-1.766 8.156z"/><path fill="#000" d="M57.125 50.4c0-.165 0-.337-.031-.5-.032-.165-.032-.297-.07-.47a1.7 1.7 0 0 0-.133-.429 2.4 2.4 0 0 0-.164-.43c-.07-.133-.133-.265-.204-.398-.234-.399-.5-.766-.836-1.063a5.4 5.4 0 0 0-1.46-.968 6 6 0 0 0-.836-.266h-.032a4 4 0 0 0-.898-.102c-.297 0-.602.032-.898.102h-.032c-.297.07-.562.133-.836.234h-.03a3.6 3.6 0 0 0-.767.399 5 5 0 0 0-.664.531h-.03a5.3 5.3 0 0 0-.868 1.102c-.07.132-.133.265-.203.398 0 0 0 .031-.031.031-.07.133-.102.235-.133.367 0 .032-.032.032-.032.07-.03.134-.07.235-.101.368 0 .031-.031.07-.031.102-.032.132-.032.234-.07.367 0 .031 0 .07-.032.101 0 .164-.031.336-.031.5 0 .297.031.602.101.899v.031c.07.297.133.563.266.867.234.531.563 1.031.969 1.461.336.336.695.633 1.101.867l.399.203h.031c.133.07.266.102.367.133l.07.032c.133.03.235.07.368.101.031 0 .07.031.101.031.133.032.235.032.367.07.032 0 .07 0 .102.032.164 0 .336.031.5.031.664 0 1.266-.133 1.828-.367.266-.133.531-.266.797-.43.5-.336.93-.765 1.266-1.265.164-.266.297-.532.43-.797a4.8 4.8 0 0 0 .367-1.828v-.032l.03-.07zm-4.695-.563a1.774 1.774 0 0 1-1.766-1.766c0-.968.797-1.765 1.766-1.765.968 0 1.765.797 1.765 1.765a1.773 1.773 0 0 1-1.765 1.766"/><path fill="#fff" d="M52.43 49.837a1.766 1.766 0 1 0 0-3.532 1.766 1.766 0 0 0 0 3.532"/><path fill="#bbbcbd" d="m49.164 47.04 3.266-9.953v-2.329a28 28 0 0 0-5.563-.562c-.633 0-1.265.031-1.898.07-.102 0-.164 0-.266.032-3.266.234-6.46 1.101-9.422 2.46a30.3 30.3 0 0 0-7.023 4.493c-.563.5-1.133 1-1.664 1.531l-.297.297c-.5.5-1 1.031-1.461 1.562-.102.133-.203.235-.297.367a65 65 0 0 0-1.367 1.696c-.031.031-.07.101-.102.133a67 67 0 0 0-1.195 1.734l-.234.336c-.297.5-.602 1-.868 1.5h14.782l13.617-3.36z"/><path fill="#e2dddb" d="M61.648 45.938c.032-.399.07-.766.07-1.165.032-.53.032-1.03.071-1.562v-1.602c0-1.062-.07-2.093-.102-3.164-.03-1.07-.03 0-.03-.03 0 0-.032 0-.032-.032a21 21 0 0 1-1.102-.633h-.03a1.3 1.3 0 0 0-.298-.164c-.07-.031-.133-.102-.203-.133l-.031-.031a.6.6 0 0 1-.164-.102c-.664-.367-1.367-.664-2.063-.968-1.664-.696-3.93-1.329-5.226-1.633v2.328l3.226 9.922c.336.297.633.664.836 1.062.07.133.133.266.203.399s.133.265.164.43c.032.132.102.296.133.43.032.163.07.296.07.468.032.164.032.336.032.5v.031h3.93a37 37 0 0 0 .562-4.36c0 .032 0 .071 0 0z"/><path fill="#fbb040" d="M57.156 64.578c.899-.898 1.735-1.734 2.532-2.562.468-.5.93-1 1.398-1.461 3.297-3.563 5.695-6.922 7.156-11.22.031-.1.07-.233.102-.398v-.07c.031-.164.07-.336.101-.531 0-.133.032-.266.032-.398-.368-1.868-1.063-3.696-1.696-5.493v.032l-.031-.032c-.133-.101-.234-.234-.367-.336a37 37 0 0 0-1.133-1c-1.164-.968-2.367-1.867-3.625-2.632.07 1.062.102 2.093.102 3.164v1.601c0 .531-.032 1.063-.07 1.563-.032.398-.032.765-.071 1.164v.133c-.133 1.46-.297 2.93-.563 4.359l-.468 2.195c-.97 3.93-2.93 7.453-4.524 11.117q-.65 1.46-1.195 2.961c-.031.102-.07.204-.102.297.5-.531.97-1 1.297-1.328.43-.43.766-.797 1.133-1.133z"/><path fill="#909393" d="M49.203 47.038c.203-.203.43-.367.664-.53.235-.165.5-.298.766-.4h.031c.266-.1.531-.202.836-.234h.031c.297-.07.602-.101.899-.101s.601.031.898.101h.031c.297.07.563.133.836.266.532.234 1.032.531 1.461.969l-3.226-9.922z"/><path fill="#676a6a" d="M48.07 52.227a5.6 5.6 0 0 1-.265-.868v-.03a4 4 0 0 1-.102-.9c0-.163 0-.335.031-.5 0-.03 0-.07.032-.1 0-.134.03-.235.07-.368 0-.031.031-.07.031-.102.031-.132.07-.234.102-.367 0-.031.031-.031.031-.07.031-.133.102-.266.133-.367 0 0 0-.032.031-.032.07-.132.133-.265.203-.398a5.6 5.6 0 0 1 .867-1.102l-13.648 3.36h-.031L49.07 53.68a4.2 4.2 0 0 1-1-1.461z"/><path fill="#e2dddb" d="M78.758 49.664c0-.07.031-.133.031-.164.031-.203.07-.398.133-.562v-.07l1.766-8.157v-4.664c-1.461-1.195-2.993-1.867-4.626-1.867-2.062 0-3.96 1.133-5.39 2.53-1.563 1.532-2.766 3.462-3.758 5.392-.031.101-.102.164-.133.265.297.266.602.531.899.797a55 55 0 0 1 1.96 1.867l.9.899c.296.336.632.633.929.968.398.43.797.836 1.164 1.266.164.164.336.367.5.531.469.532.93 1.032 1.398 1.563l.164.164h4.032v-.102c0-.203 0-.43.03-.664z"/><path fill="#525353" d="M18.344 55.563s.031-.07.031-.101c.266-.664.531-1.329.836-2 .07-.204.164-.368.266-.532.234-.53.5-1.03.765-1.53.102-.204.203-.4.336-.634.07-.101.133-.234.203-.336.297-.5.563-1 .867-1.5l.235-.336c.367-.601.765-1.164 1.195-1.734.031-.031.07-.102.102-.133.43-.601.898-1.164 1.367-1.695.101-.133.203-.234.297-.367a40 40 0 0 1 1.46-1.563l.298-.297a24 24 0 0 1 1.664-1.53c2.226-7.524 9.125-13.016 17.242-13.016 3.265 0 6.523.93 9.32 2.664a18.3 18.3 0 0 1 6.688 7.289s0 .03.03.03c.032.071.071.134.134.235 1.265.766 2.46 1.664 3.625 2.633.398.336.765.664 1.132 1 .133.102.235.234.368.336.03-.102.07-.164.132-.266 1.133-7.226 4.329-12.453 8.086-12.453 2.829 0 5.36 2.961 6.891 7.524v.031c.43.469.867 1 1.297 1.563s0 .03.031.03c.031.071.031.133.07.204l-.07-.235C78.547 24.993 65.47 15.008 50.023 15.008c-19.375 0-35.054 15.68-35.054 35.055 0 3.828.601 7.492 1.734 10.922v-.031c.235-1.031.5-2.063.797-3.063.266-.797.531-1.562.836-2.328z"/><path fill="#fff" d="m83.79 50.468-1.235 1.367c-.032.164-.102.336-.164.5 0 .032-.032.07-.07.133a1.7 1.7 0 0 1-.165.336c-.031.07-.07.102-.101.164-.07.07-.102.164-.164.234a1 1 0 0 1-.266.266l-.102.102a.6.6 0 0 1-.203.132c-.03 0-.07.032-.101.032-.164.101-.367.133-.563.133-1.101 0-2-1.532-2-3.461h-4.031c.766.867 1.5 1.734 2.195 2.632l.032.032c.695.867 1.398 1.734 2.093 2.593.032.032.07.102.102.133.664.836 1.297 1.664 1.93 2.5.07.07.132.164.203.235.664.898 1.328 1.796 2 2.664v.03a34.5 34.5 0 0 0 1.828-10.85l-1.235.1z"/><path fill="#000" d="M44.71 34.258c.102 0 .165 0 .267-.031.632-.031 1.265-.07 1.898-.07 1.898 0 3.758.203 5.563.562 1.265.297 3.53.93 5.226 1.633.695.297 1.398.633 2.063.969.03 0 .101.03.164.101 0 0 .03 0 .03.031.071.032.134.07.204.133.102.07.203.102.297.164h.031c.43.235.899.532 1.102.633.03 0 .03.031.03.031l.032.032c-.031-.07-.07-.133-.133-.235 0 0 0-.031-.03-.031a18.1 18.1 0 0 0-6.688-7.29c-2.797-1.694-6.055-2.663-9.32-2.663-8.126 0-15.016 5.492-17.243 13.015 2.133-1.828 4.492-3.359 7.024-4.492a28.4 28.4 0 0 1 9.484-2.5zm25.993 2.492c1.43-1.398 3.328-2.53 5.39-2.53 1.634 0 3.196.663 4.626 1.867.133.101.265.234.398.336.07.07.164.132.235.203.203.203.398.398.601.633v-.032c-1.562-4.562-4.062-7.523-6.89-7.523-3.758 0-6.961 5.195-8.086 12.453.93-1.93 2.164-3.86 3.726-5.39z"/><path fill="#fff" d="M37.484 82.788c.336.133.633.234.97.336a35.1 35.1 0 0 0 11.585 1.961 34.8 34.8 0 0 0 13.086-2.531c.203-.102.43-.164.633-.266.336-.133.695-.297 1.031-.469.297-.133.602-.265.898-.43-.07 0-.132.032-.203.032-1.265.133-2.5.164-3.726-.031-7.227-1.032-8.82-4.524-8.586-8.125a19 19 0 0 1-1.602-1.032c-5.562-4.03-8.851-8.32-8.851-8.32s4.297 3.297 10.687 5.79c.133.07.266.1.399.163.297-1.031.664-2.031.968-2.898.032-.102.07-.203.102-.297.367-1 .766-2 1.195-2.961 1.602-3.664 3.563-7.227 4.524-11.117l.468-2.196h-3.93v.032c0 .664-.132 1.265-.366 1.828-.133.266-.266.562-.43.797-.336.5-.766.93-1.266 1.265a10 10 0 0 1-.797.43 4.8 4.8 0 0 1-1.828.367c-.164 0-.336 0-.5-.031-.03 0-.07 0-.101-.031-.133 0-.235-.032-.367-.07-.032 0-.07-.032-.102-.032-.133-.031-.234-.07-.367-.101l-.07-.032c-.133-.03-.266-.101-.368-.133h-.03c-.134-.07-.267-.132-.4-.203a4.6 4.6 0 0 1-1.1-.867L35.522 50.32h-14.75c-.07.102-.132.235-.203.336-.101.203-.234.399-.336.633-.265.5-.53 1.031-.765 1.531-.102.164-.164.367-.266.532-.297.664-.562 1.328-.836 2 0 .03-.031.07-.031.101a29 29 0 0 0-.797 2.367c-.297 1-.562 2.032-.797 3.063a34.92 34.92 0 0 0 12.75 17.445c.164.133.367.234.531.367 1 .696 2.032 1.367 3.094 1.93 1.399.867 2.86 1.563 4.36 2.164z"/><path fill="#9f2255" d="M61.687 71.868a6 6 0 0 0-.101 1.102 8.2 8.2 0 0 0 .133 1.828c.07.398.132.765.234 1.132.164.532.336 1.032.562 1.5.227.47.47.899.696 1.266.07.133.164.266.234.367.133.164.234.336.367.5.164.203.336.399.469.563.633.734 1.164 1.132 1.164 1.132v.032s0 .07.031.101c.07 0 .133-.03.204-.03 1.562-.204 3.132-.634 4.695-1.165a53 53 0 0 0 2.367-.93c.234-.101.469-.234.695-.336 8.024-3.898 14.75-10.75 14.75-10.75-10.054 4.961-19.937 4.758-26.5 3.696z"/><path fill="#e2066f" d="M81.055 58.359c-.633-.836-1.297-1.664-1.93-2.5-.031-.032-.07-.102-.102-.133-.695-.867-1.398-1.734-2.093-2.594l-.032-.031a184 184 0 0 0-2.195-2.633c-.031-.07-.101-.102-.133-.164-.468-.531-.93-1.031-1.398-1.562-.164-.165-.336-.368-.5-.532-.399-.43-.766-.836-1.164-1.265-.297-.336-.633-.633-.93-.97l-.898-.898a55 55 0 0 0-1.961-1.867c-.297-.265-.602-.531-.899-.797.633 1.829 1.368 3.664 1.735 5.563.101.5.164.969.234 1.43.898 6.554-1.234 10.851-4.562 16.507-.235.399-.5.836-.735 1.235-.765 1.265-1.265 2.5-1.531 3.625-.102.367-.164.734-.234 1.101 6.554 1.063 16.414 1.266 26.5-3.695 0 0-1.961-2.898-4.961-6.89a148 148 0 0 0-2-2.665c-.07-.101-.133-.203-.204-.265z"/><path fill="#000" d="M65.445 81.328s-.5-.399-1.164-1.133c-.164-.164-.297-.367-.469-.562-.132-.164-.234-.336-.367-.5-.07-.133-.164-.235-.234-.368-.234-.398-.469-.796-.695-1.265a15 15 0 0 1-.563-1.5c-.101-.367-.203-.735-.234-1.133-.102-.563-.133-1.195-.133-1.828 0-.367.031-.735.102-1.102s.132-.734.234-1.101a14 14 0 0 1 1.531-3.625c.234-.43.5-.836.734-1.235 3.329-5.656 5.461-9.922 4.563-16.507-.07-.47-.133-.97-.234-1.43a5 5 0 0 1-.164.867v.07a4 4 0 0 1-.102.399c-1.46 4.297-3.86 7.656-7.156 11.218-.43.5-.899.97-1.399 1.461-.797.836-1.664 1.696-2.53 2.563-.368.367-.735.695-1.102 1.062-.336.336-.797.797-1.297 1.329-.297.867-.664 1.867-.97 2.898-.132-.07-.265-.102-.398-.164-6.39-2.461-10.687-5.79-10.687-5.79s3.297 4.298 8.852 8.321c.53.399 1.062.735 1.601 1.031-.234 3.625 1.367 7.094 8.586 8.125a15.6 15.6 0 0 0 3.727.032c0-.07-.032-.102-.032-.133"/></g><defs><clipPath id="a"><path fill="#fff" d="M0 0h100v100H0z"/></clipPath></defs></g></svg>