<svg xmlns="http://www.w3.org/2000/svg" fill="none" viewBox="0 0 512 512"><g transform="translate(30.72 30.72) scale(4.506)"><g clip-path="url(#a)"><path fill="#7f54b3" d="M90.86 69.609H9.14A9.103 9.103 0 0 1 0 60.469v-31.25c0-5 4.063-9.063 9.14-9.063h81.798c5 0 9.14 4.062 9.14 9.14v31.25a9.204 9.204 0 0 1-9.219 9.063"/><path fill="#fff" d="M10.782 59.923s2.187 9.218 6.64 3.046c4.453-6.171 8.75-15.859 8.75-15.859s.313-2.422 1.563 2.89 6.64 12.5 6.64 12.5 4.922 6.173 6.953-.312c-.78-8.594 2.188-24.219 5.235-31.719 1.25-6.64-5.703-4.765-6.328-3.203C39.61 28.83 35.313 38.83 35 49.298c0 0-3.672-10-3.984-13.594-.313-3.672-4.14-4.61-6.328-1.094S15.86 51.72 15.86 51.72l-4.297-22.188s-4.297-5.703-6.797 1.25c0 0 4.453 27.266 6.015 29.14m57.187-24.22c-6.64-11.093-16.484-2.655-16.484-2.655s-7.5 8.671-4.141 20.468c5.39 11.641 12.969 6.485 15 5.547 2.11-1.015 11.016-11.172 5.625-23.36m-5.078 9.766c0 4.61-3.828 8.907-6.953 7.97-1.719-1.016-2.813-3.75-2.813-8.438 1.563-7.578 5-8.594 6.797-8.438 3.36 1.797 3.203 5.781 2.969 8.906m30-9.765c-6.64-11.094-16.485-2.656-16.485-2.656s-7.5 8.671-4.14 20.468c5.39 11.641 12.969 6.485 15 5.547 2.031-1.015 11.015-11.172 5.625-23.36m-5.078 9.765c0 4.61-3.828 8.907-6.953 7.97-1.72-1.016-2.813-3.75-2.813-8.438 1.563-7.578 5-8.594 6.797-8.438 3.281 1.797 3.125 5.781 2.969 8.906"/><path fill="#7f54b3" d="m47.89 69.61 17.423 10.234-3.672-10.235-10-2.812z"/></g><defs><clipPath id="a"><path fill="#fff" d="M0 0h100v100H0z"/></clipPath></defs></g></svg>