<svg xmlns="http://www.w3.org/2000/svg" fill="none" viewBox="0 0 512 512"><g transform="translate(30.72 30.72) scale(4.506)"><g clip-path="url(#a)"><path fill="#006ffb" d="M50 100c27.612 0 50-22.388 50-50S77.612 0 50 0 0 22.388 0 50s22.388 50 50 50"/><path fill="#fff" fill-rule="evenodd" d="M46.833 34.971c.396-2.683 1.259-6.125 2.6-10.333L50 22.9l.567 1.738q2.012 6.31 2.6 10.333.443 2.95 0 7.5-.45 4.57 0 7.559.662 4.373 4 7.266a11.65 11.65 0 0 0 7.875 2.95 11.58 11.58 0 0 0 8.475-3.5c2.333-2.329 3.508-5.142 3.533-8.433q.02-4.376.9-9.65a58 58 0 0 1 .875-4.417l.396-1.6.7 1.483a32.8 32.8 0 0 1 3.166 13.517v.667c.014 4.422-.87 8.8-2.6 12.87A33.13 33.13 0 0 1 62.872 78.8 32.7 32.7 0 0 1 50 81.396c-4.422.015-8.8-.868-12.87-2.596a33.13 33.13 0 0 1-17.618-17.616 32.7 32.7 0 0 1-2.595-12.875v-.663a32.8 32.8 0 0 1 3.162-13.516l.704-1.484.388 1.604c.3 1.184.596 2.654.879 4.413q.88 5.275.9 9.65c.025 3.291 1.208 6.104 3.533 8.433q3.518 3.5 8.48 3.5 4.47 0 7.87-2.95a11.63 11.63 0 0 0 4-7.267q.458-2.988 0-7.558-.443-4.55 0-7.5M50 75.363c4.57 0 8.854-1.084 12.854-3.242a26.6 26.6 0 0 0 7.375-5.829c.263-.292-.041-.742-.42-.638a18.2 18.2 0 0 1-4.767.626 17.65 17.65 0 0 1-9.084-2.459 17.7 17.7 0 0 1-5.625-5.137.414.414 0 0 0-.666 0 17.7 17.7 0 0 1-5.625 5.133 17.65 17.65 0 0 1-9.084 2.462 18 18 0 0 1-4.762-.624c-.38-.105-.688.345-.425.637a26.6 26.6 0 0 0 7.375 5.83c4 2.157 8.283 3.24 12.854 3.24" clip-rule="evenodd"/></g><defs><clipPath id="a"><path fill="#fff" d="M0 0h100v100H0z"/></clipPath></defs></g></svg>