<svg xmlns="http://www.w3.org/2000/svg" fill="none" viewBox="0 0 512 512"><g transform="translate(30.72 21.085) scale(4.698)"><path fill="#000" fill-rule="evenodd" d="M26.958 70.833 25.43 65.88H11.325l-1.533 4.954H0l14.158-40.787H22.6l14.333 40.787zm-8.55-29.137-4.875 16.783h9.634zm19.613-11.65h9.292v40.787H38.02zM49.813 62.5a19 19 0 0 1 2.183-5.709 16.2 16.2 0 0 1 3.312-3.962 35 35 0 0 1 4.221-3.087c1.167-.7 2.25-1.375 3.254-2.013a22 22 0 0 0 2.634-1.95 8 8 0 0 0 1.783-2.187 5.56 5.56 0 0 0 .654-2.709q.001-2.45-1.304-3.525a4.9 4.9 0 0 0-3.23-1.079 5.03 5.03 0 0 0-3.595 1.37q-1.444 1.37-1.446 4.576h-9.112a14.1 14.1 0 0 1 .933-5.188 11.45 11.45 0 0 1 2.75-4.137 12.8 12.8 0 0 1 4.417-2.738 16.8 16.8 0 0 1 5.996-.995 18.2 18.2 0 0 1 5.183.729 12.6 12.6 0 0 1 4.333 2.212 10.54 10.54 0 0 1 2.975 3.846 13.1 13.1 0 0 1 1.104 5.563 10.05 10.05 0 0 1-1.079 4.666 15.7 15.7 0 0 1-2.633 3.725 22 22 0 0 1-3.367 2.888 60 60 0 0 1-3.287 2.125 84 84 0 0 0-3.371 2.416 16 16 0 0 0-2.125 1.896 5.1 5.1 0 0 0-1.104 1.809 6.8 6.8 0 0 0-.309 2.154h16.992v7.637H49.05a38.4 38.4 0 0 1 .763-8.333m28.52-25.292a21 21 0 0 0 4.73-.437 6.7 6.7 0 0 0 2.858-1.309 4.56 4.56 0 0 0 1.416-2.216c.284-1.042.417-2.125.396-3.209h8.1v40.796h-9.346V43.854h-8.154z" clip-rule="evenodd"/></g></svg>