<svg xmlns="http://www.w3.org/2000/svg" fill="none" viewBox="0 0 512 512"><g transform="translate(30.72 30.72) scale(4.506)"><path fill="#521094" d="M26.69 0C16.267 0 7.79 8.495 7.79 18.941v45.335C7.791 83.983 23.77 100 43.432 100h31.545c9.032-.766 16.328-7.87 17.231-16.852V35.724C92.278 15.948 76.367 0 56.635 0zm.069 11.42h29.875c13.34 0 24.25 10.934 24.25 24.305v46.727a7.46 7.46 0 0 1-6.393 6.128H43.503c-13.41 0-24.249-10.864-24.249-24.305V18.942a7.48 7.48 0 0 1 7.505-7.52zm10.629 11.49c-3.613.419-6.391 3.413-6.53 7.034v23.815c0 1.602.625 2.996 1.668 4.04a5.6 5.6 0 0 0 4.03 1.672c3.126 0 5.696-2.578 5.696-5.71V38.647c0-2.367 1.945-4.317 4.308-4.317h7.434a5.6 5.6 0 0 0 4.031-1.67c1.042-1.045 1.667-2.508 1.667-4.11 0-3.134-2.71-5.64-5.836-5.64zm26.334 17.76c-3.127 0-5.697 2.576-5.697 5.71v15.11c0 2.367-1.946 4.317-4.307 4.317H46.28a5.6 5.6 0 0 0-4.03 1.672c-1.042 1.043-1.666 2.506-1.666 4.108.069 3.133 2.71 5.64 5.836 5.64h16.465c3.614-.418 6.394-3.412 6.532-7.033V46.379a5.63 5.63 0 0 0-1.668-4.04 5.6 5.6 0 0 0-4.03-1.671z"/></g></svg>