<svg xmlns="http://www.w3.org/2000/svg" fill="none" viewBox="0 0 512 512"><g transform="translate(18.668 9.397) scale(4.747)"><g clip-path="url(#a)"><g clip-path="url(#b)"><path fill="#069efe" fill-rule="evenodd" d="m43.072 60.613-2.174 5.266C46.74 83.865 46.74 83.865 50 99.554c3.26-15.69 3.26-15.69 9.101-33.675l-2.173-5.266L50 43.828z" clip-rule="evenodd"/><path fill="url(#c)" fill-rule="evenodd" d="M42.333 4.468h15.334l33.951 84.263H77.38L50 24.374 22.62 88.73H8.381z" clip-rule="evenodd"/><mask id="e" width="20" height="58" x="40" y="43" maskUnits="userSpaceOnUse" style="mask-type:luminance"><path fill="#fff" d="M40.898 66.416 50 43.828l9.1 22.588L50 100.91z"/></mask><g filter="url(#d)" mask="url(#e)"><path fill="#fff" fill-rule="evenodd" d="m50 78.217 27.172-67.723-54.344.278z" clip-rule="evenodd"/></g></g></g><defs><clipPath id="a"><path fill="#fff" d="M0 0h100v100H0z"/></clipPath><clipPath id="b"><path fill="#fff" d="M0 0h100v100H0z"/></clipPath><linearGradient id="c" x1="50.137" x2="50.01" y1="4.468" y2="95.578" gradientUnits="userSpaceOnUse"><stop stop-color="#ec2802"/><stop offset="1" stop-color="#fcb200"/></linearGradient><filter id="d" width="62.889" height="76.268" x="18.555" y="6.222" color-interpolation-filters="sRGB" filterUnits="userSpaceOnUse"><feFlood flood-opacity="0" result="BackgroundImageFix"/><feBlend in="SourceGraphic" in2="BackgroundImageFix" result="shape"/><feGaussianBlur result="effect1_foregroundBlur_867_14045" stdDeviation="2.136"/></filter></defs></g></svg>