<svg xmlns="http://www.w3.org/2000/svg" fill="none" viewBox="0 0 512 512"><g transform="translate(30.72 30.72) scale(4.506)"><g clip-path="url(#a)"><path fill="url(#b)" d="m50 50 21.651 12.5L50 100c27.614 0 50-22.385 50-50 0-9.11-2.448-17.643-6.706-25H50z"/><path fill="url(#c)" d="M50 0C31.493 0 15.348 10.062 6.702 25.006L28.349 62.5 49.999 50V25h43.296C84.647 10.06 68.504 0 50 0"/><path fill="url(#d)" d="M0 50c0 27.615 22.385 50 50 50l21.651-37.5L50.001 50 28.348 62.5 6.702 25.006A49.75 49.75 0 0 0 0 50"/><path fill="#fff" d="M75 50c0 13.807-11.193 25-25 25S25 63.808 25 50s11.193-25 25-25 25 11.193 25 25"/><path fill="url(#e)" d="M70.313 50c0 11.218-9.095 20.313-20.313 20.313S29.687 61.218 29.687 50 38.782 29.688 50 29.688 70.313 38.782 70.313 50"/></g><defs><linearGradient id="b" x1="75.106" x2="75" y1="24.897" y2="100" gradientUnits="userSpaceOnUse"><stop stop-color="#afccfb"/><stop offset="1" stop-color="#8bb5f8"/></linearGradient><linearGradient id="c" x1="42.748" x2="46.881" y1=".762" y2="67.953" gradientUnits="userSpaceOnUse"><stop stop-color="#1972e7"/><stop offset="1" stop-color="#1969d5"/></linearGradient><linearGradient id="d" x1="35.826" x2="35.826" y1="25.006" y2="100" gradientUnits="userSpaceOnUse"><stop stop-color="#659cf6"/><stop offset="1" stop-color="#4285f4"/></linearGradient><linearGradient id="e" x1="49.793" x2="50" y1="29.765" y2="70.313" gradientUnits="userSpaceOnUse"><stop stop-color="#3680f0"/><stop offset="1" stop-color="#2678ec"/></linearGradient><clipPath id="a"><path fill="#fff" d="M0 0h100v100H0z"/></clipPath></defs></g></svg>