<svg xmlns="http://www.w3.org/2000/svg" fill="none" viewBox="0 0 512 512"><g transform="translate(30.72 30.72) scale(4.506)"><g clip-path="url(#a)"><path fill="url(#b)" d="M90.251 74.421a37 37 0 0 1-4.116 1.84 39.8 39.8 0 0 1-14.022 2.523c-18.482 0-34.582-12.713-34.582-29.028a12.3 12.3 0 0 1 6.417-10.667c-16.717.703-21.013 18.123-21.013 28.33 0 28.855 26.595 31.78 32.324 31.78 3.09 0 7.75-.898 10.546-1.78l.512-.172a50.13 50.13 0 0 0 26.012-20.623 1.562 1.562 0 0 0-2.078-2.203"/><path fill="url(#c)" d="M90.251 74.421a37 37 0 0 1-4.116 1.84 39.8 39.8 0 0 1-14.022 2.523c-18.482 0-34.582-12.713-34.582-29.028a12.3 12.3 0 0 1 6.417-10.667c-16.717.703-21.013 18.123-21.013 28.33 0 28.855 26.595 31.78 32.324 31.78 3.09 0 7.75-.898 10.546-1.78l.512-.172a50.13 50.13 0 0 0 26.012-20.623 1.562 1.562 0 0 0-2.078-2.203" opacity=".35"/><path fill="url(#d)" d="M41.296 94.294a30.9 30.9 0 0 1-8.882-8.335 31.53 31.53 0 0 1 11.534-46.87c1.219-.574 3.3-1.613 6.07-1.562a12.64 12.64 0 0 1 10.034 5.078 12.45 12.45 0 0 1 2.484 7.288c0-.082 9.554-31.09-31.246-31.09C14.143 18.803.043 35.073.043 49.35a50.8 50.8 0 0 0 4.73 21.872 49.994 49.994 0 0 0 61.079 26.212 29.5 29.5 0 0 1-24.52-3.124z"/><path fill="url(#e)" d="M41.296 94.294a30.9 30.9 0 0 1-8.882-8.335 31.53 31.53 0 0 1 11.534-46.87c1.219-.574 3.3-1.613 6.07-1.562a12.64 12.64 0 0 1 10.034 5.078 12.45 12.45 0 0 1 2.484 7.288c0-.082 9.554-31.09-31.246-31.09C14.143 18.803.043 35.073.043 49.35a50.8 50.8 0 0 0 4.73 21.872 49.994 49.994 0 0 0 61.079 26.212 29.5 29.5 0 0 1-24.52-3.124z" opacity=".41"/><path fill="url(#f)" d="M59.497 58.142c-.316.41-1.289.976-1.289 2.21 0 1.02.664 2 1.844 2.824 5.616 3.906 16.205 3.39 16.232 3.39a23.26 23.26 0 0 0 11.823-3.26A23.97 23.97 0 0 0 99.992 42.65c.102-8.753-3.124-14.572-4.429-17.15C87.287 9.311 69.422 0 49.994 0A49.995 49.995 0 0 0 0 49.291C.187 35.02 14.373 23.493 31.246 23.493c1.367 0 9.163.133 16.405 3.934 6.382 3.35 9.725 7.397 12.05 11.408 2.413 4.168 2.843 9.433 2.843 11.53 0 2.098-1.07 5.207-3.047 7.777"/><path fill="url(#g)" d="M59.497 58.142c-.316.41-1.289.976-1.289 2.21 0 1.02.664 2 1.844 2.824 5.616 3.906 16.205 3.39 16.232 3.39a23.26 23.26 0 0 0 11.823-3.26A23.97 23.97 0 0 0 99.992 42.65c.102-8.753-3.124-14.572-4.429-17.15C87.287 9.311 69.422 0 49.994 0A49.995 49.995 0 0 0 0 49.291C.187 35.02 14.373 23.493 31.246 23.493c1.367 0 9.163.133 16.405 3.934 6.382 3.35 9.725 7.397 12.05 11.408 2.413 4.168 2.843 9.433 2.843 11.53 0 2.098-1.07 5.207-3.047 7.777"/></g><defs><radialGradient id="c" cx="0" cy="0" r="1" gradientTransform="matrix(37.2535 0 0 35.3908 61.407 69.701)" gradientUnits="userSpaceOnUse"><stop offset=".72" stop-opacity="0"/><stop offset=".95" stop-opacity=".53"/><stop offset="1"/></radialGradient><radialGradient id="e" cx="0" cy="0" r="1" gradientTransform="matrix(8.39201 -55.3873 -44.7574 -6.71362 27.573 77.729)" gradientUnits="userSpaceOnUse"><stop offset=".76" stop-opacity="0"/><stop offset=".95" stop-opacity=".5"/><stop offset="1"/></radialGradient><radialGradient id="f" cx="0" cy="0" r="1" gradientTransform="matrix(-3.16261 79.0651 168.409 6.32521 10.101 18.504)" gradientUnits="userSpaceOnUse"><stop stop-color="#35c1f1"/><stop offset=".11" stop-color="#34c1ed"/><stop offset=".23" stop-color="#2fc2df"/><stop offset=".31" stop-color="#2bc3d2"/><stop offset=".67" stop-color="#36c752"/></radialGradient><radialGradient id="g" cx="0" cy="0" r="1" gradientTransform="matrix(10.6453 36.4983 29.6549 -8.74438 93.767 30.233)" gradientUnits="userSpaceOnUse"><stop stop-color="#66eb6e"/><stop offset="1" stop-color="#66eb6e" stop-opacity="0"/></radialGradient><linearGradient id="b" x1="22.935" x2="92.591" y1="69.152" y2="69.152" gradientUnits="userSpaceOnUse"><stop stop-color="#0c59a4"/><stop offset="1" stop-color="#114a8b"/></linearGradient><linearGradient id="d" x1="59.657" x2="16.151" y1="38.937" y2="86.326" gradientUnits="userSpaceOnUse"><stop stop-color="#1b9de2"/><stop offset=".16" stop-color="#1595df"/><stop offset=".67" stop-color="#0680d7"/><stop offset="1" stop-color="#0078d4"/></linearGradient><clipPath id="a"><path fill="#fff" d="M0 0h100v100H0z"/></clipPath></defs></g></svg>