<svg xmlns="http://www.w3.org/2000/svg" fill="none" viewBox="0 0 512 512"><g transform="translate(30.72 30.72) scale(4.506)"><g fill-rule="evenodd" clip-path="url(#a)" clip-rule="evenodd"><path fill="#a6043f" d="M50 100 4.86 75.347V25l17.362 9.722v30.556L50 80.555"/><path fill="#95d921" d="m4.86 25 17.362 9.722L50 18.75l27.778 15.972L95.139 25 49.999 0z"/><path fill="#dcdfe7" d="m50 18.75 27.778 15.972L50 50.347 22.222 34.722z"/><path fill="#fff" d="M22.222 34.72 50 50.347v30.209L22.222 65.277z"/><path fill="#c9dae9" d="M50 50.346 77.778 34.72v30.556L50 80.554z"/><path fill="#1d6ac6" d="m50 100 45.14-24.653V25l-17.362 9.722v30.556L50 80.555"/><path fill="#ea1f5e" d="M50 100.001 4.86 75.348l17.362-10.069L50 80.556"/><path fill="#2e90e9" d="m50 100.001 45.14-24.653-17.362-10.069L50 80.556"/></g><defs><clipPath id="a"><path fill="#fff" d="M0 0h100v100H0z"/></clipPath></defs></g></svg>