<svg xmlns="http://www.w3.org/2000/svg" fill="none" viewBox="0 0 512 512"><g transform="translate(23.453 23.453) scale(4.651)"><path fill="#000" fill-rule="evenodd" d="M98.424 59.213c-.05.269-.117.628-.243.844l-.544.763-.428.775c-.291.467-.634.905-.97 1.33l-.613.66-.301.207.092.486.174 1.133.046.347-.15.578-.22.277.243 3.4.208.623.393 1.781c.151.7.143 1.445.277 2.185.1.548.117 1.086.208 1.688v.579l-.104.439-.139.185v.994l-.14.566c-.4.965-2.554 1.378-3.398.532-.173-.173-.238-.369-.313-.648-.066-.247-.087-.556 0-.81a17 17 0 0 0-.774.105c-.23.037-.402-.085-.578-.058l-.67.15c-1.164.23-2.565.114-2.822-.844a1.56 1.56 0 0 1-.023-.775c-.272-.12-.648-.72-.566-1.168.05-.278.166-.636.034-.89-.278.16-1.571.513-2 .37l-.092.359c-.048.186-.15.299-.197.428l.012.381c0 .233-.064.641-.15.81-.106.203-.324.382-.52.496-.27.156-.635.157-.972.243-.367.094-.74.197-1.168.266-.426.069-.904-.057-1.226-.14-.74-.187-1.225-.248-1.421-.982-.064-.234-.092-.45-.012-.694l-.81.162c-.847.138-2.235-.155-2.59-.578-.177-.213-.285-.49-.346-.821-.022-.12.073-.256.023-.324l-.22-.173c-.104-.136-.145-.263-.23-.428-.047.372-.422.597-.706.751l-.185.208-.37.266c-.563.34-1.683.251-2.082-.186l-.404.255-.798.185c-.521.095-1.49-.391-1.688-.636-.097-.12-.135-.266-.232-.392l-.358-.186c-.295-.172-.572-.38-.764-.66-.171-.25-.112-.605-.23-.924-.109-.29-.331-.552-.429-.833l-.231-1.006-.046-.405c-.063-.201-.188-.397-.231-.66h-.012l-.29 1.596-.08.717c-.126.6-.302 1.315-.625 1.735-.089.115-.417.407-.554.462l-.475.104-.207.3a1.8 1.8 0 0 1-.382.348c-.324.23-.73.372-1.202.462-.185.035-.352-.044-.486-.081-.637-.174-1.147-.556-1.168-1.33-.31-.043-.504-.216-.716-.358l-.035.023c-.193.399-.727.435-1.179.59l-.37.231c-.769.246-1.444.128-2.116-.15-.403-.167-.718-.38-1.04-.624l-.255-.231-.323-.116c-.309-.187-.651-.476-.81-.81l-.127-.52.012-.207c-.049-.17-.136-.394-.174-.59l.012-.509c-.073-.358-.167-.74-.243-1.122l-.208-1.63c-.04-.242-.003-.503.028-.729h-.625l-.015.093-.035.602-.346 1.792c-.083.436-.076.782-.197 1.156l-.14.243-.139.67c-.053.139-.214.235-.277.359l-.104.474-.277.405c-.15.191-.387.262-.59.404-.25.177-.487.48-.682.718-.073.088-.19.157-.255.243l-.104.265-.3.428c-.3.376-1.11.546-1.573.22-.134-.095-.285-.17-.381-.3l-.29-.452-.103-.254c-.107-.143-.292-.254-.37-.428-.17-.38-.069-.967-.255-1.33-.432.236-.783.603-1.19.867-.113.073-.356.038-.44.139-.141.31-.121.596-.37.786-.623.475-1.42.438-2.185.139l-.393-.139a2.2 2.2 0 0 1-.555-.45l-.162-.22-.323-.07c-.36-.143-.675-.492-.867-.81-.162-.267-.126-.627-.186-.97l-.173-.682-.012-.52c-.115-.563-.358-1.019-.45-1.62h-.012a15 15 0 0 1-.185 1.665v.625l-.116.474-.092.115v.266l-.116.474c-.162.33-.564.618-.879.798l-.335.104-.15.231c-.17.219-.538.486-.797.602-.276.122-.744.097-.995.243-.044.104-.134.135-.22.197-.678.48-1.33.135-2.046.023-.14.128-.29.16-.462.266l-.324.265c-.514.324-1.495.41-2.115.162-.2-.08-.358-.237-.52-.359-.21.005-.402.024-.613.058a1.7 1.7 0 0 1-.624-.046l-.393-.081c-.456-.182-.667-.777-.89-1.19-.117.063-.154.165-.243.254l-.417.312c-.347.211-1.02.232-1.445.14.078.224.07.533.012.751-.066.244-.106.415-.255.566-.43.442-1.595.598-2.486.44-.308-.055-.629-.166-.913-.197l-.3.057c-.418-.057-1.073-.116-1.4-.289-.323-.17-.484-.475-.566-.89l-.035-.694c-.054-.16-.142-.384-.185-.578l-.104-1.006-.15-1.007-.023.012-.278 1.306c-.089.359-.091.695-.173 1.087l-.127.486c-.018.212.172.4.127.66l-.127.554-.14.173-.011.208c-.084.342-.169.606-.359.833-.594.707-2.592.395-3.064-.208-.208-.267-.257-.55-.37-.936-.344-.123-.477-.411-.636-.729h-.012c-.055.415-.441.577-.728.775l-.116.15a2.1 2.1 0 0 1-.542.37c-.722.297-1.77.113-2.186-.38-.207-.247-.445-.864-.358-1.319.027-.142.17-.392.115-.566-.046-.148-.178-.343-.243-.497l-.22-.82-.01-.649-.024-.532-.104-.474c-.105-.612.18-1.11-.058-1.607l-.046.74.139 1.862-.012 1.064-.092 2.15c-.017.766.057 1.57-.081 2.255-.04.204-.123.43-.174.613l-.127.508c-.468.756-1.474 1.19-2.612.88-.23-.063-.443-.09-.625-.198-.626-.37-.858-.824-.994-1.676l-.798-.174c-.823-.225-1.346-.415-1.56-1.248-.066-.252-.037-.622.091-.856.23-.42.65-.721 1.053-.97l.37-.208c.022-1.527-.194-3.017-.474-4.267l-.185-1.526c-.055-.207-.142-.454-.185-.682l.011-.532c-.193-.789-.133-1.791-.277-2.66-.052-.31 0-.708.058-.97l.07-.324c-.045-.18-.163-.428-.202-.657l.162-.775c-.795-.257-1.156-1.623-.832-2.625.049-.151.19-.275.277-.393.197-.265.385-.5.59-.752l.197-.139.15-.22.231-.185.475-.659.682-.763.38-.474c-.255-.672-.284-1.503-.288-2.429-.002-.326-.048-.589.081-.855.058-.12.185-.213.266-.313l.243-.358c.188-.24.552-.3.867-.417l.104-.08c.424-.205 1.4-.216 1.826-.013.508.244.933.63 1.226 1.11.093.157.11.349.197.52l.012-.023.2-.257V21a.96.96 0 0 1 .877-1.04q.055-.005.111-.003h76.134A1.133 1.133 0 0 1 87.697 21v29.86l.139.027.347.243c.467.332.549.342.832.88l.046-.035c.222-.53 1.036-.924 1.699-1.04.244-.044.431.017.648-.024.236-.046.593-.035.832.092.197.105.298.3.462.428.503.392.945.933 1.075 1.688.045.257-.189.928-.139 1.041.074.166.39.192.59.243.353.089.682.194.948.37.52.346.736.696 1.098 1.19.19.26.424.495.624.752.325.418.778.746 1.064 1.203.161.258.553.817.462 1.295" clip-rule="evenodd"/><path fill="#fff" d="m86.748 50.667-.717.174-.532.347-.162.034a1 1 0 0 0-.23.169V24.87H11.993v26.97a3.5 3.5 0 0 0-1.642.275l-.092.066V21.172c0-.191.155-.347.347-.347h75.887c.191 0 .347.156.347.347v29.49a.4.4 0 0 0-.093.005M77.59 21.876a1.075 1.075 0 1 0 0 2.15 1.075 1.075 0 0 0 0-2.15m3.218 0a1.076 1.076 0 1 0 0 2.151 1.076 1.076 0 0 0 0-2.151m3.221 0a1.076 1.076 0 1 0 0 2.151 1.076 1.076 0 0 0 0-2.151"/><path fill="#fff" d="M77.005 30.654h4.623v11.851h-4.623zm-9.855 8.96v-7.498h.867v3.451a2.9 2.9 0 0 1 .895-.939c.31-.213.674-.33 1.049-.338.284-.003.564.075.806.226.221.126.398.317.508.546q.119.249.16.523.05.568.04 1.14v2.89h-.867v-3.007a4 4 0 0 0-.072-.985.76.76 0 0 0-.264-.393.66.66 0 0 0-.422-.153 1.56 1.56 0 0 0-.976.43c-.36.298-.655.667-.867 1.084v3.024zm-5.351-.274v-.914c.337.222.71.383 1.1.478q.486.122.986.136c.328.027.657-.046.942-.211a.63.63 0 0 0 .29-.53.52.52 0 0 0-.137-.358 2.1 2.1 0 0 0-.667-.364l-.29-.12-.6-.238q-.963-.376-1.216-.696a1.2 1.2 0 0 1-.254-.772 1.31 1.31 0 0 1 .494-1.055c.332-.29.867-.413 1.609-.413a5.2 5.2 0 0 1 1.575.24v.785c-.52-.2-1.07-.307-1.627-.318a1.6 1.6 0 0 0-.867.194.56.56 0 0 0-.31.48c0 .187.104.358.27.445q.414.237.866.388l.578.214a3 3 0 0 1 1.13.636c.218.234.335.547.323.867a1.38 1.38 0 0 1-.52 1.11q-.517.434-1.656.434a5.5 5.5 0 0 1-2.02-.418m-5.574.274v-.795l3.179-3.674H56.3v-.72h4.25v.72l-3.192 3.674h3.311v.795zm-7.52-.202-2.396-4.986h.95l1.911 3.897 1.594-3.897h.868l-2.006 4.824q-.638 1.52-1.21 2.023a2.2 2.2 0 0 1-1.486.5 3 3 0 0 1-.705-.07v-.76q.332.109.682.113c.258.005.512-.051.743-.165.247-.136.452-.335.595-.578q.229-.336.381-.714zm-8.307.202v-5.188h.757v1.188a3.6 3.6 0 0 1 .667-1.046.92.92 0 0 1 .625-.29.73.73 0 0 1 .607.29c.168.246.249.54.23.838v.29a2.8 2.8 0 0 1 .368-.773q.19-.266.448-.468a.86.86 0 0 1 .534-.173c.227 0 .441.107.578.289.159.188.237.578.237 1.13v3.914h-.757v-3.543q.009-.3-.029-.599a.43.43 0 0 0-.11-.243.25.25 0 0 0-.182-.083c-.162 0-.332.12-.517.37a4.5 4.5 0 0 0-.564 1.223v2.876h-.722v-3.54q.001-.687-.133-.807a.4.4 0 0 0-.243-.12q-.239 0-.512.413a5.5 5.5 0 0 0-.52 1.057v2.998h-.762zm-9.44 0v-7.498h.868v3.451a2.9 2.9 0 0 1 .895-.939c.309-.213.673-.33 1.048-.338a1.5 1.5 0 0 1 .806.226c.222.126.399.317.51.546q.117.249.158.523.052.568.04 1.14v2.89h-.867v-3.007a4 4 0 0 0-.072-.985.76.76 0 0 0-.263-.393.66.66 0 0 0-.422-.153 1.56 1.56 0 0 0-.977.43 3.4 3.4 0 0 0-.866 1.084v3.024zm-3.574.145a2.23 2.23 0 0 1-1.783-.778 3.22 3.22 0 0 1 0-3.926 2.43 2.43 0 0 1 3.56 0 3.22 3.22 0 0 1 0 3.926 2.23 2.23 0 0 1-1.777.777m0-.72a1.3 1.3 0 0 0 1.098-.54 2.89 2.89 0 0 0 0-2.96 1.395 1.395 0 0 0-2.202 0 2.87 2.87 0 0 0 0 2.96c.256.35.67.552 1.104.537zm-9.45 1.295v-.72c-.209 0-.426 0-.648-.031a5 5 0 0 1-.63-.102 3.6 3.6 0 0 1-.675-.24v-.899q.295.15.604.269.305.114.624.176.36.07.725.093v-2.587l-.5-.269q-1.415-.758-1.416-1.833a1.7 1.7 0 0 1 .472-1.112 2.05 2.05 0 0 1 1.444-.624v-.772h.65v.772c.44.01.876.075 1.3.19v.804l-.165-.046q-.557-.166-1.135-.237v2.53l.52.288c.393.2.738.485 1.009.833.176.256.27.557.272.867 0 .28-.07.556-.206.801a2 2 0 0 1-.595.668c-.3.201-.642.333-1 .384v.79zm0-5.033v-2.144a1.45 1.45 0 0 0-.723.352.78.78 0 0 0-.254.578.98.98 0 0 0 .216.599c.216.248.473.457.76.615m.65 1.376v2.14c.268-.075.507-.23.684-.446.117-.17.18-.372.18-.578a.86.86 0 0 0-.177-.54 3.1 3.1 0 0 0-.688-.576"/><path fill="#fff" fill-rule="evenodd" d="M97.135 59.758q-.164.26-.367.491-.14.265-.289.526a9 9 0 0 1-1.46 1.928c-.074.075-.152.19-.253.19a.23.23 0 0 0-.133.055c-.112.078-.225.006-.29.078-.152.165-.123.275-.097.477s.06.402.095.602c.075.43.162.864.214 1.297.02.182.107.414-.072.52a2 2 0 0 1-.206.096c-.112.05-.063.144-.063.257.03.9.107 1.792.185 2.688l.061.746q-.007.317.072.624.216.566.344 1.157.3 1.312.425 2.654c.084.89.323 1.815.254 2.711-.133-.02-.26-.083-.399-.083.278.442.104 1.064.157 1.555.054.558-.567.64-1.006.668a1.33 1.33 0 0 1-.673-.095c-.235-.121-.156-.44-.116-.662.055-.277.159-.54.22-.815q.152-.355.236-.73c-.13.016-.367.057-.468-.055a4 4 0 0 0-.052-.697c-.07-.42-.173-.83-.248-1.249-.165-.974-.295-1.96-.454-2.937.06 1.18.037 2.365.02 3.544.037.231.002.468-.098.68-.047.069.04.222.04.305a3 3 0 0 1 0 .38c-.003.098.055.268-.026.326a.7.7 0 0 1-.236.107 3 3 0 0 1-.616.081c-.104.005-.462.055-.465-.029-.002-.083-.522.064-.607.081q-.782.151-1.577.128a2.4 2.4 0 0 1-.347-.043c-.133-.03-.216-.024-.216-.168.014-.264-.038-.35.234-.466.185-.081 1.13-.205 1.13-.457.043 0 .063.121.08.04.019-.08.102-.066.166-.066-.07-.09.136-.13.153-.248q-.178.1-.318.248c.063-.205.332-.294.508-.358.015.008-.049.153.072.083.064-.034.082.009.128 0s.063-.06.104-.08c-.148-.117-.286-.218-.27-.406.018-.188.09-.37.09-.557a10 10 0 0 1-.086-1.249c-.023-.873.04-1.795-.11-2.63s-.396-1.653-.534-2.492q-.189-1.272-.246-2.555c-.092 0-.063.133-.133.148s-.07-.356-.07-.425c-.025-.298-.077-.602-.123-.891a6 6 0 0 1-.082-.974 6 6 0 0 1-.014-.813c.092-.61.318-1.162.41-1.766.046-.29.083-.578.127-.867.023-.159.05-.322.078-.48-.009-.035-.055-.211-.032-.237.124-.148.032-.619.032-.826q.012-.452.092-.897.066-.219.082-.447-.006-.211.071-.408.148-.279.35-.52a.9.9 0 0 1 .29-.235c.132-.086.132-.236.196-.375a.39.39 0 0 0 .014-.364c-.034-.122-.19-.05-.289-.05a2.5 2.5 0 0 1-.37-.665 1.9 1.9 0 0 1-.288-.627c-.133.052-.185-.04-.257-.141s.066-.235.133-.313c.003-.179-.032-.364-.032-.546a.2.2 0 0 0-.058.026c-.177-.029-.072-.188-.121-.29.036-.22.145-.424.309-.577a1.5 1.5 0 0 1 .327-.249.75.75 0 0 1 .557-.165c.104 0 .185-.078.29-.028.13-.026.251.04.387.04 0-.032-.023-.07 0-.09s.052.026.052.026c.009.063.072.026.104 0 .046.038.121.084.101.142q.078.059.133.139c.216.046.283.285.427.43.179.034.145.228.2.355.014.044.1.061.057.116l.063.044c-.046.101.043.226-.063.289.11.11-.115.139.02.24l-.066.026c.052.074-.008.103-.06.156l.054.095c-.11.053.011.142-.038.22-.124.043 0 .107 0 .173a.2.2 0 0 1-.1 0 .5.5 0 0 1-.09.029q.045.21.127.408c.072.168.087.228.274.248.13.012.347-.037.399.09.075.202.11.202.311.202.55.014 1.077.227 1.482.599q.253.32.468.665c.223.272.46.523.68.812.181.228.413.422.598.657q.131.171.289.32.084.193.228.344c.269.314.084.756-.116 1.03m-6.792 16.337c-.003 0-.072.064-.023.064a.1.1 0 0 1 .052-.024zm.085-.057c.018.053.049-.004.08.002q-.008-.09-.08-.002m4.685-16.705c.032-.315-.214-.376-.384-.578.023.005-.043.878-.043.974a5 5 0 0 1-.15.867 3.3 3.3 0 0 1 .506-.815.75.75 0 0 0 .22-.26c.05-.133-.053-.133-.149-.188m-5.374-1.37c-.011.508-.072 1.028-.072 1.514-.036.19-.11.37-.22.53a7 7 0 0 0-.26.898q-.248.651-.612 1.243-.078.176-.104.368a3.4 3.4 0 0 1-.179.578 7 7 0 0 1-.421.697c-.093.245.124.439.245.632a.29.29 0 0 1 0 .266c-.04.04-.075 0-.116 0-.029.072.038.165-.06.202-.038-.008-.079.012-.079.058.05.428-.02.833.113 1.246-.05.252.115.448.173.674.315.428.29 1 .578 1.445.315.624.428 1.333.645 2q.274 1.547.797 3.027.111.493.162.994c.029.06.038.126.026.19a.63.63 0 0 1-.5.18c-.099.092-.078.234-.113.355-.141.448-.647.497-.985.708-.167.017-.283.179-.48.119-.06-.035-.147-.053-.147-.14-.081-.292.13-.496.208-.742.011-.015.032-.024.032-.044-.07-.023-.153-.012-.196-.07.078-.165-.015-.358 0-.54-.336-.272-.101-.78-.29-1.11-.023-.046-.02-.099-.063-.136a3 3 0 0 1-.829.225c-.265.053-.22.446-.529.446-.161.15-.416.11-.624.165-.26.063-.658.15-.867-.055.02-.046.02-.092.02-.136.318-.214.775-.483.827-.896-.442-.734-.344-1.63-.364-2.524-.159-.765-.084-1.61-.245-2.367a8.6 8.6 0 0 1-.72-2.193 2.9 2.9 0 0 0-.206-.972c-.092.009-.156-.066-.234-.098-.026.072.032.194-.078.22l-.078-.015a3.6 3.6 0 0 1-.416-.595 5.5 5.5 0 0 0-.079-.769c.043-.312.283-.549.388-.838.167-.612.13-1.315.358-1.893.13-.289.286-.578.42-.867.028-.015.069-.052.028-.081a4.4 4.4 0 0 0 .388-1.446c-.113-.367-.405-.843-.096-1.205.315-.26.339-.64.474-.974.264-.303.68-.332 1.03-.474.156-.082.173-.258.173-.405a2 2 0 0 0-.09-.46 1.12 1.12 0 0 1-.531-.754l-.07-.078-.049-.218a.5.5 0 0 0-.13 0c-.112-.1.07-.303-.112-.39-.055-.124.084-.277-.055-.39.038-.107-.07-.2 0-.29 0-.08.11-.167 0-.222a.2.2 0 0 1 .03-.127c.016 0 .025-.024.054 0 .029.023-.015.032 0 .07.014.037.063.037.1.037.047-.061-.023-.13 0-.197.024-.066.13-.11.099-.188.173.075.225-.177.39-.157.06-.12.176-.12.289-.12.043-.03-.038-.082.02-.102l.119.02a.24.24 0 0 1 .15-.087c.055.004.124-.003.156.043.13-.008.257.03.361.107l.024-.025c.011-.024.043-.015.07 0 .054.112.224.06.239.205.078.015.11.11.182.124a.23.23 0 0 1 .202.107c-.032.078.02.11.058.194s-.05.234.078.234a.05.05 0 0 1 .036-.034.05.05 0 0 1 .048.012c.034.029.034.075.034.119-.046.037-.003.098-.032.156s-.058.141-.029.197c.03.054.113.014.113.092-.17.084-.03.284-.17.373a.47.47 0 0 1-.133.416c-.009.078.063.058.118.116.056.057.116.153.206.115.023-.02.043-.023.063-.058.02-.034-.049-.107 0-.107.05 0 .063.053.096.078a.17.17 0 0 1-.02.148c.103.07.005.364.21.249.05-.024.092.025.119.054a.133.133 0 0 1 .052.177.36.36 0 0 0-.136.245c.07.024.15.096.22.024.037-.026.014-.09.014-.12 0-.028-.03-.04-.03-.071.05-.055.07.032.09.055a.23.23 0 0 1 .021.173c-.023.072-.153.104-.055.179a.2.2 0 0 1-.014.107.5.5 0 0 0 .144 0c.46.168.5.685.604 1.09.055.471.075.916.098 1.413-.007.038-.051.047-.074.07m-1.922-5.698c-.014.015.006.046.03.034.023-.011.023-.011.023-.034zm.354 7.36q-.21.3-.347.639c-.015.107.066.19.029.29a2 2 0 0 0-.237 0l.037.219c.145.29.23.607.249.93v.015c.198-.412.33-.853.39-1.306.07-.39.236-.757.32-1.157-.02-.049.01-.147-.057-.147-.165.15-.235.352-.385.517m.583-4.822c0-.032.02-.06 0-.095-.098-.012-.19.037-.254-.035l.017.061a.26.26 0 0 0 .237.07m-4.721 4.209a11 11 0 0 1-.69 1.144l-.344.486c.057.148.144.277.207.422.117.359.15.74.099 1.113-.017.342-.061.682-.096 1.024a1.1 1.1 0 0 0 .084.505c.052.205.074.417.063.627q-.014.543-.083 1.082c-.012.332.092.91-.092 1.176.02.414.02.827.02 1.24.028.37.114.735.254 1.078.216.76.345 1.542.384 2.33q.06.627.035 1.258a1.25 1.25 0 0 0 .043.555q.088.219.118.453c.055.353-.005.703.03 1.053.016.17.034.899-.319.69q.054.18.055.368-.035.212-.023.428c.024.16.013.322-.032.477q-.187.113-.402.153a.7.7 0 0 1-.376 0q-.166.115-.36.177c-.294.088-.6.123-.906.104a4.3 4.3 0 0 1-.866-.116 4 4 0 0 1-.41-.116c-.142-.049-.087-.338-.038-.47.05-.133.243-.218.356-.305.156-.124.306-.251.468-.36.202-.235.522-.342.694-.61-.032-.03-.317-.019-.118-.15a.1.1 0 0 0-.012.042l-.012.009c.043 0 .188.04.223-.067-.054-.018-.159-.04-.196.012-.098-.005-.223-.011-.252-.075-.029-.063 0-.202 0-.289-.015-.289-.049-.578-.049-.867 0-.552-.107-1.05-.14-1.645-.031-.595-.07-1.173-.089-1.751a4.1 4.1 0 0 0-.265-1.627c-.168.534.066 1.173.103 1.734.043.66-.083 1.284-.103 1.937q.016.518-.09 1.025a1.4 1.4 0 0 0-.047.434.47.47 0 0 1-.118.338c-.162.148-.084.54-.084.772s-.468.275-.656.29q-.202.013-.402-.024c-.12-.03-.236.052-.358.09a3.7 3.7 0 0 1-.89.15 4.3 4.3 0 0 1-.977-.043c-.178-.035-.716-.125-.716-.347a.7.7 0 0 1 .09-.364c.06-.102.24-.116.35-.142a1.4 1.4 0 0 0 .541-.126 2 2 0 0 1-.203-.102c-.023-.054-.1-.063-.1-.133a1.2 1.2 0 0 1-.475 0c-.136-.132-.359-.052-.491-.19-.072-.084-.223-.082-.223-.226-.087-.214.104-.425-.014-.636-.052-.16.1-.3.014-.468.005-.11-.038-.22-.038-.341-.06-.396.012-.87-.15-1.238a7 7 0 0 1-.095-1.035c-.104-.073-.081-.208-.081-.312-.063-.336-.22-.64-.312-.966a1.93 1.93 0 0 1-.216-1.156 3.6 3.6 0 0 0-.356-.839c-.156-.428-.493-.757-.638-1.185a4 4 0 0 0-.578-.89l-.127-.099-.02.02q.072.827-.038 1.648.099.531.066 1.073c-.023.31.009.62.096.92.06.523.098 1.014.112 1.537.099.477.127.986.416 1.387.252.703.09 1.573.09 2.328a.58.58 0 0 1-.156.425.55.55 0 0 1-.378.023c-.017.078.034.148-.017.22a.87.87 0 0 1-.839.367 1.2 1.2 0 0 1-.5-.231.47.47 0 0 1-.029-.388c-.103-.153.047-.335.047-.505.057-.16 0-.319.08-.469.006-.15-.155-.23-.222-.355-.124-.35-.335-.662-.289-1.078-.003-.29-.032-.578-.032-.867a2.8 2.8 0 0 1-.037-1.413 1.17 1.17 0 0 0-.101-.604c-.119-.524-.092-1.116-.228-1.616a7.8 7.8 0 0 0-.22-1.665q.003-.58-.058-1.156l-.02.037v.422q.029.243 0 .486c-.087.03-.148-.052-.216-.075.023.124.115.257.08.413-.025.043-.002.128-.08.128h-.061c-.113-.104-.093-.301-.269-.347-.05-.102-.228-.127-.228-.263-.14-.032-.116-.191-.223-.249-.037-.248-.216-.454-.15-.728.006-.26.194-.46.156-.731a1.2 1.2 0 0 1 .084-.463c-.04-.529.116-1.035.116-1.537.058-.512.216-.971.26-1.483q.084-.28.13-.568c-.133.057-.254.14-.355.245-.286.15-.636.139-.887.384-.026.185.055.355.038.54a.9.9 0 0 0-.067.67.66.66 0 0 0 0 .458c.02.173-.023.332.096.462l-.041.578q-.033.427.058.844c.032.419-.096.908.06 1.286-.017.096.09.07.113.128.078.086 0 .193 0 .289.009.303-.058.665-.058.977q.058.401.058.806c.014.194-.144.393-.023.578.049.14-.084.211-.084.335.208.72.02 1.558.07 2.313.115.359.083.746.199 1.102.22.32.194.746.465 1.035a.3.3 0 0 1-.043.289c.043.156.051.32.023.48.194.43.778.653.731 1.18-.054.309-.38.312-.609.366a1.3 1.3 0 0 1-.922-.33c-.185-.612-.8-.64-1.184-1.006a.86.86 0 0 1-.053-.673 1.7 1.7 0 0 1-.26-.376c-.044-.338-.396-.552-.347-.916-.185-.37-.098-.856-.289-1.22a1 1 0 0 1-.158-.612q.036-.81-.026-1.616a2.1 2.1 0 0 0-.17-.844l-.061-.54a4.5 4.5 0 0 1-.257-1.318 2.7 2.7 0 0 1-.174-.578c-.06.075-.011.24-.15.24.002.443-.047.885-.147 1.317q-.243.646-.356 1.327c-.28.416-.257.971-.488 1.408-.09.491-.167.991-.266 1.477-.078.651-.265 1.252-.306 1.917a3.3 3.3 0 0 0-.22.797c-.032.081-.107.142-.124.228a.7.7 0 0 0-.24.228c-.132.05-.22-.09-.347-.057a1.26 1.26 0 0 0-.534.52 1.3 1.3 0 0 1-.866.63.61.61 0 0 1-.67-.256.58.58 0 0 1 .078-.458c.207-.228.34-.52.537-.737.112-.099-.055-.145-.078-.223.148-.381-.075-.879.11-1.248a3.8 3.8 0 0 0 .445-1.017c.15-.442.145-.942.324-1.382a3 3 0 0 1 .165-1.004c-.02-.399-.075-.785-.093-1.188q.032-.594-.023-1.188.023-.346.09-.685c.003-.055.078-.113.034-.159-.025-.176-.058-.347-.078-.532s.119-.294.223-.4a6 6 0 0 0 .12-1.141c.096-.471-.028-1.009.261-1.403-.13-.09-.032-.243-.032-.361.055-.352.067-.71.034-1.064a.7.7 0 0 0 .043-.29.12.12 0 0 0-.07-.106 2.3 2.3 0 0 1-.979-.4 3 3 0 0 0-.343-.211l.025.113q.018.76-.054 1.518c.04.708-.082 1.35.06 2.023.046.327.039.659-.02.983-.029.17-.205.277-.24.445-.098.061-.029.301-.21.22a.23.23 0 0 1-.058-.179l-.015.034c.037.382.19.723.19 1.116l.17 1.428c.03.372-.011.745-.12 1.102q-.18.386-.402.751c-.24.905-.798 1.677-.982 2.602.02.24-.043.515.205.636.11.12.125.286.232.41.185.205.522.19.6.495.033.08.04.17.02.254a.97.97 0 0 1-.846.2c-.3-.08-.562-.26-.742-.512-.211-.072-.555.008-.578-.313q-.001-.095.014-.188c-.032-.237.107-.41.07-.645.013-.413.205-.763.288-1.156.046-.503.136-.988.185-1.491.116-.489.446-.888.506-1.396.066-.276.03-.566-.104-.815-.364-.718-.59-1.495-.992-2.197-.138-.044-.277.029-.427.015l-.02.02q.05.837-.015 1.673c-.1.46.034.934.02 1.4-.005.407.116.78.142 1.182.054.618.037 1.338.07 1.948q.078.532.092 1.07l.042.06a1.5 1.5 0 0 1-.289.868c-.066.127-.043.312-.167.416a.7.7 0 0 1-.636.237.86.86 0 0 1-.368-.127.6.6 0 0 1 .001.141c-.023.214-.072.269-.289.323-.169.05-.347.058-.52.026a3.3 3.3 0 0 1-1.023-.379 3.7 3.7 0 0 1-.716-.563c-.104-.104-.293-.119-.425-.188a1 1 0 0 1-.373-.327c-.104-.15-.038-.277 0-.439.037-.162-.032-.214-.136-.31-.104-.095-.087-.297-.066-.421a1.4 1.4 0 0 0-.087-.578c-.19-.798-.252-1.619-.361-2.428a4.7 4.7 0 0 1 .037-.815 2.8 2.8 0 0 0-.13-.917 9 9 0 0 1-.392-1.67c-.024-.29-.058-.579-.082-.868a5.5 5.5 0 0 0-.083-.887 3.5 3.5 0 0 1-.188-.778c-.003-.289-.06-.578-.06-.867-.116.081-.12.243-.14.37a2.7 2.7 0 0 0-.115.564c-.119.396-.254.789-.376 1.185q-.178.57-.289 1.156a6.6 6.6 0 0 1-.413 1.188 9 9 0 0 0-.37 1.067q-.11.633-.139 1.275c-.05.399-.148.789-.22 1.182l-.12.624q-.01.34-.093.668c-.066.15-.165.286-.231.439q.01.234-.043.462c-.066.18-.338.099-.355.29-.018.19.049.43-.058.601a.67.67 0 0 1-.509.324 1.3 1.3 0 0 1-.115.157q-.222.257-.514.428a.5.5 0 0 1-.047.141c-.024.084-.113.124-.154.188-.181.254-.335.136-.458.573-.086.181-.224.49-.443.433-.283-.145-.33-.477-.474-.723-.02-.101-.156-.133-.182-.222-.07.005-.101-.073-.133-.12a3.1 3.1 0 0 0-.159-.941c-.09-.489-.054-1.024-.153-1.504-.072-.595-.344-1.103-.474-1.681a18 18 0 0 1-.31-1.46 8 8 0 0 1-.39-2.13 31 31 0 0 1-.577-2.272c-.018-.084-.024-.189-.093-.24a1.6 1.6 0 0 0-.04.604c.062.215.082.44.058.661.078.897.049 1.74.124 2.631l.1 1.76c-.017.905.13 1.78.116 2.677l-.052.107c.032.289-.34.254-.454.462-.194.145-.387.293-.578.434a7 7 0 0 1-.945.141c-.06.008-.126.03-.193.043a.85.85 0 0 1 .18.5c-.041.145.08.362-.122.417-.413.228-.881-.044-1.28-.177-.303-.141-.468-.505-.724-.72a.77.77 0 0 1-.714-.317c-.22-.249-.112-.579-.13-.902-.156-.052-.124-.257-.178-.384a6 6 0 0 1 0-.645c-.194-.35-.194-.795-.396-1.156a6.8 6.8 0 0 1-.174-1.971c-.173-.694-.225-1.454-.442-2.125-.113-.616-.318-1.194-.442-1.806a7 7 0 0 1-.235 1.127q-.117.39-.13.797c-.268.66-.35 1.403-.522 2.105-.072.272-.005.52-.052.81a8.6 8.6 0 0 0-.264 1.97c-.084.34-.112.69-.083 1.038-.003.075-.099.116-.099.19-.052.03-.12.062-.144.125q.042.288.029.578a1.6 1.6 0 0 1-.434.344c-.208.112-.485.081-.633.289-.075.323-.393.488-.633.639a1.5 1.5 0 0 1-.707.095.74.74 0 0 1-.468-.185c-.162-.251.017-.546.141-.769l.327-.372c.1-.251.248-.48.436-.674.103-.179.054-.425.103-.624l-.09-.214q.085-.316.258-.595c.066-.301.08-.59.124-.908q.01-.316-.063-.624a5.5 5.5 0 0 1 .372-1.94q.039-.442 0-.885c-.011-.98-.115-2-.153-2.953a2 2 0 0 1-.713-.468c-.026-.62.2-1.151.234-1.752l.02-.156q-.03.093-.063.185c-.053.133-.17.153-.243.263-.035.842.06 1.66.023 2.512-.038.852-.156 1.697-.214 2.544a8 8 0 0 0-.029.607.34.34 0 0 1-.22.367 1 1 0 0 1-.442.124 2 2 0 0 1-.26 0c-.165-.008-.173.029-.21.179q-.045.256-.15.495a1.4 1.4 0 0 0-.024.578 10 10 0 0 1-.096 1.28c-.098.772-.332 1.575-.332 2.356-.004.324.08.643.24.925a2.1 2.1 0 0 0 .685.61.49.49 0 0 1 .248.355c.009.235-.162.235-.352.235a1.7 1.7 0 0 1-1.003-.29c-.15-.106-.297-.046-.47-.106a1 1 0 0 1-.226-.116q.012-.135 0-.272a.9.9 0 0 1 .119-.477c.08-.181.118-.38.11-.578a9 9 0 0 0-.11-1.795 10 10 0 0 0-.19 1.156 5 5 0 0 0-.082.596c-.012.199.058.43.061.578s-.124.226-.083.376q.06.243.052.494a5 5 0 0 1-.035.474.7.7 0 0 1-.396.121l-.047.004a.3.3 0 0 1-.077.19.33.33 0 0 1-.205.107 1.9 1.9 0 0 1-.618.177 1.1 1.1 0 0 1-.454-.093c-.24-.083-.34-.375-.578-.43-.19-.06-.402.034-.578-.029a2.6 2.6 0 0 1-.868.07c-.26-.024-.245-.31-.332-.48a4.4 4.4 0 0 1-.644-1.202c-.026-.044.003-.128-.058-.148l-.116-.462c-.037-.547-.037-1.145-.054-1.703.008-.494-.113-.945-.113-1.445-.003-.292-.081-.561-.081-.85.084-.324-.121-.599-.07-.917-.029-.245-.168-.45-.205-.697a35 35 0 0 0-.815-1.887 2.4 2.4 0 0 0-.153-.355c.034.664.104 1.358.139 2.06q.127.74.127 1.49c.004.873.093 1.744.264 2.601.072.442.06.89.09 1.35.114.49.114 1 0 1.49-.079.196-.208-.053-.332.031a1 1 0 0 1 0 .29.8.8 0 0 1-.29.234c-.297.078-.702.147-.933-.107a.61.61 0 0 1-.02-.555c-.02-.05-.07-.012-.087-.05a1.5 1.5 0 0 1 .087-.288c.014-.11.092-.223.04-.335a2.1 2.1 0 0 0 .032-.815c-.168-.62-.12-1.249-.34-1.847a2.2 2.2 0 0 0-.162-.674c-.145-.303-.084-.647-.18-.965a1.95 1.95 0 0 0-.15-.78c-.1-.608-.253-1.232-.331-1.81l-.235-1.445-.028-.047c-.034.26-.026.524.023.781-.017.043.005.144-.087.107s-.136-.144-.176-.248-.006-.215-.058-.29c-.038.061-.02.136-.02.203-.072.272.282.387.234.676-.003.03-.02.05-.058.05l-.312-.226c-.078-.04-.112-.136-.199-.15a2 2 0 0 1-.268-.506.8.8 0 0 0-.058-.223c.034-.303.1-.599.156-.89.026-.46.052-.92.121-1.36-.04-1.205.497-2.22.376-3.427l.003-.13a.5.5 0 0 1-.39.118c-.206-.012-.388-.066-.579-.081q-.361 0-.716-.061c-.09 1.338.196 2.688.263 4.023.017.338.046.677.046 1.015.009.153.024.306.024.457q.051.255.023.512c-.06.252-.067.514-.02.769q.011.555-.02 1.11-.063.96-.194 1.913a7.8 7.8 0 0 0 0 2.023c.09.709.13 1.43.161 2.153q.017.484.133.951c.03.13.104.35 0 .46q-.157.127-.349.193c-.015.13.286.162.33.13.153-.103.459.157.56.29-.113-.061-.31-.257-.436-.257a.76.76 0 0 0 .34.263c.104.04.347.05.393.177.382.136.868.15 1.176.439-.012.124.024.24.006.367a1 1 0 0 1-.29.121q-.362.075-.73.05a5.2 5.2 0 0 1-1.56-.212c-.14-.049-.183-.037-.266.017-.084.055-.246-.023-.341-.023a2.2 2.2 0 0 1-.705-.139c.03-.26-.034-.512-.034-.772.003-.121.104-.28-.029-.318-.19-.052-.148-.22-.165-.387-.112-1.09-.349-2.168-.416-3.264a17 17 0 0 0-.167-1.783 12 12 0 0 1-.307-1.801c-.176.515-.236 1.073-.488 1.564a1.6 1.6 0 0 1-.177.29 1.3 1.3 0 0 1-.181.418 3 3 0 0 0-.252.89c-.14.64-.231 1.276-.35 1.932s-.29 1.297-.407 1.95a4 4 0 0 0-.052.417c-.018.182-.125.168-.307.159s-.208-.006-.182.188q.06.184.1.373c.188.066.398.103.385.372-.008.075.026.197-.098.226q-.105.052-.217.085l.035.277c.034.3.075.592-.29.63-.32.034-1.314-.008-1.398-.434-.013-.247.02-.496.1-.73l-.1-.016c-.136-.132-.364-.049-.496-.188-.072-.087-.229-.083-.229-.228-.075-.21.12-.422 0-.633-.066-.162.09-.303 0-.468.006-.11-.037-.22-.037-.341-.058-.396.015-.87-.15-1.235a7 7 0 0 1-.098-1.035c-.108-.072-.082-.205-.082-.31-.066-.337-.222-.638-.318-.965a1.9 1.9 0 0 1-.22-1.156 3.6 3.6 0 0 0-.36-.838c-.156-.428-.5-.757-.647-1.185a4 4 0 0 0-.578-.888l-.13-.098-.023.023c.05.547.036 1.098-.038 1.642.067.353.09.714.067 1.073-.023.31.01.621.098.92q.094.763.113 1.531c.1.48.135.986.425 1.388.253.69.09 1.561.09 2.313a.58.58 0 0 1-.16.424.55.55 0 0 1-.384.024c-.014.078.035.148-.014.22a.87.87 0 0 1-.853.367 1.2 1.2 0 0 1-.505-.232.47.47 0 0 1-.032-.387c-.104-.15.049-.332.049-.503.058-.159 0-.318.081-.468.006-.15-.158-.231-.225-.356-.124-.35-.338-.659-.289-1.078-.003-.289-.032-.578-.032-.867a2.73 2.73 0 0 1-.037-1.41 1.2 1.2 0 0 0-.104-.605c-.121-.523-.096-1.112-.235-1.613a7.8 7.8 0 0 0-.234-1.734.5.5 0 0 0-.066-.157c-.087.03-.148-.052-.22-.075.026.124.119.257.081.414-.026.04-.003.127-.081.127h-.06c-.117-.104-.093-.3-.273-.347-.052-.102-.234-.13-.234-.263-.124-.028-.12-.157-.195-.226-.115.852-.372 1.715-.484 2.565-.02.389-.112 1.138-.146 2.13-.01.271.112.89.139 1.92.027 1.026-.1 2.347-.104 3.237-.005 1.002-.033 1.654-.087 2.034-.02.15-.055.043-.075.117-.067.249-.018.264-.081.463-.044.138-.228.263-.307.318-.515.357-1.55.162-1.864-.296.007-.243-.097-.487-.178-.748a1.6 1.6 0 0 1-.088-.634c-1.989-.257-3.528-.59-.768-1.85.235-1.3-.115-2.761-.145-4.104-.358-.859-.359-1.863-.491-2.75-.316-.425.043-.933-.251-1.336.04-1.157-.419-2.542.107-3.824-.785-.215.05-.994.127-1.566-.882-.658-1.239-.101-1.25-1.539-.022-.236.16-.34.317-.464-.057-.252.254-.26.318-.402-.005-.107.072-.173.139-.214.225-.055.19-.379.454-.405.556-.97 1.493-1.644 2.007-2.665-.587-.802-.35-2.178-.456-2.846.159.052.052-.157.179-.16-.023-.104.202-.142.159-.277.077.012.17.066.182-.075.11.069.17-.012.21-.084.11.122.23-.106.319-.119.08.16.139-.124.257-.017.1.102.22-.147.292.064.086.017.133-.133.225-.053.017-.017.052 0 .083 0 .015.084.116.026.136.104 1.109.455 1.096 2.233.211 2.824 0 .206.177 0 .29.061.147.107-.084.4.158.425.206.47.673.487.973.842.44.56.264 1.302.107 1.91.12.24-.175.414-.075.66.012.091.078.18.087.273.024-.343.077-.676.095-1.013.11-.393.142-.83.399-1.156.136-.14.308-.24.497-.29h.032c.023-.103.095-.19.023-.288-.046-.012-.141-.035-.13-.053.012-.017.032.02.061-.017.03-.037.055-.086.03-.124a.2.2 0 0 1-.096 0 .08.08 0 0 1-.037-.066c.074.049.06-.03.132-.03a.45.45 0 0 0 .061-.407c-.043-.072-.147-.116-.127-.214a.6.6 0 0 1 .06-.211c-.04-.003-.057.092-.106.05l.001-.002a.04.04 0 0 0-.001-.053c.008-.043.046-.075.046-.122l-.052-.028c.196-.125-.09-.232 0-.393-.046-.087-.145-.2-.075-.318.02-.03.098.008.063-.067-.034-.075-.133.006-.15-.075-.035-.005-.1.017-.1-.032a.31.31 0 0 0 .112-.362c-.043-.063 0-.156 0-.225.178-.087 0-.443.289-.376a.1.1 0 0 0 .046-.05c0-.06-.055-.112 0-.161.095-.145.286-.05.37-.214.118-.07.216-.165.369-.165.12-.162.303-.038.45-.127.058.005.093.057.14.09.144-.038.289-.17.454-.084.071.037.156.052.23.09l.169.197c.112 0 .263-.043.338.07.112.102.08.273.187.377l-.022.009c-.017.034.023.044.072.04l-.027-.03q.018.015.039.025a1 1 0 0 1 .21.64.42.42 0 0 1 .225.317c.075.02.168.02.22.075q.09.216.13.448c.075-.008.207-.066.23.053.117.11-.02.37.206.4.096.132-.003.32.113.444.058.05.11.099.19.099l.053-.053v.058c.066-.029.054-.153.13-.119.023.101-.099.174-.15.249-.072.02-.133-.037-.206-.037v.168c.084-.012.167.049.194.118.026.07-.043.116-.075.174-.082-.02.014-.174-.082-.174.03.148-.135.359.053.454.055.02.136-.04.136-.07 0-.028.02-.028.043-.028v.13a.17.17 0 0 1-.194.063.24.24 0 0 1-.112-.082c-.041.072.057.162.08.189.024.025.096.005.07.066.514.318.353.969.48 1.474.168.746-.029 1.625.196 2.37.058.77.159 1.498.159 2.27-.07.364.008.735-.07 1.093a3.7 3.7 0 0 0 .092.867c-.063.303 0 .68-.257.914q.091.265.225.511c.153.503.558.914.67 1.446q.045.26.066.523.108-.315.163-.645c.026-.459.087-.956.147-1.372.061-.416.128-.833.18-1.249q.038-.324.066-.647c.02-.113.02-.223.02-.335.006-.165-.081-.157-.208-.24-.196-.128-.158-.26-.124-.442q.053-.274.119-.544c.092-.402.202-.798.289-1.2a6.5 6.5 0 0 0 .11-2.523 16.4 16.4 0 0 1-.37-2.584c0-.182-.164-.142-.289-.29-.124-.147-.347-.265-.396-.45a1.6 1.6 0 0 1-.139-.546c.003-.212.06-.42.165-.604a1.58 1.58 0 0 1 1.118-.798q.18-.014.359.015c.205.029.1-.066.23-.153.197.026.261-.226.469-.141.029-.125.072-.249.112-.37q.065-.257.046-.521.006-.108.026-.214a.7.7 0 0 1-.07-.274q.008-.216.041-.428c.07-.471.293-.997.832-1.05.318-.045.642-.024.951.061.296.068.548.261.69.53.066.148.096.309.09.47.012.121-.042.373.035.474.078.102.148.107.124.255-.014.083-.04.188-.133.163.055-.003.075-.021.075-.1v-.005c-.04.009-.127-.023-.156.02a.08.08 0 0 1 .04.087h.026c-.002.066-.044.097-.097.125-.116.061-.099.148-.116.26-.032.197-.115.361-.147.552-.058.36-.599 0-.67.29a.41.41 0 0 0 .288.32c.22.05.446.062.665.11.416.15.775.425 1.03.787q.482.6 1.039 1.13.276.278.56.553c.048.044.106.093.16.147q.04-.35.1-.7h-.033a.55.55 0 0 1-.034-.54c-.026-.015-.026-.038-.026-.055a.3.3 0 0 0 .177-.102c-.034-.014-.078.004-.116-.014a.24.24 0 0 1-.141-.191c.058.032.104.136.15.145s.104.008.133-.038c.028-.046-.009-.09-.047-.116-.083-.09-.025-.234 0-.323.026-.09.122-.124.191-.162-.02-.046.006-.104-.02-.144a.18.18 0 0 1-.142.058.105.105 0 0 1-.07-.108c.018-.032.03-.095.05-.092s.009.035.02.058 0 .07.043.07c.015-.067-.014-.148.015-.22.006-.145.185-.09.217-.214a.37.37 0 0 1-.055-.26c.052-.02.012-.096.07-.096a.6.6 0 0 0 0 .15c.017.03.034.079.075.079.092-.041.028-.14.057-.214-.005-.174.232-.243.232-.41.02-.099-.079-.154-.128-.22-.066-.14.035-.275.053-.413a.27.27 0 0 1-.101-.26c.12-.142-.012-.336.12-.472.076-.176.093-.421.313-.465.153-.026.08-.226.214-.29a.4.4 0 0 1 .326 0c.061-.031.092-.092.162-.092.159-.15.358 0 .54 0a.3.3 0 0 1 .186 0c0-.034.034-.034.063-.034.124.073.269.09.39.168a.18.18 0 0 1 .148-.04c.054.02.107.078.107.14.118.07.06.24.214.264.043.035.139.121.127.153s-.078.02-.078.032 0 .006.023.026c.024.02 0 .035 0 .061a.5.5 0 0 1 .121.41c.194.133-.025.367.104.517.035.05-.052.032-.075.05.03.083-.029.141-.037.228-.009.086.1.147.107.205a.3.3 0 0 1-.043.15c-.012.02 0 .055-.04.055a.1.1 0 0 1-.027-.03q-.009-.02-.006-.04c.058-.072 0-.133 0-.199-.07-.119-.02-.228-.02-.355-.026.029-.075.06-.058.112-.072.099.017.228 0 .29-.017.06-.087.138-.032.184a.16.16 0 0 1 .095.2c-.02.029-.017.078-.063.078a.05.05 0 0 1 0-.055.13.13 0 0 0-.023-.159c-.217-.014-.032-.202-.078-.303-.047.128-.047.257-.084.382q.06.075.153.101a.03.03 0 0 1 0 .035.3.3 0 0 1-.21-.067c-.053.032-.013.084-.053.116s-.11-.032-.107-.02c.003.011.017.017.017.034a.24.24 0 0 1-.136.09c-.032.072-.055.153-.09.225v.42c.373.335.856.526 1.358.537.148.086.335.083.454.236.049.174.185.31.21.489.075.302.167.599.252.898a.5.5 0 0 1 .14-.219c.338-.294.612-.67.935-.982q.453-.518.96-.986c.155-.13.35-.2.551-.2.11-.008.257.046.34-.037q.104-.126.177-.269c-.265.053-.488.393-.777.211.483-.13.948-.332.948-.91a1.04 1.04 0 0 1-.315.425q-.12.094-.252.17c-.118.07-.127-.017-.236-.055a.93.93 0 0 0 .71-.688 5 5 0 0 1 .177-1.058c.121-.299.288-.578.494-.826a.9.9 0 0 1 .37-.272.4.4 0 0 1 .196.02c.086.043.115-.034.193-.083.211-.14.52.046.685.19.22.205.38.466.462.755.102.334.147.683.136 1.032q-.004.304-.052.607c-.03.206.075.341.107.535-.208.015-.225-.393-.225-.526q-.09.282-.104.579c.003.066.133.346.06.387a.03.03 0 0 1-.016-.026c-.035.012.066.174.066.174q.138.15.318.245c.158.098.245.259.319.427q.01-.05.026-.1c.173-.882.3-1.778.517-2.645.078-.321.003-.717.272-.934q.473-.14.913-.364c.373-.08.72-.216 1.1-.271a.6.6 0 0 0 .336-.388q.012-.22-.055-.428h-.023l-.191-.202c-.003-.359-.277-.602-.252-.97a1.4 1.4 0 0 1 .079-.528 1.33 1.33 0 0 1 .167-.694.74.74 0 0 1 .34-.578c.12-.095.278-.087.407-.15.14.087.104-.127.2-.127v.066l.199-.066c0-.015-.043-.038 0-.038s-.012.024.02.038c.26-.084.471.06.703.098.139.067.282.228.427.084.023.063-.07.107-.11.144a.6.6 0 0 0 .318.19c-.099.079.008.14.054.195.154.21.24.462.246.722-.096.142.04.303-.032.46-.017.15-.058.315-.072.48v.02a.8.8 0 0 0 .023.289l-.072.029a1 1 0 0 1-.09.136l-.028.066a.06.06 0 0 1-.043.026.6.6 0 0 0-.165.326.16.16 0 0 1-.05.064.38.38 0 0 0-.014.38l.26.24q1.004.215 1.962.579c.388.185.283.65.388.991-.017.604.272 1.064.272 1.663.072.595.118 1.124.136 1.734a2.67 2.67 0 0 1-.867 2.076c.143.668.233 1.355.351 2.033a9 9 0 0 0 .192-.66c.24-.93.694-1.767.79-2.755a2.6 2.6 0 0 0-.062-.821c-.124-.506.075-.928.27-1.35a.26.26 0 0 1-.15-.038c-.111-.044-.108-.179-.226-.248-.078-.024-.148.095-.17.11-.024.014-.05.04-.067.014l.099-.124h-.156c-.035-.015-.101-.038-.084-.084.052.04.12.051.182.032a.78.78 0 0 0 .373-.578c-.053.07-.07.15-.116.223a.44.44 0 0 1-.381.222c-.024.006-.052-.003-.052-.032.17.024.282-.095.384-.216a1.87 1.87 0 0 0 .214-1.104c-.208.278-.3.627-.254.971h-.017c-.054-.336.02-.68.205-.965.02-.165-.127.04-.199-.018l.11-.054c.053-.024.014-.07.084-.07.228-.153.202-.445.344-.65a.7.7 0 0 0 .167-.33 1.25 1.25 0 0 1 0-.578 1.8 1.8 0 0 1-.02-.867q0-.27.09-.526a1.12 1.12 0 0 1 .846-.557c.119-.05.266.029.373-.032l-.067-.035c.113-.029.228.044.341.044a.1.1 0 0 0-.043-.058c-.04-.044-.107-.07-.13-.115a.52.52 0 0 1 .315.248.87.87 0 0 1 .853.112c.037.061.164.12.13.191q.25.283.416.624a2.17 2.17 0 0 1-.05 1.714 5.5 5.5 0 0 0 0 .732.8.8 0 0 1 .41-.026c.57.168.648.81.894 1.246.141.433.421.833.496 1.3q.032.14.072.281c.101-.245.218-.476.29-.766.092-.376.132-.766.205-1.157.162-.899 1.153-1.644 1.976-1.896q.34-.106.647-.289c.272-.156.075-.41-.017-.61a1 1 0 0 1-.05-.133c-.023-.11-.066-.095-.129-.182a1.1 1.1 0 0 1-.133-.343 1.2 1.2 0 0 1-.08-.344c-.006-.156.028-.113.132-.142-.142-.494-.257-.939.06-1.387.121-.202.3-.361.515-.457q.15-.056.306-.099.186.024.37 0c.806.145 1.175.752 1.12 1.544.05.084.168-.012.197.14q.036.202.017.407a.63.63 0 0 1-.119.344.26.26 0 0 1-.127.092c-.095.023-.05.188-.05.29q0 .278-.052.554a2 2 0 0 1-.07.257c-.045.124.03.115.137.173.37.197.797.31 1.155.532q.452.26.832.619c.26.291.428.654.483 1.04.142.629.457 1.19.708 1.78a1 1 0 0 1 .107-.045c.231-.243.225-.57.416-.821a.8.8 0 0 0 .043-.304l-.107.185h-.043a1.4 1.4 0 0 0 .064-.338c-.038-.017-.07.055-.113.029a.83.83 0 0 0 .234-.578 1.4 1.4 0 0 1-.225.338q.166-.27.252-.578c-.09-.026 0-.096 0-.142l.127-.47a1.3 1.3 0 0 1 .229-.978c.22-.206.358-.517.675-.532.189-.133.412-.206.642-.211a.55.55 0 0 1 .422.136v-.038c.066-.02.115.104.168.024.052.04.083-.034.132 0-.025.095.064.133.121.148.058.014.09-.064.142-.018l-.02.053c.1.011.132.104.168.185.251.205.187.52.289.784.04.178-.038.314-.02.5-.055.092 0 .188 0 .288a1.93 1.93 0 0 1-.39.995 2.2 2.2 0 0 0-.07.512q.443.1.895.124c.584.214.555.876.742 1.35q.085.269.155.54c.057-.197.116-.393.163-.596q.224-.458.344-.953c.072-.145.174-.293.249-.434.115-.468.332-.906.636-1.28a4.8 4.8 0 0 1 1.464-.703c.303.03.518-.187.754-.341a1.6 1.6 0 0 0 0-.347.5.5 0 0 1-.139-.087c-.037-.037-.107-.034-.107-.11-.083-.003-.066-.104-.066-.17a1.2 1.2 0 0 1-.09-.382 3 3 0 0 1-.075-.361l-.078-.2c-.101-.199.005-.467-.081-.664a.7.7 0 0 1 .216-.7 1.11 1.11 0 0 1 .924-.69c.046-.099.116-.003.182-.07l-.025-.107c.066-.081.11.09.178.026.015.038.004.084.041.11l.092-.098c.072.09.116-.084.196-.026 0 .037-.023.081 0 .107a.7.7 0 0 1 .538.177c.277-.015.352.314.529.482a.9.9 0 0 1 .19.694c.087.174 0 .393 0 .578a.45.45 0 0 1 .03.388.4.4 0 0 1-.087.176 1 1 0 0 1-.018.09.2.2 0 0 1-.063.124c.121.064-.07.165.063.215 0 .139-.132.06-.199.139a.13.13 0 0 1-.05.103v.03c-.037.09-.164.12-.118.256s-.032.324.063.44a.14.14 0 0 0 .121.046c.13.228.405.098.552.289.231.017.367.265.613.245.398.22.878.381 1.112.867q.363.657.633 1.356c-.063.164.153.188.153.317q.048.172.103.342.042-.076.097-.148c.134-.14.304-.24.491-.289a1.8 1.8 0 0 0 1.188-.546.6.6 0 0 0-.052-.289c-.217-.136-.324-.37-.506-.535a1.5 1.5 0 0 0-.2-.488c-.158-.078-.265-.272-.395-.393-.053-.116-.03-.272-.17-.335-.067-.084-.053-.203-.12-.29a.53.53 0 0 1 .062-.37c.058.006.058-.058.075-.098a.7.7 0 0 1 .315-.347c.032-.09.13-.07.187-.136l-.055-.046c.038-.032.136.011.17-.032.035-.044.169-.064.101-.133.043-.061.157.04.186-.061a.44.44 0 0 0 .251-.121c-.008-.035-.084-.029-.037-.075.107.003.207.046.311.046.11-.066.15.092.254.038.231-.07.361.178.563.219.14.116.17.286.29.405.008.086.1.118.132.19.157.191.128.46.249.665 0 .245-.07.466-.07.706l-.043.02q-.052.255-.052.515a.39.39 0 0 0-.046.332v.001a.02.02 0 0 1-.004.018.02.02 0 0 1-.014.01q.042.324.15.633c.352.494.953.543 1.46.748.563.298.39.983.52 1.503.165.749-.03 1.627.19 2.374.061.771.159 1.5.159 2.272-.067.363.008.737-.067 1.095a3.7 3.7 0 0 0 .09.867c-.063.3 0 .679-.254.913a3 3 0 0 0 .223.512c.15.505.552.913.662 1.445.08.478.1.963.06 1.446.038.393.105.797.142 1.199q.051.33 0 .66l-.026 1.563c-.003.18-.037.41.093.553.098.38.098.82.387 1.11.017.072-.1.075-.075.141.092.099.248.124.377.175.059-.045.103-.095.074-.16-.061-.14.023-.35.049-.504q.065-.621 0-1.243a14 14 0 0 1 .038-2.46 9 9 0 0 0-.11-2.39q-.074-.577-.105-1.157c-.017-.425.043-.862.026-1.292v-.604c0-.116 0-.194-.07-.24q-.104-.067-.198-.139a3.2 3.2 0 0 1-.729-.728 1.56 1.56 0 0 1-.37-.902 8 8 0 0 0 0-1.115 9 9 0 0 1-.103-1.157v-.52a2.2 2.2 0 0 1 .029-.546 1.7 1.7 0 0 1 .269-.867.58.58 0 0 0 .187-.413 1.7 1.7 0 0 1 .046-.62q.104-.484.128-.979a.86.86 0 0 1 .127-.468q.192-.219.425-.396c.216-.176.514-.148.728-.341q.381-.276.789-.509c.162-.115.026-.777 0-.983-.02-.144.005-.289-.17-.289-.099-.005-.167-.248-.167-.355q-.001-.409-.064-.813a.45.45 0 0 1 0-.33c.024-.052.017-.13.055-.161.037-.032.087-.044.087-.104-.024.034-.128.06-.128.098-.049-.193.217-.26.269-.41-.017-.119-.081-.133.066-.22.072-.043.145-.034.145-.147 0 .003.292-.121.332-.148q.296-.08.578-.205c.026.005-.023.087.043.058.045.01.084.039.11.078a.1.1 0 0 1 .017.037c.018-.052.075-.029.113-.029-.063.03.058.136.058.03.037.005-.035.092.014.112.139-.116.199-.127.33 0 .06.105.08.228.054.347.07-.072.162.107.231.165.11.068.196.17.246.289-.026.037-.061-.02-.087.014.017 0 .043.055.043 0 0 .058.063.677 0 .677a.1.1 0 0 0-.06-.026c.018.292-.012.586-.088.867a.6.6 0 0 1-.095.183c-.1 0-.121-.032-.139.08-.029.209-.075.414-.075.625q-.006.126.014.252c.02.12.107.083.211.098q.281.037.555.102c.352.078.656.274.993.367a.53.53 0 0 1 .397.563q.02.244.127.466.094.293.148.598.046.288.034.578.037.252.144.483c.107.373.11.772.191 1.156.036.17.036.347 0 .517-.092.134-.234.246-.314.4m-61.83 15.148c-.026-.015-.02-.058-.07-.058l-.023-.024c0 .04.118.096.093.082M9.145 59.6c-.053.142-.29.16-.252.327-.02.404.011.95-.384 1.168-.178.759-.202 1.619.043 2.367-.366-.087-.032.335-.203.342q.12.285.182.58.008-.167.064-.323c-.04-.529.122-1.035.122-1.537.054-.509.22-.969.263-1.48a4.4 4.4 0 0 0 .187-1.269q0-.123.008-.245a.2.2 0 0 1-.03.07m.398 5.799-.023.037v.408q.048.361.156.711a9 9 0 0 0-.133-1.156m.578-10.313v.075a.13.13 0 0 0 .043-.055c-.017 0-.02-.02-.043-.02m.148 4.567c-.046.046-.058.136-.09.202-.196.436-.055 1.003-.15 1.442.082-.05.086-.155.196-.234l.038-.182c.107-.148-.015-.37.107-.523-.101-.22-.012-.483-.101-.705m1.49-6.638c-.023-.023-.09-.025-.066.006l.017.015c.03 0 .075.003.075-.032zm.217-.107a.16.16 0 0 0-.124-.003c.046.017.136.046.15 0zm.176.058a.4.4 0 0 0-.074.014l-.026.012c.023.046-.055.012-.04.02.062.064.152.061.233.09-.009-.055-.064-.095-.092-.136m.168.084-.035.012c.005.042.04.073.082.073.005-.03-.033-.059-.047-.085m.474.535c.003-.053-.062-.048-.08-.087.083-.032 0-.075 0-.112a.21.21 0 0 0-.174-.078c.084.09.067.324.254.277m-.038-.344-.025.012a.25.25 0 0 0-.237-.038.45.45 0 0 1 .364.235.5.5 0 0 0-.102-.209m.22.497c-.036.079.036.105.093.138a.6.6 0 0 0-.093-.138m.136.636-.012.008q-.033-.018-.032.004c0 .014.043.04.043.032zm.15.006-.006.15.104.046a.23.23 0 0 0-.098-.196m.41.402c-.012-.084-.113-.162-.196-.107.07.04.112.127.196.127zm.055.234-.03-.07.03.12zm.234.124c-.05.015-.104.009-.144.038v.008a.36.36 0 0 0 .037.215c.024-.018.04-.018.07-.018.075-.005.07.07.112.113a.52.52 0 0 0-.075-.356m.272.535a.15.15 0 0 0-.107-.102l-.012.026c.032.044.078.124.119.141zm-.093.61v-.009c.055-.017.055-.078.066-.12-.066-.03-.028-.1-.066-.128a.47.47 0 0 0 0 .257m-.006.544a1 1 0 0 1 .038.188c.017.029.043.092.081.066l-.052-.098c-.032-.047.012-.156-.067-.156m.043-.891V55.9c-.017-.008-.028-.037-.052-.037l-.008.026zm.038.422a.16.16 0 0 0 .05-.113zm.087.226h-.018l.018.023zm.026.6c-.02-.103-.107-.003-.15-.057v.083c.053-.017.11.012.15-.017zm-.026 4.741c-.177-.46-.101-1.008-.15-1.5-.026-.043-.015-.11-.064-.127-.103.182-.032.384-.15.564a2.3 2.3 0 0 1-.06.497.4.4 0 0 1 .031.205 1.8 1.8 0 0 0-.032.786c-.135.269.01.54-.037.83.081.281.11.575.084.867a.13.13 0 0 1 .052.107q.184.255.31.544l.017.012q.066-.198.173-.376c.104-.197.043-.446.081-.657-.053-.596-.226-1.145-.255-1.752m6.495-9.114a.23.23 0 0 0-.124-.145h-.009c-.02.082.075.211-.032.255.093-.015.197.024.165-.11m2.843 2.68c-.014-.026-.06.003-.06.04-.03.145.158.232.045.37-.023.018-.023.033 0 .055.024.023.055-.011.055-.034h.012c.017-.156-.083-.284-.052-.431m.148-.107a.2.2 0 0 0-.02.09h.011a.074.074 0 0 0 .009-.09m.04 5.66a.3.3 0 0 1 .026-.092q-.166.272-.26.578-.117.67-.156 1.35l.011-.003a1.5 1.5 0 0 0 .14.445 8 8 0 0 1 .057-1.633c.04-.194.111-.381.211-.552-.006-.042.014-.07-.029-.093m.237-6.683c.016-.03.05-.078.055-.117-.032.027-.04.072-.055.117m.026 5.75.011-.004c.115-.314.128-.655.038-.977-.05.324-.023.63-.05.98m.147-6.071-.052.05c.012.023.035.023.052.023zm2.736-.867a.15.15 0 0 0 .044-.139c-.012.045-.062.087-.044.139m-.175.41a.08.08 0 0 0 .04-.095c-.032.003-.054.037-.054.06h.011a.03.03 0 0 0 .002.034m-.373-1.749c.017.05.075.018.104.026a.12.12 0 0 0-.067-.049c-.014.009-.049 0-.049.023zm1.91 10.071a4 4 0 0 1-.087-.765c-.038-.306-.121-.599-.15-.91-.104-.335-.075-.728-.191-1.058-.05.228-.24.41-.177.677.018.214-.118.425 0 .618a4.5 4.5 0 0 0 .228.752c.028.192.02.388-.023.578q.099.403.107.818.063.346.179.679.117-.323.156-.665h.012a3 3 0 0 1-.055-.724m2.888-3.217c-.014-.154-.098-2.009-.222-1.983-.2.433-.636.662-.96.988q.282.766.685 1.474c.119.243.236.483.372.718.064.112.13.181.084.317-.023.075-.116.18-.116.26.191 0 .165-.06.191-.236l-.003.008q.056-.216.066-.442c-.004-.37-.062-.737-.097-1.104m-.209 3.549c.016-.133.16-.497-.025-.514q-.008.258.025.514m.787 9.412a17 17 0 0 1-.289-2.312c-.01-.365.022-.73.099-1.087.072-.323.283-.66.141-.995a6 6 0 0 1-.578-.156l-.289-.083c-.144-.038-.084-.084-.084-.217.026-.43.047-.864.047-1.297.011-.835.008-1.674.072-2.507q.024-.33.066-.656c-.029.003-.052.075-.087.075-.09.024-.09-.17-.09-.216a1.1 1.1 0 0 0-.095-.532 7 7 0 0 1-.318-.578c-.052-.102-.078-.24-.19-.29a.5.5 0 0 1-.26-.176c-.468-.678-.764-1.45-1.117-2.19l.004.063c-.035.676.176 1.303.254 1.97.127.796.075 1.576.156 2.368.02.228.104.445.121.66q.003.301-.07.595c-.107.09-.06.272-.214.33-.057.213-.314.265-.37.487q.203.878.244 1.775c.032.385.254.694.254 1.084.165.335.244.707.228 1.081.096.371.15.753.162 1.136-.012.579.225 1.073.335 1.61.046.215.037.449.098.654 0 .234.17.401.225.61.18.165.367.315.55.497.042.017.1.086.042.127.137.13.306.22.489.263l.021.013c.098-.104.215-.196.262-.247a.7.7 0 0 0 .19-.335c.035-.148-.066-.284-.02-.451q.089-.221.101-.457c-.006-.205-.06-.41-.09-.616m1.072-4.385c-.008.179-.092.361-.092.5l-.003.009c.064-.124.226-.327.095-.509m1.83-9.296c-.275.379-.209 1.052-.015 1.445.04-.245.116-.482.174-.725q.045-.194.063-.39a2.3 2.3 0 0 0-.223-.33m8.012 4.579-.048.032a.4.4 0 0 0 .06.066h.063l.006-.158a.4.4 0 0 1-.081.06m.958 2.234q-.102-.676-.289-1.335-.118-.514-.289-1.011l-.017.017a.8.8 0 0 1-.116.52.5.5 0 0 1 .125.35c-.024.072-.093.176-.133.141-.04-.034-.052-.13-.092-.107-.041.024-.041.07-.072.099a.06.06 0 0 1-.07-.006l-.014-.02a3 3 0 0 0-.373-.6l-.007-.04-.154.081c-.043.755.148 1.503.078 2.28-.04.217-.15.4-.2.613-.037.417-.1.853-.115 1.284.264.42.408.905.416 1.402q0 .687.12 1.364a4.2 4.2 0 0 0 .071 1.157c-.173.118.043.23.043.364q.105.315.31.578c.058.232.22.418.383.603l.272-.282a.6.6 0 0 1 .072-.2c.017-.37-.017-.765.017-1.092s.228-.599.248-.922c-.107-.801.05-1.622.05-2.37l-.084-.807c.009-.399-.15-.769-.023-1.156a4.3 4.3 0 0 1-.157-.905m.197-11.875a.2.2 0 0 0-.092.067l-.017.251q.084-.153.124-.323zm.024-.311a.5.5 0 0 0 .107-.232zm.297-2.446c.008.067-.05.119-.018.188.057-.368.464-.618.752-.805a.91.91 0 0 0-.734.617m2.883 1.873a.9.9 0 0 0-.057.286c.052-.076.028-.188.057-.286m.15-.835a3 3 0 0 0 0 .532 2.1 2.1 0 0 0-.042-1.156q-.06-.207-.179-.385l-.015.006c.023.352.257.633.237 1.003m.61 4.766c-.161.393-.254.815-.413 1.22l-.014.005a4.1 4.1 0 0 0-.058 1.527c.075-.165.22-.295.29-.454.181-.54.363-1.078.522-1.627a3 3 0 0 0-.327-.67m2.962-.393c-.168.301-.445.535-.607.824.029.164.225.188.364.207.188.113.364.243.558.347a7 7 0 0 0-.315-1.378m.356 2.717c-.087-.034-.174-.075-.26-.115-.365-.17-.717-.367-1.087-.532a6 6 0 0 0-.541-.208 1 1 0 0 1-.138-.073c-.125.267-.287.525-.367.807a3.9 3.9 0 0 1-.893 1.38 1.9 1.9 0 0 0-.31.577 7 7 0 0 1-.055 1.03c0 .219.136.407.067.638q.054 1.248-.017 2.495l.057.2-.075.15c.072.1.105.223.093.346a.68.68 0 0 1 .072.416l.124.148.508 1.766.203 1.226q.071.921.289 1.818.135.375.22.763l.014-.084c.055-.376.124-.748.177-1.122q.049-.655.167-1.3c.092-.35.075-.737.15-1.085s.187-.682.289-1.02q.143-.511.179-1.04c.02-.198.037-.356.066-.593s-.014-.457.03-.697c.158-.882.352-1.748.545-2.616a31 31 0 0 1 .29-1.124 2.3 2.3 0 0 0 .086-.526 1.6 1.6 0 0 0-.015-.289q.11-.5.13-1.011zm4.726-2.491a.94.94 0 0 1-.289-.483 5.1 5.1 0 0 0-.014 1.908c.119-.197.22-.405.327-.607.066-.145.234-.245.289-.388.054-.14-.211-.335-.313-.43m.835 2.02q.018-.142.028-.285l-.141.167a8 8 0 0 1-.676.792c-.087.078-.136.107-.119.194q.025.129.055.254.075.309.104.624c.02.2-.026.393 0 .602q.04.312.092.624c.072.446.156.893.217 1.342.052.375.029.754.08 1.132l.019.11a7 7 0 0 0 .063-.705c-.005-.566.04-1.081.04-1.624.093-.662.194-1.321.273-1.99a8 8 0 0 1-.035-1.237m1.234.564a.84.84 0 0 0-.162-.417c-.026.454-.144.876-.17 1.321.083.269-.035.524-.035.792q.051-.128.12-.248a.06.06 0 0 1 .066.026c.046-.078.141-.142.141-.237a.17.17 0 0 1 .081-.127c.185-.373-.084-.731-.041-1.11m.182-5.596.02-.05q.02-.297.116-.578c-.112.19-.16.41-.136.627m.162-.431c.06-.11.086-.234.15-.338a.67.67 0 0 0-.15.338m.326-.616c.043-.008.058-.054.087-.083-.046.002-.063.055-.087.083m.367 19.596a9.3 9.3 0 0 0-.664-2.558c-.229-.653-.145-1.382-.183-2.099a20 20 0 0 0-.578-2.312c-.011-.081-.083-.084-.141-.107a.6.6 0 0 0 .015.248.4.4 0 0 1 .07.27c-.012.048-.082.048-.113.028a.47.47 0 0 1-.231-.289c-.075.243.147.387.176.602-.02.057-.005.147-.092.147-.211-.063-.254-.332-.448-.416a.54.54 0 0 1-.338-.313 1 1 0 0 0-.023-.16l-.01.178a6.5 6.5 0 0 0 .122 2.446c.228.797.182 1.642.228 2.462.024.4.064.79.11 1.185q.046.276.05.555c0 .092.017.133 0 .275s.075.202.167.289q.41.344.752.755.14.195.32.355a.5.5 0 0 1-.007-.106c.063-.272.38-.428.38-.717.164-.227.496-.383.438-.718M60.99 53.39c-.02.017-.052.083-.026.081s.026-.052.026-.081m-.02.136h-.014c-.144.18-.24.393-.275.622a1.44 1.44 0 0 0 .29-.622m1.046 7.004c-.072-.477.04-1.02-.148-1.46a39 39 0 0 0-.214-1.65l-.02-.02c-.053.366-.148.69-.22 1.052a7.2 7.2 0 0 0 .15 1.673l.055.02c.06.238.08.484.063.728l-.119.332.061.055c.067.228.024.503.067.731.161.168-.03.422.133.567.147-.275.2-.59.153-.9a6 6 0 0 0 .039-1.128m2.398-3.328q-.12-.211-.187-.445a1 1 0 0 0-.157.468c.02.055.05.107.02.17-.071.119-.26.145-.23.327-.024.043-.075.075-.075.12.13.059.187.244.34.264v.006c.063.046.127.176.203.161a.6.6 0 0 1 .1-.245c-.046-.13-.098-.286-.078-.419s.14-.257.064-.407m1.121-6.614h-.017l.055.214c-.014.032-.058 0-.058 0 .017.067.023.159.087.182h.025zm2.86.359h.015l.02-.14c-.035.021-.037.079-.035.14m1.763 6.793c-.081-.13-.092-.342-.237-.42-.063-.101-.147-.228-.112-.338-.003-.046-.081-.09-.096-.046a1.6 1.6 0 0 1-.205.893c.07.197-.087.37 0 .532.24-.14.419-.393.708-.428.052-.08-.095-.11-.058-.193m1.812.604a.8.8 0 0 0-.087.205c-.196.434-.055 1.003-.148 1.446.107-.047.099-.165.19-.237l.038-.182c.104-.148-.011-.373.104-.524-.097-.22-.007-.483-.097-.708m2.051-6.668c.02.052.043.136.096.136-.03-.059-.047-.12-.096-.136m1.965 8.914c-.173-.46-.098-1.009-.15-1.5-.023-.044-.012-.11-.06-.13-.102.193-.033.398-.148.578a2.3 2.3 0 0 1-.061.496.4.4 0 0 1 .032.206c-.07.257-.08.527-.032.789-.133.269.008.54-.038.83.08.28.109.575.084.867a.13.13 0 0 1 .049.107q.184.253.306.544l.017.003q.068-.196.17-.376c.105-.197.044-.445.082-.66-.049-.598-.222-1.144-.25-1.754m2.604 13.139q.038.015.073.036.05-.072.105-.139a.35.35 0 0 0-.178.103m.071-15.388c-.07.428-.332.76-.289 1.218-.179.546-.436 1.101-.436 1.702q.004.24.07.471c.117.007.232.04.335.098.177.125.3.312.344.524q-.013-.555.032-1.11c.017-.16.017-.292.017-.48s.032-.359.032-.544q.027-.459.144-.901H78.9a1.33 1.33 0 0 0-.238-.978m4.216-.382c-.335.56-.724 1.094-.54 1.78.289-.529.332-1.16.653-1.679-.059-.01-.073-.066-.113-.1M20.7 53.06h-.015v-.005zm61.089 21.77.003-.005h.002zM12.96 53.617l.02.022-.024-.02z" clip-rule="evenodd"/></g></svg>