<svg xmlns="http://www.w3.org/2000/svg" fill="none" viewBox="0 0 512 512"><g transform="translate(30.72 30.72) scale(4.506)"><g clip-path="url(#a)"><path fill="#d249fc" d="m90.908 24.917-.002-18.554A6.364 6.364 0 0 0 84.542 0h-17.98a6.37 6.37 0 0 0-4.83 2.222L10.623 61.847a6.37 6.37 0 0 0-1.532 4.142v18.555a6.363 6.363 0 0 0 6.364 6.363h17.98a6.37 6.37 0 0 0 4.832-2.222L89.375 29.06a6.37 6.37 0 0 0 1.531-4.143z"/><path fill="url(#b)" d="M90.908 22.687V6.365A6.364 6.364 0 0 0 84.543 0H64.088q-.452 0-.901.067L5.465 8.309a6.37 6.37 0 0 0-5.463 6.3v24.488a6.36 6.36 0 0 0 6.368 6.365l28.961-.007a6.3 6.3 0 0 0 2.011-.328l49.216-16.403a6.37 6.37 0 0 0 4.35-6.04z"/><path fill="url(#c)" d="M99.998 93.635V40.568a6.36 6.36 0 0 0-3.855-5.849L37.563 9.61a6.4 6.4 0 0 0-2.507-.513H6.37a6.364 6.364 0 0 0-6.368 6.362v28.07c0 1.26.372 2.486 1.072 3.532l33.44 50.107A6.36 6.36 0 0 0 39.808 100h53.827a6.365 6.365 0 0 0 6.362-6.364"/><path fill="#000" d="M81.25 18.75h-62.5v62.498h62.5z"/><path fill="#fff" d="M54.742 26.685q-2.375 0-4.275.867-1.883.867-2.963 2.422-1.065 1.558-1.063 3.556 0 1.62.653 2.947a6 6 0 0 0 1.868 2.191q1.228.87 2.88 1.181l4.7.9q1.162.231 1.816.983.672.738.672 1.835 0 .883-.54 1.57-.54.69-1.505 1.081-.95.377-2.164.375-1.276.002-2.291-.423-.999-.426-1.587-1.178a2.86 2.86 0 0 1-.573-1.752h-4.487q.033 2.095 1.177 3.732 1.148 1.62 3.162 2.52 2.013.9 4.535.901 2.535.002 4.55-.898 2.013-.9 3.143-2.505 1.131-1.622 1.133-3.686 0-1.668-.721-3.077a6.5 6.5 0 0 0-2.047-2.373q-1.31-.95-3.028-1.26l-4.553-.852q-1.082-.212-1.688-.852c-.404-.435-.604-.973-.604-1.605q0-.818.492-1.44.49-.64 1.376-1c.59-.24 1.238-.361 1.98-.361q1.113 0 1.996.375.885.361 1.376 1.016.508.655.507 1.505h4.47q-.016-1.964-1.113-3.47-1.08-1.523-2.994-2.375c-1.266-.566-2.706-.85-4.29-.85m-28.185.393V50h4.468v-8.66h5.24q2.454 0 4.305-.885 1.867-.9 2.866-2.521c.676-1.08 1.016-2.358 1.016-3.766q-.001-2.111-1-3.717-.984-1.604-2.818-2.486-1.833-.886-4.238-.886zm4.465 3.718H36.1q1.13 0 1.965.427a3 3 0 0 1 1.31 1.177c.305.501.457 1.114.457 1.801q0 1.032-.458 1.819c-.305.514-.742.908-1.31 1.193q-.834.41-1.964.41h-5.078zM26.554 68.75v4.688h25V68.75z"/></g><defs><linearGradient id="b" x1="88.092" x2="4.303" y1="-1.12" y2="37.727" gradientUnits="userSpaceOnUse"><stop offset=".16" stop-color="#d249fc"/><stop offset=".55" stop-color="#ff2d90"/></linearGradient><linearGradient id="c" x1="6.223" x2="97.948" y1="6.6" y2="98.326" gradientUnits="userSpaceOnUse"><stop offset=".3" stop-color="#ff2d90"/><stop offset=".7" stop-color="#7256ff"/></linearGradient><clipPath id="a"><path fill="#fff" d="M0 0h100v100H0z"/></clipPath></defs></g></svg>