<svg xmlns="http://www.w3.org/2000/svg" fill="none" viewBox="0 0 512 512"><g transform="translate(30.72 30.72) scale(4.506)"><g clip-path="url(#a)"><path fill="#3a78b1" d="M75.24 0H24.76C11.084 0 0 11.085 0 24.76v50.48C0 88.916 11.085 100 24.76 100h50.48C88.916 100 100 88.915 100 75.24V24.76C100 11.084 88.915 0 75.24 0"/><path fill="#fff" d="M57.909 70.817a11.539 11.539 0 1 1-23.078 0 11.539 11.539 0 0 1 23.078 0M17.212 86.923V43.99c0-15.144 12.596-34.544 34.302-34.544 21.707 0 34.64 16.755 34.64 33.919 0 29.471-28.029 34.398-28.029 34.398s1.73-2.764 1.73-7.09-1.922-6.731-1.922-6.731 14.423-3.846 14.423-20.914c0-17.067-12.74-19.952-20.673-19.952-13.702 0-21.227 11.66-21.227 20.265v43.726c0 6.225-4.206 5.745-4.206 5.745h-4.615s-4.423 0-4.423-5.866z"/></g><defs><clipPath id="a"><path fill="#fff" d="M0 0h100v100H0z"/></clipPath></defs></g></svg>