<svg xmlns="http://www.w3.org/2000/svg" fill="none" viewBox="0 0 512 512"><g transform="translate(30.72 32.92) scale(4.506)"><g fill-rule="evenodd" clip-path="url(#a)" clip-rule="evenodd"><path fill="url(#b)" d="M4.173 87.035c-1.372 0-2.501-.565-3.308-1.533-.807-.969-1.05-2.34-.726-3.712l15.006-64.95c.646-2.742 3.228-4.84 5.971-4.84h74.712c1.371 0 2.501.565 3.308 1.533s1.049 2.34.726 3.711l-15.007 64.95c-.645 2.743-3.227 4.84-5.97 4.84z" opacity=".8"/><path fill="url(#c)" d="M95.424 12.807H21.358c-2.34 0-4.6 1.856-5.164 4.195L1.348 82.032c-.564 2.34.888 4.196 3.228 4.196h74.066c2.34 0 4.599-1.856 5.164-4.196L98.65 17.083c.565-2.34-.887-4.276-3.227-4.276"/><path fill="#2c5591" d="M50.161 69.122h17.992c2.098 0 3.793 1.775 3.793 3.954 0 2.178-1.695 3.953-3.793 3.953H50.161c-2.097 0-3.792-1.775-3.792-3.953s1.695-3.954 3.792-3.954m11.7-17.589c-.323.646-.969 1.291-2.098 2.098L26.279 77.674c-1.855 1.291-4.437.807-5.89-1.129-1.371-1.936-1.048-4.599.727-5.89L51.29 48.79v-.484l-18.96-20.17c-1.533-1.614-1.372-4.277.322-5.97 1.775-1.615 4.438-1.615 5.97 0L61.377 46.37c1.372 1.533 1.453 3.63.484 5.163"/><path fill="#fff" d="M60.973 50.727c-.323.645-.968 1.29-2.098 2.097L25.473 76.868c-1.856 1.29-4.438.806-5.89-1.13-1.372-1.936-1.049-4.599.726-5.89l30.175-21.865V47.5l-18.96-20.17c-1.533-1.614-1.372-4.277.323-5.97 1.775-1.615 4.437-1.615 5.97 0L60.57 45.562c1.371 1.452 1.452 3.55.403 5.164M49.597 68.719h17.992c2.098 0 3.792 1.694 3.792 3.711 0 2.098-1.694 3.711-3.792 3.711H49.597c-2.098 0-3.792-1.694-3.792-3.71 0-2.099 1.694-3.712 3.792-3.712"/></g><defs><linearGradient id="b" x1="76.066" x2="18.9" y1="72.799" y2="21.738" gradientUnits="userSpaceOnUse"><stop stop-color="#a9c8ff"/><stop offset="1" stop-color="#c7e6ff"/></linearGradient><linearGradient id="c" x1="18.805" x2="74.664" y1="21.819" y2="71.425" gradientUnits="userSpaceOnUse"><stop stop-color="#2d4664"/><stop offset=".169" stop-color="#29405b"/><stop offset=".445" stop-color="#1e2f43"/><stop offset=".79" stop-color="#0c131b"/><stop offset="1"/></linearGradient><clipPath id="a"><path fill="#fff" d="M0 0h100v100H0z"/></clipPath></defs></g></svg>