<svg xmlns="http://www.w3.org/2000/svg" fill="none" viewBox="0 0 512 512"><g transform="translate(11.628 11.628) scale(4.887)"><path fill="#0403ff" d="M54.321 15.501H78.76v15.82H54.32z"/><path fill="#0808bd" d="M54.321 14.78v17.262h-1.48l.04-17.261z"/><path fill="#000373" d="M54.321 15.499H78.76v-1.44H52.88v1.44z"/><path fill="#000473" d="M52.161 13.338h27.32v18.68H61.52v-.72h17.26v-17.24h-25.9v17.96l-.72.72z"/><path fill="#0403ff" d="M18.38 60.779h24.438v15.82H18.38z"/><path fill="#0808bd" d="M18.38 60.059v17.26H16.9l.04-17.26z"/><path fill="#000373" d="M18.38 60.778h24.44V59.34H16.941v1.438z"/><path fill="#000473" d="M42.82 76.598V59.34H16.94V77.3h-.72V58.62h27.32V77.3h-.72"/><path fill="#0001df" d="M18.38 76.6h24.438v.72H18.38z"/><path fill="#fffffd" d="M5.441 91.68V84.5H49.28l5.761-5.758h3.598L50 87.38H8.319v4.32H5.44z"/><path fill="#bfbfc0" d="m5.441 84.5 6.458-6.46v6.46z"/><path fill="#bcbfb1" d="M5.441 91.68H8.32v2.879H5.44z"/><path fill="#c2c2c2" d="m49.28 84.5 5.761-5.758h-2.16L47.118 84.5z"/><path fill="#7e7e7e" d="M58.62 78.76v10.06l-5.76 5.76H8.318V91.7h41.68v-4.318z"/><path fill="silver" d="M32.76 89.54v2.16H8.32v-4.318H50V91.7h-2.88v-2.16z"/><path fill="#010101" d="M32.761 89.539h14.38v2.16H32.76z"/><path fill="#fffffd" d="M41.379 46.399V39.22H85.22l5.759-5.761h3.6l-8.62 8.62h-41.7V46.4z"/><path fill="#bfbfc0" d="m41.379 39.22 6.46-6.46v6.46z"/><path fill="#bcbfb1" d="M41.379 46.399h2.881v2.881h-2.88z"/><path fill="#c2c2c2" d="m85.22 39.221 5.759-5.761H88.82l-5.762 5.761z"/><path fill="#7e7e7e" d="M94.558 33.46v10.06L88.8 49.28H44.259V46.4H85.94v-4.32z"/><path fill="silver" d="M68.68 44.259v2.139H44.258V42.08H85.94v4.318h-2.88V44.24H68.68z"/><path fill="#010101" d="M68.68 44.259h14.38v2.139H68.68z"/><path fill="gray" d="M52.16 36.34h28.761V11.898l7.18-6.458v27.32l-5.04 5.038H50.72"/><path fill="#bfc1bb" d="M49.28 10.461 80.9 11.9l-1.441 1.44 3.6-2.878 5.042-5.041H54.32z"/><path fill="#c6bcbf" d="M52.161 33.46h28.76v2.88h-28.76z"/><path fill="#817f87" d="M50.72 32.76h.72l.72-.72V13.338h27.32l1.441-1.44h-30.2z"/><path fill="#fefffa" d="m51.44 32.76.72-.72h27.32V13.338l1.44-1.44v21.56H51.44z"/><path fill="#fff" d="M49.28 10.461h32.34L80.9 11.9H50.72v22.28l-1.44.72z"/><path fill="#bebebe" d="M50.72 32.762h.72v.72l-.72.72z"/><path fill="gray" d="M14.78 81.62h30.179V57.181l7.18-6.46V78.04l-5.038 5.041H13.34"/><path fill="#bfc1bb" d="m13.34 55.758 31.619 1.44-1.438 1.441 3.598-2.88 5.041-5.039H18.38z"/><path fill="#c6bcbf" d="M44.959 78.761v2.881h-30.18v-3.6h.721v.72z"/><path fill="#817f87" d="M14.78 78.04h.72l.72-.72V58.64h27.32l1.44-1.44h-30.2z"/><path fill="#fefffa" d="m15.5 78.04.72-.72h27.32V58.64l1.44-1.44v21.561H15.5z"/><path fill="#fff" d="M13.34 55.758h32.34l-.721 1.44H14.78V81.64l-1.44 1.44z"/><path fill="#bebebe" d="M14.78 78.04h.72v.72h-.72z"/><path fill="#000" d="m4.001 84.5 7.178-7.18h.72v1.44h-.72l-5.758 5.762V94.58H52.86l5.761-5.758V78.76h-6.46l1.44-1.44h6.458v11.502L52.882 96H4z"/><path fill="#000" d="M13.339 55.758V83.08l-1.44 1.441V55.758l6.46-6.458h35.242v28.76l-6.461 6.461H11.898l1.44-1.44h33.78l5.042-5.042V50.72H18.38z"/><path fill="#000" d="m39.941 39.22 7.179-7.18h.72v1.44h-.72l-5.76 5.76V49.3H88.8l5.76-5.762V33.48h-6.458l1.437-1.44H96v11.5l-7.177 7.18H39.94z"/><path fill="#000" d="M49.28 10.46v27.32l-1.441 1.44V10.46L54.32 4h35.217v28.76l-6.458 6.46H47.84l1.44-1.44h33.78l5.042-5.041V5.44H54.32z"/><path fill="#ffff01" d="M36.34 47.12h12.22l-19.4 19.4v1.44h2.16L62.94 42.8v-1.44h-11.5l18.68-19.4v-1.44h-1.44L36.34 45.679z"/><path fill="#000" d="M31.56 68.679h-3.12v-2.46l18.4-18.399h-11.2v-2.502L68.438 19.82h2.401v2.438l-17.72 18.4H63.64v2.502zm-1.68-1.42h1.18l31.16-24.78v-.38H49.74l19.66-20.42v-.44h-.48l-31.86 24.8v.36H50.3L29.879 66.82z"/></g></svg>