<svg xmlns="http://www.w3.org/2000/svg" fill="none" viewBox="0 0 512 512"><g transform="translate(30.72 30.72) scale(4.506)"><g clip-path="url(#a)"><path fill="#00d886" d="m9.094 75.083.003 18.555A6.363 6.363 0 0 0 15.46 100h17.98a6.36 6.36 0 0 0 4.831-2.221l51.106-59.625a6.37 6.37 0 0 0 1.532-4.141V15.458a6.363 6.363 0 0 0-6.364-6.364h-17.98a6.37 6.37 0 0 0-4.833 2.222L10.626 70.941a6.37 6.37 0 0 0-1.532 4.142"/><path fill="url(#b)" d="M9.093 77.313v16.322a6.363 6.363 0 0 0 6.363 6.363h20.457q.45 0 .9-.063l57.721-8.245a6.36 6.36 0 0 0 5.464-6.3V60.902a6.36 6.36 0 0 0-6.365-6.363l-28.965.007c-.684 0-1.363.11-2.01.327L13.443 71.277a6.37 6.37 0 0 0-4.352 6.037z"/><path fill="url(#c)" d="M.001 6.363v53.074a6.37 6.37 0 0 0 3.857 5.849L62.435 90.39a6.4 6.4 0 0 0 2.507.514h28.692a6.363 6.363 0 0 0 6.364-6.363v-28.07a6.37 6.37 0 0 0-1.07-3.533L65.485 2.834A6.36 6.36 0 0 0 60.194.002L6.366 0A6.363 6.363 0 0 0 0 6.363"/><path fill="#000" d="M81.249 18.75H18.75v62.498h62.498z"/><path fill="#fff" d="M58.254 26.109q-3.368 0-6.097 1.59a11.3 11.3 0 0 0-4.285 4.355q-1.559 2.763-1.56 6.18.002 3.415 1.56 6.193a11.47 11.47 0 0 0 4.285 4.355c1.82 1.048 3.853 1.578 6.097 1.578 1.897 0 3.644-.356 5.23-1.059q2.374-1.054 3.948-2.948a10.1 10.1 0 0 0 2.13-4.367H64.77a6.27 6.27 0 0 1-3.632 3.715c-.87.345-1.825.52-2.852.52-1.385 0-2.63-.347-3.746-1.04q-1.676-1.038-2.63-2.846-.937-1.824-.939-4.101 0-2.279.938-4.088.956-1.826 2.631-2.865c1.116-.692 2.361-1.033 3.745-1.033 1.027 0 1.982.174 2.853.52a6.2 6.2 0 0 1 2.225 1.49 6.2 6.2 0 0 1 1.407 2.223h4.792a10 10 0 0 0-2.13-4.353c-1.05-1.274-2.364-2.257-3.949-2.961s-3.332-1.058-5.229-1.058m-31.54.4v23.444h4.57V41.1h5.356q2.512 0 4.406-.906c1.273-.614 2.254-1.475 2.934-2.58.691-1.106 1.039-2.414 1.039-3.854s-.345-2.702-1.027-3.797q-1.002-1.643-2.877-2.547-1.877-.906-4.342-.906zm4.57 3.802h5.191q1.156 0 2.01.438a3.05 3.05 0 0 1 1.337 1.204c.313.512.469 1.14.469 1.844q0 1.054-.469 1.857a3.16 3.16 0 0 1-1.337 1.224q-.855.418-2.01.418h-5.19zm-4.73 38.436v4.69h25v-4.69z"/></g><defs><linearGradient id="b" x1="11.909" x2="95.698" y1="101.119" y2="62.273" gradientUnits="userSpaceOnUse"><stop offset=".1" stop-color="#00d886"/><stop offset=".59" stop-color="#f0eb18"/></linearGradient><linearGradient id="c" x1="93.777" x2="2.053" y1="93.399" y2="1.675" gradientUnits="userSpaceOnUse"><stop offset=".3" stop-color="#f0eb18"/><stop offset=".7" stop-color="#00c4f4"/></linearGradient><clipPath id="a"><path fill="#fff" d="M0 0h100v100H0z"/></clipPath></defs></g></svg>