<svg xmlns="http://www.w3.org/2000/svg" fill="none" viewBox="0 0 512 512"><g transform="translate(30.72 30.72) scale(4.506)"><g clip-path="url(#a)"><path fill="url(#b)" d="M100 50A50 50 0 1 1 0 50a50 50 0 0 1 100 0"/><path fill="url(#c)" d="M26.541 5.848A49.9 49.9 0 0 1 50.05 0a50.06 50.06 0 0 1 40.585 20.747c-6.439 19.284-25.075 28.75-36.448 29.458C57.936 51.71 16.963 15.77 26.54 5.848"/><path fill="url(#d)" d="M23.544 24.677c-8.093 0-14.085.142-20.605 8.443A49.95 49.95 0 0 0 .25 55c23.97-11.895 42.422-16.037 51.16-6.532q.127.073.24.169 1.645 1.462 3.305 2.91c-1.796-14.713-15.45-26.87-31.411-26.87"/><path fill="url(#e)" d="M8.974 78.576c-.877-9.417 5.088-19.338 12.71-24.9 10.463-7.632 23.078-9.07 30.354-4.693C44.432 34.995 36.472 32.879 30.272 32.9 14.687 32.952 3.168 42.58.118 52.942c.554 9.494 3.727 18.29 8.856 25.634"/><path fill="url(#f)" d="M50.05 100.001c-17.006 0-32.031-8.473-41.076-21.424-.876-9.416 5.089-19.337 12.711-24.9 10.463-7.632 23.078-9.07 30.353-4.693z"/><path fill="url(#g)" d="M68.788 61.524c-4.83-1.998-11.547-7.922-17.137-12.888-1.198-1.064-5.465-.65-6.022.863l-4.656 12.647z"/><path fill="url(#h)" d="M36.642 94.282c-3.797-4.356-6.027-12.597-2.9-19.48 2.49-5.483 7.782-9.077 11.746-11.493 7.742-4.719 16.258-4.431 24.011-1.36 11.802 4.672 22.919.982 30.5-8.795C98.335 79.49 76.467 100 50.05 100a50 50 0 0 1-8.194-.675c-2.414-1.312-3.666-3.268-5.213-5.043"/><path fill="url(#i)" d="M50.05 100a50.1 50.1 0 0 1-28.742-9.066 26 26 0 0 1-.064-1.817c0-13.06 10.776-23.647 24.068-23.647S69.38 76.058 69.38 89.118c0 2.51-.403 5.103-1.201 7.488A50.1 50.1 0 0 1 50.05 100"/><path fill="url(#j)" d="M50.05 0c9.4 0 18.61 2.644 26.576 7.632 3.328 10.914-4.615 19.724-10.731 23.885-11.269 7.668-20.957 2.7-29.328-1.967-8.05-4.488-19.244-8.3-31.012-2.445C14.137 10.46 31.308 0 50.05 0"/><path fill="url(#k)" d="M64.157 17.615c.865 11.172-3.822 18.326-13.066 17.776-5.244-.703-10.067-3.356-14.524-5.841-8.05-4.488-19.244-8.3-31.012-2.445C14.137 10.46 31.308 0 50.05 0q.353 0 .704.005c3.2 1.226 12.539 6.438 13.403 17.61"/><path fill="#000" fill-opacity=".2" d="M74.423 40.961v21.675h2.48c2.618 0 5.55-1.239 7.04-2.728 5.97-5.97 3.628-13.71-.133-16.404-1.14-.817-3.433-2.543-7.164-2.543zm-6.389-3.163c0-1.89 1.348-3.24 3.111-3.237l6.071.008c9.025.014 15.826 7.34 16.598 14.868C94.947 60.483 86.9 69.025 76.77 69.025l-5.487-.001c-1.87-.002-3.252-1.381-3.252-3.256zm-17.41-3.15c-1.408 0-2.587.79-3.073 2.088-3.48 9.27-6.961 18.54-10.433 27.815-.53 1.414.043 2.903.656 3.533 1.597 1.644 4.448 1.036 5.266-1.12.697-1.838 1.512-3.945 2.2-5.788h10.768c.687 1.843 1.502 3.95 2.199 5.789.817 2.155 3.669 2.763 5.266 1.12.613-.631 1.185-2.12.656-3.534q-5.21-13.91-10.433-27.815c-.487-1.299-1.664-2.089-3.073-2.089m-.016 12.06 3.06 8.122h-6.12zm-35.466-5.764v8.751l5.367-.008c2.76-.004 4.772-2.741 4.195-5.24-.478-2.067-2.274-3.504-4.285-3.504zM29.96 56.346l3.475 8.244a3.21 3.21 0 0 1-2.87 4.472 3.16 3.16 0 0 1-2.988-1.94c-1.079-2.542-2.21-5.062-3.227-7.63-1.083-2.731-3.614-3.415-5.28-3.415h-3.94v9.73c0 1.805-1.44 3.22-3.255 3.22-2.022 0-3.129-1.627-3.13-3.381l-.003-27.873c0-2.007 1.492-3.19 3.293-3.208a372 372 0 0 1 8.388-.003c3.127.04 5.792 1.188 7.933 3.49 4.103 4.412 3.652 11.05-.55 15.127.899.94 1.616 1.886 2.156 3.166z"/><path fill="#000" fill-opacity=".36" d="M74.423 39.399v21.675h2.48c2.618 0 5.55-1.24 7.04-2.728 5.97-5.97 3.628-13.71-.133-16.404-1.14-.817-3.433-2.543-7.164-2.543zm-6.389-3.163c0-1.891 1.348-3.24 3.111-3.238l6.071.009c9.025.013 15.826 7.339 16.598 14.868C94.947 58.92 86.9 67.462 76.77 67.462h-5.487c-1.87-.002-3.252-1.382-3.252-3.257zm-17.41-3.151c-1.408 0-2.587.79-3.073 2.088-3.48 9.27-6.961 18.54-10.433 27.815-.53 1.414.043 2.903.656 3.534 1.597 1.643 4.448 1.035 5.266-1.12.697-1.838 1.512-3.946 2.2-5.788h10.768c.687 1.842 1.502 3.95 2.199 5.788.817 2.156 3.669 2.763 5.266 1.12.613-.63 1.185-2.12.656-3.534q-5.21-13.909-10.433-27.815c-.487-1.298-1.664-2.088-3.073-2.088m-.016 12.06 3.06 8.123h-6.12zm-35.466-5.763v8.75l5.367-.007c2.76-.004 4.772-2.742 4.195-5.24-.478-2.067-2.274-3.504-4.285-3.504zM29.96 54.783l3.475 8.245a3.21 3.21 0 0 1-2.87 4.471 3.16 3.16 0 0 1-2.988-1.94c-1.079-2.541-2.21-5.062-3.227-7.629-1.083-2.732-3.614-3.415-5.28-3.415h-3.94v9.73c0 1.805-1.44 3.219-3.255 3.219-2.022 0-3.129-1.627-3.13-3.38L8.742 36.21c0-2.007 1.492-3.19 3.293-3.208a372 372 0 0 1 8.388-.003c3.127.039 5.792 1.187 7.933 3.49 4.103 4.411 3.652 11.05-.55 15.127.899.939 1.616 1.886 2.156 3.166z"/><path fill="#fff" d="M74.423 38.163v21.675h2.48c2.618 0 5.55-1.239 7.04-2.728 5.97-5.97 3.628-13.71-.133-16.404-1.14-.817-3.433-2.543-7.164-2.543zM68.034 35c0-1.89 1.348-3.24 3.111-3.238l6.071.01c9.025.012 15.826 7.338 16.598 14.867C94.947 57.684 86.9 66.227 76.77 66.227l-5.487-.001c-1.87-.002-3.252-1.382-3.252-3.257zm-17.41-3.15c-1.408 0-2.587.79-3.073 2.087-3.48 9.27-6.961 18.541-10.433 27.815-.53 1.414.043 2.904.656 3.534 1.597 1.644 4.448 1.036 5.266-1.12.697-1.838 1.512-3.946 2.2-5.788h10.768c.687 1.842 1.502 3.95 2.199 5.788.817 2.156 3.669 2.764 5.266 1.12.613-.63 1.185-2.119.656-3.534a32059 32059 0 0 0-10.433-27.815c-.487-1.298-1.664-2.088-3.073-2.088m-.016 12.06 3.06 8.122h-6.12zm-35.466-5.764v8.752l5.367-.008c2.76-.004 4.772-2.742 4.195-5.24-.478-2.067-2.274-3.504-4.285-3.504zM29.96 53.548l3.475 8.244a3.21 3.21 0 0 1-2.87 4.472 3.165 3.165 0 0 1-2.988-1.94c-1.079-2.542-2.21-5.062-3.227-7.63-1.083-2.732-3.614-3.415-5.28-3.415h-3.94v9.73c0 1.805-1.44 3.22-3.255 3.22-2.022 0-3.129-1.627-3.13-3.381l-.003-27.872c0-2.007 1.492-3.19 3.293-3.208a372 372 0 0 1 8.388-.003c3.127.039 5.792 1.187 7.933 3.49 4.103 4.411 3.652 11.05-.55 15.127.899.94 1.616 1.886 2.156 3.166z"/></g><defs><radialGradient id="b" cx="0" cy="0" r="1" gradientTransform="translate(50 50)scale(50.3906)" gradientUnits="userSpaceOnUse"><stop stop-color="#541419"/><stop offset=".578" stop-color="#4c1419"/><stop offset=".926" stop-color="#4c1419"/></radialGradient><radialGradient id="c" cx="0" cy="0" r="1" gradientTransform="matrix(10.2677 8.12216 -13.8323 17.4512 64.53 29.65)" gradientUnits="userSpaceOnUse"><stop offset=".327" stop-color="#451419"/><stop offset="1" stop-color="#5c141c"/></radialGradient><radialGradient id="d" cx="0" cy="0" r="1" gradientTransform="matrix(29.2573 -4.05668 2.83155 20.3817 22.047 48.114)" gradientUnits="userSpaceOnUse"><stop offset=".465" stop-color="#b41b22"/><stop offset="1" stop-color="#b41b22" stop-opacity="0"/></radialGradient><radialGradient id="e" cx="0" cy="0" r="1" gradientTransform="matrix(25.8493 -22.7997 16.8576 19.0745 26.38 61.696)" gradientUnits="userSpaceOnUse"><stop offset=".294" stop-color="#71121b"/><stop offset=".428" stop-color="#68111c"/><stop offset=".605" stop-color="#511419"/><stop offset=".797" stop-color="#3f1417"/><stop offset="1" stop-color="#301114"/></radialGradient><radialGradient id="h" cx="0" cy="0" r="1" gradientTransform="matrix(47.5337 -20.513 13.0698 30.2256 58.098 86.481)" gradientUnits="userSpaceOnUse"><stop offset=".19" stop-color="#b31c21"/><stop offset=".551" stop-color="#99191e"/><stop offset=".947" stop-color="#5e111c"/></radialGradient><radialGradient id="j" cx="0" cy="0" r="1" gradientTransform="matrix(14.3583 -.47917 1.01936 30.4914 59.476 21.266)" gradientUnits="userSpaceOnUse"><stop offset=".198" stop-color="#5c141c"/><stop offset=".599" stop-color="#75141c"/><stop offset="1" stop-color="#8b171c"/></radialGradient><linearGradient id="f" x1="19.712" x2="31.122" y1="55.436" y2="65.841" gradientUnits="userSpaceOnUse"><stop offset=".197" stop-color="#2e1414"/><stop offset="1" stop-color="#2e1414" stop-opacity="0"/></linearGradient><linearGradient id="g" x1="49.709" x2="55.433" y1="56.023" y2="53.272" gradientUnits="userSpaceOnUse"><stop stop-color="#61141c" stop-opacity="0"/><stop offset="1" stop-color="#61141c"/></linearGradient><linearGradient id="i" x1="45.502" x2="43.733" y1="65.648" y2="99.344" gradientUnits="userSpaceOnUse"><stop stop-color="#bd1c23" stop-opacity=".803"/><stop offset="1" stop-color="#bd1c23" stop-opacity=".406"/></linearGradient><linearGradient id="k" x1="24.254" x2="47.785" y1="36.452" y2=".375" gradientUnits="userSpaceOnUse"><stop offset=".172" stop-color="#68111c"/><stop offset=".608" stop-color="#75141c"/><stop offset=".804" stop-color="#91191e"/><stop offset="1" stop-color="#b81c23"/></linearGradient><clipPath id="a"><path fill="#fff" d="M0 0h100v100H0z"/></clipPath></defs></g></svg>