<svg xmlns="http://www.w3.org/2000/svg" fill="none" viewBox="0 0 512 512"><g transform="translate(30.72 30.72) scale(4.506)"><g clip-path="url(#a)"><path fill="#007dfe" d="m75.081 90.912 18.555-.002A6.36 6.36 0 0 0 100 84.547v-17.98a6.37 6.37 0 0 0-2.222-4.831L38.15 10.626a6.37 6.37 0 0 0-4.141-1.532H15.453a6.363 6.363 0 0 0-6.364 6.364V33.44a6.37 6.37 0 0 0 2.222 4.832l59.625 51.107a6.37 6.37 0 0 0 4.143 1.532z"/><path fill="url(#b)" d="M77.314 90.909h16.323A6.363 6.363 0 0 0 100 84.545V64.088a6.4 6.4 0 0 0-.063-.9L91.69 5.464A6.36 6.36 0 0 0 85.39 0H60.902a6.363 6.363 0 0 0-6.364 6.366l.008 28.966c0 .684.11 1.362.326 2.011l16.406 49.215a6.37 6.37 0 0 0 6.037 4.35"/><path fill="url(#c)" d="M6.363 100H59.44a6.37 6.37 0 0 0 5.848-3.857l25.107-58.578a6.4 6.4 0 0 0 .515-2.508V6.365A6.364 6.364 0 0 0 84.544 0h-28.07a6.37 6.37 0 0 0-3.533 1.071L2.834 34.513a6.37 6.37 0 0 0-2.832 5.293L0 93.636A6.363 6.363 0 0 0 6.363 100"/><path fill="#000" d="M81.25 18.75h-62.5v62.5h62.5z"/><path fill="#fff" d="M26.709 26.563V50h4.572v-8.85h3.945L40.272 50h5.239l-5.581-9.388q.171-.053.347-.103c.264-.075.526-.15.764-.259 1.272-.628 2.248-1.486 2.93-2.594.69-1.11 1.037-2.386 1.037-3.851 0-1.466-.34-2.7-1.02-3.788-.67-1.087-1.63-1.947-2.88-2.555-1.25-.606-2.696-.9-4.336-.9zm22.161 0V50h8.924q3.33 0 5.96-1.508a10.7 10.7 0 0 0 4.135-4.162c.992-1.8 1.49-3.81 1.49-6.049q0-3.358-1.49-6.027a10.77 10.77 0 0 0-4.135-4.184q-2.63-1.508-5.96-1.508zM31.281 30.37h5.191c.77 0 1.439.147 2.008.418.58.294 1.028.691 1.34 1.215.312.523.467 1.132.467 1.844 0 .711-.154 1.316-.467 1.86-.313.524-.76.922-1.34 1.215-.57.293-1.238.418-2.007.418H31.28zm22.162.147h4.3q2.093 0 3.668.94c1.05.607 1.856 1.508 2.426 2.68q.855 1.757.855 4.143 0 2.385-.855 4.145c-.57 1.172-1.377 2.069-2.426 2.676q-1.575.943-3.668.943h-4.3zM26.553 68.75v4.688h25V68.75z"/></g><defs><linearGradient id="b" x1="101.121" x2="62.273" y1="88.09" y2="4.302" gradientUnits="userSpaceOnUse"><stop offset=".21" stop-color="#007dfe"/><stop offset=".55" stop-color="#ffb700"/></linearGradient><linearGradient id="c" x1="93.403" x2="1.677" y1="6.22" y2="97.948" gradientUnits="userSpaceOnUse"><stop offset=".23" stop-color="#ffb700"/><stop offset=".73" stop-color="#ff0a67"/></linearGradient><clipPath id="a"><path fill="#fff" d="M0 0h100v100H0z"/></clipPath></defs></g></svg>