<svg xmlns="http://www.w3.org/2000/svg" fill="none" viewBox="0 0 512 512"><g transform="translate(30.72 30.72) scale(4.506)"><g clip-path="url(#a)"><path fill="url(#b)" d="M93.629 0H40.555a6.37 6.37 0 0 0-5.849 3.856L9.601 62.434a6.4 6.4 0 0 0-.514 2.507v28.693a6.363 6.363 0 0 0 6.364 6.363h28.07a6.36 6.36 0 0 0 3.533-1.071l50.105-33.442a6.36 6.36 0 0 0 2.831-5.293l.003-53.828A6.36 6.36 0 0 0 93.629 0"/><path fill="url(#c)" d="M22.681 9.094H6.36a6.363 6.363 0 0 0-6.364 6.364v20.457q0 .45.064.9l8.245 57.722a6.36 6.36 0 0 0 6.3 5.463h24.488a6.36 6.36 0 0 0 6.364-6.365l-.008-28.965a6.3 6.3 0 0 0-.326-2.01L28.719 13.444a6.37 6.37 0 0 0-6.037-4.35"/><path fill="#ff8100" d="m24.913 9.094-18.555.003a6.364 6.364 0 0 0-6.363 6.364v17.977a6.37 6.37 0 0 0 2.222 4.832l59.625 51.107a6.37 6.37 0 0 0 4.14 1.532h18.556a6.36 6.36 0 0 0 6.364-6.363v-17.98a6.37 6.37 0 0 0-2.222-4.833L29.055 10.627a6.36 6.36 0 0 0-4.142-1.531z"/><path fill="#000" d="M81.242 18.75H18.745v62.498h62.499z"/><path fill="#fff" fill-rule="evenodd" d="M65.455 26.561 60.8 41.945l-.351 2.008-.403-2.008-4.82-15.384h-6.361v23.436h4.503V33.275L53.3 32.17l5.391 17.828h3.314l5.457-17.945-.066 1.222v16.723h4.52V26.561zM41.035 40.24q1.908-.92 2.93-2.578 1.037-1.675 1.037-3.852c0-1.45-.34-2.705-1.02-3.8q-1.005-1.64-2.88-2.544t-4.336-.904H26.705v23.436h4.57V41.14h3.937l5.053 8.856h5.24l-5.586-9.39q.168-.051.339-.1c.268-.077.536-.153.777-.267m-9.759-9.878h5.19q1.155 0 2.009.436A3.05 3.05 0 0 1 39.813 32q.47.77.469 1.842c0 .714-.156 1.322-.469 1.857a3.16 3.16 0 0 1-1.338 1.223q-.855.418-2.01.419h-5.189zm-4.73 38.386h25v4.688h-25z" clip-rule="evenodd"/></g><defs><linearGradient id="b" x1="6.593" x2="98.315" y1="93.776" y2="2.051" gradientUnits="userSpaceOnUse"><stop offset=".29" stop-color="#ff2358"/><stop offset=".75" stop-color="#7256ff"/></linearGradient><linearGradient id="c" x1="-1.125" x2="37.722" y1="11.913" y2="95.699" gradientUnits="userSpaceOnUse"><stop offset=".29" stop-color="#ff8100"/><stop offset=".56" stop-color="#ff2358"/></linearGradient><clipPath id="a"><path fill="#fff" d="M0 0h100v100H0z"/></clipPath></defs></g></svg>