<svg xmlns="http://www.w3.org/2000/svg" fill="none" viewBox="0 0 512 512"><g transform="translate(30.72 30.72) scale(4.506)"><g clip-path="url(#a)"><path fill="url(#b)" d="M50 100c27.614 0 50-22.386 50-50S77.614 0 50 0 0 22.386 0 50s22.386 50 50 50"/><path fill="#fff" d="M49.6 4.879v7.36h.8v-7.36zm-3.122.208-.797.064.32 4 .797-.064zm7.043 0-.32 4 .797.064.32-4zm-10.967.443-.789.138 1.28 7.28.79-.138zm14.891 0-1.28 7.28.79.14 1.28-7.282zm-18.739.845-.772.209 1.04 3.84.771-.208zm22.587 0-1.039 3.84.772.21 1.04-3.84zm-26.276 1.09-.755.27 2.482 6.96.752-.27zm29.966 0-2.48 6.96.753.268 2.481-6.959zm3.696 1.482-1.76 3.68.722.345 1.76-3.68zm-37.356.006-.727.332 1.68 3.68.727-.33zm-3.456 1.808-.694.398 3.68 6.4.694-.399zm44.265 0-3.68 6.4.695.398 3.68-6.4zm-47.647 2.048-.652.461 2.32 3.28.653-.462zm51.03 0-2.32 3.28.652.462 2.32-3.28zm-54.089 2.374-.612.515 4.72 5.6.611-.515zm57.147 0-4.719 5.6.611.515 4.72-5.6zm-60.134 2.61-.558.574 2.88 2.8.557-.574zm-2.664 2.86-.511.614 5.68 4.72.512-.616zm68.45 0-5.681 4.719.512.616 5.68-4.721zM13.347 23.75l-.455.658 3.36 2.32.456-.659zm73.306 0-3.36 2.32.454.658 3.36-2.32zM11.24 27.093l-.399.693 6.4 3.68.399-.694zm77.521 0-6.4 3.68.399.693 6.4-3.68zM9.45 30.517l-.337.724 3.6 1.68.337-.725zm81.103 0-3.6 1.68.337.723 3.6-1.68zM7.9 34.103l-.28.75 6.88 2.561.28-.75zm84.2 0-6.88 2.56.28.751 6.88-2.562zM6.662 37.852l-.205.773 3.92 1.041.206-.773zm86.675 0-3.92 1.04.204.774 3.92-1.04zM5.75 41.685l-.14.787 7.28 1.281.14-.788zm88.5 0-7.28 1.28.14.788 7.28-1.28zM5.24 45.52l-.079.797 4 .4.079-.797zm89.521 0-4 .4.079.797 4-.4zm-89.72 4v.8H12.4v-.8zm82.559 0v.8h7.36v-.8zM9.16 53.04l-4 .4.079.795 4-.4zm81.679 0-.079.796 4 .4.079-.796zM12.89 56.005l-7.28 1.28.14.788 7.28-1.28zm74.22 0-.14.787 7.28 1.28.138-.788zm-76.732 4.088-3.92 1.039.204.773 3.92-1.039zm79.243 0-.204.773 3.92 1.04.205-.774zM14.5 62.344l-6.88 2.56.28.75 6.88-2.56zm71 0-.28.75 6.88 2.56.28-.75zm-72.79 4.493-3.6 1.68.339.724 3.6-1.68zm74.578 0-.337.724 3.6 1.68.337-.725zm-70.047 1.535-6.4 3.68.398.694 6.4-3.68zm65.518 0-.398.694 6.4 3.68.398-.694zM16.253 73.03l-3.36 2.32.454.659 3.36-2.32zm67.494 0-.455.658 3.36 2.32.456-.658zm-62.803.74-5.68 4.72.51.617 5.682-4.72zm58.112 0-.512.617 5.68 4.72.512-.616zm-53.522 4.691-4.72 5.6.612.516 4.72-5.6zm48.931 0-.61.516 4.718 5.6.612-.516zm4.774.132-.558.573 2.88 2.8.557-.573zm-48.384 3.684-3.68 6.32.69.404 3.68-6.32zm38.29 0-.69.403 3.68 6.32.69-.403zm-42.992.931-2.32 3.28.652.462 2.32-3.28zm47.694 0-.654.461 2.32 3.281.654-.462zm-37.104 1.856-2.48 6.96.754.269 2.48-6.96zm26.513 0-.753.27 2.48 6.96.754-.27zm-20.21 1.746-1.28 7.28.788.138 1.28-7.28zm13.908 0-.789.14 1.28 7.28.79-.14zm-24.593.053-1.761 3.6.718.352 1.762-3.6zm35.278 0-.72.352 1.762 3.6.719-.352zm-18.04.656v7.36h.8v-7.36zm-10.626 1.817-1.04 3.92.773.205 1.04-3.92zm22.053 0-.774.205 1.041 3.92.774-.204zm-15.025 1.35-.32 4 .797.064.32-4zm7.997 0-.797.064.32 4 .797-.064z"/><path fill="red" d="m84.16 15.6-38.4 30.16 4.16 4.16z"/><path fill="#d01414" d="m49.92 49.92 4.8 4.8L84.16 15.6z"/><path fill="#fff" d="M45.76 45.76 15.6 84.16l34.32-34.24z"/><path fill="#acacac" d="m15.6 84.16 39.12-29.44-4.8-4.8z"/></g><defs><linearGradient id="b" x1="50.016" x2="50.016" y1=".01" y2="100.003" gradientUnits="userSpaceOnUse"><stop stop-color="#19d7ff"/><stop offset="1" stop-color="#1e64f0"/></linearGradient><clipPath id="a"><path fill="#fff" d="M0 0h100v100H0z"/></clipPath></defs></g></svg>