<svg xmlns="http://www.w3.org/2000/svg" fill="none" viewBox="0 0 512 512"><g transform="translate(28.049 28.049) scale(4.559)"><g clip-path="url(#a)"><path fill="#205081" d="M50 .57C22.745.57.57 22.744.57 50 .57 77.255 22.745 99.43 50 99.43c27.256 0 49.43-22.176 49.43-49.43S77.255.57 50 .57m2.605 93.883v-8.585l21.438-10.86a1.53 1.53 0 0 0 .838-1.364V68.73a4.67 4.67 0 0 0 3.117-4.89 4.67 4.67 0 1 0-9.29.958 4.66 4.66 0 0 0 3.117 3.93v3.976L52.606 82.44v-7.985l8.471-3.92a1.53 1.53 0 0 0 .887-1.385l.016-13.301 15.68-8.81a1.53 1.53 0 0 0 .78-1.332V42a4.667 4.667 0 0 0-2.007-9.054A4.668 4.668 0 0 0 75.383 42v2.818l-15.68 8.804a1.53 1.53 0 0 0-.781 1.333l-.016 13.219-6.303 2.914V42.343l13.19-6.45a1.52 1.52 0 0 0 .858-1.372v-4.914a4.672 4.672 0 0 0 2.58-6.631 4.67 4.67 0 0 0-6.33-1.887 4.667 4.667 0 0 0 .693 8.516v3.96l-10.99 5.374V22.342a4.669 4.669 0 1 0-3.058-.002v27.066l-7.768-4.081V33.03a1.52 1.52 0 0 0-.6-1.213l-5.313-4.07a4.67 4.67 0 1 0-2.04 2.287l4.895 3.752v12.462c0 .57.316 1.09.82 1.354l10.007 5.258v9.94l-16.695-7.72.228-6.048a1.53 1.53 0 0 0-.83-1.418l-7.655-3.926a4.7 4.7 0 0 0 .102-1.54 4.67 4.67 0 0 0-9.29.96 4.67 4.67 0 0 0 5.124 4.163 4.6 4.6 0 0 0 2.422-.99l7.035 3.606-.231 6.094a1.53 1.53 0 0 0 .885 1.445l18.905 8.745v7.097q-.026.202 0 .403v20.854a45 45 0 0 1-4.76-.302V76.296c0-.598-.348-1.14-.89-1.389L32.034 69.45a4.667 4.667 0 0 0-5.127-5.1 4.67 4.67 0 1 0 3.847 7.876l10.974 5.049v16.478C21.11 89.865 5.463 71.73 5.463 50c0-24.558 19.98-44.54 44.539-44.54 24.557 0 44.535 19.982 44.535 44.54 0 23.683-18.583 43.101-41.932 44.454z"/></g><defs><clipPath id="a"><path fill="#fff" d="M0 0h100v100H0z"/></clipPath></defs></g></svg>