<svg xmlns="http://www.w3.org/2000/svg" fill="none" viewBox="0 0 512 512"><g transform="translate(30.72 30.72) scale(4.506)"><g clip-path="url(#a)"><path fill="#303030" d="M96.426 42.878a1.51 1.51 0 0 1 1.43 1.636v4.395a1.358 1.358 0 0 1-1.532 1.533H77.312c-4.703 0-7.463 1.63-7.463 5.313v1.328c0 2.851 1.328 5.313 6.334 7.155l13.596 5.421C99.185 73.234 100 78.45 100 84.07v1.14c0 11.447-6.84 13.682-20.648 13.682-8.892 0-16.964-.719-18.703-.923-1.226-.098-1.533-.714-1.533-1.528v-4.498a1.352 1.352 0 0 1 1.533-1.534h18.909c8.174 0 10.734-.923 10.734-5.318v-1.226c0-2.964-1.226-4.908-5.929-6.84L69.85 71.471c-7.872-3.067-9.816-8.995-9.816-14.617v-2.143c0-11.247 9.816-12.78 20.75-12.78 5.229-.003 10.453.313 15.643.946"/><path fill="#8c0000" d="M91.797 4.774A16.8 16.8 0 0 0 81.166.989h-64.27a16.9 16.9 0 0 0-7.873 1.944 17.1 17.1 0 0 0-6.84 6.613 30 30 0 0 0-.832 1.67c-.149.388-.314.77-.446 1.14a15 15 0 0 0-.609 2.366A16 16 0 0 0 0 17.886V82.13a16.64 16.64 0 0 0 1.67 7.32 16.89 16.89 0 0 0 15.227 9.56h34.307a.913.913 0 0 0 .912-.913V94a.91.91 0 0 0-.912-.912H46.75L33.462 66.176l30.316-40.179c.264-.353.458-.753.57-1.18l27.78 4.253v6.27a.91.91 0 0 0 .912.907h4.12a.92.92 0 0 0 .913-.907V17.886a16.81 16.81 0 0 0-6.276-13.112M56.835 6.907l1.437 11.446-22.461-3.42-1.014-7.98zm-39.904 0h12.342l.883 7.154-16.406-2.509-5.176-.798a10.89 10.89 0 0 1 8.323-3.848zM29.398 19.48 17.946 34.702 8.883 16.336zM5.934 22.73l7.343 14.867-7.343.9zm0 21.291 9.891-1.248 10.261 20.745-20.152 2.536zm34.711 49.066H17.81A11.903 11.903 0 0 1 5.934 81.219v-9.651l22.683-2.85zM30.761 60.69 20.642 40.17 35.52 20.451v-.035l22.951 3.512zm61.36-37.162-28.257-4.32-1.539-12.303h17.928a11.9 11.9 0 0 1 11.869 11.863z"/></g><defs><clipPath id="a"><path fill="#fff" d="M0 0h100v100H0z"/></clipPath></defs></g></svg>