<svg xmlns="http://www.w3.org/2000/svg" fill="none" viewBox="0 0 512 512"><g transform="translate(30.72 30.72) scale(4.506)"><g clip-path="url(#a)"><mask id="b" width="100" height="100" x="0" y="0" maskUnits="userSpaceOnUse" style="mask-type:luminance"><path fill="#c4c4c4" d="M50 99.92c27.571 0 49.922-22.35 49.922-49.921S77.572.077 50 .077.078 22.427.078 50 22.428 99.921 50 99.921"/></mask><g mask="url(#b)"><path fill="url(#c)" d="M117.344-10.937H-17.344v121.796h134.688z"/></g><mask id="d" width="100" height="100" x="0" y="0" maskUnits="userSpaceOnUse" style="mask-type:luminance"><path fill="#c4c4c4" d="M50 99.92c27.571 0 49.922-22.35 49.922-49.921S77.572.077 50 .077.078 22.427.078 50 22.428 99.921 50 99.921"/></mask><g mask="url(#d)"><path fill="#fff" fill-rule="evenodd" d="M19.063 27.578c4.843.938 7.578 3.828 8.437 8.438q-.117-7.148 8.438-8.438c-5.157-.547-7.813-3.437-8.438-8.437-.625 4.843-3.203 7.812-8.437 8.437M62.03 63.516l-1.875 4.922L45 63.984l1.563-5.312L35 54.062c3.672-4.53 7.344-6.718 13.125-9.53-.547-8.829 6.64-15.157 15.156-21.407 6.797 8.281 9.766 15.625 5.157 26.016 3.828 4.14 5.468 10.78 5.39 17.03L62.11 63.438zm2.657-23.438a4.37 4.37 0 0 1-4.376 4.375 4.37 4.37 0 0 1-4.374-4.375 4.37 4.37 0 0 1 4.374-4.375 4.37 4.37 0 0 1 4.376 4.375" clip-rule="evenodd"/></g><mask id="e" width="100" height="100" x="0" y="0" maskUnits="userSpaceOnUse" style="mask-type:luminance"><path fill="#c4c4c4" d="M50 99.92c27.571 0 49.922-22.35 49.922-49.921S77.572.077 50 .077.078 22.427.078 50 22.428 99.921 50 99.921"/></mask><g mask="url(#e)"><path fill="#fff" d="M56.328 78.67s-3.437 20.391-17.89 25.625L15.703 89.842c20 0 27.188-15.468 27.188-15.468l13.437 4.375z"/></g></g><defs><linearGradient id="c" x1="10.547" x2="89.453" y1="125.469" y2="-25.469" gradientUnits="userSpaceOnUse"><stop stop-color="#ed0a62"/><stop offset="1" stop-color="#890cea"/></linearGradient><clipPath id="a"><path fill="#fff" d="M0 0h100v100H0z"/></clipPath></defs></g></svg>