<svg xmlns="http://www.w3.org/2000/svg" fill="none" viewBox="0 0 512 512"><g transform="translate(30.72 30.72) scale(4.506)"><g clip-path="url(#a)"><path fill="#4d4d4e" d="M96.128 99.977H3.872A3.89 3.89 0 0 1 0 96.105V3.87A3.89 3.89 0 0 1 3.872-.001h92.256A3.89 3.89 0 0 1 100 3.871v92.256c-.022 2.126-1.746 3.85-3.872 3.85"/><path fill="#f89820" d="M23.053 30.191 75.38 13.584s3.715-1.947 2.82 1.657l.134 16.002s.649 2.35-2.574 2.932l-21.262 6.648z"/><path fill="#f89820" d="M23.053 30.191s-2.06.493-1.455 4.007l-.112 15.42S21.307 51.566 25 52.35l51.858 16.697s1.745.693 1.544-1.455l.022-17.19s.493-1.767-2.73-2.931l-21.195-6.647z"/><path fill="url(#b)" d="M45.904 59.064 23.836 65.8s-2.663.09-2.35 5.08c.313 4.992-.022 15.041-.022 15.041s.224 1.858 2.775.783l52.328-16.696s1.857-.47.29-.985c-1.566-.492-30.953-9.96-30.953-9.96"/></g><defs><linearGradient id="b" x1="24.525" x2="77.458" y1="76.776" y2="58.461" gradientUnits="userSpaceOnUse"><stop offset=".233" stop-color="#f89822"/><stop offset="1" stop-color="#c27818"/></linearGradient><clipPath id="a"><path fill="#fff" d="M0 0h100v100H0z"/></clipPath></defs></g></svg>