<svg xmlns="http://www.w3.org/2000/svg" fill="none" viewBox="0 0 512 512"><g transform="translate(30.72 30.72) scale(4.506)"><g clip-path="url(#a)"><path fill="#4b8eb4" d="M24.117 34.79c3.83-3.91 8.994-6.255 16.812-7.115 7.428.078 10.868-.312 19.39 4.613 2.268 1.72 7.352 3.753 5.867 7.273-2.346 4.613-2.425 4.3-3.599 8.52-1.172 4.224-.234 3.831-1.64 5.786-2.503 2.658-.703 2.503-3.911 3.91-4.925-2.032-3.988-1.64-6.723-2.032-4.69-.39-4.69-.549-10.556 2.266-3.91.626-.86.94-4.848.469-9.55-4.692-7.05-6.18-11.9-7.352-4.848-1.173-5.785-.155-6.256-2.346.158-4.378 4.068-10.555 7.351-13.996z"/><path fill="#424242" fill-opacity=".807" d="M30.375 62.703c-1.213 1.605-1.094 1.813-.781 3.987.86 2.038.551 2.855 4.065 3.283 4.06-1.233 4.105-3.676 4.143-5.473-4.508-.156-6.649-2.174-7.428-1.799z"/><path fill="#fff" d="M83.449 26.12c-.276.006-.607.126-1.007.382-2.194 2.133-2.204 2.215-3.363 9.148l-.002.002c-1.278 3.603-3.807 6.451-8.678 5.942l-.078.058c1.19-1.164 1.69-2.564-1.014-3.657-3.443-.703-4.9 3.232-6.723 9.148-1.083 5.218-3.19 11.564-6.88 9.384-6.495-2.186-3.86-1.486-6.959-1.642-5.8.39-10.503 4.867-18.061.781-5.6-4.103-7.483-5.14-14.166-6.802-.02-.005-.05-.008-.072-.012l.088-.615L4.73 44.094s-6.88-2.736-2.816 1.72c0 0 5.63 4.612 12.354 8.6l-.389-1.056q.765.828 1.63 1.547a9 9 0 0 0-.502.055l.004.002c-.46.46-3.174 2.904-4.654 5.63-1.501 2.767-1.832 5.642-.078 9.46 1.375 3.61 5.307 4.024 9.932 5.396 1.967-.328 3.403.898 5.161-1.094 1.432-1.59 2.483-1.113 1.172-4.067-2.753-4.393-3.367-7.234-.875-9.696-.053-.139-.11-.263-.167-.391.531.44 1.073.82 1.667 1.094 3.845.953 6.29 2.97 10.711 3.128q.354-.167.719-.313c-1.997 2.05-2.254 5.11-1.825 7.278h.002c.281 2.925 4.14 4.484 10.164 5.474 4.545-.31 8.447 1.79 11.417-2.658.535-3.315-.228-8.208-2.739-10.244l-.116-.093q.612.152 1.219.32c2.617.058 4.22-1.302 6.147-4.753-.777 1.81-1.58 3.543-2.87 3.89l.081.004c-.484 3.93 1.217 9.833 5.785 9.85q.368.038.716.063c2.532.62 3.987.315 5.46-.537 1.28-.474 2.156-1.19 2.862-2 .124-.091.23-.172.36-.265a3.75 3.75 0 0 0 .875-1.41l.048-.073q.06-.22.102-.441c.569-2.5-.738-5.932-3.086-8.159-1.289-1.562-2.772-2.98-4.055-4.146-.554-.493-.915-.78-1.265-.95 5.641 1.14 7.408-1.327 9.087-2.64 1.735-1.628 2.318-4.197 6.256-4.536 6.07-.092 7.856-.586 8.6-2.738 3.558-1.215 4.613.811 7.27-3.674.706-1.052.298-2.102-2.344-4.455-1.046-1.235-4.25-.847-4.77-1.721-9.755 6.185-5.276-9.46-8.53-9.375M66.28 50.787c-.23 1.226-.51 2.496-.963 3.786.52.17 1.01.312 1.479.434-.26-.02-.556-.031-.934-.048-.482.173-.894.543-1.264 1.037.188-.398.365-.76.564-1.192.447-1.381.798-2.73 1.118-4.017"/><path fill="#0079bb" d="M93.555 22.906c-1.047.006-2.055.63-2.829 1.75-.638-.582-1.361-.889-2.097-.889-1.12 0-2.194.709-2.986 1.97-.791 1.26-1.236 2.97-1.236 4.753s.445 3.493 1.236 4.753c.792 1.261 1.866 1.97 2.986 1.97 1.049 0 2.06-.622 2.837-1.744.636.578 1.356.882 2.089.883.554 0 1.103-.173 1.616-.511.512-.338.978-.833 1.37-1.457a7.8 7.8 0 0 0 .916-2.181c.212-.816.321-1.69.321-2.573s-.11-1.758-.321-2.573a7.8 7.8 0 0 0-.916-2.182c-.392-.624-.858-1.12-1.37-1.457-.513-.338-1.062-.512-1.616-.512"/><path fill="#000" d="M93.555 22.282c-1.139 0-2.153.583-2.944 1.491l-.002-.001c-.593-.399-1.262-.63-1.98-.63-1.435 0-2.675.924-3.516 2.262a8 8 0 0 0-.404.737 1.6 1.6 0 0 0-.514-.462 1.5 1.5 0 0 0-.761-.183q-.136.001-.268.026c-.353.062-.695.218-1.062.453l-.053.035-.046.044c-1.1 1.07-1.76 1.75-2.22 3.008-.453 1.24-.741 3.023-1.304 6.393-.613 1.723-1.51 3.221-2.782 4.219-1.051.824-2.367 1.328-4.086 1.348.143-.274.247-.564.281-.884.057-.526-.123-1.097-.526-1.555-.402-.457-.997-.832-1.826-1.167l-.054-.022-.056-.011a5 5 0 0 0-.723-.09 4 4 0 0 0-.693.036 3.6 3.6 0 0 0-1.013.311 3.5 3.5 0 0 0-.214-.703c-.36-.847-.998-1.547-1.724-2.164-1.453-1.234-3.319-2.187-4.367-2.983l-.03-.024-.034-.02c-8.599-4.969-12.295-4.62-19.7-4.697h-.036l-.039.005c-7.718.849-12.963 3.187-16.874 7.034l-.062-.02-.272.286c-3.074 3.22-6.649 8.615-7.383 13.126L4.936 43.504c-.066-.027-1.719-.7-3.074-.843q-.255-.03-.51-.025-.256.005-.504.073c-.337.094-.738.403-.824.834-.086.432.062.811.3 1.227.237.416.6.887 1.127 1.466l.031.033.034.03s5.562 4.536 12.232 8.521l.135.363q-.657.644-1.28 1.323c-.94 1.031-2.017 2.353-2.796 3.788-1.566 2.885-1.906 6.053-.105 9.992.757 1.975 2.268 3.12 4.082 3.88 1.817.762 3.965 1.204 6.248 1.882l.138.042.142-.025c.168-.029.336-.04.5-.044q1.068.145 1.95.123c.032.001.061.006.093.006a3.8 3.8 0 0 0 1.058-.13c.593-.119 1.099-.32 1.51-.624.747-.528 1.28-1.094 1.628-1.684a2.5 2.5 0 0 0 .467-.55c.219-.351.294-.822.215-1.315-.078-.482-.274-1.03-.599-1.768l-.022-.061c-.561-1.343-1.436-2.582-1.883-3.6-.245-.645-.405-1.236-.469-1.776-.155-1.306.166-2.327 1.13-3.372q.482.34 1.015.594l.054.023.058.014c.758.188 1.46.43 2.147.689l-.014.006.426.304c-.342.508-.703.996-.782 1.486-.107.68.026 1.315.18 2.393l.012.08.031.075c.409.966.53 1.744 1.152 2.424.625.682 1.607 1.016 3.415 1.236l.13.016.127-.038c.854-.26 1.557-.582 2.135-.946.008.64.07 1.258.18 1.825l-.004-.004.005.016c.002.014 0 .031.003.045l.074.371.035.01c.326 1.499 1.468 2.674 3.155 3.52 1.585.794 3.657 1.374 6.122 1.838.052.025.102.056.157.077.471.176.927.185 1.606.231l.036.003.036-.001c1.028-.051 2.09-.004 3.15.039.922.073 1.832.146 2.73.114a7.5 7.5 0 0 0 2.15-.375q.572-.142 1.11-.38l.045-.022.041-.026a5.2 5.2 0 0 0 1.09-.952c.445-.421.84-.892 1.177-1.404l.077-.115.02-.134c.285-1.752.225-3.863-.232-5.84-.31-1.337-.8-2.618-1.523-3.665a5.7 5.7 0 0 0 2.164-.532c-.064 1.864.287 3.95 1.13 5.724.998 2.098 2.79 3.793 5.331 3.811q.325.033.636.057c1.949.469 3.371.427 4.63-.021a8 8 0 0 0 1.224-.575q.514-.195.996-.461a7.6 7.6 0 0 0 2.003-1.635c.101-.075.19-.142.296-.218l.041-.03.036-.036a4.4 4.4 0 0 0 1.002-1.579l.056-.084.026-.097q.053-.195.091-.39c.265-1.093.2-2.32-.108-3.526-.486-1.9-1.58-3.81-3.105-5.267-1.166-1.412-2.469-2.69-3.646-3.775 1.416.066 2.563-.125 3.515-.469 1.864-.675 2.937-1.894 3.817-2.582l.024-.018.019-.019c.962-.901 1.543-1.96 2.325-2.773.782-.812 1.72-1.437 3.558-1.594 3.02-.047 5.01-.182 6.43-.623 1.265-.394 2.023-1.177 2.485-2.18 1.549-.486 2.568-.327 3.724-.556a3.9 3.9 0 0 0 1.832-.911c.599-.522 1.192-1.29 1.87-2.428.431-.652.534-1.528.118-2.36-.41-.818-1.226-1.685-2.527-2.85-.336-.39-.765-.628-1.224-.797a5.8 5.8 0 0 0 1.085-1.287c.84-1.337 1.334-3.125 1.334-5.087 0-1.963-.493-3.747-1.334-5.085-.84-1.339-2.08-2.262-3.515-2.262m0 1.25c.896 0 1.768.582 2.457 1.677.687 1.095 1.14 2.67 1.14 4.42s-.453 3.327-1.14 4.422c-.689 1.096-1.56 1.675-2.457 1.675-.433 0-.858-.136-1.26-.399.748-1.307 1.183-2.994 1.183-4.837 0-1.963-.493-3.748-1.334-5.086a6 6 0 0 0-.597-.803c.6-.7 1.295-1.07 2.008-1.07m-4.926.86c.897 0 1.769.582 2.457 1.677s1.14 2.67 1.14 4.42-.453 3.328-1.14 4.422c-.688 1.096-1.56 1.676-2.457 1.676s-1.767-.58-2.455-1.676c-.687-1.094-1.141-2.671-1.141-4.421s.453-3.325 1.14-4.42c.689-1.096 1.559-1.677 2.456-1.677m-5.113 2.352q.035.005.065.024c.082.047.28.315.417.854.026.105.049.222.072.341-.188.79-.289 1.64-.289 2.527 0 1.963.492 3.75 1.332 5.087.84 1.338 2.08 2.262 3.516 2.262 1.094 0 2.072-.537 2.85-1.383l.14-.08c.582.38 1.235.602 1.936.602q.39 0 .763-.09c.883.166 1.681.41 1.953.732l.027.034.034.028c1.299 1.158 2.013 1.987 2.284 2.53.272.54.225.711-.043 1.112l-.009.013-.008.016c-.646 1.087-1.178 1.747-1.63 2.142-.453.394-.813.54-1.252.627-.74.147-1.768.04-3.207.39l.003-.106c-4.218-.15-5.877-1.62-7.295-4.137l-1.09.614c1.378 2.445 3.347 4.205 6.985 4.664-.31.672-.75 1.036-1.736 1.343-1.168.364-3.103.521-6.121.568l-.022.001-.023.002c-2.1.18-3.422 1.01-4.35 1.974-.925.96-1.502 1.996-2.272 2.721-1.016.802-1.902 1.806-3.437 2.362-1.257.454-3.065.554-5.697-.07H67.4a24 24 0 0 1-1.317-.352c.256-.83.447-1.638.618-2.433.367-1.438.685-2.805 1.03-4.036.6-2.144 1.3-3.873 2.47-5.03q.234-.193.458-.4c2.399.175 4.357-.397 5.812-1.539 1.468-1.15 2.431-2.801 3.096-4.593l.087-.064.043-.247c.58-3.467.88-5.214 1.263-6.264.375-1.025.821-1.468 1.862-2.48.246-.15.448-.236.565-.257a.5.5 0 0 1 .13-.01zm11.764.813c-.215 0-.43.068-.629.202-.2.133-.38.33-.533.576-.153.247-.274.54-.356.863a4 4 0 0 0-.125 1.017c0 .705.173 1.381.481 1.88.309.497.727.777 1.162.777.436 0 .853-.28 1.161-.779.308-.498.481-1.173.482-1.878 0-.704-.173-1.38-.481-1.88-.308-.498-.726-.778-1.162-.778m-54.304.744c7.407.074 10.605-.34 19.026 4.525l.005.003c1.217.91 2.982 1.82 4.248 2.896.642.546 1.138 1.124 1.384 1.701.145.34.203.681.175 1.053a7 7 0 0 0-1.007 1.278c-1.092 1.747-1.908 4.238-2.821 7.203l-.01.028-.004.029c-.535 2.579-1.338 5.435-2.394 7.283-.528.923-1.117 1.572-1.677 1.855s-1.094.298-1.88-.166l-.056-.034-.063-.02c-3.242-1.092-4.162-1.459-4.818-1.602a3.3 3.3 0 0 0-.878-.057c-.291.01-.674.022-1.43-.016l-.036-.002-.037.003c-3.05.206-5.708 1.447-8.47 2.085-2.757.637-5.593.739-9.228-1.219-1.738-1.272-3.123-2.235-4.426-3.039a6.9 6.9 0 0 0-2.031-1.147c-1.97-.994-4.07-1.7-7.127-2.486.33-3.986 3.95-9.843 7.038-13.12l.104-.107c3.718-3.796 8.701-6.076 16.413-6.928m49.129.31c-.237 0-.47.072-.689.212s-.417.344-.584.601c-.167.258-.3.564-.39.901s-.137.698-.136 1.062c0 .365.046.726.136 1.062s.223.643.39.9c.167.259.366.463.584.603s.452.211.689.211.47-.072.688-.211c.219-.14.417-.344.584-.602s.3-.564.39-.9.137-.698.137-1.063c0-.364-.046-.725-.137-1.062a3.2 3.2 0 0 0-.39-.9 2 2 0 0 0-.584-.602 1.27 1.27 0 0 0-.688-.212M37.12 34.95q-3.485 0-5.486 1.982-1.99 1.973-1.991 5.39 0 1.867.537 3.265.536 1.389 1.521 2.317.978.92 2.365 1.378 1.39.46 3.055.46 1.292 0 2.671-.392a18.4 18.4 0 0 0 2.556-.939v-6.115h-5.696v1.665h3.82v3.495a8.6 8.6 0 0 1-1.61.469q-.905.18-1.828.181-2.508 0-3.964-1.53-1.454-1.545-1.454-4.31 0-2.625 1.389-4.157 1.398-1.542 3.79-1.541 1.063 0 1.896.2.843.193 1.502.489.546.25 1.11.622.567.374.863.604h.172v-2.25q-1.465-.7-2.738-.987a11 11 0 0 0-2.48-.296m8.318.16v1.868h2.03V35.11zm5.473.586v3.073h-1.217v1.514h1.217v5.687q0 1.943.852 2.824.851.882 2.488.88.468 0 1.064-.085.56-.079 1.11-.219v-1.618h-.095q-.21.085-.69.22-.48.125-.919.125-.758 0-1.13-.172a1.33 1.33 0 0 1-.575-.565 2.2 2.2 0 0 1-.268-.882q-.044-.66-.039-1.321v-4.874h3.717v-1.514H52.71v-3.073zm17.487 2.857q.372-.013.738.062c.656.277 1.09.563 1.292.793.213.242.245.396.224.594-.033.298-.33.75-.778 1.204-2.147 1.576-3.022 3.681-3.536 5.916-.265 1.147-.447 2.334-.675 3.547-.315 1.264-.656 2.577-1.088 3.913-.184.398-.348.73-.522 1.098q-.195.27-.365.557c-.498.83-.904 1.8-1.305 2.74l-.062.142c-.602 1.08-1.162 1.945-1.715 2.595-1.175 1.384-2.229 1.872-3.847 1.843-.313-.086-.63-.159-.945-.238-1.631-1.268-4.46-1.79-7.44-1.937-3.114-.151-6.347.167-8.461.979l-.04.014-.037.02a7 7 0 0 0-1.654 1.25c-.115.048-.236.09-.35.142-4.145-.17-6.518-2.068-10.403-3.06-.488-.226-.953-.551-1.423-.936a6.3 6.3 0 0 0-1.404-1.96c-.832-.791-2.018-1.588-3.925-2.706l-.049-.03-.052-.017c-1.225-.45-2.82-.934-4.84-.817-1.472-1.271-2.27-2.28-2.543-2.943-.297-.716-.167-.965.131-1.248s.913-.516 1.538-.61c.626-.093 1.281-.049 1.495.008l.005.002.004.002c6.651 1.654 8.361 2.607 13.949 6.7l.033.024.039.022c3.91 2.114 7.2 2.023 10.128 1.347s5.519-1.87 8.269-2.055c.728.033 1.187.024 1.463.016.289-.01.357-.016.57.03.421.091 1.44.471 4.64 1.548q-.036-.017-.072-.038l.119.053-.047-.015c1.038.586 2.121.617 3.008.17.906-.457 1.604-1.311 2.199-2.353 1.184-2.07 1.97-4.969 2.518-7.593.91-2.95 1.733-5.385 2.686-6.91q.714-1.14 1.497-1.575c.316-.178.67-.278 1.033-.29m-22.846.212V49.46h1.8V38.765zM1.48 43.897q.127-.006.252.008c1.041.11 2.765.771 2.765.771l.012.004 10.123 3.553c-.762.118-1.57.36-2.17.93-.612.579-.86 1.584-.426 2.634q.125.296.312.61c-5.51-3.505-9.938-7-9.995-7.046-.469-.517-.783-.932-.943-1.211-.107-.188-.093-.19-.104-.237.051-.006.106-.014.174-.016M16.7 55.523c1.34.044 2.44.367 3.395.716 1.83 1.076 2.953 1.84 3.645 2.498.623.593.9 1.143 1.196 1.85-1.07 1.242-1.602 2.648-1.417 4.203q.018.152.042.304c-1.04-.143-2.049-.265-2.998-.276-1.22-.016-2.364.137-3.422.61-2.007.89-3.514 2.922-4.494 6.714a4.83 4.83 0 0 1-1.783-2.313l-.008-.02-.008-.017c-1.692-3.681-1.375-6.26.057-8.9l.002-.002c.7-1.29 1.72-2.553 2.62-3.54.818-.897 1.421-1.451 1.747-1.767a10 10 0 0 1 1.425-.06m49.32.08c.3.014.544.026.761.043q.457.116.885.205c.253.136.56.375 1.063.825a47 47 0 0 1 3.016 2.968c-1.755.705-3.984 2.242-5.676 4.333q-.23.285-.44.583l-.031.018.004.022c-1.517 2.15-2.333 4.867-1.261 7.667-1.196-.47-2.07-1.49-2.7-2.816-.84-1.768-1.12-4.02-.938-5.83a4.2 4.2 0 0 0 1.504-1.442c.465-.734.844-1.593 1.213-2.45.534-.957 1.099-2.102 1.7-3.372.299-.38.602-.63.9-.754m6.582 5.12q.199.184.39.38c.325.408.64.824.924 1.247 1.39 2.061 2.166 4.2 1.702 6.227l-.053.17c-.19.282-.377.56-.57.827-1.222-4.255-3.876-6.25-5.183-7.363 1.035-.727 2.044-1.242 2.79-1.487M47.197 62.6q.56.006 1.115.032c2.98.146 5.81.847 6.893 1.798l.009.008.01.008c.528.428.985 1.03 1.365 1.74-2.324.182-4.598.718-6.647 2.045-2.22 1.438-4.143 3.785-5.597 7.454l-.012.032c-1.756-.398-3.233-.867-4.349-1.427-1.65-.828-2.468-1.76-2.585-2.961l-.037-.368c-.19-1.175-.19-2.58.22-3.9.44-1.416 1.302-2.696 2.824-3.542 1.582-.598 4.182-.94 6.79-.919m21.601.39c1.457 1.289 4.107 3.007 5.17 7.618-.835.616-1.549 1.143-2.207 1.53l-.095.034c-.578-2.87-1.834-4.843-2.968-6.093a10 10 0 0 0-1.546-1.391l-.029-.02a13.3 13.3 0 0 1 1.675-1.678m-38.046.31c.021.012.022.001.263.09.339.123.829.348 1.444.593 1.096.438 2.678.893 4.656 1.053a7.8 7.8 0 0 0-.727 1.652 9 9 0 0 0-.292 1.26c-.513.513-1.294.99-2.51 1.375-1.555-.205-2.19-.48-2.493-.81s-.474-.988-.887-1.984c-.147-1.02-.233-1.592-.177-1.948.05-.316.313-.713.723-1.28m35.627 2.373.044.031q.738.537 1.349 1.216c1.013 1.116 2.157 2.892 2.681 5.566-.965.178-2.14.24-3.592.146-.355-.085-.727-.18-1.134-.304-1.165-2.422-.636-4.692.652-6.654m-45.812.411c.213.002.434.016.658.029 1.294 2.416 2.394 4.643 1.777 8.748q-.216.015-.456.018c-.396-.026-.85-.068-1.353-.075-.09-.01-.174-.017-.267-.03l-.109-.018c.461-2.66.361-4.497-.04-5.907-.32-1.125-.82-1.961-1.304-2.718.351-.033.711-.052 1.094-.047m2.147.176c.39.047.776.094 1.184.15.418 1.26 1.127 2.615 2.077 4.139l.008.016c.273.678.389 1.295.253 1.878a2.4 2.4 0 0 1-.127.375c-.286.23-.707.565-1.204 1.117l-.001.003-.003.001q-.263.307-.583.553c.426-3.655-.504-6.077-1.604-8.232m-4.564.123c.565.885 1.1 1.678 1.422 2.809.34 1.192.45 2.81.015 5.33-1.603-.365-3.535-1.014-5.73-1.96.921-3.618 2.202-5.285 3.793-5.993a5 5 0 0 1 .5-.186m38.9 1.036-.017.122c-.192-.028-.214-.092-.208-.086.006.008.047.055.094.13.092.147.217.4.338.715.242.63.477 1.52.57 2.469.138 1.393-.02 2.862-.802 4-.361-3.626-1.898-5.364-3.42-6.808 1.1-.306 2.254-.468 3.446-.542m-4.773 1.001c1.801 1.653 3.412 2.979 3.566 7.391q-.188.105-.38.191c-.5.152-1.065.234-1.665.281-.593-3.424-2.14-5.564-3.718-6.615.179-.134.358-.268.541-.387a10 10 0 0 1 1.656-.861m-3.195 2.107c1.269.717 2.844 2.51 3.457 5.81-.84.006-1.731-.023-2.653-.044-.905-.063-1.857-.108-2.85-.051a62 62 0 0 1-1.027-.18c-.098-.082-.205-.196-.3-.284.973-2.317 2.11-4.017 3.372-5.25z"/></g><defs><clipPath id="a"><path fill="#fff" d="M0 0h100v100H0z"/></clipPath></defs></g></svg>