<svg xmlns="http://www.w3.org/2000/svg" fill="none" viewBox="0 0 512 512"><g transform="translate(-55.506 -54.291) scale(6.218)"><g clip-path="url(#a)"><path fill="#00caf4" d="M37.256 84.015v1.834c0 .155.128.283.284.283h24.822a.285.285 0 0 0 .285-.283v-1.835zm28.064-48.77H34.831V23.048h30.487z"/><mask id="b" width="100" height="100" x="0" y="0" maskUnits="userSpaceOnUse" style="mask-type:luminance"><path fill="#000" fill-opacity=".6" d="M0 0h100v100H0z"/></mask><g mask="url(#b)"><mask id="c" width="100" height="100" x="0" y="0" maskUnits="userSpaceOnUse" style="mask-type:luminance"><path fill="#fff" d="M0 0h100v100H0z"/></mask><g mask="url(#c)"><path fill="url(#d)" d="M34.824 23.057h30.5v12.188h-30.5z"/></g></g><mask id="e" width="100" height="100" x="0" y="0" maskUnits="userSpaceOnUse" style="mask-type:luminance"><path fill="#000" fill-opacity=".2" d="M0 0h100v100H0z"/></mask><g mask="url(#e)"><mask id="f" width="100" height="100" x="0" y="0" maskUnits="userSpaceOnUse" style="mask-type:luminance"><path fill="#fff" d="M0 0h100v100H0z"/></mask><g mask="url(#f)"><path fill="#fff" d="M60.907 34.229h4.416v-4.414z"/></g></g><mask id="g" width="100" height="100" x="0" y="0" maskUnits="userSpaceOnUse" style="mask-type:luminance"><path fill="#000" fill-opacity=".349" d="M0 0h100v100H0z"/></mask><g mask="url(#g)"><mask id="h" width="100" height="100" x="0" y="0" maskUnits="userSpaceOnUse" style="mask-type:luminance"><path fill="#fff" d="M0 0h100v100H0z"/></mask><g mask="url(#h)"><path fill="#fff" d="m52.716 34.23 11.169-11.173H48.029L36.856 34.23z"/></g></g><mask id="i" width="100" height="100" x="0" y="0" maskUnits="userSpaceOnUse" style="mask-type:luminance"><path fill="#000" fill-opacity=".4" d="M0 0h100v100H0z"/></mask><g mask="url(#i)"><mask id="j" width="100" height="100" x="0" y="0" maskUnits="userSpaceOnUse" style="mask-type:luminance"><path fill="#fff" d="M0 0h100v100H0z"/></mask><g mask="url(#j)"><path fill="#004972" d="M34.824 23.057h30.49v1.22h-30.49z"/></g></g><mask id="k" width="100" height="100" x="0" y="0" maskUnits="userSpaceOnUse" style="mask-type:luminance"><path fill="#000" fill-opacity=".2" d="M0 0h100v100H0z"/></mask><g mask="url(#k)"><mask id="l" width="100" height="100" x="0" y="0" maskUnits="userSpaceOnUse" style="mask-type:luminance"><path fill="#fff" d="M0 0h100v100H0z"/></mask><g mask="url(#l)"><path fill="#fff" d="M42.725 23.057h-7.903v7.892z"/></g></g><path fill="#002d4f" d="M65.32 35.336H34.833v-1.11H65.32z"/><path fill="#002d4f" d="M55.947 23.468h1.191v10.76h-1.19zm-12.939 0h1.19v10.76h-1.19z"/><path fill="url(#m)" d="M43.008 23.468h.92v10.76h-.92z"/><path fill="url(#n)" d="M56.219 23.468h.92v10.76h-.92z"/><mask id="o" width="100" height="100" x="0" y="0" maskUnits="userSpaceOnUse" style="mask-type:luminance"><path fill="#000" fill-opacity=".302" d="M0 0h100v100H0z"/></mask><g mask="url(#o)"><mask id="p" width="100" height="100" x="0" y="0" maskUnits="userSpaceOnUse" style="mask-type:luminance"><path fill="#fff" d="M0 0h100v100H0z"/></mask><g mask="url(#p)"><path fill="#004972" d="M44.199 23.468h.275v10.76h-.275z"/></g></g><mask id="q" width="100" height="100" x="0" y="0" maskUnits="userSpaceOnUse" style="mask-type:luminance"><path fill="#000" fill-opacity=".302" d="M0 0h100v100H0z"/></mask><g mask="url(#q)"><mask id="r" width="100" height="100" x="0" y="0" maskUnits="userSpaceOnUse" style="mask-type:luminance"><path fill="#fff" d="M0 0h100v100H0z"/></mask><g mask="url(#r)"><path fill="#004972" d="M55.664 23.468h.275v10.76h-.275z"/></g></g><path fill="#ffc600" d="m66.806 38.125-.458-2.56a.273.273 0 0 0-.275-.232h-32a.27.27 0 0 0-.275.231l-.458 2.561z"/><path fill="#002d4f" d="m72.714 44.278-1.065-5.917a.27.27 0 0 0-.272-.234H28.77a.27.27 0 0 0-.271.235l-1.066 5.917z"/><path fill="url(#s)" d="m72.714 44.278-1.065-5.917a.27.27 0 0 0-.272-.234H28.77a.27.27 0 0 0-.271.235l-1.066 5.917z"/><path fill="url(#t)" d="M35.489 62.97v20.36a.68.68 0 0 0 .683.684h27.774a.683.683 0 0 0 .684-.683V62.97z"/><path fill="#002d4f" d="M28.769 38.125a.27.27 0 0 0-.271.236l-.013.057h43.177l-.013-.057a.27.27 0 0 0-.272-.236z"/><path fill="#ffc600" d="M29.461 16.113h41.242l-.568-2.11a.32.32 0 0 0-.31-.233h-39.57a.34.34 0 0 0-.314.244z"/><path fill="url(#u)" d="M29.461 16.113h41.242l-.568-2.11a.32.32 0 0 0-.31-.233h-39.57a.34.34 0 0 0-.314.244z"/><mask id="v" width="100" height="100" x="0" y="0" maskUnits="userSpaceOnUse" style="mask-type:luminance"><path fill="#000" fill-opacity=".4" d="M0 0h100v100H0z"/></mask><g mask="url(#v)"><mask id="w" width="100" height="100" x="0" y="0" maskUnits="userSpaceOnUse" style="mask-type:luminance"><path fill="#fff" d="M0 0h100v100H0z"/></mask><g mask="url(#w)"><path fill="#b47d4f" d="M29.461 16.113h41.242l-.156-.604H29.6z"/></g></g><path fill="#002d4f" d="M27.783 23.469h44.598c.11 0 .195-.08.217-.178l1.093-7.178H26.483l1.086 7.178a.22.22 0 0 0 .214.177"/><path fill="#005a82" d="M26.553 16.553h47.062l.066-.44H26.483z"/><path fill="url(#x)" d="m66.806 38.125-.458-2.56a.273.273 0 0 0-.275-.232h-32a.27.27 0 0 0-.275.231l-.458 2.561z"/><path fill="#db9927" d="m66.806 38.126-.156-.852H33.497l-.157.852z"/><mask id="y" width="100" height="100" x="0" y="0" maskUnits="userSpaceOnUse" style="mask-type:luminance"><path fill="#000" fill-opacity=".349" d="M0 0h100v100H0z"/></mask><g mask="url(#y)"><mask id="z" width="100" height="100" x="0" y="0" maskUnits="userSpaceOnUse" style="mask-type:luminance"><path fill="#fff" d="M0 0h100v100H0z"/></mask><g mask="url(#z)"><path fill="#002d4f" d="m72.714 44.278-.253-1.425H27.685l-.253 1.425z"/></g></g><mask id="A" width="100" height="100" x="0" y="0" maskUnits="userSpaceOnUse" style="mask-type:luminance"><path fill="#000" fill-opacity=".2" d="M0 0h100v100H0z"/></mask><g mask="url(#A)"><mask id="B" width="100" height="100" x="0" y="0" maskUnits="userSpaceOnUse" style="mask-type:luminance"><path fill="#fff" d="M0 0h100v100H0z"/></mask><g mask="url(#B)"><path fill="#004972" d="M37.256 84.015h25.382v.407H37.255z"/></g></g><mask id="C" width="100" height="100" x="0" y="0" maskUnits="userSpaceOnUse" style="mask-type:luminance"><path fill="#000" fill-opacity=".4" d="M0 0h100v100H0z"/></mask><g mask="url(#C)"><mask id="D" width="100" height="100" x="0" y="0" maskUnits="userSpaceOnUse" style="mask-type:luminance"><path fill="#fff" d="M0 0h100v100H0z"/></mask><g mask="url(#D)"><path fill="#002d4f" d="M42.88 62.97h-7.4v20.36a.68.68 0 0 0 .683.684h6.708V62.97z"/></g></g><path fill="url(#E)" d="M64.639 83.33V62.97h-7.403v21.054h6.72a.703.703 0 0 0 .683-.693"/><path fill="#ffc600" d="m76.434 49.316-1.14-4.607a.56.56 0 0 0-.547-.43H25.372a.555.555 0 0 0-.55.43l-1.131 4.609a.27.27 0 0 0 .039.224l8.661 13.192a.53.53 0 0 0 .44.235h34.484a.53.53 0 0 0 .44-.235l8.66-13.193c.02-.07.04-.146.02-.226z"/><mask id="F" width="100" height="100" x="0" y="0" maskUnits="userSpaceOnUse" style="mask-type:luminance"><path fill="#000" fill-opacity=".4" d="M0 0h100v100H0z"/></mask><g mask="url(#F)"><mask id="G" width="100" height="100" x="0" y="0" maskUnits="userSpaceOnUse" style="mask-type:luminance"><path fill="#fff" d="M0 0h100v100H0z"/></mask><g mask="url(#G)"><path fill="url(#H)" d="m76.434 49.316-1.14-4.607a.56.56 0 0 0-.547-.43H25.372a.555.555 0 0 0-.55.43l-1.131 4.609a.27.27 0 0 0 .039.224l8.661 13.192a.53.53 0 0 0 .44.235h34.484a.53.53 0 0 0 .44-.235l8.66-13.193c.02-.07.04-.146.02-.226z"/></g></g><path fill="#db9927" d="M23.682 49.433q.011.057.04.11l8.66 13.193a.53.53 0 0 0 .44.234h34.482a.53.53 0 0 0 .44-.234l8.662-13.193a.23.23 0 0 0 .04-.11z"/><mask id="I" width="100" height="100" x="0" y="0" maskUnits="userSpaceOnUse" style="mask-type:luminance"><path fill="#000" fill-opacity=".42" d="M0 0h100v100H0z"/></mask><g mask="url(#I)"><mask id="J" width="100" height="100" x="0" y="0" maskUnits="userSpaceOnUse" style="mask-type:luminance"><path fill="#fff" d="M0 0h100v100H0z"/></mask><g mask="url(#J)"><path fill="#002d4f" d="M35.489 62.97h29.15v1.687h-29.15z"/></g></g><path fill="#cd7f1f" d="m42.547 62.705-8.72-13.242H23.684a.4.4 0 0 0 .039.107l8.66 13.193a.53.53 0 0 0 .44.234H43.05a.62.62 0 0 1-.5-.292z"/><mask id="K" width="100" height="100" x="0" y="0" maskUnits="userSpaceOnUse" style="mask-type:luminance"><path fill="#000" fill-opacity=".4" d="M0 0h100v100H0z"/></mask><g mask="url(#K)"><mask id="L" width="100" height="100" x="0" y="0" maskUnits="userSpaceOnUse" style="mask-type:luminance"><path fill="#fff" d="M0 0h100v100H0z"/></mask><g mask="url(#L)"><path fill="#cd7f1f" d="m33.994 49.277 1.193-4.825a.28.28 0 0 1 .271-.214h-9.952a.555.555 0 0 0-.546.43l-1.133 4.61z"/></g></g><mask id="M" width="100" height="100" x="0" y="0" maskUnits="userSpaceOnUse" style="mask-type:luminance"><path fill="#000" fill-opacity=".4" d="M0 0h100v100H0z"/></mask><g mask="url(#M)"><mask id="N" width="100" height="100" x="0" y="0" maskUnits="userSpaceOnUse" style="mask-type:luminance"><path fill="#fff" d="M0 0h100v100H0z"/></mask><g mask="url(#N)"><path fill="#ffe700" d="m57.586 62.705 8.722-13.242h10.147a.5.5 0 0 1-.039.107l-8.66 13.193a.53.53 0 0 1-.44.234H57.098a.6.6 0 0 0 .488-.292"/></g></g><mask id="O" width="100" height="100" x="0" y="0" maskUnits="userSpaceOnUse" style="mask-type:luminance"><path fill="#000" fill-opacity=".4" d="M0 0h100v100H0z"/></mask><g mask="url(#O)"><mask id="P" width="100" height="100" x="0" y="0" maskUnits="userSpaceOnUse" style="mask-type:luminance"><path fill="#fff" d="M0 0h100v100H0z"/></mask><g mask="url(#P)"><path fill="#ff0" d="m66.269 49.317-1.19-4.825a.284.284 0 0 0-.275-.213h9.953c.261 0 .487.173.546.43l1.132 4.609z"/></g></g><mask id="Q" width="100" height="100" x="0" y="0" maskUnits="userSpaceOnUse" style="mask-type:luminance"><path fill="#000" fill-opacity=".4" d="M0 0h100v100H0z"/></mask><g mask="url(#Q)"><mask id="R" width="100" height="100" x="0" y="0" maskUnits="userSpaceOnUse" style="mask-type:luminance"><path fill="#fff" d="M0 0h100v100H0z"/></mask><g mask="url(#R)"><path fill="#ff0" d="M23.664 49.433h52.8l-.127-.497H23.779z"/></g></g><path fill="url(#S)" d="m72.625 23.056 1.057-6.943h-47.2l1.057 6.943z"/><path fill="#fff203" d="M34.073 35.341a.274.274 0 0 0-.275.236l-.018.097h32.578l-.019-.097a.274.274 0 0 0-.275-.235z"/></g><defs><linearGradient id="d" x1="34.827" x2="65.318" y1="29.152" y2="29.152" gradientUnits="userSpaceOnUse"><stop offset=".408" stop-color="#fff" stop-opacity="0"/><stop offset=".999" stop-color="#fff"/></linearGradient><linearGradient id="m" x1="43.467" x2="43.467" y1="34.227" y2="23.462" gradientUnits="userSpaceOnUse"><stop offset=".096" stop-color="#00caf4" stop-opacity="0"/><stop offset=".568" stop-color="#00caf4" stop-opacity=".282"/><stop offset=".6" stop-color="#00caf4" stop-opacity=".302"/><stop offset=".797" stop-color="#00caf4" stop-opacity=".302"/><stop offset="1" stop-color="#00caf4" stop-opacity=".102"/></linearGradient><linearGradient id="n" x1="56.679" x2="56.679" y1="34.227" y2="23.462" gradientUnits="userSpaceOnUse"><stop offset=".096" stop-color="#00caf4" stop-opacity="0"/><stop offset=".568" stop-color="#00caf4" stop-opacity=".282"/><stop offset=".6" stop-color="#00caf4" stop-opacity=".302"/><stop offset=".797" stop-color="#00caf4" stop-opacity=".302"/><stop offset="1" stop-color="#00caf4" stop-opacity=".102"/></linearGradient><linearGradient id="s" x1="27.433" x2="72.712" y1="41.201" y2="41.201" gradientUnits="userSpaceOnUse"><stop offset=".096" stop-color="#00caf4" stop-opacity="0"/><stop offset=".568" stop-color="#00caf4" stop-opacity=".282"/><stop offset=".6" stop-color="#00caf4" stop-opacity=".302"/><stop offset=".797" stop-color="#00caf4" stop-opacity=".302"/><stop offset="1" stop-color="#00caf4" stop-opacity=".102"/></linearGradient><linearGradient id="t" x1="50.061" x2="50.061" y1="62.966" y2="84.016" gradientUnits="userSpaceOnUse"><stop stop-color="#005f8e"/><stop offset=".724" stop-color="#004972"/><stop offset=".74" stop-color="#004972"/></linearGradient><linearGradient id="u" x1="29.464" x2="70.705" y1="14.936" y2="14.936" gradientUnits="userSpaceOnUse"><stop offset=".204" stop-color="#ffd813" stop-opacity="0"/><stop offset=".781" stop-color="#ffd813"/></linearGradient><linearGradient id="x" x1="33.342" x2="66.802" y1="36.733" y2="36.733" gradientUnits="userSpaceOnUse"><stop offset=".204" stop-color="#ffd813" stop-opacity="0"/><stop offset=".781" stop-color="#ffd813"/></linearGradient><linearGradient id="E" x1="60.937" x2="60.937" y1="62.966" y2="84.016" gradientUnits="userSpaceOnUse"><stop stop-color="#008dc4"/><stop offset=".541" stop-color="#0072a7"/></linearGradient><linearGradient id="H" x1="39.258" x2="57.907" y1="66.765" y2="34.465" gradientUnits="userSpaceOnUse"><stop offset=".204" stop-color="#ffd813" stop-opacity="0"/><stop offset=".781" stop-color="#ffd813"/></linearGradient><linearGradient id="S" x1="26.488" x2="73.681" y1="19.584" y2="19.584" gradientUnits="userSpaceOnUse"><stop offset=".096" stop-color="#00caf4" stop-opacity="0"/><stop offset=".568" stop-color="#00caf4" stop-opacity=".282"/><stop offset=".6" stop-color="#00caf4" stop-opacity=".302"/><stop offset=".797" stop-color="#00caf4" stop-opacity=".302"/><stop offset="1" stop-color="#00caf4" stop-opacity=".102"/></linearGradient><clipPath id="a"><path fill="#fff" d="M0 0h100v100H0z"/></clipPath></defs></g></svg>