<svg xmlns="http://www.w3.org/2000/svg" fill="none" viewBox="0 0 512 512"><g transform="translate(28.943 28.943) scale(4.55)"><g clip-path="url(#a)"><path fill="#019833" stroke="#000" stroke-width=".259" d="M50.305 5.656 5.972 50.048 50.12 94.256l44.333-44.393z"/><path fill="#66fe98" stroke="#000" stroke-width=".259" d="M50.12 5.841V1.957L1.91 50.234h4.063z"/><path fill="#45fe02" stroke="#000" stroke-width=".259" d="M50.01 5.841V1.957l48.21 48.277h-4.064z"/><path fill="#017d17" stroke="#000" stroke-width=".259" d="M50.12 94.515v3.884L1.91 50.123h4.063z"/><path stroke="#000" stroke-width="5.176" d="M10.853 6.86h31.086l1.894 1.896v5.82l-1.502 1.832h-3.396v28.905l29.258-28.905H63.36l-1.698-1.831V8.429l1.568-1.438h31.478l1.567 1.57v5.754L25.09 87.428h-8.1l-2.344-1.356V16.146h-3.925l-1.437-1.439V8.56z"/><path fill="#005d04" stroke="#000" stroke-width=".259" d="M50.01 94.515v3.884l48.21-48.276h-4.064z"/><path stroke="#000" stroke-width="1.553" d="M49.99 1.6 1.597 50.056l48.191 48.256 48.393-48.458z"/><path fill="#fefefe" stroke="#000" stroke-width=".259" d="m42.27 9.818 1.754-.925-1.8-1.803H10.866L9.274 8.685v6.035l1.767 1.768.842-1.768-1.108-1.11V9.356l.831-.74h29.925z"/><path stroke="#000" stroke-width=".259" d="m64.438 8.43-1.107 1.108v4.07l.97.972h5.123v3.933l-33.893 34.4V14.628h5.633l1.155-1.157V9.352l-1.067-.825H11.61l-.97.97v4.209l.986.987h5.156v70.5l.97.972h5.859l71.028-73.39V9.538L93.53 8.43z"/><path fill="#fefefe" stroke="#000" stroke-width=".259" d="M16.73 14.577v70.627l.915 1.047-.718 1.368-2.025-2.022v-69.19z"/><path fill="gray" stroke="#000" stroke-width=".259" d="m11.664 14.577-.522 1.7h3.788l2.09-1.7z"/><path fill="#fefefe" d="m63.697 16.486.831-1.71-1.2-1.11V9.873l1.385-1.388h28.909l1.108 1.48 1.57-1.11-1.616-1.618h-31.08l-1.546 1.549v6.08l1.605 1.515M38.547 45.58l-3.02 7.336 34.081-34.22v-4.069z"/><path stroke="#000" stroke-width=".259" d="m63.697 16.486.831-1.71-1.2-1.11V9.873l1.385-1.388h28.909l1.108 1.48 1.57-1.11-1.616-1.618h-31.08l-1.546 1.549v6.08l1.605 1.515M38.547 45.58l-3.02 7.336 34.081-34.22v-4.069z"/><path fill="gray" stroke="#000" stroke-width=".259" d="m42.2 9.606 1.503-.98v5.95l-1.731 1.733h-3.364v29.33L35.54 52.9V14.575h5.617l1.044-.85z"/><path fill="#ccc" stroke="#000" stroke-width=".259" d="m64.438 8.43-1.107 1.108v4.07l.97.972h5.123v3.933l-33.893 34.4V14.628h5.633l1.155-1.157V9.352l-1.067-.825H11.61l-.97.97v4.209l.986.987h5.156v70.5l.97.972h5.859l71.027-73.39V9.538L93.532 8.43z"/><path fill="gray" stroke="#000" stroke-width=".259" d="m94.73 9.633 1.577-.912v5.721l-71.55 73.212h-7.596l.726-1.444h5.818l70.932-73.34zm-25.263 5.042-1.6 1.667h-4.18l.98-1.667z"/><path fill="#ccc" stroke="#000" stroke-miterlimit="10" stroke-width="2.07" d="M52.405 55.951a.3.3 0 0 0-.146.073l-1.373 1.182a.3.3 0 0 0-.09.137l-1.373 3.852a.32.32 0 0 0 .072.332l1.051 1.052a.32.32 0 0 0 .226.089h4.243a.32.32 0 0 0 .227-.089l1.107-1.117a.3.3 0 0 0 .08-.137l1.18-4.055a.32.32 0 0 0-.08-.315l-.914-.915a.32.32 0 0 0-.226-.089h-3.92a.3.3 0 0 0-.064 0Zm-7.775 10.86a.32.32 0 0 0-.242.235l-.525 2.088a.32.32 0 0 0 .307.396h2.497l-6.19 17.698a.32.32 0 0 0 .299.421h9.01a.32.32 0 0 0 .308-.219l.59-1.901a.32.32 0 0 0-.308-.413H48.34l6.126-17.884a.32.32 0 0 0-.3-.42h-9.47a.3.3 0 0 0-.066 0Zm28.673.065a.32.32 0 0 0-.177.105l-1.875 2.12h-2.982l-1.988-2.063a.32.32 0 0 0-.227-.097h-7.12a.32.32 0 0 0-.298.21l-.655 1.959a.32.32 0 0 0 .3.42h1.906l-5.931 17.504a.32.32 0 0 0 .298.42h7.58a.32.32 0 0 0 .3-.21l.582-1.707a.32.32 0 0 0-.3-.42h-1.325l3.783-11.92h6.845l-4.316 13.845a.318.318 0 0 0 .307.413h7.314a.32.32 0 0 0 .29-.195l.655-1.57a.32.32 0 0 0-.29-.436h-1.326L78.5 73.13h6.513l-4.38 13.911a.32.32 0 0 0 .308.413h8.032a.32.32 0 0 0 .3-.203l.654-1.707a.32.32 0 0 0-.299-.429h-1.592l4.84-15.74a.32.32 0 0 0-.048-.29l-1.503-2.024a.32.32 0 0 0-.258-.121H85.32a.32.32 0 0 0-.235.097l-1.81 1.99h-3.168l-1.875-2.055a.32.32 0 0 0-.234-.097h-4.63a.3.3 0 0 0-.066 0Z"/><path fill="#ccc" stroke="#000" stroke-miterlimit="10" stroke-width=".259" d="m52.47 56.267-1.374 1.182-1.374 3.852 1.05 1.051h4.243l1.107-1.116 1.18-4.054-.913-.915zm-7.775 10.86-.525 2.088h2.941l-6.335 18.118h9.01l.59-1.901h-2.48l6.27-18.305zm28.673.065-1.964 2.225H68.14l-2.085-2.16h-7.12l-.654 1.958h2.352l-6.078 17.924h7.58l.583-1.707h-1.762l3.984-12.551h7.516L68.01 87.139h7.314l.654-1.57h-1.761l4.048-12.753h7.185l-4.51 14.323h8.033l.655-1.707H87.6l4.97-16.153-1.504-2.022H85.32l-1.899 2.087h-3.459L78 67.192z"/></g><defs><clipPath id="a"><path fill="#fff" d="M0 0h100v100H0z"/></clipPath></defs></g></svg>