<svg xmlns="http://www.w3.org/2000/svg" fill="none" viewBox="0 0 512 512"><g transform="translate(30.72 30.72) scale(4.506)"><g clip-path="url(#a)"><path fill="#52218a" d="M11.242 20.542a4.1 4.1 0 0 0-1.107.291l-7.573 3.125A4.16 4.16 0 0 0 0 27.781v44.437a4.16 4.16 0 0 0 2.563 3.823l7.572 3.177a4.16 4.16 0 0 0 4.313-.676l1.697-1.459a2.302 2.302 0 0 1-3.645-1.875V24.791a2.303 2.303 0 0 1 3.645-1.875l-1.697-1.405a4.16 4.16 0 0 0-3.206-.97"/><path fill="#6c33af" d="M74.023.325a6.25 6.25 0 0 0-5.273 1.76L4.167 73.49A2.406 2.406 0 0 1 0 71.876v.344a4.16 4.16 0 0 0 2.563 3.822l7.572 3.177a4.16 4.16 0 0 0 4.313-.676l1.697-1.459 77.407-63.469A3.948 3.948 0 0 1 100 16.667v-.24a6.26 6.26 0 0 0-3.541-5.635L75.855.876a6.3 6.3 0 0 0-1.832-.551"/><path fill="#854cc7" d="M11.618 20.498a4.1 4.1 0 0 0-1.483.336L2.562 23.96A4.16 4.16 0 0 0 0 27.782v.344a2.406 2.406 0 0 1 4.167-1.614L68.75 97.917a6.25 6.25 0 0 0 7.105 1.209l20.604-9.918A6.25 6.25 0 0 0 100 83.574v-.24a3.948 3.948 0 0 1-6.448 3.052l-77.407-63.47-1.697-1.456a4.17 4.17 0 0 0-2.83-.962"/><path fill="#b179f1" d="M74.023.325a6.25 6.25 0 0 0-4.432 1.148A3.667 3.667 0 0 1 75 4.699v90.625a3.667 3.667 0 0 1-6.25 2.593 6.25 6.25 0 0 0 7.105 1.209l20.604-9.906A6.25 6.25 0 0 0 100 83.584V16.42a6.25 6.25 0 0 0-3.541-5.637L75.855.875a6.3 6.3 0 0 0-1.832-.55m-4.432 1.148q-.464.246-.841.611.395-.34.84-.611"/><path fill="url(#b)" fill-rule="evenodd" d="M73.55.271a6.3 6.3 0 0 0-2.363.302 6.25 6.25 0 0 0-2.437 1.511l-33.208 36.73-19.397-15.897-1.697-1.457a4.17 4.17 0 0 0-3.76-.866q-.286.063-.553.188l-7.573 3.177A4.16 4.16 0 0 0 0 27.469v45.063a4.16 4.16 0 0 0 2.563 3.51l7.572 3.125q.266.123.553.187a4.17 4.17 0 0 0 3.76-.863l1.697-1.407 19.397-15.895L68.75 97.917a6.25 6.25 0 0 0 3.01 1.668 6.25 6.25 0 0 0 4.095-.46l20.604-9.906A6.25 6.25 0 0 0 100 83.584V16.418a6.25 6.25 0 0 0-3.541-5.636L75.855.875A6.3 6.3 0 0 0 73.55.27M75 28.834v42.333L49.177 50zm-62.5 6.865L25.427 50 12.5 64.304z" clip-rule="evenodd" opacity=".25"/></g><defs><linearGradient id="b" x1="37.5" x2="37.5" y1="0" y2="74.609" gradientUnits="userSpaceOnUse"><stop stop-color="#fff"/><stop offset="1" stop-color="#fff" stop-opacity="0"/></linearGradient><clipPath id="a"><path fill="#fff" d="M0 0h100v100H0z"/></clipPath></defs></g></svg>