<svg xmlns="http://www.w3.org/2000/svg" fill="none" viewBox="0 0 512 512"><g transform="translate(30.72 30.72) scale(4.506)"><g clip-path="url(#a)"><path fill="url(#b)" d="M48.26 2.273a6.113 6.113 0 0 0-1.836 8.47c10.107 15.655 12.493 27.462 11.459 37.81-4.184 19.816-13.278 23.835-21.228 23.835-7.761 0-5.682-12.77.152-16.508 3.482-2.175 7.94-3.588 11.365-3.588 3.39 0 6.14-2.74 6.14-6.122 0-3.384-2.75-6.125-6.14-6.125-3.998 0-7.922.843-11.581 2.27.748-3.527 1.023-7.341.054-11.395-1.468-6.158-5.69-12.036-13.03-17.736a6.14 6.14 0 0 0-4.532-1.249 6.14 6.14 0 0 0-4.09 2.313 6.113 6.113 0 0 0 1.078 8.594c5.978 4.646 7.953 8.082 8.627 10.91.677 2.83.134 5.863-1.224 10.035-1.733 5.618-3.744 10.635-4.626 15.447-.434 2.37-.47 4.944-.583 7.004-4.306-4.195-5.99-9.734-5.99-17.83 0-3.382-2.75-6.126-6.141-6.123s-6.137 2.74-6.137 6.122c0 11.056 3.232 21.576 11.899 28.595 7.843 7.47 27.789 4.709 27.789 16.708 0 3.385 4.957 5.033 8.346 5.033 3.48 0 7.856-2.326 7.856-5.033 0-13.614 14.346-21.886 37.96-21.85a6.13 6.13 0 0 0 6.15-6.116c.006-3.385-2.737-6.13-6.131-6.137-1.614 0-3.19.055-4.74.146 2.64-6.21 3.813-13.046 3.568-20.428-.11-3.381-2.948-6.034-6.338-5.923-3.394.112-6.052 2.945-5.939 6.326.32 9.668-.043 18.3-7.245 22.854-2.047 1.291-4.431 2.414-6.689 2.414 1.755-4.766 3.079-9.802 3.619-15.225.348-3.464.385-7.578-.012-10.77-.61-4.95-1.352-10.565.528-14.795 1.688-3.64 5.469-5.166 11.023-5.166 3.387-.003 6.134-2.744 6.134-6.122.002-3.384-2.744-6.128-6.134-6.131-8.253 0-14.508 4.344-18.055 9.589-1.851-3.958-4.11-8.04-6.838-12.266a6.17 6.17 0 0 0-6.256-2.712 6.2 6.2 0 0 0-2.232.875"/></g><defs><linearGradient id="b" x1="-.003" x2="96.665" y1="1.302" y2="94.573" gradientUnits="userSpaceOnUse"><stop stop-color="#62a0ea"/><stop offset="1" stop-color="#1a5fb4"/></linearGradient><clipPath id="a"><path fill="#fff" d="M0 0h100v100H0z"/></clipPath></defs></g></svg>