<svg xmlns="http://www.w3.org/2000/svg" fill="none" viewBox="0 0 512 512"><g transform="translate(30.72 30.72) scale(4.506)"><g clip-path="url(#a)"><path fill="#f0eb18" d="m9.093 75.083.003 18.555A6.36 6.36 0 0 0 15.459 100h17.979a6.37 6.37 0 0 0 4.832-2.221l51.107-59.625a6.37 6.37 0 0 0 1.531-4.141V15.458a6.364 6.364 0 0 0-6.362-6.364H66.563a6.37 6.37 0 0 0-4.832 2.222L10.625 70.941a6.37 6.37 0 0 0-1.531 4.142"/><path fill="url(#b)" d="M9.093 77.311v16.325a6.364 6.364 0 0 0 6.362 6.362h20.457q.456 0 .9-.065l57.723-8.242A6.36 6.36 0 0 0 100 85.386V60.901a6.36 6.36 0 0 0-6.366-6.362l-28.966.007c-.684 0-1.364.107-2.013.324L13.443 71.277a6.375 6.375 0 0 0-4.35 6.034"/><path fill="url(#c)" d="M.003 6.364v53.074a6.37 6.37 0 0 0 3.854 5.849l58.577 25.105a6.4 6.4 0 0 0 2.508.513h28.692A6.364 6.364 0 0 0 100 84.543V56.474c0-1.26-.374-2.49-1.072-3.533L65.487 2.834A6.38 6.38 0 0 0 60.194.002H6.364a6.36 6.36 0 0 0-6.36 6.362"/><path fill="#000" d="M81.249 18.75H18.75v62.498h62.498z"/><path fill="#fff" d="M33.184 43.688 29.4 26.574h-4.738l5.66 23.444h5.191l4.002-17.03 3.952 17.03h5.207l5.694-23.444h-4.639l-3.667 17.114-4.22-17.114H37.22zM59.722 49.5q1.976.921 4.52.922 2.548 0 4.523-.939 1.975-.937 3.064-2.578 1.106-1.659 1.106-3.735 0-1.693-.754-3.115a6.8 6.8 0 0 0-2.11-2.412 7.7 7.7 0 0 0-3.064-1.339l-3.986-.871q-1.088-.265-1.725-.904-.62-.637-.62-1.608 0-.852.453-1.49.452-.653 1.255-1.004.82-.367 1.892-.369 1.071 0 1.893.384.836.369 1.289 1.055.45.67.451 1.525h4.572q-.017-2.008-1.072-3.55-1.04-1.56-2.914-2.428c-1.25-.58-2.695-.871-4.27-.871q-2.36 0-4.22.904-1.857.887-2.897 2.494-1.037 1.593-1.037 3.6 0 1.659.686 2.982a6.36 6.36 0 0 0 1.926 2.227q1.24.887 2.914 1.256l4.136.921q1.19.286 1.859 1.022.686.738.686 1.86a2.7 2.7 0 0 1-.502 1.606q-.486.705-1.39 1.106c-.592.258-1.25.384-2.077.384q-1.239 0-2.193-.435t-1.49-1.205q-.535-.77-.535-1.792h-4.589q.032 2.16 1.139 3.818 1.121 1.657 3.08 2.58M26.551 68.75h25v4.687h-25z"/></g><defs><linearGradient id="b" x1="11.91" x2="95.7" y1="101.117" y2="62.27" gradientUnits="userSpaceOnUse"><stop offset=".22" stop-color="#f0eb18"/><stop offset=".59" stop-color="#00c4f4"/></linearGradient><linearGradient id="c" x1="93.779" x2="2.054" y1="93.398" y2="1.675" gradientUnits="userSpaceOnUse"><stop offset=".19" stop-color="#00c4f4"/><stop offset=".83" stop-color="#007dfe"/></linearGradient><clipPath id="a"><path fill="#fff" d="M0 0h100v100H0z"/></clipPath></defs></g></svg>