<svg xmlns="http://www.w3.org/2000/svg" fill="none" viewBox="0 0 512 512"><g transform="translate(-18.254 9.171) scale(5.015)"><path fill="url(#a)" d="M27.89 10.78h44.14c9.454 0 17.11 7.657 17.11 17.11v44.14c0 9.454-7.656 17.11-17.11 17.11H27.89c-9.453 0-17.11-7.656-17.11-17.11V27.89c0-9.453 7.657-17.11 17.11-17.11"/><path fill="#fff" d="M70.703 15H29.22c-7.89 0-14.297 6.407-14.297 14.297v41.485c0 7.89 6.406 14.297 14.297 14.297h41.484c7.89 0 14.297-6.407 14.297-14.297V29.219c0-7.89-6.406-14.218-14.297-14.218m13.125 55.938A12.937 12.937 0 0 1 70.86 83.907H29.063c-7.11 0-12.97-5.781-12.97-12.969V29.063a12.937 12.937 0 0 1 12.97-12.969h41.875c7.109 0 12.968 5.781 12.968 12.969v41.875z"/><path fill="#69c5f3" d="M50.078 17.812c-17.656 0-32.031 14.375-32.031 32.031s14.375 32.031 32.031 32.031c17.734 0 32.031-14.374 32.031-32.03 0-17.657-14.375-32.032-32.03-32.032m0 63.594c-17.422 0-31.562-14.14-31.562-31.563s14.14-31.562 31.562-31.562 31.563 14.14 31.563 31.562S67.5 81.406 50.078 81.406"/><path fill="#68c5f4" d="M50.078 24.376c-14.14 0-25.547 11.406-25.547 25.546 0 14.141 11.407 25.47 25.547 25.47s25.547-11.407 25.547-25.548-11.484-25.469-25.547-25.469m0 50.468c-13.828 0-25-11.172-25-25s11.172-25 25-25 25 11.172 25 25-11.25 25-25 25"/><path fill="#fff" d="M25.625 55.703h48.75a3.584 3.584 0 0 1 3.594 3.593 3.584 3.584 0 0 1-3.594 3.594h-48.75a3.584 3.584 0 0 1-3.593-3.594c-.079-1.953 1.562-3.593 3.593-3.593"/><path fill="#0a93e9" d="M25.469 56.407h48.906c1.563 0 2.89 1.25 2.89 2.89v.079c0 1.562-1.25 2.89-2.89 2.89H25.469a2.884 2.884 0 0 1-2.89-2.89v-.157c.077-1.562 1.327-2.812 2.89-2.812"/><path fill="#1694ea" d="M24.297 61.953h51.328l.39-.234H23.907z"/><path fill="#319dec" d="M23.125 61.015h53.594l.156-.234H22.969z"/><path fill="#65b1ee" d="M22.656 59.53h54.61v-.312h-54.61z"/><path fill="#8ec6f3" d="M23.203 57.579h53.594l.078.156.078.156H23.047l.078-.156z"/><path fill="#95caf3" d="M24.375 56.64h51.25l.234.079.235.156H23.906l.235-.156z"/><path fill="url(#b)" d="M72.969 56.407h-.39s1.327.937 1.327 3.047c0 1.953-1.328 2.812-1.328 2.812h.39s1.329-.625 1.329-2.812c0-2.344-1.328-3.047-1.328-3.047"/><path fill="url(#c)" d="M69.219 56.407h-.39S70 57.5 70 59.454c0 1.718-1.172 2.812-1.172 2.812h.39s1.173-.86 1.173-2.812c-.079-2.11-1.172-3.047-1.172-3.047"/><path fill="url(#d)" d="M49.766 56.407h.39v5.86h-.39z"/><path fill="url(#e)" d="M45.938 56.407h.39s-.156 1.484-.156 3.047c0 1.406.156 2.812.156 2.812h-.39s-.157-1.406-.157-2.812c0-1.563.157-3.047.157-3.047"/><path fill="url(#f)" d="M42.188 56.407h.39s-.39 1.484-.39 3.047c0 1.406.39 2.812.39 2.812h-.39s-.391-1.406-.391-2.812c0-1.563.39-3.047.39-3.047"/><path fill="url(#g)" d="M38.36 56.407h.39s-.547 1.484-.547 3.047c0 1.406.547 2.812.547 2.812h-.39s-.547-1.406-.547-2.812c0-1.563.546-3.047.546-3.047"/><path fill="url(#h)" d="M34.532 56.407h.39s-.78 1.25-.78 3.047c0 1.562.78 2.812.78 2.812h-.39s-.781-1.25-.781-2.812c0-1.797.78-3.047.78-3.047"/><path fill="url(#i)" d="M30.703 56.407h.39s-1.172 1.094-1.172 3.047c0 1.718 1.172 2.812 1.172 2.812h-.39s-1.172-.86-1.172-2.812c.078-2.11 1.172-3.047 1.172-3.047"/><path fill="url(#j)" d="M26.953 56.407h.39s-1.328.937-1.328 3.047c0 1.953 1.328 2.812 1.328 2.812h-.39s-1.328-.625-1.328-2.812c0-2.344 1.328-3.047 1.328-3.047"/><path fill="#fff" d="m48.437 26.64 24.375 42.188c1.016 1.719.391 3.906-1.328 4.922-1.718 1.016-3.906.39-4.922-1.328L42.187 30.234c-1.015-1.719-.39-3.906 1.329-4.922s3.906-.39 4.921 1.328"/><path fill="url(#k)" d="m47.813 26.953 24.453 42.343c.781 1.328.312 3.125-1.016 3.906l-.156.079c-1.328.78-3.125.312-3.906-1.016L42.735 29.843c-.782-1.328-.313-3.125 1.015-3.906l.078-.078c1.407-.782 3.203-.313 3.985 1.093"/><path fill="url(#l)" d="M42.344 28.67 67.97 73.125l.157.078.156.078.156.078-26.094-45.156z"/><path fill="url(#m)" d="m42.578 27.188 26.797 46.406h.313l-26.954-46.64-.078.155z"/><path fill="url(#n)" d="M43.672 26.015 71.016 73.28l.234-.156-27.344-47.266z"/><path fill="url(#o)" d="m45.625 25.546 26.719 46.328-.078.156-.079.156-26.953-46.718h.157z"/><path fill="url(#p)" d="M47.031 26.016 72.656 70.39v.468L46.562 25.781l.157.078.156.078z"/><path fill="#3c98ea" d="m71.484 67.89-.156-.312s-.156 1.562-1.875 2.656c-1.64 1.016-3.125.312-3.125.312l.156.313s1.25.86 3.125-.313c1.875-1.093 1.875-2.656 1.875-2.656m-1.953-3.281-.156-.313s-.39 1.563-2.031 2.5c-1.485.938-2.969.47-2.969.47l.156.312s1.328.546 3.047-.47c1.719-1.015 1.953-2.5 1.953-2.5"/><path fill="#4ca4ed" d="m67.656 61.327-.156-.312s-.703 1.328-2.187 2.187c-1.329.781-2.813.781-2.813.781l.156.313s1.407 0 2.813-.781c1.484-.86 2.187-2.188 2.187-2.188"/><path fill="#4da7ee" d="m65.781 58.048-.156-.313s-1.016 1.328-2.344 2.032c-1.25.703-2.734.937-2.734.937l.156.313s1.484-.235 2.734-.938 2.344-2.031 2.344-2.031"/><path fill="url(#q)" d="m58.047 44.765.156.313s-1.328.625-2.656 1.328c-1.25.703-2.344 1.64-2.344 1.64l-.156-.312s1.172-.938 2.344-1.64c1.328-.704 2.656-1.329 2.656-1.329"/><path fill="url(#r)" d="m56.172 41.483.156.313s-1.484.469-2.734 1.25c-1.25.703-2.266 1.797-2.266 1.797l-.156-.313s1.016-1.093 2.266-1.797c1.25-.859 2.734-1.25 2.734-1.25"/><path fill="#9dd4f7" d="M52.656 38.906c1.016-.313 1.797-.469 1.797-.469l-.157-.312s-.703.078-1.484.39c-.469.156-.547.547-.156.39"/><path fill="url(#s)" d="m50.47 31.64.156.313s-1.485-.39-3.204.547c-1.484.938-1.796 2.422-1.796 2.422l-.157-.312s.157-1.328 1.797-2.344c1.719-1.094 3.203-.625 3.203-.625"/><path fill="url(#t)" d="m48.593 28.282.234.312s-1.562-.625-3.359.39c-1.719 1.094-1.719 2.579-1.719 2.579l-.234-.313s-.156-1.328 1.719-2.5c1.953-1.172 3.359-.468 3.359-.468"/><path fill="#fff" d="M43.36 55.703C50.155 43.984 57.968 30.39 57.968 30.39c1.015-1.718.39-3.906-1.328-4.921-1.72-1.016-3.907-.391-4.922 1.328 0 0-9.532 16.562-16.72 28.906zm-4.22 7.188a650 650 0 0 0-5.546 9.687c-1.016 1.719-3.204 2.344-4.922 1.328-1.719-1.016-2.344-3.203-1.328-4.922 0 0 1.328-2.422 3.437-6.015 2.656-.078 7.5-.078 8.36-.078"/><path fill="url(#u)" d="M42.5 55.703A17433 17433 0 0 0 57.344 30c.781-1.328.312-3.125-1.016-3.906l-.078-.078c-1.328-.781-3.125-.313-3.906 1.015 0 0-9.375 16.25-16.563 28.672zm-4.14 7.188c-3.125 5.469-5.391 9.375-5.391 9.375-.781 1.328-2.5 1.797-3.906 1.015h-.157c-1.328-.78-1.796-2.5-1.015-3.906 0 0 1.484-2.578 3.75-6.484z"/><path fill="url(#v)" d="m42.266 55.703 15.547-26.875v-.47S49.219 43.282 42.03 55.704zm-4.22 7.187L32.11 73.203l-.234.156-.234.078s2.656-4.61 6.093-10.547z"/><path fill="url(#w)" d="M41.094 55.702 57.5 27.342l-.078-.155-.078-.157s-8.985 15.547-16.485 28.594zm-4.14 7.188-6.25 10.78h-.313s2.656-4.609 6.25-10.858a.8.8 0 0 0 .312.078"/><path fill="url(#x)" d="M39.375 55.703c7.734-13.36 17.031-29.532 17.031-29.532l-.234-.156-17.188 29.688zm-4.219 7.265a2363 2363 0 0 1-6.015 10.469l-.235-.156s2.5-4.375 5.938-10.313c.156-.078.078-.078.312 0"/><path fill="url(#y)" d="M37.5 55.703c7.734-13.36 17.344-30.078 17.344-30.078h-.313s-9.61 16.64-17.343 30.078zm-4.531 7.187c-3.125 5.39-5.235 9.063-5.235 9.063l.078.156.079.156s2.265-3.906 5.468-9.375z"/><path fill="url(#z)" d="m36.329 55.704 17.187-29.766-.156.078-.156.078-.078.078s-9.532 16.485-17.032 29.532zm-4.141 7.187a1824 1824 0 0 1-4.688 8.125v-.625s1.72-2.969 4.375-7.578c.157.078.157.078.313.078"/><path fill="url(#A)" d="m51.562 28.282-.156.312s1.406-.703 3.281.313c1.719.937 1.797 2.578 1.797 2.578l.156-.313s.156-1.484-1.797-2.578-3.281-.312-3.281-.312"/><path fill="url(#B)" d="m49.688 31.641-.157.313s1.563-.47 3.203.468c1.563.86 1.875 2.344 1.875 2.344l.157-.312s-.157-1.407-1.875-2.344c-1.797-1.016-3.203-.469-3.203-.469"/><path fill="url(#C)" d="m47.734 34.922-.156.313s1.406-.078 2.969.86a5.94 5.94 0 0 1 2.11 2.03l.156-.312s-.704-1.25-2.11-2.031c-1.484-.86-2.969-.86-2.969-.86"/><path fill="url(#D)" d="m45.86 38.281-.157.313s1.563.234 2.89 1.015c1.25.703 2.188 1.875 2.188 1.875l.157-.312S50 40 48.75 39.297c-1.328-.781-2.89-1.016-2.89-1.016"/><path fill="url(#E)" d="m43.906 41.563-.156.313s1.484.39 2.813 1.171c1.25.704 2.265 1.72 2.265 1.72l.156-.313s-1.015-1.016-2.265-1.72c-1.25-.702-2.813-1.171-2.813-1.171"/><path fill="url(#F)" d="m42.031 44.845-.234.312s1.406.547 2.734 1.328a21 21 0 0 1 2.344 1.563l.156-.313s-1.093-.859-2.343-1.562-2.657-1.328-2.657-1.328"/><path fill="url(#G)" d="m39.922 48.516.156-.312 5.078 2.89-.156.313z"/><path fill="url(#H)" d="m38.047 51.875.157-.312s1.25.937 2.578 1.64c1.25.703 2.5 1.25 2.5 1.25l-.156.234s-1.329-.546-2.579-1.25a23 23 0 0 1-2.5-1.562"/><path fill="#73b9f1" d="M36.796 55.704c-.39-.313-.625-.547-.625-.547l.157-.313s.468.39 1.093.86z"/><path fill="url(#I)" d="M33.75 62.89c.313.235.625.47 1.016.704 1.406.781 2.812.703 2.812.703l-.156.312s-1.406.079-2.813-.703a6.5 6.5 0 0 1-1.328-1.015z"/><path fill="url(#J)" d="m30.39 65.08.157-.313s.39 1.562 2.11 2.5c1.562.859 2.968.39 2.968.39l-.156.313s-1.25.547-2.969-.39c-1.797-1.016-2.11-2.5-2.11-2.5"/><path fill="url(#K)" d="m28.438 68.438.156-.312s.156 1.64 2.031 2.656c1.719.937 3.047.234 3.047.234l-.234.313s-1.172.859-3.047-.235c-1.953-1.093-1.953-2.656-1.953-2.656"/><path fill="url(#L)" d="m53.75 89.22 33.438-70.235L78.751 15 43.907 88.047s1.094.547 2.5 1.172z"/><path fill="url(#M)" d="m73.516 10.78 15.625 7.423v22.422c-5.391-2.579-41.485-19.766-41.485-19.766s2.5-5.235 4.844-10.078z"/><path fill="url(#N)" d="M34.765 86.094c-.234.469-.625 1.016-.547 1.875.078 3.203 5.313 6.172 8.36 6.172 2.109 0 2.812-.86 3.593-2.422s-10.547-7.5-11.406-5.625"/><path fill="url(#O)" d="M70.781 19.608s8.047 1.953 8.672 2.5-1.016 3.672-1.328 4.141C75.547 29.374 67.5 46.639 67.5 46.639l-7.422-4.218s6.64-12.344 8.984-16.719c1.485-2.969 1.72-6.094 1.72-6.094"/><path fill="url(#P)" d="M89.375 15.547c1.406 1.015 3.281.781 4.766.547 1.015-.157-.547 1.328-2.266 4.765-1.719 3.438-1.64 3.672-1.875 3.438-.234-.235-7.969-4.61-7.734-5 .312-.39 1.562-8.907 2.187-8.672 2.266.547 2.656 3.281 4.922 4.922"/><path fill="url(#Q)" d="M77.344 25.156c.547-.86 3.047-6.172 7.031-6.172 1.797 0 5.235 4.531 5.547 5.156.235.547-.547 2.735-.937 1.719-.469-1.172-2.422-3.672-4.531-3.672-2.11 0-5 2.422-5.704 3.281-.703.782-1.953.547-1.406-.312"/><path fill="url(#R)" d="M77.188 24.843c.39-.625 2.187-3.36 3.046-4.218.86-.86 3.047-3.125 4.922-3.438 1.875-.312 3.828 3.516 3.203 4.297-.468.547-1.25-.078-2.187-.86-.938-.703-1.563-2.109-4.531.157-1.016.781-2.032 1.406-4.375 4.765-.625.86-.47-.078-.078-.703"/><path fill="url(#S)" d="M67.5 47.657c.312-.625.703-1.563-.157-2.266-.937-.703-5.312-3.047-6.094-3.203-.78-.157-1.406 0-1.718.547s-24.297 41.64-24.766 42.812-.547 2.031.156 2.266 8.75 4.062 9.532 4.922c.78.859 1.171-.078 1.484-.547 1.484-1.875 21.172-43.906 21.563-44.531"/><path fill="url(#T)" d="M77.735 24.688c.39-.547 1.328-2.11 2.5-3.516.781-.938 5-2.969 5.937-6.25.547-1.797-.312-3.594-1.484-4.375-3.984-2.422-10.86-6.25-20.937-6.25-6.797 0-9.688 2.266-9.688 2.266h3.438l11.953 4.687 1.484 6.25s.156 2.11-.547 4.531c-.469 1.953-.625 3.125-1.328 5.078.547.235 1.797-.625 3.203-.234 1.25.313 2.031 2.031 2.89 1.016 1.485-1.953 1.954-2.344 2.579-3.203"/><path fill="url(#U)" d="M70.703 19.844c-.625-5.781-2.031-11.25-16.719-11.172.938-.937 3.203-1.875 3.203-1.875l-3.203-.234s.47-.39 1.407-.469c8.593-.703 16.25 1.094 15.703 12.266-.078 1.797-.235 2.578-.39 1.484"/><path fill="url(#V)" d="M53.984 8.672c1.016-.39 2.422-.625 5.078-.469 3.282.157 7.422 1.407 9.141 2.97.86.78.781.155-.156-.86-2.422-2.813-6.094-3.438-10.86-3.516-.546-.078-2.343.938-3.203 1.875"/><path fill="url(#W)" d="m94.297 16.093 4.297 2.187s-1.64 2.188-2.969 4.688c-1.406 2.656-2.344 5.547-2.344 5.547l-4.14-2.5s1.015-2.813 2.5-5.547c1.171-2.266 2.656-4.375 2.656-4.375"/><path fill="#bfc0d0" d="M98.594 18.282c.313.156-.703 2.578-2.187 5.39-1.485 2.813-2.89 5-3.125 4.844-.313-.156.703-2.578 2.187-5.39 1.407-2.813 2.813-5 3.125-4.844"/><defs><linearGradient id="a" x1="49.958" x2="49.958" y1="89.191" y2="10.768" gradientUnits="userSpaceOnUse"><stop stop-color="#1578e4"/><stop offset="1" stop-color="#00c3f2"/></linearGradient><linearGradient id="b" x1="73.466" x2="73.466" y1="62.24" y2="56.394" gradientUnits="userSpaceOnUse"><stop stop-color="#1492e7"/><stop offset="1" stop-color="#dbedfb"/></linearGradient><linearGradient id="c" x1="69.564" x2="69.564" y1="62.24" y2="56.394" gradientUnits="userSpaceOnUse"><stop stop-color="#1492e7"/><stop offset="1" stop-color="#dbedfb"/></linearGradient><linearGradient id="d" x1="49.959" x2="49.959" y1="62.24" y2="56.394" gradientUnits="userSpaceOnUse"><stop stop-color="#1492e7"/><stop offset="1" stop-color="#dbedfb"/></linearGradient><linearGradient id="e" x1="46.056" x2="46.056" y1="62.24" y2="56.394" gradientUnits="userSpaceOnUse"><stop stop-color="#1492e7"/><stop offset="1" stop-color="#dbedfb"/></linearGradient><linearGradient id="f" x1="42.155" x2="42.155" y1="62.24" y2="56.394" gradientUnits="userSpaceOnUse"><stop stop-color="#1492e7"/><stop offset="1" stop-color="#dbedfb"/></linearGradient><linearGradient id="g" x1="38.252" x2="38.252" y1="62.24" y2="56.394" gradientUnits="userSpaceOnUse"><stop stop-color="#1492e7"/><stop offset="1" stop-color="#dbedfb"/></linearGradient><linearGradient id="h" x1="34.35" x2="34.35" y1="62.24" y2="56.394" gradientUnits="userSpaceOnUse"><stop stop-color="#1492e7"/><stop offset="1" stop-color="#dbedfb"/></linearGradient><linearGradient id="i" x1="30.353" x2="30.353" y1="62.24" y2="56.394" gradientUnits="userSpaceOnUse"><stop stop-color="#1492e7"/><stop offset="1" stop-color="#dbedfb"/></linearGradient><linearGradient id="j" x1="26.45" x2="26.45" y1="62.24" y2="56.394" gradientUnits="userSpaceOnUse"><stop stop-color="#1492e7"/><stop offset="1" stop-color="#dbedfb"/></linearGradient><linearGradient id="k" x1="57.485" x2="57.485" y1="73.632" y2="25.501" gradientUnits="userSpaceOnUse"><stop stop-color="#1285e7"/><stop offset="1" stop-color="#00b5ef"/></linearGradient><linearGradient id="l" x1="68.332" x2="42.251" y1="73.419" y2="28.246" gradientUnits="userSpaceOnUse"><stop stop-color="#2b90e7"/><stop offset="1" stop-color="#00b6ef"/></linearGradient><linearGradient id="m" x1="69.588" x2="42.643" y1="73.693" y2="27.023" gradientUnits="userSpaceOnUse"><stop stop-color="#3795ea"/><stop offset="1" stop-color="#49c4f2"/></linearGradient><linearGradient id="n" x1="71.114" x2="43.806" y1="73.23" y2="25.931" gradientUnits="userSpaceOnUse"><stop stop-color="#3696ea"/><stop offset="1" stop-color="#90d9f6"/></linearGradient><linearGradient id="o" x1="72.33" x2="45.363" y1="72.133" y2="25.426" gradientUnits="userSpaceOnUse"><stop stop-color="#3097ea"/><stop offset="1" stop-color="#b5e5f9"/></linearGradient><linearGradient id="p" x1="72.721" x2="46.673" y1="70.848" y2="25.731" gradientUnits="userSpaceOnUse"><stop stop-color="#3a98ea"/><stop offset="1" stop-color="#bce7fa"/></linearGradient><linearGradient id="q" x1="53.11" x2="58.169" y1="47.832" y2="44.911" gradientUnits="userSpaceOnUse"><stop stop-color="#00a4ec"/><stop offset="1" stop-color="#b9dff6"/></linearGradient><linearGradient id="r" x1="51.162" x2="56.22" y1="44.457" y2="41.536" gradientUnits="userSpaceOnUse"><stop stop-color="#00a4ec"/><stop offset="1" stop-color="#b9dff6"/></linearGradient><linearGradient id="s" x1="45.258" x2="50.285" y1="34.234" y2="31.332" gradientUnits="userSpaceOnUse"><stop stop-color="#00b4ef"/><stop offset="1" stop-color="#c3e9fa"/></linearGradient><linearGradient id="t" x1="43.299" x2="48.359" y1="30.842" y2="27.921" gradientUnits="userSpaceOnUse"><stop stop-color="#00b4ef"/><stop offset="1" stop-color="#c3e9fa"/></linearGradient><linearGradient id="u" x1="42.63" x2="42.63" y1="73.751" y2="25.62" gradientUnits="userSpaceOnUse"><stop stop-color="#1285e7"/><stop offset="1" stop-color="#00b5ef"/></linearGradient><linearGradient id="v" x1="31.782" x2="57.862" y1="73.539" y2="28.367" gradientUnits="userSpaceOnUse"><stop stop-color="#3194e9"/><stop offset="1" stop-color="#71cff4"/></linearGradient><linearGradient id="w" x1="30.518" x2="57.466" y1="73.813" y2="27.137" gradientUnits="userSpaceOnUse"><stop stop-color="#5aa6ec"/><stop offset="1" stop-color="#a2def8"/></linearGradient><linearGradient id="x" x1="28.998" x2="56.306" y1="73.347" y2="26.049" gradientUnits="userSpaceOnUse"><stop stop-color="#66abee"/><stop offset="1" stop-color="#bee8fa"/></linearGradient><linearGradient id="y" x1="27.788" x2="54.754" y1="72.251" y2="25.544" gradientUnits="userSpaceOnUse"><stop stop-color="#7bb6f0"/><stop offset="1" stop-color="#b1e3f9"/></linearGradient><linearGradient id="z" x1="27.388" x2="53.45" y1="70.994" y2="25.854" gradientUnits="userSpaceOnUse"><stop stop-color="#5aa6ec"/><stop offset="1" stop-color="#afe3f9"/></linearGradient><linearGradient id="A" x1="51.845" x2="56.904" y1="27.882" y2="30.803" gradientUnits="userSpaceOnUse"><stop stop-color="#c1e7fa"/><stop offset="1" stop-color="#89d4f5"/></linearGradient><linearGradient id="B" x1="49.888" x2="54.947" y1="31.274" y2="34.194" gradientUnits="userSpaceOnUse"><stop stop-color="#c1e7fa"/><stop offset="1" stop-color="#89d4f5"/></linearGradient><linearGradient id="C" x1="47.87" x2="52.928" y1="34.77" y2="37.69" gradientUnits="userSpaceOnUse"><stop stop-color="#c1e7fa"/><stop offset="1" stop-color="#89d4f5"/></linearGradient><linearGradient id="D" x1="45.907" x2="50.966" y1="38.168" y2="41.089" gradientUnits="userSpaceOnUse"><stop stop-color="#b0dff8"/><stop offset="1" stop-color="#52bdf2"/></linearGradient><linearGradient id="E" x1="43.945" x2="49.005" y1="41.566" y2="44.487" gradientUnits="userSpaceOnUse"><stop stop-color="#b4def8"/><stop offset="1" stop-color="#4eb5f0"/></linearGradient><linearGradient id="F" x1="41.984" x2="47.043" y1="44.964" y2="47.885" gradientUnits="userSpaceOnUse"><stop stop-color="#b4def8"/><stop offset="1" stop-color="#4eb5f0"/></linearGradient><linearGradient id="G" x1="40.031" x2="45.088" y1="48.349" y2="51.269" gradientUnits="userSpaceOnUse"><stop stop-color="#b5ddf8"/><stop offset="1" stop-color="#46aeee"/></linearGradient><linearGradient id="H" x1="38.075" x2="43.134" y1="51.734" y2="54.656" gradientUnits="userSpaceOnUse"><stop stop-color="#96cef4"/><stop offset="1" stop-color="#46aaee"/></linearGradient><linearGradient id="I" x1="33.374" x2="37.251" y1="62.605" y2="64.844" gradientUnits="userSpaceOnUse"><stop stop-color="#8fc1f2"/><stop offset="1" stop-color="#3193ea"/></linearGradient><linearGradient id="J" x1="30.183" x2="35.242" y1="65.405" y2="68.326" gradientUnits="userSpaceOnUse"><stop stop-color="#8fc1f2"/><stop offset="1" stop-color="#3193ea"/></linearGradient><linearGradient id="K" x1="28.222" x2="33.281" y1="68.8" y2="71.721" gradientUnits="userSpaceOnUse"><stop stop-color="#8fc1f2"/><stop offset="1" stop-color="#3193ea"/></linearGradient><linearGradient id="L" x1="59.94" x2="69.672" y1="50.729" y2="55.475" gradientUnits="userSpaceOnUse"><stop offset=".001"/><stop offset="1" stop-opacity="0"/></linearGradient><linearGradient id="O" x1="66.217" x2="73.845" y1="30.604" y2="34.49" gradientUnits="userSpaceOnUse"><stop stop-color="#344351"/><stop offset=".1" stop-color="#9697a0"/><stop offset=".181" stop-color="#8b8c95"/><stop offset=".351" stop-color="#787a83"/><stop offset=".47" stop-color="#71747d"/><stop offset=".591" stop-color="#777982"/><stop offset=".749" stop-color="#87898f"/><stop offset=".8" stop-color="#8e8f94"/><stop offset=".849" stop-color="#3d3b42"/><stop offset=".9" stop-color="#606e84"/></linearGradient><linearGradient id="P" x1="92.097" x2="83.487" y1="22.857" y2="11.222" gradientUnits="userSpaceOnUse"><stop offset=".27" stop-color="#262b33"/><stop offset=".45" stop-color="#74747e"/><stop offset=".54" stop-color="#b0b0bc"/><stop offset=".73" stop-color="#74747e"/></linearGradient><linearGradient id="Q" x1="76.986" x2="89.7" y1="23.768" y2="22.126" gradientUnits="userSpaceOnUse"><stop offset=".14" stop-color="#606e84"/><stop offset=".4" stop-color="#9899a5"/><stop offset=".73" stop-color="#475768"/><stop offset=".92" stop-color="#262b33"/></linearGradient><linearGradient id="R" x1="82.913" x2="81.679" y1="24.849" y2="17.854" gradientUnits="userSpaceOnUse"><stop stop-color="#101215" stop-opacity=".1"/><stop offset=".46" stop-color="#101215" stop-opacity=".7"/><stop offset=".7" stop-color="#474951"/><stop offset=".91" stop-color="#7b7d88"/></linearGradient><linearGradient id="S" x1="45.414" x2="57.216" y1="63.845" y2="69.652" gradientUnits="userSpaceOnUse"><stop offset=".115" stop-color="#2c3952"/><stop offset=".374" stop-color="#3d414e"/><stop offset=".55" stop-color="#474a54"/><stop offset=".754" stop-color="#4e5057"/><stop offset=".892" stop-color="#323945"/><stop offset="1" stop-color="#143052"/></linearGradient><linearGradient id="T" x1="63.679" x2="72.805" y1="24.749" y2="4.724" gradientUnits="userSpaceOnUse"><stop offset=".118" stop-color="#6d7078" stop-opacity="0"/><stop offset=".2" stop-color="#6d7078" stop-opacity=".7"/><stop offset=".34" stop-color="#35363a"/><stop offset=".374" stop-color="#1d1f22"/><stop offset=".4" stop-color="#101215"/><stop offset=".5" stop-color="#16171a"/><stop offset=".56" stop-color="#292a2e"/><stop offset=".688" stop-color="#4b4d51"/><stop offset=".807" stop-color="#63666b"/><stop offset=".915" stop-color="#72757b"/><stop offset="1" stop-color="#777a80"/></linearGradient><linearGradient id="U" x1="53.956" x2="71.114" y1="13.154" y2="13.154" gradientUnits="userSpaceOnUse"><stop stop-color="#4a4d56"/><stop offset="1" stop-color="#29292d"/></linearGradient><linearGradient id="V" x1="53.956" x2="68.792" y1="9.139" y2="9.139" gradientUnits="userSpaceOnUse"><stop stop-color="#767880"/><stop offset=".41" stop-color="#0c0a0b"/></linearGradient><linearGradient id="W" x1="90.884" x2="96.646" y1="27.152" y2="17.172" gradientUnits="userSpaceOnUse"><stop stop-color="#858997"/><stop offset=".23" stop-color="#244668"/><stop offset=".282" stop-color="#1a3249"/><stop offset=".4" stop-color="#040506"/><stop offset=".464" stop-color="#313236"/><stop offset=".546" stop-color="#65656e"/><stop offset=".607" stop-color="#868691"/><stop offset=".64" stop-color="#92929e"/></linearGradient><radialGradient id="M" cx="0" cy="0" r="1" gradientTransform="matrix(-5.68105 11.2926 -19.5398 -9.83122 74.406 19.632)" gradientUnits="userSpaceOnUse"><stop/><stop offset="1" stop-opacity="0"/></radialGradient><radialGradient id="N" cx="0" cy="0" r="1" gradientTransform="matrix(5.54243 2.7172 -1.54687 3.15485 40.005 89.811)" gradientUnits="userSpaceOnUse"><stop offset=".417" stop-color="#0c0c12"/><stop offset="1" stop-color="#3d4651"/></radialGradient></defs></g></svg>