<svg xmlns="http://www.w3.org/2000/svg" fill="none" viewBox="0 0 512 512"><g transform="translate(30.72 30.72) scale(4.506)"><path fill="#f15a24" d="M26.5 30.326a.9.9 0 0 0-.603.314L9.38 50.31a.89.89 0 0 0 .758 1.456.9.9 0 0 0 .604-.313l16.516-19.67a.891.891 0 0 0-.758-1.457m-12.25.498c-2.632 0-4.796 2.164-4.796 4.798s2.164 4.798 4.797 4.798c2.634 0 4.798-2.165 4.798-4.798s-2.164-4.798-4.797-4.798zm0 2.778a2 2 0 0 1 2.022 2.02 2 2 0 0 1-2.02 2.02 2 2 0 0 1-2.02-2.02 2 2 0 0 1 2.02-2.02zm8.082 8.08c-2.633 0-4.797 2.165-4.797 4.798s2.163 4.798 4.797 4.798 4.799-2.164 4.799-4.797c0-2.634-2.165-4.798-4.799-4.798m0 2.778a2 2 0 0 1 2.02 2.02 2 2 0 0 1-2.02 2.02 2 2 0 0 1-2.02-2.02 2 2 0 0 1 2.02-2.02M33.41 49.5a.89.89 0 0 0 0 1.779h11.794a.89.89 0 0 0 .629-1.517.9.9 0 0 0-.628-.261z"/><path fill="#000" d="M15.05 2.987C6.767 2.987 0 9.755 0 18.036V81.92c0 8.282 6.768 15.05 15.05 15.05h34.34a2.531 2.531 0 1 0 0-5.062H15.05a9.95 9.95 0 0 1-9.988-9.988V25.468h89.876V78.96a.55.55 0 0 1-.497.31h-3.098a.55.55 0 0 1-.395-.164.56.56 0 0 1-.164-.396v-9.36a2.5 2.5 0 0 0-2.505-2.505 2.5 2.5 0 0 0-1.771.735 2.5 2.5 0 0 0-.735 1.77l.002.029-.002.029V94.51a2.503 2.503 0 0 0 2.506 2.505 2.5 2.5 0 0 0 2.315-1.547 2.5 2.5 0 0 0 .19-.959V84.56a.56.56 0 0 1 .559-.558h3.098a.55.55 0 0 1 .497.31v10.127l.025.096c.003.207.027.416.08.618a2.48 2.48 0 0 0 1.362 1.621c.332.154.694.233 1.06.232l.01-.001h.01a2.48 2.48 0 0 0 2.296-1.534l.017-.048.022-.063q.045-.12.075-.244.099-.332.104-.677V18.036c0-8.281-6.767-15.05-15.048-15.05zm0 5.062h69.902a9.95 9.95 0 0 1 9.986 9.987v2.37H5.063v-2.37a9.95 9.95 0 0 1 9.987-9.987m42.398 58.784a2.54 2.54 0 0 0-2.348 3.514 2.54 2.54 0 0 0 2.348 1.566q.06 0 .117-.006h4.68a.314.314 0 0 1 .292.432l-7.43 18.555c-.132.33-.2.682-.2 1.037v2.276A2.794 2.794 0 0 0 57.701 97h8.708a2.605 2.605 0 0 0 2.605-2.604v-.001a2.6 2.6 0 0 0-.763-1.844 2.6 2.6 0 0 0-1.843-.763l-.06.004h-5.857a.3.3 0 0 1-.142-.036.31.31 0 0 1-.158-.234.3.3 0 0 1 .02-.144l8.567-21.362a2.313 2.313 0 0 0-2.147-3.175h-9.03zm20.463.14c-1.19 0-2.552.115-3.371.344a3.94 3.94 0 0 0-1.943 1.113q-.714.804-1.031 2.186-.317 1.341-.317 3.414 0 1.992.04 3.22.051 1.005.237 1.994c.1.435.275.85.515 1.227q.344.489.793.882.626.55 1.349.959.8.465 1.625.883.833.421 1.586.88c.474.266.913.588 1.308.96q.236.255.437.537.145.171.221.383.069.187.115.383.065.304.06.614.04.46.04 1.265.018 1.097-.119 2.186a3.1 3.1 0 0 1-.317 1.19c-.14.24-.367.42-.634.498-.264.077-1.178.115-1.575.115a3.4 3.4 0 0 1-.951-.115 1.33 1.33 0 0 1-.595-.537 4.5 4.5 0 0 1-.318-1.15 19 19 0 0 1-.08-1.915q0-.106-.01-.213h-.016a2.13 2.13 0 0 0-.718-1.31 2.148 2.148 0 0 0-3.527 1.31h-.013a2 2 0 0 0-.012.235v.07l.001.026c.007.504.014.956.014 1.183q0 2.263.318 3.682.357 1.38 1.109 2.185c.522.521 1.183.88 1.904 1.035.921.222 1.867.326 2.815.307 1.27 0 2.91-.114 3.755-.345.8-.2 1.51-.658 2.022-1.303q.793-.96 1.11-2.646.357-1.726.357-4.41 0-1.957-.118-3.145a6.9 6.9 0 0 0-.358-1.956 3.2 3.2 0 0 0-.753-1.227 6.3 6.3 0 0 0-1.15-.92q-.574-.363-1.189-.652a18 18 0 0 0-1.427-.73q-.723-.366-1.428-.767a12 12 0 0 1-1.15-.804 4 4 0 0 1-.476-.461 1.6 1.6 0 0 1-.237-.575q-.09-.436-.12-.881v-1.458q-.01-.827.079-1.65c.031-.334.126-.659.279-.958a.96.96 0 0 1 .594-.422c.238-.076.9-.115 1.27-.115q1.269 0 1.586.73c.168.306.262.647.276.996.008.28.013.642.014 1.023h.015v.015c0 .568.225 1.11.628 1.511a2.156 2.156 0 0 0 3.036 0 2.13 2.13 0 0 0 .63-1.51V73.3a13.3 13.3 0 0 0-.278-2.953q-.238-1.227-.952-1.956-.674-.766-1.902-1.074-1.19-.344-3.053-.344"/></g></svg>