<svg xmlns="http://www.w3.org/2000/svg" fill="none" viewBox="0 0 512 512"><g transform="translate(30.72 30.72) scale(4.506)"><g clip-path="url(#a)"><path fill="#e73c00" d="M29.516 0C13.234 0 0 13.256 0 29.516v40.968C0 86.766 13.234 100 29.516 100h40.968C86.766 100 100 86.766 100 70.484V50.646H40.97v18.06h40.97v1.78c0 6.316-5.138 11.455-11.455 11.455h-40.97c-6.317 0-11.455-5.139-11.455-11.455V29.515c0-6.317 5.138-11.455 11.455-11.455 6.316 0 11.454 5.138 11.454 11.455V43.17h18.062V29.516c0-6.317 5.138-11.455 11.455-11.455S81.94 23.199 81.94 29.516v13.656H100V29.516C100 13.234 86.766 0 70.484 0 62.545 0 55.316 3.159 50 8.297 44.684 3.18 37.456 0 29.516 0"/></g><defs><clipPath id="a"><path fill="#fff" d="M0 0h100v100H0z"/></clipPath></defs></g></svg>