<svg xmlns="http://www.w3.org/2000/svg" fill="none" viewBox="0 0 512 512"><g transform="translate(30.72 30.72) scale(4.506)"><g clip-path="url(#a)"><path fill="#004480" d="M89.953 55.777h2.576v-9.076c.828-.2 1.678-.296 2.53-.284 1.425 0 2.39.467 2.39 2.203v7.157h2.55v-7.23c0-3.278-1.8-4.565-4.894-4.565-1.73 0-3.885.26-5.151.748zM85.367 50c0 2.2-.495 3.607-2.787 3.607-2.294 0-2.786-1.406-2.786-3.607 0-2.2.513-3.567 2.786-3.567 2.27 0 2.787 1.379 2.787 3.567m-2.787 6.039c3.625 0 5.35-2.386 5.35-6.04 0-3.792-1.59-6.017-5.35-6.017-3.607 0-5.382 2.365-5.382 6.018 0 3.818 1.61 6.039 5.382 6.039m-13.65-4.376c0 3.3 1.8 4.355 4.306 4.355a7.6 7.6 0 0 0 2.881-.516l-.397-2.435a6.1 6.1 0 0 1-2.5.516c-1.031 0-1.709-.468-1.709-1.896v-5.035h4.17v-2.435h-4.176v-3.043H68.93zM64.337 50c0 2.2-.488 3.607-2.786 3.607S58.765 52.2 58.765 50s.518-3.567 2.786-3.567c2.27 0 2.786 1.379 2.786 3.567m-2.768 6.039c3.632 0 5.353-2.386 5.353-6.04 0-3.792-1.593-6.017-5.353-6.017-3.604 0-5.383 2.365-5.383 6.018 0 3.818 1.618 6.039 5.383 6.039m-17.46-.262h2.577v-9.076a9.8 9.8 0 0 1 2.53-.284c1.424 0 2.386.467 2.386 2.203v7.157h2.55V48.62c0-3.445-1.94-4.638-4.823-4.638a9.4 9.4 0 0 0-2.643.327v-4.917h-2.577zm-12.084 4.971H34.6v-5.035a5.4 5.4 0 0 0 1.943.326c3.538 0 5.549-2.267 5.549-6.203 0-3.79-1.782-5.854-5.805-5.854a13 13 0 0 0-4.281.714v16.052zM39.495 50c0 2.39-.631 3.607-3.066 3.607a3.5 3.5 0 0 1-1.828-.375v-6.559a5.4 5.4 0 0 1 1.807-.256c2.315 0 3.088.938 3.088 3.567z"/><path fill="url(#b)" fill-rule="evenodd" d="M8.035 55.155c.064.073.135.143.202.211l.213.207-3.83 4.638q-.33-.29-.64-.601a12 12 0 0 1-.596-.622l4.64-3.833zm1.6 1.334L6.78 61.796q-.756-.441-1.453-.971l3.815-4.69q.241.173.491.326zm-2.497-2.497q.152.25.33.488l-4.672 3.794q-.534-.694-.97-1.45l5.31-2.853zm3.84 3.15-1.768 5.74a13 13 0 0 1-1.608-.665l2.826-5.32q.27.126.546.223zM6.483 52.63q.102.276.226.543l-5.32 2.83a12.5 12.5 0 0 1-.667-1.612zm5.93 4.865-.601 5.994a14 14 0 0 1-1.715-.358l1.739-5.75q.285.069.577.114M6.11 51.19q.047.292.116.58l-5.77 1.733a13 13 0 0 1-.34-1.709zm-.089-1.48v.592l-5.993.583a14 14 0 0 1 0-1.746zm7.877 7.87.58 5.997a14 14 0 0 1-1.746 0l.58-5.997q.292.018.586 0m1.474-.199 1.74 5.769q-.846.234-1.716.356l-.601-5.993c.193-.034.388-.067.577-.113zM6.226 48.23a7 7 0 0 0-.117.583l-5.993-.607q.113-.864.339-1.706l5.77 1.733zm10.555 8.667 2.827 5.32q-.786.386-1.615.665l-1.758-5.762q.279-.099.547-.223M6.721 46.8c-.083.18-.16.357-.227.547L.739 45.563q.285-.83.675-1.614l5.307 2.856zm11.343 9.336 3.811 4.675q-.695.53-1.45.97l-2.85-5.291c.165-.102.327-.208.488-.327zM7.467 45.539a6 6 0 0 0-.33.488l-5.304-2.856c.294-.5.617-.986.971-1.447zm16.357 13.449q-.581.652-1.236 1.233l-3.83-4.649.214-.207.201-.21zM4.62 39.783l3.83 4.639-.213.204c-.067.07-.138.14-.202.211l-4.638-3.83c.189-.213.387-.428.594-.635.208-.207.422-.409.639-.595zm20.765 17.038q-.44.761-.97 1.453l-4.67-3.815q.178-.24.33-.488l5.31 2.853zm-18.6-18.597 2.856 5.304q-.252.157-.495.33l-3.812-4.664c.461-.354.947-.68 1.45-.97M26.485 54.39q-.278.828-.668 1.612l-5.32-2.83a8 8 0 0 0 .227-.543zM9.226 37.113l1.755 5.768q-.278.097-.546.223l-2.82-5.323a14 14 0 0 1 1.612-.668m17.868 14.682a13 13 0 0 1-.356 1.709l-5.753-1.733q.069-.288.116-.58zm-15.28-15.284.602 5.994q-.293.048-.578.113l-1.739-5.75a14 14 0 0 1 1.715-.357m15.369 12.62q.058.87 0 1.739l-5.994-.573v-.593zM14.477 36.422l-.58 5.997h-.585l-.58-5.997a14 14 0 0 1 1.745 0m12.275 10.079q.238.843.357 1.708l-5.994.607a6 6 0 0 0-.113-.583zm-9.632-9.633-1.748 5.75a9 9 0 0 0-.577-.114l.601-5.993q.87.112 1.715.336zm2.496.934-2.835 5.304a6 6 0 0 0-.546-.227l1.758-5.76q.83.278 1.615.664zm6.199 6.2q.384.786.668 1.613L20.725 47.4c-.068-.183-.147-.357-.23-.547zm-3.95-4.815-3.82 4.667a9 9 0 0 0-.492-.33l2.854-5.307q.756.435 1.453.97zm2.534 2.524q.53.691.97 1.447l-5.3 2.853a6 6 0 0 0-.33-.492l4.66-3.817zm-1.81-1.928c.22.189.428.387.638.595s.406.414.598.634l-4.638 3.836a3 3 0 0 0-.205-.213l-.214-.208 3.834-4.638z" clip-rule="evenodd"/></g><defs><linearGradient id="b" x1="2.457" x2="24.752" y1="42.194" y2="57.806" gradientUnits="userSpaceOnUse"><stop offset=".19" stop-color="#71d7fc"/><stop offset=".29" stop-color="#67caf1"/><stop offset=".47" stop-color="#4ea9d5"/><stop offset=".7" stop-color="#2574a9"/><stop offset=".89" stop-color="#004480"/></linearGradient><clipPath id="a"><path fill="#fff" d="M0 0h100v100H0z"/></clipPath></defs></g></svg>