<svg xmlns="http://www.w3.org/2000/svg" fill="none" viewBox="0 0 512 512"><g transform="translate(23.453 23.453) scale(4.651)"><path fill="url(#a)" d="M46.724 74.37c-11.134-.38-21.722-2.906-29.955-7.138-.776-.397-2.468-1.342-2.468-1.375 0-.012.268.113.595.283 4.03 2.063 9.095 3.825 14.21 4.943 8.112 1.777 16.996 2.25 25.7 1.365 8.216-.831 15.891-2.855 22.443-5.91 5.894-2.752 10.61-6.27 13.752-10.25 4.823-6.12 5.47-13.214 1.776-19.507-2.39-4.078-6.382-7.673-11.861-10.677-.524-.286-.936-.522-.915-.522.072 0 2.39 1.118 3.115 1.505 3.539 1.878 6.352 3.882 8.809 6.263 3.085 2.993 5.023 6.076 5.97 9.5.877 3.166.713 6.678-.456 9.79-1.573 4.188-4.79 8.042-9.494 11.381-7.643 5.42-18.583 9.009-30.719 10.076a92 92 0 0 1-10.505.277z"/><path fill="#173354" d="M74.563 60.023h-.06a.4.4 0 0 0-.119-.021l-.17-.006q-.12 0-.238.03l-.238.073v1.464h-.716v-2.189h.716v.316a2.4 2.4 0 0 1 .295-.215.8.8 0 0 1 .18-.074.6.6 0 0 1 .196-.033h.077c.03.003.054.003.078.009zm-2.602 1.6q-.652.002-.999-.298c-.347-.299-.346-.477-.346-.844q0-.533.322-.852c.322-.319.516-.322.903-.322q.528.002.796.271c.269.27.266.439.266.775v.248h-1.571a.6.6 0 0 0 .069.253.44.44 0 0 0 .152.161.6.6 0 0 0 .215.09 1.3 1.3 0 0 0 .512 0q.114-.025.22-.073.09-.036.165-.077l.121-.077h.075v.563l-.161.06a1 1 0 0 1-.2.059l-.239.044q-.15.02-.303.018zm.235-1.433a.5.5 0 0 0-.105-.331c-.066-.078-.167-.113-.304-.113a.46.46 0 0 0-.328.12.47.47 0 0 0-.128.324zm-1.431-.814-1.16 2.99h-.769l.347-.855-.841-2.135h.752l.482 1.371.453-1.37zm-3.136 1.619v-.456l-.293.03a1 1 0 0 0-.223.05.33.33 0 0 0-.146.092c-.053.061-.05.099-.05.17q0 .152.086.212c.087.059.143.056.256.056a.6.6 0 0 0 .194-.042.5.5 0 0 0 .176-.112m0 .337-.132.107a1.1 1.1 0 0 1-.342.16q-.126.028-.256.025a.7.7 0 0 1-.507-.197.64.64 0 0 1-.2-.49q0-.244.102-.393a.58.58 0 0 1 .295-.238q.192-.09.465-.125l.58-.054v-.012c0-.122-.047-.202-.139-.25-.092-.05-.235-.07-.42-.07q-.13 0-.299.045a2.4 2.4 0 0 0-.331.11h-.062v-.527a4 4 0 0 1 .823-.11q.595 0 .865.19c.27.192.27.316.27.573v1.488h-.712zm-1.336.232h-2.032v-2.9h.766v2.349h1.267zm-4.042-.57v-.455l-.295.03a1 1 0 0 0-.22.05.33.33 0 0 0-.146.092c-.054.061-.054.099-.054.17q0 .152.089.212c.089.059.143.056.256.056q.1 0 .19-.042a.6.6 0 0 0 .18-.113m0 .337-.131.108a.8.8 0 0 1-.158.092 1 1 0 0 1-.187.069 1 1 0 0 1-.253.024.7.7 0 0 1-.66-.42.65.65 0 0 1-.05-.266q0-.246.105-.394a.6.6 0 0 1 .295-.238 1.6 1.6 0 0 1 .462-.125l.581-.054v-.012c0-.122-.044-.202-.14-.25-.095-.05-.233-.07-.42-.07q-.151.005-.295.045a2.4 2.4 0 0 0-.334.11h-.06v-.527q.17-.042.344-.069.238-.04.48-.041.591 0 .864.19c.274.192.271.316.271.573v1.488h-.712zm-1.565.233h-.715v-2.188h.715zm.022-2.498h-.758v-.53h.758zm-1.032 2.498h-.715v-.226l-.158.116q-.075.053-.158.092a.8.8 0 0 1-.37.078.73.73 0 0 1-.622-.31q-.23-.308-.23-.826 0-.286.078-.498c.077-.21.125-.262.214-.366a.9.9 0 0 1 .304-.224.9.9 0 0 1 .376-.083q.151-.004.298.036.112.036.268.113v-.933h.716zm-.715-.602v-1.076a.8.8 0 0 0-.286-.056q-.258 0-.388.17c-.13.169-.131.274-.131.48q0 .322.105.467c.103.145.178.143.333.143q.099 0 .19-.033a.8.8 0 0 0 .177-.095m-2.433.662c-.432 0-.767-.099-.995-.299-.23-.2-.349-.477-.349-.844q.002-.533.325-.852c.324-.319.516-.322.903-.322q.528.002.796.271c.269.27.266.439.266.775v.248h-1.571a.6.6 0 0 0 .069.253.44.44 0 0 0 .152.161q.089.063.215.09c.126.026.17.023.268.023a1.1 1.1 0 0 0 .465-.096 2 2 0 0 0 .164-.077l.122-.077h.074v.563l-.161.06a2 2 0 0 1-.2.059l-.238.044q-.152.02-.304.018zm.238-1.434c-.006-.146-.039-.253-.105-.331-.065-.078-.17-.113-.303-.113a.45.45 0 0 0-.329.12c-.12.118-.122.187-.128.324zm-2.415 1.374v-1.091l-.006-.274a.6.6 0 0 0-.036-.182.2.2 0 0 0-.095-.102.43.43 0 0 0-.343.003 1 1 0 0 0-.176.096v1.55h-.719v-1.092l-.006-.27a.6.6 0 0 0-.039-.183.24.24 0 0 0-.095-.105.4.4 0 0 0-.18-.032.5.5 0 0 0-.172.039l-.164.092v1.55h-.716v-2.189h.716v.242q.178-.14.334-.22a.74.74 0 0 1 .348-.08c.13-.004.258.03.37.094a.63.63 0 0 1 .244.286q.207-.184.39-.282a.78.78 0 0 1 .656-.048q.128.044.215.146.1.107.146.248.051.187.048.38v1.423zm-3.356.045q-.437-.002-.638-.173c-.201-.17-.197-.3-.197-.56v-1.023h-.274v-.477h.274v-.623h.716v.623h.688v.477h-.688v.975a.4.4 0 0 0 .032.155.23.23 0 0 0 .102.107q.1.045.212.041a1 1 0 0 0 .152-.024.5.5 0 0 0 .128-.044h.063v.483l-.248.044q-.16.02-.322.019m-1.708.015a2 2 0 0 1-.522-.069 1.2 1.2 0 0 1-.408-.209.94.94 0 0 1-.268-.357c-.068-.16-.1-.334-.096-.508q0-.315.105-.533a1 1 0 0 1 .28-.364c.121-.093.26-.162.406-.203a2 2 0 0 1 .483-.065c.264 0 .525.06.762.176v.584h-.092a1.3 1.3 0 0 0-.242-.17c-.075-.042-.11-.051-.176-.069a.8.8 0 0 0-.218-.03.51.51 0 0 0-.423.182c-.15.183-.153.286-.153.492q0 .328.161.49c.161.161.251.16.427.16q.12.003.238-.026a.8.8 0 0 0 .176-.072 1 1 0 0 0 .122-.084l.087-.08h.092v.584l-.14.06q-.082.03-.167.054l-.194.041q-.12.017-.241.015zm-2.185 0q-.651 0-.998-.296c-.347-.295-.346-.48-.346-.843q-.002-.538.325-.856c.325-.318.515-.319.903-.319q.528 0 .793.271c.264.272.265.439.265.775v.245h-1.568a.6.6 0 0 0 .069.253.44.44 0 0 0 .15.164q.093.06.214.087a1.24 1.24 0 0 0 .736-.069l.161-.08.122-.075h.077v.56l-.16.063a2 2 0 0 1-.2.056q-.12.03-.242.048-.15.018-.3.016m.238-1.434a.5.5 0 0 0-.107-.328q-.098-.113-.304-.113a.43.43 0 0 0-.325.12.5.5 0 0 0-.13.321zm-1.44-.167h-.059a1 1 0 0 0-.116-.021l-.173-.006q-.12 0-.235.03a3 3 0 0 0-.242.073v1.467h-.715v-2.188h.715v.313q.066-.057.138-.107a1 1 0 0 1 .158-.105.8.8 0 0 1 .182-.077.8.8 0 0 1 .194-.033l.077.003q.04.002.077.006zm-1.838 1.544h-.715v-2.189h.715zm.021-2.501h-.757v-.53h.757zm-.894 1.052c.004.255-.06.507-.188.728a1.36 1.36 0 0 1-.986.68 4 4 0 0 1-.593.04h-.954v-2.9h.945q.302-.002.602.039c.186.027.365.09.525.188.199.12.363.29.474.494.114.206.176.45.176.73zm-.787-.006q.002-.286-.105-.489a.73.73 0 0 0-.315-.319.8.8 0 0 0-.328-.089l-.409-.009h-.015v1.816h.015l.435-.008a.7.7 0 0 0 .337-.105.73.73 0 0 0 .286-.31c.07-.153.103-.319.098-.486zm-4.012 1.512c-.432 0-.767-.099-.996-.296s-.348-.477-.348-.843q.001-.535.325-.856.322-.32.903-.319.528 0 .793.271c.265.272.268.439.268.775v.245h-1.571q.01.153.069.256a.44.44 0 0 0 .152.161.6.6 0 0 0 .215.087 1.24 1.24 0 0 0 .897-.15l.12-.073h.077v.563l-.161.06a2 2 0 0 1-.2.059l-.242.044q-.15.018-.3.015zm.238-1.431q-.006-.22-.105-.332c-.1-.112-.17-.113-.304-.113a.44.44 0 0 0-.328.12c-.12.119-.122.187-.128.325zm-1.711 1.374H36.2v-3.032h.716zm-.847-1.124q-.002.525-.28.847c-.28.324-.418.319-.689.319q-.172 0-.298-.036a1.3 1.3 0 0 1-.271-.117v.913h-.716v-2.99h.716v.23q.148-.125.322-.209a.86.86 0 0 1 .379-.08q.397 0 .617.3c.218.3.22.478.22.823m-.734.012q0-.318-.104-.462c-.104-.144-.176-.146-.322-.146a.8.8 0 0 0-.19.03.8.8 0 0 0-.188.089v1.1q.058.023.125.033c.066.01.101.008.164.008.172 0 .304-.054.387-.16q.127-.16.128-.492m-2.521 1.112v-1.094l-.007-.271a.5.5 0 0 0-.036-.182c-.03-.071-.053-.08-.095-.102a.47.47 0 0 0-.343 0q-.09.042-.173.099v1.55h-.72v-1.094l-.007-.271a.6.6 0 0 0-.039-.182.2.2 0 0 0-.095-.102.4.4 0 0 0-.18-.032.4.4 0 0 0-.169.038 1 1 0 0 0-.164.093v1.55h-.715v-2.189h.715v.242q.174-.142.332-.22a.75.75 0 0 1 .348-.081.73.73 0 0 1 .373.095c.161.095.185.158.241.283q.18-.163.39-.28a.8.8 0 0 1 .373-.099.8.8 0 0 1 .286.048q.125.046.215.146a.8.8 0 0 1 .143.25q.048.148.048.38v1.425zm-3.041 0h-.716v-2.189h.716zm.021-2.499h-.757v-.533h.757zM27.64 61.62c-.236 0-.439-.024-.618-.066a3 3 0 0 1-.492-.158v-.691h.072a1.7 1.7 0 0 0 1.04.384q.067-.002.173-.011a.8.8 0 0 0 .173-.045.4.4 0 0 0 .134-.092.2.2 0 0 0 .057-.155.21.21 0 0 0-.09-.179.6.6 0 0 0-.214-.098l-.334-.074a3 3 0 0 1-.331-.087q-.354-.117-.507-.319c-.153-.201-.152-.3-.152-.504q0-.406.36-.658c.361-.253.543-.251.904-.251a2.7 2.7 0 0 1 .542.05q.268.055.48.144v.661h-.066a1.6 1.6 0 0 0-.414-.232 1.4 1.4 0 0 0-.683-.084.6.6 0 0 0-.167.054.34.34 0 0 0-.125.092.2.2 0 0 0-.051.138q0 .11.08.175c.08.066.165.084.322.12l.296.062q.154.036.303.087.319.108.472.292c.153.185.154.286.154.486q0 .434-.357.695c-.358.26-.558.265-.963.265zm46.66-4.93H54.63V28.64h7.402v22.706h12.27zM52.698 42.686q0 3.916-1.8 7.017c-1.802 3.1-2.72 3.651-4.552 4.757a13.1 13.1 0 0 1-4.996 1.82q-2.701.405-5.75.405h-9.22V28.63h9.142q3.107 0 5.816.379c1.804.252 3.536.874 5.088 1.827a12.84 12.84 0 0 1 4.59 4.776q1.682 3.006 1.682 7.077zm-7.598-.057q0-2.772-1.002-4.74c-1.001-1.967-1.69-2.34-3.076-3.082a7.4 7.4 0 0 0-3.157-.864l-3.947-.078h-.14V51.43h.14l4.206-.087q1.709-.086 3.255-1.007a7.1 7.1 0 0 0 2.77-3.014q.949-1.922.95-4.693zM12.255 57.188q-3.384 0-5.947-.623c-2.562-.622-3.293-.93-4.76-1.544v-6.67h.673A16.7 16.7 0 0 0 7.11 51.1c1.783.642 3.508.963 5.184.963q.634 0 1.672-.134c1.038-.134 1.25-.227 1.673-.414.495-.2.94-.505 1.305-.895q.535-.575.534-1.517 0-1.053-.87-1.714c-.872-.66-1.273-.76-2.078-.962l-3.216-.716a27 27 0 0 1-3.196-.829q-3.425-1.151-4.907-3.088c-1.48-1.938-1.484-2.916-1.484-4.862q-.002-3.939 3.502-6.379c3.504-2.44 5.25-2.441 8.747-2.441 1.757.001 3.51.172 5.234.51q2.601.51 4.662 1.377v6.406h-.653q-1.645-1.337-4.01-2.263c-2.363-.925-3.194-.924-4.858-.924a10 10 0 0 0-1.74.134 7 7 0 0 0-1.625.507c-.463.204-.872.51-1.196.898a2 2 0 0 0-.507 1.327q0 1.074.802 1.705c.801.631 1.568.802 3.097 1.142l2.862.62q1.373.302 2.939.829c2.042.703 3.565 1.648 4.56 2.837.996 1.19 1.494 2.752 1.494 4.701q0 4.182-3.452 6.725c-3.453 2.544-5.413 2.543-9.33 2.543"/><path fill="#173354" fill-rule="evenodd" d="M24.345 69.619c-.182 0-.33.128-.33.286s.148.289.33.289.329-.131.329-.29c0-.157-.147-.285-.329-.285m14.142 2.573c-.283 0-.516.2-.516.446 0 .247.233.45.516.45s.515-.2.515-.45-.23-.446-.515-.446m-7.34-.972c-.226 0-.411.16-.411.36s.185.358.412.358.414-.16.414-.357-.185-.361-.414-.361m15.38 1.26c-.355 0-.644.251-.644.56s.289.56.644.56c.354 0 .643-.25.643-.56 0-.309-.289-.56-.643-.56m8.302-.431c-.447 0-.808.313-.808.7 0 .388.361.701.808.701s.805-.316.805-.7c0-.386-.361-.701-.805-.701m8.317-1.425c-.554 0-1.005.39-1.005.876s.45.874 1.005.874 1.008-.391 1.008-.874-.45-.876-1.008-.876m8.326-2.609c-.695 0-1.258.492-1.258 1.097s.563 1.094 1.258 1.094 1.26-.493 1.26-1.094-.566-1.097-1.26-1.097m7.971-3.467c-.772 0-1.398.542-1.398 1.216s.625 1.217 1.398 1.217 1.398-.546 1.398-1.217c0-.67-.625-1.216-1.398-1.216m7.268-4.988c-.859 0-1.556.606-1.556 1.35s.697 1.353 1.556 1.353 1.553-.605 1.553-1.353c0-.747-.694-1.35-1.553-1.35m5.992-7.017c-1.118 0-2.022.787-2.022 1.759s.904 1.755 2.022 1.755 2.02-.787 2.02-1.755c0-.969-.906-1.759-2.02-1.759m2.572-7.28c-.859 0-1.553.606-1.553 1.354 0 .747.695 1.35 1.553 1.35.859 0 1.556-.606 1.556-1.35s-.694-1.354-1.556-1.354m-.867-4.542c.614 0 1.112-.433 1.112-.963s-.498-.966-1.112-.966-1.109.432-1.109.966.498.962 1.109.962m-2.71-5.25c.439 0 .794-.307.794-.688s-.358-.688-.794-.688c-.435 0-.795.307-.795.688s.357.688.795.688m-2.983-4.403c-.29 0-.527.209-.527.462s.238.46.527.46.53-.206.53-.46-.238-.462-.53-.462m-3.172-1.803c.194 0 .352-.137.352-.304s-.158-.307-.352-.307-.352.138-.352.307c0 .17.158.304.352.304" clip-rule="evenodd"/><defs><radialGradient id="a" cx="0" cy="0" r="1" gradientTransform="matrix(-14.2806 -27.9369 47.3207 -24.3107 90.356 57.941)" gradientUnits="userSpaceOnUse"><stop stop-color="#656f71"/><stop offset="1" stop-color="#d3d4cf"/></radialGradient></defs></g></svg>