<svg xmlns="http://www.w3.org/2000/svg" fill="none" viewBox="0 0 512 512"><g transform="translate(25.313 25.764) scale(4.614)"><path fill="#8cc445" d="M85.592 24.313 66.094 10.116c-11.827-8.613-15.855-11.977-32.494 0L14.102 24.313C2.275 32.928-2.16 35.728 4.062 55.29l7.447 22.972c4.518 13.937 5.805 19.03 26.29 19.144h24.099c14.62 0 19.85.347 26.289-19.144l7.447-22.973c4.518-13.937 6.464-18.815-10.042-30.976"/><path fill="#6fad20" d="M4.072 55.278S1.718 46.88 1.406 43.805l.004-.004c22.268 9.134 54.14 16.218 91.432 20.067l-4.651 14.405c-6.439 19.491-11.669 19.12-26.29 19.12H37.809c-20.484-.114-21.77-5.182-26.29-19.12z"/><path fill="#fff" d="m63.408 32.344 3.397-13.07h.002L82.93 31.01c3.743 2.575 6.82 5.206 7.84 9.43 1.033 4.282-.386 7.31-1.411 10.476L80.787 77.42c-1.286 4.362-2.84 8.096-6.532 10.372-3.745 2.308-7.053 1.912-10.375 1.912H36.076c-4.54.121-8.563-.17-11.865-2.986 0 0-3.99-6.132-5.017-9.299l-8.597-26.505c-1.522-4.297-2.466-8.235-.81-12.258 1.675-4.073 4.578-5.691 7.265-7.648l16.096-11.707 3.397 13.07A5524 5524 0 0 0 21.52 43.399c.049.244 10 31.309 10.818 33.604 0 0 1.161.202 3.555.132h27.986c2.559 0 3.361-.072 3.659-.079.107-.232 10.268-31.226 10.949-33.552z"/><path fill="#fff" d="M49.351 10.034c-3.601.221-6.652 2.162-9.799 4.584-.03.023-.05.054-.078.079l8.623 33.277h3.763l8.65-33.277-.079-.079c-2.687-1.957-5.129-4.218-9.512-4.557a11 11 0 0 0-1.568-.026z"/></g></svg>