<svg xmlns="http://www.w3.org/2000/svg" fill="none" viewBox="0 0 512 512"><g transform="translate(30.72 30.72) scale(4.506)"><path fill="#fff" d="M25.283 28.955c-10.98 0-22.26 3.363-22.26 16.421 0 9 8.11 11.87 16.222 13.654 10.091 2.175 15.929 3.659 15.929 7.913 0 4.95-5.146 6.533-9.2 6.533-5.541 0-10.684-2.475-10.784-8.608H1.836c.597 13.55 12.167 18 24.042 18 11.67 0 23.346-4.35 23.346-17.805 0-9.5-8.013-12.467-16.225-14.345-8.013-1.88-15.93-2.57-15.93-7.618 0-4.154 4.651-4.75 7.821-4.75 5.043 0 9.196 1.489 9.592 6.926h13.354c-1.083-12.562-11.375-16.32-22.554-16.32"/><path fill="#f79a10" d="M82.773 3.394h-1.082l-49.854.283C21.54 3.148 11.399 5.67 2.628 10.715l.009.008c-4.584 2.502-2.814 9.466 2.408 9.475a5.03 5.03 0 0 0 3.68-1.596 43 43 0 0 1 36.741-1.925c21.978 9.021 32.52 34.25 23.5 56.23A42.8 42.8 0 0 1 58.569 87.96l.043.054c-5.287 3.046 3.556 12.214 6.791 7.041a52.7 52.7 0 0 0 12.666-18.412c.205-.493 20.633-50.254 20.684-50.388 3.483-8.497-.58-18.209-9.075-21.695-2.291-.942-4.434-1.159-6.905-1.167"/></g></svg>