<svg xmlns="http://www.w3.org/2000/svg" fill="none" viewBox="0 0 512 512"><g transform="translate(22.511 22.511) scale(4.67)"><path fill="#000" fill-rule="evenodd" d="M78.601 56.933c-.83 4-4.52 14.27-16.29 19.827l-4.727-5.312-7.978 8.016a29.43 29.43 0 0 1-23.278-11.941c.848.266 1.721.43 2.606.492 1.306.023 2.723-.455 2.723-2.65V43.73a3.57 3.57 0 0 0-4.48-3.57c-3.693.85-6.644 10.064-6.644 10.064a29.3 29.3 0 0 1 10.14-22.452 29.7 29.7 0 0 1 14.96-6.903c-4.032 2.299-6.296 6.046-6.296 9.19 0 5.06 3.046 4.446 3.949 3.702v29.202q.232.55.595 1.028a4.32 4.32 0 0 0 3.528 1.785c3.049 0 7.006-3.482 7.006-3.482v-23.64c0-2.405-1.812-5.307-3.628-6.305 0 0 3.36-.595 5.954 1.389a22 22 0 0 1 1.55-1.706c6.053-5.936 11.75-7.626 16.498-8.472 0 0-8.63 6.784-8.63 15.885 0 6.769.174 23.272.174 23.272 3.201 3.092 7.965-1.373 12.268-5.783z" clip-rule="evenodd"/><path fill="#000" fill-rule="evenodd" d="M50 1.861C23.416 1.861 1.862 23.416 1.862 50c0 26.583 21.554 48.138 48.138 48.138 26.583 0 48.138-21.555 48.138-48.138C98.138 23.416 76.583 1.86 50 1.86m0 94.352C24.478 96.213 3.787 75.523 3.787 50 3.79 24.479 24.481 3.788 50.003 3.79c25.522 0 46.21 20.69 46.21 46.213 0 25.521-20.691 46.212-46.213 46.212z" clip-rule="evenodd"/></g></svg>