<svg xmlns="http://www.w3.org/2000/svg" fill="none" viewBox="0 0 512 512"><g transform="translate(30.72 30.72) scale(4.506)"><g clip-path="url(#a)"><path fill="#fff" d="M50 0C22.43 0 0 22.43 0 50s22.43 50 50 50 50-22.43 50-50.002C100 22.43 77.57 0 50 0"/><path fill="#91dc47" d="M48.171 50.899c-.45.973-.945 2.067-1.458 3.231-1.815 4.11-3.824 9.113-4.558 12.318-.264 1.141-.427 2.556-.424 4.124 0 .62.033 1.272.086 1.936a23.9 23.9 0 0 0 8.23 1.467 24 24 0 0 0 7.532-1.228 14 14 0 0 1-1.571-1.663c-3.211-4.095-5.003-10.095-7.837-20.185M36.316 30.556c-6.132 4.322-10.145 11.45-10.16 19.528.015 7.957 3.907 14.993 9.885 19.333 1.467-6.108 5.143-11.701 10.655-22.912-.328-.9-.7-1.884-1.118-2.918-1.527-3.83-3.731-8.279-5.698-10.293-1.003-1.052-2.22-1.962-3.564-2.738"/><path fill="#63b132" d="M70.857 77.486c-3.164-.396-5.775-.875-8.06-1.68a28.6 28.6 0 0 1-12.75 2.985c-15.854 0-28.705-12.85-28.707-28.707 0-8.604 3.79-16.318 9.788-21.578a21 21 0 0 0-4.985-.61c-8.423.078-17.314 4.74-21.016 17.329-.346 1.832-.263 3.218-.263 4.86 0 24.955 20.23 45.186 45.184 45.186 15.282 0 28.782-7.594 36.957-19.207-4.422 1.102-8.674 1.629-12.315 1.64-1.365 0-2.647-.073-3.833-.218"/><path fill="#90b4fe" d="M62.366 68.73c.28.14.912.365 1.792.614 5.92-4.346 9.768-11.347 9.783-19.26h-.002c-.022-13.192-10.698-23.866-23.892-23.892a24 24 0 0 0-7.502 1.22c4.852 5.53 7.184 13.432 9.44 22.076l.005.01c.004.007.722 2.4 1.954 5.576 1.223 3.17 2.966 7.097 4.867 9.958 1.248 1.917 2.62 3.294 3.555 3.699"/><path fill="#5881d8" d="M50.048 4.898c-15.135 0-28.522 7.45-36.722 18.874 4.267-2.672 8.625-3.637 12.427-3.602 5.253.015 9.382 1.644 11.363 2.758.479.275.933.572 1.378.877a28.6 28.6 0 0 1 11.553-2.427c15.855.002 28.708 12.85 28.71 28.706h-.002c0 7.994-3.27 15.221-8.54 20.426 1.293.145 2.673.235 4.082.228 5.004.002 10.413-1.102 14.468-4.512 2.644-2.228 4.86-5.489 6.088-10.379.24-1.889.379-3.808.379-5.762 0-24.954-20.23-45.187-45.184-45.187"/></g><defs><clipPath id="a"><path fill="#fff" d="M0 0h100v100H0z"/></clipPath></defs></g></svg>