<svg xmlns="http://www.w3.org/2000/svg" fill="none" viewBox="0 0 512 512"><g transform="translate(30.72 30.72) scale(4.506)"><g clip-path="url(#a)"><path fill="#fff" fill-opacity=".965" stroke="#fffffe" stroke-linecap="round" stroke-width=".378" d="M50 100c27.614 0 50-22.387 50-50 0-27.615-22.386-50-50-50S0 22.384 0 50c0 27.613 22.386 50 50 50Z"/><path fill="#000" d="M83.02 58.935 58.905 83.003c-.097.097-.242.145-.338.097l-32.944-8.827c-.144-.048-.24-.145-.24-.241l-8.876-32.896c-.048-.144 0-.24.097-.337L40.719 16.73c.097-.096.242-.145.338-.096l32.944 8.826c.144.049.241.145.241.242l8.827 32.895c.096.145.048.241-.049.338M50.704 32.744l-32.365 8.634c-.048 0-.096.096-.048.144l23.683 23.635c.048.048.144.048.144-.048L50.8 32.792c.049 0-.048-.096-.096-.048"/></g><defs><clipPath id="a"><path fill="#fff" d="M0 0h100v100H0z"/></clipPath></defs></g></svg>