<svg xmlns="http://www.w3.org/2000/svg" fill="none" viewBox="0 0 512 512"><g transform="translate(30.72 31.16) scale(4.506)"><path fill="#b03931" d="M74.171 55.225c9.765 0 17.681-7.256 17.681-16.207S83.936 22.81 74.172 22.81c-9.766 0-17.682 7.257-17.682 16.208s7.916 16.207 17.681 16.207m20.148-28.81c3.138 0 5.681-2.332 5.681-5.208s-2.543-5.208-5.681-5.208-5.681 2.332-5.681 5.208 2.543 5.208 5.68 5.208"/><path fill="#b03931" d="M2.2 17.777C.969 17.93.004 18.912 0 20.102l.078 60.726c0 .92.248 2.816 2.836 2.816l23.256-.092c6.648-.012 11.1-.126 13.752-.461h.063c2.538-.353 5.226-1.002 8.148-1.951 5.081-1.589 9.587-3.936 13.46-7.07 3.794-3.038 6.733-6.633 8.799-10.678s3.107-8.322 3.099-12.755c-.011-6.172-1.878-11.95-5.624-17.15s-8.86-9.18-15.152-11.817c-6.397-2.712-14.739-3.948-25.087-3.93l-25.113.037c-.108 0-.21-.012-.315 0m13.517 12.496 10.826-.016c5.059-.009 8.658.145 10.7.425 2.07.285 4.337.885 6.737 1.812 2.38.907 4.453 2.017 6.236 3.399 4.903 3.812 7.214 8.324 7.224 14.297.011 6.116-2.222 10.88-6.998 14.876a23.3 23.3 0 0 1-4.906 3.092c-1.703.793-3.926 1.477-6.732 2.066-2.646.53-6.664.831-11.894.84l-11.141.017z"/></g></svg>