<svg xmlns="http://www.w3.org/2000/svg" fill="none" viewBox="0 0 512 512"><g transform="translate(28.52 30.72) scale(4.506)"><g fill-rule="evenodd" clip-path="url(#a)" clip-rule="evenodd"><path fill="url(#b)" d="M53.262.236c-7.346 2.606-14.217 10.189-21.088 22.51C21.985 41.464 8.954 68 26.96 89.089c8.293 9.715 22.273 15.401 40.28 6.398 14.455-7.347 18.72-28.433 13.27-38.148-10.9-20.377-21.8-25.353-24.642-37.909C53.972 10.898 53.025 4.5 53.26.235"/><path fill="url(#c)" d="M53.262 0c-7.346 2.606-14.454 10.188-21.088 22.509-10.189 18.718-23.22 45.256-5.213 66.343 8.293 9.715 22.036 12.795 29.618 7.109 4.975-3.791 8.293-7.346 10.188-14.928 2.133-8.53.474-19.666-.71-25.116-1.422-6.634-1.896-13.742-1.422-21.798 0 0-.237 0-.237-.237-4.028-4.739-6.871-9.004-8.293-14.927-2.133-8.293-3.08-14.69-2.843-18.956"/><path fill="url(#d)" d="M47.101 3.316C40.23 8.766 35.254 17.77 31.937 30.328c-4.976 18.955-5.45 36.489-3.791 46.914 3.317 19.903 21.088 27.249 39.095 18.008 11.136-5.687 15.875-17.77 15.638-31.04-.237-13.742-26.774-29.143-31.276-40.517C48.523 15.874 47.1 9.24 47.1 3.316"/><path fill="url(#e)" d="M64.398 38.858c8.293 10.425 9.951 17.77 5.45 21.798-6.872 6.16-23.932 10.189-34.357 2.844-7.108-4.976-9.715-15.639-8.056-31.987-2.843 6.16-5.45 12.083-7.345 18.48-1.896 6.161-2.607 12.796-1.659 19.43 2.606 4.976 8.53 8.53 18.245 10.189 14.453 2.606 28.196 1.184 37.436-3.318 6.16-3.08 9.004-6.16 8.767-9.24.237-4.502-1.185-8.767-4.265-13.032-2.843-4.265-7.582-9.24-14.216-15.164"/><path fill="url(#f)" d="M32.41 28.432c0 7.582 1.896 14.69 5.924 21.562 5.924 10.188 12.795 20.377 23.22 28.67 6.872 5.686 12.558 7.345 16.586 5.45-3.317 6.16-7.108 9.003-10.899 9.003-5.687-.237-12.795-2.606-23.931-16.112-7.582-9.004-12.558-17.533-15.401-25.59.474-3.08.948-6.397 1.421-9.477.711-3.08 1.659-7.582 3.08-13.506"/><path fill="url(#g)" d="M50.181 38.858c.711 6.16 3.08 16.112 0 22.51-3.08 6.633-17.06 18.48-13.268 28.906 3.79 10.426 13.268 8.056 19.192 3.317s9.004-12.558 9.714-18.244c.711-5.45-1.658-16.112-2.369-25.353-.474-6.16-.237-11.373.948-15.875l-1.896-2.37-10.662-3.08c-1.422 2.607-2.133 5.924-1.659 10.189"/><path fill="url(#h)" d="M53.972 8.292c-3.554 1.422-6.634 4.265-9.714 8.767-4.74 6.397-7.108 10.425-5.213 23.22 1.185 8.53 1.895 16.35 2.606 23.694l14.928-43.36c-.474-2.132-.948-4.265-1.422-5.923-.71-2.133-.948-4.028-1.185-6.398"/><path fill="#330a4c" fill-opacity=".316" d="M56.342 20.376c-3.791 2.133-6.635 6.871-8.767 13.506-2.133 6.871-4.028 16.349-5.687 28.67 2.37-7.82 3.791-13.506 4.502-17.06 1.185-5.213 1.422-12.795 4.502-17.77 1.896-3.318 3.791-5.687 5.45-7.346"/><path fill="#fff" d="M38.571 93.828c6.16.948 9.478 1.659 9.715 2.37.474.947-.711 1.895-4.265 1.421-2.133-.474-4.028-1.658-5.45-3.79"/><path fill="#ededed" fill-opacity=".603" d="M41.888 8.292c-3.317 4.028-6.397 8.53-9.003 13.032-2.607 4.502-4.265 8.056-5.45 10.188-.237 1.659-.474 4.265-.474 7.583 0 3.317.237 6.87.948 10.899.474-7.82 1.895-15.638 4.502-22.983 2.369-7.346 5.686-13.743 9.477-18.719"/></g><defs><linearGradient id="b" x1="51.314" x2="47.835" y1="7.553" y2="100.104" gradientUnits="userSpaceOnUse"><stop stop-color="#d9d8dc"/><stop offset="1" stop-color="#fff" stop-opacity=".385"/></linearGradient><linearGradient id="c" x1="50.049" x2="13.703" y1="6.013" y2="85.672" gradientUnits="userSpaceOnUse"><stop stop-color="#8d67af" stop-opacity=".672"/><stop offset="1" stop-color="#9f8daf"/></linearGradient><linearGradient id="d" x1="55.16" x2="55.16" y1="33.365" y2="97.441" gradientUnits="userSpaceOnUse"><stop stop-color="#26053d" stop-opacity=".762"/><stop offset="1" stop-color="#b7b4b4" stop-opacity=".278"/></linearGradient><linearGradient id="e" x1="31.244" x2="47.556" y1="35.2" y2="78.408" gradientUnits="userSpaceOnUse"><stop stop-color="#91739f" stop-opacity=".46"/><stop offset="1" stop-color="#32054f" stop-opacity=".54"/></linearGradient><linearGradient id="f" x1="68.114" x2="23.263" y1="90.905" y2="53.757" gradientUnits="userSpaceOnUse"><stop stop-color="#463d49" stop-opacity=".331"/><stop offset="1" stop-color="#340a50" stop-opacity=".821"/></linearGradient><linearGradient id="g" x1="57.014" x2="25.383" y1="32.647" y2="80.776" gradientUnits="userSpaceOnUse"><stop stop-color="#715383" stop-opacity=".145"/><stop offset="1" stop-color="#f4f4f4" stop-opacity=".234"/></linearGradient><linearGradient id="h" x1="62.267" x2="39.866" y1="44.545" y2="43.178" gradientUnits="userSpaceOnUse"><stop stop-color="#a5a1a8" stop-opacity=".356"/><stop offset="1" stop-color="#370c50" stop-opacity=".582"/></linearGradient><clipPath id="a"><path fill="#fff" d="M0 0h100v100H0z"/></clipPath></defs></g></svg>