<svg xmlns="http://www.w3.org/2000/svg" fill="none" viewBox="0 0 512 512"><g transform="translate(30.72 31.6) scale(4.506)"><path fill="#a90432" d="M15.68 69.294C7.92 61.068 3.379 49.706 3.39 36.15 3.38 24.16 7.146 13.856 13.622 6.014l-.01.004H0v63.277h15.671zm71.688.005c3.343-3.581 6.34-7.799 9.054-12.622l-15.066-7.533c-5.291 8.602-13.03 16.52-23.729 16.573-15.572-.053-21.69-13.37-21.657-30.509h58.192c.078-1.935.078-2.835 0-3.766.38-10.197-2.323-18.768-7.239-25.443l-.025.019H100v63.277H87.34zm-50.456-48.78c.644-7.76 6.762-12.978 13.935-12.994 7.223.016 12.441 5.234 12.618 12.994z"/><path fill="#231f20" d="M8.286 80.03v-2.637H.188v15.63h8.098v-2.636H3.202v-4.143h4.896v-2.636H3.202v-3.579zm13.748 6.402c2.019-.3 3.127-2.3 3.201-4.33-.074-3.324-2.228-4.7-5.273-4.709H15.82v15.63h3.013V86.81l3.767 6.215h3.766zm-3.202-6.591h.377c1.644.062 2.878.437 2.825 2.448.053 1.843-1.14 2.343-2.825 2.26h-.377zm16.95-2.448h-3.014v15.63h7.345v-2.636h-4.331zm19.774 12.43 1.318 3.2h3.201l-5.838-16.007H51.79l-6.215 16.008h3.202l1.318-3.202zm-.754-2.449h-3.766l1.695-5.838zm10.923 5.65h3.202V82.478L77.213 93.4h2.26V77.393H76.27v10.546l-8.286-10.923h-2.26zm26.93-8.287v2.449h3.39c-.07 1.967-1.68 3.634-3.578 3.578-2.996.056-4.481-2.84-4.52-5.462.039-2.587 1.503-5.608 4.52-5.65 1.584.043 2.922 1.126 3.578 2.45l2.637-1.32c-1.16-2.442-3.502-3.796-6.215-3.766-4.67-.03-7.66 3.824-7.721 8.286.061 4.351 2.968 8.227 7.533 8.287 4.93-.06 7.21-3.998 7.156-8.475v-.377z"/></g></svg>