<svg xmlns="http://www.w3.org/2000/svg" fill="none" viewBox="0 0 512 512"><g transform="translate(28.936 28.936) scale(4.568)"><g clip-path="url(#a)"><path stroke="gray" stroke-dasharray="4.25 4.25" stroke-width="1.131" d="M93.163 27.61A48.738 48.738 0 1 1 76.28 8.862"/><path fill="navy" d="M49.737 87.433c20.82 0 37.696-16.877 37.696-37.696 0-20.82-16.877-37.696-37.696-37.696S12.041 28.918 12.041 49.737s16.877 37.696 37.696 37.696"/><path fill="#fff" d="M65.352 45.163c6.097 0 11.04-4.943 11.04-11.041s-4.943-11.04-11.04-11.04c-6.098 0-11.042 4.942-11.042 11.04s4.944 11.041 11.042 11.041"/><path fill="navy" d="M87.433 23.081c6.098 0 11.041-4.943 11.041-11.04 0-6.098-4.943-11.042-11.04-11.042-6.099 0-11.042 4.944-11.042 11.041s4.944 11.041 11.041 11.041"/><path fill="#fff" d="M39.526 68.584v-2.782H27.312v-21.95h-3.155v24.732zm16.956 0V50.806h-2.816v9.805c0 3.63-1.9 6.005-4.852 6.005-2.239 0-3.664-1.357-3.664-3.494V50.806h-2.816v13.436c0 2.951 2.205 4.851 5.666 4.851 2.612 0 4.275-.916 5.937-3.257v2.748zm20.683-.068V66.38c-.306.068-.441.068-.61.068-.985 0-1.528-.51-1.528-1.391V55.15c0-3.155-2.307-4.851-6.683-4.851-4.309 0-6.955 1.662-7.125 5.767h2.85c.237-2.171 1.527-3.155 4.173-3.155 2.545 0 3.97.95 3.97 2.646v.747c0 1.187-.713 1.696-2.952 1.967-4.004.51-4.614.645-5.7 1.086-2.07.848-3.121 2.443-3.121 4.614 0 3.223 2.239 5.123 5.835 5.123 2.273 0 4.479-.95 6.04-2.612a3.01 3.01 0 0 0 2.917 2.34c.577 0 1.018-.067 1.934-.305m-4.954-6.073c0 2.545-2.578 4.174-5.326 4.174-2.205 0-3.495-.78-3.495-2.715 0-1.866 1.256-2.68 4.275-3.121 2.986-.407 3.596-.543 4.546-.984z"/></g><defs><clipPath id="a"><path fill="#fff" d="M0 0h100v100H0z"/></clipPath></defs></g></svg>