<svg xmlns="http://www.w3.org/2000/svg" fill="none" viewBox="0 0 512 512"><g transform="translate(30.72 30.72) scale(4.506)"><g clip-path="url(#a)"><path fill="#113b6a" d="M90.02 0c-5.515 0-9.983 4.47-9.983 9.982 0 1.938.56 3.74 1.517 5.272l-6.356 6.356C67.214 14.384 56.627 9.982 45.01 9.982 20.152 9.982 0 30.134 0 54.992S20.152 100 45.01 100s45.01-20.15 45.01-45.009c0-11.616-4.404-22.204-11.63-30.19l6.357-6.355a9.9 9.9 0 0 0 5.273 1.518c5.511 0 9.98-4.469 9.98-9.981C100 4.47 95.531 0 90.02 0"/><path fill="#fff" d="M33.31 47.721q-.51 0-1.196.044-.687.045-1.39.136-.705.09-1.376.224a9 9 0 0 0-1.18.314q-.688.27-.853.525-.165.254-.105.642l.33 1.552q.118.448.312.51.195.059.822 0 .45-.03.987-.09.54-.06 1.078-.089l1.031-.059q.492-.03.822-.031.837 0 1.346.104.508.105.791.313.283.21.39.54.102.33.104.807v.477h-3.438q-1.315 0-2.393.256-1.077.254-1.824.836t-1.15 1.539q-.405.959-.374 2.333 0 .87.164 1.66.165.792.613 1.391t1.269.971q.822.373 2.14.373.567 0 1.255-.104a8 8 0 0 0 1.404-.358 9 9 0 0 0 1.406-.642 7.2 7.2 0 0 0 1.285-.926l.062.028q.3 1.197 1.136 1.571.838.373 1.944.374a7.7 7.7 0 0 0 1.853-.211q.867-.18.867-.776v-1.916q0-.268-.12-.372-.119-.105-.506-.136a3 3 0 0 1-.57-.09.66.66 0 0 1-.328-.192q-.12-.135-.165-.405a5 5 0 0 1-.044-.75v-4.72q0-1.346-.209-2.392-.21-1.047-.883-1.764-.672-.719-1.943-1.108-1.273-.387-3.364-.389m15.312.003q-1.316 0-2.43.3-1.117.298-1.918.898a4.3 4.3 0 0 0-1.264 1.498q-.46.9-.46 2.098 0 1.32.463 2.13.464.807 1.27 1.287a6.4 6.4 0 0 0 1.87.722q1.061.238 2.289.418.956.12 1.314.344.358.226.358.885 0 .6-.477.853-.48.257-1.616.257a24 24 0 0 1-2.001-.105 27 27 0 0 1-2.274-.284q-.507-.09-.687 0-.18.089-.27.506l-.327 1.425q-.15.594.06.874.208.282.956.548.448.148 1.03.266 1.24.252 2.498.342.582.043 1.164.045 1.286-.002 2.47-.253a6.7 6.7 0 0 0 2.105-.82 4.3 4.3 0 0 0 1.48-1.506q.553-.939.553-2.34 0-1.404-.478-2.253a3.8 3.8 0 0 0-1.276-1.357 5.6 5.6 0 0 0-1.845-.731 27 27 0 0 0-2.221-.373 12 12 0 0 1-1.336-.313q-.526-.164-.525-.728 0-.48.282-.763c.283-.284.665-.273 1.422-.253q.359.001.867.031t1.09.074q.584.045 1.184.12.596.075 1.103.135.51.06.645-.031.135-.09.253-.509l.328-1.537q.15-.574-.135-.799-.283-.227-.883-.438a7 7 0 0 0-1.058-.303q-.602-.123-1.211-.195-.62-.075-1.24-.12a16 16 0 0 0-1.122-.045m-28.98.029q-1.077 0-2.393.464a8.4 8.4 0 0 0-2.302 1.21.06.06 0 0 1-.044-.015q-.015-.015-.045-.016v-.717a1 1 0 0 0-.105-.447q-.105-.209-.524-.21h-3.258q-.387 0-.52.18-.137.178-.137.477v13.456q0 .3.136.462.134.165.522.164h3.257q.42.002.524-.193a.9.9 0 0 0 .105-.432v-9.27a22 22 0 0 0 1.375-.523Q17.07 52 17.789 52q.956.001 1.388.524.435.522.436 1.777 0 1.976-.015 3.918a501 501 0 0 0-.014 3.914q0 .63.658.63h3.289q.417 0 .521-.194a.9.9 0 0 0 .105-.432v-8.493q0-1.047-.105-2.093a5.2 5.2 0 0 0-.553-1.897q-.45-.852-1.362-1.375-.91-.525-2.495-.525m45.962 0a6.4 6.4 0 0 0-2.302.432 7.7 7.7 0 0 0-2.093 1.211l-.06-.03v-.687q0-.24-.12-.449-.117-.207-.533-.209H57.23q-.358 0-.49.18-.135.18-.133.478v13.453q0 .302.132.465.133.165.491.164h3.267q.415 0 .533-.195a.83.83 0 0 0 .12-.434v-9.267a11 11 0 0 1 1.401-.598q.768-.27 1.31-.268.812-.002 1.22.462.405.463.404 1.72v7.951q.001.302.136.465.132.165.493.164h3.289q.418.002.523-.193a.9.9 0 0 0 .105-.436v-9.267q.652-.336 1.344-.582Q72.15 52 72.689 52q.837-.002 1.256.446.42.45.42 1.824v7.863q0 .302.133.465.135.165.525.164h3.288q.387.002.493-.193a.9.9 0 0 0 .105-.436v-8.52q0-1.047-.09-2.094a5 5 0 0 0-.523-1.88q-.435-.839-1.316-1.363-.882-.522-2.467-.522-1.346 0-2.677.582c-.855.37-1.655.859-2.375 1.45a3.1 3.1 0 0 0-1.495-1.539q-1.017-.493-2.362-.493m-33.16 8.789h2.69v2.005q-.627.39-1.54.717-.913.33-1.6.33-.777-.003-1.063-.272-.282-.268-.283-.955 0-1.048.48-1.435.478-.39 1.315-.39"/></g><defs><clipPath id="a"><path fill="#fff" d="M0 0h100v100H0z"/></clipPath></defs></g></svg>