<svg xmlns="http://www.w3.org/2000/svg" fill="none" viewBox="0 0 512 512"><g transform="translate(30.72 29.4) scale(4.506)"><path fill="#f3d400" d="M50.397 16s-3.832 3.027-7.738 6.035c-4.019-.128-11.9.772-16.17 2.325-3.935-2.492-7.392-5.244-7.392-5.244s-2.954 5.082-4.811 8.064c-2.755 1.465-5.521 3.113-7.986 5.294A439 439 0 0 1 0 29.9c3.797 7.659 6.35 15.328 13.294 19.937 11.055-17.46 62.426-15.85 73.71-.099 7.292-3.802 10.128-11.985 12.996-19.54-.314.103-4.216 1.41-6.746 2.374-1.51-1.644-5.07-4.172-7.093-5.392-1.92-3.514-4.713-8.262-4.713-8.262s-3.308 2.46-7.142 5.145c-5.18-.956-11.447-2.118-16.717-1.83-3.587-2.95-7.192-6.234-7.192-6.234"/><path fill="#ffe953" d="m3.926 46.177 9.12 22.087c15.838 20.896 56.283 22.348 73.915.404 4.173-9.403 9.802-22.618 9.802-22.618-4.524 6.702-11.885 11.328-16.42 13.82-3.221 1.764-10.655 2.831-10.655 2.831L50.172 52.588l-19.629 9.911s-7.335-1.178-10.655-2.73c-6.702-3.578-11.21-7.805-15.962-13.592"/></g></svg>