<svg xmlns="http://www.w3.org/2000/svg" fill="none" viewBox="0 0 512 512"><g transform="translate(30.72 28.52) scale(4.506)"><path fill="#fff" d="M51.881 83.633c-.198-.792.198-1.782-.198-2.575-.198-.792-.792-.792-.99-1.386-.792-1.584-1.782-3.366-1.782-5.346 0-1.584-.594-3.168-.792-4.753v-2.376c0-.396 0-.792-.198-1.188 0-.198 0-.594-.198-.594l.198-.594c0-.198 1.782-.198 2.376-.198.99 0 1.782 0 2.772.198 1.98 0 3.565 0 5.545-.198 4.158-.594 5.94-2.376 6.93-2.97 3.763-2.575 5.545-7.13 5.545-7.13.594-1.385.594-3.96 1.98-4.95 1.584-1.386 4.159-1.188 5.94-1.98.991-.396 1.783-.792 2.971-.594.792.198 2.178 1.188 2.575-.198l-.595-.594c1.585-.198 0-3.564-.594-4.357-.99-.99-2.376-1.584-3.96-1.98-1.98-.594-3.762-1.188-5.545-.792-3.168.594-2.97-1.188-4.752-1.188-2.178 0-6.139.198-6.93 2.376-.397.99-.595.99-1.189 1.783-.396.594 0 1.188-.198 1.98s-.594 3.564-.99 4.554c-.594 1.584-1.386 3.565-2.772 3.565-1.98.198-3.565.396-5.149-.199-.99-.395-2.574-.99-3.366-1.188-3.763-1.584-4.357-3.168-4.357-3.168-.396-.594-1.386-1.782-1.782-3.168-.396-1.584-1.188-2.772-1.386-3.565-.396-.792-.99-2.178-1.584-3.564-.792-1.782-1.782-3.168-2.574-3.762-1.188-.99-2.178-2.575-4.555-2.178-.396 0-1.98.197-3.168 1.188-.792.594-.99 1.98-1.782 3.168-.396.594-1.188 2.574-1.782 4.158-.397 1.189-.594 1.98-1.189 2.377-.396.396-.792.792-1.386.594l-1.188-.594c-.594-.397-1.782-2.575-2.574-3.96-.594-1.387-1.98-3.367-2.772-4.357-1.188-1.584-1.783-1.98-3.565-1.98-3.564 0-3.96 1.98-5.544 4.95-.792 1.386-.99 3.366-2.376 4.95-.595.793-3.17 4.556-4.951 5.15v27.327-.198c.198-.396.198-.792.396-.99.792-1.387 2.376-2.773 3.168-4.357.396-.792.99-1.584 1.386-2.574.199-.594.397-1.782.793-2.376.396-.792 1.188-.99 1.98-1.188 1.386-.198 2.376 1.782 3.96 2.574.594.396 3.762 1.386 4.753 1.584 1.584.396 3.168.594 4.752.99.792.198 1.584.198 2.574.396.793 0 3.763.198 3.763.396-1.386.792-2.376 2.773-2.97 4.357s-.99 3.366-1.585 4.752c-.792 1.584-2.376 2.376-2.178 4.357 0 .792.198 1.584 0 2.376-.198.99-.594 1.584-.792 2.574-.396 1.188-.792 4.95-1.188 5.94l3.168-.395c.396-.793.594-4.357.792-4.753.594-1.782 1.386-3.168 2.575-4.554 1.188-1.386 1.188-2.97 1.782-4.555.792-1.782 1.782-2.97 2.772-4.554 1.782-2.772 2.97-6.535 6.535-7.327.396 0 2.574 1.584 3.564 2.574 1.188 1.188 2.376 2.376 3.168 3.96 1.386 2.971 2.773 7.327 3.169 9.506.198 1.386.396 1.386 1.386 2.574.396.396 1.188 1.98 1.584 2.574.198.594.792 1.98.99 2.772.198.397.792 1.783 1.188 2.97h2.97c-1.188-3.366-2.178-6.732-2.574-10.098"/><path fill="url(#a)" d="M50.297 90.563c-.396-.792-.792-2.178-.99-2.772s-1.188-2.178-1.584-2.574c-.99-.99-1.188-1.188-1.386-2.574-.396-2.377-1.783-6.733-3.169-9.505-.792-1.585-1.98-2.773-3.168-3.96-.99-.99-3.168-2.575-3.564-2.575-3.763.792-4.753 4.357-6.535 7.327-.99 1.584-1.98 2.97-2.772 4.554s-.594 3.367-1.782 4.555c-1.189 1.386-1.98 2.772-2.575 4.554-.198.396-.396 3.96-.792 4.753l5.545-.396c5.148.396 3.564 2.376 11.683 1.98l12.673-.396c-.792-1.188-1.386-2.575-1.584-2.97"/><path fill="url(#b)" d="M87.129 6.999H12.475C5.545 6.999 0 12.742 0 19.672v27.525c1.782-.792 4.356-4.554 5.149-5.544 1.386-1.585 1.584-3.763 2.376-4.951 1.584-2.97 1.98-4.95 5.544-4.95 1.782 0 2.376.396 3.565 1.98.792.99 2.178 2.97 2.772 4.158.792 1.584 1.98 3.565 2.574 3.96q.594.594 1.188.595c.594.198.99-.199 1.387-.595.593-.395.791-1.188 1.188-2.376.594-1.584 1.386-3.564 1.782-4.158.792-1.188.99-2.574 1.782-3.169 1.188-.99 2.574-.99 3.168-1.188 2.377-.396 3.367 1.189 4.555 2.179.792.594 1.782 1.98 2.574 3.762.594 1.386 1.386 2.772 1.584 3.564s.99 1.98 1.386 3.565c.396 1.386 1.386 2.376 1.782 3.168 0 0 .594 1.782 4.357 3.168.792.396 2.376.792 3.366 1.188 1.584.595 3.169.595 5.149.199 1.386 0 2.178-1.98 2.772-3.565.396-.99.792-3.762.99-4.554s-.396-1.387.198-1.98c.594-.793.792-.793 1.188-1.783.594-2.178 4.753-2.376 6.93-2.376 1.783 0 1.585 1.782 4.753 1.188 1.783-.396 3.565.198 5.545.792 1.584.396 3.168.99 3.96 1.98.594.594 1.98 4.159.594 4.357.198.198.198.396.594.594-.396 1.386-1.782.396-2.574.198-.99-.198-1.782 0-2.97.594-1.782.792-4.555.792-5.94 1.98-1.387 1.188-1.387 3.565-1.98 4.95 0 0-1.783 4.555-5.545 7.13-.99.791-2.773 2.376-6.931 2.97-1.782.198-3.564.396-5.545.198-.99 0-1.782 0-2.772-.198-.594 0-2.376 0-2.376.198l-.198.594c0 .198 0 .594.198.594 0 .396 0 .792.198 1.188v2.376c0 1.584.594 3.169.792 4.753 0 1.782.99 3.762 1.782 5.346.396.594.792.594.99 1.386s0 1.585.198 2.575a30 30 0 0 0 2.97 9.9c1.783-.395 3.763-.99 6.14-1.386 4.356-.594 10.494-.395 14.455-.594 9.9-.99 15.445 4.159 24.356 1.98V19.673C99.802 12.742 94.257 7 87.129 7"/><path fill="url(#c)" d="M22.97 77.692c.792-1.584 1.188-3.168 1.585-4.752.593-1.584 1.386-3.565 2.97-4.357-.198-.198-3.169-.396-3.763-.396-.792 0-1.584-.198-2.574-.396-1.584-.396-3.366-.594-4.752-.99-.99-.198-3.96-1.386-4.753-1.584-1.584-.792-2.574-2.772-3.96-2.574-.792.198-1.584.396-1.98 1.188-.396.594-.594 1.782-.793 2.574-.396.792-.792 1.782-1.386 2.574-.99 1.585-2.574 2.97-3.168 4.357-.198.396-.198.594-.396.99v17.03c.792.198 1.584.396 2.574.594 6.93 1.782 8.713 1.98 15.644 1.188h.594c.594-1.188.99-4.753 1.188-5.94.198-.793.594-1.585.792-2.575.198-.792 0-1.584 0-2.376-.198-2.178 1.386-2.97 2.178-4.555"/><defs><linearGradient id="a" x1="36.608" x2="36.608" y1="66.662" y2="93.98" gradientUnits="userSpaceOnUse"><stop stop-color="#f29100"/><stop offset="1" stop-color="#ec670f"/></linearGradient><linearGradient id="b" x1="49.885" x2="49.885" y1="7.04" y2="94.033" gradientUnits="userSpaceOnUse"><stop stop-color="#f29100"/><stop offset="1" stop-color="#ec670f"/></linearGradient><linearGradient id="c" x1="13.754" x2="13.754" y1="62.594" y2="93.432" gradientUnits="userSpaceOnUse"><stop stop-color="#f29100"/><stop offset="1" stop-color="#ec670f"/></linearGradient></defs></g></svg>