<svg xmlns="http://www.w3.org/2000/svg" fill="none" viewBox="0 0 512 512"><g transform="translate(30.72 30.72) scale(4.506)"><g clip-path="url(#a)"><path fill="#fff" d="M94.665 49.123C94.665 22.523 73.983.96 48.466.96c-25.514 0-46.2 21.563-46.2 48.163s20.685 48.165 46.2 48.165c25.517 0 46.2-21.565 46.2-48.165"/><path fill="#212178" d="M41.672 99.622c-10.867-1.922-20.19-6.884-27.893-14.848C7.226 78.002 2.716 69.475.666 59.97c-.888-4.106-.888-15.849 0-19.953 1.388-6.424 4.08-12.803 7.753-18.366 2.432-3.683 9.553-10.802 13.234-13.235C27.218 4.745 33.6 2.05 40.023.666c4.104-.888 15.849-.888 19.956 0C69.984 2.826 78.3 7.344 85.476 14.52c7.178 7.176 11.696 15.49 13.859 25.5.885 4.102.885 15.845 0 19.952-2.163 10.005-6.681 18.319-13.859 25.496-7.06 7.063-15.273 11.571-25.114 13.789-3.49.788-15.03 1.013-18.69.365m9.036-9.978c0-3.276-.048-3.513-.708-3.513-.655 0-.706.225-.68 3.044.035 3.332.269 4.353.947 4.129.313-.104.441-1.165.441-3.66m-5.279 1.129c.932-.934 1.205-1.5 1.205-2.507 0-1.028-.125-1.277-.596-1.187-.326.061-.718.594-.87 1.178s-.782 1.487-1.393 2.007c-1.108.935-1.15 1.713-.098 1.713.302 0 1.09-.545 1.752-1.204m11.675.818c.13-.21-.265-.81-.877-1.327-.614-.52-1.241-1.423-1.393-2.007-.155-.584-.548-1.117-.873-1.178-.469-.09-.594.159-.594 1.187 0 2.038 2.924 4.642 3.737 3.325m-16.14-6.364c0-.204-.496-.642-1.102-.974-3.949-2.163-8.583-5.606-11.157-8.289-5.025-5.242-7.289-10.459-7.343-16.935-.038-4.329.52-6.587 2.628-10.63 2.038-3.909 4.399-6.859 10.898-13.61 7.256-7.541 8.926-9.53 10.186-12.135.897-1.849 1.016-2.524 1.14-6.433.156-4.856-.14-8.208-.724-8.208-.264 0-.313 1.26-.164 4.089.487 9.056-1.195 11.867-11.634 19.438-7.19 5.214-10.487 8.047-12.979 11.144-3.53 4.383-5.094 8.177-5.483 13.32-.943 12.397 6.913 23.148 20.774 28.426 3.058 1.162 4.96 1.47 4.96.797m23.984-1.004c4.764-1.987 8.387-4.387 11.804-7.818 5.209-5.235 7.374-10.13 7.7-17.376.283-6.355-1.095-10.56-5.029-15.32-2.695-3.261-5.595-5.595-13.417-10.79-10.523-6.994-12.995-9.778-12.995-14.645 0-1.296.235-3.13.518-4.076.486-1.616.475-2.729-.016-1.455-.462 1.208-1.521.654-2.09-1.101l-.547-1.681.207 1.593c.736 5.658.828 8.028.501 12.98-.44 6.696-1.262 11.272-3.523 19.591-2.242 8.26-2.646 11.254-2.367 17.56.235 5.332.98 9.32 2.714 14.525 1.61 4.831 1.91 5.199 4.871 5.957 1.628.416 3.17 1.12 4.397 2.004 1.153.834 2.306 1.375 2.953 1.387.585.01 2.53-.59 4.319-1.335m-1.072-2.403c-.441-.441-.234-.819 1.494-2.729 5.445-6.011 7.886-12.22 7.956-20.24.049-5.462-1.159-9.083-4.844-14.525-1.664-2.46-7.527-8.6-10.362-10.854-2.078-1.651-4.217-4.469-4.597-6.062-.387-1.616.696-1.19 1.95.765.614.959 1.947 2.367 2.96 3.128 1.013.764 4.01 2.997 6.66 4.965 9.112 6.774 13.17 12.552 14.08 20.057.53 4.34-.31 8.828-2.427 12.995-2.197 4.316-6.2 9.02-9.63 11.31-2.112 1.409-2.778 1.652-3.24 1.19m-17.841.456c.104-.268-.81-1.98-2.026-3.808-3.225-4.837-4.628-7.505-5.936-11.293-1.104-3.191-1.165-3.625-1.175-8.502-.012-7.368.785-9.705 6.633-19.414 5.513-9.155 6.262-12.702 5.64-26.786-.224-5.047-.477-9.248-.562-9.336-.581-.581-.706.916-.49 5.992.426 10.11-.228 15.74-2.358 20.361-1.451 3.146-3.076 5.528-7.445 10.94-6.084 7.528-7.8 11.523-7.77 18.066.024 4.487.63 7.247 2.443 11.083 1.962 4.156 5.574 8.35 10.101 11.727 2.084 1.558 2.649 1.743 2.945.97"/></g><defs><clipPath id="a"><path fill="#fff" d="M0 0h100v100H0z"/></clipPath></defs></g></svg>