<svg xmlns="http://www.w3.org/2000/svg" fill="none" viewBox="0 0 512 512"><g transform="translate(27.151 32.058) scale(4.568)"><path fill="#111419" d="M37.029 70.518h33.759l-7.688-7.14H29.342zM70.788 45.49H37.03l-7.688 7.137H63.1zM37.029 34.739h33.755l-7.684-7.14H29.345zm-11.24 7.068-5.078-5.05L1.882 55.478a3.55 3.55 0 0 0-1.047 2.523c0 .956.373 1.853 1.047 2.524l18.829 18.726 5.078-5.048L9.502 58.002zm72.459-4.215L79.424 18.864l-5.075 5.047L90.63 40.113 74.35 56.315l5.074 5.047 18.824-18.72a3.56 3.56 0 0 0 .777-3.894 3.6 3.6 0 0 0-.777-1.156"/></g></svg>