<svg xmlns="http://www.w3.org/2000/svg" fill="none" viewBox="0 0 512 512"><g transform="translate(30.72 30.72) scale(4.506)"><path fill="url(#a)" fill-rule="evenodd" d="M50 78.422c-27.614 0-50-14.992-50-33.487s22.386-33.487 50-33.487 50 14.992 50 33.487c0 18.494-22.386 33.487-50 33.487m7.653-53.88c-20.989 0-38.005 10.248-38.005 22.892s17.016 22.893 38.005 22.893 36.479-7.008 36.479-22.893c0-15.88-15.49-22.893-36.479-22.893" clip-rule="evenodd"/><path fill="url(#b)" fill-rule="evenodd" d="M76.148 63.307s3.026.914 4.784 1.803c.61.309 1.666.925 2.427 1.734.446.473.82 1.01 1.109 1.594l11.927 20.11-19.277.007-9.013-16.927s-1.846-3.171-2.982-4.091c-.948-.767-1.352-1.04-2.289-1.04h-4.58l.004 22.046-17.057.007V32.235h34.253s15.602.28 15.602 15.124c0 14.843-14.908 15.948-14.908 15.948m-7.42-18.857-10.326-.007-.005 9.577 10.331-.004s4.785-.015 4.785-4.871c0-4.953-4.785-4.695-4.785-4.695" clip-rule="evenodd"/><defs><linearGradient id="a" x1=".001" x2="61.932" y1="11.441" y2="103.91" gradientUnits="userSpaceOnUse"><stop stop-color="#cbced0"/><stop offset="1" stop-color="#84838b"/></linearGradient><linearGradient id="b" x1="41.201" x2="97.509" y1="32.234" y2="87.415" gradientUnits="userSpaceOnUse"><stop stop-color="#276dc3"/><stop offset="1" stop-color="#165caa"/></linearGradient></defs></g></svg>