<svg xmlns="http://www.w3.org/2000/svg" fill="none" viewBox="0 0 512 512"><g transform="translate(30.72 30.72) scale(4.506)"><g clip-path="url(#a)"><path fill="#fff" d="M100 50c0 27.398-22.385 49.61-50 49.61S0 77.397 0 50 22.385.39 50 .39 100 22.603 100 50"/><path fill="#3e5ba9" d="M89.34 80.619C96.02 72.188 100 61.556 100 50 100 22.602 77.615.39 50 .39a50.3 50.3 0 0 0-17.102 2.977c20.299 10.567 47.15 45.037 56.443 77.252"/><path fill="#9f1d20" d="M42.84 32.035c-7.8-8.338-16.534-14.958-25.788-19.348C6.602 21.777 0 35.125 0 50c0 12.508 4.668 23.935 12.367 32.66 6.788-20.232 19.545-39.731 30.473-50.625m9.213 11.25C41.227 54.859 30.443 75.12 26.538 93.816a50.1 50.1 0 0 0 23.461 5.793c8.72 0 16.917-2.215 24.052-6.107-4.116-18.86-11.878-36.13-21.998-50.217"/></g><defs><clipPath id="a"><path fill="#fff" d="M0 0h100v100H0z"/></clipPath></defs></g></svg>