<svg xmlns="http://www.w3.org/2000/svg" fill="none" viewBox="0 0 512 512"><g transform="translate(30.72 30.72) scale(4.506)"><path fill="url(#a)" d="M100 13.082 80.727 46.464l-5.246-9.096h-9.323l8.334 14.448L70.81 58.2l4.661 8.052 5.292-9.143L96.96 85.164 100 86.92V74.28L86.995 51.754 100 29.231zM0 18.23v48.02h8.075V26.304h2.507l4.195 7.268-5.876 3.39v11.446L19.2 66.25h9.327l-13.55-23.47 10.829-6.253L15.244 18.23zm26.002 19.14-9.895 5.713L29.482 66.25h15.232l3.229-5.593v-9.649l-8.075 4.661v2.804h-6.141v-.645l17.616-10.145-5.949-10.315zm20.252 0 8.041 13.938-8.627 14.941h9.327l5.09-8.82 5.093 8.82h9.324l-8.627-14.941 3.685-6.382-4.356-7.558-4.906 8.512-4.907-8.512zm-19.68 8.074h12.48l-9.363 5.392z"/><path fill="#000" d="m25.581 36.137.227.39h60.656l.226-.39H25.58"/><defs><linearGradient id="a" x1="-.001" x2="-.001" y1="86.918" y2="18.229" gradientUnits="userSpaceOnUse"><stop stop-color="#a51415"/><stop offset=".5" stop-color="#d81511"/><stop offset="1" stop-color="#bf100d"/></linearGradient></defs></g></svg>