<svg xmlns="http://www.w3.org/2000/svg" fill="none" viewBox="0 0 512 512"><g transform="translate(32.48 30.72) scale(4.506)"><g fill-rule="evenodd" clip-path="url(#a)" clip-rule="evenodd"><path fill="#380d09" d="M18.093 37.21c.872 1.202 8.228 3.47 19.2 5.832 10.971 2.103 22.382 10.406 31.255 7.846 6.002-1.735 12.514-17.196 12.514-19.492v-.236c0-1.603-1.203-2.89-3.244-3.96-8.37-4.277-9.953-5.851-13.056-4.998-16.106 4.446-44.542 2.174-46.669 15.008m0 31.392c.872 1.221 8.228 3.47 19.2 5.837 12.259 2.235 22.92 9.52 31.798 6.955 6.002-1.735 11.97-16.305 11.97-18.606v-.226c0-1.598-1.202-2.89-3.243-3.956-6.384-3.395-14.82-7.134-17.917-6.28-16.135 4.437-37.701 5.413-41.808 16.276"/><path fill="#555" d="M18.004 43.957v.226a2 2 0 0 1 0-.226"/><path fill="#de3423" d="M69.067 6.067c-14.833 4.286-38.366 6.705-51.044 6.705v24.211a.38.38 0 0 0 .089.227c8.652 0 35.362-2.83 51.478-7.261a61 61 0 0 0 8.247-2.74c1.97-.886 3.244-1.82 3.244-2.791V-.001c-.02 2.3-6.012 4.338-12.014 6.068m0 31.397c-8.878 2.56-20.86 4.465-31.774 5.578-7.328.75-14.174 1.141-19.27 1.141v24.193a.38.38 0 0 0 .089.226c8.652 0 35.362-2.83 51.478-7.257a61.5 61.5 0 0 0 8.247-2.739c1.97-.891 3.244-1.82 3.244-2.791V31.396c-.02 2.296-6.012 4.333-12.014 6.068m0 31.416c-8.878 2.56-20.86 4.46-31.774 5.578-7.337.75-14.192 1.14-19.29 1.14v24.4c8.563 0 35.41-2.805 51.568-7.255 5.955-1.641 11.49-3.508 11.49-5.536V62.788c0 2.32-5.992 4.338-11.994 6.092"/></g><defs><clipPath id="a"><path fill="#fff" d="M0 0h100v100H0z"/></clipPath></defs></g></svg>