<svg xmlns="http://www.w3.org/2000/svg" fill="none" viewBox="0 0 512 512"><g transform="translate(28.946 28.946) scale(4.541)"><path fill="#000" d="M61.06 23.428v1.427c3.245 0 4.307.122 5.611 1.956l11.395 16.737L67.79 58.56c-2.536 3.672-6.374 3.736-7.503 3.736v1.427c.93-.078 2.278-.1 3.495-.108-1.175 7.499-2.57 11.55-12.151 11.55H43.43c-2.359 0-2.47-.298-2.47-2.33V56.321h5.572c5.573 0 6.105 2.042 6.105 7.028h.949V47.983h-.95c0 4.901-.532 6.905-6.104 6.905h-5.574v-14.64c0-1.994.113-2.292 2.472-2.292h8.076c9.14 0 10.206 3.633 11.034 11.444h1.064l-1.417-13.066H36.45l-.953-12.822H1.388L.389 36.577h1.063c.762-9.785 1.6-11.498 10.761-11.498h3.262c1.128.176 1.128.894 1.128 2.254V59.49c0 2.135-.18 2.786-5.155 2.786H9.77v1.427c2.835-.055 5.788-.112 8.685-.112 2.89 0 5.852.057 8.684.112v-1.427H25.49c-4.902 0-5.078-.651-5.078-2.787V27.335c0-1.304 0-2.012 1.063-2.254h3.242c8.961 0 9.908 1.68 10.667 11.254h-3.11v1.622c4.185 0 4.855 0 4.855 2.656v31.88c0 2.656-.662 2.656-4.855 2.656v1.426h30.742l1.843-12.962h.44c1.593 0 4.37-.001 5.841.111v-1.427c-1.827-.177-2.356-1.36-2.356-2.312 0-.763.29-1.183.587-1.602l9.45-13.79 10.276 15.104c.465.653.465.83.465 1.007 0 .465-.53 1.481-2.598 1.602v1.428c1.891-.113 4.78-.113 6.727-.113 1.53 0 4.482 0 5.915.113v-1.428c-3.784 0-4.379-.289-5.553-1.956L81.066 41.348l8.74-12.636c.875-1.241 2.656-3.793 7.503-3.858v-1.426c-1.353.113-3.597.113-5.014.113-1.947 0-4.371 0-5.843-.113v1.427c1.892.177 2.357 1.359 2.357 2.312 0 .706-.29 1.182-.708 1.769l-7.8 11.312-8.738-12.794c-.41-.643-.468-.83-.468-1.007 0-.531.643-1.538 2.6-1.594v-1.426c-1.892.113-4.78.113-6.727.113-1.53 0-4.482 0-5.91-.113z"/></g></svg>