<svg xmlns="http://www.w3.org/2000/svg" fill="none" viewBox="0 0 512 512"><g transform="translate(30.72 30.72) scale(4.506)"><g clip-path="url(#a)"><path fill="url(#b)" d="M0 0h100v100H0z"/><path fill="url(#c)" d="M47.797 25.039c-12.437 3.198-23.13 6.51-24.953 18.508-.297 2.034-.203 4.054.49 5.99q1.173 3.004 5.241 3.531c1.065.145 4.949.864 4.855-.856-.1-.579-.455-1.221-.738-1.89-.45-.986-.415-2.049-.412-3.041q.231-5.224 2.75-8.847 1.985-2.815 5.06-4.578l1.09 46.219c0 .678.447 1.038 1.329 1.038h10.375c.748 0 1.04-.26 1.286-.921 6.66-17.77 13.217-35.58 19.9-53.34.089-.9-.838-1.24-1.497-1.468h-4.874c-.857-.03-1.361.467-1.536.98l-11.99 34.882-.753-33.294v-2.149l-1.39-.63h-1.388a29 29 0 0 0-2.845-.138z"/><path fill="url(#d)" d="m42.593 79.726-1.145-48.544q-4.996 1.873-7.807 5.864-2.776 3.99-2.776 9.924 0 2.88.798 4.337.174.278.174.486-5.69 0-7.114-3.643-.486-1.319-.486-3.262 0-3.575 2.221-6.87 2.256-3.331 5.795-5.9 8.085-5.69 16.933-5.69 1.457 0 2.845.14l.625 43.72L67.61 26.776h4.962l-19.744 52.95z"/><path fill="#fff" d="m42.594 78.335-1.145-48.544q-4.998 1.873-7.807 5.864-2.776 3.99-2.776 9.924 0 2.88.797 4.337.174.277.175.486-5.692 0-7.114-3.644-.486-1.317-.486-3.261 0-3.575 2.22-6.87 2.256-3.331 5.795-5.899 8.086-5.691 16.933-5.691 1.458 0 2.845.14l.625 43.721 14.956-43.513h4.962l-19.745 52.95z"/></g><defs><linearGradient id="b" x1="0" x2="0" y1="0" y2="99.23" gradientUnits="userSpaceOnUse"><stop stop-color="#a56de2"/><stop offset="1" stop-color="#7239b3"/></linearGradient><linearGradient id="c" x1="52.031" x2="52.031" y1="25.178" y2="82.048" gradientUnits="userSpaceOnUse"><stop stop-color="#8b58c9"/><stop offset="1" stop-color="#743fb3"/></linearGradient><linearGradient id="d" x1="52.031" x2="52.031" y1="25.18" y2="80.421" gradientUnits="userSpaceOnUse"><stop stop-color="#7548b2"/><stop offset="1" stop-color="#6639a4"/></linearGradient><clipPath id="a"><path fill="#fff" d="M0 0h100v100H0z"/></clipPath></defs></g></svg>