<svg xmlns="http://www.w3.org/2000/svg" fill="none" viewBox="0 0 512 512"><g transform="translate(30.72 30.72) scale(4.506)"><g clip-path="url(#a)"><g clip-path="url(#b)"><path fill="#004e8c" d="M50 100c27.614 0 50-22.386 50-50S77.614 0 50 0 0 22.386 0 50s22.386 50 50 50"/><path fill="#fff" d="M15.344 14.063a50 50 0 1 0 70.593 70.593z" opacity=".1"/><path fill="#fff" d="M52.016 30.313 37.5 69.688h-5.14L18.077 30.313h5.14l10.938 31.25c.377 1.133.644 2.3.797 3.484h.11c.163-1.215.457-2.41.874-3.563l11.126-31.25zm5.672 39.374V30.312H68.89a12.25 12.25 0 0 1 8.093 2.5 8.08 8.08 0 0 1 3 6.516 9.58 9.58 0 0 1-1.859 5.813 9.8 9.8 0 0 1-5 3.515v.11a10.02 10.02 0 0 1 6.375 3 9.25 9.25 0 0 1 2.39 6.609 10.3 10.3 0 0 1-3.624 8.187 13.5 13.5 0 0 1-9.141 3.125zm4.687-35.218v12.718h4.688a8.97 8.97 0 0 0 5.921-1.875 6.36 6.36 0 0 0 2.172-5.156q0-5.734-7.547-5.734zm0 16.86v14.17h6.25a9.38 9.38 0 0 0 6.25-1.92 6.58 6.58 0 0 0 2.234-5.267q0-6.968-9.5-6.968z"/></g></g><defs><clipPath id="a"><path fill="#fff" d="M0 0h100v100H0z"/></clipPath><clipPath id="b"><path fill="#fff" d="M0 0h100v100H0z"/></clipPath></defs></g></svg>