<svg xmlns="http://www.w3.org/2000/svg" fill="none" viewBox="0 0 512 512"><g transform="translate(30.72 30.72) scale(4.506)"><g clip-path="url(#a)"><path fill="#9f4cf2" d="M57 82.93 26.924 52.862c-1.225-1.275-1.9-3-1.9-4.924V5.023c0-2.499-2.5-4.998-5-4.998H9.998c-2.5 0-5 2.5-5 4.998v49.988c0 2.65.975 5.2 2.85 7.073L42.85 97.076A9.96 9.96 0 0 0 49.925 100h5c2.775 0 5-2.25 5-4.998v-4.975A9.95 9.95 0 0 0 57 82.955zM95 4.998C95 2.474 92.525 0 90 0H79.976c-2.5 0-5 2.5-5 4.998v42.89a7.08 7.08 0 0 1-2 4.949L62.9 62.909a9.95 9.95 0 0 0-2.925 7.074v4.998a4.997 4.997 0 0 0 5 4.999h5c2.55 0 5.125-.975 7.075-2.925l15-14.996a10 10 0 0 0 2.926-7.072V4.998z"/></g><defs><clipPath id="a"><path fill="#fff" d="M0 0h100v100H0z"/></clipPath></defs></g></svg>