<svg xmlns="http://www.w3.org/2000/svg" fill="none" viewBox="0 0 512 512"><g transform="translate(30.72 30.72) scale(4.506)"><g clip-path="url(#a)"><path fill="#000" d="M50 0a50 50 0 1 0 0 100A50 50 0 0 0 50 0"/><path fill="#d10" d="M95 49.999c0 15.469-7.969 29.922-21.094 38.125L58.437 68.905l12.813 1.406s6.172.625 7.578 0c1.25-.468 8.203-10.234 8.203-10.234s-19.844-12.5-26.562-19.453c.781-11.64-.86-27.11-.86-26.953-5 5-5.625 5.781-10.625 10.39-2.187-7.03-3.203-9.453-5.39-16.484-6.563 5.39-11.485 14.453-15.078 25.078a38 38 0 0 0-2.266 2.734c-.469.625-.937 1.329-1.406 1.954-1.016 1.406-1.875 2.812-2.735 4.296-.625 1.094-1.25 2.188-1.797 3.282-4.14 7.812-7.578 16.719-10.546 24.844 0 0 0-.079-.079-.079-8.28-16.718-5.312-36.64 7.266-50.234C29.531 5.78 49.141 1.327 66.406 8.046 83.672 14.843 95 31.483 95 49.999"/><path fill="#fff" d="M51.25 33.985s-.781-4.453-1.25-6.093c3.438-3.36 3.984-3.828 7.266-7.032.234 6.407.156 9.688-.235 17.5-1.875-1.953-5.781-4.375-5.781-4.375M36.328 56.017s-3.594-2.188-6.25-2.579c.781-1.796 2.813-4.062 3.36-4.765-1.016.39-8.438 3.672-9.22 6.484 2.11.547 4.141 1.172 6.173 2.032-2.657 3.046-4.297 6.875-4.766 10.859 0 0 11.797-1.797 20.625-.625.156.078.313.156.469.156l4.61.156L65.937 92.11l.156.157h-.078c-27.579 10-47.5-8.36-51.797-14.766 0-.078 0-.078.078-.156 3.75-16.172 8.516-35.547 16.172-41.25 3.984-6.953 5.156-17.11 12.265-22.5 1.797 5.39 4.61 16.484 6.563 21.875 8.437 8.437 21.25 18.906 29.766 23.281.859.547 2.03 4.063 2.03 4.063l-3.437 4.375-36.797-3.672c-.859-.079-1.64-.079-2.5-.079-2.578 0-5.078.313-7.656.704 1.797-4.532 5.625-8.125 5.625-8.125m11.875-4.766c2.031-.234 4.219.547 6.64 1.953 2.266-.625 2.579-.781 4.844-1.406-2.968-2.188-6.171-4.453-10.468-3.828-.39 1.093-.703 2.187-1.016 3.281"/></g><defs><clipPath id="a"><path fill="#fff" d="M0 0h100v100H0z"/></clipPath></defs></g></svg>