<svg xmlns="http://www.w3.org/2000/svg" fill="none" viewBox="0 0 512 512"><g transform="translate(30.72 30.72) scale(4.506)"><path fill="#f7a41d" d="M30.066 18.628 18.3 33.007l-5.882-9.15z"/><path fill="#f7a41d" d="m30.066 18.628-8.497 7.19-3.268 7.189h-3.922V66.34h5.883l-7.19 3.268L7.843 80.72H0V18.628z"/><path fill="#f7a41d" d="M20.261 66.34 7.843 80.72l-5.23-7.19zm16.34-47.712 3.922 9.15-16.34 5.229z"/><path fill="#f7a41d" d="M36.601 18.628H72.55v14.379H24.183L36.6 25.165zM75.817 66.34 63.398 80.72l-4.575-8.497z"/><path fill="#f7a41d" d="M75.817 66.339 65.36 72.222l-1.96 8.496H27.45v-14.38z"/><path fill="#f7a41d" d="m98.039 4.248-64.053 76.47L1.961 95.751l64.052-77.124zm-5.883 14.379-.653 11.766-11.765 3.267z"/><path fill="#f7a41d" d="M100 18.628v62.091H69.28l9.15-7.843 3.268-6.536h3.922V33.66h-5.883l6.536-5.882 5.883-9.15z"/><path fill="#f7a41d" d="m81.699 66.339 3.268 9.805-15.686 4.574z"/></g></svg>