<svg xmlns="http://www.w3.org/2000/svg" fill="none" viewBox="0 0 512 512"><g transform="translate(30.72 30.72) scale(4.506)"><g clip-path="url(#a)"><path fill="#005af0" d="M50 0c27.617 0 50 22.388 50 50s-22.383 50-50 50C22.388 100 0 77.612 0 50S22.388 0 50 0m-3.833 80.325 20.975-34.904a1.85 1.85 0 0 0 .404-1.117 1.896 1.896 0 0 0-1.896-1.896l-11.88.017 3.85-22.783-3.862-.013L32.85 54.492s-.417.762-.417 1.212c0 1.046.85 1.896 1.896 1.896l11.796-.017-3.754 22.742z"/></g><defs><clipPath id="a"><path fill="#fff" d="M0 0h100v100H0z"/></clipPath></defs></g></svg>