<svg xmlns="http://www.w3.org/2000/svg" fill="none" viewBox="0 0 512 512"><g transform="translate(28.07 28.953) scale(4.523)"><g clip-path="url(#a)"><path fill="#ff6250" d="M7.347.5h86.12a.633.633 0 0 1 .58.91 96.6 96.6 0 0 1-32.476 37.167C39.18 53.684 16.634 55.244 7.353 55.327a.64.64 0 0 1-.6-.39.6.6 0 0 1-.05-.247V1.136A.637.637 0 0 1 7.347.5"/><path fill="#ffdf90" d="M25.934 100.5c10.62 0 19.23-8.61 19.23-19.23s-8.61-19.23-19.23-19.23-19.23 8.609-19.23 19.23c0 10.62 8.609 19.23 19.23 19.23"/><path fill="#36f" d="M65.244 99.36c-5.44-2.076-8.334-8.062-6.49-13.362L73.27 44.57c1.86-5.3 7.777-7.91 13.217-5.833 5.44 2.08 8.333 8.063 6.49 13.367L78.46 93.53c-1.86 5.3-7.776 7.913-13.216 5.83"/></g><defs><clipPath id="a"><path fill="#fff" d="M0 0h100v100H0z"/></clipPath></defs></g></svg>