<svg xmlns="http://www.w3.org/2000/svg" fill="none" viewBox="0 0 512 512"><g transform="translate(30.72 29.4) scale(4.506)"><path fill="#3f894a" d="M29.794 74.737c-.12-1.597-.564-3.345-2.328-4.954q0-.003-.008-.007a9 9 0 0 0-.218-.194c-.011-.006-.018-.016-.026-.02-2.441-2.23-4.391-6.515-4.391-11.064 0-6.343 2.809-24.369 3.416-24.369.481 0 .49 8.695.172 16.868-.221 5.676.618 7.912 1.973 7.912 1.804 0 2.092-5.713 2.279-12.135.153-5.287.615-12.605.984-12.645.577 0 1.055 7.272 1.21 12.572.191 6.58.647 12.045 2.154 12.045 1.583 0 2.064-2.527 1.952-8.138-.137-6.849-.138-16.479.343-16.479.607 0 2.668 6.328 3.165 24.369.126 4.546-1.95 8.832-4.394 11.063q-.01.012-.025.021c-.073.064-.15.13-.218.195q-.007.003-.008.006c-1.766 1.61-2.209 3.357-2.33 4.954-.191 2.55-.277 5.817-.268 9.493l13.905 13.905c.195-6.06.175-11.776-.092-16.092a43 43 0 0 0-.63-4.978c-.087-.476-.393-.916-.393-1.294v-52.53c0-4.481 4.196-6.599 8.055 3.236s2.782 44.813 2.782 47.3c0 .528-.457 1.151-1.208 1.765-.3.194-.56.39-.812.591-2.312 1.855-2.642 3.993-2.763 5.91-.289 4.64-.522 10.9-.582 17.467l19.164-19.164c-.027-2.251-.09-4.277-.195-5.964-.04-.647-.2-1.305-.323-1.999-.348-1.963-2.778-3.57-4.183-4.982-2.732-2.743-4.488-7.353-4.488-12.551 0-8.44 4.679-19.126 10.45-19.126 5.772 0 10.453 10.684 10.453 19.126 0 5.198-1.756 9.81-4.488 12.55-1.407 1.412-3.837 3.02-4.184 4.983-.123.695-.284 1.352-.324 1.999a101 101 0 0 0-.145 3.392L100 51 50 1 0 51l30.043 30.043c-.034-2.38-.115-4.521-.249-6.306"/></g></svg>