<svg xmlns="http://www.w3.org/2000/svg" fill="none" viewBox="0 0 512 512"><g transform="translate(32.04 30.72) scale(4.506)"><g clip-path="url(#a)"><path fill="#18b4f4" d="M93.504 28.126c0 8.834-4.076 16.72-10.447 21.876L8.003 7.386a4 4 0 0 1-.791-.591C7.149 6.735 6 5.721 6 3.951c0-1.09.443-2.079 1.156-2.795A3.97 3.97 0 0 1 9.954 0h55.424c15.534 0 28.126 12.592 28.126 28.126"/><path fill="#fd6b3c" d="M93.504 71.874C93.504 87.41 80.912 100 65.378 100H9.954c-1.937 0-3.95-1.53-3.95-3.95 0-1.748 1.1-2.733 1.218-2.852l.006-.006c.233-.22.493-.417.779-.578l29.528-16.766 45.522-25.846h.003c6.371 5.156 10.447 13.038 10.447 21.876z"/><path fill="#a97ff2" d="M83.057 50.002h-.004l-45.522 25.85L8.003 92.616a4 4 0 0 0-.778.578c10.848-11.163 17.528-26.398 17.528-43.193 0-16.796-6.684-32.044-17.538-43.207q.355.34.792.591L83.06 50.002z"/></g><defs><clipPath id="a"><path fill="#fff" d="M0 0h100v100H0z"/></clipPath></defs></g></svg>