<svg xmlns="http://www.w3.org/2000/svg" fill="none" viewBox="0 0 512 512"><g transform="translate(30.72 32.48) scale(4.506)"><path fill="#d32f2f" d="M100 73.34V57.508c0 3.73-4.083 7.155-10.9 9.863L50 57.507v15.834l39.1 9.862c6.817-2.704 10.9-6.129 10.9-9.862"/><path fill="#d32f2f" d="M89.1 51.55c6.817-2.726 10.9-6.134 10.9-9.867V25.827C100 17.103 77.604 10 50 10 22.375 10 0 17.1 0 25.824v15.858c0 8.738 22.388 15.83 50 15.83V41.69zM50 89.165V73.34c-27.625 0-50-7.104-50-15.825V73.34c0 8.737 22.375 15.825 50 15.825"/></g></svg>