<svg xmlns="http://www.w3.org/2000/svg" fill="none" viewBox="0 0 512 512"><g transform="translate(30.72 32.04) scale(4.506)"><g fill="#000" fill-rule="evenodd" clip-path="url(#a)" clip-rule="evenodd"><path d="M4.604 74.769a49.8 49.8 0 0 1-4.608-20.98q.001-2.907.326-5.732c.218-1.9.542-3.766.964-5.59C3.66 32.23 9.18 23.196 16.77 16.437A50 50 0 0 1 39.52 4.891a50.1 50.1 0 0 1 14.28-.954A49.8 49.8 0 0 1 70.787 8.31a50 50 0 0 1 11.587 7.39c8.752 7.454 14.855 17.839 16.884 29.492a50.2 50.2 0 0 1 .59 12.407 50 50 0 0 1-3.034 13.767 50 50 0 0 1-9.913 16.143c-5.54 5.658-12.581 8.175-18.462 8.07-4.276-.076-8.46-1.777-11.35-4.267-4.13-3.556-5.799-7.622-6.37-12.158-.143-1.128-.06-4.2.527-6.328.438-1.586 1.547-4.649 3.17-5.989-1.898-.817-4.34-2.597-5.11-3.451-.19-.21-.166-.54.004-.766a.64.64 0 0 1 .733-.22 36.5 36.5 0 0 0 5.714 1.463c2.756.461 6.183 1.041 9.655 1.212 8.465.416 17.307-3.384 20.051-10.944 2.745-7.56 1.68-15.037-8.165-19.522-9.845-4.486-14.393-9.819-22.348-13.035-5.196-2.101-10.978-.854-16.916 2.427-15.991 8.838-30.319 36.76-23.714 62.63a.796.796 0 0 1-1.307.793 50.1 50.1 0 0 1-8.41-12.657"/><path d="M48.206 25.046c2.698-.212 5.051 2.09 5.457 5.152.541 4.079-.956 8.292-5.878 8.389-4.205.084-5.479-4.157-5.2-6.725.277-2.57 2.394-6.563 5.621-6.816"/></g><defs><clipPath id="a"><path fill="#fff" d="M0 0h100v100H0z"/></clipPath></defs></g></svg>