<svg xmlns="http://www.w3.org/2000/svg" fill="none" viewBox="0 0 512 512"><g transform="translate(30.72 31.6) scale(4.506)"><g clip-path="url(#a)"><path fill="#2db5f9" d="M59.106 82.85c.967-2.826 4.106-7.185 7.467-5.188 0 0 2.735 1.523 3.307-2.797 0 0 2.05 10.195-7.826 9.852 0 0 2.225-1.623 2.202-3.291a11.3 11.3 0 0 1-5.15 1.424"/><path fill="url(#b)" d="m12.146 59.976.236.374a26.6 26.6 0 0 0 4.237 4.701 20.7 20.7 0 0 0 13.151 4.686h.907a30.8 30.8 0 0 0 9.661-2.4c-1.376.22-2.766.348-4.16.38a16.9 16.9 0 0 1-12.557-5.607 30.6 30.6 0 0 1-11.475-2.134"/><path fill="#f15a24" d="M29.762 28.165a20.77 20.77 0 0 1 17.8 10.035 16.93 16.93 0 0 0-16.123-3.711c3.81 1.836 8.998 3.238 16.146 3.726 0 0-.35-6.804-9.06-10.363-12.192-4.96-13.875-3.977-16.961-9.143a13.77 13.77 0 0 0 2.758 10.134 20.8 20.8 0 0 1 5.44-.678"/><path fill="#ed1c24" d="M38.525 27.852c-4.168-1.66-7.101-2.697-9.296-3.49a15.3 15.3 0 0 0 2.286 3.871A20.78 20.78 0 0 1 47.592 38.2a16.87 16.87 0 0 0-9.395-4.275 50 50 0 0 0 9.144 4.267h.267s-.366-6.782-9.083-10.34"/><path fill="#c1272d" d="M47.57 38.215h.045c.137-.762.953-6.622-5.677-11.765-9.89-7.673-11.818-8.39-12.29-12.45a12.73 12.73 0 0 0-.419 10.362c2.187.762 5.128 1.79 9.288 3.49 8.725 3.558 9.068 10.363 9.068 10.363z"/><path fill="url(#c)" d="M77.583 31.525a15.4 15.4 0 0 1 10.104 3.764 13.64 13.64 0 0 1 8.701 3.642s-8.313-12.077-22.965-7.056a19 19 0 0 0-3.75 1.837 15.4 15.4 0 0 1 7.91-2.187"/><path fill="url(#d)" d="M77.583 31.525a15.4 15.4 0 0 0-7.91 2.18l.428-.26C58.26 40.417 43.744 61.843 23.62 62.11a16.9 16.9 0 0 0 12.557 5.57 31 31 0 0 0 4.16-.381C53.427 61.904 66 49.012 71.707 42.756c5.288-5.798 11.087-7.772 16.002-7.475a15.4 15.4 0 0 0-10.127-3.756"/><path fill="url(#e)" d="M47.013 73.052a9.6 9.6 0 0 0-.419 2.667 10.2 10.2 0 0 0 .472 3.086 7.62 7.62 0 0 1 2.515-6.744l.06-.228a9.32 9.32 0 0 1 4.085-5.258q-.93.3-1.821.701a9.55 9.55 0 0 0-4.892 5.776"/><path fill="url(#f)" d="M100 50.23a19.4 19.4 0 0 0-3.635-11.33 13.65 13.65 0 0 0-8.678-3.611 15.42 15.42 0 0 1 5.333 11.696c0 5.189-1.882 11.125-7.985 14.317-8.884 4.648-22.516 2.438-31.37 5.334a9.32 9.32 0 0 0-4.076 5.25l-.061.229c2.59-2.286 7.703-3.91 17.677-2.622 7.124.915 12.778 1.166 17.64-.228a18.85 18.85 0 0 0 11.543-7.78A19.4 19.4 0 0 0 100 50.231"/><path fill="url(#g)" d="M100 50.23a19.4 19.4 0 0 0-3.635-11.33 13.65 13.65 0 0 0-8.678-3.611 15.42 15.42 0 0 1 5.333 11.696c0 5.189-1.882 11.125-7.985 14.317-8.884 4.648-22.516 2.438-31.37 5.334a9.32 9.32 0 0 0-4.076 5.25l-.061.229c2.59-2.286 7.703-3.91 17.677-2.622 7.124.915 12.778 1.166 17.64-.228a18.85 18.85 0 0 0 11.543-7.78A19.4 19.4 0 0 0 100 50.231" opacity=".49"/><path fill="url(#h)" d="M55.86 83.529a9.357 9.357 0 0 1-6.264-11.49 7.62 7.62 0 0 0-2.514 6.743 9.578 9.578 0 0 0 15.399 4.32 9.32 9.32 0 0 1-6.622.427"/><path fill="#5fd2ff" d="M63.053 76.61a3.6 3.6 0 0 1 3.695-.198c1.394.617 3.147-1.798 1.63-3.962 0 0 .1 2.232-1.699 2.21a4.03 4.03 0 0 0-3.626 1.95"/><path fill="#219058" d="M72.973 44.173c-2.362 3.223-5.837 5.92-6.24 6.584s.685 2.796 2.286 2.948.373-.617.236-1.371c-.137-.755.48.48 2.415.19s-.7-1.005-.518-1.98c.183-.976 2.172-2.828 2.964-4.687.793-1.859 2.149 0 1.456 1.456-.275.579 2.201-1.623.952-3.3s-2.172-1.722-3.55.16m-6.744 7.049c-.35.335-1.372 1.081-1.372 1.081s1.006 1.395 2.286 1.372c0 0 .275-.13-.122-.54a3.7 3.7 0 0 1-.792-1.913"/><path fill="url(#i)" d="M31.439 34.489a19.05 19.05 0 0 1-7.11-5.6 20.787 20.787 0 0 0-12.19 31.088A30.6 30.6 0 0 0 23.62 62.11a16.937 16.937 0 0 1 7.818-27.621"/><path fill="#f7b852" d="M31.477 28.233c.922 1.334 3.573 3.635 6.698 5.692a16.87 16.87 0 0 1 9.387 4.275 20.78 20.78 0 0 0-16.085-9.967"/><path fill="#ff8431" d="M31.477 28.233a21 21 0 0 0-1.707-.069c-1.84.013-3.669.269-5.44.762a19.05 19.05 0 0 0 7.109 5.6 16.8 16.8 0 0 1 6.736-.556c-3.125-2.102-5.776-4.404-6.698-5.737"/><path fill="#fffb69" d="M43.013 32.965a15.2 15.2 0 0 0-5.585-3.338c1.34 2.553 2.499 3.338 5.585 3.338"/><path fill="#c1272d" d="M37.13 22.107a29 29 0 0 1 2.995 2.095c.236.183-.427-1.623-1.196-1.966a3.43 3.43 0 0 0-1.799-.13m3.696 2.614a32 32 0 0 1 2.972 2.126c.244.175-.412-1.63-1.181-1.98a3.43 3.43 0 0 0-1.79-.146m3.473 2.56a9 9 0 0 1 1.608 2.012c.122.176 0-1.18-.419-1.57-.35-.25-.76-.402-1.188-.441"/><path fill="#44c688" d="M28.284 60.228c-.091-.297 1.075-.678 1.387-.694a5.5 5.5 0 0 1 1.63.541 7.5 7.5 0 0 1-2.24.473 2 2 0 0 1-.777-.32m4.199-.998c-.1-.229.8-.633 1.051-.67a4.4 4.4 0 0 1 1.349.296 6 6 0 0 1-1.753.564 1.6 1.6 0 0 1-.647-.19m3.52-1.288c-.1-.183.602-.587.8-.648a3.6 3.6 0 0 1 1.135.122c-.42.276-.88.487-1.364.625a1.4 1.4 0 0 1-.571-.099M38.8 56.67c-.107-.16.51-.58.685-.648a3.3 3.3 0 0 1 1.044 0 4.6 4.6 0 0 1-1.227.663 1.2 1.2 0 0 1-.503-.016m2.606-1.424c-.099-.13.412-.526.564-.595.3-.047.606-.047.907 0a4 4 0 0 1-1.029.64c-.149.016-.3 0-.442-.045M24.07 60.563c-.045-.335 1.25-.533 1.585-.495a5.9 5.9 0 0 1 1.631.853 8 8 0 0 1-2.446.122 2.2 2.2 0 0 1-.77-.48"/><path fill="#c1272d" d="M24.87 21.269a8.3 8.3 0 0 0 3.048 1.714 8.7 8.7 0 0 1-.426-3.467c0-.084-2.629-.045-3.048-2.202-.114-.434-.488 2.918.427 3.955"/><path fill="#f15a24" d="M15.925 71.086a2.5 2.5 0 0 1 1.029-1.775l.084-.046a6 6 0 0 0-.656-.115c-3.131-.464-3.932 1.402-4.092 3.498v.358a3.81 3.81 0 0 1 3.612-1.92z"/><path fill="#f15a24" d="M19.743 70.385c-3.117-1.89-4.87-2.027-5.563 3.269 0 0 3.277-2.591 4.831-.876 1.684 1.866 3.97.144 2.774-.938a8.6 8.6 0 0 0-2.043-1.455"/><path fill="#f15a24" d="M18.455 71.017c-1.768 1.174-1.768 3.94-1.768 3.94s3.223-1.745 2.972-2.835a1.34 1.34 0 0 0-1.204-1.105M3.81 49.248a2.5 2.5 0 0 1 2.027-.312h.091a6 6 0 0 0-.32-.58C3.978 45.653 2.027 46.2.29 47.382a3 3 0 0 0-.29.221 3.81 3.81 0 0 1 3.756 1.616z"/><path fill="#f15a24" d="M7.117 52.502c-1.136-4.496-2.05-6.233-6.393-3.124 0 0 3.718-1.067 4.145 4.22.198 2.5 2.606 3.003 2.575 1.388a8.6 8.6 0 0 0-.327-2.484"/><path fill="#f15a24" d="M5.532 50.094c-2.065-.488-4.092 1.402-4.092 1.402s3.178-.107 3.56 1.813c.22 1.075.533-3.215.533-3.215"/><path fill="#29b36e" d="M71.709 42.764a25.3 25.3 0 0 1 7.086-5.723 19.2 19.2 0 0 1 8.465-2.11l.846.762h-.442a17.3 17.3 0 0 0-8.717 1.722 25.2 25.2 0 0 0-7.239 5.349"/><path fill="#6fd191" d="M87.58 34.961c1.65.156 3.264.57 4.785 1.227a12.6 12.6 0 0 1 4.03 2.743 12.4 12.4 0 0 0-4.197-2.43 20 20 0 0 0-4.123-.839l-.846-.762z"/><path fill="#c83ad7" d="M49.779 71.444q.683-.48 1.425-.868.517-.263 1.059-.473c.358-.152.762-.267 1.09-.388a21 21 0 0 1 4.503-.854 43.8 43.8 0 0 1 9.082.358c2.983.44 5.987.727 9 .861a30.3 30.3 0 0 0 8.967-.884 30.4 30.4 0 0 1-8.968 1.052 89 89 0 0 1-9.037-.694 43.4 43.4 0 0 0-8.99-.16c-1.484.134-2.948.43-4.367.884-.35.122-.7.236-1.036.389q-.511.21-.998.472a9.8 9.8 0 0 0-1.799 1.235l-.243.213q.115-.583.312-1.143"/><path fill="#c1272d" d="M32.002 35.83c-2.91.64-2.46 2.949-2.46 2.949s.921-1.113 5.988-1.715a24 24 0 0 1-3.528-1.234"/><path fill="#fba9ff" d="M47.067 78.82a7.5 7.5 0 0 1-.038-1.936 8.64 8.64 0 0 1 1.272-3.718 9 9 0 0 1 1.272-1.524l.206-.19s-.29.922-.32 1.15a9 9 0 0 0-.762.884 8.16 8.16 0 0 0-1.524 3.429 7.4 7.4 0 0 0-.106 1.905"/><path fill="#ff737d" d="M22.95 62.11a17.1 17.1 0 0 1-3.634-7.414 16.8 16.8 0 0 1-.373-4.343l.06-1.09.153-1.082q.08-.539.213-1.066.105-.534.275-1.052c.405-1.39.995-2.72 1.752-3.955q.56-.928 1.227-1.782l.7-.823c.23-.275.504-.519.763-.762a17 17 0 0 1 3.421-2.599 18.2 18.2 0 0 1 3.947-1.653 18.2 18.2 0 0 0-3.878 1.768 16.8 16.8 0 0 0-3.3 2.666c-.236.26-.495.503-.716.762l-.7.846q-.63.857-1.151 1.783a15.8 15.8 0 0 0-1.593 3.901q-.15.508-.236 1.03-.105.517-.152 1.043l-.115 1.044v1.051c-.018 1.4.146 2.796.488 4.153a16.55 16.55 0 0 0 3.94 7.246l.304.328s-1.143.023-1.394 0"/><path fill="#fff4c0" d="M40.338 67.337a21.6 21.6 0 0 1-4.571.518 17 17 0 0 1-4.572-.762 21.3 21.3 0 0 1-4.267-1.79 15.8 15.8 0 0 1-3.719-2.82l-.32-.335h1.357a15.4 15.4 0 0 0 3.048 2.514c1.3.787 2.682 1.429 4.122 1.913a16.6 16.6 0 0 0 4.396.952c1.512.094 3.028.03 4.526-.19"/></g><defs><linearGradient id="b" x1="26.242" x2="26.242" y1="69.28" y2="61.394" gradientUnits="userSpaceOnUse"><stop stop-color="#fffa8f"/><stop offset="1" stop-color="#fb784b"/></linearGradient><linearGradient id="c" x1="85.012" x2="87.923" y1="34.679" y2="32.287" gradientUnits="userSpaceOnUse"><stop stop-color="#5bcb99"/><stop offset="1" stop-color="#85a8e8"/></linearGradient><linearGradient id="d" x1="29.938" x2="120.619" y1="63.588" y2="16.537" gradientUnits="userSpaceOnUse"><stop stop-color="#34e28b"/><stop offset="1"/></linearGradient><linearGradient id="e" x1="46.594" x2="53.726" y1="72.701" y2="72.701" gradientUnits="userSpaceOnUse"><stop stop-color="#c297ff"/><stop offset="1" stop-color="#ae31bb"/></linearGradient><linearGradient id="f" x1="17.533" x2="107.696" y1="107.058" y2="36.736" gradientUnits="userSpaceOnUse"><stop/><stop offset="1" stop-color="#d23de2"/></linearGradient><linearGradient id="g" x1="84.227" x2="80.578" y1="30.709" y2="43.03" gradientUnits="userSpaceOnUse"><stop/><stop offset="1" stop-opacity="0"/></linearGradient><linearGradient id="h" x1="50.853" x2="76.493" y1="78.385" y2="84.595" gradientUnits="userSpaceOnUse"><stop stop-color="#2db5f9"/><stop offset="1"/></linearGradient><linearGradient id="i" x1="30.814" x2="13.875" y1="13.824" y2="60.358" gradientUnits="userSpaceOnUse"><stop/><stop offset=".21" stop-color="#48080a"/><stop offset=".42" stop-color="#891014"/><stop offset=".61" stop-color="#bc151b"/><stop offset=".78" stop-color="#e01a21"/><stop offset=".91" stop-color="#f71c24"/><stop offset="1" stop-color="#ff1d25"/></linearGradient><clipPath id="a"><path fill="#fff" d="M0 0h100v100H0z"/></clipPath></defs></g></svg>