<svg xmlns="http://www.w3.org/2000/svg" fill="none" viewBox="0 0 512 512"><g transform="translate(30.28 30.72) scale(4.506)"><path fill="#2dd0ed" d="M36.547 21.494c-13.068-2.38-23.4.111-27.519 7.243-3.073 5.322-2.195 12.38 2.13 19.923a1.341 1.341 0 1 0 2.326-1.334C9.588 40.532 8.828 34.44 11.35 30.077c3.42-5.925 12.635-8.147 24.716-5.946a1.341 1.341 0 1 0 .48-2.637zM17.953 57.828c5.284 5.807 12.149 11.253 19.978 15.774 18.956 10.944 39.136 13.87 49.082 7.088a1.34 1.34 0 0 0-1.51-2.215c-8.901 6.07-28.071 3.291-46.232-7.194-7.596-4.386-14.243-9.66-19.335-15.256a1.341 1.341 0 1 0-1.983 1.803"/><path fill="#2dd0ed" d="M83.841 56.198c8.557-10.108 11.545-20.276 7.436-27.393-3.024-5.237-9.417-8.003-17.912-8.113a1.341 1.341 0 0 0-.036 2.68c7.64.1 13.149 2.482 15.627 6.773 3.412 5.912.748 14.979-7.16 24.322a1.34 1.34 0 1 0 2.045 1.73M61.851 21.94c-7.737 1.658-15.971 4.899-23.88 9.464C18.402 42.703 5.637 59.362 7.41 71.442a1.34 1.34 0 1 0 2.65-.39C8.488 60.327 20.588 44.535 39.31 33.726c7.672-4.43 15.646-7.567 23.103-9.166a1.34 1.34 0 0 0-.562-2.62"/><path fill="#2dd0ed" d="M30.148 79.817C34.623 92.307 41.94 100 50.172 100c6.002 0 11.555-4.091 15.885-11.295a1.342 1.342 0 0 0-1.947-1.784q-.215.167-.348.403c-3.892 6.474-8.673 9.997-13.59 9.997-6.836 0-13.364-6.861-17.5-18.408a1.34 1.34 0 0 0-1.2-.913 1.34 1.34 0 0 0-1.323 1.817zm40.866-2.445c2.316-7.4 3.559-15.938 3.559-24.835 0-22.2-7.77-41.338-18.837-46.252a1.34 1.34 0 0 0-1.087 2.45c9.87 4.383 17.245 22.545 17.245 43.802 0 8.63-1.206 16.9-3.437 24.035a1.34 1.34 0 0 0 .623 1.606 1.34 1.34 0 0 0 1.934-.806m25.237-1.312a6.413 6.413 0 1 0-12.825-.082 6.413 6.413 0 0 0 12.825.082m-2.68 0a3.734 3.734 0 1 1-7.467-.001 3.734 3.734 0 0 1 7.467.001m-83.157 6.414a6.412 6.412 0 1 0 0-12.827 6.412 6.412 0 0 0-5.926 8.868 6.41 6.41 0 0 0 5.926 3.959m0-2.68a3.734 3.734 0 1 1 0-7.468 3.734 3.734 0 0 1 0 7.468"/><path fill="#2dd0ed" d="M50.172 12.827a6.412 6.412 0 1 0 0-12.827 6.413 6.413 0 1 0 0 12.827m0-2.68a3.735 3.735 0 0 1-2.64-6.373 3.73 3.73 0 0 1 4.4-.653 3.734 3.734 0 0 1-1.76 7.027zm.98 46.927a4.643 4.643 0 0 1-5.547-5.368A4.64 4.64 0 0 1 49.192 48a4.642 4.642 0 0 1 1.96 9.072z"/></g></svg>