<svg xmlns="http://www.w3.org/2000/svg" fill="none" viewBox="0 0 512 512"><g transform="translate(30.72 31.16) scale(4.506)"><path fill="#eb1000" d="M82.304 2H17.696C7.923 2 0 9.874 0 19.587v60.66c0 9.712 7.923 17.587 17.696 17.587h64.608c9.773 0 17.696-7.875 17.696-17.588V19.587C100 9.874 92.077 2 82.304 2"/><path fill="#fff" fill-rule="evenodd" d="m72.893 30.415-4.036-.905a1.62 1.62 0 0 0-1.482.39l-3.036 2.787c-1.196 1.1-3.107.018-2.75-1.562l.911-4.01a1.59 1.59 0 0 0-.393-1.474l-2.803-3.017c-1.108-1.189 0-3.07 1.59-2.715l4.035.905a1.62 1.62 0 0 0 1.482-.39l3.035-2.787c1.197-1.1 3.108-.017 2.75 1.562l-.91 4.01a1.59 1.59 0 0 0 .393 1.474l2.803 3.017c1.107 1.189 0 3.07-1.589 2.715M38.518 68.673c0 .39-.178.568-.571.568h-8.16c-.322 0-.447-.23-.447-.568V26.737c0-.373.125-.515.5-.515H56c.447 0 .554.125.626.55l.732 7.082c.071.39-.125.568-.554.568H38.518v9.973h16.483c.375 0 .553.124.553.515v7.17c0 .39-.196.514-.518.514H38.518zM62.25 37.157c0-.372.178-.55.553-.55h8.126c.428 0 .553.107.553.532v31.484c0 .426-.125.603-.607.603h-7.964c-.447 0-.66-.195-.66-.621z" clip-rule="evenodd"/></g></svg>