<svg xmlns="http://www.w3.org/2000/svg" fill="none" viewBox="0 0 512 512"><g transform="translate(30.72 30.72) scale(4.506)"><g fill="#000" fill-rule="evenodd" clip-path="url(#a)" clip-rule="evenodd"><path d="M53.478 2.178a3.94 3.94 0 0 1-1.763 5.291L12.761 26.946 50 45.566l37.232-18.617-14.226-7.098-21.268 10.623a3.945 3.945 0 1 1-3.524-7.055l23.029-11.504a3.94 3.94 0 0 1 3.522 0l23.053 11.502a3.943 3.943 0 0 1 .003 7.055L51.814 53.477a3.94 3.94 0 0 1-1.811.417 3.9 3.9 0 0 1-1.816-.416L2.18 30.473a3.943 3.943 0 0 1 0-7.054L48.187.415a3.944 3.944 0 0 1 5.291 1.763m-53 68.996a3.945 3.945 0 0 1 5.291-1.765l44.244 22.124 44.243-22.124a3.944 3.944 0 0 1 3.528 7.056L51.776 99.468a3.94 3.94 0 0 1-3.526 0L2.242 76.465a3.945 3.945 0 0 1-1.764-5.291"/><path d="M.479 48.168a3.944 3.944 0 0 1 5.29-1.763l44.244 22.122 44.243-22.122a3.943 3.943 0 0 1 3.528 7.054L51.776 76.462a3.95 3.95 0 0 1-3.526 0L2.242 53.46a3.944 3.944 0 0 1-1.763-5.29"/></g><defs><clipPath id="a"><path fill="#fff" d="M0 0h100v100H0z"/></clipPath></defs></g></svg>