<svg xmlns="http://www.w3.org/2000/svg" fill="none" viewBox="0 0 512 512"><g transform="translate(30.72 30.72) scale(4.506)"><g clip-path="url(#a)"><path fill="url(#b)" d="M90.41 41.321c4.81-.231 9.067 3.5 9.482 8.314 1.799 23.286-19.129 49.33-49.161 50.163-4.814.134-8.823-3.67-8.957-8.496-.133-4.827 3.66-8.848 8.474-8.982 19.923-.553 32.546-17.762 31.872-31.848-.23-4.822 3.48-8.92 8.29-9.151"/><path fill="url(#c)" d="M8.811 40.825c4.815 0 8.718 3.915 8.718 8.743 0 20.152 16.204 33.194 32.388 32.795 4.814-.119 8.812 3.698 8.93 8.524.12 4.827-3.687 8.837-8.5 8.956-25.309.623-50.34-19.639-50.34-50.275 0-4.828 3.99-8.743 8.804-8.743"/><path fill="url(#d)" d="M68.631 50.246c0-4.943 4.032-8.95 9.006-8.95h13.125c4.974 0 9.13 4.007 9.13 8.95s-4.156 8.95-9.13 8.95H77.637c-4.974 0-9.006-4.007-9.006-8.95"/><path fill="url(#e)" d="M41.093 50.259c0-4.95 4.006-8.964 8.943-8.964s8.943 4.013 8.943 8.964c0 4.95-4.007 8.963-8.943 8.963-4.937 0-8.943-4.013-8.943-8.963"/><path fill="url(#f)" d="M58.731 8.379c.2 4.824-3.538 8.897-8.349 9.097-20.767.865-33.445 17.188-32.828 32.686.192 4.824-3.474 8.892-8.286 9.084-4.81.193-9.042-3.7-9.233-8.526C-.971 25.466 20.058.498 49.659.008c4.81-.2 8.872 3.548 9.072 8.372"/></g><defs><linearGradient id="b" x1="53.963" x2="80.981" y1="120.727" y2="124.2" gradientUnits="userSpaceOnUse"><stop stop-color="#1a7d75"/><stop offset="1" stop-color="#1a8864"/></linearGradient><linearGradient id="c" x1="3.466" x2="-10.253" y1="47.388" y2="83.459" gradientUnits="userSpaceOnUse"><stop offset=".013" stop-color="#168a81"/><stop offset="1" stop-color="#31a97f"/></linearGradient><linearGradient id="d" x1="23.521" x2="35.81" y1="50.86" y2="69.493" gradientUnits="userSpaceOnUse"><stop stop-color="#27a59b"/><stop offset="1" stop-color="#64d8a2"/></linearGradient><linearGradient id="e" x1="15.44" x2="40.302" y1="52.136" y2="73.672" gradientUnits="userSpaceOnUse"><stop stop-color="#27a59b"/><stop offset="1" stop-color="#64d8a2"/></linearGradient><linearGradient id="f" x1="122.674" x2="50.451" y1="-84.095" y2="-108.472" gradientUnits="userSpaceOnUse"><stop stop-color="#27a59b"/><stop offset="1" stop-color="#64d8a2"/></linearGradient><clipPath id="a"><path fill="#fff" d="M0 0h100v100H0z"/></clipPath></defs></g></svg>