<svg xmlns="http://www.w3.org/2000/svg" fill="none" viewBox="0 0 512 512"><g transform="translate(29.397 30.72) scale(4.514)"><g clip-path="url(#a)"><g clip-path="url(#b)"><path fill="#fba919" d="M18.027 24.23s1.707 6.584 1.95 8.78c.245 2.195-4.389 7.072-4.389 9.511 0 2.44.974 6.83 6.34 9.025 5.367 2.195 6.098 7.804 6.098 11.22 0 3.414-1.951 9.998-1.951 9.998s-1.219 16.34 5.365 19.267 5.122 2.927 6.585 2.927 12.194 4.391 18.535 2.683c6.342-1.707 8.048-3.658 8.048-3.658s6.341.488 8.292-5.123c1.952-5.609 3.171-17.315 2.44-22.68-.733-5.367-1.708-12.439 2.682-14.878s9.024-5.365 8.292-7.804-4.633-5.854-4.633-5.854-.975-6.097-.244-7.56c.73-1.464 5.121-5.123 2.682-7.805-2.437-2.683-6.829-2.683-6.829-2.683l-5.609.487s-9.511-8.535-21.95-8.048-20.243 8.048-20.243 8.048-4.145-1.463-7.804 0-4.388 0-3.657 4.146"/><path fill="#e78724" d="M40.312 60.542s-4.83 7.385-8.372 12.626c-.548.81 3.543.867 3.543.867zm2.3-15.31s-1.456 3.631-2.254 5.557c-.865 2.093-4.166 3.134-4.166 3.134s1.71-1.794 1.71-6.34c0-1.907 2.463-2.666 2.463-2.666z"/><path fill="#e78724" d="M41.141 47.285s-2.983 3.55-8.52 1.562c-5.54-1.988-6.108-9.09-6.108-11.079 0-1.988 10.51 1.989 11.93 2.841 1.421.852 4.119 4.26 2.698 6.676M20.22 9.344s5.113-.996 8.521 1.704c3.41 2.698 4.403 4.829 4.403 4.829L27.4 20.43s-2.776-1.287-3.628-4.98-.284-5.397-3.551-6.107"/><path fill="#e78724" d="M39.65 37.029c-2.201-3.125-5.83-4.488-8.726-4.714-4.939-.386-7.284 1.36-7.284 1.36s8.09.342 10.42 3.404c4.34 5.7 10.673 6.162 11.685 4.91-1.17.059-2.459-.521-3.837-1.825-.861-.815-1.56-2.144-2.258-3.135M25.995 48.078s-8.975-3.086-7.269-6.21c1.704-3.125.348-4.828.348-4.828s-5.011 3.741-3.735 7.718c.785 2.441 2.102 4.208 9.331 7.596 3.468 6.442.716 18.035.881 18.09.275.09 4.87-2.271 4.556-13.118-.096-3.33-.363-7.877-4.112-9.248M37.755 14.9a1853 1853 0 0 0-8.918 4.574l2.03 1.016a7 7 0 0 0-.288.5l2.083.947s5.084 3.683 8.198 6.051c-1.038-3.199-4.087-8.223-4.087-8.223s-.864-2.308.982-4.865m12.502 77.93c-11.567 0-15.484-5.872-15.484-5.872l1.807 4.402c.683 1.904 7.972 7.83 13.66 7.83"/><path fill="#e78724" d="M36.04 82.991s1.064 6.504 5.325 6.504c3.621 0 4.688-5.494 4.688-6.63zm-7.091-9.808c.379-1.043 1.704-5.256 2.13-9.09.51-4.593.324-11.31.324-11.31s-1.137 4.403-2.13 5.114c-.994.71-2.841 5.539-2.841 5.539s-.99 7.188-1.46 9.605c1.303.26 2.4-.507 3.977.142m-10.29-28.496s2.414-.853 3.125-6.107-.853-9.8-.853-9.8.142 7.243-.71 8.664-1.562 1.846-2.557 3.693.426 2.982.995 3.55"/><path fill="#fdc168" d="m21.542 10.587-.493-.312c-1.454.049.492.312.492.312"/><path fill="#fba919" d="M39.72 13.345s-2.271-.378-3.408-2.082c-1.137-1.705-4.356-5.114-9.487-5.152S16.617 7.475 16.617 7.475l4.431 2.8c.469-.015 1.288-.009 2.644.036 5.561.185 6.417 5.686 6.417 5.686l19.6-2.699"/><path fill="#fff" d="M41.615 43.73s-2.652 2.65-6.724 1.798-6.535-2.651-6.724-5.776.853-4.356.853-4.356 4.545 1.421 6.724 3.315c2.178 1.894 3.787 4.924 5.87 5.018"/><path fill="#c9c9c9" d="M38.406 42.782s-2.3 1.05-4.87.195c-3.365-1.123-3.59-4.622-3.59-4.622s-2.063 6.058 3.724 7.224c4.641.935 7.387-1.755 7.387-1.755z"/><path fill="#463014" d="M40.04 12.06c-.248-5.195 4.011-9.332 5.487-9.508.081.88-.083 4.314 1.392 5.37.43-2.805 1.882-5.897 7.617-7.923-1.228 3.258-.164 5.986.343 7.251 3.916-3.554 6.555-2.967 6.555-2.967s-2.722 4.695-1.657 7.776c-7.861-.616-19.699.835-19.737.001m-16.666 7.913c-1.876-1.556-.478-3-.626-4.768-.08-.941-.155-1.829-.465-2.318-1.727-2.726-5.799-3.553-5.84-3.562l-1.91-.374 1.265-1.48c.163-.192 5.359-5.149 13.399-2.553 5.624 1.814 9.787 7.965 9.942 8.213l-2.82 1.326c-.033-.052-3.324-5.834-8.15-7.39-3.9-1.258-7.495-.06-9.034.724 1.637.653 3.777 1.844 5.066 3.88.609.961.711 2.172.81 3.344.131 1.552.253 3.017 1.396 3.966zm-5.01 22.717s2.363-2.93 3.063-8.633c.275-2.246-.214-6.676-.995-8.38.142 4.19-.923 8.38-.923 8.38s-.718 7.78-1.145 8.633"/><path fill="#463014" d="M30.825 17.014c-.001-.007-.758-3.315-2.857-4.985-2.961-2.356-6.576-1.103-6.611-1.092l-.525-1.621c.175-.057 4.307-1.359 8.115 1.318 3.831 2.692 4.291 5.132 4.33 5.402zm-5.039 23.574s-1.24-1.775-1.017-3.727c.111-.964.558-1.953 1.355-2.304 1.483-.651 2.14 1.029 2.14 1.029s-2.086.514-2.478 5.002"/><path fill="#463014" d="m39.4 43.294.078.15s-3.868 2.903-7.83-.043c-2.122-1.578-1.922-5.48-1.272-7.136a12.8 12.8 0 0 1 4.322 1.88c-1.514-1.352-2.84-2.346-2.836-2.37l-1.721-.486-3.345-1.148c-.043.256-1.263 5.975 2.259 9.871 1.56 1.728 8.878 5.598 12.353-1.019z"/><path fill="#463014" d="M39.037 43.719c2.177 3.313 7.67 1.42 7.576-2.084 0 0-3.67 2.026-6.913-1.704-1.894-2.177-7.96-8.181-16.188-6.186 5.681 1.25 13.204 6.44 15.525 9.974"/><path fill="#463014" d="M22.743 53.071c.524.303 2.371 2.216 2.372 5.077 0 1.434-.142 8.642-.853 13.045 1.068.694 1.812.842 2.876 1.55.532-5.1.914-12.491.736-15.475-.203-3.402-2.024-5.684-3.713-6.657a71 71 0 0 0-1.638-.905c-2.893-1.562-5.884-3.18-5.884-5.94 0-2.16.84-2.836 1.729-3.552l.096-.077c.59-.477 1.257-1.017 1.652-1.905 1.08-2.426 1.256-8.607 0-10.175-.626-.782-2.303-3.411-1.82-5.178.183-.674.608-1.174 1.3-1.528.73-.375 1.72-.565 2.936-.565 2.39 0 5.04.728 6.407 1.16 4.886 1.55 10.782 6.015 12.472 7.346l.083.063 1.081.752-.676-1.132c-.042-.07-4.325-7.114-11.985-9.696-1.49-.503-4.417-1.346-7.295-1.346-1.712 0-3.166.3-4.317.888-1.402.718-2.352 1.863-2.747 3.31-.967 3.548 2.183 7.498 2.29 7.624.368.656.523 5.418-.325 7.324-.116.263-.437.522-.842.849q-.191.153-.419.323c-1.197.903-3.007 2.269-3.007 5.415 0 4.305 4.364 6.64 7.87 8.517.576.31 1.125.602 1.621.888"/><path fill="#463014" d="M23.374 19.973c-1.876-1.556-.478-3-.626-4.768-.08-.941-.155-1.829-.465-2.318-1.727-2.726-5.799-3.553-5.84-3.562l-1.91-.374 1.265-1.48c.163-.192 5.359-5.149 13.399-2.553 5.624 1.814 9.787 7.965 9.942 8.213l-2.82 1.326c-.033-.052-3.324-5.834-8.15-7.39-3.9-1.258-7.495-.06-9.034.724 1.637.653 3.777 1.844 5.066 3.88.609.961.711 2.172.81 3.344.131 1.552.253 3.017 1.396 3.966z"/><path fill="#463014" d="m23.313 20.292-.122-.1c-1.39-1.155-1.144-2.292-.905-3.392.109-.508.223-1.033.177-1.571-.076-.905-.149-1.76-.422-2.19-1.643-2.596-5.615-3.427-5.655-3.435L14 9.136l1.582-1.85c.029-.035 3.365-3.402 9.014-3.402 1.54 0 3.118.256 4.688.763 5.87 1.893 10.057 8.27 10.097 8.333l.17.271-3.337 1.569-.133-.212c-.36-.612-3.522-5.828-7.997-7.272a11.2 11.2 0 0 0-3.44-.534 12.6 12.6 0 0 0-4.807.977c1.546.696 3.42 1.867 4.607 3.738.645 1.02.75 2.265.852 3.468.125 1.496.244 2.903 1.294 3.775l.396.328z"/><path fill="#463014" d="M30.825 17.014c-.001-.007-.758-3.315-2.857-4.985-2.961-2.356-6.576-1.103-6.611-1.092l-.525-1.621c.175-.057 4.307-1.359 8.115 1.318 3.831 2.692 4.291 5.132 4.33 5.402z"/><path fill="#463014" d="m30.622 17.4-.074-.325c-.008-.032-.75-3.227-2.758-4.823-1.144-.911-2.524-1.374-4.098-1.374-1.23 0-2.143.294-2.242.328l-.271.09-.705-2.163.27-.087c.121-.039 1.218-.38 2.77-.38 2.046 0 3.98.6 5.597 1.735 3.928 2.76 4.407 5.312 4.448 5.593l.034.223zm-6.93-7.089c1.682 0 3.223.517 4.453 1.495 1.782 1.42 2.62 3.926 2.874 4.824l1.932-.77c-.175-.682-.945-2.729-4.167-4.993-1.54-1.084-3.314-1.632-5.27-1.632-1.074 0-1.908.17-2.32.275l.348 1.077a8.5 8.5 0 0 1 2.15-.276m17.495 77.624c-.84 0-1.696-.305-2.29-.819-.454-.391-1.99-1.803-2.668-3.532-.253-.647-.196-1.164.17-1.537.254-.255.779-.56 1.844-.56h.759c.903-.002 2.424-.002 3.725-.002h1.246c.811 0 1.392.176 1.726.517.43.441.292 1.002.172 1.297-.209.518-1.073 2.2-2.537 3.766-.524.56-1.287.87-2.147.87m.88-44.022-3.03-.194s.774 1.365 1.276 3.13c.567 1.998-.518 4.918-.518 4.918s4.04-4.575 2.272-7.854m-3.783 52.023c-10.784-.83-14.579-11.02-14.579-13.143l2.817.002-1.408-.002h1.408c.014.918 2.88 9.635 11.978 10.335z"/><path fill="#fff" d="M35.254 77.677c-.169-.974-.186-1.897.02-2.805-.82-.616-2.29-.845-3.394-1.203-.903-.57-5.52.586-8.87-3.468-4.198-5.077-3.315-8.108-3.315-8.108-1.076 1.195-2.119.74-3.76 6.315-1.642 5.577.772 9.464 5.27 13.367 2.126 1.843 5.13 2.603 7.715 2.894-.866-.87 1.479-.956 3.095-1.561-.129-1.305.087-2.572 1.06-3.591.586-.615 1.34-.983 2.124-1.275.044-.102.08-.195.122-.292a3 3 0 0 1-.067-.273"/><path fill="#c9c9c9" d="M31.993 83.074a10 10 0 0 1-.233-.834c-.075-.307-.447-1.176.011-.183a3.7 3.7 0 0 1-.25-.78c-7.287-.01-13.625-5.012-12.4-15.53-.955-1.265-2.29 2.554-2.29 2.554s-3.648 10.591 5.772 14.696c3.14 1.369 5.913 2.35 6.568 1.954 1.363.277 2.594-.673 3.055-1.298a7 7 0 0 1-.233-.579"/><path fill="#463014" d="M35.122 76.153a5.85 5.85 0 0 1 .622-2.605q.047-.087.097-.173c-2.804-.024-6.032-.292-8.782-1.393-3.022-1.209-6.803-5.344-7.452-10.204 0 0-5.692 4.392-4.02 13.793 1.57 8.827 8.957 11.705 17.381 12.192.005-.057-.947-2.023-.646-3.228-4.784.348-10.133-1.5-12.715-5.749-2.364-3.889-1.701-10.529-.73-11.502 2.37 7.479 10.898 8.999 16.245 8.868"/><path fill="#463014" d="M36.005 70.799c-1.516 4.448-4.612 8.05-4.612 8.05s4.26-.195 4.494-.948c.174-.556 3.846-9.152 5.256-19.222-1.326 2.178-5.008 11.739-5.138 12.12"/><path fill="#e78724" d="M60.138 60.542s4.828 7.385 8.372 12.626c.548.81-3.544.867-3.544.867zm-2.3-15.31s1.456 3.631 2.252 5.557c.866 2.093 4.166 3.134 4.166 3.134s-1.71-1.794-1.71-6.34c0-1.907-2.462-2.666-2.462-2.666z"/><path fill="#e78724" d="M59.308 47.285s2.983 3.55 8.523 1.562c5.54-1.989 6.107-9.09 6.107-11.079 0-1.988-10.51 1.989-11.931 2.841s-4.119 4.26-2.699 6.676M80.23 9.344s-5.113-.996-8.523 1.704c-3.408 2.698-4.403 4.829-4.403 4.829l5.746 4.554s2.777-1.288 3.63-4.98c.85-3.693.283-5.397 3.55-6.107"/><path fill="#e78724" d="M60.8 37.029c2.201-3.125 5.828-4.488 8.726-4.714 4.939-.386 7.282 1.36 7.282 1.36s-8.088.342-10.42 3.404c-4.34 5.7-10.67 6.162-11.683 4.91 1.171.059 2.46-.521 3.837-1.825.861-.815 1.56-2.144 2.258-3.135m13.655 11.048s8.973-3.085 7.269-6.209c-1.704-3.125-.349-4.828-.349-4.828s5.013 3.741 3.735 7.718c-.785 2.44-2.102 4.208-9.332 7.596-3.467 6.441-.716 18.035-.88 18.09-.274.09-4.868-2.272-4.554-13.118.095-3.33.361-7.878 4.11-9.248m-11.76-33.176c3.761 1.912 8.918 4.574 8.918 4.574l-2.029 1.015c.194.314.287.501.287.501l-2.082.947s-5.084 3.683-8.2 6.051c1.038-3.198 4.087-8.222 4.087-8.222s.865-2.309-.981-4.866m-12.502 77.93c11.565 0 15.483-5.872 15.483-5.872l-1.805 4.4c-.683 1.904-7.973 7.83-13.659 7.83"/><path fill="#e78724" d="M64.41 82.991s-1.066 6.504-5.326 6.504c-3.62 0-4.687-5.494-4.687-6.63zm7.09-9.808c-.378-1.043-1.703-5.256-2.13-9.09-.51-4.593-.324-11.31-.324-11.31s1.137 4.403 2.13 5.114c.995.71 2.841 5.539 2.841 5.539s.989 7.188 1.46 9.605c-1.303.26-2.398-.507-3.976.142m10.292-28.496s-2.416-.853-3.125-6.107.852-9.8.852-9.8-.143 7.243.71 8.664 1.563 1.846 2.557 3.693c.993 1.846-.427 2.982-.995 3.55"/><path fill="#fdc168" d="m78.908 10.587.494-.312c1.453.049-.494.312-.494.312"/><path fill="#fba919" d="M60.729 13.345s2.273-.378 3.408-2.082c1.137-1.705 4.357-5.114 9.489-5.152 5.13-.039 10.207 1.364 10.207 1.364l-4.431 2.8c-.469-.016-1.289-.01-2.645.036-5.56.185-6.417 5.686-6.417 5.686l-19.6-2.7"/><path fill="#fff" d="M58.835 43.73s2.652 2.65 6.723 1.798c4.072-.852 6.534-2.651 6.724-5.776.189-3.125-.852-4.356-.852-4.356s-4.546 1.421-6.724 3.315-3.787 4.924-5.87 5.018"/><path fill="#c9c9c9" d="M62.043 42.782s2.3 1.05 4.87.195c3.366-1.123 3.59-4.622 3.59-4.622s2.063 6.058-3.724 7.224c-4.641.935-7.387-1.755-7.387-1.755z"/><path fill="#463014" d="M77.076 19.973c1.876-1.556.479-3 .627-4.768.079-.941.153-1.829.464-2.318 1.726-2.726 5.798-3.553 5.84-3.562l1.912-.374-1.266-1.48c-.164-.192-5.36-5.149-13.4-2.553-5.624 1.814-9.787 7.965-9.942 8.213l2.82 1.326c.033-.052 3.325-5.834 8.15-7.39 3.9-1.258 7.495-.06 9.034.724-1.636.653-3.777 1.844-5.067 3.88-.608.961-.71 2.172-.809 3.344-.13 1.552-.254 3.017-1.396 3.966zm5.009 22.717s-2.362-2.93-3.062-8.633c-.275-2.246.213-6.676.994-8.38-.142 4.19.924 8.38.924 8.38s.718 7.78 1.144 8.633"/><path fill="#463014" d="M69.625 17.014c0-.007.758-3.315 2.857-4.985 2.96-2.356 6.576-1.103 6.61-1.092l.526-1.621c-.175-.057-4.307-1.359-8.116 1.318-3.831 2.692-4.29 5.132-4.33 5.402zm5.039 23.574s1.24-1.775 1.015-3.727c-.11-.964-.556-1.953-1.354-2.304-1.482-.651-2.139 1.029-2.139 1.029s2.086.514 2.478 5.002"/><path fill="#463014" d="m61.05 43.294-.078.15s3.866 2.903 7.83-.043c2.122-1.578 1.921-5.48 1.27-7.136a12.8 12.8 0 0 0-4.32 1.88c1.514-1.352 2.84-2.346 2.834-2.37l1.723-.486 3.344-1.147c.043.255 1.263 5.974-2.26 9.871-1.56 1.728-8.879 5.597-12.352-1.02z"/><path fill="#463014" d="M61.412 43.719c-2.177 3.313-7.67 1.42-7.574-2.084 0 0 3.669 2.026 6.912-1.704 1.893-2.177 7.961-8.181 16.188-6.186-5.681 1.25-13.204 6.44-15.526 9.974"/><path fill="#463014" d="M77.708 53.071c-.525.303-2.373 2.216-2.373 5.077 0 1.434.142 8.642.853 13.045-1.068.694-1.812.842-2.876 1.55-.532-5.1-.915-12.491-.736-15.475.203-3.402 2.024-5.684 3.712-6.657a69 69 0 0 1 1.64-.905c2.892-1.562 5.884-3.18 5.884-5.94 0-2.16-.84-2.836-1.73-3.552l-.094-.077c-.59-.477-1.259-1.017-1.653-1.905-1.08-2.426-1.257-8.607-.001-10.175.626-.782 2.304-3.411 1.821-5.178-.184-.674-.61-1.174-1.3-1.528-.732-.375-1.719-.565-2.937-.565-2.388 0-5.04.728-6.406 1.16-4.886 1.55-10.782 6.015-12.474 7.346l-.081.063-1.082.752.676-1.132c.043-.07 4.325-7.114 11.985-9.696 1.49-.503 4.417-1.346 7.294-1.346 1.713 0 3.165.3 4.317.888 1.403.718 2.353 1.863 2.748 3.31.967 3.548-2.183 7.498-2.29 7.624-.368.656-.523 5.418.324 7.324.117.263.437.522.843.849q.19.153.418.323c1.198.903 3.007 2.269 3.007 5.415 0 4.305-4.364 6.64-7.87 8.517-.575.31-1.124.602-1.62.888"/><path fill="#463014" d="M72.502 19.467c-.694-1.176-2.469-3.446-6.56-5.44-4.565-2.225-9.848-3.355-15.706-3.357v-.002h-.023c-5.858.004-11.143 1.134-15.707 3.358-4.09 1.995-5.864 4.265-6.56 5.44l-.297.394 3.503.78.11-.14.06-.129c.054-.231.523-1.481 4.429-3.386 4.175-2.036 9.045-3.069 14.473-3.07 5.429.001 10.297 1.034 14.471 3.07 3.907 1.905 4.378 3.155 4.431 3.386l.058.129.11.14 3.504-.78z"/><path fill="#463014" d="M77.076 19.973c1.876-1.556.479-3 .627-4.768.079-.941.153-1.829.464-2.318 1.726-2.726 5.798-3.553 5.84-3.562l1.912-.374-1.266-1.48c-.164-.192-5.36-5.149-13.4-2.553-5.624 1.814-9.787 7.965-9.942 8.213l2.82 1.326c.033-.052 3.325-5.834 8.15-7.39 3.9-1.258 7.495-.06 9.034.724-1.636.653-3.777 1.844-5.067 3.88-.608.961-.71 2.172-.809 3.344-.13 1.552-.254 3.017-1.396 3.966z"/><path fill="#463014" d="m73.466 19.09.394-.33c1.051-.87 1.169-2.278 1.296-3.774.101-1.204.206-2.45.851-3.468 1.185-1.87 3.061-3.042 4.607-3.738a12.6 12.6 0 0 0-4.808-.976c-1.184 0-2.34.179-3.439.533-4.476 1.444-7.638 6.66-7.996 7.272l-.134.212-3.336-1.569.17-.27c.039-.064 4.225-6.44 10.095-8.334a15.3 15.3 0 0 1 4.69-.763c5.649 0 8.985 3.368 9.013 3.402l1.583 1.85-2.388.468c-.04.008-4.011.839-5.656 3.435-.273.431-.344 1.284-.421 2.19-.045.54.068 1.064.178 1.571.238 1.1.485 2.239-.907 3.392l-.12.1z"/><path fill="#463014" d="M69.625 17.014c0-.007.758-3.315 2.857-4.985 2.96-2.356 6.576-1.103 6.61-1.092l.526-1.621c-.175-.057-4.307-1.359-8.116 1.318-3.831 2.692-4.29 5.132-4.33 5.402z"/><path fill="#463014" d="m66.858 16.217.033-.223c.042-.281.522-2.833 4.448-5.593 1.615-1.135 3.55-1.735 5.597-1.735 1.553 0 2.65.34 2.77.38l.27.087-.703 2.163-.272-.09a7.6 7.6 0 0 0-2.243-.328c-1.574 0-2.953.462-4.097 1.374-2.008 1.596-2.75 4.791-2.758 4.823l-.074.325zm12.05-5.63.35-1.078a9.6 9.6 0 0 0-2.322-.274c-1.956 0-3.73.549-5.27 1.631-3.222 2.266-3.992 4.312-4.167 4.994l1.933.77c.253-.899 1.09-3.405 2.874-4.824 1.23-.978 2.77-1.495 4.452-1.495.967 0 1.746.167 2.15.276M57.117 87.064c-1.463-1.564-2.33-3.247-2.538-3.764-.12-.295-.256-.857.173-1.298.334-.341.914-.517 1.725-.517h1.247l3.725.001.759.001c1.064 0 1.59.305 1.842.56.367.372.424.89.171 1.537-.677 1.73-2.214 3.14-2.669 3.532-.595.514-1.45.819-2.289.819-.86 0-1.622-.31-2.146-.87m1.266-43.15 3.029-.195s-.774 1.365-1.276 3.13c-.566 1.998.519 4.918.519 4.918s-4.04-4.575-2.272-7.854"/><path fill="#e78724" d="M50.225 33.096c-1.93 0-4.449-.053-6.338-1.411 0 0 2.474 4.336 6.335 4.336l.003-.549.003.55c3.862 0 6.335-4.337 6.335-4.337-1.889 1.357-4.408 1.41-6.338 1.41"/><path fill="#463014" d="M55.543 33.075c-1.937 1.172-3.667 1.578-5.318 1.614-1.65-.036-3.38-.442-5.317-1.614 0 0 2.821 3.442 5.303 3.468v.002h.028v-.002c2.481-.026 5.304-3.468 5.304-3.468m6.623 62.86-.216-2.807c9.096-.7 11.962-9.417 11.977-10.335h2.816c.002 2.122-3.794 12.314-14.577 13.143"/><path fill="#fff" d="M65.196 77.677c.17-.974.186-1.897-.02-2.805.821-.616 2.29-.845 3.394-1.203.902-.57 5.521.586 8.871-3.468 4.197-5.077 3.313-8.108 3.313-8.108 1.077 1.195 2.12.74 3.76 6.315 1.644 5.577-.771 9.464-5.27 13.367-2.125 1.843-5.13 2.603-7.715 2.894.866-.87-1.478-.956-3.093-1.561.129-1.305-.088-2.572-1.06-3.591-.586-.615-1.342-.983-2.125-1.275-.044-.102-.082-.195-.122-.292q.04-.132.067-.273"/><path fill="#c9c9c9" d="M68.455 83.074c.095-.274.164-.553.234-.834.076-.307.448-1.176-.012-.183.118-.255.195-.517.252-.78 7.286-.01 13.625-5.012 12.399-15.53.953-1.265 2.29 2.554 2.29 2.554s3.648 10.591-5.773 14.696c-3.138 1.369-5.912 2.35-6.567 1.954-1.364.277-2.595-.673-3.055-1.298.086-.192.167-.385.232-.579"/><path fill="#463014" d="M65.326 76.153a5.85 5.85 0 0 0-.62-2.605q-.047-.087-.097-.173c2.803-.024 6.032-.292 8.782-1.393 3.022-1.209 6.802-5.344 7.452-10.204 0 0 5.692 4.392 4.02 13.793-1.572 8.827-8.958 11.705-17.382 12.192-.004-.057.948-2.023.647-3.228 4.782.348 10.132-1.5 12.715-5.749 2.363-3.889 1.7-10.529.729-11.502-2.37 7.479-10.899 8.999-16.246 8.868"/><path fill="#463014" d="M68.728 78.367c-1.006-1.088-2.857-2.385-7.123-2.385l-11.365-.007h-.028l-11.367.007c-4.265 0-6.116 1.297-7.123 2.385-1.467 1.583-1.697 3.786-.682 6.54 2.696 7.328 6.486 14.774 19.171 14.784v.001h.028c12.684-.012 16.474-7.457 19.17-14.786 1.016-2.753.785-4.956-.681-6.54m-1.975 6.025c-1.284 3.68-4.737 12.588-16.528 12.604-11.793-.016-15.244-8.923-16.529-12.603-.71-2.042-.657-3.553.166-4.492.563-.641 1.854-1.407 4.798-1.407l3.075-.001c2.268-.002 5.117-.005 8.49-.006 3.372.001 6.222.004 8.49.006h3.074c2.944 0 4.236.766 4.798 1.408.822.94.877 2.45.166 4.492"/><path fill="#463014" d="M64.444 70.799c1.516 4.448 4.612 8.05 4.612 8.05s-4.259-.195-4.494-.948c-.173-.556-3.845-9.152-5.255-19.222 1.325 2.178 5.007 11.739 5.137 12.12"/></g></g><defs><clipPath id="a"><path fill="#fff" d="M0 0h100v100H0z"/></clipPath><clipPath id="b"><path fill="#fff" d="M13 0h74.4v100H13z"/></clipPath></defs></g></svg>