<svg xmlns="http://www.w3.org/2000/svg" fill="none" viewBox="0 0 512 512"><g transform="translate(30.72 30.72) scale(4.506)"><g clip-path="url(#a)"><path fill="#cf4547" d="M0 0h100v100H0z"/><path fill="#fff" stroke="#fff" stroke-miterlimit="10" stroke-width=".264" d="M34.6 50.666q-.069.102-.25.644-.182.543-.44 1.36-.26.817-.561 1.829l-.62 2.064q-.32 1.054-.614 2.067a317 317 0 0 0-.915 3.2 21 21 0 0 1-.19.655q-.085.326-.276.726a5 5 0 0 1-.448.756 2.8 2.8 0 0 1-.57.594 1.05 1.05 0 0 1-.639.235q-.553-.001-.803-.368-.25-.368-.25-1.35v-.286q0-.144.017-.306.018-.325.258-1.228.243-.898.578-2.035.336-1.136.725-2.352.388-1.217.7-2.178a34 34 0 0 1-1.987 2.035 21 21 0 0 1-2.192 1.82q-1.122.808-2.262 1.318t-2.192.511q-1.207-.001-2.08-.53a4.6 4.6 0 0 1-1.441-1.392 6.3 6.3 0 0 1-.847-1.942 8.8 8.8 0 0 1-.276-2.169v-.266q0-.123.018-.245a25 25 0 0 1 .56-4.03 33 33 0 0 1 1.2-4.108 38 38 0 0 1 1.718-3.998 35 35 0 0 1 2.124-3.69 29 29 0 0 1 2.442-3.201 19.4 19.4 0 0 1 2.658-2.515q1.364-1.052 2.754-1.645 1.39-.594 2.754-.594 1.572 0 3.038.858 1.466.859 2.744 2.781.294.429.37.87.078.44.079.829 0 .92-.441 1.451t-1.044.53q-.553.001-1.026-.583-.475-.582-1.062-1.667-.553-.981-1.216-1.422a2.56 2.56 0 0 0-1.442-.438q-1.209 0-2.581 1.002-1.373 1.003-2.72 2.649a29 29 0 0 0-2.58 3.762 39 39 0 0 0-2.185 4.335 31 31 0 0 0-1.51 4.376q-.56 2.156-.56 3.876 0 .573.078 1.175.079.604.294 1.095.214.492.588.807.37.318.94.318.638 0 1.45-.43.811-.428 1.682-1.124.872-.696 1.753-1.575a28 28 0 0 0 2.985-3.506q.588-.828.88-1.441l1.606-4.805q.294-.775.767-1.105.477-.326.976-.327.24 0 .484.082a1.18 1.18 0 0 1 .732.708q.112.277.112.644 0 .98-.173 1.841a15 15 0 0 1-.44 1.677 28 28 0 0 1-.596 1.645 41 41 0 0 0-.634 1.726Zm21.77 4.007a16.3 16.3 0 0 1-1.769 1.994 18 18 0 0 1-2.08 1.728q-1.07.755-2.106 1.216t-1.864.46-1.348-.552q-.517-.552-.517-1.882 0-.942.276-2.188-.45.799-1.122 1.616a10 10 0 0 1-1.538 1.492q-.864.675-1.933 1.093-1.07.42-2.331.42-.57 0-1.097-.144a2.3 2.3 0 0 1-.922-.49 2.45 2.45 0 0 1-.639-.93q-.24-.581-.24-1.46 0-.021.068-.624t.44-1.901 1.148-3.364q.78-2.064 2.192-5.01.362-.777.836-1.114a1.73 1.73 0 0 1 1.027-.337q.24 0 .501.07.258.073.484.225.224.153.362.388.139.235.14.543 0 .205-.053.388-.084.348-.373.91-.285.563-.664 1.29-.378.724-.803 1.564a22 22 0 0 0-.785 1.738q-.362.9-.621 1.829a8 8 0 0 0-.294 1.81q0 .367.172.676.174.306.57.307 1.123 0 2.141-.736 1.02-.736 1.883-1.83a17.4 17.4 0 0 0 1.563-2.352q.7-1.257 1.165-2.3.33-.697.578-1.492.25-.797.544-1.473.294-.675.674-1.124t.95-.451q.622 0 .984.47.361.471.362 1.124 0 .369-.233 1.013c-.157.429-.35.92-.588 1.473q-.352.828-.768 1.769a31 31 0 0 0-.767 1.911 19 19 0 0 0-.588 1.902 7.2 7.2 0 0 0-.233 1.728q0 .736.76.736.534 0 1.33-.368a9 9 0 0 0 1.667-1.032 15.5 15.5 0 0 0 1.743-1.565 12.6 12.6 0 0 0 1.545-1.943z"/><path fill="#fff" stroke="#fff" stroke-miterlimit="10" stroke-width=".264" d="M56.906 53.65q-.19.47-.372 1.096-.18.623-.18 1.114 0 .306.104.492.103.184.398.184.36.001.906-.257.545-.255 1.174-.675.63-.418 1.312-.962a42 42 0 0 0 2.642-2.29q.614-.584 1.097-1.073a.76.76 0 0 1 .327-.204 1 1 0 0 1 .327-.06q.346 0 .57.285.225.285.224.757 0 .429-.241.961-.24.533-.846 1.042a52 52 0 0 1-2.227 2.29 23 23 0 0 1-2.235 1.912 12 12 0 0 1-2.21 1.32q-1.095.49-2.133.49-.708 0-1.183-.226a2 2 0 0 1-.76-.613 2.45 2.45 0 0 1-.405-.92 5 5 0 0 1-.122-1.125q0-1.002.251-2.054.249-1.053.595-1.932.605-1.594 1.227-3.169.62-1.575 1.14-2.883l5.23-13.19q.31-.797.838-1.124.526-.328 1.061-.328t.976.347q.44.347.44 1.125 0 .368-.147.777a10 10 0 0 1-.37.88 138 138 0 0 0-1.026 2.35q-.597 1.39-1.277 3.026-.681 1.636-1.399 3.404l-1.398 3.446q-.682 1.677-1.277 3.179a271 271 0 0 0-1.03 2.609Z"/><path fill="#fff" stroke="#fff" stroke-miterlimit="10" stroke-width=".264" d="M81.369 49.949q.241-.164.448-.267a.9.9 0 0 1 .398-.101q.378 0 .57.336.19.339.19.829 0 .532-.233 1.083a2.3 2.3 0 0 1-.7.92 179 179 0 0 0-3.296 2.986 36 36 0 0 1-2.736 2.32q-1.287.974-2.511 1.503a6.5 6.5 0 0 1-2.625.531q-1.313-.001-2.03-.572-.716-.573-.716-1.575v-.153q0-.07.017-.174.07-.615.535-1.41.468-.796 1.122-1.657.655-.86 1.399-1.738.743-.878 1.373-1.666t1.044-1.442q.415-.654.415-1.063a.48.48 0 0 0-.172-.388q-.174-.143-.57-.143-.69 0-1.424.358-.736.358-1.45.96a13 13 0 0 0-1.398 1.38c-.454.52-.88 1.056-1.277 1.617q-.597.839-1.087 1.686a23 23 0 0 0-.837 1.565q-.102.226-.293.635t-.414.92q-.224.512-.476 1.052-.25.544-.456 1.023l-.372.86q-.165.378-.233.52-.087.185-.286.696t-.458 1.197q-.26.684-.543 1.441-.285.758-.535 1.432t-.44 1.185q-.191.51-.243.695-.174.532-.406 1.003t-.535.829q-.3.358-.691.572-.389.214-.872.213-.621-.001-1.028-.296-.405-.296-.405-1.134 0-.409.103-.838.105-.43.259-.848.155-.42.32-.817.164-.398.3-.768.934-2.045 1.9-4.1a181 181 0 0 0 1.856-4.07 100 100 0 0 0 1.649-3.956 40 40 0 0 0 1.26-3.722q.138-.367.38-1.044.24-.675.552-1.33a5.7 5.7 0 0 1 .699-1.134q.39-.48.836-.48.69 0 1.001.318.312.316.312.93 0 .123-.036.388-.035.264-.086.562a14 14 0 0 1-.111.562 3 3 0 0 1-.112.388q.638-.694 1.38-1.38.743-.685 1.538-1.239a9 9 0 0 1 1.622-.9 4.3 4.3 0 0 1 1.657-.347q.57 0 1.13.164.562.163 1.001.48.441.318.717.797.276.482.276 1.115 0 .839-.423 1.79a13 13 0 0 1-1.061 1.912q-.641.961-1.381 1.87-.743.912-1.39 1.657-.648.747-1.088 1.268-.44.522-.458.705.001.245.154.4.154.153.52.152.293 0 .863-.327.57-.325 1.597-1.134a82 82 0 0 0 2.607-2.168 274 274 0 0 0 3.894-3.424Z"/></g><defs><clipPath id="a"><path fill="#fff" d="M0 0h100v100H0z"/></clipPath></defs></g></svg>