<svg xmlns="http://www.w3.org/2000/svg" fill="none" viewBox="0 0 512 512"><g transform="translate(21.085 21.544) scale(4.698)"><path fill="#939598" d="m57 45.365 8.984-21.25a.507.507 0 0 1 .662-.27.5.5 0 0 1 .271.657l-7.918 18.724z"/><path fill="#931a2b" d="M64.75 34.55s-4.3 5.635-7.334 8.89c-3.037 3.257-7.463 8.39-7.463 8.39v11.48c.032-.003.061-.009.093-.009a1.32 1.32 0 0 1 1.329 1.314c0 .727-.595 1.315-1.329 1.315-.032 0-.061-.007-.093-.01v11.581s5.573-3.787 9.61-7.451c4.553-4.131 9.612-10.582 9.612-10.582z"/><path fill="#a7a9ac" d="m46.797 13.547-.041 4.475-16.241 6.505.285-3.976 15.998-7.005z"/><path fill="#bcbec0" d="m69.36 20.395.316 3.974-16.322-6.374-.078-4.474zm-19.33-8.263.017 4.57L26.29 7.424l.493-5.23zM26.782 2.194l-.493 5.23-3.15 1.858.544-5.106z"/><path fill="#a7a9ac" d="m73.172 1.999.532 5.227-23.657 9.477-.017-4.571z"/><path fill="#bcbec0" d="m76.295 3.956.584 5.103-3.174-1.833L73.173 2z"/><path fill="#808285" d="m33.748 25.442-3.234-.914 16.242-6.506-23.617-8.739 3.15-1.86 23.758 9.28 23.658-9.477 3.174 1.833-23.525 8.936 16.322 6.374-3.226.94-16.388-6.063-16.314 6.195"/><path fill="#939598" d="M23.395 38.567q-.026 0-.05-.003a.5.5 0 0 1-.454-.548l2.896-28.888a.5.5 0 0 1 .553-.449c.277.027.48.273.453.547l-2.895 28.888a.504.504 0 0 1-.502.453m52.058 0a.504.504 0 0 1-.504-.471L73.2 9.009a.503.503 0 0 1 .475-.53.5.5 0 0 1 .536.47l1.749 29.085a.5.5 0 0 1-.474.53q-.016.003-.032.002M41.658 44.38l-8.375-19.745a.5.5 0 0 1 .27-.657.51.51 0 0 1 .662.269l9.296 21.915z"/><path fill="#a81e2c" d="M48.72 64.616c0-.695.544-1.258 1.234-1.306V51.831s-4.428-5.134-7.463-8.39-7.335-8.89-7.335-8.89L30.73 59.47s5.059 6.45 9.61 10.582c4.038 3.663 9.613 7.45 9.613 7.45V65.921a1.316 1.316 0 0 1-1.233-1.305"/><path fill="#939598" d="M50.046 65.367a.5.5 0 0 1-.343-.133L32.272 49.209l-.006-1.372 17.777 16.34 17.551-16.534.07 1.315-17.27 16.27a.5.5 0 0 1-.349.139z"/><path fill="#ce2227" d="M86.504 38.056 64.75 34.551s2.024 11.52 2.024 30.803c0 19.286-2.656 32.434-2.656 32.434l22.007-2.38s2.781-10.521 2.781-28.678c0-18.156-2.403-28.674-2.403-28.674zm-10.056 50.84a1.07 1.07 0 0 1-1.075-1.063 1.07 1.07 0 0 1 1.075-1.064 1.07 1.07 0 0 1 1.075 1.064 1.07 1.07 0 0 1-1.075 1.064M33.133 65.355c0-19.284 2.023-30.803 2.023-30.803l-21.753 3.505S11 48.575 11 66.73c0 18.159 2.782 28.678 2.782 28.678l22.006 2.38c0-.002-2.655-13.149-2.655-32.435m-10.08 23.473a1 1 0 0 1-1.002-.993 1 1 0 0 1 1.002-.993 1 1 0 0 1 1.002.992 1 1 0 0 1-1.002.993z"/><path fill="#a51724" d="M76.448 45.365a.99.99 0 0 0 .994-.985.99.99 0 0 0-.994-.983.99.99 0 0 0-.994.983.99.99 0 0 0 .994.985"/><path fill="#939598" d="M76.45 88.334a.5.5 0 0 1-.494-.618c.015-.062 1.504-6.462 1.504-21.286 0-14.852-1.492-21.876-1.506-21.944a.506.506 0 0 1 .989-.211c.015.069 1.528 7.2 1.528 22.155 0 14.965-1.468 21.256-1.53 21.517a.505.505 0 0 1-.492.388"/><path fill="#a51724" d="M23.054 45.535a1.16 1.16 0 0 0 1.166-1.155 1.16 1.16 0 0 0-1.166-1.154 1.16 1.16 0 0 0-1.166 1.154 1.16 1.16 0 0 0 1.166 1.155"/><path fill="#939598" d="M23.052 88.334a.506.506 0 0 1-.5-.428c-.012-.083-1.27-8.517-1.27-21.737s1.258-21.776 1.27-21.861a.505.505 0 0 1 .575-.422.5.5 0 0 1 .427.568c-.013.085-1.26 8.574-1.26 21.716 0 13.148 1.248 21.508 1.26 21.589a.5.5 0 0 1-.426.57q-.039.004-.076.005"/></g></svg>