<svg xmlns="http://www.w3.org/2000/svg" fill="none" viewBox="0 0 512 512"><g transform="translate(10.372 5.527) scale(4.961)"><path fill="#3cafce" d="M62.476 7.825a9.75 9.75 0 0 0-9.75 9.75 9.75 9.75 0 0 0 5.178 8.584l-5.38 10.211a13.3 13.3 0 0 0-4.074-.646c-7.319 0-13.25 5.932-13.25 13.25.01.946.124 1.889.337 2.81l-10.71 3.92a11.22 11.22 0 0 0-9.5-5.253c-6.202 0-11.225 5.024-11.225 11.224 0 6.199 5.023 11.225 11.224 11.225 6.198 0 11.224-5.026 11.224-11.225a11.3 11.3 0 0 0-.262-2.401l10.266-4.508a13.25 13.25 0 0 0 11.896 7.459 13.25 13.25 0 0 0 8.034-2.756l8.64 8.224a16.3 16.3 0 0 0-2.85 9.157c0 8.99 7.287 16.274 16.274 16.274 8.991 0 16.275-7.284 16.275-16.275 0-8.988-7.284-16.275-16.275-16.275a16.3 16.3 0 0 0-10.257 3.677L59.1 56.802a13.25 13.25 0 0 0 2.601-7.828 13.26 13.26 0 0 0-5.753-10.919l4.56-10.955c.646.14 1.306.216 1.968.226 5.383 0 9.75-4.365 9.75-9.75s-4.366-9.751-9.75-9.751"/></g></svg>