<svg xmlns="http://www.w3.org/2000/svg" fill="none" viewBox="0 0 512 512"><g transform="translate(30.72 30.28) scale(4.506)"><path fill="#000" d="M87.028 54.26c0 .85.41 1.524 1.556 1.524 1.348 0 2.784-.968 2.87-3.165q-.945-.152-1.9-.173c-1.354-.002-2.526.379-2.526 1.813"/><path fill="#000" d="M0 34v32.07h100V34zm28.309 24.186h-5.531v-7.442c0-2.285-.763-3.165-2.256-3.165-1.817 0-2.55 1.29-2.55 3.135v4.605h1.75v2.87H14.19v-7.445c0-2.285-.76-3.165-2.256-3.165-1.817 0-2.55 1.29-2.55 3.135v4.605H11.9v2.87H3.84v-2.87h1.757v-7.476h-1.9v-2.87h5.68v1.99c.792-1.405 2.17-2.255 4.014-2.255 1.901 0 3.663.909 4.307 2.843.733-1.758 2.227-2.843 4.308-2.843 2.373 0 4.542 1.436 4.542 4.572v6.039h1.758zm8.409.292c-4.073 0-6.887-2.49-6.887-6.71 0-3.868 2.344-7.062 7.087-7.062s7.063 3.194 7.063 6.886c.003 4.221-3.044 6.888-7.263 6.888zm21.038-.292H46.21l-.38-1.993 7.26-8.351h-4.131l-.586 2.051-2.726-.292.468-4.63H57.73l.293 1.992-7.329 8.356h4.271l.615-2.052 2.989.292zm7.15 0h-3.957V53.44h3.956zm0-8.47h-3.957v-4.744h3.956zm2.073 8.47 5.72-20.152h3.721l-5.714 20.152zm7.678 0 5.716-20.152h3.722l-5.711 20.152zm19.69.292c-1.757 0-2.723-1.026-2.9-2.637-.762 1.348-2.11 2.637-4.248 2.637-1.901 0-4.072-1.026-4.072-3.78 0-3.253 3.135-4.013 6.153-4.013q1.089-.009 2.17.117v-.439c0-1.348-.03-2.959-2.17-2.959-.792 0-1.407.059-2.022.38l-.49 1.876-3.017-.323.586-3.428c2.314-.938 3.486-1.21 5.655-1.21 2.843 0 5.246 1.466 5.246 4.484v5.743c0 .763.292 1.027.91 1.027a2 2 0 0 0 .556-.088l.03 1.993a5.1 5.1 0 0 1-2.38.622z"/><path fill="#000" d="M36.863 47.608c-1.934 0-3.136 1.435-3.136 3.927 0 2.285 1.055 4.043 3.112 4.043 1.963 0 3.253-1.582 3.253-4.102-.006-2.667-1.44-3.868-3.23-3.868"/></g></svg>