<svg xmlns="http://www.w3.org/2000/svg" fill="none" viewBox="0 0 512 512"><g transform="translate(30.72 30.72) scale(4.506)"><g clip-path="url(#a)"><path fill="#ff7f0e" d="M87.805 4.992a5.2 5.2 0 0 0-2.02.325c-2.678.99-4.087 3.913-3.15 6.529s3.868 3.937 6.546 2.947v-.002c2.678-.99 4.089-3.911 3.15-6.526-.704-1.964-2.529-3.197-4.525-3.274zM56.719 25.828c-1.736.02-3.456.338-5.083.943-7.687 2.84-11.737 11.232-9.044 18.744 2.692 7.511 11.107 11.297 18.793 8.458 7.688-2.84 11.737-11.233 9.045-18.744-2.102-5.869-7.698-9.463-13.711-9.4M16.206 50.57a5.2 5.2 0 0 0-2.02.325c-2.679.99-4.088 3.913-3.15 6.53.938 2.616 3.868 3.935 6.545 2.945 2.68-.99 4.087-3.912 3.15-6.529-.704-1.961-2.527-3.195-4.524-3.272zM72.306 79a7.2 7.2 0 0 0-2.776.447c-3.68 1.36-5.618 5.376-4.33 8.97 1.288 3.597 5.317 5.41 8.995 4.05h.001c3.68-1.36 5.618-5.377 4.328-8.972-.966-2.697-3.473-4.39-6.218-4.495"/><path fill="#2c7fb8" d="M88.054.006a10.43 10.43 0 0 0-7.34 2.682c-3.605 3.25-4.384 8.468-2.122 12.453l-6.075 5.47a25.3 25.3 0 0 0-14.306-5.135 25.8 25.8 0 0 0-9.974 1.588c-12.486 4.614-19.432 17.849-16.169 30.27l-7.57 2.8c-1.761-2.74-4.77-4.424-8.011-4.555-.868-.02-1.735.07-2.58.266l-1.546-4.36c2.589-1.617 3.842-4.83 2.801-7.768l.002-.002c-.9-2.536-3.26-4.135-5.83-4.247a6.7 6.7 0 0 0-2.593.402c-3.426 1.253-5.267 5.01-4.068 8.393 1.04 2.932 4.032 4.608 7.042 4.187l1.535 4.33c-4.453 2.342-6.691 7.61-4.979 12.387 1.867 5.206 7.729 7.83 13 5.881 4.566-1.687 7.283-6.262 6.72-10.838l7.547-2.788c4.964 10.711 17.033 16.31 28.661 13.502l3.124 8.715a14.53 14.53 0 0 0-6.97 8.282l-4.123-.671a6.41 6.41 0 0 0-5.388-6.092c-3.575-.583-7.025 1.813-7.706 5.36-.68 3.547 1.707 6.942 5.283 7.525 3.104.507 6.11-1.233 7.294-4.024l4.035.658a13.7 13.7 0 0 0 .697 6.219c2.605 7.269 10.788 10.925 18.15 8.205 7.36-2.72 11.291-10.814 8.685-18.083a13.5 13.5 0 0 0-3.923-5.7l8.273-14.384-.039-.021c2.956.616 6.09-.858 7.45-3.691 1.59-3.249.166-7.21-3.126-8.655h-.003a6.6 6.6 0 0 0-2.54-.572 6.79 6.79 0 0 0-5.41 2.534l-5.218-2.505c1.753-5.154 1.878-10.859-.075-16.309a24.1 24.1 0 0 0-4.927-8.168l5.776-5.203c3.794 2.635 9.117 2.356 12.734-.908 4.172-3.762 4.57-10.17.825-14.239C93.203 1.162 90.654.094 88.053.005m-.106 2.7c1.908.062 3.768.848 5.133 2.329 2.726 2.963 2.465 7.582-.647 10.388-3.11 2.807-7.821 2.633-10.55-.33-2.726-2.963-2.467-7.582.647-10.39a7.7 7.7 0 0 1 5.417-1.996zm-29.93 18.038c7.829.283 14.919 5.098 17.664 12.76 3.662 10.215-1.826 21.661-12.388 25.564v.001h-.002c-10.564 3.903-21.947-1.255-25.608-11.47-3.66-10.214 1.829-21.661 12.391-25.564a20.7 20.7 0 0 1 7.942-1.29M9.262 31.218c1.887.072 3.586 1.237 4.24 3.083v.002c.873 2.462-.456 5.215-3.01 6.149-2.557.936-5.288-.314-6.161-2.776-.873-2.464.457-5.217 3.013-6.151h.002a5 5 0 0 1 1.916-.307m7.125 17.059c2.909.102 5.532 1.89 6.55 4.732 1.359 3.788-.675 8.04-4.607 9.492s-8.147-.46-9.505-4.25c-1.36-3.788.676-8.039 4.608-9.492a7.7 7.7 0 0 1 2.954-.482m74.938 1.477a4.9 4.9 0 0 1 1.87.42l.006.002c2.386 1.042 3.422 3.899 2.257 6.273l-.002.008c-1.162 2.422-4.073 3.5-6.49 2.42l-.006-.003c-2.386-1.043-3.422-3.9-2.258-6.276l.002-.006a5.03 5.03 0 0 1 4.62-2.838m-11.688 1.039 5.036 2.251c-.648 2.516.302 5.205 2.371 6.736l-8.009 13.924a14.2 14.2 0 0 0-6.329-1.78q-.766.003-1.528.09l-3.293-9.186a26.02 26.02 0 0 0 11.752-12.035m-7.07 24.898c4.06.143 7.727 2.637 9.148 6.604 1.897 5.29-.942 11.227-6.434 13.255-5.492 2.03-11.376-.643-13.272-5.932-1.897-5.291.942-11.227 6.435-13.254a10.8 10.8 0 0 1 4.123-.673m-24.991 1.145q.486-.02.98.059h.002c2.64.432 4.336 2.848 3.836 5.456-.502 2.61-3.054 4.387-5.694 3.956s-4.338-2.849-3.836-5.457c.439-2.284 2.447-3.927 4.712-4.014"/></g><defs><clipPath id="a"><path fill="#fff" d="M0 0h100v100H0z"/></clipPath></defs></g></svg>