<svg xmlns="http://www.w3.org/2000/svg" fill="none" viewBox="0 0 512 512"><g transform="translate(19.686 21.525) scale(4.708)"><path fill="#87802a" d="M50.937 2.9c-14.054 0-26.718 6.302-35.343 16.232 1.28.086 2.543.309 3.773.662.008 0 .027-.009.04 0 7.964-8.38 19.15-13.65 31.53-13.65h.137c23.992 0 43.635 19.65 43.635 43.768 0 24.122-19.642 43.762-43.635 43.762h-.137c-23.984 0-43.625-19.64-43.625-43.762 0-3.436.424-6.765 1.175-9.98-.43-2.892-.968-5.028-1.593-6.062a46.9 46.9 0 0 0-2.832 16.043c0 25.887 21.125 46.914 46.875 46.914h.138C76.825 96.827 98 75.8 98 49.912 98.001 24.024 76.826 2.9 51.075 2.9z"/><path fill="#903a36" d="M87.54 35.01C84.02 24.98 75.476 16.3 64.773 12.374c-6.638-2.439-17.215-1.768-23.99.411-5.42 1.755-5.698 1.755-10.706 4.737-1.895 1.084-5.42.134-6.775 1.904-1.36 1.758 1.492 4.337 1.63 6.504 0 .945 3.387-5.558 3.387-4.746 0 2.03-2.304 6.37-2.716 9.357-.808 5.682 1.221 22.351 2.579 27.78.266.812 2.841-.137 3.525-.41 1.084-.137 2.033-3.662 3.656-4.744C42.414 48.155 46.2 41.65 52.03 40.564c5.294-.955 11.664 2.17 13.965 6.507 1.223 2.305 2.17 4.873 2.17 6.503 0 1.221-.41 1.895-.684 1.221-1.62-4.608-3.25-8.133-4.737-9.354-3.524-2.843-5.157-3.661-10.302-2.578-5.283 1.22-15.174 10.852-18.299 15.185-1.898 2.578-2.57 7.05-1.223 9.082 4.21 6.094 7.598 7.724 15.05 8.261.272 0 2.439 1.496 1.493 1.496-9.494 0-14.236-2.579-20.605-12.61-.675-1.083-2.167-5.146-2.579-6.366-2.57-6.916-1.895-18.427-3.25-27.649-.4-2.71-.95-5.83-2.308-7.724-2.166-3.25-15.31-2.576-17.205.812-1.084.812-1.492 1.492-.684 2.032 7.188 5.42 7.188 11.387 7.461 17.215.275 7.59.275 13.147 2.979 20.197 5.42 14.764 17.615 24.533 31.309 26.425 16.668 2.441 28.728-4.2 37.81-15.723 8.136-10.3 9.484-26.287 5.148-38.485M37.392 26.33c.138-1.085.41-3.651 1.221-4.474 1.492-1.346 3.525-2.168 5.292-1.08 2.57 1.491 3.79 3.25 3.653 6.1-.263 2.706-3.388 4.065-5.695 4.336 1.907-.95 4.337-2.03 3.937-4.745-.275-.946-2.17-.538-2.85-1.358-.538-.675.133-2.842-.538-2.976-.411 0-.952 0-1.357.134-1.624.409-3.117 1.896-3.663 4.063M34.278 43c.546-.81 1.904-2.167 2.85-3.516 1.349-1.768 1.224-2.848 3.116-4.88-1.63 2.703-.95 3.924-2.441 5.554-.675.675-1.36 1.761-3.525 2.842"/></g></svg>