<svg xmlns="http://www.w3.org/2000/svg" fill="none" viewBox="0 0 512 512"><g transform="translate(28.946 28.946) scale(4.541)"><path fill="#3d3b47" d="M50 98.282a5.55 5.55 0 0 1-2.422-.547L9.844 76.016c-1.328-.781-2.422-2.734-2.422-4.219V28.204c0-1.485 1.172-3.438 2.422-4.22L47.578 2.267c.625-.39 1.484-.547 2.422-.547s1.797.235 2.422.547l37.656 21.797c1.328.781 2.422 2.734 2.422 4.219v43.515c0 1.485-1.172 3.438-2.422 4.22L52.422 97.812c-.625.313-1.484.469-2.422.469"/><path fill="#ccc" d="M50 2.891c.703 0 1.406.156 1.875.39l37.656 21.72c.938.546 1.875 2.109 1.875 3.203v43.515c0 1.094-.937 2.657-1.875 3.203L51.875 96.72c-.469.235-1.172.39-1.875.39s-1.406-.155-1.875-.39L10.469 75.001c-.938-.547-1.875-2.11-1.875-3.204V28.204c0-1.094.937-2.657 1.875-3.204L48.125 3.282c.469-.235 1.172-.39 1.875-.39m0-2.344c-1.094 0-2.187.235-3.047.703L9.297 22.97c-1.64 1.015-3.047 3.359-3.047 5.234v43.515c0 1.953 1.328 4.297 3.047 5.235L46.953 98.75c.86.468 1.953.703 3.047.703s2.188-.235 3.047-.703l37.656-21.797c1.64-.938 3.047-3.282 3.047-5.235V28.204c0-1.954-1.328-4.297-3.047-5.235L53.047 1.25C52.187.782 51.094.547 50 .547"/><path fill="#eff3f3" d="M50 46.641h.234c1.094.078 2.11.703 2.735 1.641.312.547.468 1.25.468 1.953-.156 1.797-1.562 3.125-3.359 3.125h-.234c-1.094-.078-2.11-.703-2.735-1.64-.312-.547-.468-1.25-.468-1.954.078-1.718 1.562-3.125 3.359-3.125m0-.234c-1.875 0-3.437 1.484-3.594 3.36a3.14 3.14 0 0 0 .469 2.03c.625 1.016 1.64 1.72 2.89 1.797H50c1.875 0 3.438-1.484 3.594-3.359.078-.703-.157-1.406-.469-2.031-.625-1.016-1.64-1.719-2.89-1.797z"/><path fill="#eff3f3" d="M50.078 48.828c.625.078 1.172.625 1.094 1.25s-.625 1.171-1.25 1.093-1.172-.625-1.094-1.25c0-.625.625-1.172 1.25-1.093M50 54.765h-.312c-1.563-.078-3.047-1.016-3.829-2.344-.468-.859-.703-1.797-.625-2.734a4.87 4.87 0 0 1 1.25-2.89v-.079L15.625 70.234l35.469-15.625c-.39.078-.703.156-1.094.156"/><path fill="#0977f7" d="M48.828 45.39c.469-.078.938-.156 1.484-.156 1.563.078 3.047 1.015 3.829 2.344.468.859.703 1.796.625 2.734-.078 1.172-.547 2.188-1.328 2.969l31.171-22.969z"/></g></svg>