<svg xmlns="http://www.w3.org/2000/svg" fill="none" viewBox="0 0 512 512"><g transform="translate(30.72 30.72) scale(4.506)"><g clip-path="url(#a)"><path fill="#0364b8" d="M58.944 53.31S80.378 41.3 80.747 41.486A31.23 31.23 0 0 0 42.87 18.943a30.74 30.74 0 0 0-18.292 13.12c.185 0 34.367 21.248 34.367 21.248"/><path fill="#0f78d4" d="M38.065 35.757a25.1 25.1 0 0 0-13.118-3.695h-.37A24.963 24.963 0 0 0 .003 57.376a25.76 25.76 0 0 0 4.434 14.042l34.367-3.51 20.14-19.401z"/><path fill="#1490df" d="M80.932 41.485H79.64a19.1 19.1 0 0 0-7.945 1.663L59.13 48.322l13.673 15.151 24.76 7.76a20.263 20.263 0 0 0-8.315-27.53 22.3 22.3 0 0 0-8.315-2.218"/><path fill="#28a8ea" d="m79.639 60.701-5.174-3.14-11.825-7.022-3.696-2.217-9.423 4.065-18.292 7.76-8.315 3.326-18.477 7.76a25.14 25.14 0 0 0 20.51 10.717h54.507a20.54 20.54 0 0 0 17.923-10.717z"/></g><defs><clipPath id="a"><path fill="#fff" d="M0 0h100v100H0z"/></clipPath></defs></g></svg>