<svg xmlns="http://www.w3.org/2000/svg" fill="none" viewBox="0 0 512 512"><g transform="translate(25.313 25.313) scale(4.614)"><path fill="#e3b019" fill-rule="evenodd" d="M62.512 23.665c-3.082 0-5.58 2.51-5.58 5.604v14.812h-1.194v1.197h1.194v16.008c0 3.097 2.498 5.604 5.58 5.604s5.58-2.507 5.58-5.604V45.28h1.2v-1.197h-1.2V29.27c0-3.094-2.498-5.605-5.58-5.605m0 2.603V44.08h-3.389V29.668a3.396 3.396 0 0 1 3.39-3.4m-8.37 2.197-7.11.15 5.841 3.832.128-.041v.062zm-1.14 4.003-.016.053-.113-.074-6.667 2.067 6.667 2.072.114-.074.014.05zm0 4.095v.065l-.129-.042-5.842 3.833 7.111.146zm17.881-8.098 1.147 4.006v-.066l.128.041 5.836-3.832zm1.275 3.982-.114.074-.014-.05v4.091l.014-.05.114.074 6.661-2.073zm0 4.139-.129.041v-.065l-1.146 4.003 7.111-.147zM60.82 32.47a1.2 1.2 0 0 0 0 2.403c.66 0 1.194-.539 1.194-1.203a1.193 1.193 0 0 0-1.194-1.2m3.389 0c.658 0 1.194.536 1.194 1.2a1.2 1.2 0 0 1-1.194 1.203 1.203 1.203 0 0 1-1.2-1.203 1.2 1.2 0 0 1 1.2-1.2m-3.39 3.2a1.2 1.2 0 0 0 0 2.404c.662 0 1.195-.54 1.195-1.203a1.194 1.194 0 0 0-1.194-1.2m3.39 0c.658 0 1.194.537 1.194 1.2a1.2 1.2 0 0 1-1.194 1.204 1.203 1.203 0 0 1-1.2-1.203 1.2 1.2 0 0 1 1.2-1.2m-3.39 3.205a1.2 1.2 0 0 0-.807 2.085c.22.202.508.316.808.318a1.196 1.196 0 0 0 1.188-1.09v-.006q.006-.056.006-.11a1.195 1.195 0 0 0-1.194-1.197m3.39 0a1.197 1.197 0 0 1 1.188 1.307 1.205 1.205 0 0 1-1.189 1.096 1.2 1.2 0 0 1-1.194-1.09v-.006l-.006-.11a1.2 1.2 0 0 1 1.201-1.197M53.144 44.08v17.406c0 5.196 4.196 9.412 9.368 9.412s9.368-4.216 9.368-9.412V44.08h-1.194v17.405c0 4.532-3.659 8.207-8.174 8.207s-8.168-3.674-8.168-8.207V44.081zm9.368 1.197h3.39v11.98h-.022l.021.03v3.4l-.044.546-3.344-3.975h3.368l-3.368-3.994h3.374l-3.374-3.996h3.383zm3.344 15.958a3.38 3.38 0 0 1-1.185 2.078l-2.159-2.063zm-8.323 11.894v3.204h9.965V73.13z" clip-rule="evenodd"/><path fill="#7d000c" d="M32.749 44.082c-3.082 0-5.58 2.507-5.58 5.604v5.962c0 3.096 2.498 5.607 5.58 5.607s5.584-2.51 5.584-5.607h-3.19a2.4 2.4 0 0 1-2.394 2.403 2.4 2.4 0 0 1-2.392-2.403v-1.382h4.786v-3.2h-4.785v-1.38a2.4 2.4 0 0 1 2.39-2.403 2.4 2.4 0 0 1 2.396 2.404h3.189c0-3.097-2.502-5.605-5.584-5.605m18.406 17.17h-3.198V49.684a2.395 2.395 0 0 0-2.392-2.404 2.4 2.4 0 0 0-2.391 2.404l.008 11.568h-3.198V49.684c0-3.097 2.499-5.604 5.58-5.604 3.083 0 5.581 2.507 5.581 5.604l.009 11.568M12.372 49.684v5.964c0 3.097-2.498 5.604-5.58 5.604s-5.58-2.507-5.58-5.604v-5.965c0-3.096 2.498-5.603 5.58-5.603s5.58 2.507 5.58 5.604m-3.189 0a2.395 2.395 0 0 0-2.391-2.404A2.4 2.4 0 0 0 4.4 49.684v5.964a2.4 2.4 0 0 0 2.392 2.403 2.4 2.4 0 0 0 2.391-2.403zm16.259 0v5.964c0 3.097-2.498 5.604-5.58 5.604a5.55 5.55 0 0 1-2.395-.539v5.58h-3.19V45.28s1.308.101 2.13 0c1.415-.173 1.462-1.2 3.454-1.2 3.082 0 5.58 2.507 5.58 5.604m-3.19 0a2.4 2.4 0 0 0-2.39-2.404 2.4 2.4 0 0 0-2.395 2.404v5.964a2.4 2.4 0 0 0 2.394 2.403 2.4 2.4 0 0 0 2.392-2.403zm57.404-5.602c-3.085 0-5.584 2.507-5.584 5.604v11.569h3.199q-.01-3.353-.009-6.707h4.785v6.707h3.199c-.006 0-.009-3.437-.009-6.707v-4.862c0-3.097-2.499-5.604-5.581-5.604m0 3.2a2.4 2.4 0 0 1 2.391 2.404v1.662h-4.785v-1.662a2.4 2.4 0 0 1 2.394-2.403m11.16 10.77h2.391a2.4 2.4 0 0 0 2.392-2.404h3.189c0 3.097-2.498 5.604-5.58 5.604h-5.581V44.08h3.19z"/></g></svg>