<svg xmlns="http://www.w3.org/2000/svg" fill="none" viewBox="0 0 512 512"><g transform="translate(27.165 30.72) scale(4.55)"><path fill="#b3b3b3" fill-rule="evenodd" d="M21.377 59.848c-4.748 0-7.105-2.848-8.029-5.823 1.031 4.84 6.601 9.555 24.176 11.648 16.608 1.993 27.414-3.006 31.07-5.33 0 0 2.466-1.069.99.579 0 0-10.468 9.475-30.945 9.597-20.517.101-36.79-10.049-36.706-20.346-.098-10.254 16.19-20.426 36.706-20.343 20.517.098 30.944 9.595 30.944 9.595 1.48 1.644-.989.586-.989.586-3.647-2.32-14.42-6.89-31.07-5.331-16.355 1.546-21.695 7.013-23.505 10.662a10.6 10.6 0 0 0-1.068 4.095c.442-3.512 2.667-7.63 8.411-7.63 6.516 0 8.493 5.332 8.493 8.982 0 3.693-1.99 9.024-8.493 9.024zM87.39 56.3h8.66v3.095H83.73V42.294h3.64V56.28zm-13.37-6.115h7.273v9.231h-2.426l-.363-2.145c-.922 1.05-2.259 2.597-5.423 2.597-4.196 0-7.99-2.951-7.99-8.942 0-4.675 2.646-9.066 8.536-9.066 5.338 0 7.44 3.405 7.65 5.744h-3.64c0-.666-1.236-2.811-3.808-2.811-2.594 0-5.005 1.764-5.005 6.152 0 4.678 2.594 5.869 5.088 5.869.799 0 3.469-.309 4.205-3.763h-4.052v-2.88zm-52.557-6.274c-3.784 0-6.055 2.926-6.055 6.973 0 4.025 2.28 6.974 6.055 6.974 3.784 0 6.055-2.93 6.055-6.974 0-4.025-2.28-6.973-6.055-6.973m9.796 4.556h1.767v1.544h.043c.446-.629 1.297-1.864 3.32-1.864 2.96 0 5.088 2.462 5.088 5.539 0 2.615-1.535 6.03-5.34 6.03-1.493 0-2.472-.69-2.958-1.465h-.043v5.496H31.26zm4.752 9.677c2.044 0 3.43-1.74 3.43-4.141 0-1.404-.576-4.184-3.473-4.184-2.703 0-3.003 2.863-3.003 4.636 0 2.902 1.856 3.68 3.046 3.68zm16.818-2.151c-.064.518-.577 2.072-1.98 2.987-.513.336-1.237.757-3.025.757-3.131 0-5.002-2.322-5.002-5.496 0-3.39 1.66-6.073 5.341-6.073 3.216 0 4.791 2.512 4.791 6.4h-8.157c0 2.282 1.086 3.597 3.238 3.597 1.767 0 2.814-1.336 2.878-2.154h1.874zm-1.984-2.906c-.107-1.694-.833-3.262-3.112-3.262-1.725 0-3.086 1.568-3.086 3.262zm12.488 6.317h-1.877v-6.729c0-1.898-.556-2.862-2.384-2.862-1.064 0-2.939.671-2.939 3.637v5.95h-1.876V48.45h1.77v1.545h.043c.406-.586 1.447-1.861 3.363-1.861 1.725 0 3.9.69 3.9 3.808v7.465" clip-rule="evenodd"/><path fill="#5586a4" fill-rule="evenodd" d="M20.538 58.619c-4.794 0-7.19-2.848-8.115-5.823 1.044 4.837 6.684 9.555 24.43 11.649C53.63 66.43 64.56 61.438 68.258 59.11c0 0 2.493-1.065.998.583 0 0-10.553 9.476-31.323 9.598C17.203 69.388.723 59.24.848 48.945.748 38.69 17.203 28.52 37.934 28.601c20.727.097 31.323 9.594 31.323 9.594 1.495 1.645-.998.586-.998.586-3.686-2.32-14.59-6.89-31.405-5.334-16.568 1.55-21.949 7.015-23.758 10.665a10.5 10.5 0 0 0-1.08 4.096c.445-3.513 2.694-7.633 8.493-7.633 6.56 0 8.578 5.334 8.578 9.024s-2.011 8.984-8.578 8.984zm66.852-3.55h8.746v3.098H83.69V41.06h3.677v13.993zm-13.498-6.112h7.358v9.229H78.8l-.367-2.14c-.934 1.048-2.286 2.598-5.509 2.598-4.248 0-8.115-2.951-8.115-8.942 0-4.675 2.674-9.066 8.618-9.066 5.384 0 7.526 3.405 7.736 5.744h-3.677c0-.666-1.254-2.811-3.852-2.811-2.624 0-5.047 1.764-5.047 6.152 0 4.678 2.624 5.869 5.13 5.869.808 0 3.506-.309 4.248-3.763h-4.096v-2.88zm-53.397-6.274c-3.826 0-6.137 2.926-6.137 6.973 0 4.022 2.304 6.974 6.137 6.974 3.827 0 6.14-2.93 6.14-6.974 0-4.025-2.304-6.973-6.14-6.973m9.924 4.553h1.786v1.547h.043c.454-.63 1.312-1.865 3.36-1.865 2.994 0 5.13 2.462 5.13 5.539 0 2.612-1.554 6.03-5.384 6.03-1.508 0-2.496-.69-2.994-1.464h-.043v5.496h-1.895V47.257zm4.792 9.684c2.069 0 3.47-1.743 3.47-4.145 0-1.407-.587-4.187-3.513-4.187-2.731 0-3.034 2.866-3.034 4.64 0 2.902 1.874 3.68 3.077 3.68zm16.986-2.158c-.064.525-.58 2.072-2.002 2.99-.515.336-1.248.757-3.054.757-3.168 0-5.045-2.322-5.045-5.499 0-3.387 1.681-6.07 5.423-6.07 3.25 0 4.834 2.512 4.834 6.4h-8.24c0 2.282 1.096 3.594 3.274 3.594 1.789 0 2.842-1.333 2.906-2.151h1.898zm-2.008-2.903c-.11-1.697-.842-3.262-3.146-3.262-1.745 0-3.125 1.566-3.125 3.262zm12.613 6.314h-1.895v-6.725c0-1.902-.562-2.863-2.414-2.863-1.077 0-2.973.668-2.973 3.638v5.947h-1.898V47.22h1.788v1.545h.043c.409-.586 1.462-1.862 3.402-1.862 1.743 0 3.94.69 3.94 3.809v7.425" clip-rule="evenodd"/><path fill="#999" fill-rule="evenodd" d="M99.808 58.002a1.58 1.58 0 0 1-.809 1.374c-.25.143-.518.21-.808.21s-.556-.07-.806-.21a1.6 1.6 0 0 1-.592-.58 1.56 1.56 0 0 1 0-1.584 1.62 1.62 0 0 1 1.398-.791 1.62 1.62 0 0 1 1.4.79c.142.24.216.513.217.791m-.311 0c0-.35-.128-.653-.384-.9a1.26 1.26 0 0 0-.92-.378 1.26 1.26 0 0 0-.921.378 1.2 1.2 0 0 0-.381.9 1.2 1.2 0 0 0 .381.903q.383.375.922.375a1.25 1.25 0 0 0 .919-.375q.384-.373.384-.903m-2.035-.845h.772c.216 0 .378.043.476.131a.44.44 0 0 1 .146.345.42.42 0 0 1-.113.296q-.111.125-.354.18a.5.5 0 0 1 .147.076.7.7 0 0 1 .138.177c.003.003.097.168.28.485h-.51l-.332-.576q-.084-.096-.168-.095c-.016 0-.03 0-.055.007v.665h-.43zm.43.717h.186q.184 0 .263-.058c.079-.058.076-.088.076-.152a.18.18 0 0 0-.073-.152c-.05-.037-.131-.061-.25-.061h-.202z" clip-rule="evenodd"/><path fill="#5586a4" fill-rule="evenodd" d="M99.808 57.593c.001.279-.074.552-.217.79a1.5 1.5 0 0 1-.592.58 1.627 1.627 0 0 1-2.206-.58 1.56 1.56 0 0 1 .592-2.16q.375-.21.806-.211c.43 0 .561.07.808.21.247.142.449.334.593.578s.216.512.216.793m-.311 0a1.2 1.2 0 0 0-.384-.9 1.25 1.25 0 0 0-.92-.378c-.356 0-.667.125-.921.378a1.2 1.2 0 0 0-.381.9 1.2 1.2 0 0 0 .381.903 1.27 1.27 0 0 0 .922.373q.539.002.919-.373c.253-.25.384-.549.384-.903m-2.035-.848h.772c.216 0 .378.046.476.131a.44.44 0 0 1 .146.348.43.43 0 0 1-.113.296q-.111.12-.354.18a.5.5 0 0 1 .147.076q.081.077.138.174.005.006.28.488h-.51l-.332-.576q-.084-.097-.168-.098c-.016 0-.03.003-.055.007v.667h-.43zm.43.72h.186q.184 0 .263-.06a.19.19 0 0 0 .076-.153.18.18 0 0 0-.073-.15q-.072-.06-.25-.06h-.202z" clip-rule="evenodd"/></g></svg>