<svg xmlns="http://www.w3.org/2000/svg" fill="none" viewBox="0 0 512 512"><g transform="translate(30.72 30.72) scale(4.506)"><g clip-path="url(#a)"><path fill="#abd038" d="M42.82 33.72q1.902-2.972 3.798-5.951c-6.49.488-12.493 2.174-17.571 4.742.782 1.463 1.796 3.302 2.58 4.724a34 34 0 0 1 8.703-1.991 3.36 3.36 0 0 0 2.49-1.523"/><path fill="#ee332d" d="M66.515 43.084c1.412.67 2.783.874 4.702.874 3.514 0 10.146.01 13.793.02-3.21-5.333-8.715-9.77-15.61-12.675-2.448 1.635-9.456 6.327-10.573 7.068 4.427 2.163 6.297 4.052 7.688 4.713"/><path fill="#f2ba1a" d="M47.959 27.686c-.193.569-1.92 5.749-2.468 7.424a35.4 35.4 0 0 1 7.973 1.25c1.496.42 3.096.26 4.479-.447l10.116-5.16c-5.23-2-11.182-3.139-17.51-3.139q-1.296.006-2.59.072"/><path fill="#3dae2b" d="m15.164 45.36 3.28.01a3.16 3.16 0 0 0 2.326-1.015c1.777-1.94 3.961-3.646 6.469-5.058a2.44 2.44 0 0 0 1.23-2.509 480 480 0 0 0-.58-3.656c-5.718 3.098-10.166 7.323-12.725 12.228"/><path fill="#010101" d="M94.617 48.06h-.751v1.96h-.66v-1.96h-.762v-.57h2.173zm3.118-.57v2.53h-.62V48.1h-.01l-.528 1.92h-.507l-.528-1.92h-.01v1.92h-.621v-2.53h.975l.438 1.687.437-1.687m-80.47 2.68a8.6 8.6 0 0 0-2.957-2.213c-1.157-.548-2.478-.822-3.94-.822-1.463 0-2.773.273-3.94.822A9.1 9.1 0 0 0 2.5 50.171a9.9 9.9 0 0 0-1.848 3.26A12 12 0 0 0 0 57.374c0 1.402.213 2.732.65 3.97a9.9 9.9 0 0 0 1.848 3.261c.803.935 1.788 1.665 2.956 2.204 1.158.539 2.478.813 3.94.813 1.463 0 2.773-.273 3.94-.813a8.75 8.75 0 0 0 2.957-2.204 9.9 9.9 0 0 0 1.848-3.26c.435-1.279.655-2.62.65-3.97 0-1.392-.213-2.703-.65-3.941a9.9 9.9 0 0 0-1.848-3.261m-1.28 9.945c-.234.894-.578 1.696-1.056 2.397a5.36 5.36 0 0 1-1.849 1.687c-.761.415-1.665.63-2.701.63-1.046 0-1.94-.214-2.702-.63a5.16 5.16 0 0 1-1.848-1.687 7.4 7.4 0 0 1-1.057-2.397 10.8 10.8 0 0 1-.345-2.742q-.001-1.401.345-2.742c.235-.894.58-1.696 1.057-2.397a5.5 5.5 0 0 1 1.848-1.686c.763-.416 1.666-.63 2.702-.63 1.046 0 1.94.213 2.701.63a5.16 5.16 0 0 1 1.849 1.686c.491.73.849 1.542 1.056 2.397.232.895.348 1.817.345 2.742a11.3 11.3 0 0 1-.345 2.742m18.322-5.301A5.86 5.86 0 0 0 31.26 53.2c-.833-.397-1.808-.59-2.925-.59a6.1 6.1 0 0 0-2.55.539q-1.183.533-1.838 1.766h-.05v-1.93h-2.966v19.399h3.128v-7.069h.051c.234.387.538.721.894.996.355.285.748.521 1.168.7a6 6 0 0 0 1.32.396q.679.122 1.37.122c1.047 0 1.95-.203 2.722-.62a5.55 5.55 0 0 0 1.91-1.644 7 7 0 0 0 1.128-2.367q.365-1.34.365-2.773a10.2 10.2 0 0 0-.416-2.935 7 7 0 0 0-1.24-2.376m-1.685 7.089a4.7 4.7 0 0 1-.69 1.593c-.322.462-.738.85-1.22 1.139-.497.294-1.096.437-1.808.437-.639 0-1.208-.132-1.685-.386a3.75 3.75 0 0 1-1.25-1.046 4.5 4.5 0 0 1-.782-1.575 7.3 7.3 0 0 1-.264-1.99c0-1.513.336-2.732 1.006-3.646s1.665-1.37 2.976-1.37q.96 0 1.706.426c.49.282.912.666 1.239 1.127.343.485.595 1.029.741 1.605.163.599.243 1.229.243 1.86a8.4 8.4 0 0 1-.212 1.826m16.646-6.754a6.6 6.6 0 0 0-2.214-1.85c-.884-.466-1.889-.7-3.006-.7-1.067 0-2.012.204-2.854.6a6.5 6.5 0 0 0-2.154 1.635 7.1 7.1 0 0 0-1.37 2.387 8.4 8.4 0 0 0-.478 2.864q0 1.646.457 3.015a6.65 6.65 0 0 0 1.34 2.357 6.1 6.1 0 0 0 2.184 1.534c.863.366 1.849.548 2.966.548a7.7 7.7 0 0 0 2.213-.314 6.3 6.3 0 0 0 1.91-.935 5.6 5.6 0 0 0 1.453-1.523c.406-.6.69-1.29.853-2.052h-2.966q-.41 1.175-1.249 1.767c-.559.396-1.3.589-2.213.589-.661 0-1.23-.112-1.707-.345a3.3 3.3 0 0 1-1.178-.914 3.8 3.8 0 0 1-.701-1.34 5.6 5.6 0 0 1-.235-1.594h10.432a8.1 8.1 0 0 0-.203-3.088 7.9 7.9 0 0 0-1.28-2.641m-8.959 3.676c.015-.51.121-1.012.315-1.483.181-.44.443-.843.772-1.188a3.4 3.4 0 0 1 1.158-.792 3.7 3.7 0 0 1 1.492-.284c.529 0 1.016.101 1.443.314.414.203.785.482 1.096.822.305.336.538.732.71 1.188.175.457.276.935.316 1.422zm23.33-5.017c-.893-.802-2.122-1.21-3.676-1.21-.935 0-1.788.225-2.55.671a5.25 5.25 0 0 0-1.868 1.849l-.05-.051v-2.082h-2.966v14.169h3.128v-8.36q0-.763.244-1.452c.151-.437.386-.84.69-1.188a3.2 3.2 0 0 1 1.066-.792c.416-.193.894-.284 1.433-.284.934 0 1.625.254 2.062.751.437.498.68 1.31.711 2.428v8.905h3.128v-9.729c0-1.615-.458-2.822-1.351-3.625m17.002 5.688c-.152 1.218-.589 2.223-1.28 2.986-.68.741-1.645 1.127-2.864 1.127-.914 0-1.686-.173-2.315-.528a4.45 4.45 0 0 1-1.543-1.39 6.1 6.1 0 0 1-.874-1.992 9.6 9.6 0 0 1-.274-2.295c0-.822.09-1.625.274-2.397.17-.726.466-1.417.874-2.041a4.4 4.4 0 0 1 1.543-1.412c.63-.345 1.412-.528 2.316-.528a4.2 4.2 0 0 1 1.421.243 4.1 4.1 0 0 1 2.112 1.687c.236.38.392.806.458 1.25l.03.192h4.55l-.03-.255c-.133-1.137-.447-2.164-.945-3.047a7.4 7.4 0 0 0-1.91-2.234 8.4 8.4 0 0 0-2.6-1.371 10 10 0 0 0-3.077-.466c-1.513 0-2.895.263-4.083.802a8.9 8.9 0 0 0-3.047 2.213c-.823.935-1.462 2.042-1.91 3.301-.437 1.26-.66 2.62-.66 4.052 0 1.402.223 2.743.66 3.982s1.077 2.336 1.91 3.25a8.9 8.9 0 0 0 3.047 2.184c1.188.528 2.57.802 4.083.802 1.21 0 2.336-.193 3.341-.568a7.9 7.9 0 0 0 2.661-1.625 8 8 0 0 0 1.828-2.55c.458-.985.743-2.112.854-3.33l.02-.245h-4.54zm10.958 3.654V47.49h-4.693v19.663H100v-4.002z"/></g><defs><clipPath id="a"><path fill="#fff" d="M0 0h100v100H0z"/></clipPath></defs></g></svg>