<svg xmlns="http://www.w3.org/2000/svg" fill="none" viewBox="0 0 512 512"><g transform="translate(30.279 30.72) scale(4.514)"><path fill="#22a882" d="m28.516 43.75 1.953-8.437-6.64 13.125z"/><path fill="#99d5b5" d="m69.375 7.813-1.406 7.343-9.375 11.094-17.5 9.14z"/><path fill="#c5e4d3" d="m67.422 0-5.469 15-20.859 20.313-12.266 15.234-.703.781-1.484.234 4.766-20.078z"/><path fill="#000" d="m26.875 51.015 14.297-15.703L93.594 7.89 80.39 26.093 45.312 46.562l-16.484 3.984z"/><path fill="#16a880" d="m45.313 46.562 35-20.469 1.25-1.719 10.078-5.937-8.672 12.265-3.828 2.97-19.61 14.062-11.953 3.984z"/><path fill="#000" d="m59.531 47.735 12.657-3.984 3.359-2.266 11.016-10.078-7.422 2.265z"/><path fill="#76c39b" d="m28.828 50.546 16.485-3.984 2.265 5.078-9.687 6.328-9.766 2.969v-9.61z"/><path fill="#c5e4d3" d="m48.828 51.015-14.297 7.188 11.016-.704 18.906-5.39 15.781-10.86z"/><path fill="#99d5b5" d="m66.016 51.094-1.563 1.016-18.906 5.39 12.656-.937 3.516-.703 11.25-6.094z"/><path fill="#000" d="m69.375 68.827 4.922 3.907v2.5z"/><path fill="#c5e4d3" d="m32.578 61.72 9.375-.86 13.438 9.688 6.172 15.156-7.657 14.14 1.25-12.03-.312-.626-5.782-12.578-18.984-12.422z"/><path fill="#000" d="m55.39 70.546 8.438 20.782v6.562l3.594-12.422v-8.594L48.984 65.86z"/><path fill="#16a880" d="m48.828 92.657-2.344 6.015 9.844-13.437-6.016-13.203-1.406 2.187v18.438z"/><path fill="#76c39b" d="m47.11 73.36-.704 10.86-5.078 4.843.234 3.75 4.375 1.719 2.89-5.547v-14.61z"/><path fill="#178d6d" d="m45 72.032 1.563 1.016-.704 3.671-2.578 5.547-7.265-2.89-.235-2.89.469-.157 2.266-1.563 1.406-3.359z"/><path fill="#000" d="M30.078 62.187 45 71.952h-4.844l-8.984-7.5-8.281-2.265z"/><path fill="#178d6d" d="m42.656 60.782 14.766-1.406 8.594-2.813h-7.813l-21.172 1.485-7.89.703-2.344 4.062 5.781-1.094z"/><path fill="#000" d="M35.86 86.876v1.328l3.124-1.328.391.624-2.812 1.563-1.329 2.969 2.813-2.656.625.156-.625 7.5 3.437-4.297-.234-3.75.625-.469-1.562-3.75zm-1.172-14.844-4.454 2.11v1.327l3.047-1.406.469.625-2.89 1.64-1.172 2.891 2.734-2.578.625.078-.625 7.422 3.75-4.531-.313-3.438h.547z"/><path fill="#c5e4d3" d="m25.781 54.61-6.093 2.578h6.093l-9.687 3.906-5.313 2.968-.39 1.094 8.672-2.969h8.046l1.016-1.796v-9.22l-9.766 2.423z"/><path fill="#1fa780" d="m10.86 64.141 5.312-2.969 9.687-3.906h-6.093l6.093-2.578-7.343-1.016-8.438 2.5-3.594 5.704z"/><path fill="#000" d="m8.75 68.75-2.266-1.954v-5l4.375 2.344-1.015 2.734 1.094 1.875z"/><path stroke="#000" stroke-width=".234" d="m11.64 61.407-1.484-1.094-2.187 1.172"/><path fill="#76c39b" d="m48.907 58.126 16.406 10.703 5.781 7.969 2.031 7.265-5.625-7.11-26.406-15.78z"/><path fill="#99d5b5" d="m61.016 61.173-4.063-1.875-5.312.546.625.47z"/><path fill="#178d6d" d="m70.313 86.953-.079 6.406-1.875 1.25 1.016-5.156z"/></g></svg>