<svg xmlns="http://www.w3.org/2000/svg" fill="none" viewBox="0 0 512 512"><g transform="translate(30.72 29.84) scale(4.506)"><path fill="#fd4f00" d="m37.553 63.671-.786-.142c-5.583-1.038-9.11-4.415-10.78-9.725-1.044-3.31.85-5.746 4.322-5.907 2.84-.13 4.787 1.503 6.507 3.404 2.218 2.449 4.25 5.066 6.429 7.554 3.135 3.582 6.83 5.887 11.886 5.175 4.532-.638 8.484-2.456 11.92-5.451.517-.45 1.084-.843 1.63-1.262l-.344-.404c-2.886.897-5.829 1.197-8.836 1.046-4.55-.228-8.886-1.179-12.765-3.677-3.54-2.28-6.15-5.334-7.39-9.414-1.003-3.296 1.048-5.602 4.464-5.126 1.35.19 2.486.797 3.507 1.659.83.702 1.628 1.445 2.475 2.126 3.987 3.204 9.558 3.382 14.618-.097-8.32-.037-13.98-4.614-18.951-10.414-1.945-2.27-3.845-4.58-5.832-6.814-3.842-4.323-8.105-8.13-13.94-9.43-7.46-1.66-14.658-.573-21.567 2.59-1.377.63-2.7 1.364-4.12 2.546.703 0 1.087.008 1.47 0 3.483-.092 6.094 1.456 7.977 4.306 1.37 2.075 2.015 4.42 2.508 6.832.73 3.582.351 7.231.774 10.83 1.084 9.247 5.81 15.701 14.61 19.005 3.229 1.213 6.538 1.616 10.214.79M15.31 21.485c-1.39.35-2.501-.211-3.646-1.37 1.961-.489 3.691-.678 5.55-.752-.153 1.207-.865 1.86-1.903 2.122zm45.57 54.004c-.12-.892-.882-1.283-1.48-1.749-2.645-2.059-5.739-2.788-9.018-2.848-1.958-.037-3.895-.182-5.74-.868-.848-.314-1.795-.72-1.772-1.812.021-1.11.987-1.424 1.865-1.686.72-.213 1.462-.352 2.279-.544-2.08-1.333-4.11-1.516-6.817-.427-4.262 1.712-8.463 1.51-12.71-.024-2.399-.866-4.528-2.226-6.743-3.43l-.062.044.057-.042c-.054-.166-.152-.17-.28-.077l.174.153c1.837 3.011 4.32 5.435 7.125 7.506 5.402 3.987 11.301 6.367 18.205 5.311a95 95 0 0 1 6.725-.787c2.82-.228 5.506.566 8.193 1.28M47.866 32.277c-.15-.108-.293-.379-.598-.098 2.485 3.36 5.675 5.836 9.517 7.395 6.2 2.516 12.493 2.948 18.93.726 4.998-1.723 8.59-.04 10.456 4.813.27-5.632-3.043-9.736-8.32-10.539-2.968-.453-5.71.531-8.49 1.339-7.739 2.243-14.931 1.136-21.495-3.636m38.57 21.966c1.008.084 2.016.175 3.024.263-2.278-2-5.055-2.16-7.864-2-4.277.243-7.358 2.71-10.168 5.657-2.476 2.597-4.713 5.51-8.406 6.556.061.111.077.167.094.167.499.007.996.03 1.491.007 5.366-.242 10.42-1.374 14.44-5.269 1.267-1.225 2.4-2.587 3.622-3.86 1.02-1.061 2.256-1.65 3.767-1.523zm-12.465-6.65c-4.004.35-7.481 2.006-10.748 4.19-2.515 1.68-5.203 2.475-8.225 1.951-.533-.094-1.068-.162-1.6-.242l-.02.222c.193.1.378.215.578.295.504.2 1 .439 1.523.563 5.814 1.382 11.38.675 16.4-2.568 3.162-2.043 6.437-2.43 9.986-1.902.359.054.716.118 1.076.152.334.031.682.363 1.132.004-3.103-2.241-6.445-2.985-10.102-2.666M59.66 34.002c2.1.072 4.191-.203 6.389-1.508-.644.057-.916.057-1.178.108-3.027.604-5.743-.057-8.164-1.97-.887-.702-1.79-1.387-2.69-2.074-3.564-2.726-7.653-3.639-12.124-3.56.071.219.077.37.154.448 4.866 4.92 10.496 8.31 17.614 8.556M94.873 59.25c-3.01-2.986-7.052-3.37-10.791-.765 2.475.111 4.333.9 5.84 2.46a19 19 0 0 0 1.683 1.576c2.278 1.837 6.139 1.925 8.396.22-2.65-1.033-2.65-1.033-5.128-3.491M64.885 82.12c-2.646-4.927-7.093-6.038-12.232-5.708a13.8 13.8 0 0 1 4.24 1.98c1.195.834 2.202 1.866 3.193 2.926 1.965 2.097 5.033 3.383 7.066 2.948-.934-.587-1.763-1.208-2.267-2.146m24.621-27.512q0-.048.005-.097l-.052-.006.03.026.017.075zm-28.48 20.995-.102-.058a.2.2 0 0 0 .021.061c.007.012.054 0 .083-.003zm-.102-.058-.012-.049-.031-.008.007.037.034.02z"/></g></svg>