<svg xmlns="http://www.w3.org/2000/svg" fill="none" viewBox="0 0 512 512"><g transform="translate(30.72 30.72) scale(4.506)"><g clip-path="url(#a)"><path fill="#3d4c73" d="M91.574 100H8.424C4.03 100 .467 96.32.467 91.783V8.217C.467 3.677 4.031 0 8.427 0h83.147c4.398 0 7.959 3.677 7.959 8.217v83.566c0 4.537-3.564 8.217-7.96 8.217"/><path fill="#7fcfbd" d="M41.777 19.363a1.12 1.12 0 0 0-.784.431q-.33-.03-.661-.033-.203 0-.377.027c-.703-.276-1.452-.281-1.775.612a3.9 3.9 0 0 0-.2 1.103q-.202.15-.344.357c-.678.975-.583 2.694-.313 3.781.457 1.854 2.432 3.311 4.141 2.762a1 1 0 0 0 .397-.163c.912.173 1.908-.134 2.704-1.1 1.182-1.442 1.303-3.392.613-5.01a.88.88 0 0 0-.344-.674 5 5 0 0 0-1.487-1.56c-.517-.346-1.078-.582-1.57-.534m35.123 0a1.13 1.13 0 0 0-.786.431q-.33-.03-.661-.033-.202 0-.377.027c-.699-.276-1.447-.281-1.77.612a3.8 3.8 0 0 0-.204 1.103q-.2.15-.342.357c-.68.975-.583 2.694-.312 3.781.457 1.854 2.43 3.311 4.137 2.762a1 1 0 0 0 .399-.163c.912.173 1.909-.134 2.703-1.1 1.184-1.442 1.304-3.392.615-5.01a.89.89 0 0 0-.347-.674 5 5 0 0 0-1.484-1.56c-.519-.346-1.08-.582-1.571-.534m-54.166.673c-1.06-.04-2.094.365-2.733 1.367q-.086.133-.157.274a4.34 4.34 0 0 0-1.416 2.498.55.55 0 0 0-.383.527c-.031 1.128.549 2.015 1.383 2.607.867.782 2.16 1.095 3.42 1.133 1.866.05 3.15-.973 3.73-2.328l.023-.027c.99-1.304 1.105-3.117-.317-4.135a5 5 0 0 0-.245-.164 4.5 4.5 0 0 0-.957-.933 4.35 4.35 0 0 0-2.348-.82m36.169.002c-1.06-.037-2.095.366-2.734 1.367q-.087.13-.156.27a4.33 4.33 0 0 0-1.417 2.503.54.54 0 0 0-.383.527c-.035 1.129.545 2.012 1.383 2.608.867.78 2.16 1.094 3.417 1.128 1.866.05 3.154-.972 3.73-2.326l.023-.027c.993-1.305 1.11-3.114-.313-4.133q-.122-.084-.243-.163a4.5 4.5 0 0 0-.959-.934 4.35 4.35 0 0 0-2.348-.82M24.044 22.11c.409.102.801.259 1.168.466q.201.264.33.565a2.5 2.5 0 0 0-.939-.527c-.072-.16-.206-.289-.366-.32l-.047-.013a4 4 0 0 0-.146-.171m36.17 0c.408.102.8.259 1.166.466q.2.264.332.565a2.5 2.5 0 0 0-.941-.527.54.54 0 0 0-.37-.32l-.046-.013a2 2 0 0 0-.141-.171m-18.973.496q.073.034.157.08.042.027.085.06c.072.389.049.915-.264 1.088a8 8 0 0 1 .023-1.227m35.121 0q.078.034.157.08l.088.06c.072.389.047.915-.267 1.088q-.036-.616.023-1.227m-53.245.94q.043.035.094.059a1.4 1.4 0 0 0 .31.099 1.5 1.5 0 0 1 .017.236c-.176-.231-.496-.25-.731-.113l-.044-.175zm36.17 0q.043.035.093.059c.1.047.204.077.314.099q.013.118.012.236c-.176-.231-.496-.25-.734-.113l-.044-.175zm-37.633.365q.013.108.039.217.041.158.098.322c-.11-.12-.16-.297-.137-.539m36.168.003q.045.273.134.536c-.107-.12-.156-.294-.134-.536m-13.256.086a3.8 3.8 0 0 1-.586 2.179h.004c-.26.407-.573.685-.905.854.219-.338.428-.742.616-1.184q.065-.136.119-.276c.138-.125.216-.314.166-.492l.007-.022c.272-.203.465-.583.54-.99zm35.125 0a3.83 3.83 0 0 1-.586 2.179c-.26.407-.57.685-.902.854.216-.338.428-.742.613-1.184q.067-.136.124-.276c.138-.125.215-.314.162-.492l.006-.022c.272-.203.468-.583.54-.99zm-41.503.156c.176.642.432 1.27.695 1.822.154.407.348.836.599 1.15a2.6 2.6 0 0 1-.36-.276c-.583-.543-.84-1.364-.913-2.138a7 7 0 0 1-.02-.558m35.124 0c.172.642.43 1.27.696 1.822.15.407.347.836.595 1.15a2.6 2.6 0 0 1-.36-.276c-.583-.543-.837-1.364-.913-2.138a6 6 0 0 1-.018-.558m-48.617.614a1 1 0 0 1 .028.555l-.147-.287c.047-.089.087-.174.118-.268zm36.167.004a1 1 0 0 1 .03.552l-.148-.285q.067-.13.118-.267m-37.876 1.705q.071.084.148.164a2.2 2.2 0 0 1-.948.06l.054-.066a2.5 2.5 0 0 0 .746-.158m36.168 0q.069.084.148.164c-.308.088-.634.11-.948.06l.05-.068a2.6 2.6 0 0 0 .75-.156m-36.42 10.013c-1.06-.039-2.094.366-2.733 1.367q-.086.133-.157.274a4.35 4.35 0 0 0-1.416 2.5.55.55 0 0 0-.383.527c-.031 1.128.549 2.014 1.383 2.606.867.784 2.16 1.097 3.42 1.131 1.866.047 3.15-.971 3.73-2.326l.023-.029c.99-1.307 1.105-3.116-.317-4.135-.082-.053-.16-.105-.245-.158a4.37 4.37 0 0 0-3.305-1.756m36.169 0c-1.06-.039-2.095.366-2.734 1.367q-.085.133-.156.274a4.33 4.33 0 0 0-1.417 2.5.54.54 0 0 0-.383.527c-.035 1.128.545 2.014 1.383 2.606.867.784 2.16 1.097 3.417 1.131 1.866.047 3.154-.971 3.73-2.326l.023-.029c.993-1.307 1.11-3.116-.313-4.135l-.243-.158a4.6 4.6 0 0 0-.959-.939 4.4 4.4 0 0 0-2.348-.818m-34.859 2.072a5 5 0 0 1 1.168.467c.135.176.243.368.33.568a2.5 2.5 0 0 0-.939-.53c-.072-.156-.206-.288-.366-.32l-.047-.009a4 4 0 0 0-.146-.176m36.17 0c.406.107.798.264 1.166.467q.2.266.332.568a2.5 2.5 0 0 0-.941-.53c-.072-.156-.206-.288-.37-.32l-.046-.009a2 2 0 0 0-.141-.176M23.12 40.003q.043.036.094.06.15.07.31.103.018.117.017.232c-.176-.232-.496-.247-.731-.113l-.044-.172zm36.17 0q.043.035.093.06.15.07.314.103.013.117.012.232c-.176-.232-.496-.247-.734-.113l-.044-.172zm-37.633.37q.037.279.137.54c-.11-.12-.16-.299-.137-.54m36.168 0q.033.279.134.54c-.107-.12-.156-.299-.134-.54m-33.128.859a1 1 0 0 1 .029.555c-.047-.097-.097-.19-.147-.289q.071-.125.118-.266m36.168 0a1 1 0 0 1 .028.555c-.05-.097-.1-.19-.146-.289q.071-.125.118-.266m-37.876 1.709q.071.08.148.163a2.3 2.3 0 0 1-.948.056l.054-.062v-.004q.382-.023.746-.153m36.168 0q.069.08.148.163a2.3 2.3 0 0 1-.948.056l.05-.062v-.004c.254-.015.508-.066.75-.153"/><path fill="#fff" d="M23.632 53.934c-2.426 0-4.393 2-4.393 4.47v17.87c0 2.47 1.967 4.467 4.392 4.467s4.393-1.997 4.393-4.467v-17.87c0-2.467-1.966-4.467-4.393-4.467m35.135-.003c-2.427 0-4.39 2-4.39 4.47v17.87c0 2.47 1.963 4.467 4.39 4.467 2.423 0 4.392-1.997 4.392-4.467v-17.87c0-2.467-1.969-4.467-4.392-4.467M41.2 36.065c-2.426 0-4.392 2-4.392 4.464v35.745c0 2.47 1.966 4.467 4.392 4.467s4.39-1.997 4.39-4.467V40.529c0-2.468-1.963-4.468-4.39-4.468m35.134.004c-2.426 0-4.392 2-4.392 4.464v35.745c0 2.47 1.966 4.467 4.392 4.467 2.423 0 4.392-1.997 4.392-4.467V40.529c0-2.468-1.969-4.468-4.392-4.468"/></g><defs><clipPath id="a"><path fill="#fff" d="M0 0h100v100H0z"/></clipPath></defs></g></svg>