<svg xmlns="http://www.w3.org/2000/svg" fill="none" viewBox="0 0 512 512"><g transform="translate(26.169 22.073) scale(4.66)"><path fill="#5d88d6" d="M57.59 16.546a4.501 4.501 0 1 0-6.366-6.365 4.501 4.501 0 0 0 6.366 6.365m12.727 12.727a5 5 0 1 0-7.072-7.072 5 5 0 0 0 7.072 7.072m12.725 12.728a5.5 5.5 0 1 0-7.779-7.778 5.5 5.5 0 0 0 7.779 7.778m12.715 12.713a6 6 0 1 0-8.484-8.484 6 6 0 0 0 8.484 8.484"/><path fill="#32dbfc" d="M32.503 16.194a4.002 4.002 0 1 0-5.66-5.66 4.002 4.002 0 0 0 5.66 5.66M45.228 28.92a4.501 4.501 0 1 0-6.365-6.366 4.501 4.501 0 0 0 6.365 6.365m12.716 12.716a5 5 0 1 0-7.072-7.072 5 5 0 0 0 7.072 7.072m12.721 12.72a5.5 5.5 0 1 0-7.778-7.778 5.5 5.5 0 0 0 7.778 7.778m12.73 12.735a6 6 0 1 0-8.484-8.485 6 6 0 0 0 8.484 8.485"/><path fill="#000" d="M7.429 15.853a3.502 3.502 0 1 0-4.953-4.952 3.502 3.502 0 0 0 4.953 4.952M20.137 28.56a4.002 4.002 0 1 0-5.66-5.659 4.002 4.002 0 0 0 5.66 5.66m12.731 12.734a4.5 4.5 0 1 0-6.364-6.365 4.5 4.5 0 0 0 6.364 6.365m12.721 12.72a5 5 0 1 0-7.072-7.072 5 5 0 0 0 7.072 7.072m12.719 12.722a5.5 5.5 0 1 0-7.778-7.777 5.5 5.5 0 0 0 7.778 7.777M71.02 79.442a6 6 0 1 0-8.484-8.485 6 6 0 0 0 8.484 8.485"/><path fill="#5d88d6" d="M32.504 65.66a4.002 4.002 0 1 0-5.66-5.66 4.002 4.002 0 0 0 5.66 5.66M17.31 79.198a4.002 4.002 0 1 0 0-8.003 4.002 4.002 0 0 0 0 8.003M4.947 91.573a4.002 4.002 0 1 0 0-8.003 4.002 4.002 0 0 0 0 8.003m24.73-.006a4.002 4.002 0 1 0 0-8.004 4.002 4.002 0 0 0 0 8.004m27.566-1.163a4.002 4.002 0 1 0-5.66-5.66 4.002 4.002 0 0 0 5.66 5.66M44.872 78.025a4.002 4.002 0 1 0-5.66-5.66 4.002 4.002 0 0 0 5.66 5.66"/></g></svg>