<svg xmlns="http://www.w3.org/2000/svg" fill="none" viewBox="0 0 512 512"><g transform="translate(30.72 30.72) scale(4.506)"><g clip-path="url(#a)"><path fill="#1e87f0" d="M91.416 21.957c-3.034-4.53-8.08-9.704-13.148-13.055C67.745 1.692 55.555-.865 44.768.25 33.524 1.464 23.895 5.703 15.98 12.77 8.645 19.318 3.804 27.329 1.673 34.968-.488 42.6-.201 49.675.57 54.999c.813 5.405 3.506 12.204 3.506 12.204.547 1.305 1.31 1.832 1.708 2.055 1.967 1.074 5.195.13 7.671-2.653.128-.174.196-.411.128-.61-.692-2.664-.94-4.667-1.188-6.217-.563-3.067-.812-8.205-.436-12.955.189-2.571.686-5.319 1.561-8.203 1.692-5.697 5.26-11.642 10.834-16.585 6.004-5.321 13.705-8.609 21.026-9.457a37.4 37.4 0 0 1 13.329.845c1.252.312 6.635 1.716 12.395 5.617 4.19 2.849 7.566 6.369 9.89 9.845 2.368 3.322 4.937 8.92 5.693 13.022 1.066 4.668 1.066 9.614.31 14.43-.94 4.825-2.632 9.518-5.26 13.646-1.814 3.2-5.57 7.428-10.012 10.604a39 39 0 0 1-13.266 5.975c-2.377.563-4.76.922-7.2 1-2.172.066-5.052 0-7.072-.341-3.005-.478-3.628-1.248-4.32-2.288 0 0-.474-.75-.608-2.757.045-18.355.037-13.456.037-22.984 0-2.693-.089-5.134-.064-7.352.127-3.636.433-6.138 3.034-8.844a10.12 10.12 0 0 1 7.404-3.202c.88 0 3.907.041 6.57 2.256 2.857 2.382 3.332 5.64 3.446 6.51.65 5.097-2.717 8.893-4.007 9.857a14.5 14.5 0 0 1-4.01 2.125c-2.064.689-4.336.892-6.378.756a.625.625 0 0 0-.658.498l-.686 3.564c-.673 2.71.832 3.7 1.705 4.051 2.797.864 5.277 1.223 8.215 1 4.503-.316 8.946-2.091 12.714-5.608 3.211-3.052 5.04-6.813 5.664-11.022.623-4.668-.19-9.7-2.317-13.957-2.341-4.696-6.381-8.617-11.708-10.763-5.38-2.115-9.657-2.19-15.174-.783l-.064.02c-3.582 1.231-6.648 2.754-9.84 6.05-2.19 2.277-3.981 5.03-5.07 8.139-1.088 3.131-1.376 5.469-1.426 9.103-.066 2.693.062 5.193.062 7.534v15.42c0 4.937-.168 5.788 0 8.327.092 1.683.327 3.586 1.062 5.632.76 2.254 2.35 4.568 3.442 5.632a16.3 16.3 0 0 0 5.389 3.754c4.379 1.945 10.322 2.252 15.145 2.064a49.5 49.5 0 0 0 9.543-1.307 50.9 50.9 0 0 0 17.649-7.993c5.694-4.012 10.645-9.485 13.377-14.138 3.505-5.522 5.772-11.725 6.95-18.095 1.064-6.381 1.012-12.93-.413-19.218-1.124-5.831-4.126-12.232-7.594-17.4z"/></g><defs><clipPath id="a"><path fill="#fff" d="M0 0h100v100H0z"/></clipPath></defs></g></svg>