<svg xmlns="http://www.w3.org/2000/svg" fill="none" viewBox="0 0 512 512"><g transform="translate(30.72 31.6) scale(4.506)"><path fill="#efcca3" d="M83.678 38.2c-.156-3.434.312-6.478-1.249-9.054C78.683 22.746 69.317 19 50.585 19v.546h-.39.39V19c-18.732 0-28.566 3.746-32.312 10.224-1.483 2.654-1.327 5.62-1.561 9.054-.156 2.732-1.405 5.62-.859 8.742.625 4.058.859 8.117 1.483 11.863.469 3.044 4.683 5.62 5.074 8.508 1.092 7.96 9.365 11.629 28.097 11.629v.624h-.468.546v-.624c18.732 0 26.693-3.668 27.708-11.63.39-2.965 4.292-5.463 4.76-8.507.625-3.746.86-7.805 1.484-11.863.546-3.122-.703-6.088-.859-8.82"/><path fill="#ccac8d" d="M50.273 41.01c3.356.078 5.698 2.185 7.883 4.136 2.576 2.264 6.946 3.825 8.741 5.776 1.796 1.951 4.137 3.903 4.996 6.946.858 3.044 1.092 6.947 1.092 7.961s.547.78 2.108 0c3.668-1.795 7.727-6.634 7.727-6.634-.469 3.044-4.45 5.776-4.84 8.664-.936 7.96-8.663 11.785-27.785 11.785h-.078.468"/><path fill="#ccac8d" d="M62.605 34.922c.702 2.42 3.2 10.615-1.64 7.883 0 0 2.03 1.17 3.279 5.62 1.327 4.448 4.527 4.995 4.527 4.995s5.229 1.014 9.132-2.342c3.278-2.81 3.824-7.805 2.419-11.63-1.405-3.746-3.902-4.916-7.57-5.697-3.67-.858-11.006-1.56-10.147 1.17"/><path fill="#000" d="M71.893 50.688a6.868 6.868 0 1 0 0-13.737 6.868 6.868 0 0 0 0 13.737"/><path fill="#fff" d="M70.098 42.57a1.795 1.795 0 1 0 0-3.59 1.795 1.795 0 0 0 0 3.59"/><path fill="#efcca3" d="M61.434 43.507s6.166 4.215 9.522 8.352c3.356 4.136 3.278 4.917 3.278 4.917l-2.42 1.092s-3.434-6.478-7.648-8.897c-4.293-2.42-4.761-4.449-4.761-4.449z"/><path fill="#ccac8d" d="M50.507 41.01c-3.356.078-5.853 2.185-8.117 4.136-2.575 2.264-7.102 3.825-8.897 5.776-1.796 1.951-4.215 3.903-5.074 6.946-.858 3.044-1.17 6.947-1.17 7.961s.156 1.093-2.108 0c-3.668-1.717-7.727-6.634-7.727-6.634.469 3.044 4.45 5.776 4.84 8.664 1.092 7.96 8.819 11.785 27.941 11.785h.39"/><path fill="#56332b" d="M68.615 54.2c-3.747-4.605-9.756-8.897-18.108-8.897h-.078c-8.351 0-14.36 4.292-18.107 8.897-3.903 4.761-3.59 6.634-3.59 11.161 0 16.39 5.775 11.707 9.6 13.737 3.902 1.951 7.96 1.327 12.097 1.327h.078c4.215 0 8.196.546 12.098-1.405 3.824-1.951 9.6 2.888 9.6-13.503.078-4.527.312-6.556-3.59-11.317"/><path fill="#442823" d="M50.117 49.361s-.546 7.571-1.639 9.054l2.03-.468z"/><path fill="#442823" d="M50.663 49.361s.547 7.571 1.64 9.054l-2.03-.468z"/><path fill="#56332b" d="M44.107 47.566c-.78-1.795 2.03-4.683 6.478-4.761 4.45 0 7.259 2.888 6.478 4.76-.78 1.874-3.59 2.42-6.478 2.499-2.81-.078-5.697-.625-6.478-2.498"/><path fill="#000" d="M50.585 49.361c0-.312 2.654-.39 4.059-1.327 0 0-2.888.937-3.512.547-.625-.313-.781-1.25-.781-1.25s-.234.937-.702 1.25c-.547.312-3.825-.547-3.825-.547s4.37 1.093 4.37 1.327-.077 1.015-.077 1.561c0 1.951 0 6.79.312 7.18.468.703.312-5.229.312-7.18-.078-.624-.078-1.249-.156-1.56"/><path fill="#7f4a41" d="M50.741 59.82c1.327 0 3.669.936 5.776 2.42-2.03-2.264-4.449-3.825-5.776-3.825-1.404 0-4.37 1.717-6.478 4.214 2.186-1.717 4.995-2.81 6.478-2.81"/><path fill="#442823" d="M50.195 73.634c-2.966 0-5.854-.936-8.507-1.639-.547-.156-1.093.234-1.64.078-4.916-1.56-8.897-4.214-11.317-7.57v.78c0 16.39 5.776 11.785 9.6 13.737 3.903 1.951 7.961 1.327 12.098 1.327h.078c4.215 0 8.195.546 12.098-1.405 3.824-1.951 9.6 2.81 9.6-13.58 0-.625 0-1.25.078-1.796-2.264 3.668-6.4 6.556-11.551 8.273-.469.156-1.561-.234-2.03-.156-2.81.937-5.307 1.951-8.507 1.951"/><path fill="#442823" d="M42.78 64.815s-1.95 5.854-.624 8.43l-1.795-.781s1.327-5.932 2.42-7.65m15.454 0s1.951 5.854.624 8.43l1.796-.781s-1.405-5.932-2.42-7.65"/><path fill="#ccac8d" d="M37.785 34.922c-.702 2.42-3.2 10.615 1.64 7.883 0 0-2.03 1.17-3.279 5.62-1.249 4.448-4.527 4.995-4.527 4.995s-5.229 1.014-9.131-2.342c-3.279-2.81-3.825-7.805-2.42-11.63 1.405-3.824 3.902-4.916 7.57-5.697 3.67-.858 10.928-1.56 10.147 1.17"/><path fill="#000" d="M50.507 58.415c2.108 0 8.664 4.526 8.742 10.068v-.312c0-5.776-5.308-10.38-8.742-10.38s-8.741 4.682-8.741 10.38v.312c.078-5.542 6.634-10.068 8.741-10.068"/><path fill="#331712" d="M52.211 47.608c.334-.086.474-.663.312-1.29-.161-.625-.563-1.063-.897-.977s-.473.664-.312 1.29c.162.626.563 1.063.897.977m-4.011-.011c.329.102.751-.316.943-.934.191-.617.08-1.2-.25-1.303s-.752.316-.943.933c-.192.618-.08 1.201.25 1.304"/><path fill="#000" d="M28.888 50.688a6.868 6.868 0 1 0 0-13.737 6.868 6.868 0 0 0 0 13.737"/><path fill="#fff" d="M30.683 42.57a1.795 1.795 0 1 0 0-3.59 1.795 1.795 0 0 0 0 3.59"/><path fill="#7f4a41" d="M52.537 43.898c0-.079-1.796.78-2.264.858-.468-.078-2.263-.937-2.263-.858z"/><path fill="#efcca3" d="M38.878 43.507s-6.166 4.215-9.522 8.352c-3.356 4.136-3.278 4.917-3.278 4.917l2.42 1.092s3.433-6.478 7.648-8.897 4.761-4.449 4.761-4.449z"/><path fill="#ccac8d" d="M25.375 31.02s-2.107 5.775-6.79 8.195c0 0 7.337-.859 6.79-8.195m49.25 0s2.107 5.775 6.79 8.195c0 0-7.337-.859-6.79-8.195M61.277 41.79s-4.605-4.839-10.77-4.995h.155c-6.244.156-10.77 4.995-10.77 4.995 5.385-3.746 9.99-3.668 10.77-3.668-.078 0 5.23-.078 10.615 3.668m-5.385-10.146s-2.342-3.278-5.464-3.356h.156c-2.341.078-5.385 3.356-5.385 3.356 2.654-2.576 5.385-2.498 5.385-2.498s2.576-.078 5.308 2.498M28.888 55.605s-3.669 1.795-6.322.703h-.078C20.146 54.98 18.975 51 18.975 51s2.342 7.025 9.913 4.605m42.77 0s3.669 1.795 6.323.703C81.103 54.98 81.57 51 81.57 51s-2.342 7.025-9.912 4.605"/><path fill="#ccac8d" d="M33.102 30.63c2.03-.391 5.386-.47 8.04.39 3.355 1.17.624 5.463 1.326 5.697s1.64-2.966 7.883-2.654c6.322.313 7.025 3.122 7.883 2.654.859-.468-.858-7.805 8.586-6.088 0 0-9.913-2.654-9.444 4.527 0 0-5.698-4.37-13.66-.468.079 0 2.108-6.713-10.614-4.059m34.576 0c.156 0 .234.077.312.077s-.078-.078-.312-.078m-37.307-9.6s-8.43 10.614-9.679 14.672c-1.248 4.137-2.185 21.074-3.278 23.493l-3.902-16.702 7.18-17.405zm39.649 0s8.429 10.614 9.678 14.672c1.248 4.137 2.185 21.074 3.278 23.493l3.902-16.702-7.18-17.405z"/><path fill="#56332b" d="M69.63 21.03s9.053 7.57 11.707 16.312c2.653 8.741 1.56 19.356 3.59 20.683 2.888 1.873 6.166-9.288 7.259-10.459 1.717-1.873 7.414-6.634 7.805-7.493.39-.858-11.552-13.893-16.781-16.468-6.322-2.966-14.127-3.2-13.58-2.576"/><path fill="#442823" d="M77.356 25.712S88.05 39.371 87.893 56.386l4.293-8.742c-.079 0-3.825-11.161-14.83-21.932"/><path fill="#56332b" d="M30.37 21.03s-9.053 7.57-11.707 16.312c-2.654 8.741-1.56 19.356-3.59 20.683-2.888 1.873-6.166-9.288-7.259-10.459C6.097 45.693.4 40.932.01 40.073c-.39-.858 11.552-13.893 16.78-16.468 6.323-2.966 14.128-3.2 13.581-2.576"/><path fill="#442823" d="M22.644 25.712S11.95 39.371 12.107 56.386l-4.215-8.742s3.747-11.161 14.752-21.932"/><path fill="#ccac8d" d="M16.868 56.698s.78 4.214 2.03 5.541c1.248 1.327.39-1.014.39-1.014s-1.327-.703-1.093-6.088c.234-5.386-1.327 1.56-1.327 1.56m66.576 0s-.78 4.214-2.03 5.541c-1.248 1.327-.39-1.014-.39-1.014s1.327-.703 1.093-6.088c-.234-5.386 1.327 1.56 1.327 1.56"/><path fill="#442823" d="M42.39 54.122a.624.624 0 1 0 0-1.249.624.624 0 0 0 0 1.25m-3.59 3.745a.624.624 0 1 0 0-1.248.624.624 0 0 0 0 1.248m-1.17-3.746a.624.624 0 1 0-.001-1.249.624.624 0 0 0 0 1.25m19.981-.001a.625.625 0 1 0 0-1.249.625.625 0 0 0 0 1.25m3.59 3.745a.624.624 0 1 0 0-1.248.624.624 0 0 0 0 1.248m1.17-3.746a.624.624 0 1 0 0-1.249.624.624 0 0 0 0 1.25"/></g></svg>