<svg xmlns="http://www.w3.org/2000/svg" fill="none" viewBox="0 0 512 512"><g transform="translate(30.72 30.72) scale(4.506)"><g clip-path="url(#a)"><path fill="#41cd52" d="M13.731 13.281-.189 27.1v59.552h86.431l13.919-13.818V13.28zm23.43 12.833c6.531 0 11.115 1.834 13.715 5.536 2.632 3.664 3.932 9.336 3.932 17.01 0 5.057-.547 9.131-1.605 12.223-1.096 3.122-2.84 5.499-5.302 7.129l5.336 8.523-6.535 3.021-5.642-9.2c-.82.27-2.121.371-3.898.371-6.602 0-11.22-1.764-13.818-5.294s-3.898-9.133-3.898-16.74c0-7.637 1.333-13.308 3.966-17.01s7.25-5.57 13.75-5.57zm26.505 2.478h6.878v9.134H79.3v5.841h-8.756v13.885c0 2.582.202 4.28.579 5.128s1.367 1.257 2.908 1.257l5.197-.205.31 5.5c-2.839.542-4.994.814-6.498.814q-5.39 0-7.39-2.444c-1.333-1.63-2.018-4.718-2.018-9.268V43.602h-4.82v-5.876h4.854zm-26.47 3.668c-3.968 0-6.703 1.29-8.21 3.903-1.469 2.616-2.222 6.758-2.222 12.497 0 5.703.719 9.812 2.155 12.256s4.206 3.702 8.277 3.702c4.068 0 6.805-1.223 8.242-3.634 1.403-2.411 2.119-6.52 2.119-12.257 0-5.77-.717-9.948-2.188-12.564-1.468-2.612-4.172-3.903-8.172-3.903"/></g><defs><clipPath id="a"><path fill="#fff" d="M0 0h100v100H0z"/></clipPath></defs></g></svg>