<svg xmlns="http://www.w3.org/2000/svg" fill="none" viewBox="0 0 512 512"><g transform="translate(30.72 32.92) scale(4.506)"><path fill="#999" d="M50.783 56.588a4.064 4.064 0 0 1-3.517 4.026c-2.354 5.488-7.15 10.842-13.719 14.635-5.513 3.183-11.356 4.736-16.597 4.736-6.666 0-12.358-2.511-15.167-7.376-4.561-7.9-.117-18.923 10.417-26.372 0 1.701.134 3.262.432 4.646-.85.717-1.623 1.33-2.376 2.12-1.94 2.034-3.491 4.141-4.552 6.39-1.98 4.197-2.113 8.163-.377 11.17 1.956 3.388 6.192 5.33 11.623 5.33 4.705 0 9.873-1.487 14.551-4.188 2.724-1.573 5.147-3.462 7.2-5.614 1.94-2.034 3.461-4.206 4.522-6.455q.139-.294.264-.586a4.064 4.064 0 1 1 7.296-2.462M32.648 18.999c9.073 0 16.592 9.587 17.95 22.117a25.3 25.3 0 0 0-4.45-2.119 30 30 0 0 0-.687-2.85c-.791-2.697-1.911-5.101-3.329-7.145-2.644-3.812-6.013-5.91-9.484-5.91s-6.84 2.098-9.485 5.91c-1.418 2.044-2.538 4.448-3.33 7.144-.836 2.855-1.261 5.897-1.261 9.042s.425 6.188 1.262 9.042c.791 2.696 1.911 5.1 3.33 7.144q.219.318.447.619.363-.069.746-.07a4.064 4.064 0 1 1-3.845 2.751c-3.703-4.794-6.032-11.747-6.032-19.486 0-14.464 8.134-26.189 18.168-26.189m15.659 56.893c4.983 0 8.96-1.635 11.093-4.522 1.24.655 2.618 1.054 4.073 1.256-2.825 4.81-8.54 7.358-15.166 7.358-4.099 0-8.564-.949-12.952-2.885 1.708-.943 3.22-1.854 4.341-2.702 2.901.978 5.836 1.495 8.61 1.495m6.723-22.954c-2.053-2.153-4.475-4.041-7.2-5.614-4.677-2.701-9.845-4.188-14.55-4.188-1.028 0-2.014.07-2.949.205l-.07.012a4.065 4.065 0 1 1-1.218-3.946l.017-.004c1.346-.239 2.76-.36 4.219-.36 5.241 0 11.083 1.553 16.598 4.737 9.072 5.238 14.767 13.453 15.311 20.887-1.648-.185-3.042-.732-4.324-1.44-.257-1.24-.695-2.526-1.312-3.834-1.06-2.25-2.582-4.422-4.522-6.455"/><path fill="#89d96d" d="M96.488 46.766c1.8 2.71-1.866 4.831-3.507 2.105-1.001-1.708-2.536-3.306-4.548-4.702-2.044-1.418-4.448-2.538-7.144-3.329-2.855-.837-5.897-1.262-9.042-1.262s-6.187.425-9.042 1.262q-.736.217-1.443.466a4.063 4.063 0 1 1-2.014-3.62c3.715-1.402 7.972-2.2 12.499-2.2 10.95 0 20.329 4.661 24.24 11.28m3.416 9.822c0 2.038-1.5 3.725-3.455 4.018-3.935 6.584-13.288 11.216-24.202 11.216-8.523 0-16.094-2.825-20.877-7.197-2.313-2.326.471-5.028 2.629-3.14a18 18 0 0 0 2.062 1.653c2.044 1.418 4.447 2.538 7.144 3.33 2.855.837 5.897 1.262 9.042 1.262s6.187-.425 9.042-1.263c2.696-.79 5.1-1.91 7.144-3.329 1.773-1.23 3.174-2.617 4.167-4.098a4.064 4.064 0 1 1 7.304-2.452"/></g></svg>