<svg xmlns="http://www.w3.org/2000/svg" fill="none" viewBox="0 0 512 512"><g transform="translate(31.6 30.72) scale(4.506)"><path fill="#bf4722" fill-rule="evenodd" d="m28.956 14.458 19.417 13.254c.438.292.95.452 1.475.46a2.66 2.66 0 0 0 1.476-.46l19.432-13.298a2.65 2.65 0 0 0 1.095-2.372 2.65 2.65 0 0 0-1.464-2.16L50.969.268a2.67 2.67 0 0 0-2.33 0L29.28 9.882a2.65 2.65 0 0 0-1.478 2.193 2.65 2.65 0 0 0 1.154 2.383m27.488 17.415a2.68 2.68 0 0 0 1.15 2.199L73.161 44.71c.996.687 2.33.6 3.231-.208l13.058-11.68a2.65 2.65 0 0 0 .882-2.055 2.65 2.65 0 0 0-1-2l-12.468-9.971a2.64 2.64 0 0 0-3.128-.119l-16.142 11.04a2.68 2.68 0 0 0-1.15 2.155M17.727 46.345a2.67 2.67 0 0 1 .87 2.244 2.6 2.6 0 0 1-1.312 2.02l-9.296 5.572A2.63 2.63 0 0 1 5 55.977a2.67 2.67 0 0 1-.875-2.886L7.56 42.274a2.63 2.63 0 0 1 1.815-1.754c.861-.25 1.79-.03 2.45.58zm50.417 1.13L51.34 35.973a2.64 2.64 0 0 0-2.951 0l-16.806 11.5a2.7 2.7 0 0 0-1.15 2.021c-.044.82.28 1.617.884 2.17l16.791 15.022a2.645 2.645 0 0 0 3.512 0l16.79-15.022c.606-.55.927-1.35.871-2.17a2.63 2.63 0 0 0-1.136-2.02M23.32 44.502l-13.043-11.68a2.71 2.71 0 0 1-.885-2.094 2.62 2.62 0 0 1 .989-2.006l12.467-10.03a2.67 2.67 0 0 1 3.143-.119l16.127 11.04c.748.491 1.2 1.33 1.2 2.229 0 .9-.452 1.738-1.2 2.229L26.565 44.71a2.64 2.64 0 0 1-3.246-.208m66.972 16.775-13.28-7.95a2.61 2.61 0 0 0-3.098.298l-16.23 14.487a2.67 2.67 0 0 0 .767 4.458l22.516 9.123c.309.128.64.194.974.193a2.64 2.64 0 0 0 2.42-1.575l6.979-15.631a2.67 2.67 0 0 0-1.048-3.403m1.844-19.004 3.438 10.817h-.03c.255.809.11 1.692-.388 2.376a2.636 2.636 0 0 1-3.477.715l-9.31-5.573a2.59 2.59 0 0 1-1.27-2.02 2.64 2.64 0 0 1 .871-2.244l5.902-5.26a2.63 2.63 0 0 1 2.45-.58 2.68 2.68 0 0 1 1.814 1.769M42.884 70.55a2.66 2.66 0 0 0-.84-2.437L25.812 53.626a2.61 2.61 0 0 0-3.098-.297l-13.28 7.95a2.7 2.7 0 0 0-1.062 3.387l6.994 15.631a2.634 2.634 0 0 0 3.393 1.382l22.501-9.123c.85-.34 1.463-1.1 1.623-2.006m7.968 4.458 18.06 7.31a2.66 2.66 0 0 1 1.593 2.17 2.64 2.64 0 0 1-1.121 2.48L51.309 99.526a2.6 2.6 0 0 1-1.475.475 2.66 2.66 0 0 1-1.476-.475L30.298 86.97a2.65 2.65 0 0 1-1.136-2.482c.12-.97.753-1.8 1.653-2.169l18.06-7.31a2.67 2.67 0 0 1 1.977 0" clip-rule="evenodd"/></g></svg>