<svg xmlns="http://www.w3.org/2000/svg" fill="none" viewBox="0 0 512 512"><g transform="translate(30.72 30.72) scale(4.506)"><g clip-path="url(#a)"><path fill="#f03e2f" d="M0 0h100v100H0z"/><path fill="#fff" d="M30.8 25.91c0 8.592 5.4 13.705 16.214 16.4l11.457 2.61c10.234 2.31 16.465 8.046 16.465 17.39a17.56 17.56 0 0 1-3.815 11.256c0-9.323-4.91-14.36-16.75-17.39l-11.25-2.513c-9.01-2.02-15.962-6.734-15.962-16.884a17.46 17.46 0 0 1 3.64-10.87"/><path fill="#f9b1ab" d="M64.08 60.02c4.887 3.072 7.03 7.368 7.03 13.534-4.045 5.09-11.152 7.948-19.504 7.948-14.06 0-23.9-6.799-26.087-18.613H39.02c1.738 5.424 6.341 7.937 12.485 7.937 7.5 0 12.486-3.931 12.585-10.827M37.818 38.646a14.2 14.2 0 0 1-5.298-5.418 13.9 13.9 0 0 1-1.72-7.32c3.902-5.048 10.692-8.13 18.968-8.13 14.323 0 22.61 7.432 24.655 17.893h-12.99c-1.431-4.125-5.017-7.336-11.556-7.336-6.986 0-11.753 3.996-12.026 10.311"/></g><defs><clipPath id="a"><path fill="#fff" d="M0 0h100v100H0z"/></clipPath></defs></g></svg>