<svg xmlns="http://www.w3.org/2000/svg" fill="none" viewBox="0 0 512 512"><g transform="translate(30.72 30.72) scale(4.506)"><g clip-path="url(#a)"><mask id="b" width="108" height="98" x="-4" y="1" maskUnits="userSpaceOnUse" style="mask-type:luminance"><path fill="#fff" d="M-3.24 1.902h106.479v96.194H-3.24z"/></mask><g mask="url(#b)"><path fill="#fff" stroke="#fff" stroke-width=".721" d="M50 96.377c12.923 0 25.317-4.887 34.455-13.584 9.138-8.698 14.272-20.495 14.272-32.795s-5.134-24.096-14.272-32.794S62.923 3.62 50 3.619c-12.923 0-25.317 4.887-34.455 13.585C6.407 25.9 1.273 37.698 1.272 49.998s5.135 24.097 14.273 32.795C24.683 91.49 37.077 96.377 50 96.377Z"/></g><mask id="c" width="94" height="90" x="3" y="5" maskUnits="userSpaceOnUse" style="mask-type:luminance"><path fill="#fff" d="M50 94.662c12.444 0 24.379-4.706 33.179-13.082 8.8-8.375 13.743-19.735 13.744-31.58s-4.945-23.204-13.744-31.58c-8.8-8.376-20.735-13.081-33.18-13.081S25.62 10.044 16.82 18.42 3.077 38.155 3.076 50 8.02 73.205 16.82 81.58 37.555 94.661 50 94.662"/></mask><g mask="url(#c)"><path fill="#5c7da2" d="M-13.166 61.69v51.008h126.33V65.49l-1.804-.116-1.804-.133-1.805-.15-1.805-.172-1.804-.194-1.805-.218-1.805-.244-1.804-.272-1.805-.3-1.805-.334-1.804-.365-1.805-.399-1.805-.434-1.805-.47-1.805-.505-1.805-.542-1.804-.576-1.805-.61-1.805-.644-1.804-.674-1.806-.702-1.804-.726-1.804-.747-1.806-.763-1.804-.775-1.804-.78-1.806-.78-1.804-.775-1.805-.76-1.805-.742-1.804-.715-1.805-.682-1.805-.64-1.805-.595-1.805-.54-1.804-.482-1.805-.417-1.805-.349-1.804-.274-1.805-.2-1.805-.12-1.804-.04-1.805.04-1.805.12-1.804.2-1.805.275-1.805.348-1.804.417-1.805.482-1.805.54-1.805.594-1.805.641-1.804.682-1.805.715-1.806.742-1.804.76-1.804.774-1.806.781-1.804.78-1.804.775-1.806.763-1.804.746-1.805.727-1.804.702-1.805.674-1.805.644-1.804.61-1.805.577-1.805.541z"/></g><mask id="d" width="94" height="90" x="3" y="5" maskUnits="userSpaceOnUse" style="mask-type:luminance"><path fill="#fff" d="M50 94.662c12.444 0 24.379-4.706 33.179-13.082 8.8-8.375 13.743-19.735 13.744-31.58s-4.945-23.204-13.744-31.58c-8.8-8.376-20.735-13.081-33.18-13.081S25.62 10.044 16.82 18.42 3.077 38.155 3.076 50 8.02 73.205 16.82 81.58 37.555 94.661 50 94.662"/></mask><g mask="url(#d)"><path fill="#7db0bc" d="M-13.166 45.064V60.83l1.804-.506 1.806-.541 1.804-.577 1.805-.61 1.804-.644 1.805-.673 1.805-.703 1.804-.725 1.805-.748 1.805-.763 1.804-.774 1.805-.781 1.805-.78 1.805-.774 1.805-.762 1.805-.74 1.804-.716 1.805-.681 1.805-.64 1.804-.595 1.806-.54 1.804-.483 1.804-.417 1.806-.348 1.804-.275 1.804-.2 1.806-.119 1.804-.04 1.804.04 1.806.12 1.804.199 1.805.275 1.804.348 1.805.417 1.805.482 1.805.54 1.805.595 1.805.64 1.804.682 1.805.715 1.805.741 1.804.762 1.805.774 1.805.78 1.804.78 1.805.775 1.805.763 1.804.748 1.805.725 1.805.703 1.805.673 1.805.644 1.804.61 1.805.577 1.805.541 1.805.506 1.804.47 1.805.434 1.805.399 1.805.365 1.804.333 1.805.301 1.805.272 1.804.244 1.805.218 1.805.193 1.804.172 1.805.151 1.805.132 1.804.117V40.028l-1.804-.577-1.804-.61-1.805-.644-1.805-.673-1.804-.702-1.805-.727-1.805-.747-1.804-.763-1.805-.774-1.805-.781-1.804-.78-1.805-.774-1.805-.761-1.805-.742-1.805-.715-1.805-.681-1.804-.64-1.805-.595-1.805-.54-1.804-.483-1.806-.417-1.804-.348-1.804-.274-1.806-.2-1.804-.12-1.804-.04-1.806.04-1.804.12-1.805.199-1.805.274-1.804.349-1.805.417-1.805.482-1.805.54-1.805.595-1.804.64-1.805.682-1.805.715-1.804.742-1.805.76-1.805.775-1.804.78-1.805.781-1.805.774-1.804.763-1.805.748-1.805.726-1.804.702-1.805.673-1.805.643-1.805.611-1.805.577-1.804.541-1.805.506-1.806.47-1.804.434-1.804.399-1.806.366-1.804.332-1.804.301-1.806.272-1.804.244-1.805.218-1.804.194-1.805.17-1.805.152-1.804.132-1.805.116-1.805.101z"/></g><mask id="e" width="108" height="98" x="-4" y="1" maskUnits="userSpaceOnUse" style="mask-type:luminance"><path fill="#fff" d="M-3.24 1.902h106.479v96.194H-3.24z"/></mask><g mask="url(#e)"><path fill="#444876" stroke="#444876" stroke-width=".721" d="M99.63 50c0-9.343-2.912-18.476-8.365-26.244S78.06 9.934 68.99 6.36c-9.067-3.576-19.046-4.512-28.673-2.69s-18.47 6.322-25.411 12.928S3.239 31.62 1.323 40.784.392 59.445 4.148 68.076s10.118 16.01 18.279 21.2 17.757 7.961 27.572 7.962c13.163 0 25.786-4.977 35.094-13.836S99.629 62.528 99.629 50Zm-.903 0c0 9.172-2.858 18.139-8.213 25.766s-12.964 13.57-21.868 17.08c-8.904 3.511-18.7 4.43-28.153 2.64s-18.135-6.206-24.95-12.692C8.73 76.309 4.09 68.045 2.21 59.049.33 50.05 1.295 40.727 4.983 32.252s9.933-15.718 17.946-20.814 17.433-7.816 27.07-7.817c12.923 0 25.317 4.887 34.455 13.584C93.592 25.903 98.727 37.7 98.727 50Z"/></g><mask id="f" width="94" height="90" x="3" y="5" maskUnits="userSpaceOnUse" style="mask-type:luminance"><path fill="#fff" d="M50 94.662c12.444 0 24.379-4.706 33.179-13.082 8.8-8.375 13.743-19.735 13.744-31.58s-4.945-23.204-13.744-31.58c-8.8-8.376-20.735-13.081-33.18-13.081S25.62 10.044 16.82 18.42 3.077 38.155 3.076 50 8.02 73.205 16.82 81.58 37.555 94.661 50 94.662"/></mask><g mask="url(#f)"><path fill="#444876" d="M8.49 113.557h10.828v-47.97H8.49zm10.828 0h10.83V58.409h-10.83zm10.83 0h10.828V57.115H30.147zm10.828 0h10.827V62.875H40.976zm10.827 0h10.83V70.83h-10.83zm10.83 0H73.46V76.272H62.632zm10.828 0h10.828V78.568H73.461z"/><path stroke="#fff" stroke-width=".721" d="M19.318 113.557H8.49v-47.97h10.828zm0 0h10.83m-10.83 0V58.409h10.83v55.148m0 0h10.828m-10.829 0V57.115h10.829v56.442m0 0h10.827m-10.827 0V62.875h10.827v50.682m0 0h10.83m-10.83 0V70.83h10.83v42.727m0 0H73.46m-10.829 0V76.272H73.46v37.285m0 0h10.828V78.568H73.461z"/></g><path fill="#afdad2" stroke="#fff" stroke-width=".181" d="M57.582 6.225c-.4.004-.788.14-1.094.387a1.62 1.62 0 0 0-.584.962 1.57 1.57 0 0 0 .195 1.095 1.7 1.7 0 0 0 .884.725c-.42.142-.774.42-1 .786s-.31.796-.237 1.214c.073.42.298.8.636 1.076a1.96 1.96 0 0 0 1.214.437c.457.01.903-.137 1.256-.414.353-.278.588-.667.664-1.097.075-.43-.015-.87-.254-1.242a1.9 1.9 0 0 0-1.046-.78c.362-.146.66-.406.845-.737a1.57 1.57 0 0 0 .172-1.079 1.62 1.62 0 0 0-.579-.942 1.78 1.78 0 0 0-1.072-.39Zm-3.463.633a1.6 1.6 0 0 0-1.096.432 1.44 1.44 0 0 0-.453 1.042c0 .391.163.767.453 1.043.29.277.685.432 1.096.432.41 0 .805-.155 1.095-.432a1.44 1.44 0 0 0 .454-1.043 1.44 1.44 0 0 0-.454-1.042 1.6 1.6 0 0 0-1.095-.432Zm-7.068.137c-.263 0-.515.1-.701.277a.92.92 0 0 0-.29.667c0 .25.104.49.29.667s.438.277.7.277c.264 0 .516-.1.702-.277a.92.92 0 0 0 .29-.667.92.92 0 0 0-.29-.667 1.02 1.02 0 0 0-.701-.277Zm3.615.305c-.356 0-.698.135-.95.374-.252.24-.393.565-.393.904s.142.664.393.904c.252.24.594.374.95.374s.697-.135.95-.374c.251-.24.392-.565.392-.904s-.141-.664-.393-.904a1.38 1.38 0 0 0-.95-.374ZM34.963 8.467a1.5 1.5 0 0 0-.99.431 1.36 1.36 0 0 0-.405.963c0 .358.145.703.404.963.26.26.615.414.991.431a1.5 1.5 0 0 0 .991-.431c.26-.26.405-.604.405-.963a1.36 1.36 0 0 0-.405-.963 1.5 1.5 0 0 0-.99-.431Zm30.17.183a1.35 1.35 0 0 0-.93.367 1.22 1.22 0 0 0-.386.885c0 .332.139.65.385.885.247.235.582.367.93.367.35 0 .684-.132.93-.367.247-.235.386-.553.386-.885s-.14-.65-.386-.885a1.35 1.35 0 0 0-.93-.367Zm-25.27.22c-.463.019-.9.208-1.22.526s-.5.742-.5 1.183c0 .44.18.864.5 1.182.32.319.757.507 1.22.527.242.01.484-.027.71-.108a1.8 1.8 0 0 0 .61-.366 1.7 1.7 0 0 0 .41-.563 1.64 1.64 0 0 0 0-1.344 1.7 1.7 0 0 0-.41-.564 1.8 1.8 0 0 0-.61-.365 1.9 1.9 0 0 0-.71-.108Zm3.78.485a.9.9 0 0 0-.629.247.83.83 0 0 0-.26.598c0 .224.094.44.26.598a.9.9 0 0 0 .628.248c.236 0 .462-.09.628-.248a.83.83 0 0 0 .26-.598.83.83 0 0 0-.26-.598.9.9 0 0 0-.628-.247Zm17.375.101c-.272 0-.533.103-.725.286a.95.95 0 0 0-.3.69c0 .26.107.508.3.691.192.183.453.286.725.286s.533-.103.726-.286a.95.95 0 0 0 .3-.69.95.95 0 0 0-.3-.69 1.05 1.05 0 0 0-.726-.287Zm-29.25.246a1.36 1.36 0 0 0-.898.393 1.24 1.24 0 0 0-.366.874c0 .325.13.638.366.873.236.236.557.377.898.393.341-.016.663-.157.898-.393.236-.236.367-.548.367-.873 0-.326-.131-.638-.367-.874a1.36 1.36 0 0 0-.898-.393Zm22.14.089a1.77 1.77 0 0 0-1.219.48 1.6 1.6 0 0 0-.505 1.161c0 .436.182.853.505 1.161.324.308.762.48 1.22.48a1.77 1.77 0 0 0 1.22-.48c.323-.308.505-.725.505-1.16 0-.436-.182-.854-.505-1.162a1.77 1.77 0 0 0-1.22-.48Zm14.123.966c-.44 0-.863.167-1.175.463a1.54 1.54 0 0 0-.486 1.118c0 .42.175.822.486 1.118.312.297.735.463 1.175.463.336-.004.662-.102.94-.281a1.74 1.74 0 0 0 .203 1.68c.174.243.407.443.68.582s.577.212.887.215c.26.015.521-.021.767-.106.245-.085.47-.216.66-.386s.341-.376.445-.604a1.75 1.75 0 0 0 0-1.445 1.8 1.8 0 0 0-.445-.604 1.9 1.9 0 0 0-.66-.387 2 2 0 0 0-.767-.105 2 2 0 0 0-1.13.354 1.51 1.51 0 0 0-.232-1.423 1.64 1.64 0 0 0-.591-.48 1.7 1.7 0 0 0-.757-.172Zm-20.577.721a1.46 1.46 0 0 0-.965.42 1.33 1.33 0 0 0-.394.938c0 .35.141.685.394.938s.598.404.965.42c.36-.023.699-.177.945-.428.247-.252.384-.584.384-.928s-.137-.676-.384-.928a1.46 1.46 0 0 0-.945-.432Zm16.422.308c-.388 0-.76.147-1.035.408a1.36 1.36 0 0 0-.428.985c0 .37.154.723.428.985.274.26.647.408 1.035.408s.76-.147 1.034-.408a1.36 1.36 0 0 0 .429-.985c0-.37-.154-.724-.429-.985a1.5 1.5 0 0 0-1.034-.408Zm-20.805.521a1.18 1.18 0 0 0-.813.32 1.07 1.07 0 0 0-.337.775c0 .29.121.568.337.774.215.205.508.32.813.32s.597-.115.813-.32.337-.484.337-.774-.121-.569-.337-.774a1.18 1.18 0 0 0-.813-.32Zm8.803.19c-.47 0-.921.178-1.254.495a1.65 1.65 0 0 0-.519 1.193c0 .447.187.877.52 1.193a1.82 1.82 0 0 0 1.253.494c.47 0 .921-.177 1.254-.494.332-.316.52-.746.52-1.193s-.188-.877-.52-1.194a1.82 1.82 0 0 0-1.254-.494Zm-16.353.121c-.471 0-.923.179-1.256.496a1.65 1.65 0 0 0-.52 1.195c0 .449.187.879.52 1.196S35.05 16 35.52 16s.923-.178 1.256-.495a1.65 1.65 0 0 0 .52-1.196 1.65 1.65 0 0 0-.52-1.195 1.82 1.82 0 0 0-1.256-.496Zm38.621.256c-.284 0-.556.107-.757.298a1 1 0 0 0-.314.721c0 .27.113.53.314.72.2.192.473.3.757.3a1.1 1.1 0 0 0 .757-.3c.201-.19.314-.45.314-.72s-.113-.53-.314-.72a1.1 1.1 0 0 0-.757-.299Zm-13.475.426c-.356 0-.698.135-.95.374-.251.24-.393.565-.393.904s.142.664.394.904c.251.24.593.374.949.374s.698-.135.95-.374c.251-.24.393-.565.393-.904s-.142-.664-.394-.904a1.38 1.38 0 0 0-.949-.374Zm-32.72.485c-.363 0-.711.137-.968.381-.256.245-.4.576-.4.922 0 .345.143.676.4.92.257.245.605.382.968.382s.71-.137.968-.381c.256-.245.4-.576.4-.921s-.144-.677-.4-.921a1.4 1.4 0 0 0-.968-.382Zm3.398.14a1.64 1.64 0 0 0-1.089.473 1.5 1.5 0 0 0-.445 1.057c0 .393.16.772.445 1.056s.676.454 1.089.472c.217.01.434-.023.638-.095a1.6 1.6 0 0 0 .546-.327c.158-.142.283-.314.368-.505a1.47 1.47 0 0 0 0-1.203 1.5 1.5 0 0 0-.367-.505 1.6 1.6 0 0 0-.547-.327 1.7 1.7 0 0 0-.638-.095Zm24.024.116a.96.96 0 0 0-.661.26.87.87 0 0 0-.274.63c0 .235.098.462.274.628a.96.96 0 0 0 .66.26.96.96 0 0 0 .661-.26.87.87 0 0 0 .274-.629.87.87 0 0 0-.273-.629.96.96 0 0 0-.661-.26Zm11.87.39c-.486 0-.953.184-1.297.511a1.7 1.7 0 0 0-.538 1.235c0 .463.194.908.538 1.235s.81.512 1.297.512.954-.184 1.298-.512c.344-.327.537-.772.537-1.235s-.193-.907-.537-1.235a1.88 1.88 0 0 0-1.298-.511Zm-28.644.455a1 1 0 0 0-.689.272.9.9 0 0 0-.285.655c0 .246.103.482.285.656a1 1 0 0 0 .69.272 1 1 0 0 0 .688-.272.9.9 0 0 0 .286-.656.9.9 0 0 0-.286-.655 1 1 0 0 0-.689-.272Zm-15.657.164c-.28 0-.55.106-.748.294a.98.98 0 0 0-.31.712c0 .267.112.523.31.711.198.189.467.295.748.295s.549-.106.747-.295a.98.98 0 0 0 .31-.711.98.98 0 0 0-.31-.712 1.1 1.1 0 0 0-.747-.294Zm53.432.059c-.366.024-.708.179-.958.434s-.389.59-.389.939c0 .348.14.684.39.939.249.255.591.41.957.434a1.48 1.48 0 0 0 .957-.434c.25-.255.389-.59.389-.94 0-.348-.14-.683-.389-.938a1.48 1.48 0 0 0-.957-.434Zm-13.469.626c-.403.026-.783.19-1.069.463a1.55 1.55 0 0 0-.482 1.02c-.025.384.097.764.345 1.07a1.68 1.68 0 0 0 1 .586 1.85 1.85 0 0 0-.967.773c-.218.356-.3.774-.23 1.181s.286.78.611 1.052c.326.272.741.428 1.174.441.46-.023.896-.207 1.222-.517.327-.31.522-.723.547-1.16.026-.439-.12-.87-.408-1.213a1.9 1.9 0 0 0-1.154-.642c.354-.138.648-.387.832-.707s.247-.69.178-1.048a1.57 1.57 0 0 0-.557-.92 1.7 1.7 0 0 0-1.042-.38Zm-15.74.23a1.75 1.75 0 0 0-1.16.5 1.6 1.6 0 0 0-.474 1.126c0 .42.17.822.474 1.125s.72.483 1.16.502a1.8 1.8 0 0 0 .687-.093c.22-.075.422-.192.592-.345a1.6 1.6 0 0 0 .4-.54 1.56 1.56 0 0 0 0-1.294 1.6 1.6 0 0 0-.4-.54 1.8 1.8 0 0 0-1.28-.441Zm-12.287.124a1.98 1.98 0 0 0-1.315.565c-.346.343-.538.8-.538 1.275s.192.931.538 1.274a1.98 1.98 0 0 0 1.315.566 1.98 1.98 0 0 0 1.315-.566c.345-.343.538-.8.538-1.274 0-.475-.193-.932-.538-1.275a1.98 1.98 0 0 0-1.315-.565Zm8.648.02a1.53 1.53 0 0 0-1.008.438 1.38 1.38 0 0 0-.411.979c0 .364.147.715.411.978a1.544 1.544 0 0 0 2.108.049c.146-.133.262-.292.342-.469a1.36 1.36 0 0 0 0-1.117 1.4 1.4 0 0 0-.342-.469 1.5 1.5 0 0 0-.508-.302 1.6 1.6 0 0 0-.592-.088Zm-17.355.422c-.384 0-.751.145-1.023.403a1.34 1.34 0 0 0-.423.973c0 .365.152.715.424.974.27.258.638.403 1.022.403.383 0 .751-.145 1.022-.403.271-.259.424-.609.424-.974s-.152-.715-.424-.973a1.48 1.48 0 0 0-1.022-.403Zm45.08.154c-.31 0-.609.117-.828.326-.22.21-.343.493-.343.788s.124.579.343.788.517.326.828.326.608-.117.827-.326c.22-.209.343-.492.343-.788 0-.295-.123-.579-.343-.788a1.2 1.2 0 0 0-.827-.326Zm-30.744 1.062c-.372 0-.728.14-.991.39s-.41.59-.41.943c0 .354.147.693.41.944.263.25.619.39.99.39.372 0 .729-.14.991-.39.263-.25.41-.59.41-.944 0-.353-.147-.692-.41-.943a1.44 1.44 0 0 0-.99-.39Zm17.847.026c-.402 0-.787.152-1.071.422s-.444.637-.444 1.02c0 .382.16.749.444 1.02.284.27.67.422 1.071.422.402 0 .787-.152 1.071-.423.284-.27.444-.637.444-1.02 0-.382-.16-.748-.444-1.019a1.56 1.56 0 0 0-1.071-.422Zm-27.119.069a1.9 1.9 0 0 0-1.256.482 1.72 1.72 0 0 0-.568 1.17 1.7 1.7 0 0 0-.589-.45 1.8 1.8 0 0 0-.734-.167 1.77 1.77 0 0 0-1.22.481 1.6 1.6 0 0 0-.504 1.16c0 .436.181.854.505 1.162a1.77 1.77 0 0 0 2.374.045 1.6 1.6 0 0 0 .546-1.062c.17.211.39.382.64.5a1.9 1.9 0 0 0 .806.178c.488 0 .955-.184 1.3-.512s.539-.773.539-1.237-.194-.91-.539-1.238a1.9 1.9 0 0 0-1.3-.512Zm23.002.006a1.25 1.25 0 0 0-.818.36c-.214.214-.333.5-.333.795s.12.581.333.796.507.344.818.36c.31-.016.603-.145.817-.36s.333-.5.333-.796-.12-.58-.333-.796a1.24 1.24 0 0 0-.817-.359Zm-31.054.033a1.36 1.36 0 0 0-.898.393 1.24 1.24 0 0 0-.367.874c0 .325.131.637.366.873.236.236.557.377.899.393.34-.016.662-.157.898-.393.235-.236.366-.548.366-.873 0-.326-.131-.638-.366-.874a1.36 1.36 0 0 0-.898-.393Zm57.473.013a1.93 1.93 0 0 0-1.329.524c-.352.336-.55.79-.55 1.265s.198.93.55 1.265c.353.336.83.524 1.33.524a1.93 1.93 0 0 0 1.329-.524c.352-.335.55-.79.55-1.265s-.198-.93-.55-1.265a1.93 1.93 0 0 0-1.33-.524Zm-6.159.099c-.404 0-.792.152-1.078.425a1.42 1.42 0 0 0-.447 1.026c0 .385.16.754.447 1.027.286.272.674.425 1.078.425s.792-.153 1.078-.425c.285-.272.446-.64.446-1.025s-.16-.754-.447-1.026a1.57 1.57 0 0 0-1.077-.428Zm-23.782.042a.9.9 0 0 0-.588.263.82.82 0 0 0-.239.574c0 .214.086.42.24.575a.9.9 0 0 0 .587.263.9.9 0 0 0 .587-.263.82.82 0 0 0 .239-.575.82.82 0 0 0-.24-.574.9.9 0 0 0-.586-.263Zm-5.406.787c-.458.019-.89.205-1.207.52a1.65 1.65 0 0 0-.494 1.172c0 .436.177.856.494 1.171s.75.502 1.207.521a1.82 1.82 0 0 0 1.208-.52c.317-.316.494-.736.494-1.172s-.177-.856-.494-1.171a1.82 1.82 0 0 0-1.208-.521Zm-25.51.249c-.307 0-.6.115-.816.321a1.07 1.07 0 0 0-.338.776c0 .291.122.57.338.777.216.205.51.321.815.321.306 0 .6-.116.816-.321s.338-.486.338-.777c0-.29-.122-.57-.338-.776a1.18 1.18 0 0 0-.816-.321Zm49.272.602c-.332 0-.65.126-.886.35a1.16 1.16 0 0 0-.367.843c0 .317.132.62.367.844s.554.35.886.35c.333 0 .652-.127.887-.35.235-.224.367-.527.367-.844s-.132-.62-.367-.843a1.3 1.3 0 0 0-.887-.35Zm8.311.427c-.485 0-.95.183-1.294.51a1.7 1.7 0 0 0-.536 1.231c0 .462.193.905.536 1.232s.809.51 1.294.51a1.88 1.88 0 0 0 1.294-.51 1.7 1.7 0 0 0 .536-1.232 1.7 1.7 0 0 0-.536-1.231 1.88 1.88 0 0 0-1.294-.51Zm-41.75.425c-.332 0-.65.126-.884.349a1.16 1.16 0 0 0-.366.841c0 .316.132.618.366.841s.552.348.884.348.65-.125.885-.348c.234-.224.366-.527.366-.843s-.132-.619-.366-.842a1.28 1.28 0 0 0-.885-.345Zm6.682.145c-.455 0-.89.172-1.212.478a1.6 1.6 0 0 0-.502 1.154c0 .432.18.847.502 1.153a1.76 1.76 0 0 0 1.212.478c.455 0 .89-.171 1.212-.478s.503-.72.503-1.153-.181-.848-.503-1.154a1.76 1.76 0 0 0-1.212-.478Zm-3.443.167a1.55 1.55 0 0 0-1.024.445 1.4 1.4 0 0 0-.418.995c0 .37.15.727.418.995.269.268.635.428 1.024.445a1.55 1.55 0 0 0 1.025-.445c.268-.268.418-.624.418-.995 0-.37-.15-.727-.419-.995a1.55 1.55 0 0 0-1.024-.445Zm45.1.14a1.3 1.3 0 0 0-.888.351 1.17 1.17 0 0 0-.368.846c0 .317.133.621.368.846.236.224.556.35.889.35s.653-.126.888-.35c.236-.225.368-.529.368-.846s-.132-.622-.368-.846a1.3 1.3 0 0 0-.888-.35Zm-10.131.08c-.428.025-.83.206-1.123.503s-.457.69-.457 1.099c0 .408.164.8.457 1.098s.695.478 1.123.504c.23.014.46-.017.677-.091s.416-.19.584-.34c.169-.15.303-.332.394-.533a1.54 1.54 0 0 0 0-1.276 1.6 1.6 0 0 0-.394-.533 1.7 1.7 0 0 0-.584-.34 1.8 1.8 0 0 0-.677-.092Zm-8.105.478c-.301 0-.59.114-.803.317a1.06 1.06 0 0 0-.333.764c0 .287.12.562.333.765s.502.317.803.317.59-.114.804-.317c.213-.203.333-.478.333-.765s-.12-.562-.333-.764a1.17 1.17 0 0 0-.804-.317Zm-5.384.046c-.414.009-.813.15-1.133.398a1.76 1.76 0 0 0-.637.978 1.6 1.6 0 0 0-.567-.944 1.74 1.74 0 0 0-1.068-.383c-.446 0-.874.168-1.19.469s-.492.707-.492 1.131.177.832.493 1.132a1.73 1.73 0 0 0 2.209.134c.292-.214.502-.515.598-.854.067.409.282.783.609 1.056.326.274.743.43 1.178.441.496 0 .971-.187 1.322-.52.35-.335.547-.787.547-1.259s-.197-.924-.547-1.258a1.92 1.92 0 0 0-1.322-.521Zm-6.772.154a1.5 1.5 0 0 0-.996.433 1.37 1.37 0 0 0-.406.968c0 .36.145.706.406.967.261.26.618.416.996.433a1.53 1.53 0 0 0 1.088-.386c.144-.13.259-.288.338-.462a1.34 1.34 0 0 0 0-1.105 1.4 1.4 0 0 0-.338-.463 1.5 1.5 0 0 0-.503-.299 1.5 1.5 0 0 0-.585-.086Zm-26.434.33c-.493 0-.966.187-1.314.519a1.73 1.73 0 0 0-.545 1.251c0 .47.196.92.545 1.251.348.332.821.519 1.314.519s.966-.187 1.315-.519c.349-.331.544-.782.544-1.25 0-.47-.195-.92-.544-1.252a1.9 1.9 0 0 0-1.315-.518Zm22.575.046a1.23 1.23 0 0 0-.795.365 1.12 1.12 0 0 0-.323.782c0 .29.115.57.323.782.207.213.49.343.794.365.304-.022.588-.152.795-.365a1.12 1.12 0 0 0 .323-.782c0-.29-.115-.569-.322-.782a1.23 1.23 0 0 0-.796-.364Zm-27.343.109c-.423 0-.828.16-1.127.444s-.467.67-.467 1.073.168.788.467 1.073.704.444 1.127.444.828-.16 1.127-.444.467-.67.467-1.073-.168-.788-.467-1.073a1.64 1.64 0 0 0-1.127-.444Zm58.534.275a1.15 1.15 0 0 0-.743.343c-.194.199-.301.46-.301.732s.107.532.3.732c.194.199.46.321.744.343v.006a1.2 1.2 0 0 0 .86-.284q.174-.154.27-.36a1.04 1.04 0 0 0 0-.867 1.1 1.1 0 0 0-.27-.36 1.2 1.2 0 0 0-.86-.284Zm-34.486.337a1 1 0 0 0-.685.27.9.9 0 0 0-.284.653.9.9 0 0 0 .284.652c.181.173.428.27.685.27a1 1 0 0 0 .685-.27.9.9 0 0 0 .284-.652.9.9 0 0 0-.284-.652 1 1 0 0 0-.685-.27Zm-13.737.27c-.326 0-.64.122-.87.342-.231.22-.36.518-.36.829s.129.608.36.828.544.343.87.343c.327 0 .64-.123.87-.343.231-.22.36-.518.36-.828 0-.311-.129-.61-.36-.829a1.26 1.26 0 0 0-.87-.343Zm-16.353.428a1.3 1.3 0 0 0-.889.35 1.17 1.17 0 0 0-.368.846c0 .318.133.622.368.846.236.224.556.35.889.35s.653-.126.888-.35c.236-.224.368-.528.368-.846s-.132-.621-.368-.845a1.3 1.3 0 0 0-.888-.35Zm20.064.341a1.6 1.6 0 0 0-1.102.435 1.45 1.45 0 0 0-.457 1.05c0 .393.164.77.457 1.05a1.6 1.6 0 0 0 1.102.434 1.6 1.6 0 0 0 1.103-.435c.293-.278.457-.656.457-1.05a1.45 1.45 0 0 0-.457-1.05 1.6 1.6 0 0 0-1.103-.434Zm6.246.236a1.98 1.98 0 0 0-1.315.566c-.346.343-.539.8-.539 1.274 0 .475.193.932.538 1.274a1.98 1.98 0 0 0 1.316.566 1.98 1.98 0 0 0 1.315-.566c.345-.342.538-.799.538-1.274s-.193-.931-.538-1.274a1.98 1.98 0 0 0-1.315-.566Zm40.655.187a1.5 1.5 0 0 0-.993.432c-.26.26-.406.606-.406.965 0 .36.146.705.406.966.26.26.616.415.993.432a1.52 1.52 0 0 0 1.086-.385q.217-.198.337-.462a1.34 1.34 0 0 0 0-1.102 1.4 1.4 0 0 0-.337-.462 1.5 1.5 0 0 0-.502-.298 1.5 1.5 0 0 0-.584-.086Zm-35.054.845c-.356 0-.698.135-.95.375-.251.24-.393.564-.393.903s.142.664.394.904c.251.24.593.374.949.374s.698-.134.95-.374c.251-.24.393-.565.393-.904s-.142-.664-.394-.903a1.38 1.38 0 0 0-.949-.375Zm37.998.46c-.461 0-.903.173-1.23.484-.325.31-.509.731-.509 1.17s.184.86.51 1.17.768.485 1.229.485.903-.175 1.23-.485c.325-.31.509-.731.509-1.17s-.184-.86-.51-1.17a1.8 1.8 0 0 0-1.229-.485Zm-67.334.1c-.425 0-.833.161-1.134.448-.301.286-.47.675-.47 1.08s.169.793.47 1.08c.3.286.709.447 1.134.447.426 0 .834-.161 1.135-.448.3-.286.47-.674.47-1.08a1.5 1.5 0 0 0-.47-1.08 1.65 1.65 0 0 0-1.135-.446Zm13.255.482a1.47 1.47 0 0 0-.953.432 1.34 1.34 0 0 0-.387.935c0 .347.138.68.387.934s.59.408.953.432c.197.013.394-.013.58-.075.186-.063.357-.162.501-.29s.26-.283.338-.455a1.31 1.31 0 0 0 0-1.092 1.4 1.4 0 0 0-.338-.456 1.5 1.5 0 0 0-.5-.29 1.5 1.5 0 0 0-.581-.075Zm7.071.16c-.497 0-.975.189-1.326.524s-.55.79-.55 1.263.198.928.55 1.263c.351.335.829.523 1.326.523s.975-.189 1.327-.523c.352-.335.55-.79.55-1.263 0-.474-.198-.928-.55-1.263a1.93 1.93 0 0 0-1.327-.523Zm-14.019.148a.86.86 0 0 0-.591.234.78.78 0 0 0-.245.563c0 .21.088.413.245.563s.37.233.591.233a.86.86 0 0 0 .592-.233.78.78 0 0 0 .245-.563.78.78 0 0 0-.245-.563.86.86 0 0 0-.592-.234Zm-2.981.351a1.9 1.9 0 0 0-1.317.52 1.73 1.73 0 0 0-.546 1.253c0 .47.197.92.546 1.253s.823.52 1.317.52.968-.187 1.317-.52a1.73 1.73 0 0 0 .545-1.253c0-.47-.196-.921-.545-1.254a1.9 1.9 0 0 0-1.317-.519Zm-10.363.288c-.32 0-.626.121-.852.336a1.12 1.12 0 0 0-.353.811c0 .304.127.596.353.811s.533.336.852.336c.32 0 .626-.12.852-.336a1.12 1.12 0 0 0 .353-.81 1.12 1.12 0 0 0-.353-.812 1.24 1.24 0 0 0-.852-.336Zm16.515.865c-.344 0-.674.13-.918.362-.243.232-.38.546-.38.874s.137.642.38.873a1.36 1.36 0 0 0 1.415.268 1.3 1.3 0 0 0 .702-.668 1.18 1.18 0 0 0 0-.946 1.2 1.2 0 0 0-.281-.4 1.3 1.3 0 0 0-.421-.269 1.4 1.4 0 0 0-.497-.094Zm-9.654.82a1.85 1.85 0 0 0-1.129.4c-.316.255-.53.605-.606.992a1.5 1.5 0 0 0-.536-.9 1.65 1.65 0 0 0-1.016-.365c-.425 0-.832.161-1.132.447-.3.285-.47.673-.47 1.077s.17.792.47 1.078c.3.285.707.446 1.132.446a1.65 1.65 0 0 0 1-.352c.282-.223.474-.532.545-.874.064.399.274.763.593 1.028s.726.414 1.15.42c.46-.019.894-.206 1.212-.522s.496-.738.496-1.176c0-.439-.178-.86-.496-1.176a1.83 1.83 0 0 0-1.213-.523Zm16.46.337c-.468.02-.91.21-1.233.532s-.505.75-.505 1.197c0 .445.18.874.505 1.196a1.86 1.86 0 0 0 1.233.532 1.9 1.9 0 0 0 .72-.11 1.8 1.8 0 0 0 .617-.369 1.7 1.7 0 0 0 .414-.57 1.66 1.66 0 0 0 0-1.359 1.7 1.7 0 0 0-.414-.57 1.8 1.8 0 0 0-.617-.37 1.9 1.9 0 0 0-.72-.109Zm-10.114.95a1.24 1.24 0 0 0-.798.366 1.12 1.12 0 0 0-.323.785c0 .29.115.57.323.784.208.213.493.344.798.366a1.24 1.24 0 0 0 .814-.359c.214-.214.333-.498.333-.793s-.12-.58-.333-.794a1.24 1.24 0 0 0-.814-.355Zm-15.066.387a1.37 1.37 0 0 0-.945.373c-.25.238-.39.561-.39.899s.14.66.39.898c.25.239.59.373.945.373.354 0 .694-.134.944-.373.251-.238.392-.561.392-.898 0-.338-.141-.661-.392-.9a1.37 1.37 0 0 0-.944-.372Zm21.293.577c-.453 0-.889.171-1.21.477a1.6 1.6 0 0 0-.5 1.151c0 .432.18.847.5 1.152.322.305.757.477 1.21.477.454 0 .89-.172 1.21-.477.321-.305.502-.72.502-1.152s-.18-.846-.502-1.151a1.76 1.76 0 0 0-1.21-.477Zm-9.605.308c-.27 0-.53.102-.72.284a.95.95 0 0 0-.299.686c0 .257.108.504.299.686.19.182.45.284.72.284s.53-.102.72-.284a.95.95 0 0 0 .3-.686.95.95 0 0 0-.3-.686 1.05 1.05 0 0 0-.72-.284Zm-4.971.744c-.287.002-.57.066-.827.19-.256.122-.48.3-.652.518s-.29.472-.343.741-.04.545.038.808a1.8 1.8 0 0 0-.601-.435 1.9 1.9 0 0 0-.738-.161c-.475 0-.93.18-1.267.5s-.525.753-.525 1.206.189.886.525 1.206a1.84 1.84 0 0 0 2.058.32c.246-.115.46-.284.627-.492s.28-.449.333-.705a1.6 1.6 0 0 0-.03-.773c.173.194.388.35.63.458.241.108.505.165.772.167a1.9 1.9 0 0 0 1.267-.545c.333-.33.519-.771.519-1.229s-.186-.898-.519-1.229a1.9 1.9 0 0 0-1.267-.545Zm11.068.262a1.62 1.62 0 0 0-1.051.474c-.275.28-.428.647-.428 1.03s.153.75.428 1.03a1.64 1.64 0 0 0 2.238.07 1.5 1.5 0 0 0 .37-.5 1.45 1.45 0 0 0 0-1.2 1.5 1.5 0 0 0-.37-.5 1.6 1.6 0 0 0-.55-.32 1.7 1.7 0 0 0-.637-.084Zm-18.291 1.37c-.41 0-.802.154-1.09.43a1.43 1.43 0 0 0-.453 1.038c0 .389.163.762.452 1.038.29.275.682.43 1.09.43.41 0 .802-.155 1.092-.43.289-.276.451-.65.451-1.038 0-.39-.162-.763-.451-1.038a1.58 1.58 0 0 0-1.091-.43Zm15.682.544c-.41 0-.802.154-1.09.43a1.43 1.43 0 0 0-.453 1.038c0 .389.163.762.452 1.038.29.275.682.43 1.09.43.41 0 .802-.155 1.091-.43.29-.276.452-.65.452-1.038 0-.39-.162-.763-.452-1.038a1.58 1.58 0 0 0-1.09-.43Zm-5.268.927c-.314.016-.61.146-.826.363a1.14 1.14 0 0 0-.338.805c0 .3.12.588.337.805s.513.347.827.363a1.27 1.27 0 0 0 .911-.32c.121-.108.218-.24.284-.386a1.12 1.12 0 0 0 0-.924 1.2 1.2 0 0 0-.284-.387 1.2 1.2 0 0 0-.42-.249 1.3 1.3 0 0 0-.49-.07Zm-3.487 1.792a1.1 1.1 0 0 0-.767.303 1 1 0 0 0-.318.73c0 .273.114.536.318.73.203.193.48.302.767.302s.563-.109.767-.303c.203-.193.317-.456.317-.73s-.114-.536-.317-.73a1.1 1.1 0 0 0-.767-.302Zm-3.174 1.049a.88.88 0 0 0-.61.24.8.8 0 0 0-.251.58.8.8 0 0 0 .252.578.88.88 0 0 0 .609.24.88.88 0 0 0 .608-.24.8.8 0 0 0 .252-.579.8.8 0 0 0-.252-.58.88.88 0 0 0-.608-.24Zm-7.034.436a1.7 1.7 0 0 0-1.12.484 1.53 1.53 0 0 0-.457 1.087c0 .405.164.794.457 1.087a1.7 1.7 0 0 0 1.12.484c.438 0 .858-.166 1.168-.46s.484-.695.484-1.113c0-.417-.174-.817-.484-1.112a1.7 1.7 0 0 0-1.168-.457Z"/></g><defs><clipPath id="a"><path fill="#fff" d="M0 0h100v100H0z"/></clipPath></defs></g></svg>