<svg xmlns="http://www.w3.org/2000/svg" fill="none" viewBox="0 0 512 512"><g transform="translate(30.72 30.72) scale(4.506)"><g clip-path="url(#a)"><path fill="#6cb52d" fill-rule="evenodd" d="M49.96 0c14 0 26.68 5.87 35.75 15.11 2.06-2.77 3.91-5.87 5.35-9.36v-.01c6.29 19.17 10.11 35.25 8.62 47.81C97.82 79.41 76.2 99.9 49.94 99.9a49.67 49.67 0 0 1-32.13-11.74l-1.86-1.66C6.17 77.34 0 64.36 0 49.94 0 22.34 22.47 0 49.96 0M22.57 80.95c-1.86-1.44-4.53-1.24-5.97.62s-1.24 4.53.62 5.97 4.53 1.24 5.97-.62 1.14-4.53-.62-5.97M90.59 10.9c-5.12 10.8-17.91 19.05-28.93 21.63-10.41 2.45-19.47.39-29.06 4.11-21.85 8.35-21.43 34.31-9.49 40.18l.72.42c.062-.012 17.637-3.497 27.4-7.11 14.22-5.25 29.88-18.23 35.03-33.27-2.7 15.65-16.18 30.79-29.68 37.7-7.21 3.7-12.78 4.54-24.62 8.65-1.44.52-2.58 1.04-2.58 1.04a93 93 0 0 1 5.97-.62c16.79-.82 43.15 4.73 55.41-11.64 12.56-16.7 5.55-43.68-.17-61.09" clip-rule="evenodd"/><path fill="#fff" d="M16.6 81.57c1.44-1.86 4.11-2.06 5.97-.62 1.76 1.44 2.06 4.11.62 5.97s-4.11 2.06-5.97.62-2.06-4.11-.62-5.97M90.59 10.9c5.72 17.41 12.73 44.39.17 61.09C78.5 88.36 52.14 82.81 35.35 83.63a93 93 0 0 0-5.97.62s1.14-.52 2.58-1.04c11.84-4.11 17.41-4.95 24.62-8.65 13.5-6.91 26.98-22.05 29.68-37.7-5.15 15.04-20.81 28.02-35.03 33.27-9.763 3.614-27.338 7.098-27.4 7.11l-.72-.42c-11.94-5.87-12.36-31.83 9.49-40.18 9.59-3.72 18.65-1.66 29.06-4.11C72.68 29.95 85.47 21.7 90.59 10.9"/></g><defs><clipPath id="a"><path fill="#fff" d="M0 0h100v100H0z"/></clipPath></defs></g></svg>