<svg xmlns="http://www.w3.org/2000/svg" fill="none" viewBox="0 0 512 512"><g transform="translate(30.72 32.92) scale(4.506)"><path fill="#cc1e4c" d="M97.656 62.5c-1.328 0-2.422 1.015-2.422 2.343s1.016 2.344 2.422 2.344c1.328 0 2.344-1.016 2.344-2.344S98.984 62.5 97.656 62.5m-.078.39c1.094 0 1.875.86 1.875 1.953 0 1.094-.781 1.953-1.797 1.953-1.094 0-1.875-.859-1.875-1.953s.703-1.875 1.797-1.953m-.781.625v2.656h.469V65h.468l.704 1.172h.468l-.703-1.25c.469 0 .625-.312.625-.703q0-.703-.937-.703zm.39 1.172v-.86h.547c.391 0 .547.157.547.47s-.234.468-.469.468zm-72.656 8.125c-1.25-.937-2.734-1.719-4.765-2.344-2.578-.86-6.328-1.719-7.813-2.265-.937-.391-1.328-.938-1.328-1.72 0-1.093 1.328-1.718 2.89-1.796 2.579.078 3.36 1.563 3.516 2.578h7.5zm9.375 6.953h5.547c4.844-.078 8.75-2.5 10.703-6.016.157-.312.313-.546.469-.859.313.39.547.547.86.86 1.328 1.171 3.046 2.03 4.843 2.578 2.89 1.015 5.156 1.718 5.938 2.03 1.484.626 2.422 1.095 2.422 2.423 0 1.562-1.72 2.187-3.516 2.265-2.422-.078-4.844-1.25-4.766-3.672h-9.531c.469 6.329 6.719 11.25 14.063 11.329 4.453-.079 8.593-1.329 11.25-4.532 2.656 2.735 5.78 4.453 10.156 4.532 6.953-.079 14.14-3.516 14.219-10.86 0-2.344-.626-4.375-2.11-6.094-1.328-1.562-3.203-2.578-5.781-3.28-2.578-.86-6.328-1.72-7.813-2.266-.937-.391-1.328-.938-1.328-1.72 0-1.093 1.328-1.718 2.89-1.796 2.579.078 3.36 1.563 3.516 2.578H95c.078-6.25-5.156-10.39-12.578-10.39-5.547 0-9.297 2.109-11.172 5.156-2.031-3.203-6.094-5.157-11.172-5.157-5.312 0-8.984 2.032-10.937 4.922-2.188-2.812-5.782-4.609-10.157-4.609H24.531v4.766c-2.031-3.204-6.093-5.079-11.093-5.079-7.735 0-11.954 4.297-12.344 9.22 0 3.046 1.484 5.78 3.75 7.734q1.992 1.756 4.687 2.578c2.89 1.015 5.156 1.718 5.938 2.031 1.484.625 2.422 1.094 2.422 2.422 0 1.562-1.797 2.187-3.516 2.266-2.422-.079-4.844-1.25-4.766-3.672H0c.469 6.328 6.719 11.25 14.063 11.328 4.062-.078 7.812-1.172 10.312-3.516v2.969h9.375zm0-14.766h5.078c1.875 0 3.516 1.563 3.516 3.516a3.5 3.5 0 0 1-3.516 3.516h-5.078zm38.36 8.829c-1.329-1.563-3.204-2.579-5.782-3.282-2.578-.859-6.328-1.718-7.734-2.265-1.016-.39-1.484-.938-1.484-1.719 0-1.094 1.328-1.719 2.89-1.797 2.657.078 3.36 1.563 3.516 2.578h6.406c.39 2.5 1.64 4.766 3.672 6.485 1.328 1.171 2.969 2.03 4.766 2.578 2.89 1.015 5.156 1.718 5.859 2.031 1.563.625 2.422 1.094 2.422 2.422 0 1.562-1.797 2.187-3.516 2.266-2.422-.079-4.844-1.25-4.765-3.672h-4.297c0-2.266-.703-4.141-1.953-5.625"/><path fill="#1f70c1" d="M0 8.36v2.734h19.453V8.36zm22.188 0v2.734H50S47.188 8.36 43.438 8.36zm33.203 0v2.734h16.797L71.172 8.36zm28.828 0-1.016 2.734h16.64V8.36zM0 13.672v2.735h19.453v-2.735zm22.188 0v2.735h30.937s-.39-2.11-1.016-2.735zm33.203 0v2.735h18.593l-.937-2.735zm26.797 0-.938 2.735h18.516v-2.735zM5.624 18.985v2.734h8.438v-2.734zm22.188 0v2.734h8.437v-2.734zm16.64 0v2.734h8.438s.547-1.484.547-2.734zm16.563 0v2.734h14.922l-1.016-2.734zm19.375 0-1.016 2.734h15v-2.734zm-74.766 5.39v2.735h8.438v-2.735zm22.188 0v2.735h21.562s1.797-1.406 2.344-2.735zm33.203 0v2.735h8.437v-1.485L70 27.11h15.469l.547-1.485v1.485h8.437v-2.735h-15.86l-.859 2.344-.859-2.344zm-55.39 5.313v2.734h8.438v-2.734zm22.188 0v2.734h23.906c-.547-1.328-2.344-2.734-2.344-2.734zm33.203 0v2.734h8.437v-2.734zm9.922 0 1.015 2.734h11.563l.937-2.734zm15.078 0v2.734h8.437v-2.734zM5.625 35.001v2.734h8.438V35zm22.188 0v2.734h8.437V35zm16.64 0v2.734h8.984c0-1.328-.546-2.734-.546-2.734zm16.563 0v2.734h8.437V35zm11.875 0 1.015 2.734h7.735L82.656 35zm13.125 0v2.734h8.437V35zM.156 40.313v2.734H19.61v-2.734zm22.032 0v2.734h30c.624-.625 1.015-2.734 1.015-2.734zm33.359 0v2.734h13.906v-2.734zm19.219 0 1.015 2.734h3.985l.937-2.734zm11.25 0v2.734H100v-2.734zM.156 45.626v2.734H19.61v-2.734zm22.032 0v2.734h21.171c3.75 0 6.563-2.734 6.563-2.734zm33.359 0v2.734h13.906v-2.734zm21.172 0 1.015 2.734h.157l1.015-2.734zm9.297 0v2.734H100v-2.734z"/></g></svg>