<svg xmlns="http://www.w3.org/2000/svg" fill="none" viewBox="0 0 512 512"><g transform="translate(28.52 30.72) scale(4.506)"><g clip-path="url(#a)"><path fill="#fff" fill-rule="evenodd" d="M20.121 12.12h60.606v60.606H20.121z" clip-rule="evenodd"/><path fill="#0ab3af" d="M57.327 46.1h-19.59v9.217h19.12c1.13 0 2.167-.46 3.016-1.197.751-.74 1.224-1.845 1.224-3.227a5.45 5.45 0 0 0-1.036-3.318c-.755-.924-1.603-1.476-2.734-1.476m.66-11.159c.85-.551 1.225-1.751 1.225-3.318 0-1.382-.376-2.397-1.036-3.042a3.8 3.8 0 0 0-2.449-.921H37.733v8.297h17.619c.939 0 1.881-.461 2.636-1.016"/><path fill="#0ab3af" d="M89.142-.001H12.4C9.955-.001 8 1.948 8 4.287v76.606c0 2.342 1.955 3.803 4.303 3.803h11.34v15.303L37.72 84.793h51.425c2.345 0 3.812-1.46 3.812-3.897V4.384c0-2.34-1.467-4.288-3.91-4.288l.091-.097zm-12.9 62.085a11.8 11.8 0 0 1-4.203 4.29c-1.857 1.167-3.909 2.243-6.257 2.728-2.346.585-4.888 1.073-7.527 1.073H23.642V15.593h39.304c1.954 0 3.615.39 5.181 1.267 1.464.781 2.834 1.851 3.91 3.12a14.6 14.6 0 0 1 3.324 9.455c0 2.534-.685 4.97-1.958 7.31a12.2 12.2 0 0 1-5.864 5.263c3.128.876 5.573 2.436 7.428 4.676 1.76 2.34 2.642 5.364 2.642 9.164 0 2.436-.49 4.484-1.467 6.236z"/></g><defs><clipPath id="a"><path fill="#fff" d="M0 0h100v100H0z"/></clipPath></defs></g></svg>