<svg xmlns="http://www.w3.org/2000/svg" fill="none" viewBox="0 0 512 512"><g transform="translate(30.72 30.72) scale(4.506)"><g fill="#e76057" clip-path="url(#a)"><path d="M2.941-.001A2.94 2.94 0 0 0 0 2.939v23.988c0 1.463 0 2.195.288 2.585.258.348.627.554 1.059.59.483.041 1.123-.354 2.404-1.143C17.199 20.666 33.04 15.88 50 15.88s32.801 4.785 46.25 13.078c1.28.79 1.92 1.184 2.403 1.143a1.44 1.44 0 0 0 1.059-.59c.288-.39.288-1.122.288-2.585V2.94a2.94 2.94 0 0 0-2.941-2.941zm7.647 99.999c.824 0 1.236 0 1.55-.16a1.47 1.47 0 0 0 .643-.643c.16-.314.16-.726.16-1.55V43.993c0-1.323 0-1.985-.295-2.378a1.5 1.5 0 0 0-1.079-.583c-.49-.032-1.027.319-2.099 1.02A74.4 74.4 0 0 0 .77 48.71c-.278.247-.416.37-.52.526a1.5 1.5 0 0 0-.203.45C0 49.866 0 50.058 0 50.44v46.617a2.94 2.94 0 0 0 2.941 2.941zm21.765.001c.823 0 1.235 0 1.55-.16a1.47 1.47 0 0 0 .642-.643c.16-.315.16-.727.16-1.55v-63.17c0-.988 0-1.482-.213-1.833a1.5 1.5 0 0 0-.824-.643c-.393-.12-.857-.004-1.786.23a74 74 0 0 0-8.655 2.752c-.516.2-.773.3-.973.478a1.5 1.5 0 0 0-.395.577c-.095.25-.095.535-.095 1.104v60.505c0 .823 0 1.235.16 1.55.142.276.367.501.643.642.315.16.727.16 1.55.16z"/><path d="M54.118 99.999c.823 0 1.235 0 1.55-.16a1.47 1.47 0 0 0 .642-.644c.16-.314.16-.726.16-1.55v-65.21c0-.76 0-1.14-.148-1.446a1.5 1.5 0 0 0-.602-.637c-.297-.166-.665-.187-1.402-.23a75 75 0 0 0-8.636 0c-.737.043-1.105.064-1.402.23a1.5 1.5 0 0 0-.602.637c-.149.306-.149.686-.149 1.446v65.21c0 .824 0 1.236.16 1.55.142.277.367.502.643.643.315.16.727.16 1.55.16zm21.764 0c.823 0 1.235 0 1.55-.16a1.47 1.47 0 0 0 .642-.643c.16-.315.16-.727.16-1.55V37.14c0-.569 0-.853-.094-1.104a1.5 1.5 0 0 0-.395-.577c-.2-.179-.457-.278-.973-.478a74 74 0 0 0-8.655-2.753c-.929-.233-1.393-.35-1.786-.229a1.5 1.5 0 0 0-.824.643c-.213.351-.213.845-.213 1.833v63.17c0 .823 0 1.235.16 1.55.14.276.366.501.643.642.314.16.726.16 1.55.16zM100 50.44c0-.382 0-.573-.047-.755a1.5 1.5 0 0 0-.202-.45c-.105-.156-.243-.28-.521-.526a74.4 74.4 0 0 0-8.698-6.656c-1.072-.702-1.608-1.053-2.099-1.02a1.5 1.5 0 0 0-1.079.582c-.295.393-.295 1.055-.295 2.378v53.652c0 .824 0 1.236.16 1.55.141.277.366.502.643.643.314.16.726.16 1.55.16h7.647a2.94 2.94 0 0 0 2.941-2.94z"/></g><defs><clipPath id="a"><path fill="#fff" d="M0 0h100v100H0z"/></clipPath></defs></g></svg>