<svg xmlns="http://www.w3.org/2000/svg" fill="none" viewBox="0 0 512 512"><g transform="translate(30.72 30.72) scale(4.506)"><g clip-path="url(#a)"><path fill="#112a46" d="M68.14 12.814a2.8 2.8 0 0 0-1.105.143L2.147 33.44C.4 33.94-.347 35.687.153 37.187l12.476 34.47c.5 1.5 2.497 3.248 3.995 3.498l58.898 11.99c1.748.25 3.743-.496 4.741-1.995l19.218-29.976c.998-1.5.5-3.25-.998-4.249l-23.46-16.234c-1.499-.999-2.743-3-2.993-4.749l-1.75-14.986c-.187-1.311-1.077-2.06-2.141-2.142m-7.517 7.237c.83.059.922.712.172 1.648L46.073 39.937c-.998 1.25-3.244 2.248-4.99 1.748L13.626 36.19c-1.747-.25-1.747-.998 0-1.498l45.922-14.49c.436-.124.797-.17 1.074-.15m5.25 2.11c.558-.1 1.005.35 1.162 1.288l5.492 50.959c.249 1.748-.5 1.995-1.499.496l-21.21-27.727c-.999-1.25-.999-3.497 0-4.746l14.972-19.484c.375-.469.75-.727 1.084-.786M8.028 39.152q.28-.011.608.035l32.195 6.744c1.747.25 3.993 1.747 4.992 2.996l23.21 30.227c1 1.25.5 2.248-1.247 1.749l-47.67-9.495c-1.747-.25-3.494-1.998-3.993-3.497L6.64 41.435c-.438-1.311.08-2.24 1.387-2.284m66.307.777c.382-.033.877.13 1.438.506l16.969 11.743c1.496 1 1.75 2.995 1 4.244l-14.226 21.98c-.998 1.5-1.749 1.252-1.999-.496l-3.993-36.218c-.157-1.094.175-1.702.812-1.758"/></g><defs><clipPath id="a"><path fill="#fff" d="M0 0h100v100H0z"/></clipPath></defs></g></svg>