<svg xmlns="http://www.w3.org/2000/svg" fill="none" viewBox="0 0 512 512"><g transform="translate(31.6 30.72) scale(4.506)"><g clip-path="url(#a)"><path fill="#ffc131" d="M67.377 36.366a9.524 9.524 0 0 1-19.046 0 9.523 9.523 0 1 1 19.046 0"/><path fill="#24c8db" d="M32.312 63.635a9.525 9.525 0 0 1 19.05 0 9.523 9.523 0 0 1-9.525 9.524 9.524 9.524 0 0 1-9.525-9.525"/><path fill="#ffc131" d="M77.59 66.905a36.3 36.3 0 0 1-12.546 5.105 25.5 25.5 0 0 0 1.404-8.374 26 26 0 0 0-.189-3.14A25.55 25.55 0 0 0 81.152 46.86a25.556 25.556 0 0 0-16.415-35.104 25.56 25.56 0 0 0-27.649 9.716 42.4 42.4 0 0 0-13.943 4.05A36.36 36.36 0 0 1 47.07 1.637a36.35 36.35 0 0 1 20.578-.293A36.4 36.4 0 0 1 85.09 12.269a36.36 36.36 0 0 1-7.499 54.636M23.579 32.154l8.914 1.095c.21-1.72.595-3.413 1.151-5.054a36.3 36.3 0 0 0-10.065 3.959"/><path fill="#24c8db" d="M22.036 33.097a36.3 36.3 0 0 1 12.647-5.124 25.5 25.5 0 0 0-1.566 8.825q0 1.377.147 2.744a25.55 25.55 0 0 0-14.787 13.6 25.56 25.56 0 0 0-1.968 14.327 25.53 25.53 0 0 0 6.128 13.102 25.53 25.53 0 0 0 12.253 7.675 25.6 25.6 0 0 0 14.463-.205 25.55 25.55 0 0 0 13.192-9.518 42.4 42.4 0 0 0 13.949-4.08 36.3 36.3 0 0 1-6.815 12.509 36.33 36.33 0 0 1-17.123 11.413 36.35 36.35 0 0 1-20.578.293 36.4 36.4 0 0 1-17.441-10.925A36.38 36.38 0 0 1 8.62 48.7a36.35 36.35 0 0 1 13.415-15.604"/></g><defs><clipPath id="a"><path fill="#fff" d="M0 0h100v100H0z"/></clipPath></defs></g></svg>