<svg xmlns="http://www.w3.org/2000/svg" fill="none" viewBox="0 0 512 512"><g transform="translate(30.72 30.72) scale(4.506)"><g clip-path="url(#a)"><path fill="#005f0f" d="M7.196 0h85.608a7.097 7.097 0 0 1 7.112 7.113v85.775A7.097 7.097 0 0 1 92.805 100H7.195a7.097 7.097 0 0 1-7.112-7.112V7.112A7.097 7.097 0 0 1 7.195 0"/><path fill="#fff" d="M85.17 13.636C72.875 28.702 57.86 41.32 41.847 52.259c-5.206 3.726-10.952 7.043-14.954 12.145-1.529 2.685-1.898 6.467.716 8.646 4.352 4.102 11.131 4.994 16.583 2.698 7.633-2.907 12.906-9.526 17.337-16.086 9.89-14.247 15.887-30.633 23.64-46.026"/><path fill="#aea99f" d="M78.118 18.844C62.81 30.973 50.566 37.527 34.911 43.166c-4.725 2.022-9.79 4.588-11.984 9.549-2.259 4.693-1.518 11.238 1.074 15.584-.194-1.83.783-4.785 2.237-6.172 4.825-5.374 11.11-8.894 16.638-12.975l.013-.01.013-.01c12.793-8.786 24.789-18.826 35.216-30.288"/></g><defs><clipPath id="a"><path fill="#fff" d="M0 0h100v100H0z"/></clipPath></defs></g></svg>