<svg xmlns="http://www.w3.org/2000/svg" fill="none" viewBox="0 0 512 512"><g transform="translate(30.72 29.395) scale(4.523)"><g clip-path="url(#a)"><g clip-path="url(#b)"><path fill="url(#c)" fill-rule="evenodd" d="M7.443 52.988h3.975l2.447-14.475H9.889zm4.79-16.31c1.224 0 2.345-.917 2.447-2.039.102-1.121-.713-2.038-1.937-2.038-1.223 0-2.242.917-2.446 2.038-.102 1.122.815 2.04 1.937 2.04m-3.261 1.835H6.219l.612-3.466H2.754l-.51 3.466H.307l-.51 3.058h1.937L.511 49.114c-.51 2.753 1.121 4.18 4.077 4.078 1.02 0 1.835-.204 2.243-.408l-.102-2.956h-.102l-.917.102c-.816 0-1.325-.306-1.122-1.427L5.71 41.57h2.752zm12.64 3.16c-1.631 0-2.956 1.121-3.262 2.956l-1.427 8.359h-3.976l2.447-14.475h3.771l-.407 2.548h.204c.917-1.63 2.65-2.752 4.79-2.752 2.957 0 4.69 2.14 4.078 5.505l-1.53 9.174h-3.975l1.428-8.46c.203-1.836-.51-2.855-2.141-2.855m13.15 12.844c-.51 1.121-1.224 2.039-2.04 2.65h39.552l3.058-18.654h3.976l-.408 2.446h.204c.714-1.223 2.14-2.65 4.587-2.65 3.16 0 5.403 2.549 4.587 7.441-.815 4.893-3.771 7.442-7.135 7.442-2.345 0-3.262-1.325-3.67-2.549h-.102l-1.121 6.524h16.718l-4.384-4.383 2.549-2.548 8.46 8.46-.101.204.102.102-8.461 8.461-2.549-2.548 4.18-4.18H-.101v-3.568h26.81l1.019-2.242c1.325.51 2.243.408 3.058-.918l.408-.611-2.752-14.883h4.077l1.223 10.703h.102l4.791-10.703h4.486zm14.883-12.844c-1.632 0-2.957 1.121-3.263 2.956l-1.325 8.359H40.98l3.262-19.266h3.873l-1.223 7.34h.204c.918-1.734 2.549-2.753 4.791-2.753 2.956 0 4.587 2.039 4.078 5.505l-1.53 9.174h-4.077l1.427-8.46c.306-1.836-.51-2.855-2.14-2.855m16.106-3.16h-2.549l.51-3.466h-3.976l-.611 3.466h-1.937l-.51 3.058h2.039l-1.325 7.543c-.51 2.753 1.223 4.18 4.18 4.078 1.018 0 1.834-.204 2.242-.408l-.102-2.956h-.102l-.918.102c-.815 0-1.325-.306-1.223-1.427l1.223-6.932h4.587l-1.223 7.543c-.51 2.753 1.122 4.18 4.078 4.078 1.02 0 1.835-.204 2.242-.408l-.102-2.956h-.102l-.917.102c-.815 0-1.325-.306-1.121-1.427l1.121-6.932h2.752l.51-3.058h-2.752l.611-3.466H68.3l-.51 3.466zm12.334 7.237c.408-2.548 1.835-4.179 3.772-4.179s2.752 1.733 2.344 4.18c-.51 2.548-1.835 4.28-3.772 4.28s-2.752-1.732-2.344-4.28" clip-rule="evenodd"/></g></g><defs><clipPath id="a"><path fill="#fff" d="M0 0h100v100H0z"/></clipPath><clipPath id="b"><path fill="#fff" d="M-.305 32.499h100v35.066h-100z"/></clipPath><linearGradient id="c" x1="49.685" x2="49.685" y1="32.59" y2="67.483" gradientUnits="userSpaceOnUse"><stop stop-color="#c75975"/><stop offset="1" stop-color="#9a84cd"/></linearGradient></defs></g></svg>