<svg xmlns="http://www.w3.org/2000/svg" fill="none" viewBox="0 0 512 512"><g transform="translate(30.72 30.72) scale(4.506)"><g clip-path="url(#a)"><path fill="#bd222b" d="M74.166 99.938a29 29 0 0 1-3.93-.667c-2.566-.642-4.663-1.466-7.98-3.137-2.723-1.37-5.072-2.754-10.372-6.103l-1.826-1.155-2.958 1.95c-7.13 4.708-12.023 7.07-17.55 8.5-1.374.349-3.422.599-4.219.515-1.934-.207-2.544-.316-3.12-.532-3.025-1.133-4.755-3.442-5.123-6.842-.283-2.654.493-6.465 1.922-9.39.46-.95.61-1.15 1.207-1.642.857-.704 3.543-2.266 10.106-5.887a192 192 0 0 0 2.047-1.137c.017-.013-1.003-1.163-2.272-2.555L26.965 68.4l-.832-.917-.363.496c-.79 1.075-2.399 3.563-3.552 5.479-2.79 4.65-4.841 9.408-5.974 13.874-.827 3.25-.818 5.603.03 8.124.138.407.209.737.158.737-.125 0-14.287-14.157-14.726-14.728A10.3 10.3 0 0 1 .27 78.502c-.325-1.188-.32-3.625.004-5.367A40 40 0 0 1 3.19 64.02c1.203-2.645 4.344-8.273 6.884-12.335l1.4-2.243-.31-.396c-.613-.779-2.686-4.14-4.218-6.849a78 78 0 0 1-3.297-6.695c-1.195-2.958-2.172-6.353-2.402-8.316a31.4 31.4 0 0 1 .113-5.565c.326-2.226 2.122-3.892 4.838-4.475 1.06-.23 3.826-.118 5.71.228 2.173.405 6.024 1.721 6.852 2.346q.339.255 1.374 2.138c.568 1.033 1.83 3.313 2.807 5.062.974 1.75 2.03 3.666 2.344 4.265.317.597.598 1.084.627 1.084.075.005 6.7-6.595 6.663-6.633q-1.204-.708-2.419-1.395L26 21.857c-6.584-3.787-10.754-5.367-15.604-5.916-1.17-.133-4.645-.067-5.498.103-.434.084-.292-.075 4.325-4.75C16.596 3.838 19.053 1.467 20.022.88A8 8 0 0 1 21.45.25C22.148.03 22.453 0 23.948 0c1.546.005 1.818.034 3.03.338 3.696.933 8.718 2.84 12.77 4.862 2.047 1.021 3.86 2.091 6.518 3.845 1.29.85 2.57 1.63 2.849 1.734 1.086.416 1.725.216 3.63-1.117C59.597 4.859 66.878 1.438 72.367.434c3.777-.692 5.652-.558 7.813.554.952.492.96.5 7.761 7.333 3.743 3.762 7.032 7.083 7.307 7.383l.501.541-.932-.195c-2.857-.605-6.228-.405-9.32.553-3.375 1.042-6.563 2.559-13.556 6.429-2.37 1.313-4.349 2.425-4.399 2.47-.055.05 1.328 1.543 3.175 3.434l3.28 3.345.334-.608c.187-.333 1.554-2.875 3.032-5.646s2.825-5.233 2.988-5.474c.58-.846 1.173-1.258 2.515-1.733 3.437-1.217 7.352-1.933 9.587-1.75 3.534.292 5.706 2.533 6.166 6.362.147 1.191.092 2.125-.23 4.078-.948 5.792-3.505 11.703-8.689 20.086q-.55.879-1.082 1.767c-.075.138.197.633 1.162 2.125 4.704 7.266 7.001 11.666 8.631 16.503 1.174 3.492 1.629 5.696 1.617 7.908-.005 1.828-.297 3.096-1.028 4.462-.656 1.237-1.262 1.983-2.578 3.191-2.878 2.642-3.952 3.696-6.85 6.713-3.147 3.274-5.62 5.758-5.682 5.7q.024-.365.117-.717c.848-4.063.209-8.35-2.047-13.654-.932-2.2-3.418-7.14-4.462-8.874-1.308-2.162-3.23-5.032-3.363-5.02-.172.013-6.233 6.5-6.233 6.674 0 .092 1.725 1.104 5.209 3.063 7.49 4.207 7.203 3.991 8.05 6.061 1.358 3.313 2.047 6.5 2.047 9.516 0 1.238-.138 2.054-.501 2.975a6.29 6.29 0 0 1-4.625 3.866c-.751.15-2.552.192-3.91.092zm-46.539-2.642c3.096-.646 5.824-1.625 9.283-3.325 3.426-1.687 6.71-3.687 11.192-6.812l1.517-1.057 1.512.907a457 457 0 0 1 5.264 3.217c3.3 2.041 7.678 4.416 9.704 5.262 3.017 1.263 6.042 1.962 9.192 2.133 2.426.133 3.784-.391 4.699-1.829.526-.825.685-1.583.672-3.154-.025-2.754-.564-5.245-1.82-8.375-.41-1.015-.502-1.124-1.383-1.64a870 870 0 0 0-8.665-4.846q-1.478-.812-2.945-1.646l-1.88-1.066 1.245-1.334c.681-.733 2.319-2.458 3.634-3.833a253 253 0 0 0 3.163-3.349l.769-.858-1.237-1.63a245 245 0 0 0-5.021-6.4c-3.53-4.373-5.005-6.107-5.143-6.023-.213.125-3.142 2.912-7.762 7.374l-4.357 4.216-1.233-1.291c-3.292-3.458-9.558-9.787-9.692-9.787-.272 0-6.078 7.104-9.366 11.457l-1.767 2.341 1.375 1.53c3.007 3.35 6.892 7.757 6.892 7.824 0 .092-2.01 1.233-7.332 4.15-6.17 3.382-6.726 3.695-6.942 3.907-.427.413-1.497 3.354-1.88 5.15-.285 1.354-.393 3.75-.218 4.791.31 1.834 1.508 3.271 3.321 3.979 1.148.45 3.091.459 5.206.017zm29.186-44.621c1.65-1.625 2.99-2.995 2.974-3.041-.08-.221-3.225-3.625-5.009-5.417-1.847-1.854-4.658-4.415-4.842-4.415-.125 0-6.705 6.657-8.272 8.374l-1.504 1.64.76.793c.418.441 2.574 2.65 4.792 4.916l4.032 4.116 2.03-2 5.034-4.957zm-43.239-6.279c2.453-3.424 5.832-7.378 9.534-11.178l1.312-1.345-.268-.35a12 12 0 0 1-.726-1.209q-1.65-2.98-3.322-5.95l-2.866-5.098-1.922-.633c-1.804-.601-3.759-1.096-4.837-1.23a55 55 0 0 0-2.106-.166c-1.516-.1-1.67-.092-2.285.112-.877.292-1.725.875-2.047 1.424-.409.697-.61 2.434-.551 4.772.041 1.816.066 1.986.48 3.553 1.211 4.596 2.94 8.424 6.455 14.258 1.34 2.228 2.423 3.97 2.464 3.974.009 0 .318-.417.681-.93zm74.821-1.237c4.153-6.97 6.075-11.082 7.178-15.373.802-3.125.994-5.413.584-7-.355-1.383-1.216-2.608-2.16-3.067-.88-.428-2.39-.625-3.73-.478-2.316.28-4.59.832-6.776 1.646-.844.32-.82.286-2.428 3.332a702 702 0 0 1-3.149 5.85c-1.128 2.083-2.055 3.816-2.055 3.858s.68.775 1.511 1.625c1.609 1.641 5.983 6.899 8.285 9.957.76 1.008 1.42 1.797 1.462 1.75.046-.05.623-.992 1.278-2.095z"/></g><defs><clipPath id="a"><path fill="#fff" d="M0 0h100v100H0z"/></clipPath></defs></g></svg>