<svg xmlns="http://www.w3.org/2000/svg" fill="none" viewBox="0 0 512 512"><g transform="translate(30.72 30.72) scale(4.506)"><g clip-path="url(#a)"><path fill="#d1a41a" d="M17.303 61.177a63 63 0 0 0 3.795 4.255c-4.052 1.218-6.708 3.483-8.364 5.482-2.622 3.164-4.01 7.342-3.69 10.928H2.067c1.399-3.037 6.985-11.809 15.237-20.664m80.82 22.567H89.64C70.18 73.59 53.094 66.428 34.944 64.864q.056-3.791 1.352-8.572l-1.672-.45q-1.328 4.912-1.406 8.89a86 86 0 0 0-5.717-.187c-1.625 0-3.109.15-4.462.411a61 61 0 0 1-4.543-5.04c8.37-8.717 22.159-16.605 34.159-19.572 3.378 11.231 10.632 18.927 19.434 24.104q.968-.551 1.902-1.16l15.357 16.531.671-.057c4.194-.36 6.578 1.914 7.208 2.622.465.515.742.988.896 1.36"/><path fill="#ffdc76" d="M90.631 28.447c.312 15.256-7.471 27.399-18.37 33.625-18.495-9.212-21.978-32.56-18.826-45.082.877 4.79 2.472 7.792 5.916 9.264 7.51-2.149 17.847-2.318 25.46-.22 3.173-2.305 4.402-5.83 5.075-8.91.838 3.583.742 11.323.745 11.323"/><path fill="#000" d="m38.357 45.506 5.75-2.614 2.82 8.361zm-5.854 3.03 3.347-1.985 3.03 5.225zm-6.48 4.285 2.927-2.195 1.463 5.228zm51.74 13.8-2.092-1.987-2.717 4.182zm3.87 4.597-1.676-1.777-4.389 3.344zM74.63 23.973l-5.331.104 3.24 7.108zM53.408 37.456l-.523-3.031 5.125 2.718zm1.253 4.495-.522-1.985 3.136 1.253zm35.332-3.24.735-2.3-4.182 1.777zm-1.568 4.704.627-1.881-3.24.94z"/><path fill="#000" d="M51.201 49.378H61.29v1.245H51.2zm0-2.99H61.29v1.246H51.2zm30.805 2.99h10.088v1.245H82.006zm0-2.99h10.088v1.246H82.006zm-3.555-7.383H62.01v-1.122h5.115c.63-2.698.755-5.276-.004-6.583-.325-.555-.774-.815-1.413-.815-2.925 0-4.133 3.093-4.183 3.225v-.001l-1.049-.394c.06-.162 1.524-3.95 5.232-3.95 1.035 0 1.858.474 2.38 1.372.927 1.591.818 4.345.19 7.146h8.976c1.193-3.504 3.683-5.156 7.844-5.156v1.12c-4.51 0-5.773 1.913-6.675 4.036h4.898l-.011 1.116-4.861.005m.737 5.535h.008zm0 0h.008z"/><path fill="#000" d="M79.188 44.54h.008c-1.33-1.962-1.752-3.635-1.195-5.54l-1.143.005c-.397 1.269-.238 3.18.743 4.82H66.194c.694-1.39 1.337-3.085 1.807-4.82h-1.16c-.52 1.84-1.247 3.66-2.066 5.103l-.265.467 6.4 4.028-3.602 2.375.617.936 4.027-2.655 4.349 2.837.596-.948-4.03-2.494s6.027-3.915 6.327-4.107zm-7.25 3.386-4.734-2.98 9.253.002z"/><path fill="#000" d="M92.511 27.094c-.007-1.95-.614-10.186-1.73-12.454-3.025 1.15-8.529 4.875-9.775 8.682-5.97-.89-12.7-.786-18.597.235-.984-4.098-5.928-7.233-9.657-9-1.574 2.654-2.27 8.81-2.094 13.176l-.02.014c.692 18.335 9.686 29.75 21.447 36.669 12.102-6.914 20.746-20.394 20.411-37.33zM82.442 23.56l.132.024zm-.753-.13.32.055zm8.94 4.988c.31 15.256-7.473 27.398-18.37 33.625-18.495-9.215-21.98-32.56-18.825-45.082.877 4.787 2.468 7.79 5.917 9.262 7.508-2.148 17.844-2.318 25.458-.219 3.172-2.306 4.403-5.83 5.075-8.909.84 3.583.742 11.321.745 11.323"/><path fill="#000" d="M98.519 81.198c-1.9-2.125-5.62-3.13-8.729-3.056-2.205-2.625-14.992-16.09-14.992-16.09l-.886 1.116 15.438 16.62.67-.058c4.194-.36 6.578 1.915 7.21 2.62.462.519.742.99.893 1.362H89.64C70.177 73.555 53.092 66.395 34.941 64.834c.04-2.525.49-5.385 1.352-8.57l-1.669-.453q-1.329 4.914-1.407 8.892a87 87 0 0 0-5.715-.19c-1.629 0-3.111.151-4.464.414a61 61 0 0 1-4.544-5.04c8.43-8.782 22.351-16.72 34.412-19.638l-.391-1.69C39.526 41.69 25.309 50.217 17.387 58.455c-3.676-4.963-5.135-9.035-5.568-12.12-.547-3.898.382-7.473 2.69-10.34 3.612-4.487 8.744-4.804 14.02-3.916-.102.834.008 1.63.341 2.123 1.395 2.061 8.896 2.785 13.373.788-3.304-4.63-9.996-6.89-11.85-5.985-.614.3-1.078.852-1.395 1.494-1.825-.326-3.636-.57-4.96-.56-4.654.035-8.211 1.661-10.876 4.972-2.615 3.248-3.672 7.281-3.057 11.664.583 4.152 2.639 8.567 6.083 13.145q-.858.922-1.658 1.816C6.135 70.93-.002 81.005-.002 82.674v.865h11.075l-.193-1.026c-.625-3.306.623-7.437 3.182-10.526 1.607-1.939 4.267-4.152 8.444-5.172 3.714 3.625 8.447 7.474 13.714 11.188h8.232v-.865c0-.976-.485-1.83-1.363-2.404-1.3-.85-3.308-.968-5.152-.339-1.757-1.957-2.743-4.572-2.956-7.82 17.863 1.58 34.95 8.795 54.228 18.866h10.608l.14-.695c.198-.99-.342-2.316-1.443-3.548zM12.734 70.881c-2.62 3.163-4.01 7.34-3.69 10.926h-6.98c1.403-3.034 6.987-11.805 15.239-20.664a63 63 0 0 0 3.795 4.256c-4.051 1.218-6.707 3.482-8.364 5.482"/></g><defs><clipPath id="a"><path fill="#fff" d="M0 0h100v100H0z"/></clipPath></defs></g></svg>