<svg xmlns="http://www.w3.org/2000/svg" fill="none" viewBox="0 0 512 512"><g transform="translate(30.72 30.72) scale(4.506)"><g clip-path="url(#a)"><path fill="#f22f46" d="M37.5 72.116c5.31 0 9.615-4.305 9.615-9.616a9.615 9.615 0 0 0-9.615-9.615 9.615 9.615 0 0 0 0 19.23m0-25c5.31 0 9.615-4.306 9.615-9.616s-4.305-9.615-9.615-9.615a9.615 9.615 0 0 0-9.615 9.615 9.615 9.615 0 0 0 9.615 9.615m25 25a9.615 9.615 0 1 0-9.615-9.616 9.615 9.615 0 0 0 9.615 9.615m0-25a9.615 9.615 0 0 0 9.615-9.616 9.615 9.615 0 0 0-9.615-9.615 9.615 9.615 0 0 0-9.615 9.615 9.615 9.615 0 0 0 9.615 9.615M50 0c27.083 0 50 22.917 50 50s-22.917 50-50 50S0 77.083 0 50 22.917 0 50 0m0 13.462c-20.122 0-36.538 15.848-36.538 35.867S29.878 86.539 50 86.539s36.539-17.191 36.539-37.21S70.122 13.462 50 13.462"/></g><defs><clipPath id="a"><path fill="#fff" d="M0 0h100v100H0z"/></clipPath></defs></g></svg>