<svg xmlns="http://www.w3.org/2000/svg" fill="none" viewBox="0 0 512 512"><g transform="translate(31.161 30.72) scale(4.514)"><path fill="#f49700" d="M75.058 68.67c-1.359.418-2.774.62-4.195.602-12.657 0-31.239-44.224-31.239-58.945 0-5.407 1.285-7.22 3.098-8.77C27.231 3.36 8.65 9.047 2.703 16.312 1.46 18.073.641 20.91.641 24.523c0 22.953 24.523 75.116 41.802 75.116 8.008 0 21.5-13.116 32.596-30.975M66.983 0C82.983 0 99 2.582 99 11.615c0 18.329-11.62 40.539-17.557 40.539-10.58 0-23.77-29.434-23.77-44.156C57.672 1.288 60.245 0 66.96 0"/></g></svg>