<svg xmlns="http://www.w3.org/2000/svg" fill="none" viewBox="0 0 512 512"><g transform="translate(30.72 30.72) scale(4.506)"><g clip-path="url(#a)"><path fill="#000" d="M99.936-.001H0v99.936h99.936z"/><path fill="#fff" d="M99.936-.001H0v99.936h99.936z"/><path fill="#ecdc5a" d="M99.668 100.004H.077q-.006-.014-.008-.027V.073H100v99.931zM82.485 65.377c-.16-.182-.31-.372-.48-.545-1.876-1.907-4.24-2.305-6.755-2.078-2.182.197-4.05 1.157-5.666 2.623-.088.079-.183.15-.309.252 0-.205.009-.354 0-.501-.048-.725-.389-1.275-1.033-1.605-.632-.324-1.279-.293-1.875.088-.663.423-.889 1.074-.888 1.84.005 5.731.002 11.463.002 17.194 0 .358-.007.716.002 1.073.022.92.51 1.649 1.25 1.882 1.3.41 2.54-.492 2.542-1.863q.007-5.898 0-11.797c0-1.108.28-2.124.986-2.988 1.646-2.015 3.778-2.866 6.356-2.572 1.256.143 2.27.726 2.967 1.802.653 1.01.876 2.15.885 3.324.025 3.24.016 6.481.019 9.722.001.888-.014 1.776.004 2.664.027 1.388 1.52 2.248 2.741 1.588.778-.42 1.054-1.106 1.053-1.953-.005-3.679.006-7.358-.008-11.036a23 23 0 0 0-.135-2.62c-.188-1.607-.634-3.135-1.658-4.494m-23.923-2.054c-.228.016-.466-.003-.683.055-.905.24-1.404.96-1.405 2.005-.002 3.749.006 7.497-.007 11.245-.002.62-.035 1.25-.144 1.858-.289 1.605-1.15 2.808-2.694 3.417-1.506.594-3.055.614-4.614.191-1.182-.32-2.088-.999-2.68-2.076a5.3 5.3 0 0 1-.646-2.486c-.031-1.764-.02-3.529-.023-5.293-.002-2.284.003-4.568-.002-6.851-.003-1.125-.75-2.008-1.727-2.065-1.21-.071-2.064.753-2.065 2.015-.004 3.853-.01 7.705.002 11.557.005 1.377.153 2.735.677 4.031.995 2.46 2.85 3.944 5.341 4.667 1.567.455 3.182.482 4.8.292 1.25-.147 2.444-.488 3.533-1.12 2.57-1.495 3.878-3.817 3.96-6.718.122-4.252.073-8.51.077-12.765.002-1.068-.626-1.776-1.7-1.96"/><path fill="#111827" d="M82.498 65.397c1.011 1.339 1.457 2.867 1.646 4.474.101.867.13 1.746.134 2.62.014 3.678.003 7.357.008 11.036 0 .847-.275 1.533-1.053 1.953-1.222.66-2.714-.2-2.741-1.589-.018-.887-.003-1.776-.004-2.664-.003-3.24.006-6.48-.019-9.721-.008-1.174-.232-2.314-.885-3.324-.696-1.076-1.711-1.66-2.967-1.802-2.578-.294-4.71.557-6.356 2.572-.706.864-.987 1.88-.986 2.987q.007 5.9 0 11.798c-.002 1.37-1.241 2.272-2.541 1.863-.741-.233-1.229-.962-1.251-1.882-.009-.358-.001-.715-.001-1.073 0-5.731.002-11.463-.003-17.195 0-.765.226-1.416.888-1.84.597-.38 1.243-.411 1.875-.087.645.33.985.88 1.032 1.604.01.148.001.297.001.502.126-.103.221-.173.309-.252 1.615-1.466 3.484-2.426 5.666-2.623 2.516-.227 4.879.17 6.755 2.078.17.172.32.363.493.565m-23.905-2.073c1.043.181 1.67.89 1.67 1.958-.005 4.255.044 8.513-.077 12.765-.083 2.9-1.39 5.223-3.961 6.717-1.089.632-2.284.974-3.533 1.12-1.618.191-3.233.163-4.8-.291-2.49-.723-4.346-2.208-5.34-4.667-.525-1.296-.673-2.654-.678-4.032-.011-3.852-.006-7.704-.002-11.556.001-1.262.855-2.086 2.065-2.015.977.057 1.724.94 1.727 2.064.005 2.284 0 4.568.002 6.851.002 1.765-.008 3.53.023 5.294.015.87.222 1.713.646 2.486.592 1.077 1.498 1.755 2.68 2.076 1.559.423 3.108.403 4.614-.191 1.544-.61 2.405-1.812 2.694-3.418.11-.608.142-1.237.144-1.857.013-3.748.005-7.496.007-11.245 0-1.045.5-1.765 1.405-2.005.217-.058.455-.039.714-.054"/></g><defs><clipPath id="a"><path fill="#fff" d="M0 0h100v100H0z"/></clipPath></defs></g></svg>