<svg xmlns="http://www.w3.org/2000/svg" fill="none" viewBox="0 0 512 512"><g transform="translate(31.161 30.72) scale(4.514)"><g clip-path="url(#a)"><path fill="url(#b)" d="M2.999 47.93c-.043.77-.064 2.588-.064 3.38 0 26.71 20.98 48.353 46.856 48.353S96.647 78.02 96.647 51.31c0-.792-.021-1.562-.064-2.353z"/><path fill="#007aff" d="M54.175 93.846c23.48 0 42.515-19.034 42.515-42.515 0-23.48-19.034-42.515-42.515-42.515-23.48 0-42.515 19.035-42.515 42.515s19.035 42.515 42.515 42.515"/><path fill="url(#c)" d="M78.983 9.094c-7.785-5.667-17.964-9.43-28.23-9.43-26.41 0-47.797 22.09-47.797 49.315h8.79c.791-19.675 17.066-35.843 37.168-35.843a37.2 37.2 0 0 1 22.306 7.4 6.93 6.93 0 0 0 9.517-1.818c2.16-3.165 1.39-7.464-1.754-9.624"/><path fill="url(#d)" d="M96.134 58.132 76.502 38.5 63.95 37.43H52.464L51.31 52.358 35.035 36.083l-3.956 5.689 1.475 24.486L59.736 93.44c18.627-2.417 33.426-16.895 36.398-35.308" opacity=".5"/><path fill="#fff" d="M50.198 34.522V56.25h-.022a7.21 7.21 0 0 1-7.207 7.207 7.21 7.21 0 0 1-7.207-7.207V38.222a3.623 3.623 0 0 0-3.614-3.614 3.61 3.61 0 0 0-3.614 3.614v18.07c0 7.956 6.458 14.415 14.435 14.415s14.435-6.459 14.435-14.414V41.836h10.822a3.58 3.58 0 0 1 3.571 3.571 3.58 3.58 0 0 1-3.571 3.572h-3.443c-2.01 0-3.657 1.625-3.657 3.635a3.64 3.64 0 0 0 3.528 3.636l7.678 12.703a3.66 3.66 0 0 0 3.144 1.796c2.01 0 3.656-1.625 3.656-3.635 0-.813-.278-1.583-.727-2.181l-5.795-9.581c3.807-1.69 6.458-5.496 6.458-9.923 0-6.01-4.876-10.864-10.885-10.864zm24.828-16.168a3.85 3.85 0 1 0 0-7.699 3.85 3.85 0 0 0 0 7.7"/><path fill="#fff" d="M72.867 17.712S59.586 5.993 42.777 8.24c-6.373 1.026-11.484 2.95-16.446 5.923s2.224-2.074 4.363-3.229c2.16-1.155 12.211-7.4 28.913-4.876C76.31 8.581 78.15 12.302 78.15 12.302z"/></g><defs><linearGradient id="b" x1="2.935" x2="96.647" y1="73.797" y2="73.797" gradientUnits="userSpaceOnUse"><stop stop-color="#ff3b30"/><stop offset="1" stop-color="#f7951e"/></linearGradient><linearGradient id="c" x1="2.956" x2="81.96" y1="24.321" y2="24.321" gradientUnits="userSpaceOnUse"><stop stop-color="#ff3b30"/><stop offset="1" stop-color="#f7951e"/></linearGradient><linearGradient id="d" x1="41.648" x2="84.267" y1="39.498" y2="82.118" gradientUnits="userSpaceOnUse"><stop/><stop offset="1" stop-opacity="0"/></linearGradient><clipPath id="a"><path fill="#fff" d="M0 0h100v100H0z"/></clipPath></defs></g></svg>