<svg xmlns="http://www.w3.org/2000/svg" fill="none" viewBox="0 0 512 512"><g transform="translate(15.701 15.701) scale(4.806)"><path fill="#bad05e" d="M6.94 62.999c-1.718-.469-2.812-1.719-3.437-3.984-.234-.938-.313-1.328-.313-7.97l-.078-6.952h4.375v5.625c0 3.281.078 6.093.157 6.64.312 2.11 1.171 3.204 2.578 3.204 1.328 0 2.265-1.016 2.89-3.204.157-.703.235-1.562.313-6.562l.078-5.781h4.375v8.828c0 4.843 0 9.062.078 9.297l.078.937h-4.297l-.078-1.094c0-.39-.078-1.171-.078-1.796v-1.094l-.547 1.093c-.312.626-.781 1.329-1.015 1.563-1.172 1.25-3.282 1.719-5.079 1.25"/><path fill="#010101" d="M56.628 62.999c-3.516-.547-5.547-2.266-6.562-5.469-.235-.781-.313-1.406-.157-1.406 0 0 .938-.156 2.032-.312 1.093-.157 2.03-.313 2.109-.391.078 0 .234.234.39.625.391 1.562 1.094 2.422 2.266 2.969.781.39 2.813.39 3.75.078.781-.313 1.563-1.172 1.797-1.953.234-.938.156-2.266-.156-2.97-.547-1.25-1.328-1.718-4.61-2.812-2.968-.937-3.75-1.406-4.843-2.421-1.407-1.407-2.032-3.36-1.875-5.625.234-3.438 2.031-5.547 5.234-6.25 1.328-.313 4.14-.313 5.313 0 2.03.468 3.28 1.406 4.14 3.046.547 1.016 1.016 2.735.938 2.891-.078.078-3.828.703-4.297.703l-.313-.781c-.312-1.094-.78-1.797-1.562-2.188-.469-.312-.781-.312-1.719-.312-1.875 0-2.812.703-3.203 2.344-.312 1.64.234 3.047 1.484 3.75.391.234 1.797.78 3.125 1.172 2.891.937 3.985 1.484 5 2.5.86.859 1.641 2.265 1.797 3.437.156 1.016.156 2.969-.078 4.063-.547 2.734-2.5 4.609-5.312 5.234-1.094.156-3.672.312-4.688.078m21.25.078c-3.203-.469-5.625-2.578-6.875-6.015-1.25-3.282-1.562-8.204-.625-12.344.86-4.14 3.203-6.875 6.563-7.735 1.171-.312 3.515-.312 4.53 0 2.345.625 4.22 2.188 5.313 4.61.782 1.562.86 1.406-1.328 2.187-1.094.39-2.031.703-2.11.703-.077 0-.234-.234-.312-.468-.468-1.407-1.406-2.578-2.5-3.047-.859-.39-2.265-.313-3.047.078-2.03 1.016-2.968 3.906-2.968 8.75 0 3.516.468 5.781 1.562 7.5.938 1.484 1.953 1.953 3.672 1.875 1.328-.078 2.344-.547 3.281-1.406l.625-.625v-4.22h-4.375v-3.437h8.75v9.22l-.547.624c-1.25 1.64-3.359 2.969-5.39 3.438-1.172.312-3.203.468-4.219.312"/><path fill="#000" d="M23.035 50.342C21.628 43.467 20.3 37.686 20.3 37.53l-.078-.703h4.61c.078 0 .624 3.828 1.406 7.968s1.64 8.907 1.875 10.547c.234 1.64.468 3.047.468 3.047l5.079-18.125h2.03l5.235 18.047c0 .078.235-1.016.39-2.266.157-1.25 1.017-6.015 1.876-10.547l1.562-8.671h4.688l-.078.703c0 .234-1.25 5.937-2.735 12.734s-2.578 12.969-2.656 12.969h-5.625l-3.672-13.906-3.515 13.906h-5.547z"/><path fill="#010101" d="M92.253 49.952V36.827h4.61v26.328h-4.61z"/><path fill="#bad05e" d="M65.158 41.192a1.63 1.63 0 0 1-1.628 1.627 1.63 1.63 0 0 1-1.627-1.627 1.633 1.633 0 0 1 1.627-1.628c.88-.032 1.627.716 1.627 1.628"/><path fill="#010101" d="M64.214 41.192a.67.67 0 0 1-.684.684.667.667 0 0 1-.683-.684c0-.39.293-.683.683-.683a.69.69 0 0 1 .684.683"/></g></svg>