<svg xmlns="http://www.w3.org/2000/svg" fill="none" viewBox="0 0 512 512"><g transform="translate(16.698 16.231) scale(4.786)"><mask id="a" width="80" height="6" x="10" y="31" maskUnits="userSpaceOnUse" style="mask-type:luminance"><path fill="#fff" d="M10.938 31.25h78.125v5.469H10.938z"/></mask><g mask="url(#a)"><mask id="b" width="96" height="84" x="2" y="8" maskUnits="userSpaceOnUse" style="mask-type:luminance"><path fill="#fff" d="m97.058 17.06-8.554 14.97-2.408 4.28h-5.773L72.94 50.268c2.667 11.675-3.84 23.495-15.133 27.484L50 91.924l-7.755-14.172-.802-.265c-10.88-4.282-16.995-15.875-14.383-27.274L19.732 36.31h-5.773l-2.463-4.278L2.941 17.06H27.54l4.013 7.969.214.106.052-.107c.729-9.472 8.627-16.787 18.127-16.787 9.503 0 17.401 7.315 18.13 16.787l-.106.107-.055-.107 4.547-7.969z"/></mask><g mask="url(#b)"><path fill="#9e9e9e" d="m81.818 31.496-2.299 4.813h6.522l.324-.534 2.404-4.279h-7.003zm-63.742 0H11.23l2.729 4.813h6.47z"/></g></g><mask id="c" width="96" height="77" x="2" y="16" maskUnits="userSpaceOnUse" style="mask-type:luminance"><path fill="#fff" d="M2.344 16.406h95.312v75.782H2.344z"/></mask><g mask="url(#c)"><mask id="d" width="96" height="84" x="2" y="8" maskUnits="userSpaceOnUse" style="mask-type:luminance"><path fill="#fff" d="m97.058 17.06-8.554 14.97-2.408 4.28h-5.773L72.94 50.268c2.667 11.675-3.84 23.495-15.133 27.484L50 91.924l-7.755-14.172-.802-.265c-10.88-4.282-16.995-15.875-14.383-27.274L19.732 36.31h-5.773l-2.463-4.278L2.941 17.06H27.54l4.013 7.969.214.106.052-.107c.729-9.472 8.627-16.787 18.127-16.787 9.503 0 17.401 7.315 18.13 16.787l-.106.107-.055-.107 4.547-7.969z"/></mask><g mask="url(#d)"><path fill="#424242" d="m97.058 17.06-8.554 14.972h-5.99L72.94 50.27 50 91.926 27.06 50.215l-9.573-18.183h-5.99L2.94 17.06h24.6l4.013 7.97 13.046 23.793 5.347 9.787 5.136-9.787 12.833-23.795 4.547-7.968"/></g></g><mask id="e" width="96" height="2" x="2" y="16" maskUnits="userSpaceOnUse" style="mask-type:luminance"><path fill="#fff" d="M2.344 16.406h95.312v1.563H2.344z"/></mask><g mask="url(#e)"><mask id="f" width="96" height="84" x="2" y="8" maskUnits="userSpaceOnUse" style="mask-type:luminance"><path fill="#fff" d="m97.058 17.06-8.554 14.97-2.408 4.28h-5.773L72.94 50.268c2.667 11.675-3.84 23.495-15.133 27.484L50 91.924l-7.755-14.172-.802-.265c-10.88-4.282-16.995-15.875-14.383-27.274L19.732 36.31h-5.773l-2.463-4.278L2.941 17.06H27.54l4.013 7.969.214.106.052-.107c.729-9.472 8.627-16.787 18.127-16.787 9.503 0 17.401 7.315 18.13 16.787l-.106.107-.055-.107 4.547-7.969z"/></mask><g mask="url(#f)"><path fill="#fff" fill-opacity=".2" d="M27.839 17.594H3.24l-.299-.534H27.54zm44.622-.534-.296.534h24.588l.305-.534z"/></g></g><mask id="g" width="74" height="58" x="13" y="35" maskUnits="userSpaceOnUse" style="mask-type:luminance"><path fill="#fff" d="M13.281 35.156H86.72v57.032H13.28z"/></mask><g mask="url(#g)"><mask id="h" width="96" height="84" x="2" y="8" maskUnits="userSpaceOnUse" style="mask-type:luminance"><path fill="#fff" d="m97.058 17.06-8.554 14.97-2.408 4.28h-5.773L72.94 50.268c2.667 11.675-3.84 23.495-15.133 27.484L50 91.924l-7.755-14.172-.802-.265c-10.88-4.282-16.995-15.875-14.383-27.274L19.732 36.31h-5.773l-2.463-4.278L2.941 17.06H27.54l4.013 7.969.214.106.052-.107c.729-9.472 8.627-16.787 18.127-16.787 9.503 0 17.401 7.315 18.13 16.787l-.106.107-.055-.107 4.547-7.969z"/></mask><g mask="url(#h)"><path fill="#263238" fill-opacity=".2" d="m86.386 35.763-.31.547h-5.809l-7.342 13.93L50 91.925 27.075 50.228 19.748 36.31h-5.814l-.299-.535h6.113l.284.535 7.043 13.384L50 91.39l22.925-41.684 7.349-13.943"/></g></g><mask id="i" width="20" height="46" x="40" y="19" maskUnits="userSpaceOnUse" style="mask-type:luminance"><path fill="#fff" d="M40.625 19.531h18.75v45.313h-18.75z"/></mask><g mask="url(#i)"><mask id="j" width="96" height="84" x="2" y="8" maskUnits="userSpaceOnUse" style="mask-type:luminance"><path fill="#fff" d="m97.058 17.06-8.554 14.97-2.408 4.28h-5.773L72.94 50.268c2.667 11.675-3.84 23.495-15.133 27.484L50 91.924l-7.755-14.172-.802-.265c-10.88-4.282-16.995-15.875-14.383-27.274L19.732 36.31h-5.773l-2.463-4.278L2.941 17.06H27.54l4.013 7.969.214.106.052-.107c.729-9.472 8.627-16.787 18.127-16.787 9.503 0 17.401 7.315 18.13 16.787l-.106.107-.055-.107 4.547-7.969z"/></mask><g mask="url(#j)"><path fill="#fff" d="M59.092 55.56A9.09 9.09 0 0 1 50 64.65a9.092 9.092 0 1 1 9.091-9.091M58.02 27.752a8.02 8.02 0 1 1-16.04 0 8.02 8.02 0 0 1 8.02-8.02 8.02 8.02 0 0 1 8.02 8.02"/></g></g><mask id="k" width="50" height="73" x="25" y="7" maskUnits="userSpaceOnUse" style="mask-type:luminance"><path fill="#fff" d="M25.781 7.813H74.22v71.875H25.78z"/></mask><g mask="url(#k)"><mask id="l" width="96" height="84" x="2" y="8" maskUnits="userSpaceOnUse" style="mask-type:luminance"><path fill="#fff" d="m97.058 17.06-8.554 14.97-2.408 4.28h-5.773L72.94 50.268c2.667 11.675-3.84 23.495-15.133 27.484L50 91.924l-7.755-14.172-.802-.265c-10.88-4.282-16.995-15.875-14.383-27.274L19.732 36.31h-5.773l-2.463-4.278L2.941 17.06H27.54l4.013 7.969.214.106.052-.107c.729-9.472 8.627-16.787 18.127-16.787 9.503 0 17.401 7.315 18.13 16.787l-.106.107-.055-.107 4.547-7.969z"/></mask><g mask="url(#l)"><path fill="#4285f4" d="M72.94 50.268a23.6 23.6 0 0 0-8.127-12.996 18.183 18.183 0 1 0-32.89-12.247c-.419 4.342.74 8.69 3.263 12.247a23.46 23.46 0 0 0-8.126 12.94 23.2 23.2 0 0 0-.59 5.346c0 9.95 6.205 18.503 14.973 21.928A23.6 23.6 0 0 0 50 79.09a23.477 23.477 0 0 0 22.94-28.823M50 20.263a7.488 7.488 0 0 1 0 14.975 7.488 7.488 0 0 1 0-14.975m0 43.852c-4.706 0-8.557-3.852-8.557-8.558a8.56 8.56 0 0 1 4.803-7.662 8.56 8.56 0 0 1 8.993.924 8.51 8.51 0 0 1 3.318 6.738A8.56 8.56 0 0 1 50 64.116"/></g></g><mask id="m" width="50" height="50" x="25" y="7" maskUnits="userSpaceOnUse" style="mask-type:luminance"><path fill="#fff" d="M25.781 7.813H74.22V56.25H25.78z"/></mask><g mask="url(#m)"><mask id="n" width="96" height="84" x="2" y="8" maskUnits="userSpaceOnUse" style="mask-type:luminance"><path fill="#fff" d="m97.058 17.06-8.554 14.97-2.408 4.28h-5.773L72.94 50.268c2.667 11.675-3.84 23.495-15.133 27.484L50 91.924l-7.755-14.172-.802-.265c-10.88-4.282-16.995-15.875-14.383-27.274L19.732 36.31h-5.773l-2.463-4.278L2.941 17.06H27.54l4.013 7.969.214.106.052-.107c.729-9.472 8.627-16.787 18.127-16.787 9.503 0 17.401 7.315 18.13 16.787l-.106.107-.055-.107 4.547-7.969z"/></mask><g mask="url(#n)"><path fill="#fff" fill-opacity=".2" d="M68.182 26.684v.269C68.032 17.03 59.945 9.036 50 9.036c-9.946 0-18.04 7.996-18.182 17.917v-.269c0-10.043 8.139-18.182 18.182-18.182s18.182 8.138 18.182 18.182M34.973 37.461a23.47 23.47 0 0 0-8.502 18.1v.268c.079-7.284 3.476-13.77 8.736-18.032l.248-.199-.248-.32-.234.213zm30.053 0-.234-.199-.248.336.248.217c5.267 4.275 8.664 10.748 8.736 18.02v-.268a23.4 23.4 0 0 0-8.502-18.076z"/></g></g><mask id="o" width="50" height="55" x="25" y="25" maskUnits="userSpaceOnUse" style="mask-type:luminance"><path fill="#fff" d="M25.781 25.781H74.22v53.907H25.78z"/></mask><g mask="url(#o)"><mask id="p" width="96" height="84" x="2" y="8" maskUnits="userSpaceOnUse" style="mask-type:luminance"><path fill="#fff" d="m97.058 17.06-8.554 14.97-2.408 4.28h-5.773L72.94 50.268c2.667 11.675-3.84 23.495-15.133 27.484L50 91.924l-7.755-14.172-.802-.265c-10.88-4.282-16.995-15.875-14.383-27.274L19.732 36.31h-5.773l-2.463-4.278L2.941 17.06H27.54l4.013 7.969.214.106.052-.107c.729-9.472 8.627-16.787 18.127-16.787 9.503 0 17.401 7.315 18.13 16.787l-.106.107-.055-.107 4.547-7.969z"/></mask><g mask="url(#p)"><path fill="#263238" fill-opacity=".2" d="M73.529 55.295v.265c0 12.995-10.535 23.533-23.53 23.533-12.994 0-23.528-10.538-23.528-23.532v-.265c.143 12.87 10.625 23.26 23.529 23.26s23.385-10.388 23.528-23.261M31.817 26.416v.269a18.1 18.1 0 0 0 3.637 10.91c.086-.055.171-.128.266-.192a18.13 18.13 0 0 1-3.903-10.987m36.364 0a18.13 18.13 0 0 1-3.904 10.987c.095.064.18.131.266.195 2.283-2.994 3.638-6.79 3.638-10.906z"/></g></g><path fill="url(#q)" d="m97.058 17.06-8.554 14.97-2.408 4.28h-5.828L72.94 50.268c2.667 11.675-3.84 23.495-15.133 27.484L50 91.924l-7.755-14.172-.802-.265c-10.88-4.282-16.995-15.875-14.383-27.274L19.732 36.31h-5.773l-2.463-4.278L2.941 17.06H27.54l4.013 7.969.214.106.052-.107c.729-9.472 8.627-16.787 18.127-16.787 9.503 0 17.401 7.315 18.13 16.787l-.106.107-.055-.107 4.547-7.969z"/><defs><radialGradient id="q" cx="0" cy="0" r="1" gradientTransform="rotate(.277 -3729.726 853.768)scale(99.1455 99.1456)" gradientUnits="userSpaceOnUse"><stop stop-color="#fff" stop-opacity=".102"/><stop offset="1" stop-color="#fff" stop-opacity="0"/></radialGradient></defs></g></svg>