<svg xmlns="http://www.w3.org/2000/svg" fill="none" viewBox="0 0 512 512"><g transform="translate(30.72 29.84) scale(4.506)"><g clip-path="url(#a)"><path fill="#00b4f0" d="M50.195 98.08a5.91 5.91 0 0 0 5.378-3.466l.14-.247 20.623-38.168a6.61 6.61 0 0 0-.006-6.614 6.63 6.63 0 0 0-5.735-3.296c-2.933 0-4.922 1.444-6.27 4.52L50.182 77.173l-14.13-26.324c-1.3-3.116-3.35-4.547-6.286-4.547a6.61 6.61 0 0 0-6.615 6.593 6.6 6.6 0 0 0 .875 3.304l20.648 38.22.091.171a5.91 5.91 0 0 0 5.43 3.542m.012-56.738a5.273 5.273 0 0 0 5.273-5.273v-1.3a5.016 5.016 0 0 1 5.014-4.987h27.011a12.83 12.83 0 0 0 12.845-12.83V7.121a4.94 4.94 0 0 0-3.684-4.743 4.94 4.94 0 0 0-5.539 2.328 4.9 4.9 0 0 0-.622 2.403v3.13a5.007 5.007 0 0 1-5.066 4.96h-24.4a10.555 10.555 0 0 0-10.39 8.975 15.6 15.6 0 0 0-.259 2.597h-.222a15.6 15.6 0 0 0-.26-2.597 10.555 10.555 0 0 0-10.388-8.96H14.896a5.015 5.015 0 0 1-5.014-4.95V7.16a4.9 4.9 0 0 0-.634-2.35A4.935 4.935 0 0 0 0 7.172v9.885c.006 7.086 5.759 12.824 12.845 12.817h27.011a5.016 5.016 0 0 1 5.014 4.987v1.3a5.273 5.273 0 0 0 5.274 5.274h.064z"/></g><defs><clipPath id="a"><path fill="#fff" d="M0 0h100v100H0z"/></clipPath></defs></g></svg>