<svg xmlns="http://www.w3.org/2000/svg" fill="none" viewBox="0 0 512 512"><g transform="translate(30.72 30.72) scale(4.506)"><g clip-path="url(#a)"><path fill="#141416" fill-rule="evenodd" d="M6.436 36.604 48.976 0l44.588 36.604v.262L50 71.9 6.436 36.866z" clip-rule="evenodd"/><path fill="#40c4ff" fill-rule="evenodd" d="M50.232 71.894h.257s.084 6.571 0 9.719c-.083 3.148-.258 0-.258 0L6.436 46.415v-9.719z" clip-rule="evenodd"/><path fill="#3dc4ff" fill-rule="evenodd" d="M50.232 81.35h.257v9.456l-.258.263L6.436 55.872v-9.72z" clip-rule="evenodd"/><path fill="#fff" fill-opacity=".25" fill-rule="evenodd" d="M50.232 81.35h.257v9.456l-.258.263L6.436 55.872v-9.72z" clip-rule="evenodd"/><path fill="#3dc4ff" fill-rule="evenodd" d="m50.232 90.808.257-.264v9.194l-.258.263L6.436 64.803V55.61z" clip-rule="evenodd"/><path fill="#fff" fill-opacity=".5" fill-rule="evenodd" d="m50.232 90.808.257-.264v9.194l-.258.263L6.436 64.803V55.61z" clip-rule="evenodd"/><path fill="#e040fb" fill-rule="evenodd" d="M49.908 71.894v9.719l43.656-35.198v-9.719z" clip-rule="evenodd"/><path fill="#e040fb" fill-rule="evenodd" d="M49.908 81.35v9.72l43.656-35.198v-9.72z" clip-rule="evenodd"/><path fill="#fff" fill-opacity=".25" fill-rule="evenodd" d="M49.908 81.35v9.72l43.656-35.198v-9.72z" clip-rule="evenodd"/><path fill="#e040fb" fill-rule="evenodd" d="M49.908 90.807V100l43.656-34.935v-9.456z" clip-rule="evenodd"/><path fill="#fff" fill-opacity=".5" fill-rule="evenodd" d="M49.908 90.807V100l43.656-34.935v-9.456z" clip-rule="evenodd"/><path fill="#fff" d="M35.662 23.33s20.582.654 26.054 5.339 6.247 12.933 1.732 18.425c-4.516 5.49-12.611 6.143-18.083 1.458S35.662 23.33 35.662 23.33"/></g><defs><clipPath id="a"><path fill="#fff" d="M0 0h100v100H0z"/></clipPath></defs></g></svg>