<svg xmlns="http://www.w3.org/2000/svg" fill="none" viewBox="0 0 512 512"><g transform="translate(30.72 30.72) scale(4.506)"><g clip-path="url(#a)"><path fill="#782a91" d="M13.186 0h73.628A13.157 13.157 0 0 1 100 13.186v73.628A13.154 13.154 0 0 1 86.814 100H13.186A13.154 13.154 0 0 1 0 86.814V13.186A13.156 13.156 0 0 1 13.186 0"/><path fill="#fff" d="M0 20.555v4.71L20.766 72.43l2.97 6.747h5.833l-.011-.142a13.5 13.5 0 0 1 8.489-12.504L53.33 33.083l11.864 16.669-13.43 18.965a13.5 13.5 0 0 1 4.788 10.007h6.086l10.856-15.33 7.214-10.188 19.135-27.017v-5.633h-14.37L74.115 37.152 62.731 20.555H44.415l.032.046-15.741 34.447L13.52 20.556zm85.772 36.093-8.553 12.27 6.606 9.805h16.017V76.42zm-42.713 13.96a8.426 8.426 0 1 0 0 16.852 8.427 8.427 0 0 0 0-16.851"/></g><defs><clipPath id="a"><path fill="#fff" d="M0 0h100v100H0z"/></clipPath></defs></g></svg>