<svg xmlns="http://www.w3.org/2000/svg" fill="none" viewBox="0 0 512 512"><g transform="translate(30.72 30.72) scale(4.506)"><g clip-path="url(#a)"><path fill="#ac162c" d="M20.5 36.671C10.078 36.48 1.538 39.122.184 44.042c-1.303 4.74 4.42 10.291 13.272 14.088-3.977-3.22-5.91-6.836-4.82-10.033 2.114-6.192 14.754-8.463 28.235-5.072 8.086 2.033 14.694 5.977 19.01 9.877-1.958-5.172-11.453-12.546-24.528-15.074A64 64 0 0 0 20.5 36.671m-5.867 7.993 5.933 18.338h4.546l6.086-18.338h-4.159l-4.134 12.893h-.051L18.77 44.664zm37.605 0v1.818c1.556 1.39 2.79 2.804 3.649 4.168v-5.985zm-6.399 2.77v15.569h3.647V49.446a45 45 0 0 0-3.647-2.01m27.026 1.93c-.737.001-1.473.074-2.195.22a6.3 6.3 0 0 0-1.967.73 4.4 4.4 0 0 0-1.437 1.362c-.565.847-.592 1.275-.643 2.132v.002h3.648q.105-1.08.72-1.541.617-.464 1.695-.463.486 0 .912.064.424.065.744.258.322.192.514.54.192.346.193.937.025.564-.335.859-.36.297-.976.45-.615.155-1.411.231-.812.08-1.62.206-.823.13-1.63.346a4.6 4.6 0 0 0-1.437.655 3.3 3.3 0 0 0-1.029 1.169q-.399.733-.398 1.862 0 1.027.347 1.772c.219.482.549.904.964 1.233a4.05 4.05 0 0 0 1.437.719 6.5 6.5 0 0 0 1.772.231 8.3 8.3 0 0 0 2.414-.36 4.77 4.77 0 0 0 2.056-1.26q.027.334.09.655.066.32.167.63h3.699q-.258-.412-.36-1.234a14 14 0 0 1-.103-1.721v-6.91q0-1.206-.539-1.939a3.7 3.7 0 0 0-1.388-1.142 6.3 6.3 0 0 0-1.875-.552 15 15 0 0 0-2.028-.142m15.793 0q-1.155 0-2.26.527-1.104.525-1.797 1.682h-.077v-1.85h-3.467v13.279h3.647v-6.96q0-2.03.668-2.915t2.157-.886q1.31 0 1.824.81.513.807.513 2.452v7.499h3.647v-8.167q0-1.231-.219-2.247-.218-1.014-.757-1.72-.54-.706-1.477-1.105-.938-.398-2.402-.399m-48.88.36v6.96q0 2.028-.668 2.915-.667.887-2.157.886-1.31 0-1.823-.808-.514-.81-.514-2.453v-7.5h-3.648v8.168q0 1.233.218 2.247.218 1.015.758 1.721.538.706 1.476 1.092.938.384 2.402.384 1.156 0 2.26-.513 1.105-.513 1.8-1.67h.076v1.849h3.468V49.724zm21.296 0-4.597 4.776.01.515 5.05 7.987h4.418l-5.573-8.399 5.008-4.879zm-8.84 1.624v11.654h3.646v-8.659c-.941-1.148-2.48-2.345-3.646-2.995m22.812 5.157v1.361a7 7 0 0 1-.065.822 2.7 2.7 0 0 1-.346 1.014q-.28.501-.873.86-.59.36-1.67.36-.436 0-.847-.077a2 2 0 0 1-.718-.27 1.4 1.4 0 0 1-.489-.526q-.18-.334-.18-.822 0-.514.18-.847a1.64 1.64 0 0 1 .475-.553c.211-.152.446-.269.694-.346q.398-.127.81-.205.434-.078.873-.129.42-.049.834-.128.399-.077.745-.193.346-.117.577-.321m22.963 2.61c-1.115 0-2.004.865-2.004 1.944 0 1.101.889 1.967 2.004 1.967 1.124 0 1.99-.866 1.99-1.967 0-1.078-.865-1.944-1.99-1.944m-.001.39c.865 0 1.493.7 1.493 1.565 0 .854-.628 1.54-1.48 1.54-.878 0-1.518-.686-1.518-1.551 0-.853.64-1.553 1.505-1.553m-.012.57q-.376-.007-.747.059v1.943h.452v-.782h.213c.25 0 .367.095.402.308.06.225.095.403.154.474h.487c-.048-.07-.083-.19-.142-.486-.06-.261-.167-.403-.356-.474v-.023c.236-.071.403-.238.403-.45a.54.54 0 0 0-.19-.428c-.143-.082-.309-.142-.676-.142m-.036.32c.284 0 .415.118.415.297 0 .201-.202.284-.45.284h-.214v-.558a1 1 0 0 1 .25-.023"/></g><defs><clipPath id="a"><path fill="#fff" d="M0 0h100v100H0z"/></clipPath></defs></g></svg>