<svg xmlns="http://www.w3.org/2000/svg" fill="none" viewBox="0 0 512 512"><g transform="translate(30.72 30.72) scale(4.506)"><path fill="#dd2e44" d="M8.333 12.5a5.56 5.56 0 0 0-5.556 5.555c0 3.068 2.04 4.818 5.556 5.557 0 0 1.565.474 5.555 1.028V37.5H5.555A5.56 5.56 0 0 0 0 43.056a5.56 5.56 0 0 0 5.555 5.556h8.333v41.665a5.557 5.557 0 0 0 9.484 3.928A5.56 5.56 0 0 0 25 90.277V48.612h50v41.665a5.56 5.56 0 0 0 5.555 5.556 5.56 5.56 0 0 0 5.557-5.556V48.612h8.333A5.56 5.56 0 0 0 100 43.055a5.557 5.557 0 0 0-5.555-5.555h-8.333V24.64c3.99-.554 5.555-1.028 5.555-1.028 3.386-.781 5.556-2.49 5.556-5.556a5.56 5.56 0 0 0-5.556-5.556zM25 25.705c5.01.322 11.378.574 19.444.654V37.5H25zm50 0V37.5H55.556V26.36c8.066-.081 14.435-.333 19.444-.655"/><path fill="#292f33" d="M99.74 9.722c0 3.068-1.831 4.993-5.3 5.557 0 0-11.112 2.777-44.443 2.777-33.328 0-44.436-2.777-44.436-2.777C2.309 14.756.303 12.818.303 9.75c0-3.07-.586-8.361 2.48-8.361 0 0 11.108 5.554 47.214 5.554S97.214 1.39 97.214 1.39c3.07 0 2.525 5.264 2.525 8.332M30.555 93.056A5.56 5.56 0 0 1 25 98.612H13.89a5.56 5.56 0 0 1-5.556-5.555 5.56 5.56 0 0 1 5.554-5.556H25a5.56 5.56 0 0 1 5.555 5.555m61.11 0a5.56 5.56 0 0 1-5.554 5.556H75a5.56 5.56 0 0 1-5.555-5.555A5.56 5.56 0 0 1 75 87.5h11.111a5.56 5.56 0 0 1 5.555 5.555"/></g></svg>