<svg xmlns="http://www.w3.org/2000/svg" fill="none" viewBox="0 0 512 512"><g transform="translate(30.72 30.72) scale(4.506)"><path fill="#f16822" d="M85.19 20.336c-3.412-1.972-6.472-2.931-9.078-3.318-.68-1.487-2.346-3.233-5.732-5.166-11.111-6.345-22.216-.066-22.216-.066l-14.817 8.55 7.405 4.272 14.81-8.55s3.706-2.14 7.405 0c3.707 2.14 0 4.28 0 4.28l-14.809 8.55 7.405 4.273 14.823-8.56c.22-.126 3.806-2.066 7.392.008 3.706 2.14 0 4.273 0 4.273l-14.81 8.553 7.405 4.279 18.516-10.69s7.406-4.274-3.699-10.686z"/><path fill="#808285" d="M33.347 20.336s-3.706 2.141-3.706 6.414v21.355s0 4.28-3.706 2.14-3.706-6.412-3.706-6.412V22.477q0-.4.04-.78c.406-3.759 3.66-5.639 3.66-5.639l-7.406-4.272s-.008 0-.014.008c-.22.127-3.692 2.266-3.692 6.405v21.356s0 4.28-3.706 2.14-3.705-6.413-3.705-6.413V13.928c0-4.274 3.706-6.413 3.706-6.413l-7.406-4.28S0 5.375 0 9.647v21.357s0 12.83 11.11 19.242c3.407 1.966 5.767 2.12 7.406 1.393 1.64 2.62 4 5.193 7.406 7.16 11.11 6.41 11.11-6.413 11.11-6.413V31.03c0-4.279 3.706-6.412 3.706-6.412z"/><path fill="#bcbec0" d="M62.969 37.44s-3.707 2.14-3.707 6.413v21.356s0 4.278-3.706 2.139c-3.706-2.14-3.707-6.412-3.707-6.412l-7.404-4.28s0 12.832 11.111 19.243c11.112 6.414 11.112-6.412 11.112-6.412V48.133c0-4.273 3.705-6.413 3.705-6.413zm-18.511 2.188v8.55l7.405 4.273V43.9zm35.176 9.093c-2.778.02-5.556 1.625-5.556 7.957 0 12.664 11.112 19.241 11.112 19.241l3.706 2.14s3.705 2.14 3.705 6.412c0 4.28-3.705 2.14-3.705 2.14l-14.818-8.553v8.552l14.81 8.554S100 101.575 100 88.749c0-12.823-7.406-17.103-7.406-17.103l-7.404-4.272s-3.706-2.14-3.706-6.412c0-4.286 3.706-2.145 3.706-2.145v-.002L100 67.368v-8.551l-14.81-8.551s-2.778-1.564-5.556-1.545"/></g></svg>