<svg xmlns="http://www.w3.org/2000/svg" fill="none" viewBox="0 0 512 512"><g transform="translate(30.72 32.48) scale(4.506)"><path fill="#3498db" fill-rule="evenodd" d="M28.854 4.999c-2.7.006-5.344 1.543-6.704 3.888L1.004 45.719c-1.339 2.351-1.339 5.425 0 7.776L22.15 90.327c1.36 2.345 4.003 3.882 6.704 3.888h42.292c2.7-.006 5.344-1.543 6.704-3.888l21.146-36.832c1.339-2.351 1.339-5.425 0-7.776L77.85 8.887c-1.36-2.345-4.003-3.883-6.704-3.888zm.384 21.547a1 1 0 0 1 .177 0h7.295a.96.96 0 0 1 .797.475l12.375 22.111q.094.167.117.356a1 1 0 0 1 .118-.356l12.345-22.111a.96.96 0 0 1 .827-.475h7.295c.646.006 1.13.822.827 1.395L59.33 49.607l12.08 21.636c.331.577-.165 1.43-.827 1.425h-7.295a.97.97 0 0 1-.827-.505L50.117 50.052a1 1 0 0 1-.117-.356 1 1 0 0 1-.118.356L37.507 72.163a.96.96 0 0 1-.797.505h-7.295c-.663.005-1.158-.848-.827-1.425l12.08-21.636-12.08-21.666c-.29-.523.064-1.283.65-1.395" clip-rule="evenodd"/></g></svg>