<svg xmlns="http://www.w3.org/2000/svg" fill="none" viewBox="0 0 512 512"><g transform="translate(30.28 30.72) scale(4.506)"><g clip-path="url(#a)"><path fill="#40b3d8" d="M69.55 63.568c-.676-8.908-3.548-14.681-4.947-17.953-1.398-3.273-3.548-6.336-3.55-6.33-.004.013-1.936 10.423-5.409 17.955-.58 1.258-1.35 2.828-2.127 4.092-2.398 4.234-5.876 8.283-7.95 12.388-2.056 4.069-2.437 8.098-2.246 12.679.193 4.606 1.257 9.123 2.278 13.602 3.852-.83 7.203-2.253 10.103-4.07 7.632-4.785 12.242-12.437 13.553-20.68 0 0 .064-.336.093-.744.591-6.371.395-8.382.201-10.94"/><path fill="#83c933" d="M69.55 63.567c-.676-8.907-3.548-14.68-4.947-17.953-1.398-3.272-3.548-6.335-3.55-6.33l-.513-.764C49.286 22.723 27.704 14.836 9.469 22.146c-.878 11.074 4.255 30.126 22.984 35.44 7.571 2.33 13.634 1.725 21.065 3.746 0 0 7.552 2.633 11.946 6.58 1.977 1.776 3.956 4.112 3.857 6.89.626-6.613.424-8.636.228-11.234"/><path fill="#f18a2a" d="M61.371 30.013c-2.66-7.785-1.533-13.002 3.335-20.261C67.028 6.287 71.038 2.27 74.551 0c14.176 8.883 19.418 25.43 14.205 40.797C84.96 51.978 81.4 56.667 72.4 68.17c1.05-12.32-3.287-20.862-7.544-30.354-1.084-2.414-2.582-5.164-3.485-7.803"/><path fill="#7fb93c" d="M69.321 74.802c.1-2.779-1.88-5.115-3.856-6.89-4.395-3.947-11.947-6.58-11.947-6.58.777-1.264 1.547-2.835 2.127-4.093 3.473-7.531 5.404-17.94 5.408-17.955.002-.005 2.152 3.058 3.55 6.33s4.272 9.046 4.947 17.953c.196 2.598.397 4.623-.229 11.235"/></g><defs><clipPath id="a"><path fill="#fff" d="M0 0h100v100H0z"/></clipPath></defs></g></svg>