<svg xmlns="http://www.w3.org/2000/svg" fill="none" viewBox="0 0 512 512"><g transform="translate(30.72 30.72) scale(4.506)"><g clip-path="url(#a)"><path fill="#303846" d="M50 99.999c27.614 0 50-22.386 50-50s-22.386-50-50-50-50 22.385-50 50 22.386 50 50 50"/><path stroke="#97dccf" stroke-miterlimit="10" stroke-width="3.378" d="M50.405 70.675c3.987-6.96 4.257-15.744 0-23.176-4.256-7.433-12.094-11.554-20.067-11.554-3.987 6.96-4.257 15.743 0 23.176 4.256 7.364 12.027 11.554 20.067 11.554Z"/><path stroke="#97dccf" stroke-miterlimit="10" stroke-width="3.378" d="M49.595 70.675c7.973 0 15.743-4.122 20.067-11.554 4.257-7.433 3.987-16.217 0-23.176-7.973 0-15.743 4.121-20.067 11.554-4.257 7.432-3.987 16.216 0 23.176Z"/><path stroke="#97dccf" stroke-miterlimit="10" stroke-width="3.378" d="M50 69.863a23.17 23.17 0 0 0 11.554-20.067A23.17 23.17 0 0 0 50 29.728a23.17 23.17 0 0 0-11.554 20.068A23.17 23.17 0 0 0 50 69.863Z"/></g><defs><clipPath id="a"><path fill="#fff" d="M0 0h100v100H0z"/></clipPath></defs></g></svg>