<svg xmlns="http://www.w3.org/2000/svg" fill="none" viewBox="0 0 512 512"><g transform="translate(30.72 30.72) scale(4.506)"><g clip-path="url(#a)"><path fill="#68b604" d="M41.648 63.539c-6.627.023-13.254.114-19.882.114h-.953c9.157-12.858 18.188-25.03 27.281-37.494-.308-.02-.456-.089-.606-.089-14.345-.002-28.689-.023-43.034-.034-.504 0-.677.117-.673.648.025 2.965.013 5.924.013 8.888 0 .846 0 .844.857.844H26.43c.285 0 .572.04 1.01.07L0 73.924l.469.026c13.779 0 27.557-.003 41.336.014.562 0 .638-.227.635-.695a584 584 0 0 1 .008-8.976c.005-.625-.167-.757-.8-.754m57.567-36.867c-12.996.001-25.992-.016-38.988.025a17.8 17.8 0 0 0-4.316.55c-5.016 1.289-9.029 6.732-8.832 11.937.02.572.354.36.698.36H67.73c3.359 0 6.716.146 10.074.125 3.66-.022 7.328.126 10.978-.091 3.78-.224 6.797-1.975 8.881-5.205 1.4-2.172 2.02-4.583 2.328-7.115.083-.693-.36-.586-.775-.586M79.388 43.656c-6.582-.002-13.164-.007-19.745.002-2.12.003-4.163.416-6.03 1.438-4.343 2.381-6.012 6.366-6.525 11.029-.066.615.305.598.727.597 3.466-.005 6.93-.003 10.396-.003 1.177 0 2.354.017 3.53-.003 2.59-.044 5.195.055 7.763-.198 3.34-.332 6.056-1.959 7.987-4.756 1.518-2.198 2.278-4.67 2.542-7.315.077-.775.108-.791-.645-.791M66.2 60.565c-2.003.012-4.008-.02-6.011.016-.933.016-1.865.096-2.787.24-7.197 1.123-9.884 7.146-10.314 12.285-.039.46.126.613.586.603 1.197-.025 2.395-.008 3.594-.008l.004.065c1.628-.072 3.273-.029 4.884-.237 6.052-.778 10.672-6.239 10.626-12.425-.006-.46-.185-.542-.582-.54"/></g><defs><clipPath id="a"><path fill="#fff" d="M0 0h100v100H0z"/></clipPath></defs></g></svg>