<svg xmlns="http://www.w3.org/2000/svg" fill="none" viewBox="0 0 512 512"><g transform="translate(32.04 30.72) scale(4.506)"><g clip-path="url(#a)"><path fill="#000" d="M86.661 75.076 85.436 100H9.358A2.353 2.353 0 0 1 7 97.643v-.144a7.66 7.66 0 0 1 .966-3.728s3.367-6.027 43.728-77.974c3.504-6.25 3.741-11.305-7.13-11.305-10.873 0-22.445 3.793-26.836 21.147a2.34 2.34 0 0 1-2.278 1.759 2.35 2.35 0 0 1-2.35-2.473L14.325 0h70.39C77.469 3.324 71.08 7.556 65.702 12.654c-6.575 6.236-11.247 13.02-20.31 26.885a338 338 0 0 0-14.42 24.16 333 333 0 0 0-11.42 23.194c3.187-4.499 8.414-10.447 16.496-14.268 3.987-1.89 7.087-2.51 8.68-2.913 1.739-.447 3.642-1.146 5.69-2.228l-9.38 16.727c-3.504 6.25 1.254 11.305 12.126 11.305s24.478-3.792 28.868-21.146a2.34 2.34 0 0 1 2.279-1.76 2.35 2.35 0 0 1 2.35 2.473zm-63.634 6.02c-.353-.331 7.023-12.328 7.801-13.583 3.814-6.135 6.835-10.843 8.335-13.136 3.374-5.17 7.787-11.918 13.446-19.676 7.498-10.28 11.262-15.414 15.631-19.545C72.94 10.707 80.655 4.658 92.508.014a47.6 47.6 0 0 0-4.88 5.386c-6.67 8.565-8.407 16.806-9.756 21.362-4.938 16.655-20.158 36.114-33.857 40.21-1.6.475-9.474 2.71-13.915 6.877-2.833 2.66-4.888 4.983-5.717 6.028-.577.72-1.125 1.427-1.348 1.218z"/></g><defs><clipPath id="a"><path fill="#fff" d="M0 0h100v100H0z"/></clipPath></defs></g></svg>