<svg xmlns="http://www.w3.org/2000/svg" fill="none" viewBox="0 0 512 512"><g transform="translate(30.72 30.72) scale(4.506)"><path fill="#000" d="M65.626 96.875V100h18.75v-3.125zM62.5 90.623h-3.122v3.125H62.5zm3.125 6.251V93.75H62.5v3.125zm-6.247-9.376h-3.126v3.125h3.125zm6.248-12.499v3.125h3.124V75zm9.376 3.125V75h-3.125v3.125h-3.126v3.126h12.5v-3.125h-6.248M81.251 75v3.126h3.124V75zm9.376 18.75h3.126v-3.126h-3.125zm0 3.126V93.75l-6.252.001v3.126h6.25m-37.5 0h-12.5V100H62.5v-3.125zM34.376 100v-3.125H6.252V100zm9.377-12.502v-3.125H37.5v9.376h-3.125v3.126h6.25v-9.377zM21.878 34.372h3.125v-6.248h-3.125zm6.247 25.001v-6.25h-3.121v3.125h-9.378V81.25h18.75v-3.125H31.25v-3.126h-3.126v3.125H18.75V59.375h6.252V75h3.122V59.375m9.377-3.128v15.625h-3.125v6.25H37.5v-3.124h3.125V53.122H37.5zm0-12.499v-3.125h-3.125v3.125zm-6.252 0v3.125h3.127v-3.125H31.25m0 6.25v-3.125h-3.126v6.247h3.125V50M18.752 3.122v6.251h3.125V3.122zm-9.373 0h9.373V0h-12.5v37.497H3.127v59.376h3.125v-56.25h28.125V34.37H31.25v3.126h-3.125v-3.125h-3.122v3.125H18.75v-9.372h3.125v-6.252H18.75v-3.125h-3.124v18.75H9.377V3.121m15.625 12.502v-6.25h-3.126v6.25zm6.249 6.249h3.125v-6.248H31.25zm6.25 6.25h-3.125v6.248H37.5zm-9.375-6.25v6.251h3.124v-6.251zm-3.122-6.248v6.248h3.121v-6.248zM37.5 9.374h-3.125v6.25H37.5zm3.125 0V3.121H37.5v6.251zm56.25 59.373h-3.122l-.001 21.876h3.123zm-6.249-3.122v3.122h3.127l-.001-3.122zm0-18.75h3.126v-3.127h-3.125v3.125m3.125 0v9.374h3.123v-9.372h-3.123m-9.376 15.624v3.125h6.25V62.5zm-3.125-6.251h3.125v-3.125h-3.125zm3.125 0v3.125h9.377v-3.125zm-28.124 6.25V46.875h-3.125v9.373H50V50h-9.375v3.122h6.25v25.002h-3.122v6.248h3.122V81.25h6.25v6.248h3.126v-12.5h-3.126v3.125H50v-18.75h3.126V62.5h3.125m3.125 3.125V62.5h-3.125v3.125zm6.25-12.502H75V75h6.248v-3.125h-3.126V62.5h6.252v-3.125h-6.252v-6.251h3.125V50H65.626zm0 6.25v-6.25H62.5v12.503h-3.122v3.122H62.5v3.125h-6.248v3.126h9.374zm-9.374-18.749h3.125v-3.125h-6.25V0h-12.5v3.122H50v34.375h-6.247v-18.75h-3.126v3.126h-3.126v6.252h3.125v9.373H37.5v3.125h18.75m3.125 3.125H56.25v3.127h3.125zm0 0 3.122.001v-3.126h-3.12zm3.122-9.376h-3.122v3.126h3.122zm21.878 6.25v3.125h6.25v-3.125zm0-3.125H62.5v3.125h21.876zm0-3.126v3.126H87.5V34.37zm-3.126-6.248h-3.126v3.125h3.127zm0-6.251h3.126v-3.125h-6.25v3.125zm-6.247 6.253h3.123v-3.126h-3.122zm-9.377 0V25H56.25v9.374h3.125v-6.248h6.249m3.124 0h-3.124v6.248h12.498V31.25h-9.373zm-3.124-6.252V25H75v-3.125zM62.5 18.748h-3.122v3.125h6.248v-3.125zm6.251-3.123v3.122h9.373v-3.122zm0-6.252h-3.126v6.252h3.126v-6.25m-9.372-3.127h-3.126v12.499h3.125v-12.5m0-3.124v3.125h6.248V3.122zm18.747 0h3.126V0H65.625v3.122zm0 6.251V6.248H68.75v3.125zM87.5 25v-3.125h-3.126V25zm3.125 0H87.5l.001 9.374h3.125zM87.501 6.25V3.124H81.25V6.25zm3.125 0h-3.125v6.25H81.25V9.374h-3.125l-.001 6.251h12.502z"/><path fill="navy" d="M56.252 90.624v3.125h3.125v-3.125zm3.125 6.251H62.5V93.75h-3.122zm6.247-21.877h3.125v-3.125h-3.125zm-24.998 18.75v3.126h3.125V93.75zm6.246-3.125h-3.121v3.126h3.121zM50 93.748h3.126v-3.125H50zm3.126 0v3.126h3.124V93.75h-3.125M50 96.874v-3.126l-3.126.001v3.125zm0-40.626h3.125v-3.125H50zm-15.624 9.378h3.126V62.5h-3.125v3.125m3.125 3.123h-3.125v3.125H37.5zm-3.125-12.5v3.126H37.5V56.25zm31.249 9.378v3.122h3.125v-3.122zm0-9.378h3.125v-3.125h-3.125zm3.125 3.126h-3.125v3.127h3.125v-3.125m-12.498-12.5V43.75h-3.125v3.125zm3.125-3.125v-3.126h-3.125v3.125z"/><path fill="purple" d="M56.252 93.75v3.124h3.125V93.75zm-15.625-3.127v3.125h3.126v-3.125zm3.125 6.251h3.123V93.75h-3.122zm9.373-6.25v3.124h3.126v-3.125zM50 93.747v-3.125h-3.125v3.126zm0 0v3.127h3.126V93.75H50M37.5 53.122h3.125V50H37.5zm-3.125 12.502v3.122H37.5v-3.121zm0-9.376H37.5v-3.126h-3.125zm3.125 3.125h-3.125V62.5H37.5v-3.125m15.625-9.373h-3.127v3.121h3.127V50m12.5 15.625h3.125v-3.126h-3.125zm3.125 3.122h-3.125v3.125h3.125zm-3.125-12.5v3.126h3.125v-3.125z"/><path fill="#f0f" d="M71.876 74.998v-3.125H68.75v3.125zm-40.627-3.125h-3.125v3.125h3.125zm3.126 6.25V75H31.25v3.125zM50 84.372h3.125V81.25H50zm3.125 3.126H50v3.125h3.125zm-6.25-3.126v3.126H50V84.37zm0 3.126h-3.122v3.125h3.122zm-12.5-18.75H31.25v3.125h3.125zM31.25 62.5v3.125h3.125V62.5zm-3.126 6.247h3.126l-.001-3.122h-3.125zm3.125-9.373h-3.125V62.5h3.125zm0-6.251h-3.125v3.125h3.125zm3.126 6.25v-3.125h-3.126v3.125zm0-9.373H31.25v3.122h3.125zm0-3.126V50H37.5v-3.126zm18.75-3.125h-3.127v3.125h3.127zm-12.499 3.125V43.75H37.5v3.125zm6.248 0V50h3.125v-3.125zm-6.248 0V50h3.126v-3.125zm3.126-3.126v-3.126h-3.125v3.125zm3.122-3.125v3.125h3.125v-3.125zm0 3.125h-3.122v3.126h3.122zm28.128 24.999h-3.125v3.125H75zm0-6.248h-3.125v3.125H75zm-3.125-3.125H75V56.25h-3.125zm-3.126 0V62.5h3.126v-3.125zm0 6.25v3.123h3.126v-3.123zm0-12.502v3.125h3.125v-3.125zm-12.5-9.375v-3.125h-3.124v3.125z"/><path fill="#00f" d="M71.875 78.124v-3.125H68.75v3.125zm3.126-6.251h-3.125v3.125h3.125zM53.124 87.497v3.125h3.126v-3.125zm-18.75-12.499v-3.125h-3.126v3.125zM50 87.498h-3.125v3.124H50zm0-3.127v3.126h3.125v-3.126zm-3.125-3.121v3.121H50V81.25zm-3.122 6.247h-3.126v3.125h3.125zm0 0h3.122v-3.126h-3.121zM31.249 62.5h3.125v-3.125H31.25zm0 3.125v3.123h3.125v-3.123zm0 3.123h-3.126v3.124l3.125.001zm0-6.248h-3.125v3.125h3.125zm-3.125-3.125h3.125v-3.127h-3.125zm6.25-3.125v-3.126H31.25v3.125zm3.126-6.248h-3.125v3.122H37.5V50m0-6.251h-3.125v3.125H37.5zm-6.251 3.125V50h3.125v-3.125H31.25m18.75 0V50h3.125v-3.125zm3.125-3.125v-3.126H50v3.125zm-6.25 0v3.125H50V43.75zm-3.122 3.125V43.75h-3.126v3.125zm0 0V50h3.122v-3.126zM40.626 50v-3.125H37.5V50h3.124m0-6.251v-3.126H37.5v3.125zm3.127 0h3.122v-3.125H43.75zm28.124 25h-3.126v3.125h3.126zm0 0H75v-3.124h-3.125v3.122M75 59.374h-3.125v3.125H75zm0-6.251h-3.125v3.125H75zM68.75 62.5v3.125h3.124V62.5zm0-6.252v3.126h3.125v-3.125z"/><path fill="olive" d="M81.25 74.998h3.125v-3.125H81.25zm6.25 9.373v3.125h-3.124v3.126H68.75v-3.125H62.5V84.37h-3.12v-6.248h-3.126v9.374h3.125v3.125H62.5v3.126h3.125v3.125h18.75v-3.125h6.251v-3.126h3.125V81.25h-3.125v3.122h-3.125M81.25 68.748h-3.126v3.125h3.125zm3.125-15.625v3.125h9.377v-6.246h-3.125v3.121zM62.5 62.5h-3.122v3.125H62.5zm-3.122-3.125h-3.126V62.5h3.126zm25-9.374H81.25v3.122h3.124z"/><path fill="maroon" d="M37.501 87.497h-3.125v3.125h-25v3.126H6.251v3.126h28.124v-3.125h3.126zm6.252-9.373h-3.126v6.248h3.125zm0 0h3.122v-3.125h-3.122zM31.249 40.623v3.125h3.126v-3.125zm0 3.125h-3.125v3.126h3.125zM15.625 50v6.247h9.378v-3.125h3.121V50z"/><path fill="red" d="M15.625 56.248v-6.247h12.5V43.75h3.125v-3.126H6.251v53.125h3.126v-3.125h24.998v-3.126h3.126v-3.126h3.125v-6.247h3.127V75h3.121V53.122h-6.247V75H37.5v3.125h-3.125v3.126h-18.75z"/><path fill="gray" d="M18.75 18.746v-3.122h-3.124v-3.125H12.5v24.998h3.125v-18.75h3.126m3.125-9.373H18.75v3.125h3.125zm-6.25-6.252V6.25h3.125V3.124h-3.125m28.127 15.624v-3.124h-3.126v3.122h3.125M31.25 28.124h-3.125v3.125h3.125zm-3.125-3.126v-3.125h-3.122v3.125zm-3.122-6.25v-3.124h-3.126v3.122h3.125m25-15.625h-3.127v34.375H50V3.12m37.502 31.25v-9.374h-3.127v9.374H87.5m-3.125 3.125V34.37H81.25v3.125zm0-12.499v-3.125H81.25v3.125zm-6.252-6.251h-3.121v3.126h3.123v-3.125m-12.5-9.375H62.5v9.373h6.252v-3.121h-3.127v-6.25m0 0h3.125V6.246h-3.125v3.125m12.498-6.25v3.125h3.125V3.12zm9.377 9.375v-6.25h-3.125v6.25z"/><path fill="silver" d="M40.627 3.12v6.252h-3.126v6.251h-3.125v6.248h-3.127v9.376h-3.125v-6.25h-3.122v-6.251h-3.126v-6.247H18.75V6.247h-3.124V3.122H9.377v34.375h3.124V12.5h3.125v3.125h3.125v6.248h3.125v6.252h3.126v6.248h3.124v3.125h3.124v-3.125h3.126v-6.248H37.5v-6.252h3.126v-6.248h3.125v21.873h3.122V3.122zm24.999 25.002h-6.248v6.248H62.5v3.125h18.75V34.37h3.125v-9.373H81.25v-3.125h-6.248v3.125h3.122v3.125h3.125v3.127h-3.125v3.121H65.626v-6.246m3.124-9.377h-3.124v3.125h9.376v-3.125zm-3.124-9.373V6.247h-6.248v12.499H62.5V9.372h3.125m12.5-3.125v3.125h3.125v3.127h3.125V6.246h-6.251m0 0V3.12H65.626v3.125z"/><path fill="#ff0" d="M78.124 62.5v6.248h3.125v3.125h3.127v6.251H81.25v3.125h-12.5v-3.125h-3.124V75h-9.374v3.125h3.125v6.248h3.124v3.125h6.25v3.126h15.624v-3.125h3.126v-3.126h3.125V81.25h3.126V68.748h-3.125v-3.122h-6.251V62.5zm6.252-18.75v-3.125H62.5v3.125h-3.122v3.125h-3.126v12.5h3.125V62.5h3.124v-9.377h3.125v-3.122h18.75v3.122h6.251V50h3.125v-3.125h-3.125v-3.127z"/></g></svg>