<svg xmlns="http://www.w3.org/2000/svg" fill="none" viewBox="0 0 512 512"><g transform="translate(23.453 22.999) scale(4.651)"><path fill="#7ebae4" fill-rule="evenodd" d="M39.634 34.196 16.035 75.334l-5.51-9.4 6.36-11.018-12.63-.033-2.692-4.698 2.749-4.805 17.979.057 6.46-11.212zm1.811 32.886 47.195.002-5.334 9.504-12.66-.036 6.287 11.028-2.696 4.695-5.507.006-8.942-15.7-12.877-.027zm27.47-18.026L45.318 7.915l10.843-.103 6.3 11.054 6.343-10.994 5.389.001 2.76 4.8-9.04 15.643 6.416 11.24z" clip-rule="evenodd"/><path fill="#5277c3" fill-rule="evenodd" d="m31.118 51.143 23.595 41.14-10.844.103-6.299-11.053-6.343 10.994-5.389-.002-2.76-4.8 9.04-15.643L25.7 60.643zm27.406-18.13L11.33 33.01l5.334-9.502 12.66.035-6.287-11.027 2.695-4.696 5.509-.008 8.94 15.701 12.878.027zm1.841 32.98 23.6-41.138 5.51 9.401-6.361 11.017 12.631.034 2.692 4.698-2.749 4.804-17.979-.057-6.46 11.213z" clip-rule="evenodd"/></g></svg>