<svg xmlns="http://www.w3.org/2000/svg" fill="none" viewBox="0 0 512 512"><g transform="translate(30.72 30.72) scale(4.506)"><g clip-path="url(#a)"><path fill="#73ba25" d="M45.92 25.448c-7.519.036-17.149 1.246-28.952 8.43l-.464.287C9.1 38.738 3.99 44.373 1.317 50.925c-.838 2.06-1.965 6.713-.849 11.088.482 1.913 1.38 3.836 2.59 5.557 2.731 3.889 7.322 6.468 12.261 6.904 6.976.618 12.255-2.484 14.133-8.291 1.29-4.007 0-9.886-4.95-12.885-4.029-2.44-8.358-1.885-10.871-.242-2.177 1.43-3.411 3.654-3.39 6.096.048 4.331 3.816 6.632 6.527 6.639.788 0 1.578-.135 2.47-.423.318-.097.616-.216.944-.416l.102-.059.044-.031a2.2 2.2 0 0 0 .989-1.82q0-.308-.087-.603c-.319-1.096-1.415-1.758-2.548-1.553l-.153.035-.207.062-.302.104q-.586.143-1.19.166c-.318-.02-1.874-.48-1.874-2.173v-.021c0-.624.248-1.058.387-1.297.485-.753 1.814-1.49 3.61-1.338 2.353.202 4.051 1.399 5.179 3.654 1.043 2.098.77 4.677-.704 6.566-1.467 1.873-4.074 2.67-7.54 2.298-3.498-.382-6.455-2.375-8.109-5.474-1.622-3.033-1.708-6.628-.228-9.387 3.54-6.617 10.223-6.549 13.89-5.921 5.425.932 11.596 5.887 13.787 11.607a16.4 16.4 0 0 1 .69 2.297l.236.988 6.128 2.962c.132.064.178.085.23.047.065-.048.027-.176.027-.176-.039-.136-.128-.26-.267-1.959-.118-1.508-.354-5.633 1.743-7.675.815-.8 2.057-1.515 3.037-1.74 4.014-.974 8.725-.301 13.18 4.8 2.304 2.636 3.429 3.838 3.993 4.376 0 0 .129.121.198.176.073.063.121.112.232.174.184.102 7.658 3.508 7.658 3.508s.087.041.152-.038c.066-.079.003-.16.003-.16-.048-.055-4.734-6.052-3.903-10.991.659-3.932 3.82-3.578 8.196-3.09 1.427.166 3.053.35 4.734.389 4.7.031 9.763-.828 12.883-2.18 2.017-.867 3.303-1.446 4.11-2.174.291-.235.44-.625.597-1.04l.11-.274c.132-.336.323-1.048.407-1.438.034-.172.076-.34-.07-.448-.129-.1-.43.08-.43.08-1.37.815-4.795 2.36-7.997 2.426-3.973.08-12.029-3.983-12.86-4.412l-1.686-3.946c5.762 3.758 10.542 5.835 14.2 6.157 4.073.358 7.248-1.841 8.624-2.756.18-.122.36-.252.527-.381.031-.02.101-.084.09-.14-.23-1.413-2.353-8.267-3.966-9.913-.444-.451-.797-.89-1.515-1.31-5.823-3.36-19.64-5.387-20.286-5.477 0 0-.065-.015-.11.027-.037.035-.043.1-.043.1l-.062 3.152c-1.41-.47-11.67-3.75-21.28-4.08-2.04-.07-4.313-.191-6.818-.179m43.76 6.768c3.255.115 5.813 2.836 5.702 6.057a5.8 5.8 0 0 1-1.872 4.073 5.9 5.9 0 0 1-4.246 1.574c-3.252-.118-5.807-2.836-5.7-6.06a5.82 5.82 0 0 1 1.872-4.076 5.94 5.94 0 0 1 4.243-1.568m-.052 1.724a4.1 4.1 0 0 0-2.953 1.091 4.03 4.03 0 0 0-1.305 2.84c-.076 2.253 1.707 4.148 3.977 4.232a4.16 4.16 0 0 0 2.96-1.1 4.02 4.02 0 0 0 1.3-2.838c.08-2.253-1.703-4.145-3.98-4.225m.675 2.048c1.012 0 1.831.537 1.831 1.21 0 .662-.821 1.207-1.83 1.207-1.012 0-1.83-.545-1.83-1.207 0-.672.818-1.21 1.83-1.21m-15.71 28.977a1.287 1.287 0 0 0-1.293 1.289 1.29 1.29 0 0 0 1.293 1.297 1.293 1.293 0 0 0 .004-2.586zm0 .201h.004c.578 0 1.043.489 1.043 1.096s-.465 1.095-1.043 1.088c-.579 0-1.047-.481-1.047-1.095 0-.603.468-1.089 1.043-1.089m-.066.368c-.173 0-.288.017-.412.034v1.439h.232v-.62h.163c.187 0 .278.068.315.252.028.19.063.324.097.367h.243c-.025-.044-.055-.131-.094-.356-.027-.213-.114-.326-.242-.35v-.011c.157-.044.284-.164.284-.35 0-.138-.048-.236-.135-.298-.088-.061-.23-.107-.451-.107m-.01.176c.26 0 .354.125.354.253 0 .178-.164.246-.354.246h-.17v-.488a1 1 0 0 1 .17-.01"/></g><defs><clipPath id="a"><path fill="#fff" d="M0 0h100v100H0z"/></clipPath></defs></g></svg>