<svg xmlns="http://www.w3.org/2000/svg" fill="none" viewBox="0 0 512 512"><g transform="translate(30.72 30.72) scale(4.506)"><path fill="#e57000" d="M96.243 50.002 100 54.128a2.24 2.24 0 0 1-1.623.69 2.25 2.25 0 0 1-1.68-.745l-2.078-2.282-2.078 2.282a2.27 2.27 0 0 1-1.678.745 2.27 2.27 0 0 1-1.623-.69l3.756-4.126-3.756-4.129a2.3 2.3 0 0 1 1.623-.675c.674 0 1.24.275 1.666.746l2.09 2.282 2.079-2.282a2.25 2.25 0 0 1 1.679-.746c.63 0 1.21.263 1.623.675zm-36.532 0 3.756 4.126a2.24 2.24 0 0 1-1.623.69 2.25 2.25 0 0 1-1.678-.745l-2.078-2.282-2.079 2.282a2.27 2.27 0 0 1-2.56.564 2.3 2.3 0 0 1-.742-.509l3.756-4.126-3.756-4.129a2.3 2.3 0 0 1 1.624-.675c.674 0 1.238.275 1.666.746l2.09 2.282 2.079-2.282a2.25 2.25 0 0 1 1.678-.746c.635 0 1.21.263 1.623.675zM4.385 50 0 54.818a2.64 2.64 0 0 0 3.855-.064l2.425-2.667 1.896-2.088-1.896-2.072-2.425-2.667a2.63 2.63 0 0 0-1.96-.867A2.68 2.68 0 0 0 0 45.18zm8.552 0 4.385 4.819a2.64 2.64 0 0 1-3.855-.064l-2.426-2.667L9.146 50l1.895-2.072 2.426-2.667a2.63 2.63 0 0 1 1.96-.867 2.68 2.68 0 0 1 1.895.787z"/><path fill="#000" d="M85.456 48.2c0-.592-.605-.592-.605-.592h-3.592c-.604 0-.604.592-.604.592v3.605c0 .607.604.607.604.607h3.592c.605 0 .605-.607.605-.607zm2.407-.592v4.804a2.4 2.4 0 0 1-.702 1.703 2.42 2.42 0 0 1-1.706.704h-4.8a2.41 2.41 0 0 1-2.228-1.485 2.4 2.4 0 0 1-.18-.922v-4.803a2.41 2.41 0 0 1 2.408-2.42h4.8a2.413 2.413 0 0 1 2.408 2.419m-10.992-1.514v8.725a2.41 2.41 0 0 1-2.408-2.407V47.8c0-.123-.086-.205-.195-.205-.083 0-.15.055-.193.11l-2.667 5.902a.63.63 0 0 1-.552.345.63.63 0 0 1-.55-.357l-2.67-5.89a.23.23 0 0 0-.177-.11c-.125 0-.207.082-.207.205v4.61a2.41 2.41 0 0 1-2.408 2.408v-8.725c0-.494.4-.906.91-.906h1.498c.976 0 1.83.592 2.2 1.443v-.027l1.404 3.11 1.42-3.11-.017.027a2.42 2.42 0 0 1 2.204-1.443h1.514c.494 0 .894.412.894.906M48.921 48.2c0-.592-.603-.592-.603-.592h-3.591c-.604 0-.604.592-.604.592v3.605c0 .607.604.607.604.607h3.592c.604 0 .604-.607.604-.607zm2.409-.592v4.804a2.4 2.4 0 0 1-.702 1.703 2.42 2.42 0 0 1-1.706.704h-4.8a2.41 2.41 0 0 1-2.228-1.486 2.4 2.4 0 0 1-.18-.921v-4.803a2.41 2.41 0 0 1 2.408-2.42h4.8a2.41 2.41 0 0 1 2.408 2.419m-14.008 2.094c.608 0 .608-.593.608-.593V48.2c0-.592-.608-.592-.608-.592h-4.195v2.094zm1.074 2.075 1.942 2.767a2.34 2.34 0 0 1-1.114.276 2.37 2.37 0 0 1-1.97-1.032l-1.39-1.984h-2.738v.608a2.41 2.41 0 0 1-2.408 2.407v-8.725c0-.494.4-.906.895-.906h6.317a2.414 2.414 0 0 1 2.408 2.42v1.805a2.42 2.42 0 0 1-1.942 2.364m-12.066-1.47c.592 0 .592-.605.592-.605V48.2c0-.592-.592-.592-.592-.592h-4.224v2.698zm3.012-2.7v2.397a2.415 2.415 0 0 1-2.42 2.408h-4.816a2.4 2.4 0 0 1-2.396 2.407v-8.725c0-.494.413-.906.895-.906h6.317a2.42 2.42 0 0 1 2.42 2.42m-18.954.004-1.73 1.908-1.731-1.908-4-4.398a2.45 2.45 0 0 1 1.73-.716c.717 0 1.317.293 1.773.79l2.227 2.432 2.213-2.432a2.4 2.4 0 0 1 1.789-.79c.673 0 1.29.277 1.73.716zm0 4.78-1.73-1.908-1.731 1.908-4 4.397c.459.458 1.08.716 1.73.717.717 0 1.317-.293 1.773-.79l2.227-2.433 2.216 2.433a2.4 2.4 0 0 0 1.785.79 2.44 2.44 0 0 0 1.73-.718z"/></g></svg>