<svg xmlns="http://www.w3.org/2000/svg" fill="none" viewBox="0 0 512 512"><g transform="translate(30.72 31.6) scale(4.506)"><path fill="#e00" d="M66.703 55.598c6.572 0 16.081-1.356 16.081-9.173a7.4 7.4 0 0 0-.163-1.797l-3.913-17c-.904-3.74-1.697-5.437-8.264-8.72-5.096-2.606-16.197-6.909-19.48-6.909-3.057 0-3.945 3.94-7.591 3.94-3.51 0-6.115-2.942-9.399-2.942-3.152 0-5.206 2.149-6.792 6.567 0 0-4.419 12.461-4.986 14.269-.09.331-.13.675-.116 1.019 0 4.843 19.07 20.725 44.623 20.725m17.09-5.979c.909 4.303.909 4.755.909 5.322 0 7.355-8.27 11.437-19.139 11.437-24.565.016-46.083-14.379-46.083-23.893a9.7 9.7 0 0 1 .793-3.85C11.437 39.053 0 40.63 0 50.727c0 16.538 39.186 36.921 70.213 36.921C94 87.65 100 76.89 100 68.395c0-6.682-5.779-14.268-16.196-18.797"/><path fill="#000" d="M83.793 49.598c.909 4.303.909 4.755.909 5.322 0 7.355-8.27 11.437-19.139 11.437-24.565.016-46.083-14.379-46.083-23.893a9.7 9.7 0 0 1 .793-3.85l1.923-4.76a3.4 3.4 0 0 0-.116.998c0 4.843 19.07 20.725 44.624 20.725 6.572 0 16.08-1.356 16.08-9.173a7.4 7.4 0 0 0-.163-1.797z"/></g></svg>