<svg xmlns="http://www.w3.org/2000/svg" fill="none" viewBox="0 0 512 512"><g transform="translate(30.72 30.72) scale(4.506)"><g clip-path="url(#a)"><path fill="url(#b)" d="M50.01 0c-1.264 0-2.522.06-3.77.156v99.706c1.245.092 2.496.157 3.763.159h.018c1.26 0 2.508-.067 3.742-.155V.156Q51.889.006 50.009 0m21.495 4.867C64.187 21.36 59.656 38.898 59.656 49.942c0 10.688 4.908 28.421 12.36 45.001a50 50 0 0 0 6.567-3.881c-6.9-15.519-11.398-31.739-11.398-41.139 0-9.732 4.34-25.917 11.026-41.216a50 50 0 0 0-6.706-3.84m-43.118.031a50 50 0 0 0-6.607 3.824c6.699 15.286 11.032 31.476 11.032 41.201 0 9.397-4.501 25.611-11.398 41.114a50.5 50.5 0 0 0 6.567 3.879C35.44 78.34 40.335 60.62 40.335 49.923c0-11.099-4.712-28.738-11.948-45.025M91.05 21.43l-1.077 1.074C78.555 34.03 73.037 43.009 73.104 49.939c.068 6.927 5.552 15.878 16.789 27.179l1.29 1.284a50.5 50.5 0 0 0 3.903-6.72c-7.775-7.891-14.407-16.412-14.459-21.81-.048-5.264 6.543-13.785 14.362-21.763a50 50 0 0 0-3.94-6.68m-82.077.018a50 50 0 0 0-3.949 6.698c13.019 13.227 14.39 19.605 14.374 21.744-.049 5.42-6.684 13.92-14.463 21.793a50 50 0 0 0 3.913 6.701c.443-.442.864-.848 1.291-1.28C21.365 65.801 26.852 56.92 26.916 49.941c.067-6.976-5.45-15.873-16.864-27.42z"/></g><defs><linearGradient id="b" x1="50.002" x2="50.002" y1="-5.712" y2="99.132" gradientUnits="userSpaceOnUse"><stop stop-color="#ffd200"/><stop offset=".08" stop-color="#ffb500"/><stop offset=".2" stop-color="#ff8c00"/><stop offset=".3" stop-color="#ff7300"/><stop offset=".36" stop-color="#ff6a00"/><stop offset=".48" stop-color="#fc4f0e"/><stop offset=".65" stop-color="#f92f1e"/><stop offset=".79" stop-color="#f81b27"/><stop offset=".89" stop-color="#f7142b"/><stop offset="1" stop-color="#df162e"/></linearGradient><clipPath id="a"><path fill="#fff" d="M0 0h100v100H0z"/></clipPath></defs></g></svg>