<svg xmlns="http://www.w3.org/2000/svg" fill="none" viewBox="0 0 512 512"><g transform="translate(21.562 19.731) scale(4.689)"><path fill="#4051b5" d="M5.469 2.344v5.12h31.868v-5.12zm56.054 0v5.12h33.008v-5.12zM5.47 13.152v5.12h31.868v-5.12zm56.054 0v5.12h33.008v-5.12zM5.47 23.677v5.12h31.868v-5.12zm56.054 0v5.12h33.008v-5.12zM5.47 47.34c0 17.636.057 18.375 1.992 24.149 2.076 6.287 4.866 10.837 9.219 15.189 7.625 7.566 17.5 11.292 31.043 11.719 15.537.484 27.346-3.414 35.711-11.832 4.297-4.324 7.512-9.757 9.361-15.815 1.68-5.461 1.736-6.371 1.736-23.495V31.641l-16.418.057-16.447.086s-.142.051-.142 22.611c0 25.77-4.317 30.399-12.65 30.399s-11.641-4.43-11.48-31.053c.135-22.025-.085-22.1-.085-22.1H5.469z"/></g></svg>