<svg xmlns="http://www.w3.org/2000/svg" fill="none" viewBox="0 0 512 512"><g transform="translate(30.72 30.72) scale(4.506)"><g clip-path="url(#a)"><path fill="#000" d="M92.189 0H7.814A7.813 7.813 0 0 0 .001 7.813v84.375a7.813 7.813 0 0 0 7.813 7.813h84.375a7.813 7.813 0 0 0 7.813-7.813V7.813A7.813 7.813 0 0 0 92.189 0"/><path fill="#fff" d="M12.934 89.401c-.874-.59-2.052-1.948-2.619-3.02-1.092-2.073-3.227-4.338-5.397-5.732-1.5-.962-2.324-3.847-1.412-4.946.304-.366 1.592-.944 2.861-1.287s2.519-.809 2.776-1.04c.257-.233.49-1.9.52-3.708.174-11.067.26-11.339 3.646-11.339 4.016 0 6.733 4.799 5.413 9.559-.936 3.374-.75 4.104 1.05 4.092 2.753-.012 2.9-.328 3.025-6.396.188-9.153 2.193-12.065 6.797-9.87 2.917 1.393 3.348 5.167 1.352 11.884-.655 2.197.64 11.294 1.996 14.04.765 1.548-.053 3.72-1.48 3.925-.649.091-1.712-.36-2.589-1.099-.82-.69-1.662-1.255-1.875-1.255-.21 0-.992-.877-1.736-1.949-1.293-1.872-2.776-2.503-3.416-1.464-.166.266-1.297.738-2.51 1.042-2.132.538-2.203.614-1.934 2.076.803 4.329.809 6.053.035 6.83-1.057 1.06-2.59.945-4.503-.343m49.43-6.773c-1.058-.615-3.119-2.909-4.031-4.489-.325-.566-.602-2.084-.611-3.377-.024-3.455 1.426-5.631 2.179-3.263.711 2.244 3.354 3.254 4.597 1.75 1.004-1.21-.676-4.039-4.84-8.149-3.743-3.69-3.906-3.942-3.906-6.068 0-3.298.945-4.665 4.332-6.286 2.817-1.344 3.059-1.382 5.05-.744 2.7.868 5.875 3.927 5.657 5.45-.133.954-.443 1.123-2.109 1.123-1.075 0-2.226.177-2.563.392-.995.647-.694 2.12.612 2.977 1.201.785 1.22.78 1.22-.588 0-1.34.126-1.411 4.269-2.327l4.267-.945.348-3.838c.588-6.46 2.454-7.736 6.142-4.193 1.125 1.084 2.081 2.235 2.123 2.56.041.325.097.921.124 1.326.038.602.782.702 4.255.56 4.05-.162 4.263-.117 5.728 1.22 1.045.954 1.559 1.914 1.645 3.062.106 1.412-.124 1.843-1.5 2.782-.892.61-3.803 1.807-6.464 2.657-3.82 1.217-4.84 1.733-4.84 2.442 0 .496.251 3.095.556 5.779.629 5.521.227 7.328-1.831 8.267-1.813.827-2.291.697-4.001-1.069-2.002-2.063-2.622-4.24-2.22-7.824.368-3.316.153-3.567-2.882-3.325l-2.162.171.709 2.029c.457 1.31.614 2.982.443 4.712-.222 2.268-.514 2.9-1.878 4.075-4.043 3.475-6.366 4.34-8.419 3.15M42.49 82.22c-2.341-.404-5.743-3.035-7.792-6.03-1.462-2.137-1.627-2.722-1.594-5.61.047-3.758 1.216-8.128 2.678-9.986 1.157-1.473 4.686-3.242 6.466-3.242 1.081 0 3.582.918 7.406 2.723 3.301 1.553 3.874 2.521 4.6 7.745l.538 3.853-1.78 3.794c-.981 2.085-2.275 4.255-2.877 4.82-1.417 1.33-5.36 2.329-7.645 1.933m1.232-9.224c1.754-.668 2.633-3.558 1.574-5.173-.432-.662-1.07-1.202-1.418-1.202-1.943 0-3.998 4.612-2.731 6.136.679.817.974.85 2.575.239M16.188 48.45c-.933-.62-2.194-2.17-2.879-3.538-1.11-2.22-1.207-2.914-1.086-7.75l.13-5.316-2.935-2.817c-1.616-1.553-2.938-2.911-2.938-3.017 0-.107-.44-2.25-.975-4.76s-.977-5.729-.977-7.152c0-2.226.171-2.696 1.234-3.396 1.931-1.26 4.042-.413 5.92 2.38 1.246 1.855 1.61 2.997 1.884 5.95.363 3.85 1.004 4.94 2.61 4.43.96-.302 3.742-3.19 4.734-4.908.502-.871.62-.857 2.764.401 1.62.948 2.4 1.793 2.81 3.033.508 1.535.434 1.946-.676 3.838a18.3 18.3 0 0 1-3.088 3.742c-1.016.891-1.875 2.075-1.905 2.627-.236 4.14-1.264 16.25-1.423 16.743-.295.9-1.343.74-3.204-.49m17.835-3.49c-2.268-.99-5.383-4.828-6.083-7.492-.738-2.823-.69-14.465.068-17.489.295-1.181.794-2.144 1.102-2.144.933 0 4.14 2.386 4.765 3.547.349.64.63 3.472.685 6.888.083 5.002.216 5.87.966 6.29.661.372 1.027.274 1.523-.405.36-.493.656-1.237.659-1.653.003-.417.552-2.472 1.22-4.562.667-2.088 1.237-4.834 1.263-6.098.103-4.857 1.172-5.944 3.73-3.791 2.988 2.513 3.144 8.188.531 19.3-1.04 4.434-2.082 5.952-5.138 7.502-1.872.945-3.295.974-5.294.106zm16.766-1.037c-2.605-1.358-3.086-2.342-2.428-4.96 1.462-5.812 1.745-12.718.768-18.633-.313-1.898-.221-2.235.818-3.035.644-.496 1.639-.907 2.209-.913 1.382-.014 4.574 3.508 5.958 6.576 2.023 4.489 2.758 5.767 3.192 5.566.237-.109.488-3.496.558-7.523.113-6.458.254-7.568 1.205-9.39.59-1.14 1.382-2.067 1.751-2.067.372 0 1.282.93 2.02 2.073s1.547 2.214 1.792 2.391.363 2.702.263 5.61q-.159 4.718-.118 9.438c.236 13.698.16 14.477-1.483 15.1-1.556.59-4.01-.608-6.962-3.401-1.414-1.335-2.76-2.428-2.997-2.428-.236 0-.821 1.261-1.302 2.806-1.409 4.505-1.677 4.647-5.244 2.79m26.188-4.21c-4.548-2.463-6.092-4.716-6.458-9.42-.292-3.738 1.3-10.373 3.03-12.64.679-.89 1.23-1.861 1.23-2.156 0-.299.975-1.21 2.162-2.029 2.776-1.907 5.345-1.99 7.905-.254 3.59 2.436 4.113 4.32 4.263 15.355.06 4.266-.047 4.821-1.313 6.977-.76 1.29-1.867 2.528-2.46 2.755-.597.227-1.352.735-1.68 1.13-.718.866-5.25 1.058-6.68.281m4.836-11.794c1.618-3.242 1.403-5.32-.581-5.604-.88-.127-1.264.25-2.002 1.97-1.376 3.212-1.704 5.184-1.001 6.032 1.048 1.26 2.11.549 3.584-2.398"/></g><defs><clipPath id="a"><path fill="#fff" d="M0 0h100v100H0z"/></clipPath></defs></g></svg>