<svg xmlns="http://www.w3.org/2000/svg" fill="none" viewBox="0 0 512 512"><g transform="translate(30.72 30.72) scale(4.506)"><g clip-path="url(#a)"><g fill-rule="evenodd" clip-path="url(#b)" clip-rule="evenodd"><path fill="#134881" d="M100 9.765c0-5.39-4.376-9.766-9.766-9.766H9.766C4.376 0 0 4.375 0 9.765v80.469c0 5.39 4.376 9.765 9.766 9.765h80.468c5.39 0 9.766-4.376 9.766-9.765z"/><path fill="url(#c)" d="M92.676 88.799a3.91 3.91 0 0 1-3.907 3.876H49.348l-16.85-29.187h60.179zm-85.352-.03V71.63L44.452 7.323h14.51l-31.366 54.33 17.91 31.022H11.23a3.91 3.91 0 0 1-3.907-3.906M54.9 60.159H40.23a4.57 4.57 0 0 1-3.97-6.86l7.34-12.713zM88.77 7.324a3.91 3.91 0 0 1 3.907 3.876v48.96H58.742L45.52 37.26 62.803 7.324z"/></g></g><defs><clipPath id="a"><path fill="#fff" d="M0 0h100v100H0z"/></clipPath><clipPath id="b"><path fill="#fff" d="M0 0h100v100H0z"/></clipPath><radialGradient id="c" cx="0" cy="0" r="1" gradientTransform="translate(72.561 -8.718)scale(101.393)" gradientUnits="userSpaceOnUse"><stop stop-color="#6be1fb"/><stop offset="1" stop-color="#38bdfa"/></radialGradient></defs></g></svg>