<svg xmlns="http://www.w3.org/2000/svg" fill="none" viewBox="0 0 512 512"><g transform="translate(30.72 30.72) scale(4.506)"><path fill="#f06a6a" fill-rule="evenodd" d="M78.252 52.614c-12.011 0-21.749 9.364-21.749 20.916 0 11.55 9.738 20.914 21.749 20.914S100 85.081 100 73.53s-9.737-20.916-21.748-20.916m-56.504.002C9.738 52.616 0 61.978 0 73.53c0 11.55 9.737 20.914 21.748 20.914s21.75-9.363 21.75-20.914-9.738-20.914-21.75-20.914m50-26.146c0 11.552-9.737 20.916-21.748 20.916S28.252 38.022 28.252 26.47c0-11.55 9.737-20.914 21.748-20.914S71.748 14.92 71.748 26.47" clip-rule="evenodd"/></g></svg>