<svg xmlns="http://www.w3.org/2000/svg" fill="none" viewBox="0 0 512 512"><g transform="translate(30.72 30.72) scale(4.506)"><g clip-path="url(#a)"><g opacity=".783"><g filter="url(#b)"><path fill="#000" d="M41.087 4.212 4.38 41.81c-13.9 13.9 8.999 12.74 17.285 17.998 3.831 2.494-12.295 5.702-8.999 8.999C15.873 72.104 32 75.133 35.207 78.34c3.207 3.297-6.504 6.771-3.297 10.068 3.119 3.297 10.603.178 11.94 7.662.98 5.524 13.72 2.763 19.423-1.96 3.564-3.03-6.148-3.03-2.94-6.326 8.018-8.108 15.146-3.653 18.086-11.137 1.604-4.01-12.117-6.86-8.464-9.444 8.732-6.148 40.807-9.266 26.017-24.057L57.927 4.212c-4.722-4.455-12.474-4.455-16.84 0m42.144 72.436c0 1.871 14.523 2.94 13.72-.445-1.157-5.703-12.117-5.257-13.72.445m-61.923 9.89c3.296 2.851 8.286-.624 9.89-4.633-3.208-4.188-15.058.267-9.89 4.633m60.14-5.97c-4.098 3.743.714 7.663 4.723 5.079 1.07-.713-.09-4.188-4.722-5.079"/></g><g filter="url(#c)" opacity=".576"><path fill="#000" d="M41.087 5.082 4.38 42.68c-13.9 13.9 8.999 12.74 17.285 17.998 3.831 2.494-12.295 5.702-8.999 8.999C15.873 72.974 32 76.004 35.207 79.21c3.207 3.297-6.504 6.772-3.297 10.068 3.119 3.297 10.603.178 11.94 7.663.98 5.524 13.72 2.762 19.423-1.96 3.564-3.03-6.148-3.03-2.94-6.326 8.018-8.109 15.146-3.654 18.086-11.138 1.604-4.01-12.117-6.86-8.464-9.444 8.732-6.148 40.807-9.266 26.017-24.057L57.927 5.082c-4.722-4.455-12.474-4.455-16.84 0m42.144 72.436c0 1.871 14.523 2.94 13.72-.445-1.157-5.702-12.117-5.257-13.72.445m-61.923 9.89c3.296 2.851 8.286-.624 9.89-4.633-3.208-4.188-15.058.267-9.89 4.633m60.14-5.97c-4.098 3.743.714 7.663 4.723 5.08 1.07-.714-.09-4.189-4.722-5.08"/></g></g><path fill="#000" d="M41.087 3.34 4.38 40.94c-13.9 13.899 8.999 12.74 17.285 17.997 3.831 2.495-12.295 5.703-8.999 9C15.873 71.232 32 74.261 35.207 77.47c3.207 3.296-6.504 6.771-3.297 10.068 3.119 3.296 10.603.178 11.94 7.662.98 5.524 13.72 2.762 19.423-1.96 3.564-3.03-6.148-3.03-2.94-6.326 8.018-8.108 15.146-3.653 18.086-11.137 1.604-4.01-12.117-6.86-8.464-9.445 8.732-6.147 40.807-9.266 26.017-24.056L57.927 3.34c-4.722-4.455-12.474-4.455-16.84 0m42.144 72.437c0 1.87 14.523 2.94 13.72-.446-1.157-5.702-12.117-5.256-13.72.446m-61.923 9.89c3.296 2.85 8.286-.624 9.89-4.633-3.208-4.188-15.058.267-9.89 4.633m60.14-5.97c-4.098 3.742.714 7.663 4.723 5.079 1.07-.713-.09-4.188-4.722-5.079"/><mask id="d" width="100" height="98" x="0" y="0" maskUnits="userSpaceOnUse" style="mask-type:luminance"><path fill="#fff" d="M41.17 3.774 4.81 41.018c-13.768 13.767 8.913 12.62 17.121 17.827 3.795 2.471-12.18 5.648-8.914 8.914 3.178 3.265 19.152 6.266 22.329 9.443 3.177 3.266-6.443 6.708-3.265 9.973 3.088 3.266 10.502.177 11.826 7.59.97 5.472 13.591 2.736 19.24-1.942 3.53-3-6.09-3-2.913-6.266 7.943-8.031 15.003-3.618 17.916-11.032 1.588-3.971-12.003-6.795-8.385-9.355 8.65-6.09 40.421-9.178 25.771-23.829L57.851 3.774c-4.678-4.413-12.356-4.413-16.68 0m-8.736 57.1c.794 0 27.182 3.531 17.033 6.267-3.883 1.06-21.711-6.266-17.033-6.266m50.482 14.651c0 1.854 14.385 2.913 13.59-.441-1.146-5.648-12.002-5.207-13.59.441m-61.338 9.797c3.266 2.824 8.208-.618 9.797-4.59-3.178-4.148-14.916.265-9.797 4.59m59.572-5.913c-4.06 3.706.706 7.59 4.678 5.03 1.06-.706-.088-4.148-4.678-5.03"/></mask><g mask="url(#d)"><path fill="url(#e)" d="M41.17 3.774 4.81 41.018c-13.768 13.767 8.913 12.62 17.121 17.827 3.795 2.471-12.18 5.648-8.914 8.914 3.178 3.265 19.152 6.266 22.329 9.443 3.177 3.266-6.443 6.708-3.265 9.973 3.088 3.266 10.502.177 11.826 7.59.97 5.472 13.591 2.736 19.24-1.942 3.53-3-6.09-3-2.913-6.266 7.943-8.031 15.003-3.618 17.916-11.032 1.588-3.971-12.003-6.795-8.385-9.355 8.65-6.09 40.421-9.178 25.771-23.829L57.851 3.774c-4.678-4.413-12.356-4.413-16.68 0m-8.736 57.1c.794 0 27.182 3.531 17.033 6.267-3.883 1.06-21.711-6.266-17.033-6.266m50.482 14.651c0 1.854 14.385 2.913 13.59-.441-1.146-5.648-12.002-5.207-13.59.441m-61.338 9.797c3.266 2.824 8.208-.618 9.797-4.59-3.178-4.148-14.916.265-9.797 4.59m59.572-5.913c-4.06 3.706.706 7.59 4.678 5.03 1.06-.706-.088-4.148-4.678-5.03"/></g><path fill="url(#f)" d="M7.645 43.024c-9.981 9.891 7.553 7.104 21.04 12.409L56.559 6.428c-4.226-4.316-9.621-3.956-13.487 0z" opacity=".505"/><path fill="url(#g)" d="m55.7 6.014 14.522 14.79c1.337 1.336 1.337 4.098.535 4.9l-7.217-5.88-1.425 8.642-5.97-3.207-9.712 6.147-3.207-12.919-5.168 11.227-12.92-.09c-2.494 0-2.138-2.583.446-5.167C30.663 18.844 40.553 9.31 43.671 6.014c3.208-3.297 8.82-3.208 12.028 0"/><path fill="url(#h)" fill-rule="evenodd" d="M35.767 75.883s1.576 2.407 1.415 3.54c-.315 2.221-5.1 3.33-4.04 5.308 1.047 1.955 4.823.847 7.993 2.89 3.155 2.036 2.307 6.184 4.6 7.227 4.474 2.035 16.222-3.51 15.632-3.392s-11.594 2.405-14.072.399c-2.825-2.287-3.635-3.884-5.718-5.236-1.953-1.267-4.695-1.784-5.334-2.821s1.279-2.376 1.411-4.376c.08-1.2-1.888-3.539-1.888-3.539" clip-rule="evenodd" opacity=".217"/><g filter="url(#i)" opacity=".276"><path fill="url(#j)" fill-rule="evenodd" d="M35.767 75.883s1.576 2.407 1.415 3.54c-.315 2.221-5.1 3.33-4.04 5.308 1.047 1.955 4.823.847 7.993 2.89 3.155 2.036 2.307 6.184 4.6 7.227 4.474 2.035 16.222-3.51 15.632-3.392-19.508.074-15.867-4.952-23.388-8.258-1.087-.478-.457-1.776-.325-3.775.08-1.201-1.888-3.54-1.888-3.54" clip-rule="evenodd"/></g><path fill="url(#k)" fill-rule="evenodd" d="M68.918 65.62c17.51-6.444 23.134-7.33 28.904-13.096-6.682 5.641-20.81 8.667-32.325 13.685z" clip-rule="evenodd" opacity=".453"/><g filter="url(#l)" opacity=".512"><path fill="url(#m)" fill-rule="evenodd" d="M68.918 64.793c28.835-10.219 23.96-10.16 28.904-13.095-9.168 3.51-26.301 3.883-32.325 13.685z" clip-rule="evenodd"/></g><path fill="url(#n)" d="M94.106 72.963c0 .305-.395.598-1.097.813-.703.216-1.656.337-2.649.337s-1.946-.12-2.649-.337c-.702-.215-1.097-.508-1.097-.813s.395-.598 1.097-.813c.703-.216 1.656-.337 2.649-.337s1.946.12 2.649.337c.702.215 1.097.508 1.097.813" opacity=".286"/><g filter="url(#o)" opacity=".621"><path fill="url(#p)" d="M95.404 74.29c0 .657-.532 1.287-1.478 1.752-.945.465-2.228.726-3.566.726s-2.62-.261-3.566-.726-1.477-1.095-1.477-1.752.53-1.287 1.477-1.752c.946-.464 2.228-.725 3.566-.725s2.62.26 3.566.725 1.477 1.095 1.477 1.752"/></g><g filter="url(#q)"><path fill="url(#r)" fill-rule="evenodd" d="M83.488 75.667c1.779 1.644 11.682 2.488 13.302-.472-3.18 2.258-10.249 1.465-13.302.472" clip-rule="evenodd"/></g><path fill="url(#s)" d="M83.523 81.156c.087.17.142.354.162.542s.006.375-.043.551-.13.339-.242.477a1.23 1.23 0 0 1-.907.46 1.3 1.3 0 0 1-.527-.087 1.5 1.5 0 0 1-.47-.291 1.57 1.57 0 0 1-.46-1.545c.048-.177.13-.339.24-.477a1.23 1.23 0 0 1 .908-.46c.177-.007.356.022.527.087q.258.099.47.291.212.193.342.452" opacity=".286"/><g filter="url(#t)" opacity=".621"><path fill="url(#u)" d="M84.225 81.474c.13.254.213.53.246.809.032.28.013.558-.056.82s-.187.501-.347.705a1.76 1.76 0 0 1-1.324.671 1.9 1.9 0 0 1-.775-.136 2.2 2.2 0 0 1-.694-.44 2.4 2.4 0 0 1-.508-.676 2.4 2.4 0 0 1-.245-.81 2.2 2.2 0 0 1 .055-.82c.07-.261.188-.5.348-.705s.36-.368.587-.483.478-.18.737-.188c.26-.009.522.038.774.136.252.1.488.249.694.44.207.192.38.422.508.677"/></g><g filter="url(#v)"><path fill="url(#w)" fill-rule="evenodd" d="M81.059 84.479c1.43 1.119 6.81 1.262 4.769-1.99.532 2.547-3.143 2.278-4.77 1.99" clip-rule="evenodd"/></g><path fill="url(#x)" fill-rule="evenodd" d="M14.649 67.625c0-.293 18.331 5.587 21.471 8.73-2.581-2.52-15.648-8.313-17.637-8.376-1.99-.064-3.598-.236-3.834-.354" clip-rule="evenodd"/><path fill="url(#y)" d="M28.42 80.218c.071.212-.207.492-.774.778-.567.285-1.376.554-2.25.745-.873.192-1.739.292-2.407.277s-1.083-.142-1.154-.354c-.071-.213.207-.492.774-.778s1.376-.554 2.25-.746c.873-.191 1.738-.29 2.406-.276s1.084.142 1.155.354" opacity=".286"/><g filter="url(#z)" opacity=".621"><path fill="url(#A)" d="M29.871 80.891c.154.457-.166.999-.889 1.504-.723.506-1.79.936-2.965 1.194-1.176.258-2.364.324-3.304.183-.94-.14-1.555-.477-1.709-.934-.153-.457.167-.998.89-1.504.722-.506 1.789-.935 2.965-1.194s2.364-.324 3.304-.183c.94.14 1.554.477 1.708.934"/></g><g filter="url(#B)" opacity=".616"><path fill="url(#C)" fill-rule="evenodd" d="M20.518 83.198s.993 2.667 3.716 2.802c2.756.137 5.9-3.307 6.165-4.542-.472 1.062-3.11 4.263-6.519 4.218-1.934-.026-3.362-2.478-3.362-2.478" clip-rule="evenodd"/></g><g filter="url(#D)"><path stroke="url(#E)" stroke-width=".435" d="M49.38 1.308c-2.761 0-5.467 1-7.38 2.951L5.305 41.847C1.948 45.202 1.142 47.4 1.35 48.641c.103.621.408 1.161 1.058 1.726.65.566 1.632 1.12 2.812 1.615 2.36.991 5.54 1.79 8.66 2.645 3.118.856 6.173 1.76 8.491 3.23.354.23.686.514.92.919s.315.94.222 1.392c-.186.903-.741 1.379-1.309 1.81-1.134.863-2.693 1.58-4.26 2.339s-3.14 1.535-3.926 2.172c-.392.318-.534.604-.529.584s-.104-.243.084-.055c.492.505 2.026 1.37 3.982 2.143 1.955.774 4.348 1.556 6.765 2.34 2.418.783 4.863 1.558 6.933 2.366 2.07.807 3.758 1.558 4.873 2.673.555.57.947 1.28 1.03 2.005s-.113 1.406-.39 1.976c-.553 1.142-1.444 2.02-2.255 2.868-.812.848-1.547 1.658-1.81 2.2-.131.27-.152.448-.14.557.014.109.032.22.28.473l.027.028c1.064 1.124 3.374 1.282 5.986 1.893 1.306.306 2.672.768 3.843 1.782s2.048 2.558 2.422 4.65c.157.886.626 1.318 1.754 1.67 1.128.354 2.846.415 4.734.14 3.774-.551 8.25-2.402 10.83-4.539.16-.136.116-.1.168-.167a9.6 9.6 0 0 0-1.253-.724c-.795-.395-1.733-.766-2.45-1.67a2.52 2.52 0 0 1-.502-1.866c.105-.699.488-1.28 1.003-1.81 4.228-4.275 8.394-5.296 11.527-6.125 1.566-.415 2.877-.794 3.87-1.42s1.769-1.482 2.422-3.146c.072-.18.07-.233-.028-.446-.097-.213-.36-.554-.78-.918-.838-.73-2.236-1.514-3.619-2.284s-2.727-1.486-3.703-2.394c-.488-.454-1-1.026-1.058-1.894s.51-1.65 1.17-2.116c2.446-1.722 6.144-3.033 10.162-4.427s8.34-2.835 11.861-4.482c3.52-1.648 6.11-3.545 6.933-5.458.412-.956.487-1.923.056-3.174s-1.416-2.78-3.174-4.538L57.036 4.287l-.028-.028c-2.1-1.967-4.881-2.951-7.629-2.951Zm40.928 71.278c-2.348.085-4.508 1.16-5.429 2.84.262.099.497.21.919.306 1.225.282 2.936.464 4.622.502s3.371-.105 4.399-.39c.45-.125.688-.251.807-.334-.227-.973-.77-1.66-1.698-2.172-.961-.531-2.278-.8-3.62-.752Zm-62.814 8.075c-1.862-.13-4.202.611-5.345 1.531-.572.46-.814.886-.836 1.17-.021.283.07.66.836 1.308v.028c1.205 1.042 2.568.934 4.12.083 1.302-.712 2.457-2.05 3.23-3.452a4.1 4.1 0 0 0-2.005-.668Zm54.35.556c-.398.507-.615.979-.64 1.31-.034.455.095.807.445 1.14.657.625 2.084.894 3.536.112a1.8 1.8 0 0 0-.306-.752c-.445-.654-1.487-1.359-3.035-1.81Z"/></g><g filter="url(#F)" opacity=".325"><path fill="url(#G)" fill-rule="evenodd" d="M29.258 60.17c-2.215.654-9.394 3.367-8.375 5.44.976 1.984 17.668 2.784 20.23 8.7 1.118 2.58-2.563 4.527-1.631 7.18.718 2.042 6.27 7.174 9.783 9.6 2.755 1.904 6.374-1.532 4.9-4.38-2.347-4.536 8.025-10.093 12.726-12.617 2.744-1.472-5.656-8.701-5.656-8.701z" clip-rule="evenodd"/></g><path fill="url(#H)" fill-rule="evenodd" d="M30.077 62.174c1.988 1.46 5.913.58 8.27 1.641 5.657 2.548 12.612 5.387 11.332.36l-1.44 1.197-.028-2.28-3.343.817s-2.589-2.078-3.776-2.764c-.248-.143-1.522 1.152-1.522 1.152l-.229-1.375a42 42 0 0 0-4.735-.242c-3.458.027-5.79.568-4.53 1.494" clip-rule="evenodd"/><g filter="url(#I)" opacity=".478"><path fill="url(#J)" fill-rule="evenodd" d="M67.218 66.805c-.766 2.819 9.41 6.648 8.647 8.593-1.68 4.282-10.867 1.365-17.892 10.333-1.007 1.285 1.413 5.874 1.087 5.33s-2.813-4.335-2.175-6.2c1.999-5.85 21.324-8.03 17.783-10.823-2.036-1.605-9.356-6.041-7.45-7.233" clip-rule="evenodd"/></g><path fill="#fff" d="M90.113 72.598c0 .123-.117.24-.326.327a2.1 2.1 0 0 1-.789.135 2.1 2.1 0 0 1-.788-.135c-.209-.087-.326-.204-.326-.327s.117-.24.326-.327a2.1 2.1 0 0 1 .788-.135c.296 0 .58.048.789.135s.326.204.326.327m-7.45 8.538c0 .123-.075.24-.207.327a.93.93 0 0 1-.5.135.93.93 0 0 1-.5-.135c-.133-.087-.207-.204-.207-.327s.074-.24.207-.327a.93.93 0 0 1 .5-.135c.187 0 .367.048.5.135.132.087.207.204.207.327m-56.396-.408c0 .123-.132.24-.367.327a2.7 2.7 0 0 1-.884.135c-.332 0-.65-.049-.885-.135s-.366-.205-.366-.327.132-.24.366-.327c.235-.087.553-.135.885-.135s.65.048.884.135c.235.087.367.204.367.327" opacity=".586"/><path fill="url(#K)" d="M25.56 60.389c-6.373 3.941-16.282 5.376-5.439 7.994-1.291-2.876 2.797-2.559 5.439-7.994" opacity=".251"/><g filter="url(#L)" opacity=".363"><path fill="url(#M)" d="M48.183 96.282s9.83-.925 12.103-3.761c1.33-1.66-5.287-3.596-3.858-5.221 5.373-6.115 9.89-5.86 16.12-8.42 6.23-2.561 3.93-3.816 1.915-4.94-3.45-1.926-11.132-3.978-8.591-8.548 2.557-4.598 24.948-10.985 24.948-10.985 6.786-2.318 5.934-6.51 2.61-10.007L73.418 24.496s.994 18.877-3.045 26.974C65.381 61.476 38.81 72.641 49.924 73.876c3.915.435 5.795 1.771 7.396 4.786 3.296 6.208-9.137 17.62-9.137 17.62"/></g></g><defs><filter id="b" width="102.684" height="101.129" x="-1.435" y="-.565" color-interpolation-filters="sRGB" filterUnits="userSpaceOnUse"><feFlood flood-opacity="0" result="BackgroundImageFix"/><feBlend in="SourceGraphic" in2="BackgroundImageFix" result="shape"/><feGaussianBlur result="effect1_foregroundBlur_867_18908" stdDeviation=".718"/></filter><filter id="c" width="112.253" height="110.698" x="-6.22" y="-4.479" color-interpolation-filters="sRGB" filterUnits="userSpaceOnUse"><feFlood flood-opacity="0" result="BackgroundImageFix"/><feBlend in="SourceGraphic" in2="BackgroundImageFix" result="shape"/><feGaussianBlur result="effect1_foregroundBlur_867_18908" stdDeviation="3.11"/></filter><filter id="i" width="32.096" height="23.11" x="31.141" y="74.035" color-interpolation-filters="sRGB" filterUnits="userSpaceOnUse"><feFlood flood-opacity="0" result="BackgroundImageFix"/><feBlend in="SourceGraphic" in2="BackgroundImageFix" result="shape"/><feGaussianBlur result="effect1_foregroundBlur_867_18908" stdDeviation=".924"/></filter><filter id="l" width="36.327" height="17.686" x="63.496" y="49.697" color-interpolation-filters="sRGB" filterUnits="userSpaceOnUse"><feFlood flood-opacity="0" result="BackgroundImageFix"/><feBlend in="SourceGraphic" in2="BackgroundImageFix" result="shape"/><feGaussianBlur result="effect1_foregroundBlur_867_18908" stdDeviation="1"/></filter><filter id="o" width="11.904" height="6.772" x="84.408" y="70.904" color-interpolation-filters="sRGB" filterUnits="userSpaceOnUse"><feFlood flood-opacity="0" result="BackgroundImageFix"/><feBlend in="SourceGraphic" in2="BackgroundImageFix" result="shape"/><feGaussianBlur result="effect1_foregroundBlur_867_18908" stdDeviation=".454"/></filter><filter id="q" width="14.851" height="3.514" x="82.713" y="74.421" color-interpolation-filters="sRGB" filterUnits="userSpaceOnUse"><feFlood flood-opacity="0" result="BackgroundImageFix"/><feBlend in="SourceGraphic" in2="BackgroundImageFix" result="shape"/><feGaussianBlur result="effect1_foregroundBlur_867_18908" stdDeviation=".387"/></filter><filter id="t" width="5.174" height="5.455" x="79.909" y="79.623" color-interpolation-filters="sRGB" filterUnits="userSpaceOnUse"><feFlood flood-opacity="0" result="BackgroundImageFix"/><feBlend in="SourceGraphic" in2="BackgroundImageFix" result="shape"/><feGaussianBlur result="effect1_foregroundBlur_867_18908" stdDeviation=".299"/></filter><filter id="v" width="6.244" height="3.728" x="80.55" y="81.98" color-interpolation-filters="sRGB" filterUnits="userSpaceOnUse"><feFlood flood-opacity="0" result="BackgroundImageFix"/><feBlend in="SourceGraphic" in2="BackgroundImageFix" result="shape"/><feGaussianBlur result="effect1_foregroundBlur_867_18908" stdDeviation=".255"/></filter><filter id="z" width="10.419" height="5.437" x="20.228" y="79.146" color-interpolation-filters="sRGB" filterUnits="userSpaceOnUse"><feFlood flood-opacity="0" result="BackgroundImageFix"/><feBlend in="SourceGraphic" in2="BackgroundImageFix" result="shape"/><feGaussianBlur result="effect1_foregroundBlur_867_18908" stdDeviation=".369"/></filter><filter id="B" width="11.135" height="5.801" x="19.891" y="80.831" color-interpolation-filters="sRGB" filterUnits="userSpaceOnUse"><feFlood flood-opacity="0" result="BackgroundImageFix"/><feBlend in="SourceGraphic" in2="BackgroundImageFix" result="shape"/><feGaussianBlur result="effect1_foregroundBlur_867_18908" stdDeviation=".314"/></filter><filter id="D" width="98.784" height="97.243" x=".521" y=".509" color-interpolation-filters="sRGB" filterUnits="userSpaceOnUse"><feFlood flood-opacity="0" result="BackgroundImageFix"/><feBlend in="SourceGraphic" in2="BackgroundImageFix" result="shape"/><feGaussianBlur result="effect1_foregroundBlur_867_18908" stdDeviation=".291"/></filter><filter id="F" width="53.074" height="37.884" x="17.576" y="56.963" color-interpolation-filters="sRGB" filterUnits="userSpaceOnUse"><feFlood flood-opacity="0" result="BackgroundImageFix"/><feBlend in="SourceGraphic" in2="BackgroundImageFix" result="shape"/><feGaussianBlur result="effect1_foregroundBlur_867_18908" stdDeviation="1.604"/></filter><filter id="I" width="21.285" height="26.459" x="55.701" y="65.726" color-interpolation-filters="sRGB" filterUnits="userSpaceOnUse"><feFlood flood-opacity="0" result="BackgroundImageFix"/><feBlend in="SourceGraphic" in2="BackgroundImageFix" result="shape"/><feGaussianBlur result="effect1_foregroundBlur_867_18908" stdDeviation=".54"/></filter><filter id="L" width="53.534" height="76.607" x="44.822" y="22.086" color-interpolation-filters="sRGB" filterUnits="userSpaceOnUse"><feFlood flood-opacity="0" result="BackgroundImageFix"/><feBlend in="SourceGraphic" in2="BackgroundImageFix" result="shape"/><feGaussianBlur result="effect1_foregroundBlur_867_18908" stdDeviation="1.205"/></filter><linearGradient id="e" x1="65.899" x2="46.378" y1="10.393" y2="28.044" gradientUnits="userSpaceOnUse"><stop stop-color="#c0cdf9"/><stop offset="1" stop-color="#07092d" stop-opacity=".288"/></linearGradient><linearGradient id="f" x1="22.211" x2="44.69" y1="23.333" y2="45.812" gradientUnits="userSpaceOnUse"><stop stop-color="#fff"/><stop offset="1" stop-color="#fff" stop-opacity="0"/></linearGradient><linearGradient id="g" x1="46.344" x2="73.073" y1="10.023" y2="36.752" gradientUnits="userSpaceOnUse"><stop stop-color="#fff"/><stop offset="1" stop-color="#fff" stop-opacity="0"/></linearGradient><linearGradient id="n" x1="91.156" x2="91.215" y1="71.134" y2="74.113" gradientUnits="userSpaceOnUse"><stop stop-color="#fff"/><stop offset="1" stop-color="#fff" stop-opacity="0"/></linearGradient><linearGradient id="p" x1="91.274" x2="91.274" y1="70.793" y2="75.316" gradientUnits="userSpaceOnUse"><stop stop-color="#fff"/><stop offset="1" stop-color="#fff" stop-opacity="0"/></linearGradient><linearGradient id="s" x1="81.819" x2="83.285" y1="79.969" y2="82.56" gradientUnits="userSpaceOnUse"><stop stop-color="#fff"/><stop offset="1" stop-color="#fff" stop-opacity="0"/></linearGradient><linearGradient id="u" x1="81.267" x2="83.313" y1="79.052" y2="83.086" gradientUnits="userSpaceOnUse"><stop stop-color="#fff"/><stop offset="1" stop-color="#fff" stop-opacity="0"/></linearGradient><linearGradient id="y" x1="25.4" x2="25.901" y1="79.515" y2="81.635" gradientUnits="userSpaceOnUse"><stop stop-color="#fff"/><stop offset="1" stop-color="#fff" stop-opacity="0"/></linearGradient><linearGradient id="A" x1="25.424" x2="26.132" y1="79.254" y2="82.478" gradientUnits="userSpaceOnUse"><stop stop-color="#fff"/><stop offset="1" stop-color="#fff" stop-opacity="0"/></linearGradient><linearGradient id="G" x1="29.258" x2="54.492" y1="75.905" y2="82.577" gradientUnits="userSpaceOnUse"><stop stop-color="#fff"/><stop offset="1" stop-color="#fff" stop-opacity="0"/></linearGradient><linearGradient id="H" x1="42.634" x2="39.8" y1="60.565" y2="67.06" gradientUnits="userSpaceOnUse"><stop stop-color="#eeeeec"/><stop offset="1" stop-color="#eeeeec" stop-opacity="0"/></linearGradient><linearGradient id="K" x1="19.904" x2="23.874" y1="62.782" y2="65.936" gradientUnits="userSpaceOnUse"><stop stop-color="#fff"/><stop offset="1" stop-color="#fff" stop-opacity="0"/></linearGradient><linearGradient id="M" x1="66.375" x2="54.579" y1="79.967" y2="48.207" gradientUnits="userSpaceOnUse"><stop stop-color="#729fcf"/><stop offset="1" stop-color="#729fcf" stop-opacity="0"/></linearGradient><radialGradient id="h" cx="0" cy="0" r="1" gradientTransform="matrix(22.6717 0 0 15.1755 32.989 93.853)" gradientUnits="userSpaceOnUse"><stop stop-color="#fff"/><stop offset="1" stop-color="#fff" stop-opacity="0"/></radialGradient><radialGradient id="j" cx="0" cy="0" r="1" gradientTransform="matrix(28.9272 0 0 19.3627 44.942 94.397)" gradientUnits="userSpaceOnUse"><stop stop-color="#fff"/><stop offset="1" stop-color="#fff" stop-opacity="0"/></radialGradient><radialGradient id="k" cx="0" cy="0" r="1" gradientTransform="matrix(16.1628 0 0 6.84263 81.66 59.367)" gradientUnits="userSpaceOnUse"><stop stop-color="#fff"/><stop offset="1" stop-color="#fff" stop-opacity="0"/></radialGradient><radialGradient id="m" cx="0" cy="0" r="1" gradientTransform="matrix(16.1628 0 0 6.84263 85.08 61.254)" gradientUnits="userSpaceOnUse"><stop stop-color="#fff"/><stop offset="1" stop-color="#fff" stop-opacity="0"/></radialGradient><radialGradient id="r" cx="0" cy="0" r="1" gradientTransform="matrix(6.65092 0 0 .98264 90.139 76.178)" gradientUnits="userSpaceOnUse"><stop stop-color="#fff"/><stop offset="1" stop-color="#fff" stop-opacity="0"/></radialGradient><radialGradient id="w" cx="0" cy="0" r="1" gradientTransform="rotate(-26.886 218.96 -132.766)scale(2.87567 .98264)" gradientUnits="userSpaceOnUse"><stop stop-color="#fff"/><stop offset="1" stop-color="#fff" stop-opacity="0"/></radialGradient><radialGradient id="x" cx="0" cy="0" r="1" gradientTransform="matrix(10.7358 0 0 4.3704 24.854 70.569)" gradientUnits="userSpaceOnUse"><stop stop-color="#fff" stop-opacity=".33"/><stop offset="1" stop-color="#fff" stop-opacity="0"/></radialGradient><radialGradient id="C" cx="0" cy="0" r="1" gradientTransform="matrix(5.85458 -1.62218 .60694 2.1905 25.134 85.825)" gradientUnits="userSpaceOnUse"><stop stop-color="#fff"/><stop offset="1" stop-color="#fff" stop-opacity="0"/></radialGradient><radialGradient id="E" cx="0" cy="0" r="1" gradientTransform="matrix(84.0597 0 0 82.7332 53.828 11.715)" gradientUnits="userSpaceOnUse"><stop stop-color="#fff"/><stop offset="1" stop-color="#fff" stop-opacity="0"/></radialGradient><radialGradient id="J" cx="0" cy="0" r="1" gradientTransform="matrix(13.2104 0 0 16.7883 66.555 78.683)" gradientUnits="userSpaceOnUse"><stop stop-color="#fff"/><stop offset="1" stop-color="#fff" stop-opacity="0"/></radialGradient><clipPath id="a"><path fill="#fff" d="M0 0h100v100H0z"/></clipPath></defs></g></svg>