<svg xmlns="http://www.w3.org/2000/svg" fill="none" viewBox="0 0 512 512"><g transform="translate(30.72 30.72) scale(4.506)"><g clip-path="url(#a)"><path fill="#179de3" d="M0 39.999c0-14.001 0-21.002 2.725-26.35A25 25 0 0 1 13.65 2.724C18.998-.001 26-.001 40-.001h20c14.001 0 21.002 0 26.35 2.725a25 25 0 0 1 10.925 10.925C100 18.997 100 25.999 100 39.999v20c0 14.001 0 21.002-2.725 26.35A25 25 0 0 1 86.35 97.274C81.002 99.999 74 99.999 60 99.999H40c-14 0-21.002 0-26.35-2.725A25 25 0 0 1 2.725 86.349C0 81.001 0 73.999 0 59.999z"/><path fill="#fff" d="M77.48 34.618a16.78 16.78 0 0 1-9.89-9.89 16.8 16.8 0 0 1-9.892 9.89 16.8 16.8 0 0 1 9.89 9.891 16.8 16.8 0 0 1 9.892-9.89"/><path fill="#fff" d="M50.122 24.999h-25v50h49.99v-25l-24.99 24.99z"/></g><defs><clipPath id="a"><path fill="#fff" d="M0 0h100v100H0z"/></clipPath></defs></g></svg>