<svg xmlns="http://www.w3.org/2000/svg" fill="none" viewBox="0 0 512 512"><g transform="translate(30.72 30.72) scale(4.506)"><g clip-path="url(#a)"><path fill="#ffd02f" d="M21.663-.001h56.674C90.293-.001 100 9.706 100 21.662v56.674c0 11.956-9.707 21.663-21.663 21.663H21.663C9.707 99.999 0 90.292 0 78.336V21.662C0 9.706 9.707 0 21.663 0"/><path fill="#050038" d="M69.488 12.488h-10.98l9.145 16.07-20.124-16.07h-10.98l10.062 19.65-21.041-19.65H14.59l10.98 25.007L14.59 87.51h10.98l21.04-53.596L36.55 87.51h10.98l20.124-57.147-9.145 57.147h10.98l20.124-62.533z"/></g><defs><clipPath id="a"><path fill="#fff" d="M0 0h100v100H0z"/></clipPath></defs></g></svg>