<svg xmlns="http://www.w3.org/2000/svg" fill="none" viewBox="0 0 512 512"><g transform="translate(30.72 30.72) scale(4.506)"><g clip-path="url(#a)"><path fill="#346598" d="m29.945.109 56.872 10.648c.603.113 1.086.825 1.086 1.598v75.368c0 .773-.483 1.486-1.086 1.6L29.945 99.97c-2.922.03-1.775-.469-1.775-1.463V1.572c0-.995-.697-1.832 1.775-1.463"/><path fill="#28527a" d="M28.863.022c-1.154.037-.694.742-.694 1.55v96.936c0 .994-1.146 1.494 1.775 1.463l6.515-1.22V1.329L29.943.11a6 6 0 0 0-1.08-.088"/><path fill="#1a344e" d="M28.467 0c-5.77.006-11.483 1.453-15.282 4.495-.802.688-1.087 1.203-1.087 2.094v86.825c0 .89.27 1.188 1.238 1.984 3.57 2.72 9.336 4.61 15.132 4.603.967-.007 1.528-.34 1.528-1.338V1.338c0-.998-.452-1.352-1.528-1.337z"/><path fill="#d4d4d4" d="m23.723 39.895-.797.05v.37q0 .255-.095.363-.085.12-.286.131l-4.494.26q-.2.012-.288-.094-.09-.093-.09-.34v-.36l-.728.048v2.938l.728-.031v-.36q0-.234.09-.35t.278-.125l5.682-.28zm-.15 19.763-.976-.059v1.44l.976.068zm-.01-15.969-.787.031v.267q0 .37-.094.527-.084.156-.336.228l-5.401 1.656v1.082l3.695 1.386-3.695 1.467v1.07l5.4 1.563q.253.068.336.223.096.155.095.524v.282l.787.019v-1.963l-4.802-1.292 3.647-1.37v-1.07l-3.647-1.304 4.802-1.35zm-.267 20.83-.36-1.386-1.135-.094v-.989l-.748-.056v.984l-2.664-.218q-.785-.065-1.189.42-.402.481-.402 1.501 0 .652.147 1.145.147.495.422.932l.754.082v-1.127l-.427-.044q-.188-.303-.188-.846 0-.42.188-.612.188-.18.626-.141l2.733.246v1.818l.748.077v-1.828zm-1.339-47.624q0-.786-.209-1.3a1.87 1.87 0 0 0-.643-.833l.696-.232v-1.623l-.78.182v.266q0 .25-.092.375-.082.12-.29.166l-2.598.596q-.198.046-.287-.045-.08-.08-.08-.328v-.308l-.73.17v2.816l.73-.157v-.321q0-.234.08-.352a.5.5 0 0 1 .287-.15l2.035-.45q.534-.116.832.234.3.352.3.996 0 .593-.238.908-.227.313-.74.417l-3.285.672v2.114l.728-.14v-.345q0-.246.08-.374a.46.46 0 0 1 .29-.156l2.198-.43c1.14-.223 1.716-1.014 1.716-2.368m0 6.692q0-1.563-.708-2.22-.692-.644-1.924-.413-1.206.224-1.869 1.112-.658.882-.658 2.38 0 1.5.658 2.16.663.668 1.869.492 1.232-.181 1.924-1.068.707-.88.708-2.443m0 12.58q-.021-1.417-.687-2.137-.672-.725-1.996-.584-1.225.13-1.858 1.036-.62.911-.618 2.31 0 .811.147 1.39a3.8 3.8 0 0 0 .432 1.089l.693-.048V38.07l-.357.028a2 2 0 0 1-.187-.566 5.5 5.5 0 0 1-.05-.785q0-.825.376-1.356.387-.52 1.2-.6v4.575l.466-.032q1.11-.076 1.773-.854.666-.786.666-2.22zm0 34.55q-.021-1.42-.687-2.285-.672-.871-1.996-1.019-1.225-.136-1.858.633-.62.775-.618 2.176 0 .81.147 1.42.137.624.432 1.184l.693.102v-1.151l-.357-.051a2.5 2.5 0 0 1-.187-.606 5.5 5.5 0 0 1-.05-.797q0-.826.376-1.275.387-.435 1.2-.338v4.575l.466.07q1.11.165 1.773-.47.666-.64.666-2.075zm-.156-44.097-.717.105v.266q0 .315-.062.437a.43.43 0 0 1-.216.22l-3.861 2.246v1.352l3.86 1.256q.165.057.217.165.063.12.062.422v.279l.717-.076V31.53l-3.819-1.09 3.819-2.056zm0 27.437-.769-.019v.266q0 .24-.094.337-.09.099-.287.093l-2.61-.079q-.199-.005-.288-.12-.079-.1-.08-.347v-.31l-.728-.017v2.816l.728.032V56.4q0-.234.08-.331.09-.095.288-.088l1.923.074q.543.021.8.333.268.313.268 1.033v.707l.769.04v-.584a3.3 3.3 0 0 0-.125-.957c-.08-.26-.236-.49-.447-.662l.572-.157zm0 4.694-.78-.042v.365q0 .253-.092.348-.083.11-.278.097l-2.6-.157q-.2-.01-.288-.128-.09-.105-.09-.351v-.358l-.728-.04v2.938l.728.055v-.36q0-.234.09-.338.09-.106.278-.093l3.76.258zm0 15.858-.769-.12v.265q0 .24-.094.326-.09.087-.287.055l-2.61-.416q-.199-.03-.288-.156-.079-.112-.08-.36v-.308l-.728-.112v2.815l.728.126v-.308q0-.235.08-.32.09-.086.288-.05l1.923.321q.543.091.8.438.268.348.268 1.068v.706l.769.139v-.584q0-.544-.125-.972a1.64 1.64 0 0 0-.447-.721l.572-.082zm-.594-38.297c0 1.07-.502 1.643-1.497 1.72v-3.305q.695-.069 1.095.334.403.405.402 1.25m0 34.387q-.001 1.605-1.496 1.395v-3.305q.694.083 1.095.573.402.492.402 1.337m-.029-46.982q0 .91-.464 1.426-.453.511-1.387.656-.918.141-1.354-.223-.437-.363-.436-1.253 0-.888.436-1.396.438-.5 1.354-.662.934-.166 1.387.182.464.36.464 1.27"/><path fill="#ededed" d="m43.341 50.739 1.914-.005q1.511-.004 2.109-.653.67-.726.67-2.337V27.032q0-1.612-.596-2.317-.597-.789-2.107-.948l-1.605-.167v-6.15l9.472 1.221.427 5.334c1.598-2.073 3.383-3.47 5.345-4.205 1.975-.767 4.311-.965 6.985-.607 6.626.886 9.799 5.273 9.799 13.198V48q0 1.432.469 2.076.524.57 1.68.568l1.598-.005v5.21l-10.205.273V31.947q0-3.683-1.312-5.442c-.883-1.232-2.328-1.961-4.354-2.185-2.24-.247-4.118.288-5.614 1.624-1.515 1.351-2.28 3.388-2.28 6.095v15.777q0 1.562.487 2.264.555.624 1.861.618l1.766-.004v5.68l-16.508.442z"/></g><defs><clipPath id="a"><path fill="#fff" d="M0 0h100v100H0z"/></clipPath></defs></g></svg>