<svg xmlns="http://www.w3.org/2000/svg" fill="none" viewBox="0 0 512 512"><g transform="translate(23.453 23.453) scale(4.651)"><path fill="#000" d="M50 98.438c26.751 0 48.438-21.687 48.438-48.438S76.75 1.563 50 1.563 1.563 23.249 1.563 50 23.249 98.438 50 98.438"/><path fill="#fff" d="m28.125 55.234-12.031 1.172c.703 3.047 2.266 5.468 4.766 7.187 2.422 1.64 6.562 2.5 12.422 2.5 4.062 0 7.343-.547 9.765-1.562 2.344-1.016 4.14-2.422 5.235-4.219 1.093-1.797 1.64-3.594 1.64-5.469s-.547-3.515-1.562-5.078c-1.016-1.562-2.578-2.734-4.532-3.594-1.953-.859-5-1.484-9.062-1.953-2.656-.312-4.375-.703-5.234-1.094-.782-.39-1.172-1.015-1.172-1.796 0-.704.312-1.329.937-1.797q.937-.703 3.047-.703c1.328 0 2.5.312 3.438.937.703.469 1.171 1.25 1.484 2.266l11.562-1.172c-.78-2.11-1.797-3.75-3.047-5-1.171-1.25-2.734-2.188-4.53-2.735-1.798-.625-4.61-.859-8.438-.859-3.594 0-6.485.39-8.594 1.172-2.11.781-3.828 1.875-5 3.438-1.25 1.562-1.797 3.359-1.797 5.468 0 1.953.547 3.672 1.719 5.235 1.094 1.562 2.5 2.578 4.14 3.203 1.641.625 4.61 1.328 8.829 2.11 2.812.468 4.609.937 5.234 1.25.938.468 1.328 1.171 1.328 2.108 0 .782-.312 1.485-1.015 1.954-.938.703-2.188 1.093-3.829 1.093-1.484 0-2.656-.312-3.593-.937-.938-.625-1.641-1.64-2.11-3.125m24.297-6.406c0-9.61 7.578-17.344 18.125-17.344 4.922 0 8.594 1.172 10.86 2.187l.156.078v8.282l-.469-.235c-2.11-.937-5.312-2.187-9.844-2.187-3.125 0-5.547 1.094-7.187 2.734s-2.5 3.906-2.5 6.328c0 4.922 3.437 9.141 9.218 9.141 1.094 0 2.266-.156 3.125-.312v-8.438h8.75v14.453l-.156.078c-3.203 1.563-7.578 2.5-11.719 2.5-10.859.078-18.359-7.5-18.359-17.265"/></g></svg>