<svg xmlns="http://www.w3.org/2000/svg" fill="none" viewBox="0 0 512 512"><g transform="translate(31.16 30.72) scale(4.506)"><g fill-rule="evenodd" clip-path="url(#a)" clip-rule="evenodd"><path fill="#36c5f0" d="M36.591-.001c-5.517.004-9.981 4.481-9.977 9.998-.004 5.517 4.464 9.994 9.981 9.998h9.982V10C46.58 4.484 42.112.007 36.59 0q.006 0 0 0m0 26.667H9.981C4.466 26.67-.003 31.146 0 36.664c-.008 5.516 4.46 9.993 9.978 10.002H36.59c5.517-.004 9.986-4.481 9.982-9.998.004-5.521-4.465-9.998-9.982-10.002"/><path fill="#2eb67d" d="M99.8 36.664c.004-5.517-4.465-9.994-9.981-9.998-5.517.004-9.986 4.48-9.982 9.998v10.002h9.981c5.517-.004 9.986-4.481 9.982-10.002m-26.614 0V9.997c.005-5.513-4.46-9.99-9.977-9.998-5.517.004-9.986 4.481-9.982 9.998v26.667c-.008 5.516 4.461 9.993 9.978 10.002 5.517-.004 9.986-4.481 9.981-10.002"/><path fill="#ecb22e" d="M63.205 99.999c5.517-.004 9.986-4.481 9.982-9.998.004-5.517-4.465-9.994-9.982-9.998h-9.982V90c-.004 5.513 4.465 9.99 9.982 9.998m0-26.67h26.614c5.516-.005 9.985-4.482 9.981-9.999.008-5.517-4.46-9.994-9.977-10.002H63.209c-5.517.004-9.986 4.481-9.982 9.998-.004 5.521 4.461 9.998 9.978 10.002"/><path fill="#e01e5a" d="M0 63.33c-.004 5.517 4.465 9.994 9.982 9.998 5.517-.004 9.986-4.481 9.982-9.998v-9.998H9.982C4.465 53.336-.004 57.813 0 63.33m26.614 0v26.667c-.008 5.516 4.46 9.993 9.978 10.002 5.516-.004 9.985-4.481 9.981-9.998V63.338c.008-5.517-4.46-9.994-9.977-10.002-5.521 0-9.986 4.477-9.982 9.994"/></g><defs><clipPath id="a"><path fill="#fff" d="M0 0h100v100H0z"/></clipPath></defs></g></svg>