<svg xmlns="http://www.w3.org/2000/svg" fill="none" viewBox="0 0 512 512"><g transform="translate(30.72 30.72) scale(4.506)"><path fill="#36697f" d="m18.116.014 71.289 15.61h7.714V100h-80.86a5.08 5.08 0 0 1-5.078-5.078v-21.26L17.965.234z"/><path fill="#37a5cc" d="M18.116 0h66.992a5.08 5.08 0 0 1 5.078 5.078v65.235h-72.07z"/><path fill="#7dc6dd" d="M18.116 70.313V0L2.88 9.18v70.312z"/><path fill="#fff" d="M53.54 14.844c-9.241 0-14.419 5.344-14.696 11.3h9.128c.223-2.45 1.727-4.509 5.01-4.509 2.84 0 4.564 1.28 4.564 3.84v1.337c0 3.229-2.838 4.12-5.622 4.12h-3.006v6.512h3.006c2.784 0 7.014.724 7.014 4.954v1.17c0 3.505-2.226 5.12-5.622 5.12-3.896 0-5.511-2.226-5.79-4.565H38.4c.612 5.735 4.509 11.468 15.42 11.468 8.515 0 14.805-4.62 14.805-10.91v-2.617c0-5.066-4.62-7.682-8.46-8.35 3.84-.89 6.958-3.729 6.958-7.013v-2.116c0-5.733-5.679-9.741-13.583-9.741M32.265 77.238v14.766h3.164V82.09l2.615 9.914h3.48v-.02l2.469-9.514v9.535h3.5V77.239H42.98l.02.041-3.121 11.813-2.974-11.855zm21.342 0-4.219 14.766h3.67l.823-3.227h4.43l.906 3.227h3.756l-4.451-14.766zm10.89 0 4.176 6.961-4.661 7.805h4.05l2.89-5.568 2.847 5.569h4.156l-4.662-8.121 4.198-6.645h-3.903l-2.552 4.703h-.021l-2.49-4.703zm-8.443 2.427 1.539 6.37h-3.037z"/></g></svg>