<svg xmlns="http://www.w3.org/2000/svg" fill="none" viewBox="0 0 512 512"><g transform="translate(30.72 30.72) scale(4.506)"><g clip-path="url(#a)"><path fill="#1558bc" d="M0 25C0 11.193 11.193 0 25 0h50c13.807 0 25 11.193 25 25v50c0 13.807-11.193 25-25 25H25C11.193 100 0 88.807 0 75z"/><path fill="#fff" d="M40.303 75c1.945 0 3.522-1.535 3.522-3.434V28.434c0-1.896-1.575-3.434-3.522-3.434H25.397c-1.944 0-3.522 1.535-3.522 3.434v43.132c0 1.896 1.575 3.434 3.522 3.434zm34.3-19.802c1.944 0 3.522-1.535 3.522-3.433V28.434c0-1.896-1.575-3.434-3.522-3.434H59.697c-1.945 0-3.522 1.535-3.522 3.434v23.33c0 1.896 1.575 3.434 3.522 3.434z"/></g><defs><clipPath id="a"><path fill="#fff" d="M0 0h100v100H0z"/></clipPath></defs></g></svg>