<svg xmlns="http://www.w3.org/2000/svg" fill="none" viewBox="0 0 512 512"><g transform="translate(27.144 27.144) scale(4.577)"><g clip-path="url(#a)"><path fill="#4353ff" d="M.777.777v98.447h98.447V.777zm56.187 32.59s3.116 23.481 3.116 24.565l4.52-14.156h-.032c1.994-5.36 5.921-10.409 13.4-10.409L67.372 58.953a14.3 14.3 0 0 1-5.21 7.231 14.46 14.46 0 0 1-8.5 2.776s-3.117-21.994-3.117-22.49L45.87 58.552C43.783 63.91 39.733 68.96 32.254 68.96l-5.86-35.56a11.7 11.7 0 0 1 7.663 3.113 11.56 11.56 0 0 1 3.65 7.386s.779 13.042.779 14.063l5.516-14.187c1.994-5.36 5.795-10.408 12.962-10.408"/></g><defs><clipPath id="a"><path fill="#fff" d="M0 0h100v100H0z"/></clipPath></defs></g></svg>