<svg xmlns="http://www.w3.org/2000/svg" fill="none" viewBox="0 0 512 512"><g transform="translate(30.72 30.72) scale(4.506)"><g clip-path="url(#a)"><path fill="#5468ff" d="M13.167-.001h73.666C94.083-.001 100 5.886 100 13.165v73.671C100 94.086 94.112 100 86.833 100H13.167C5.917 99.999 0 94.115 0 86.836V13.132C0 5.886 5.883-.001 13.167-.001"/><path fill="#fff" d="M60.421 22.323v-3.43a4.34 4.34 0 0 0-4.342-4.337H45.96a4.34 4.34 0 0 0-4.342 4.337v3.521c0 .392.362.667.758.575a31.6 31.6 0 0 1 8.809-1.241c2.887 0 5.745.391 8.508 1.15a.586.586 0 0 0 .729-.575M32.684 26.81l-1.73-1.73a4.34 4.34 0 0 0-6.137 0l-2.067 2.063a4.32 4.32 0 0 0 0 6.13l1.7 1.7c.275.27.671.208.913-.063a33 33 0 0 1 3.312-3.883 31.4 31.4 0 0 1 3.917-3.334c.303-.183.333-.608.092-.883m18.47 10.888V52.53c0 .425.458.73.85.517l13.187-6.825c.3-.15.392-.517.242-.817a16.4 16.4 0 0 0-13.671-8.283c-.304 0-.608.241-.608.575m0 35.733c-10.996 0-19.93-8.92-19.93-19.9s8.934-19.896 19.93-19.896c11 0 19.93 8.917 19.93 19.896s-8.9 19.9-19.93 19.9m0-48.167c-15.617 0-28.284 12.65-28.284 28.267 0 15.62 12.667 28.242 28.284 28.242s28.283-12.65 28.283-28.271-12.638-28.238-28.283-28.238"/></g><defs><clipPath id="a"><path fill="#fff" d="M0 0h100v100H0z"/></clipPath></defs></g></svg>