<svg xmlns="http://www.w3.org/2000/svg" fill="none" viewBox="0 0 512 512"><g transform="translate(30.72 30.72) scale(4.506)"><path fill="#3f00a5" d="M74.982 20.977c-6.186 2.065-9.165 5.768-11.194 11.537-.524 1.54-1.833 3.245-3.306 4.392l5.073 5.44-16.104-11.274L5 0s3.208 20.846 4.32 28.515c.786 5.408 2.128 7.834 6.384 10.292l1.702.918 7.332 3.867-4.354-2.261 20.098 10.98-.13.295-21.637-10.03c1.146 3.933 3.371 11.505 4.32 14.848 1.015 3.605 2.161 4.916 5.663 6.194l6.449 2.36 3.993-1.573-5.074 3.376L8.7 100c16.857-15.667 31.128-21.239 41.57-25.795 13.322-5.769 21.342-9.472 26.579-22.78 3.731-9.34 6.645-21.304 10.343-25.925l7.889-10.095s-16.333 4.326-20.098 5.572"/></g></svg>