<svg xmlns="http://www.w3.org/2000/svg" fill="none" viewBox="0 0 512 512"><g transform="translate(30.72 28.96) scale(4.506)"><g fill="#850000" clip-path="url(#a)"><path d="M54.592 31.075c-1.314.055-3.536.408-3.536.557 0 .062 1.566.846 1.686.846.11 0 1.927.907 2.33 1.158.528.337.905.643.794.643-.07 0-1.936-.722-2.643-1.026-.576-.242-2.969-.956-4.133-1.231a32 32 0 0 0-1.97-.399c-1.581-.288-3.44-.306-4.25-.04-1.158.377-1.418.84-1.418 2.546 0 .941.046 1.339.251 2.184.09.368.34 1.177.457 1.45.034.086.144.353.236.588.094.233.38.836.63 1.33 1.41 2.797 3.52 5.129 6.496 7.18.938.643 3.486 1.863 4.51 2.155.26.07.346.217.134.217-.235 0-2.392-.594-2.833-.781a8 8 0 0 0-.512-.206c-1.535-.619-3.495-1.893-5.116-3.342a16.8 16.8 0 0 1-4.167-5.692c-.622-1.404-1.044-3.039-1.149-4.464-.06-.815-.125-1.011-.337-1.002-.07 0-.741-.024-1.48-.064-2.01-.086-4.754.135-7.472.604-5.196.885-10.802 2.928-16.571 6.044a75 75 0 0 0-3.615 2.092c-.313.196-.683.414-.818.5-.298.175-3.597 2.414-3.992 2.711-.147.107-.557.413-.903.665C3.634 47.456.225 50.238.029 50.52c-.095.141.055.212.257.141a3.5 3.5 0 0 1 .585-.125c.22-.035.788-.181 1.26-.338.478-.15.992-.306 1.14-.346 1.167-.273 1.639-.368 2.321-.47.31-.038.766-.109 1.024-.149 3.198-.469 4.724-.585 6.148-.478 3.094.25 6.054.778 7.748 1.378 1.268.457 3.848 1.851 4.982 2.687.656.494 2.763 2.592 3.23 3.226.36.503.761.941.856.941.032 0 .07-1.6.08-3.548l.021-3.539 4.143-.023c3.26-.016 4.163.008 4.219.078.079.102.269.44.89 1.588a98 98 0 0 0 1.064 1.957c.094.175.312.58.497.901.17.322.492.916.713 1.323.22.408.401.754.401.77 0 .07.325.493.38.493.031 0 .11-.12.165-.25a10 10 0 0 1 .363-.69c.14-.236.392-.696.566-1.017.175-.322.41-.769.536-.98.346-.62.708-1.29 1.008-1.84q.479-.908.984-1.801a4 4 0 0 1 .266-.454c.065-.07.992-.095 4.348-.08l4.258.025.024 6.915c.015 5.447.037 6.905.117 6.905.046-.01.361-.19.686-.417.456-.318.652-.514.864-.876.48-.821 1.844-2.114 2.757-2.616a13 13 0 0 1 3.542-1.329c1.258-.267 1.63-.306 4.488-.408 5.217-.18 5.99-.212 6.03-.25.023-.022-.046-.227-.15-.463-.11-.227-.299-.65-.433-.931-.496-1.072-.496-1.432.024-1.958.353-.369 1.266-.69 2.834-1.002.258-.055.583-.126.714-.171.135-.04.3-.07.37-.07.2 0 1.765-.384 2.096-.51.228-.094 1.456-.36 2.92-.643a993 993 0 0 0 3.661-.73c.867-.17 1.771-.351 2.007-.398.236-.045.576-.116.748-.147.174-.039.4-.088.511-.104.11-.02.662-.132 1.222-.248q.63-.137 1.266-.245c.395-.037 3.364-.75 4.047-.971 1.088-.353 1.41-.493 2.095-.953.738-.502.944-.775 1.676-2.234.812-1.62.928-1.893 1.158-2.576.353-1.087.331-1.501-.12-1.958-.315-.312-.992-.633-1.485-.704-.37-.046-.42-.031-.6.165-.111.117-.206.258-.206.306 0 .071-.125.415-.478 1.26-.034.086-.104.297-.16.468a5 5 0 0 1-.196.55c-.1.219-.11.18-.07-.43.04-.604.141-1.112.37-1.881.04-.147.096-.398.118-.555l.039-.282-.818-.327a91 91 0 0 1-2.006-.849c-.145-.051-.497-.193-.788-.303-.3-.11-.662-.251-.811-.322q-.411-.18-.828-.342c-.527-.206-2.368-.831-3.937-1.324a359 359 0 0 0-3.146-.95q-.555-.14-1.103-.304c-.125-.033-.435-.119-.67-.18-1.386-.383-1.747-.479-2.244-.62a20 20 0 0 0-.827-.22c-.15-.036-.556-.131-.903-.217-.607-.15-3.15-.735-4.529-1.051l-.983-.227c-.174-.04-.486-.101-.707-.141a42 42 0 0 1-.987-.196c-.322-.06-1.014-.196-1.535-.282l-1.376-.241c-2.174-.392-2.321-.414-6.219-.846-2.401-.273-5.631-.502-6.418-.462-.125 0-.823.03-1.541.07m-9.102 3.86c2.08.674 4.102 1.59 5.487 2.484 1.103.712 2.472 1.848 2.843 2.356l.156.212-.297-.117a20 20 0 0 1-.772-.346c-1.385-.643-1.534-.695-1.534-.554 0 .037.321.554.707 1.133.395.588.707 1.106.707 1.153 0 .04-.146-.025-.33-.15-.708-.485-2.37-1.183-2.463-1.042-.025.04.486.688 1.142 1.448.644.76 1.18 1.41 1.18 1.46 0 .115-.126.1-.723-.12-.616-.218-.772-.242-.772-.092 0 .1 1.33 1.893 1.857 2.512.15.171.269.337.269.376 0 .187-1.844-1.01-3.15-2.043-1.866-1.489-3.67-3.486-4.619-5.137-.782-1.35-1.048-2.075-1.048-2.875 0-.468.022-.563.196-.729.102-.107.23-.196.276-.196s.44.12.888.267m24.855 2.788c.754.135 1.786.313 2.282.401.497.087 1.103.187 1.34.227.235.046.572.107.747.147.172.04.512.11.748.165.778.173.968.212 2.242.51 1.37.32 1.67.382 2.086.467.356.07.708.206.708.267 0 .025-.257.175-.573.337-.646.322-.78.346-3.44.447-1.81.077-2.78.055-3.661-.086-1.78-.274-2.7-.774-3.416-1.856-.251-.367-.416-.478-.993-.625-.212-.064-.536-.15-.707-.205a38 38 0 0 0-.662-.196c-.567-.147-.245-.233.898-.233.786 0 1.338.052 2.401.233m9.47 10.94a.4.4 0 0 1-.196 0c-.055-.024-.016-.04.094-.04.108 0 .148.016.103.04zm-.34.092c0 .04-.092.094-.212.12-.244.06-1.204.337-1.519.437-.11.04-.466.15-.787.243-.812.236-2.779.876-3.306 1.081-.993.377-3.324 1.612-3.652 1.943-.49.477-.64.992-.567 1.978.022.417.077.942.126 1.167.095.495.039.629-.15.384-.19-.242-.591-1.118-.708-1.55-.065-.193-.134-.454-.174-.58-.141-.444-.087-.971.135-1.29.297-.456 1.369-1.182 2.628-1.785.597-.291 2.337-.886 3.937-1.355.321-.094.677-.205.787-.235 1.134-.384 3.462-.751 3.462-.558m-24.898.527c-.025.022-.095.031-.15.006-.065-.021-.04-.046.046-.046.088-.009.135.016.104.04"/><path d="M38.066 64.426v5.48h3.922c2.944 0 3.942-.023 4.013-.094.12-.117.144-10.867.024-10.867-.039 0-.094.061-.119.132-.031.07-.889 1.41-1.912 2.975-1.62 2.475-2.07 3.078-2.07 2.772 0-.055-2.684-4.243-3.37-5.255a3 3 0 0 1-.243-.413c-.064-.12-.141-.212-.18-.212-.034 0-.065 2.467-.065 5.482"/></g><defs><clipPath id="a"><path fill="#fff" d="M0 0h100v100H0z"/></clipPath></defs></g></svg>