<svg xmlns="http://www.w3.org/2000/svg" fill="none" viewBox="0 0 512 512"><g transform="translate(30.72 30.72) scale(4.506)"><path fill="#00bd9f" d="M27.541 92.576C12.48 89.28.884 75.965.126 61.098L0 57.875l3.902.007c3.484.006 3.9-.063 3.7-.703-1.907-6.062-1.38-13.528 1.82-19.711 3.26-6.302 1.729-6.013 7.998-1.347 4.638 3.451 5.137 3.562 5.307 2.703.101-.513.418-2.142.704-3.62.287-1.477 1.32-4.28 2.299-6.227l1.777-3.541-2.002-1.47c-3.67-2.694-7.205-8.163-8.915-13.794-1.156-3.803-.742-4.282 2.008-2.325 6.179 4.398 12.4 5.89 26.738 6.409 4.323.156 8.937.555 10.338.893 5.725 1.381 11.4 5.021 14.898 9.555 1.567 2.03 2.012 2.345 3.635 2.568 1.017.139 3.015.656 4.44 1.149l2.589.896c12.698-13.993 8.95 9.734 11.941 27.852-1.904 1.81-6.336 4.562-7.347 4.562-.83 0-5.056-4.416-6.444-6.694-.7-1.148-.716-1.26-1.04-1.912-.379.146-2.523.828-3.684 1.048-1.16.22-2.169.576-2.242.79-.072.212-.754 1.206-1.515 2.206-1.155 1.518-1.44 1.267-1.642 4.774-.716 12.422-9.725 24.044-21.304 28.72-6.443 2.604-14.02 3.313-20.418 1.913m13.91-1.554c12.486-2.566 22.198-11.899 25.396-24.4.469-1.836.786-4.277.853-5.42.246-4.183.297-2.534 2.266-5.524 1.245-1.892 2.597-4.336 3.004-5.43l.74-1.987-1.09-1.296c-1.667-1.98-1.96-3.791-1.964-12.079l-.002-7.646-1.675-2.103c-3.036-3.813-8.07-7.058-12.981-8.367-1.538-.41-5.85-.787-11.717-1.025-12.278-.496-17.645-1.564-23.325-4.64-1.291-.7-2.437-1.182-2.547-1.072-.337.336 1.218 4.09 2.768 6.68 3.293 5.505 8.192 8.836 14.289 9.714 2.468.355 3.083.292 3.018 1.105-.082 1.018-3.825.24-7.061-.408-1.314-.263-2.433-.695-2.583-.602-.744.46-3.432 6.763-3.973 9.313-1.115 5.264-2.004 4.169 10.699 13.184 6.23 4.42 11.568 8.328 11.862 8.682.438.526.177.823-.086.883-1.35.306-5.045-2.909-17.572-11.81-9.324-6.625-17.037-12.049-17.143-12.049-.378 0-2.654 4.897-3.32 7.145-1.163 3.914-1.289 3.83 3.644 3.917 4.201.075 4.32-.09 4.325.753.006.882-.838.656-4.536.754l-4.536.119v4.592l6.857.116c6.602.111 6.858-.19 6.856.749 0 .88-1.07.652-6.645.75-7.558.131-7.163-.128-5.973 3.92 1.94 6.603 6.973 12.72 13.063 15.875 1.844.957 4.208 1.971 5.252 2.254 5.194 1.407 11.781 1.207 16.419-.499 3.5-1.287 3.991-1.59 4.261-.663.19.65-.92 1.017-2.085 1.518-6.163 2.651-14.32 2.868-20.61.549-7.023-2.592-12.48-7.383-15.82-13.891l-1.786-3.48L4.68 59.2H1.37l.304 2.637c.961 8.317 4.352 15.099 10.42 20.839 7.89 7.461 18.704 10.536 29.357 8.347m13.818-45.54c-2.518-.655-4.971-3.051-5.735-5.6-1.937-6.467 4.721-12.567 10.901-9.986 3.299 1.377 5.264 4.185 5.293 7.562.049 5.63-4.945 9.46-10.46 8.025m5.273-2.001c2.46-1.24 3.926-3.89 3.645-6.588-.481-4.62-5.517-7.326-9.828-5.28-4.2 1.992-4.736 8.384-.945 11.242 2.395 1.806 4.434 1.985 7.128.626m-5.47-3.96c-1.242-1.578-1.03-3.572-.49-3.144 1.537 1.222 2.524-.48 2.024-1.256-.5-.778.07-.817.821-.817 1.07 0 3.02 1.578 3.129 2.53.26 2.306-.984 3.8-3.163 3.8-1.06 0-1.68-.298-2.321-1.112M76.455 51.82c1.065-.306 1.126-.542.539-2.087-.583-1.533-1.578-1.342-2.326.446-.824 1.97-.805 2.372.1 2.12a228 228 0 0 0 1.688-.479m13.61-5.612c0-1.589-1.347-5.818-2.602-8.172-2.461-4.62-7.985-8.49-12.954-9.079l-2.168-.256v7.464c0 7.805.3 9.349 2.005 10.342.423.247 3.93.435 8.228.443 6.92.011 7.49-.045 7.49-.742"/><path fill="#e6e7e8" d="M85.819 61.778c.072-.64 1.026-.474 1.614-.713.377-.153-2.087 5.685-2.217 5.814.014-.332.459-3.814.603-5.101"/><path fill="#bcbec0" d="M85.216 66.88c-.514-1.94-.924-4.18-.829-6.126 1.217.704 1.6-.059 1.46.933-.132.932-.535 4.699-.63 5.192"/><path fill="#05bf9d" d="M89.863 38.272c-.427-.937-.96-4.522-.414-7.19.157-.768-.104-.973-1.781-1.395-1.08-.272-2.621-.769-3.423-1.104-1.21-.505-1.37-.714-.945-1.226.672-.81 3.35-2.82 4.623-3.355l2.388-1.004-.383 3.112c-.543 4.416-.716 4.105 2.482 4.044a38 38 0 0 0 4.168-.479c1.278 2.755 1.33 2.809 2.879 7.073-.164.345-.801.267-1.868.738-1.08.479-3.431 1.196-5.03 1.367-2.814.3-2.237.425-2.696-.58"/><path fill="#05b697" d="M91.752 45.57c.007-.818-.352-2.62-.783-4.003l-.784-2.517 2.155-.226c1.185-.124 3.01-.54 4.054-.924 1.921-.708 2.495-.952 3.062-1.153.746 2.743.589 5.567.323 7.353-2.352 1.386-2.653 1.46-6.445 2.66l-1.597.482zm-5.908-12.583c-1.5-1.544-3.018-2.784-3.471-3.024-.354-.187-.654-.469-1.13-.639q.628-.63 1.302-1.207c2.351.98 2.928 1.41 6.852 2.144-.235 2.76-.173 3.225-.37 6z"/><path fill="#05ae92" d="M86.803 53.137c.216-1.207.373-2.69.415-3.328a5.3 5.3 0 0 1 .166-.972l2.14-.188c1.449-.127 1.393-.11 2.193-.236.035-.571.035-.405.035-.571 0-.308-.01-.445-.016-.602 2.27-.682 5.005-1.49 8.043-3.14 0 1.224-.758 3.542-1.483 5.512-.637 1.727-1.77 3.492-2.126 3.99-.778.361-1.232.806-2.41 1.156-.829.246-3.362.684-5.293.85-.843.072-1.58-.01-1.994-.01h-.109z"/><path fill="#05c7a2" d="M90.31 22.998c3.936 2.146 5.368 4.75 6.268 6.677-1.148.243-2.71.487-4.88.535l-2.301.051c.282-2.607.61-4.91.914-7.263"/><path fill="#05a58c" d="m86.092 58.619.273-3.02-1.627-.39c-2.02-.485-5.716-2.096-6.601-3.078-.367-.406-.796-1.26-.956-1.898l-.654-1.306 5.478-.007 5.38-.082-.393 3.12c-.197 1.56.001 0-.627 3.641 1.37-.014.632.043 1.37-.014 1.537-.117 3.921-.433 4.378-.506 1.442-.234 4.057-1.648 4.057-1.477a21.4 21.4 0 0 1-3.778 4.265c-1.807 1.543-3.91 2.782-5.531 3.457l-1.05.399z"/><path fill="#079d86" d="M82.573 58.961c-1.334-1.385-3.209-3.604-3.66-4.625l-1.395-3.15 3.836 2.79c2.31.82 3.276 1.14 5.01 1.623-.126 1.311-.403 5.794-.554 6.123-1.434-.777-1.761-1.228-3.237-2.761"/></g></svg>