<svg xmlns="http://www.w3.org/2000/svg" fill="none" viewBox="0 0 512 512"><g transform="translate(28.96 30.72) scale(4.506)"><g fill="#000" clip-path="url(#a)"><path d="M49.937 84.939 20.47 67.94a1.2 1.2 0 0 1-.596-1.025V40.643c0-.453.5-.74.882-.525l34.212 19.74c.476.287 1.072-.071 1.072-.62V46.437c0-.5-.262-.977-.715-1.24L14.176 21.451a1.18 1.18 0 0 0-1.192 0l-5.388 3.123A1.2 1.2 0 0 0 7 25.6v48.802c0 .43.238.81.596 1.025l42.27 24.413c.357.215.834.215 1.192 0l35.499-20.503a.716.716 0 0 0 0-1.24l-11.063-6.389a1.4 1.4 0 0 0-1.43 0L51.153 84.94a1.18 1.18 0 0 1-1.192 0zm43.39-60.389L51.057.16a1.18 1.18 0 0 0-1.191 0l-22.34 12.9a.716.716 0 0 0 0 1.24l10.967 6.341a1.4 1.4 0 0 0 1.431 0l10.013-5.77a1.18 1.18 0 0 1 1.192 0l29.467 17c.358.214.596.595.596 1.024v26.392c0 .5.263.977.716 1.24l10.966 6.317c.477.286 1.073-.071 1.073-.62V25.6a1.2 1.2 0 0 0-.596-1.025z"/></g><defs><clipPath id="a"><path fill="#fff" d="M0 0h100v100H0z"/></clipPath></defs></g></svg>