<svg xmlns="http://www.w3.org/2000/svg" fill="none" viewBox="0 0 512 512"><g transform="translate(30.72 30.72) scale(4.506)"><g clip-path="url(#a)"><path fill="#2c3e50" d="M99.374 0 67.291 26.873l-2.499 6.461c-.418-.158-.833-.262-1.199-.262a3.1 3.1 0 0 0-2.237.94 3.203 3.203 0 0 0 2.29 5.468 3.23 3.23 0 0 0 2.293-.94c.94-.936 1.2-2.343.677-3.488l6.461-2.499L99.948.573zM67.988 4.286c-2.827.057-5.796.43-8.87 1.13q-4.611 1.016-9.222 2.97C35 2.29 20.416 2.97 11.72 11.667 5 18.387 2.763 28.751 5.47 40.781c.677 3.073 1.718 6.146 2.97 9.167-5.21 12.81-5.47 25.414.05 34.22l2.76-3.281c-3.75-6.824-3.75-16.043-.47-25.781 2.604 5.05 5.935 9.997 9.894 14.58l2.658-3.124C18.905 61.3 15.365 55.676 12.81 49.948c3.336-7.502 8.49-15.052 15.314-21.875 6.668-6.668 14.167-11.876 21.824-15.316 5.624 2.503 11.3 5.992 16.665 10.524l3.125-2.658a76.7 76.7 0 0 0-14.632-9.842 46 46 0 0 1 4.896-1.407c8.228-1.873 15.417-1.199 20.939 1.822l3.28-2.758C79.744 5.572 74.208 4.16 67.988 4.286M31.72 8.336c4.12.059 8.54.871 13.07 2.394-6.872 3.54-13.592 8.438-19.582 14.477-6.095 6.095-10.938 12.814-14.426 19.583-.522-1.614-1.044-3.23-1.407-4.895-2.344-10.679-.522-19.687 5.158-25.364 4.295-4.297 10.322-6.294 17.187-6.197zm59.635 7.29-2.71 3.332c2.292 4.22 3.18 9.479 2.657 15.365A63 63 0 0 1 94.532 40c1.98-9.53.884-17.968-3.177-24.373m-41.407 9.115c-13.854 0-25.155 11.3-25.155 25.155 0 4.843 1.407 9.375 3.802 13.23l1.351-.522c.211-1.355.834-2.603 1.827-3.647.207-.208.413-.363.675-.57a19.4 19.4 0 0 1-1.98-8.49c0-10.73 8.75-19.48 19.481-19.48 2.944 0 5.849.677 8.49 1.977.155-.207.311-.467.519-.674a6.44 6.44 0 0 1 3.647-1.825l.573-1.351c-3.855-2.399-8.386-3.803-13.23-3.803m29.377 5.417-2.71 3.125c4.48 5.361 8.02 11.041 10.523 16.614l-.055.155c-3.437 7.657-8.698 15.155-15.207 21.667C62.293 81.303 50.99 87.919 40 90.419c-8.227 1.873-15.417 1.196-20.938-1.825l-3.28 2.762c4.323 2.758 9.582 4.165 15.469 4.165 3.073 0 6.301-.363 9.634-1.144 11.719-2.658 23.752-9.638 33.856-19.74 5.936-5.938 10.886-12.658 14.478-19.585 4.062 12.085 3.073 23.386-3.803 30.26-5.206 5.21-13.385 7.136-22.811 5.625a59 59 0 0 1-5.365 2.97c4.01 1.043 7.864 1.613 11.46 1.613 7.916 0 14.74-2.499 19.582-7.342 12.604-12.604 8.386-37.654-8.957-58.02m-7.971 6.51-1.352.521c-.21 1.352-.832 2.603-1.825 3.644-.208.21-.415.365-.677.572a19.36 19.36 0 0 1 1.98 8.49c-.051 10.782-8.801 19.48-19.53 19.48-3.074 0-5.94-.729-8.49-1.98-.156.211-.312.47-.523.678a6.4 6.4 0 0 1-3.643 1.822l-.522 1.354c3.854 2.396 8.387 3.803 13.23 3.803 13.854 0 25.155-11.301 25.155-25.156 0-4.843-1.407-9.375-3.802-13.23zm-21.405 1.144c-6.668 0-12.085 5.417-12.085 12.085A12.094 12.094 0 0 0 49.95 61.979a12.094 12.094 0 0 0 12.082-12.082c0-6.668-5.417-12.085-12.082-12.085M36.301 60.364a3.23 3.23 0 0 0-2.29.937c-.94.94-1.199 2.343-.677 3.491l-6.46 2.5L0 99.27l.573.574 31.98-26.877 2.552-6.458c.415.156.833.26 1.251.26a3.1 3.1 0 0 0 2.237-.937 3.204 3.204 0 0 0 0-4.532 3.24 3.24 0 0 0-2.292-.936m-2.914 16.147-3.177 2.707a78 78 0 0 0 8.698 6.46c1.092-.417 3.488-1.354 4.532-1.98-3.699-2.135-6.668-4.32-10.052-7.186z"/></g><defs><clipPath id="a"><path fill="#fff" d="M0 0h100v100H0z"/></clipPath></defs></g></svg>