<svg xmlns="http://www.w3.org/2000/svg" fill="none" viewBox="0 0 512 512"><g transform="translate(30.72 30.72) scale(4.506)"><g clip-path="url(#a)"><path fill="#f60" d="M93.373 39.99H61.946a2.844 2.844 0 0 1-2.844-2.845V4.391A4.38 4.38 0 0 0 54.71 0H43.484a4.38 4.38 0 0 0-4.396 4.39v32.537a3.056 3.056 0 0 1-3.062 3.066l-10.303.037c-1.7 0-3.104-1.367-3.068-3.068l.074-32.567A4.38 4.38 0 0 0 18.334 0H7.109a4.383 4.383 0 0 0-4.395 4.395v91.691A3.917 3.917 0 0 0 6.628 100h86.745a3.917 3.917 0 0 0 3.912-3.915V43.902a3.887 3.887 0 0 0-3.912-3.911M78.64 74.409a5.114 5.114 0 0 1-5.098 5.097H64.68a5.113 5.113 0 0 1-5.096-5.097v-8.861a5.113 5.113 0 0 1 5.096-5.097h8.862a5.113 5.113 0 0 1 5.098 5.096z"/></g><defs><clipPath id="a"><path fill="#fff" d="M0 0h100v100H0z"/></clipPath></defs></g></svg>