<svg xmlns="http://www.w3.org/2000/svg" fill="none" viewBox="0 0 512 512"><g transform="translate(30.72 30.72) scale(4.506)"><path fill="#388ee9" d="m6.836 0 .008 11.748c11.302-3.611 24.85 1.355 30.799 8.655 0 0 28.5-2.462 32.58 16.086 0 0-27-11.462-42.017 9.758-3.57 5.044-4.438 11.13-6.62 18.59C17.52 78.743 15.122 89.114 9.757 100h19.518l6.946-32.567h11.023L66.513 100h24.803L68.293 61.433l2.474-1.322.275-.086c13.025-3.74 22.122-15.836 22.122-29.416C93.164 13.73 79.456 0 62.606 0zm9.375 20.703.212 1.291c.44 2.66 2.776 4.693 5.654 4.92l.25.02c3.073.242 5.839-1.737 6.384-4.567z"/></g></svg>