<svg xmlns="http://www.w3.org/2000/svg" fill="none" viewBox="0 0 512 512"><g transform="translate(28.946 28.946) scale(4.541)"><path fill="#fcc397" d="M70.556 5.163C61.78.868 51.954-.574 42.37 1.023c-9.585 1.598-18.475 6.165-25.5 13.095-9.165 9.15 69.896-.98 53.686-8.955"/><path fill="#fc9f95" d="M87.336 19.02s-3.791 5.557-15.799 7.125C47.458 29.413 6.159 29.61 6.222 29.413a49.8 49.8 0 0 1 10.65-15.295 33.1 33.1 0 0 0 16.178 1.078c8.848-1.732 16.685-6.96 25.438-9.118a38.4 38.4 0 0 1 12.07-.915c6.528 3.259 12.263 7.995 16.78 13.857z"/><path fill="#f77c88" d="M97.344 42.223c0 .196-54.256 5.49-80.703 3.955-5.163-.134-10.066-2.366-13.651-6.21.71-3.61 1.823-7.13 3.318-10.492 7.742-4.414 16.437-6.73 25.279-6.732 10.933 0 21.645 3.89 32.609 3.596 8.2-.297 16.177-2.822 23.131-7.321 5.253 6.69 8.707 14.693 10.017 23.204"/><path fill="#f25192" d="M97.953 50.003v.817a143.4 143.4 0 0 1-34.506 3.693 588 588 0 0 1-61.428-4.935c.034-3.228.362-6.446.98-9.609 6.606 4.243 14.38 6.116 22.119 5.327a61.2 61.2 0 0 0 17.41-5.457 105.5 105.5 0 0 1 17.096-6.537 43.05 43.05 0 0 1 19.952-.05c6.569 1.545 12.71 4.613 17.967 8.972.344 2.576.48 5.179.41 7.779"/><path fill="#d34ca3" d="M43.538 66.114c-14.378 2.909-39.089-.359-39.151-.62a51.2 51.2 0 0 1-2.37-15.492v-.425a38.8 38.8 0 0 1 7.236-4.64 36.8 36.8 0 0 1 19.97-3.694 65.3 65.3 0 0 1 19.37 6.078 158 158 0 0 0 15.8 6.537c.822.23-4.993 9.217-20.855 12.256"/><path fill="#9a50a5" d="M96.21 63.24c-1.01 1.765-10.553 7.68-23.509 8.693-17.158 1.34-37.413-4.02-30.682-6.733C52.573 60.886 61.768 53.173 72.7 49.938a40.92 40.92 0 0 1 25.28.883 50 50 0 0 1-1.77 12.418"/><path fill="#59569e" d="M91.57 74.742c-8.279 14.87-68.348 18.596-77.133 8.595A50.8 50.8 0 0 1 4.39 65.493c7.357-4.394 15.906-6.163 24.331-5.033 10.744 1.503 20.35 7.713 30.967 10.131a45.3 45.3 0 0 0 25.849-1.569 47.4 47.4 0 0 0 10.68-5.62 50 50 0 0 1-4.644 11.34z"/><path fill="#39477f" d="M91.633 74.612c-3.758 6.803-9.021 12.588-15.358 16.882s-13.566 6.975-21.097 7.823a46.5 46.5 0 0 1-22.23-2.943c-7.082-2.784-13.425-7.262-18.511-13.07 1.453.59 3.16 1.079 4.582 1.537a45.9 45.9 0 0 0 25.626-.228c5.341-1.635 10.333-4.217 15.547-6.145a68.7 68.7 0 0 1 31.599-3.856z"/></g></svg>