<svg xmlns="http://www.w3.org/2000/svg" fill="none" viewBox="0 0 512 512"><g transform="translate(30.72 28.96) scale(4.506)"><path fill="#000" d="M0 60.62h4.42v-6.923h3.712l3.476 6.923h4.89l-4.065-7.954c2.15-1.03 3.535-3.152 3.535-5.803 0-4.183-3.035-6.864-7.571-6.864H0zm8.042-16.939c2.092 0 3.418 1.238 3.418 3.182 0 1.915-1.326 3.152-3.418 3.152H4.42V43.68zm17.24 17.116c4.036 0 6.658-2.357 7.13-5.303h-4.095c-.354 1.414-1.532 2.15-3.211 2.15-2.092 0-3.476-1.295-3.565-3.446v-.206H32.53c.089-.471.118-.972.118-1.414-.059-4.448-3.122-7.277-7.66-7.277-4.683 0-7.776 3.064-7.776 7.778 0 4.684 3.034 7.718 8.072 7.718m-3.652-9.515c.235-1.797 1.59-2.887 3.387-2.887 1.886 0 3.153 1.03 3.447 2.887zm12.465 4.3c.177 3.241 3.034 5.215 7.247 5.215 4.065 0 6.893-1.915 6.893-4.92 0-3.417-2.887-4.212-6.363-4.566-2.18-.265-3.476-.383-3.476-1.532 0-.972 1.06-1.561 2.68-1.561 1.68 0 2.829.736 2.947 1.944h3.976c-.206-3.093-3.004-4.89-7.07-4.89-3.888-.03-6.51 1.944-6.51 4.95 0 3.122 2.74 3.917 6.275 4.33 2.445.324 3.476.412 3.476 1.65 0 1.06-1.06 1.62-2.799 1.62-2.032 0-3.181-.914-3.329-2.24zm23.81 5.215c4.036 0 6.658-2.357 7.13-5.303H60.94c-.354 1.414-1.532 2.15-3.211 2.15-2.092 0-3.476-1.295-3.565-3.446v-.206h10.988c.089-.471.118-.972.118-1.414-.059-4.448-3.122-7.277-7.659-7.277-4.684 0-7.777 3.064-7.777 7.778 0 4.684 3.034 7.718 8.072 7.718m-3.652-9.515c.235-1.797 1.59-2.887 3.387-2.887 1.886 0 3.152 1.03 3.447 2.887zm21.977-5.98c-2.327 0-3.712.883-4.683 2.062l-.384-1.886H67.54V60.62h4.153v-7.748c0-2.621 1.238-4.153 3.388-4.153 2.092 0 3.064 1.355 3.064 3.918v7.983H82.3v-8.396c0-5.184-2.799-6.922-6.069-6.922m19.617 2.062c-.973-1.238-2.475-2.062-4.566-2.062-4.036 0-7.012 3.034-7.012 7.718 0 4.801 2.976 7.777 7.04 7.777 2.181 0 3.654-.972 4.655-2.269l.413 2.092H100V39.999h-4.153zm-3.624 10.045c-2.268 0-3.712-1.767-3.712-4.36 0-2.592 1.444-4.36 3.712-4.36s3.682 1.797 3.682 4.39c0 2.563-1.413 4.33-3.682 4.33"/></g></svg>