<svg xmlns="http://www.w3.org/2000/svg" fill="none" viewBox="0 0 512 512"><g transform="translate(30.72 30.72) scale(4.506)"><path fill="#ffbe00" d="m66.92 66.614-13.551.33-5.117 11.726-13.297 3.47-8.334 7.6h67.047c3.47 0 6.307-2.837 6.307-6.308V50.124l-23.784 5.928zm-48.86.988L6.788 77.278a4.06 4.06 0 0 0-.86-1.977L0 80.292c1.266 1.495 3.369 1.774 4.99.785l11.018-4.99zm65.476-34.017 1.367 3.596c2.103-.532 5.37-2.862 7.65-4.66-.076.632-.05 1.266.178 1.874L100 31.71a3.893 3.893 0 0 0-4.99-2.28c-.05.026-.126.05-.177.102l.025-.025zm12.538 6.078h-.05L82.7 38.523l-3.04-7.978v-8.46c.609.33 1.267.532 2 .532a4.235 4.235 0 0 0 4.206-3.824l3.192-2.102-.153-4.281c-.025-.43-.354-.786-.785-.786l-3.976-.05c-.836-1.165-2.38-1.672-3.749-1.039l-8.739 4.103c.026.026.026.05.026.076.282.575.72 1.058 1.266 1.393C62.284 21.603 57.776 29.05 57.776 29.05l-40.73 21.935c-2.38 1.267-5.37.38-6.66-2-1.267-2.382-.381-5.37 2-6.662l11.55-6.206c2.938-1.57 4.635-4.508 4.863-7.573l-6.914 3.723-11.55 6.206c-4.51 2.431-6.206 8.08-3.8 12.589 1.672 3.115 4.888 4.888 8.206 4.888 1.495 0 2.99-.355 4.383-1.115l5.217-2.81a11.64 11.64 0 0 0 .608 6.331c.28.71.456 1.14.456 1.14 1.85 4.002-.582 7.143-3.774 7.143h-1.014l-3.672 15.957a3.75 3.75 0 0 0-1.85-1.063l-1.823 7.523c1.85.43 3.673-.507 4.407-2.18l8.309-14.892c10.511-1.013 16.033-8.131 15.78-18.162 10.891.659 25.38-6.18 31.839-15.527 4.888 6.206 14.159 5.345 18.263 3.774l.785-.278c-.305.532-.457 1.165-.457 1.849l7.751-.076c-.025-2.229-1.747-3.927-3.875-3.901M23.885 25.556c.38.709.558 1.468.583 2.229l4.078-2.204a8.6 8.6 0 0 0-.81-2.102l-.203-.406-3.85 2.078zm-1.494-2.761 3.85-2.077-.507-.912c-.557-1.064-1.899-1.47-2.963-.912s-1.469 1.9-.912 2.964z"/><path fill="#0f2647" d="M81.459 12.587a1.25 1.25 0 0 0-1.241 1.267c0 .684.557 1.266 1.24 1.266a1.27 1.27 0 0 0 1.268-1.265c0-.709-.583-1.268-1.267-1.268m-7.295 9.347c-.304.178-.481.406-.481.406s.531.608 1.165.608c.633 0 1.165-.608 1.165-.608s-.177-.228-.481-.407c.286-.116.552-.278.785-.48 0 0-.304-.305-.785-.481.304-.178.481-.406.481-.406s-.532-.607-1.165-.607c-.634 0-1.165.607-1.165.607s.177.228.481.406c-.456.177-.785.481-.785.481s.33.329.785.481m-4.23 1.546s-.532-.609-1.165-.609c-.659 0-1.165.609-1.165.609s.177.227.481.404c-.456.178-.785.482-.785.482s.304.304.785.48c-.305.178-.481.406-.481.406s.531.608 1.165.608c.658 0 1.165-.608 1.165-.608s-.177-.228-.48-.405a2.8 2.8 0 0 0 .784-.482s-.305-.303-.785-.48c.304-.204.481-.405.481-.405m5.572 5.926s-.177-.228-.481-.405c.286-.117.552-.28.785-.482 0 0-.304-.303-.785-.48.305-.178.481-.405.481-.405s-.531-.608-1.165-.608c-.632 0-1.164.608-1.164.608s.177.227.48.404a2.8 2.8 0 0 0-.784.481s.303.305.785.482c-.305.177-.481.406-.481.406s.53.607 1.164.607 1.165-.608 1.165-.608m-6.332 2.103c.305-.178.481-.406.481-.406s-.53-.608-1.164-.608-1.166.608-1.166.608.177.228.481.406a2.8 2.8 0 0 0-.785.48s.305.305.785.482c-.304.177-.481.406-.481.406s.532.607 1.166.607 1.164-.608 1.164-.608-.177-.228-.48-.405c.455-.177.784-.481.784-.481s-.304-.278-.785-.481m-6.003-1.824c.305-.177.481-.405.481-.405s-.531-.608-1.165-.608c-.658 0-1.165.608-1.165.608s.177.228.481.405c-.455.177-.785.481-.785.481s.305.304.785.482c-.304.177-.481.405-.481.405s.532.608 1.165.608c.659 0 1.165-.608 1.165-.608s-.177-.228-.481-.406c.456-.177.785-.48.785-.48s-.304-.28-.785-.482m-2.305 7.117s-.177-.228-.48-.405c.455-.177.784-.481.784-.481s-.304-.304-.785-.482c.304-.176.481-.404.481-.404s-.532-.608-1.165-.608c-.659 0-1.165.608-1.165.608s.177.228.481.404c-.456.178-.785.482-.785.482s.304.304.785.48a1.8 1.8 0 0 0-.481.407s.531.607 1.165.607c.633 0 1.165-.608 1.165-.608m-10.283 1.04s.531.607 1.165.607c.632 0 1.164-.608 1.164-.608s-.176-.228-.48-.405c.456-.178.785-.481.785-.481s-.304-.305-.786-.482c.305-.177.481-.405.481-.405s-.53-.608-1.164-.608-1.165.608-1.165.608.177.228.481.405c-.456.178-.785.482-.785.482s.304.303.785.48a2.7 2.7 0 0 0-.481.406m5.648 3.621c.304-.177.481-.405.481-.405s-.532-.608-1.165-.608c-.659 0-1.165.608-1.165.608s.177.228.481.405a2.8 2.8 0 0 0-.785.481s.304.304.785.482a1.8 1.8 0 0 0-.481.405s.531.608 1.165.608c.658 0 1.166-.608 1.166-.608s-.178-.228-.482-.406c.286-.116.552-.278.785-.48 0 0-.33-.33-.785-.482m6.206 1.342c.304-.177.48-.405.48-.405s-.53-.608-1.164-.608c-.659 0-1.166.608-1.166.608s.178.228.482.406a2.8 2.8 0 0 0-.786.48s.305.305.786.482c-.304.177-.482.405-.482.405s.532.608 1.166.608c.659 0 1.165-.608 1.165-.608s-.177-.228-.481-.405c.456-.178.785-.481.785-.481s-.33-.28-.785-.482m5.065-4.888c.305-.177.482-.405.482-.405s-.532-.608-1.165-.608c-.659 0-1.166.608-1.166.608s.177.228.481.405c-.455.177-.785.481-.785.481s.305.304.785.482c-.304.177-.48.405-.48.405s.531.608 1.165.608c.658 0 1.165-.608 1.165-.608s-.178-.228-.482-.406c.457-.177.785-.48.785-.48s-.329-.305-.785-.482m9.068-4.078c.305-.177.482-.405.482-.405s-.532-.608-1.165-.608-1.166.608-1.166.608.177.228.481.405c-.455.177-.785.481-.785.481s.305.304.785.481c-.304.178-.481.406-.481.406s.532.608 1.166.608 1.165-.608 1.165-.608-.178-.228-.482-.406c.457-.177.785-.48.785-.48s-.329-.33-.785-.482m-29.787 7.7c.304-.177.481-.406.481-.406s-.531-.607-1.164-.607c-.634 0-1.166.607-1.166.607s.178.229.482.406c-.457.177-.786.481-.786.481s.304.305.786.481c-.305.178-.482.406-.482.406s.532.608 1.165.608 1.165-.608 1.165-.608-.177-.228-.481-.405c.456-.178.786-.482.786-.482s-.33-.304-.786-.481m6.029 5.953c.304-.178.48-.406.48-.406s-.531-.608-1.165-.608c-.633 0-1.165.608-1.165.608s.178.228.482.406a2.8 2.8 0 0 0-.786.48s.304.305.786.482c-.304.177-.482.405-.482.405s.532.608 1.165.608 1.166-.608 1.166-.608-.177-.228-.481-.405c.455-.178.785-.481.785-.481s-.305-.304-.785-.482zm-7.7 1.088c.304-.177.48-.405.48-.405s-.531-.608-1.165-.608c-.658 0-1.164.608-1.164.608s.177.228.48.406c-.456.177-.785.48-.785.48s.305.305.786.482c-.305.177-.481.405-.481.405s.53.608 1.164.608c.659 0 1.166-.608 1.166-.608s-.177-.228-.481-.405c.455-.178.785-.481.785-.481s-.305-.304-.785-.482m-6.282-4.432c.303-.178.48-.405.48-.405s-.53-.608-1.164-.608c-.659 0-1.166.608-1.166.608s.178.227.482.405a2.8 2.8 0 0 0-.786.48s.305.306.786.482a1.8 1.8 0 0 0-.482.406s.533.607 1.166.607c.659 0 1.165-.607 1.165-.607s-.178-.229-.481-.406c.456-.176.785-.481.785-.481s-.303-.304-.785-.481m-8.916 5.75a1.8 1.8 0 0 0-.481.405s.531.608 1.165.608c.632 0 1.165-.608 1.165-.608s-.177-.228-.481-.405c.456-.178.785-.482.785-.482s-.305-.304-.785-.48c.304-.178.481-.406.481-.406s-.532-.608-1.165-.608c-.634 0-1.165.608-1.165.608s.177.228.481.406c-.456.176-.785.48-.785.48s.329.28.785.482m8.029 2.128c.305-.178.481-.407.481-.407s-.531-.607-1.165-.607c-.658 0-1.165.608-1.165.608s.178.228.482.406c-.456.176-.785.48-.785.48s.303.305.785.482c-.305.177-.482.405-.482.405s.532.608 1.165.608c.659 0 1.165-.608 1.165-.608s-.177-.228-.481-.405c.456-.177.785-.481.785-.481s-.329-.33-.785-.481m-1.317 6.534c.304-.177.481-.405.481-.405s-.531-.608-1.164-.608c-.66 0-1.166.608-1.166.608s.178.228.481.405c-.456.177-.785.481-.785.481s.304.305.785.482c-.304.177-.48.405-.48.405s.53.608 1.164.608c.659 0 1.165-.608 1.165-.608s-.177-.228-.481-.405c.286-.117.552-.28.786-.482 0 0-.33-.304-.786-.48m-6.104-.962s-.177-.229-.481-.405c.455-.177.785-.481.785-.481s-.305-.305-.785-.482c.303-.177.48-.405.48-.405s-.531-.608-1.165-.608c-.658 0-1.164.608-1.164.608s.177.228.48.405c-.455.177-.785.482-.785.482s.305.303.786.48c-.304.177-.482.406-.482.406s.532.607 1.165.607c.609.026 1.166-.607 1.166-.607m1.57 6.18c.305-.177.481-.405.481-.405s-.53-.608-1.165-.608c-.658 0-1.165.608-1.165.608s.177.228.481.406c-.455.176-.785.48-.785.48s.305.305.785.481c-.304.178-.481.406-.481.406s.532.608 1.166.608c.658 0 1.164-.608 1.164-.608s-.177-.228-.48-.406c.455-.177.784-.48.784-.48s-.304-.305-.785-.482"/></g></svg>