<svg xmlns="http://www.w3.org/2000/svg" fill="none" viewBox="0 0 512 512"><g transform="translate(30.72 30.72) scale(4.506)"><path fill="#52bd94" d="M59.875 14.063c-3.125-.938-6.562-1.563-10-1.563-15.312 0-28.125 9.063-34.062 22.188-.626 1.562-2.188 2.187-3.75 1.562l-5.938-2.187c-1.875-.626-2.5-2.813-1.875-4.376C12.063 12.188 29.563 0 49.875 0c4.688 0 9.375.625 13.75 2.188 1.875.624 2.813 2.5 2.188 4.062l-2.188 5.938c-.625 1.562-2.187 2.187-3.75 1.874m24.375 1.562a6.25 6.25 0 1 1-12.5 0 6.25 6.25 0 0 1 12.5 0M43.938 43.75h49.375c1.874 0 3.437-1.562 3.75-3.437v-5.938c0-1.875-1.563-3.437-3.438-3.437H43.938c-1.876 0-3.438 1.562-3.438 3.437v5.938c0 1.874 1.563 3.437 3.438 3.437m-37.5 25h49.375c1.874 0 3.437-1.562 3.75-3.125v-5.937c0-1.876-1.563-3.438-3.438-3.438H6.438C4.563 56.25 3 57.813 3 59.375v5.938c0 1.874 1.563 3.437 3.438 3.437M21.75 90.625a6.25 6.25 0 1 0 0-12.5 6.25 6.25 0 0 0 0 12.5M49.875 87.5c-3.437 0-6.875-.625-10-1.562-1.562-.313-3.125.312-3.75 1.874l-2.187 5.938c-.626 1.563.312 3.438 2.187 4.063C40.5 99.375 45.188 100 49.875 100c20.313 0 37.813-12.187 45.625-29.687.625-1.563 0-3.75-1.875-4.376l-5.937-2.187c-1.563-.625-3.126 0-3.75 1.563C78 78.437 65.188 87.5 49.875 87.5"/></g></svg>