<svg xmlns="http://www.w3.org/2000/svg" fill="none" viewBox="0 0 512 512"><g transform="translate(21.562 21.562) scale(4.689)"><path fill="#2f406a" d="M79.562 32.594v34.594L50.141 84.625l-.266.242v12.945l.266.25 41.406-23.937v-48.25l-.39-.094-11.72 6.532.063.28"/><path fill="#2379bd" d="M20.625 67.499 50.14 84.624v13.438L8.42 74.03V25.968l.43-.063L20.5 32.68l.125.39z"/><path fill="#03afef" d="M20.625 33.062 8.422 25.968 50.047 1.937l41.531 23.938-12.016 6.718L50.047 15.75z"/><path fill="#2f406a" d="m49.633 63.54-.32-.329v-13l.32-.164.078-.32 11.148-6.5.344.078v13.399L49.64 63.547"/><path fill="#2379bd" d="M37.875 57.117V43.203h.32l11.336 6.601.094.258v13.477z"/><path fill="#03afef" d="m49.445 36.358-11.57 6.844 11.758 6.844 11.562-6.75z"/><path fill="#2f406a" d="m35.242 72.023-.32-.328v-13l.32-.164.078-.32 11.149-6.5.343.078v13.39L35.25 72.024"/><path fill="#2379bd" d="M23.484 65.624V51.687h.32l11.352 6.586.094.257v13.492z"/><path fill="#03afef" d="m35.047 44.845-11.563 6.843 11.758 6.844 11.563-6.75z"/><path fill="#2f406a" d="m65.055 72.343-.32-.328v-13l.32-.164.078-.32 11.148-6.5.344.077V65.5z"/><path fill="#2379bd" d="M53.297 65.922V52.008h.32l11.344 6.586.094.258v13.492z"/><path fill="#03afef" d="M64.844 45.164 53.28 52.008l11.758 6.844 11.562-6.75z"/><path fill="#2f406a" d="m50.664 80.83-.32-.329v-13l.32-.164.078-.32 11.149-6.5.343.078v13.39L50.672 80.83"/><path fill="#2379bd" d="M38.906 74.398V60.492h.32l11.337 6.602.093.258v13.492z"/><path fill="#03afef" d="m50.469 53.648-11.563 6.844 11.758 6.843 11.563-6.75z"/><path fill="#2f406a" d="m49.633 45.1-.32-.328v-13l.32-.164.078-.32 11.148-6.508.344.078V38.28L49.64 45.124"/><path fill="#2379bd" d="M37.875 38.672V24.766h.32l11.336 6.602.094.258v13.476z"/><path fill="#03afef" d="m49.445 17.922-11.57 6.844 11.758 6.843 11.562-6.75z"/><path fill="#2f406a" d="m35.242 53.587-.32-.328v-13l.32-.164.078-.32 11.149-6.5.343.078v13.39L35.25 53.587"/><path fill="#2379bd" d="M23.484 47.156V33.242h.32l11.352 6.601.094.258v13.484z"/><path fill="#03afef" d="m35.047 26.406-11.563 6.843 11.758 6.844 11.563-6.75z"/><path fill="#2f406a" d="m65.055 53.906-.32-.328v-13l.32-.164.078-.32 11.148-6.5.344.078v13.39z"/><path fill="#2379bd" d="M53.297 47.477V33.594h.32l11.336 6.601.094.258v13.453z"/><path fill="#03afef" d="m64.844 26.728-11.547 6.867 11.758 6.843 11.562-6.75z"/><path fill="#2f406a" d="m50.664 62.382-.32-.328v-13l.32-.164.078-.32 11.149-6.5.343.078v13.39l-11.562 6.844"/><path fill="#2379bd" d="M38.906 55.96V42.048h.32l11.337 6.601.093.258v13.477z"/><path fill="#03afef" d="m50.469 35.203-11.563 6.844 11.758 6.844 11.563-6.75z"/></g></svg>