<svg xmlns="http://www.w3.org/2000/svg" fill="none" viewBox="0 0 512 512"><g transform="translate(30.72 30.72) scale(4.506)"><path fill="#a13974" d="M84.921 51.745c-.3 5.627-1.989 11.24-4.865 16.09-4.815 8.126-12.885 14.473-23.14 16.397-5.12.92-8.844.802-13.026.162-3.017-.672-4.916-3.123-2.89-6.035 2.481-3.572 6-5.917 9.511-8.264 10.243-6.845 21.123-12.566 32.103-18.11 1.228-.62 2.394-1.844 2.307-.24"/><path fill="#fb5b62" d="M92.208 38.614c2.58-2.04 5.072-4.662 6.836-7.47l.004-.002.003-.003c1.942-3.092.839-5.884-2.72-6.731-4.091-.974-7.56-.581-11.748 0-1.02.142-1.281.362-1.63.582-.706.445-.784 1.808.234 1.977 1.862.117 7.96-.3 9.422.35 4.168 1.849-7.236 8.009-8.735 9.201-.898.714-1.33.628-1.836-.496-3.964-8.816-10.422-15.067-19.447-18.617-5.656-2.224-11.482-2.732-17.504-1.973-3.242.411-5.788 1.3-8.768 2.463-.983.382-2.284 1.036-3.188 1.554a38.3 38.3 0 0 0-5.845 4.098c-1.547 1.323-.64 3.692 1.387 3.882l37.308 3.502c1.657.155 2.474 2.09 1.433 3.386L46.606 60.923c-.757.943.21 2.497 1.332 2.047 8.465-3.396 16.695-7.52 24.843-11.617 6.795-3.416 13.477-8.033 19.427-12.739"/><path fill="#efa16d" fill-rule="evenodd" d="M53.45 40.889c1.329-1.422.16-3.728-1.773-3.497L17.882 41.44c-1.022.123-1.873.86-2.08 1.867-1.299 6.354-.78 12.753 1.664 19.156.917 2.399.974 2.468-1.498 2.772q-.483.06-.969.127c-1.863.253-3.744.508-5.619-.024-4.533-1.293 2.438-5.586 2.964-7.42.39-1.355-1.452-1.862-2.603-1.05-3.69 2.606-7.201 5.647-9.38 9.667-.466.93-.407 2.094-.233 2.724 1.29 4.633 11.274 3.793 14.563 3.202 4.31-.775 7.424-1.055 11.611-2.335 1.142-.349 1.163-.465 2.908-2.263 8.84-8.207 16.931-19.396 24.24-26.973" clip-rule="evenodd"/></g></svg>