<svg xmlns="http://www.w3.org/2000/svg" fill="none" viewBox="0 0 512 512"><g transform="translate(30.72 30.72) scale(4.506)"><path fill="#333" d="M7.34 57.03c-.594-.094-2.111-.474-3.368-.818l-2.29-.64 1.175-2.158 1.173-2.158-.948-1.174c-1.34-1.66-3.07-5.3-3.082-6.473-.012-2.74 3.544-6.71 7.907-8.844 3-1.47 5.383-1.506 8.37-.107l2.253 1.055.652-.937c.355-.51.652-1.185.652-1.482s.297-.557.652-.557.651.094.651.201c0 .262-2.619 6.877-2.785 7.042-.072.07-.783-.26-1.59-.734-2.275-1.34-5.132-2.23-7.35-2.29-5.156-.13-6.947 4.91-3.307 9.32l1.28 1.553 3.498-2.834c3.924-3.165 4.375-3.237 7.433-1.125 3.438 2.37 3.497 5.974.177 9.744-2.94 3.355-5.962 4.281-11.155 3.414zm8.796-3.615c1.706-1.34 1.588-3.818-.262-5.786-2.323-2.466-3.045-2.36-7.136 1.054-4.067 3.391-4.09 3.261.77 4.815 3.213 1.042 5.229 1.007 6.628-.083m33.029 13.064c-1.163-.427-4.292-1.719-6.971-2.88-7.232-3.155-8.252-3.214-10.41-.594-.497.605-1.043.985-1.197.83-.463-.462.913-2.679 2.573-4.137 1.351-1.186 1.801-1.351 3.296-1.186.948.107 4.102 1.21 7.006 2.443 6.556 2.785 8.476 3.378 10.979 3.378 3.046 0 4.611-2.133 3.65-4.967-.236-.71-.166-.949.309-.949.888 0 1.34 3.32.7 5.229-.273.817-1.068 1.979-1.767 2.56-1.044.877-1.707 1.067-3.664 1.055-1.316-.011-3.342-.355-4.505-.781zM32.27 56.344c-2.691-1.258-5.122-3.653-6.521-6.45-2.24-4.482-1.553-7.35 2.691-11.227 3.568-3.26 6.486-4.53 10.41-4.53 2.833 0 3.438.155 5.274 1.28 4.352 2.692 5.43 7.826 2.811 13.42-3.07 6.57-9.556 9.877-14.665 7.505zm9.01-3.12c2.015-.995 3.403-5.595 2.833-9.413-.71-4.706-7.077-7.919-11.748-5.927-4.802 2.051-4.873 7.516-.154 12.436 3.295 3.45 6.129 4.352 9.07 2.905m9.14 3.984c0-.202.747-.557 1.672-.782l1.672-.416.355-6.021c.391-6.663.106-13.22-.617-14.096-.26-.31-1.054-.69-1.777-.854-2.94-.653-.985-1.103 4.719-1.103 5.703 0 7.515.415 4.8 1.103-2.336.581-2.347.616-2.347 10.124 0 5.275.19 9.248.462 9.757.38.711.949.865 3.13.865 4.505 0 6.058-1.066 7.28-5.015.367-1.184 1.315-.971.983.227-.154.556-.402 2.25-.557 3.793l-.284 2.786h-9.746c-5.359 0-9.744-.166-9.744-.368"/><path fill="#ca2727" d="M72.555 56.923c0-.355.344-.71.913-.983.76-.356 1.256-1.103 3.058-4.624 2.858-5.571 7.363-15.139 7.79-16.574.33-1.09.403-1.15 1.635-1.292.711-.082 1.304-.13 1.316-.107l2.194 4.802c1.186 2.62 3.569 7.6 5.299 11.06 2.893 5.821 3.213 6.343 4.185 6.817.593.285 1.055.724 1.055.984 0 .415-.51.462-4.895.462-4.399 0-4.897-.047-4.897-.473 0-.284.38-.593.983-.795.558-.178.985-.51.985-.758 0-.238-.582-1.803-1.293-3.474l-1.292-3.047h-9.793l-.936 2.063c-1.755 3.865-1.79 4.778-.154 5.216.818.225 1.043.403.948.77-.106.428-.534.487-3.616.487-3.307.024-3.485 0-3.485-.534m16.052-9.59c.165-.297-3.521-8.347-3.864-8.43-.25-.07-4.067 7.801-4.067 8.394 0 .296 7.754.332 7.93.035"/></g></svg>