<svg xmlns="http://www.w3.org/2000/svg" fill="none" viewBox="0 0 512 512"><g transform="translate(30.72 30.72) scale(4.506)"><path fill="url(#a)" d="m50 26.309 23.808 13.185v-5.286L50 21.053q-11.9 6.584-23.81 13.155c2.93 1.623 33.688 18.614 52.383 28.941v5.266C76.034 69.823 50 84.203 50 84.203a25435 25435 0 0 1-28.574-15.787V52.628L50 68.414l4.765-2.633L16.66 44.738v26.32L50 89.468c3.286-1.816 30.9-17.073 33.33-18.42V60.527l-47.618-26.32zM16.66 28.94v10.532l47.617 26.32L49.99 73.69 26.18 60.506v5.286l23.81 13.155c3.541-1.96 20.655-11.42 23.808-13.155-2.93-1.623-33.677-18.614-52.372-28.951v-5.266C23.966 30.166 50 15.788 50 15.788a26918 26918 0 0 0 28.574 15.787v15.787L50 31.575l-4.766 2.633L83.33 55.26V28.94L50 10.521a33150 33150 0 0 1-33.34 18.42M50 0 7.138 23.686v52.628L50 100l42.862-23.676V23.686zm38.086 73.681L50 94.734 11.904 73.681V26.32L50 5.266l38.096 21.053z"/><defs><linearGradient id="a" x1="27.891" x2="72.116" y1="11.705" y2="88.305" gradientUnits="userSpaceOnUse"><stop stop-color="#ff00a0"/><stop offset="1" stop-color="#9600ff"/></linearGradient></defs></g></svg>