<svg xmlns="http://www.w3.org/2000/svg" fill="none" viewBox="0 0 512 512"><g transform="translate(30.72 30.72) scale(4.506)"><g clip-path="url(#a)"><path fill="#2a004e" d="M65.857 17.595a1.88 1.88 0 0 1 2.667 0l30.924 31.048a1.9 1.9 0 0 1 0 2.678l-30.927 31.05a1.88 1.88 0 0 1-2.667 0L34.931 51.324a1.9 1.9 0 0 1 0-2.678z"/><path fill="#f14a00" d="M23.042 51.333a1.89 1.89 0 0 1 0-2.667l25.877-25.98c.87-.872.684-2.332-.417-2.884a33.2 33.2 0 0 0-14.909-3.534C15.043 16.268 0 31.371 0 50s15.043 33.732 33.593 33.732a33.2 33.2 0 0 0 14.909-3.536c1.101-.551 1.286-2.011.417-2.884z"/></g><defs><clipPath id="a"><path fill="#fff" d="M0 0h100v100H0z"/></clipPath></defs></g></svg>