<svg xmlns="http://www.w3.org/2000/svg" fill="none" viewBox="0 0 512 512"><g transform="translate(30.72 30.72) scale(4.506)"><path fill="#ff5f3b" d="M26.802 4.542c2.296 0 3.418 0 4.304.444a4.14 4.14 0 0 1 1.777 1.774c.444.86.444 2.01.444 4.306v28.68c0 3.392 0 5.114-.705 6.157a4.06 4.06 0 0 1-2.688 1.723c-1.254.209-2.793-.522-5.872-1.957l-8.037-3.758c-5.794-2.714-8.69-4.072-10.83-6.159a17.5 17.5 0 0 1-4.202-6.577C0 26.385 0 23.201 0 16.781v-5.715c0-2.297 0-3.419.444-4.305a4.14 4.14 0 0 1 1.775-1.777c.887-.443 2.036-.443 4.306-.443zm66.674 0c2.297 0 3.42 0 4.306.444a4.14 4.14 0 0 1 1.774 1.774c.444.86.444 2.01.444 4.306v5.715c0 6.393 0 9.603-.992 12.422a17.5 17.5 0 0 1-4.201 6.576c-2.114 2.087-5.037 3.445-10.83 6.158L66.65 50V11.066c0-2.297 0-3.419.443-4.305a4.14 4.14 0 0 1 1.775-1.776c.887-.444 2.036-.444 4.332-.444zM66.65 50v38.936c0 2.296 0 3.418-.444 4.304a4.14 4.14 0 0 1-1.774 1.776c-.862.444-2.01.444-4.306.444H39.849c-2.297 0-3.418 0-4.304-.444a4.14 4.14 0 0 1-1.776-1.774c-.443-.861-.443-2.01-.443-4.306v-5.742c0-6.393 0-9.601.992-12.421a17.5 17.5 0 0 1 4.2-6.576c2.114-2.088 5.037-3.444 10.829-6.133z"/></g></svg>