<svg xmlns="http://www.w3.org/2000/svg" fill="none" viewBox="0 0 512 512"><g transform="translate(-4.958 -9.035) scale(5.219)"><path fill="#22314e" d="M26.465 17.54c0 5.39-4.233 9.756-9.455 9.756-5.221 0-9.454-4.367-9.454-9.757 0-5.386 4.233-9.753 9.454-9.753s9.455 4.367 9.455 9.753zm0 33.242c0 5.387-4.233 9.753-9.455 9.753-5.221 0-9.454-4.367-9.454-9.753s4.233-9.753 9.454-9.753 9.455 4.367 9.455 9.753m0 33.242c0 5.387-4.233 9.754-9.455 9.754-5.221 0-9.454-4.367-9.454-9.753s4.233-9.757 9.454-9.757 9.455 4.37 9.455 9.756m32.99-33.242c0 5.387-4.233 9.753-9.455 9.753s-9.455-4.367-9.455-9.753S44.778 41.03 50 41.03s9.455 4.367 9.455 9.753m0-33.242c0 5.39-4.233 9.756-9.455 9.756s-9.455-4.367-9.455-9.757c0-5.386 4.233-9.753 9.455-9.753s9.455 4.367 9.455 9.753zm32.989 33.242c0 5.387-4.233 9.753-9.454 9.753s-9.455-4.367-9.455-9.753 4.236-9.753 9.455-9.753 9.454 4.367 9.454 9.753m0-33.242c0 5.39-4.233 9.756-9.454 9.756s-9.455-4.367-9.455-9.757c0-5.386 4.236-9.753 9.455-9.753s9.454 4.367 9.454 9.753zm0 66.484c0 5.387-4.233 9.754-9.454 9.754s-9.455-4.367-9.455-9.753 4.236-9.757 9.455-9.757 9.454 4.37 9.454 9.756m-32.99 0c0 5.387-4.232 9.754-9.454 9.754s-9.455-4.367-9.455-9.753 4.233-9.757 9.455-9.757 9.455 4.37 9.455 9.756"/></g></svg>